<svg xmlns="http://www.w3.org/2000/svg" fill="none" viewBox="0 0 36 36"><g clip-path="url(#a)"><rect width="32" height="32" x="2" y="2" fill="#FFCD00" rx="16"/><path fill="#fff" d="M18.1177 25.7605V22.1397H14.9447C14.8814 22.1397 14.8207 22.1145 14.7759 22.0698C14.7311 22.025 14.7058 21.9642 14.7057 21.9008V20.6704C14.7057 20.6389 14.7119 20.6078 14.7239 20.5787C14.7359 20.5497 14.7535 20.5233 14.7757 20.501C14.7979 20.4788 14.8243 20.4612 14.8533 20.4491C14.8823 20.4371 14.9133 20.4309 14.9447 20.4309H18.1177V19.6058H14.9447C14.9133 19.6058 14.8823 19.5996 14.8533 19.5876C14.8243 19.5756 14.7979 19.5579 14.7757 19.5357C14.7535 19.5134 14.7359 19.487 14.7239 19.458C14.7119 19.4289 14.7057 19.3978 14.7057 19.3664V18.1359C14.7057 18.1045 14.7119 18.0734 14.7239 18.0443C14.7359 18.0153 14.7535 17.9889 14.7757 17.9666C14.7979 17.9444 14.8243 17.9267 14.8533 17.9147C14.8823 17.9027 14.9133 17.8965 14.9447 17.8965H18.1177V14.1828C18.1177 13.6596 17.7173 13.209 17.1956 13.1834C17.0642 13.1769 16.9329 13.1972 16.8096 13.243C16.6862 13.2889 16.5735 13.3594 16.4782 13.4502C16.3828 13.541 16.3069 13.6503 16.255 13.7713C16.2031 13.8924 16.1762 14.0228 16.1761 14.1546V15.5061C16.1761 15.5375 16.1699 15.5686 16.1579 15.5977C16.1459 15.6268 16.1283 15.6532 16.1061 15.6754C16.0839 15.6976 16.0575 15.7153 16.0285 15.7273C15.9995 15.7393 15.9685 15.7455 15.9371 15.7455H13.239C13.2076 15.7455 13.1766 15.7393 13.1476 15.7273C13.1186 15.7153 13.0922 15.6976 13.07 15.6754C13.0478 15.6532 13.0302 15.6268 13.0182 15.5977C13.0062 15.5686 13 15.5375 13 15.5061V14.2175C13 11.9375 14.8069 10.0351 17.0827 10.0004C17.6325 9.99258 18.1784 10.0942 18.6886 10.2994C19.1989 10.5046 19.6634 10.8092 20.0552 11.1957C20.447 11.5821 20.7582 12.0427 20.971 12.5506C21.1837 13.0586 21.2936 13.6038 21.2943 14.1546V17.8965H22.761C22.7924 17.8965 22.8234 17.9027 22.8524 17.9147C22.8814 17.9267 22.9078 17.9444 22.93 17.9666C22.9522 17.9889 22.9698 18.0153 22.9818 18.0443C22.9938 18.0734 23 18.1045 23 18.1359V19.3664C23 19.3978 22.9938 19.4289 22.9818 19.458C22.9698 19.487 22.9522 19.5134 22.93 19.5357C22.9078 19.5579 22.8814 19.5756 22.8524 19.5876C22.8234 19.5996 22.7924 19.6058 22.761 19.6058H21.2943V20.4309H22.761C22.7924 20.4309 22.8234 20.4371 22.8524 20.4491C22.8814 20.4612 22.9078 20.4788 22.93 20.501C22.9522 20.5233 22.9698 20.5497 22.9818 20.5787C22.9938 20.6078 23 20.6389 23 20.6704V21.9008C22.9999 21.9642 22.9746 22.025 22.9298 22.0698C22.885 22.1145 22.8243 22.1397 22.761 22.1397H21.2943V25.7605C21.2943 25.824 21.2691 25.885 21.2243 25.9299C21.1795 25.9748 21.1187 26 21.0553 26H18.3567C18.2933 26 18.2325 25.9748 18.1877 25.9299C18.1428 25.885 18.1177 25.824 18.1177 25.7605Z"/></g><rect width="34" height="34" x="1" y="1" stroke="#FFDE55" stroke-width="2" rx="17"/><defs><clipPath id="a"><rect width="32" height="32" x="2" y="2" fill="#fff" rx="16"/></clipPath></defs></svg>