<svg xmlns="http://www.w3.org/2000/svg" enable-background="new 0 0 128 128" viewBox="0 0 128 128"><circle cx="64" cy="64" r="64" fill="#39F"/><path fill="#333" d="M51.75,85.055c1.555,0.043,2.619-0.311,3.193-1.069c0.572-0.759,0.983-1.833,1.228-3.226l3.868-20.2H54.39    l1.106-5.831h5.586l1.476-7.799c0.369-1.924,0.858-3.563,1.47-4.911c0.617-1.352,1.415-2.448,2.396-3.285    c0.982-0.838,2.189-1.441,3.625-1.811c1.431-0.369,3.149-0.554,5.156-0.554c1.761,0,3.294,0.143,4.606,0.43l-1.107,6.568    c-0.45-0.202-0.869-0.326-1.257-0.368c-0.39-0.04-0.79-0.061-1.198-0.061c-1.597,0-2.711,0.308-3.347,0.922    c-0.635,0.613-1.075,1.575-1.319,2.885l-1.534,7.983h6.016L75.08,60.56h-6.139l-3.438,19.031c-0.368,2.05-0.819,3.82-1.349,5.317    c-0.535,1.49-1.27,2.74-2.213,3.74c-0.94,1.007-2.147,1.756-3.62,2.245c-1.476,0.49-3.359,0.737-5.649,0.737    c-0.78,0-1.515-0.016-2.213-0.031c-0.696-0.021-1.452-0.073-2.269-0.158l1.104-6.565C50.111,84.997,50.93,85.055,51.75,85.055z"/></svg>