<svg xmlns="http://www.w3.org/2000/svg" viewBox="0 0 512 512"><g transform="matrix(.96852 0 0 .96852 -9.496 -523.478)"><g fill="#f69b1f" transform="translate(0 540.362)"><g style="line-height:125%" font-family="Sans" font-size="91.59" font-weight="400" letter-spacing="0" word-spacing="0"><path d="m 16,75.75 0,360.5 36.252311,16.90473 0,-360.5 z"/><path d="m 16,436.25 45.625,0 36.252311,16.90473 -45.625,0 z"/><path d="m 61.625,436.25 0,-114.3125 36.252311,16.90473 0,114.3125 z"/><path d="m 61.625,321.9375 62.09375,-73.09375 36.25231,16.90473 -62.093749,73.09375 z"/><path d="M 123.71875,248.84375 231.40625,436.25 267.65856,453.15473 159.97106,265.74848 z"/><path d="m 231.40625,436.25 51.125,0 36.25231,16.90473 -51.125,0 z"/><path d="M282.53125 436.25l-130.25-223.125 36.25231 16.90473 130.25 223.125zM152.28125 213.125L264.9375 75.75l36.25231 16.90473-112.65625 137.375z"/><path d="m 264.9375,75.75 -51.65625,0 36.25231,16.90473 51.65625,0 z"/><path d="M213.28125 75.75L63.25 256.5625 99.502311 273.46723 249.53356 92.65473zM63.25 256.5625l-1.625 0 36.252311 16.90473 1.625 0z"/><path d="m 61.625,256.5625 0,-180.8125 36.252311,16.90473 0,180.8125 z"/><path d="M61.625 75.75l-45.625 0 36.252311 16.90473 45.625 0zM309.15625 169.1875l0 36.8125 36.25231 16.90473 0-36.8125z"/><path d="m 309.15625,206 125.28125,0 36.25231,16.90473 -125.28125,0 z"/><path d="m 434.4375,206 -140.65625,206.0625 36.25231,16.90473 140.65625,-206.0625 z"/><path d="m 293.78125,412.0625 0,24.1875 36.25231,16.90473 0,-24.1875 z"/><path d="m 293.78125,436.25 202.21875,0 36.25231,16.90473 -202.21875,0 z"/><path d="m 496,436.25 0,-36.8125 36.25231,16.90473 0,36.8125 z"/><path d="m 496,399.4375 -145.09375,0 36.25231,16.90473 145.09375,0 z"/><path d="m 350.90625,399.4375 140.6875,-206.09375 36.25231,16.90473 -140.6875,206.09375 z"/><path d="m 491.59375,193.34375 0,-24.15625 36.25231,16.90473 0,24.15625 z"/><path d="m 491.59375,169.1875 -182.4375,0 36.25231,16.90473 182.4375,0 z"/></g><path d="m 16,75.75 0,360.5 45.625,0 0,-114.3125 62.09375,-73.09375 107.6875,187.40625 51.125,0 -130.25,-223.125 L 264.9375,75.75 213.28125,75.75 63.25,256.5625 l -1.625,0 0,-180.8125 -45.625,0 z m 293.15625,93.4375 0,36.8125 125.28125,0 -140.65625,206.0625 0,24.1875 202.21875,0 0,-36.8125 -145.09375,0 140.6875,-206.09375 0,-24.15625 -182.4375,0 z" style="line-height:125%" font-family="Sans" font-size="91.59" font-weight="400" letter-spacing="0" word-spacing="0"/></g><path style="line-height:125%" fill="#fcd116" d="m 16,75.75 0,360.5 45.625,0 0,-114.3125 62.09375,-73.09375 107.6875,187.40625 51.125,0 -130.25,-223.125 L 264.9375,75.75 213.28125,75.75 63.25,256.5625 l -1.625,0 0,-180.8125 -45.625,0 z m 293.15625,93.4375 0,36.8125 125.28125,0 -140.65625,206.0625 0,24.1875 202.21875,0 0,-36.8125 -145.09375,0 140.6875,-206.09375 0,-24.15625 -182.4375,0 z" font-family="Sans" font-size="91.59" font-weight="400" letter-spacing="0" transform="translate(0 540.362)" word-spacing="0"/></g></svg>