<svg xmlns="http://www.w3.org/2000/svg" fill="none" viewBox="0 0 32 32"><g clip-path="url(#a)"><path fill="#FDD837" d="M19.4371 30.5629C27.48 28.6646 32.4611 20.6057 30.5629 12.5629C28.6646 4.52002 20.6057 -0.461131 12.5629 1.43715C4.52001 3.33544 -0.461137 11.3943 1.43715 19.4372C3.33543 27.48 11.3943 32.4611 19.4371 30.5629Z"/><mask id="b" style="mask-type:alpha" width="30" height="30" x="1" y="1" maskUnits="userSpaceOnUse"><path fill="#FDD40C" d="M1.00014 15.8839C0.997339 16.5397 1.03692 17.1951 1.11863 17.8458C1.48847 20.7393 2.69719 23.4613 4.5957 25.676C6.49421 27.8907 8.99947 29.5012 11.8025 30.309C13.1291 30.6894 14.5017 30.8854 15.8817 30.8917C16.931 30.8966 17.9779 30.7918 19.0053 30.579C20.9636 30.1667 22.8195 29.3664 24.4636 28.2255C26.1077 27.0845 27.5066 25.6258 28.578 23.9356C28.7159 23.718 28.848 23.4946 28.9762 23.2712C29.5693 22.2183 30.0318 21.097 30.3535 19.9321C30.4623 19.5436 30.5477 19.1356 30.6332 18.7277C30.7187 18.3198 30.7711 17.906 30.8139 17.4845C30.8644 16.9989 30.8903 16.5074 30.8916 16.0101C30.8949 15.411 30.8619 14.8123 30.7925 14.2172C30.7459 13.8054 30.6811 13.3994 30.5982 12.9992C30.0161 10.1125 28.5948 7.46176 26.5125 5.37941C24.4301 3.29707 21.7794 1.87575 18.8926 1.29363C18.4925 1.21205 18.0846 1.14795 17.6727 1.09938C17.1195 1.03484 16.5631 1.00176 16.0061 1.00032C15.4721 0.996795 14.9384 1.02273 14.4074 1.07802C13.9878 1.11881 13.5721 1.18097 13.1642 1.25867C12.7562 1.33637 12.3541 1.42767 11.9579 1.53645C10.7926 1.85796 9.67118 2.32114 8.61868 2.91563C8.39335 3.0419 8.16996 3.17399 7.9524 3.30414C5.55626 4.82563 3.63962 6.99414 2.424 9.55904C1.92261 10.6175 1.54896 11.732 1.31094 12.8788C1.1069 13.8675 1.00278 14.8743 1.00014 15.8839V15.8839Z"/></mask><g mask="url(#b)"><path fill="#FFF6AA" d="M16.2219-7.10809C17.0057-6.72033 17.7544-6.26538 18.4597-5.74833L-8.28871 24.5218C-8.9159 23.9119-9.48853 23.2482-10.0001 22.5385L16.2219-7.10809zM23.2219-.108093C24.0057.279666 24.7544.734622 25.4597 1.25167L-1.28871 31.5218C-1.9159 30.9119-2.48853 30.2482-3.00006 29.5385L23.2219-.108093zM19.2219-3.10809C20.0057-2.72033 20.7544-2.26538 21.4597-1.74833L-5.28871 28.5218C-5.9159 27.9119-6.48853 27.2482-7.00006 26.5385L19.2219-3.10809zM26.2219 3.89191C27.0057 4.27967 27.7544 4.73462 28.4597 5.25167L1.71129 35.5218C1.0841 34.9119.51147 34.2482-.0000610352 33.5385L26.2219 3.89191zM31.2219 5.89191C32.0057 6.27967 32.7544 6.73462 33.4597 7.25167L6.71129 37.5218C6.0841 36.9119 5.51147 36.2482 4.99994 35.5385L31.2219 5.89191zM33.2219 10.8919C34.0057 11.2797 34.7544 11.7346 35.4597 12.2517L8.71129 42.5218C8.0841 41.9119 7.51147 41.2482 6.99994 40.5385L33.2219 10.8919zM39.2219 10.8919C40.0057 11.2797 40.7544 11.7346 41.4597 12.2517L14.7113 42.5218C14.0841 41.9119 13.5115 41.2482 12.9999 40.5385L39.2219 10.8919z"/></g><path fill="#F9BF2C" d="M17.9801 29.1825C25.3659 27.9836 30.3814 21.0243 29.1825 13.6385C27.9836 6.2527 21.0244 1.23721 13.6386 2.4361C6.25276 3.63498 1.23727 10.5943 2.43616 17.9801C3.63504 25.3659 10.5943 30.3814 17.9801 29.1825Z"/><path style="mix-blend-mode:multiply" fill="url(#c)" d="M18.0172 29.4108C25.5291 28.1915 30.6302 21.1134 29.4108 13.6015C28.1915 6.08961 21.1134 0.988492 13.6015 2.20785C6.0896 3.4272 0.988481 10.5053 2.20783 18.0172C3.42719 25.5291 10.5053 30.6302 18.0172 29.4108Z"/><path style="mix-blend-mode:multiply" fill="url(#d)" d="M28.5814 15.9602C28.6451 12.4573 27.3521 9.07159 24.9865 6.54702C22.6209 4.02245 19.3761 2.56546 15.9651 2.49616C17.7172 2.44769 19.461 2.76023 21.0936 3.41531C22.7261 4.0704 24.2143 5.05475 25.4702 6.31025C26.7262 7.56575 27.7245 9.06695 28.4061 10.7252C29.0877 12.3835 29.4389 14.1652 29.4389 15.9651C29.4389 17.7651 29.0877 19.5468 28.4061 21.205C27.7245 22.8633 26.7262 24.3645 25.4702 25.62C24.2143 26.8755 22.7261 27.8598 21.0936 28.5149C19.461 29.17 17.7172 29.4825 15.9651 29.4341C19.3778 29.3648 22.624 27.9064 24.9899 25.3797C27.3558 22.853 28.6476 19.4649 28.5814 15.9602V15.9602Z"/><path style="mix-blend-mode:multiply" fill="url(#e)" d="M15.9651 2.49616C12.5541 2.56546 9.30932 4.02245 6.94371 6.54702C4.57811 9.07159 3.28512 12.4573 3.34883 15.9602C3.28257 19.4649 4.57442 22.853 6.9403 25.3797C9.30618 27.9064 12.5524 29.3648 15.9651 29.4341C14.213 29.4825 12.4692 29.17 10.8366 28.5149C9.20409 27.8598 7.71591 26.8755 6.45995 25.62C5.20399 24.3645 4.20573 22.8633 3.52409 21.205C2.84246 19.5468 2.49127 17.7651 2.49127 15.9651C2.49127 14.1652 2.84246 12.3835 3.52409 10.7252C4.20573 9.06695 5.20399 7.56575 6.45995 6.31025C7.71591 5.05475 9.20409 4.0704 10.8366 3.41531C12.4692 2.76023 14.213 2.44769 15.9651 2.49616V2.49616Z"/><path fill="#FFF6AA" stroke="#FFF6AA" stroke-width=".8" d="M11.6305 15.7687C10.7453 15.7687 9.88161 15.7687 9.00271 15.7687C9.00271 15.5892 9.00271 15.4241 9.00271 15.2594C9.00271 14.8882 9.007 14.5171 9.00007 14.1459C8.99809 14.0308 9.03903 14.0098 9.1361 14.0102C10.1335 14.0133 11.131 14.0098 12.1284 14.0158C12.2443 14.0165 12.2905 13.9759 12.3301 13.8661C13.0076 11.9747 13.6907 10.0853 14.3666 8.19355C14.4178 8.05013 14.4792 7.99731 14.6284 8.00011C15.2465 8.0106 15.8649 8.0071 16.4829 8.0015C16.5833 8.00045 16.6252 8.03579 16.6596 8.13198C17.3351 10.0196 18.0136 11.9061 18.6931 13.7919C18.7915 14.0648 18.7284 14.0105 18.9932 14.0112C19.9328 14.014 20.8725 14.014 21.8121 14.0098C21.9237 14.0095 21.9594 14.0385 21.9581 14.1617C21.9515 14.6895 21.9554 15.2174 21.9554 15.7687C21.1062 15.7687 20.2656 15.7687 19.4052 15.7687C19.459 15.9212 19.503 16.0464 19.5479 16.171C19.6779 16.5337 19.812 16.8951 19.9371 17.2599C19.9748 17.3694 20.0226 17.4128 20.1402 17.4111C20.6965 17.4027 21.2528 17.4072 21.8095 17.4072C21.8504 17.4072 21.891 17.4072 21.9439 17.4072C21.9439 17.9942 21.9439 18.5714 21.9439 19.1622C21.5127 19.1622 21.0821 19.1622 20.6252 19.1622C21.0868 20.4464 21.5407 21.7092 22 22.9867C21.9468 22.9912 21.9118 22.9965 21.8768 22.9965C21.2915 22.9968 20.7064 22.9944 20.121 22.9989C20.0345 22.9996 20.0018 22.9678 19.9744 22.8856C19.5726 21.6766 19.1665 20.4694 18.7644 19.2605C18.739 19.1842 18.7016 19.1654 18.63 19.1654C16.5691 19.1671 14.5082 19.1675 12.4473 19.1643C12.3579 19.1643 12.3295 19.2028 12.303 19.2818C11.9049 20.474 11.5024 21.6641 11.1062 22.8562C11.0702 22.9646 11.025 23.001 10.9157 23C10.3346 22.9937 9.75351 22.9972 9.17208 22.9972C9.13544 22.9972 9.09879 22.9972 9.03738 22.9972C9.49829 21.7176 9.95326 20.4544 10.4145 19.1738C9.9417 19.1738 9.4831 19.1738 9.01328 19.1738C9.00898 19.1234 9.00304 19.0859 9.00304 19.0485C9.00271 18.5462 9.00634 18.0442 9.00139 17.5419C9.0004 17.4303 9.0354 17.4041 9.13544 17.4048C9.737 17.4093 10.3389 17.4062 10.9408 17.4086C11.0154 17.409 11.0586 17.3929 11.0877 17.31C11.2554 16.8321 11.4298 16.3567 11.6011 15.8803C11.611 15.8534 11.616 15.8243 11.6305 15.7687ZM18.0892 17.4002C18.0859 17.3729 18.0869 17.3596 18.0829 17.3481C17.9096 16.8493 17.7346 16.3511 17.5642 15.8509C17.5375 15.7725 17.4896 15.7729 17.4295 15.7729C16.1607 15.7736 14.8922 15.7743 13.6234 15.7715C13.5395 15.7711 13.5002 15.7991 13.4718 15.8831C13.3341 16.2934 13.1899 16.7016 13.0482 17.1106C13.0162 17.2029 12.9858 17.2956 12.9508 17.4002C14.6716 17.4002 16.3753 17.4002 18.0892 17.4002ZM15.5202 10.007C15.049 11.3607 14.5911 12.6771 14.1302 14.0018C15.0712 14.0018 15.9864 14.0018 16.9161 14.0018C16.4512 12.6715 15.992 11.3572 15.5202 10.007Z"/></g><defs><radialGradient id="d" cx="0" cy="0" r="1" gradientTransform="matrix(-7.06796 -24.56636 24.02204 -6.91135 24.084 27.196)" gradientUnits="userSpaceOnUse"><stop offset=".02" stop-color="#fff" stop-opacity="0"/><stop offset="1" stop-color="#F9A822" stop-opacity=".8"/></radialGradient><radialGradient id="e" cx="0" cy="0" r="1" gradientTransform="matrix(6.73686 24.70202 -24.05524 6.56047 6.983 5.298)" gradientUnits="userSpaceOnUse"><stop offset=".02" stop-color="#fff" stop-opacity="0"/><stop offset=".666" stop-color="#FCD99D" stop-opacity=".51"/><stop offset="1" stop-color="#F9A822" stop-opacity=".6"/></radialGradient><linearGradient id="c" x1="6.675" x2="6.691" y1="17.039" y2="40.277" gradientUnits="userSpaceOnUse"><stop offset=".02" stop-color="#fff" stop-opacity="0"/><stop offset="1" stop-color="#F9A822"/></linearGradient><clipPath id="a"><rect width="32" height="32" fill="#fff" rx="16"/></clipPath></defs></svg>