<svg xmlns="http://www.w3.org/2000/svg" enable-background="new 0 0 128 128" viewBox="0 0 128 128"><circle cx="64" cy="64" r="64" fill="#39F"/><path fill="#333" d="M50.491 41.863c1.967 0 3.736.316 5.313.954 1.576.633 2.924 1.502 4.053 2.608 1.127 1.102 1.98 2.382 2.582 3.836.59 1.455.885 3.02.885 4.695 0 2.582-.543 4.816-1.623 6.697-1.086 1.882-2.855 3.314-5.313 4.295v.121c1.186.332 2.166.833 2.945 1.507.775.675 1.414 1.476 1.902 2.393.49.922.85 1.934 1.076 3.04.221 1.107.379 2.208.463 3.315.037.7.08 1.518.117 2.455.041.943.115 1.902.221 2.888.094.98.264 1.918.484 2.793.227.88.57 1.628 1.018 2.239h-9.639c-.537-1.386-.863-3.046-.984-4.969-.121-1.924-.307-3.768-.555-5.528-.326-2.292-1.021-3.973-2.086-5.032-1.064-1.064-2.803-1.597-5.217-1.597h-9.643V85.7h-9.639V41.863H50.491zM47.052 61.698c2.213 0 3.867-.49 4.973-1.476 1.107-.98 1.66-2.577 1.66-4.79 0-2.129-.553-3.673-1.66-4.637-1.105-.96-2.76-1.439-4.973-1.439H36.491v12.342H47.052zM77.444 76.984c1.266 1.35 2.846 2.208 4.727 2.582V66.73c-.205-.079-.479-.174-.826-.274-.348-.105-.727-.194-1.139-.279-1.518-.405-3.008-.885-4.479-1.438-1.477-.553-2.793-1.291-3.963-2.213-1.164-.922-2.098-2.065-2.793-3.441-.695-1.37-1.043-3.077-1.043-5.127 0-2.081.4-3.926 1.195-5.522.797-1.597 1.85-2.935 3.162-4.021 1.313-1.085 2.824-1.923 4.547-2.519 1.719-.596 3.5-.954 5.338-1.075v-4.727h3.621v4.727c1.844.206 3.572.606 5.189 1.201 1.619.591 3.041 1.407 4.27 2.456 1.227 1.043 2.229 2.34 3.008 3.894.775 1.561 1.229 3.399 1.35 5.528h-8.715c-.043-1.639-.555-3.03-1.539-4.174-.98-1.148-2.172-1.723-3.563-1.723v10.865c.496.127.996.248 1.508.374.51.121 1.053.264 1.621.427 3.037.817 5.365 1.834 7.004 3.041 1.639 1.206 2.846 2.466 3.621 3.772.779 1.313 1.242 2.624 1.379 3.932.148 1.312.223 2.477.223 3.498 0 .901-.232 2.04-.676 3.41-.453 1.369-1.264 2.713-2.428 4.021-1.166 1.312-2.736 2.478-4.695 3.499-1.971 1.021-4.484 1.639-7.557 1.844v5.222h-3.621v-5.222c-4.584-.326-8.162-1.739-10.744-4.236-2.582-2.498-4.072-6.16-4.479-10.992h8.652C75.558 73.791 76.175 75.636 77.444 76.984zM80.144 48.313c-.654.2-1.244.521-1.781.948-.527.433-.949.965-1.254 1.597-.307.633-.465 1.381-.465 2.24 0 1.349.432 2.397 1.291 3.135.859.732 2.271 1.328 4.236 1.776V48.003C81.476 48.003 80.796 48.108 80.144 48.313zM88.101 79.04c.795-.264 1.512-.644 2.145-1.134.637-.495 1.154-1.096 1.564-1.813s.617-1.564.617-2.55c0-1.592-.502-2.793-1.502-3.589-1.008-.801-2.719-1.528-5.133-2.182v11.793C86.53 79.482 87.3 79.309 88.101 79.04z"/></svg>