<svg xmlns="http://www.w3.org/2000/svg" viewBox="0 0 32 32"><linearGradient id="a" x1="16" x2="16" y1="3" y2="33" gradientTransform="matrix(1 0 0 -1 0 34)" gradientUnits="userSpaceOnUse"><stop offset="0" stop-color="#0da38d"/><stop offset=".45" stop-color="#14bf85"/><stop offset="1" stop-color="#1bdd7c"/></linearGradient><path fill="url(#a)" d="M20 13c0 1.7-1.3 3-3 3h-3v-6h3c1.7 0 3 1.3 3 3zm11 3c0 8.3-6.7 15-15 15S1 24.3 1 16 7.7 1 16 1s15 6.7 15 15zm-9-3c0-2.8-2.2-5-5-5h-4c-.6 0-1 .4-1 1v14c0 .6.4 1 1 1s1-.4 1-1v-5h3c2.8 0 5-2.2 5-5z"/><path fill="#d9ffe6" d="M17 8h-4c-.6 0-1 .4-1 1v14c0 .6.4 1 1 1s1-.4 1-1v-5h3c2.8 0 5-2.2 5-5s-2.2-5-5-5zm2.6 6.5c-.5.9-1.5 1.5-2.6 1.5h-3v-6h3c1.7 0 3 1.3 3 3 0 .5-.1 1-.4 1.5z"/></svg>