<svg xmlns="http://www.w3.org/2000/svg" enable-background="new 0 0 128 128" viewBox="0 0 128 128"><circle cx="64" cy="64" r="64" fill="#39F"/><path fill="#333" d="M39.055 48.601c1.454 0 2.782.132 3.973.385 1.196.258 2.224.68 3.077 1.259.854.585 1.518 1.365 1.987 2.329.469.97.7 2.166.7 3.589 0 1.538-.348 2.819-1.043 3.847-.695 1.022-1.729 1.86-3.099 2.519 1.881.537 3.283 1.486 4.205 2.84.928 1.355 1.391 2.984 1.391 4.891 0 1.539-.3 2.873-.896 3.994-.596 1.123-1.401 2.045-2.413 2.756-1.012.713-2.166 1.238-3.462 1.582-1.297.336-2.624.506-3.994.506H24.706V48.601H39.055zM38.2 60.946c1.202 0 2.182-.284 2.951-.854s1.154-1.496 1.154-2.776c0-.712-.132-1.297-.385-1.75-.258-.458-.601-.812-1.027-1.069-.427-.259-.917-.433-1.471-.538-.559-.095-1.133-.147-1.733-.147h-6.275v7.135H38.2zM38.585 73.889c.659 0 1.286-.063 1.882-.195.595-.125 1.122-.336 1.58-.637.454-.301.822-.707 1.086-1.217.274-.518.411-1.166.411-1.967 0-1.564-.442-2.682-1.328-3.352-.88-.668-2.05-1.006-3.499-1.006h-7.303v8.373H38.585zM69.169 54.238H54.094v-5.638h24.002v5.296L61.734 73.463h16.788v5.633H52.808v-5.291L69.169 54.238zM86.812 73.035c.88.938 1.976 1.539 3.282 1.791V65.9c-.142-.059-.332-.121-.574-.189-.242-.074-.506-.137-.79-.195-1.054-.279-2.092-.617-3.114-1.002-1.027-.385-1.944-.895-2.756-1.538s-1.46-1.438-1.944-2.393c-.485-.954-.728-2.145-.728-3.567 0-1.449.274-2.729.833-3.842.553-1.111 1.291-2.044 2.202-2.798.906-.753 1.96-1.338 3.162-1.755 1.19-.411 2.435-.658 3.709-.743v-3.293h2.524v3.293c1.28.138 2.481.417 3.609.833 1.123.411 2.113.98 2.967 1.707.854.728 1.549 1.629 2.092 2.714.543 1.08.854 2.361.938 3.842h-6.061c-.031-1.139-.39-2.108-1.069-2.903-.685-.796-1.513-1.196-2.477-1.196v7.557c.343.089.69.174 1.049.258.353.09.727.185 1.127.3 2.108.569 3.731 1.275 4.869 2.113 1.139.844 1.981 1.719 2.52 2.631.542.91.863 1.822.959 2.729.1.912.152 1.729.152 2.439 0 .623-.152 1.412-.469 2.367-.312.953-.875 1.887-1.687 2.797-.812.912-1.902 1.725-3.267 2.436-1.37.711-3.12 1.139-5.254 1.279v3.637h-2.524v-3.637c-3.188-.227-5.68-1.205-7.472-2.945-1.792-1.732-2.835-4.283-3.119-7.641h6.022C85.499 70.811 85.926 72.098 86.812 73.035zM88.688 53.085c-.453.147-.87.363-1.238.664-.369.3-.659.669-.875 1.111-.211.442-.321.959-.321 1.555 0 .943.3 1.67.896 2.182.601.511 1.581.927 2.945 1.238v-6.961C89.614 52.874 89.141 52.942 88.688 53.085zM94.22 74.463c.554-.184 1.049-.447 1.497-.791.438-.342.801-.758 1.085-1.258.285-.496.427-1.092.427-1.771 0-1.111-.348-1.943-1.043-2.498-.701-.559-1.887-1.064-3.567-1.518v8.199C93.129 74.77 93.667 74.648 94.22 74.463z"/></svg>