<svg xmlns="http://www.w3.org/2000/svg" fill="none" viewBox="0 0 36 36"><g clip-path="url(#a)"><rect width="32" height="32" x="2" y="2" fill="#FFCD00" rx="16"/><path fill="#fff" fill-rule="evenodd" d="M19.3529 22.1382L18.3538 20.1812C18.3538 20.1812 20.0389 18.5193 20.0387 17.5232H17.5715V15.1109H18.7783C18.5972 14.5539 18.5052 13.914 18.6039 13.215C18.7957 11.8557 19.6794 10.7874 21.0285 10.2842C22.3987 9.77315 24.0109 9.9634 25.0401 10.7579C25.6063 11.195 26.1213 11.6504 26.143 11.6695L24.3944 13.4289L24.3942 13.4287L24.3936 13.4281C24.3708 13.4081 23.909 13.0011 23.422 12.6251C23.1474 12.4131 22.5284 12.3184 21.968 12.5275C21.4856 12.7075 21.2062 13.0459 21.1373 13.5335C21.0486 14.1625 21.3146 14.73 21.5693 15.1108H24.6282V17.5231H22.5966C22.6178 18.4489 22.2888 19.176 21.9277 19.7277L25.7667 19.7305L25.7647 22.1429L19.3529 22.1382ZM16.1429 25H9V12.1428H16.1429V14.7019H11.6498V17.2918H15.8115V19.8509H11.6498V22.4409H16.1429V25Z" clip-rule="evenodd"/></g><rect width="34" height="34" x="1" y="1" stroke="#FFDE55" stroke-width="2" rx="17"/><defs><clipPath id="a"><rect width="32" height="32" x="2" y="2" fill="#fff" rx="16"/></clipPath></defs></svg>