<svg xmlns="http://www.w3.org/2000/svg" enable-background="new 0 0 128 128" viewBox="0 0 128 128"><circle cx="64" cy="64" r="64" fill="#C9C"/><path fill="#333" d="M70.201,47.248c-4.903,0-8.176,3.201-9.81,9.604h17.097l-2.171,5.046H59.62l-0.071,2.944h14.928   l-2.173,5.045H60.109c1.497,7.385,4.954,11.074,10.373,11.074c3.505,0,7.101-1.471,10.792-4.416l-0.071,10.584   c-3.13,1.822-6.727,2.73-10.792,2.73c-5.886,0-10.628-1.889-14.225-5.674c-3.272-3.41-5.398-8.176-6.379-14.299h-5.398l2.174-5.045   h2.804V63.02c0-0.653,0.023-1.027,0.071-1.122h-5.117l2.174-5.046h3.572c1.123-5.653,3.437-10.117,6.938-13.387   c3.691-3.549,8.318-5.324,13.877-5.324c3.926,0,8.176,1.167,12.758,3.504l-4.276,8.761C76.113,48.303,73.052,47.248,70.201,47.248z   "/></svg>