<svg xmlns="http://www.w3.org/2000/svg" fill="none" viewBox="0 0 36 36"><g clip-path="url(#a)"><rect width="32" height="32" x="2" y="2" fill="#FFCD00" rx="16"/><path fill="#fff" stroke="#fff" d="M24 14.3125V13.7813C24 11.1447 21.8132 9 19.125 9C16.4368 9 14.25 11.1447 14.25 13.7813V17.5H11V19.625H14.1223C13.8684 21.3077 13.239 22.9159 12.2653 24.3481C12.0436 24.6739 12.023 25.0931 12.2114 25.4387C12.4002 25.7842 12.7673 26 13.1667 26H22.9167V23.875H15.0307C15.6901 22.5358 16.113 21.1021 16.3007 19.625H19.6666V17.5H16.4167V13.7813C16.4167 12.3167 17.6317 11.125 19.125 11.125C20.6183 11.125 21.8333 12.3167 21.8333 13.7813V14.3125H24Z"/></g><rect width="34" height="34" x="1" y="1" stroke="#FFDE55" stroke-width="2" rx="17"/><defs><clipPath id="a"><rect width="32" height="32" x="2" y="2" fill="#fff" rx="16"/></clipPath></defs></svg>