<svg xmlns="http://www.w3.org/2000/svg" enable-background="new 0 0 128 128" viewBox="0 0 128 128"><circle cx="64" cy="64" r="64" fill="#FC6"/><path fill="#333" d="M49.665,79.888c0.864-0.737,1.623-1.552,2.279-2.438c0.651-0.886,1.191-1.845,1.612-2.88   c0.422-1.035,0.633-2.121,0.633-3.262c0-0.717-0.116-1.422-0.348-2.118c-0.232-0.696-0.52-1.401-0.854-2.121h-6.265v-5.38h4.049   c-0.632-0.801-1.267-1.981-1.9-3.543c-0.632-1.56-0.948-3.291-0.948-5.191c0-1.686,0.348-3.291,1.043-4.808   c0.698-1.521,1.721-2.859,3.07-4.021c1.352-1.159,3.038-2.076,5.064-2.753c2.026-0.675,4.366-1.012,7.027-1.012   c4.851,0,8.626,1.352,11.327,4.049c2.7,2.701,4.052,6.626,4.052,11.772h-8.545c-0.042-0.632-0.126-1.423-0.253-2.372   c-0.126-0.951-0.41-1.868-0.854-2.756c-0.445-0.883-1.119-1.655-2.025-2.308c-0.91-0.653-2.164-0.983-3.769-0.983   c-1.896,0-3.406,0.53-4.523,1.584c-1.12,1.056-1.676,2.469-1.676,4.242c0,0.506,0.019,0.991,0.061,1.455   c0.042,0.463,0.137,1.004,0.287,1.615c0.147,0.611,0.4,1.318,0.759,2.119c0.358,0.804,0.854,1.773,1.486,2.911h8.418v5.38h-6.645   c0.21,0.636,0.348,1.265,0.411,1.899c0.063,0.633,0.095,1.311,0.095,2.026c0,1.983-0.516,3.681-1.549,5.093   c-1.035,1.415-2.247,2.67-3.641,3.766l0.126,0.129c1.015-0.635,1.836-1.033,2.469-1.204c0.632-0.169,1.244-0.253,1.836-0.253   c0.843,0,1.676,0.074,2.5,0.221c0.822,0.15,1.654,0.309,2.5,0.475c0.844,0.213,1.665,0.393,2.466,0.541   c0.802,0.146,1.626,0.221,2.47,0.221c0.843,0,1.699-0.147,2.563-0.443c0.864-0.295,1.868-1.057,3.006-2.278l3.797,6.392   c-1.518,1.476-3.144,2.512-4.871,3.102c-1.731,0.59-3.399,0.885-5.002,0.885c-1.604,0-2.932-0.105-3.986-0.316   c-1.056-0.211-2.025-0.463-2.911-0.758c-0.93-0.338-1.857-0.633-2.787-0.886c-0.928-0.255-2.087-0.382-3.479-0.382   c-1.141,0-2.334,0.16-3.578,0.475c-1.244,0.318-2.479,0.939-3.702,1.867l-3.926-5.822C47.924,81.268,48.799,80.625,49.665,79.888z"/></svg>