<svg xmlns="http://www.w3.org/2000/svg" fill="none" viewBox="0 0 64 64"><path fill="#50D9D7" d="M29.8813 50.9469C26.1543 52.3403 22.1038 52.6259 18.2181 51.7693C14.3325 50.9127 10.7775 48.9504 7.98194 46.119C5.18634 43.2876 3.26941 39.708 2.46227 35.8118C1.65512 31.9156 1.99222 27.869 3.43291 24.1601C4.87361 20.4511 7.3564 17.238 10.5819 14.9082C13.8075 12.5784 17.6381 11.2314 21.6119 11.0295C25.5858 10.8276 29.5332 11.7795 32.9782 13.7704C36.4233 15.7613 39.2189 18.7061 41.0281 22.25C42.3499 24.8391 43.1094 27.6783 43.2569 30.5814C43.4044 33.4846 42.9365 36.3861 41.884 39.0958C40.8315 41.8055 39.218 44.2621 37.1495 46.3044C35.081 48.3468 32.6041 49.9289 29.8813 50.9469V50.9469Z"/><path fill="#93E6E5" d="M43.2781 32.5626C43.3156 31.9382 43.3156 31.3121 43.2781 30.6876H33.9031C33.8193 27.7902 33.2126 24.9318 32.1125 22.2501H41.0281C40.7042 21.6035 40.341 20.9774 39.9406 20.3751H31.2125C29.2556 16.7668 26.5286 13.6333 23.225 11.197C23.0611 11.0708 22.86 11.0024 22.6531 11.0024C22.4463 11.0024 22.2452 11.0708 22.0813 11.197C18.7751 13.6306 16.0476 16.7647 14.0938 20.3751H5.36563C4.96524 20.9774 4.60207 21.6035 4.27813 22.2501H13.2219C12.1121 24.93 11.4959 27.7885 11.4031 30.6876H2.02813C1.99062 31.3121 1.99062 31.9382 2.02813 32.5626H11.4031C11.487 35.46 12.0936 38.3184 13.1938 41.0001H4.27813C4.60207 41.6467 4.96524 42.2729 5.36563 42.8751H14.0938C16.0476 46.4856 18.7751 49.6197 22.0813 52.0533C22.2452 52.1794 22.4463 52.2479 22.6531 52.2479C22.86 52.2479 23.0611 52.1794 23.225 52.0533C26.5335 49.6222 29.2615 46.4875 31.2125 42.8751H39.9406C40.341 42.2729 40.7042 41.6467 41.0281 41.0001H32.0844C33.1942 38.3202 33.8103 35.4618 33.9031 32.5626H43.2781ZM22.6531 13.1283C25.2238 15.1229 27.3987 17.5808 29.0656 20.3751H16.2406C17.9116 17.5838 20.0859 15.1266 22.6531 13.1283V13.1283ZM22.6531 50.122C20.0859 48.1237 17.9116 45.6665 16.2406 42.8751H29.0656C27.3957 45.6673 25.2212 48.1246 22.6531 50.122V50.122ZM30.0313 41.0001H15.275C14.0563 38.3479 13.3775 35.4797 13.2781 32.5626H32.0281C31.9287 35.4797 31.2499 38.3479 30.0313 41.0001V41.0001ZM13.2781 30.6876C13.3687 27.7724 14.0379 24.9043 15.2469 22.2501H30.0313C31.2499 24.9023 31.9287 27.7705 32.0281 30.6876H13.2781Z"/><path fill="#00BEBD" d="M39.9406 20.375H31.2125C30.0623 18.2008 28.607 16.2024 26.8906 14.4406 27.8275 13.6477 28.8277 12.9328 29.8812 12.3031 34.0111 13.8492 37.5366 16.6782 39.9406 20.375V20.375zM39.9406 42.875C37.5366 46.5718 34.0111 49.4008 29.8812 50.9469 28.8277 50.3171 27.8275 49.6023 26.8906 48.8094 28.607 47.0475 30.0623 45.0492 31.2125 42.875H39.9406zM32.0281 32.5625C31.9376 35.4777 31.2684 38.3458 30.0594 41H20.9563C19.7261 38.349 19.0286 35.4823 18.9031 32.5625H32.0281zM32.0281 30.6875H18.9031C19.0227 27.769 19.7139 24.9023 20.9375 22.25H30.0125C31.2376 24.9009 31.9228 27.7691 32.0281 30.6875V30.6875zM29.0656 20.375H21.9219C22.9111 18.6639 24.1181 17.0882 25.5125 15.6875 26.8797 17.1026 28.0726 18.6763 29.0656 20.375V20.375zM29.0656 42.875C28.0726 44.5737 26.8797 46.1474 25.5125 47.5625 24.1181 46.1618 22.9111 44.5861 21.9219 42.875H29.0656z"/><path fill="#50D9D7" d="M33.9031 32.5625C33.8193 35.4599 33.2126 38.3183 32.1125 41H41.0281C40.7042 41.6466 40.341 42.2727 39.9406 42.875H31.2125C30.0623 45.0491 28.607 47.0475 26.8906 48.8094C26.4125 48.4062 25.9531 47.9844 25.5125 47.5344C26.8798 46.1193 28.0726 44.5456 29.0656 42.8469H21.9219C21.575 42.2375 21.2469 41.6187 20.9844 40.9719H30.0594C31.2647 38.3263 31.9339 35.4681 32.0281 32.5625H18.9031C18.9031 31.7375 18.9031 31.5125 18.9031 30.6875H32.0281C31.9376 27.7723 31.2684 24.9042 30.0594 22.25H20.9563C21.2469 21.6031 21.575 20.9844 21.8938 20.375H29.0375C28.0445 18.6762 26.8516 17.1025 25.4844 15.6875C25.925 15.2375 26.4219 14.8156 26.8625 14.4125C28.591 16.1811 30.056 18.1891 31.2125 20.375H39.9406C40.341 20.9772 40.7042 21.6034 41.0281 22.25H32.0844C33.1942 24.9299 33.8103 27.7884 33.9031 30.6875H43.2781C43.3156 31.3119 43.3156 31.938 43.2781 32.5625H33.9031Z"/><path fill="#EA9706" d="M41.4031 52.25C52.794 52.25 62.0281 43.0159 62.0281 31.625C62.0281 20.2341 52.794 11 41.4031 11C30.0123 11 20.7781 20.2341 20.7781 31.625C20.7781 43.0159 30.0123 52.25 41.4031 52.25Z"/><path fill="#FFAC00" d="M41.4031 48.5C50.7229 48.5 58.2781 40.9448 58.2781 31.625C58.2781 22.3052 50.7229 14.75 41.4031 14.75C32.0833 14.75 24.5281 22.3052 24.5281 31.625C24.5281 40.9448 32.0833 48.5 41.4031 48.5Z"/><g clip-path="url(#a)"><path fill="#fff" fill-rule="evenodd" d="M47.1193 37.8193C47.1791 37.8203 47.2389 37.8213 47.2986 37.8213C47.3715 37.8213 47.4446 37.8206 47.5179 37.8199C47.6799 37.8184 47.8431 37.8169 48.0082 37.8227C48.4991 37.8396 48.8052 37.5801 48.7869 37.1187C48.7643 36.5813 49.0366 36.4825 49.4711 36.364C50.9693 35.9563 51.6958 34.9011 51.6733 33.3464C51.6563 32.2094 51.1076 31.4222 50.1341 30.9327C49.698 30.7134 49.2522 30.5131 48.8066 30.3128C48.2056 30.0428 47.6051 29.7729 47.0291 29.457C46.7681 29.3145 46.5438 28.801 46.5861 28.4963C46.6214 28.2353 47.0503 27.8502 47.3254 27.8333C48.0138 27.7895 48.7432 27.8206 49.402 28.011C49.4596 28.0276 49.5143 28.0436 49.5663 28.0587C50.5417 28.3429 50.5554 28.3469 51.1541 27.3705C51.1667 27.3502 51.1787 27.3291 51.1906 27.3081C51.2135 27.2678 51.2364 27.2275 51.2641 27.1914C51.5562 26.8161 51.4334 26.5044 51.0539 26.3351C50.7383 26.1943 50.4124 26.0772 50.0863 25.96C49.8207 25.8645 49.555 25.769 49.2948 25.6607C49.1128 25.5846 48.8631 25.4378 48.8264 25.2812C48.8224 25.2644 48.8185 25.2477 48.8147 25.2314C48.5854 24.257 48.5848 24.2542 47.5525 24.2528C47.4627 24.2528 47.3729 24.2538 47.2832 24.2548C47.0908 24.257 46.8984 24.2591 46.7061 24.2514C46.1065 24.226 45.8116 24.518 45.8695 25.1021C45.916 25.5733 45.696 25.7214 45.2826 25.8738C43.7266 26.4465 42.9958 27.9447 43.4726 29.5092C43.728 30.3472 44.3332 30.9143 45.0837 31.2896C45.6494 31.5724 46.2338 31.8183 46.8184 32.0643C47.1407 32.1999 47.4631 32.3355 47.7824 32.4774C48.2691 32.6933 48.6204 33.0276 48.5231 33.6159C48.4342 34.159 47.9941 34.3636 47.537 34.3354C46.7272 34.2846 45.8977 34.2225 45.126 33.994C45.0714 33.9778 45.0192 33.9623 44.9692 33.9474C43.841 33.6119 43.8277 33.6079 43.1496 34.7332C43.1256 34.7727 43.1002 34.8136 43.072 34.8503C42.8308 35.1677 42.8999 35.4428 43.2469 35.5895C43.3219 35.6211 43.3969 35.6528 43.472 35.6846C44.0846 35.9441 44.7006 36.205 45.339 36.3696C45.7453 36.474 45.8963 36.601 45.8667 37.0073C45.8229 37.6139 46.153 37.858 46.7343 37.8227C46.8622 37.815 46.9909 37.8171 47.1193 37.8193ZM38.7973 32.2072C38.9418 32.2076 39.0903 32.208 39.2446 32.208C39.2446 32.3801 39.2467 32.5448 39.2488 32.7042C39.2541 33.1055 39.259 33.4729 39.2277 33.8374C39.215 33.9869 39.0175 34.2155 38.8707 34.2451C37.1849 34.5921 35.3848 34.1844 35.0998 31.9809C35.0138 31.3192 35.0364 30.6181 35.1506 29.9607C35.3552 28.7757 36.1974 27.9476 37.3739 27.8333C38.1287 27.7599 38.93 27.8164 39.6678 27.9927C40.2805 28.1389 40.573 28.2228 40.7959 28.1333C41.0139 28.0459 41.1654 27.7928 41.4848 27.2704C41.8389 26.6906 41.6795 26.4155 41.1166 26.1517C39.7496 25.5098 38.3079 25.4647 36.8449 25.5324C34.2365 25.6523 32.4124 27.2013 31.9708 29.7604C31.8439 30.4911 31.8622 31.2614 31.9172 32.0063C32.0823 34.2479 33.541 35.914 35.7417 36.388C36.3794 36.5249 37.0424 36.5982 37.6942 36.6024C39.0146 36.6123 40.3337 36.5009 41.4961 35.7899C41.7853 35.6135 42.1422 35.2608 42.1563 34.973C42.2221 33.6312 42.2014 32.284 42.1808 30.9393C42.1802 30.8985 42.1795 30.8578 42.1789 30.817C42.1719 30.3345 41.9081 30.0256 41.3818 30.0256C41.0461 30.0256 40.7103 30.026 40.3745 30.0265C39.5352 30.0277 38.6962 30.0288 37.8578 30.0228C37.3457 30.0185 37.1384 30.288 37.1313 30.7634C37.1271 30.999 37.1271 31.2346 37.1313 31.4688C37.1398 31.9484 37.3598 32.215 37.8635 32.2094C38.168 32.2055 38.4726 32.2063 38.7973 32.2072Z" clip-rule="evenodd"/></g><defs><clipPath id="a"><rect width="36" height="36" fill="#fff" transform="translate(24 13)"/></clipPath></defs></svg>