<svg xmlns="http://www.w3.org/2000/svg" fill="none" viewBox="0 0 64 64"><path fill="#50D9D7" d="M29.8813 50.9469C26.1543 52.3403 22.1038 52.6259 18.2181 51.7693C14.3325 50.9127 10.7775 48.9504 7.98194 46.119C5.18634 43.2876 3.26941 39.708 2.46227 35.8118C1.65512 31.9156 1.99222 27.869 3.43291 24.1601C4.87361 20.4511 7.3564 17.238 10.5819 14.9082C13.8075 12.5784 17.6381 11.2314 21.6119 11.0295C25.5858 10.8276 29.5332 11.7795 32.9782 13.7704C36.4233 15.7613 39.2189 18.7061 41.0281 22.25C42.3499 24.8391 43.1094 27.6783 43.2569 30.5814C43.4044 33.4846 42.9365 36.3861 41.884 39.0958C40.8315 41.8055 39.218 44.2621 37.1495 46.3044C35.081 48.3468 32.6041 49.9289 29.8813 50.9469V50.9469Z"/><path fill="#93E6E5" d="M43.2781 32.5626C43.3156 31.9382 43.3156 31.3121 43.2781 30.6876H33.9031C33.8193 27.7902 33.2126 24.9318 32.1125 22.2501H41.0281C40.7042 21.6035 40.341 20.9774 39.9406 20.3751H31.2125C29.2556 16.7668 26.5286 13.6333 23.225 11.197C23.0611 11.0708 22.86 11.0024 22.6531 11.0024C22.4463 11.0024 22.2452 11.0708 22.0813 11.197C18.7751 13.6306 16.0476 16.7647 14.0938 20.3751H5.36563C4.96524 20.9774 4.60207 21.6035 4.27813 22.2501H13.2219C12.1121 24.93 11.4959 27.7885 11.4031 30.6876H2.02813C1.99062 31.3121 1.99062 31.9382 2.02813 32.5626H11.4031C11.487 35.46 12.0936 38.3184 13.1938 41.0001H4.27813C4.60207 41.6467 4.96524 42.2729 5.36563 42.8751H14.0938C16.0476 46.4856 18.7751 49.6197 22.0813 52.0533C22.2452 52.1794 22.4463 52.2479 22.6531 52.2479C22.86 52.2479 23.0611 52.1794 23.225 52.0533C26.5335 49.6222 29.2615 46.4875 31.2125 42.8751H39.9406C40.341 42.2729 40.7042 41.6467 41.0281 41.0001H32.0844C33.1942 38.3202 33.8103 35.4618 33.9031 32.5626H43.2781ZM22.6531 13.1283C25.2238 15.1229 27.3987 17.5808 29.0656 20.3751H16.2406C17.9116 17.5838 20.0859 15.1266 22.6531 13.1283V13.1283ZM22.6531 50.122C20.0859 48.1237 17.9116 45.6665 16.2406 42.8751H29.0656C27.3957 45.6673 25.2212 48.1246 22.6531 50.122V50.122ZM30.0313 41.0001H15.275C14.0563 38.3479 13.3775 35.4797 13.2781 32.5626H32.0281C31.9287 35.4797 31.2499 38.3479 30.0313 41.0001V41.0001ZM13.2781 30.6876C13.3687 27.7724 14.0379 24.9043 15.2469 22.2501H30.0313C31.2499 24.9023 31.9287 27.7705 32.0281 30.6876H13.2781Z"/><path fill="#00BEBD" d="M39.9406 20.375H31.2125C30.0623 18.2008 28.607 16.2024 26.8906 14.4406 27.8275 13.6477 28.8277 12.9328 29.8812 12.3031 34.0111 13.8492 37.5366 16.6782 39.9406 20.375V20.375zM39.9406 42.875C37.5366 46.5718 34.0111 49.4008 29.8812 50.9469 28.8277 50.3171 27.8275 49.6023 26.8906 48.8094 28.607 47.0475 30.0623 45.0492 31.2125 42.875H39.9406zM32.0281 32.5625C31.9376 35.4777 31.2684 38.3458 30.0594 41H20.9563C19.7261 38.349 19.0286 35.4823 18.9031 32.5625H32.0281zM32.0281 30.6875H18.9031C19.0227 27.769 19.7139 24.9023 20.9375 22.25H30.0125C31.2376 24.9009 31.9228 27.7691 32.0281 30.6875V30.6875zM29.0656 20.375H21.9219C22.9111 18.6639 24.1181 17.0882 25.5125 15.6875 26.8797 17.1026 28.0726 18.6763 29.0656 20.375V20.375zM29.0656 42.875C28.0726 44.5737 26.8797 46.1474 25.5125 47.5625 24.1181 46.1618 22.9111 44.5861 21.9219 42.875H29.0656z"/><path fill="#50D9D7" d="M33.9031 32.5625C33.8193 35.4599 33.2126 38.3183 32.1125 41H41.0281C40.7042 41.6466 40.341 42.2727 39.9406 42.875H31.2125C30.0623 45.0491 28.607 47.0475 26.8906 48.8094C26.4125 48.4062 25.9531 47.9844 25.5125 47.5344C26.8798 46.1193 28.0726 44.5456 29.0656 42.8469H21.9219C21.575 42.2375 21.2469 41.6187 20.9844 40.9719H30.0594C31.2647 38.3263 31.9339 35.4681 32.0281 32.5625H18.9031C18.9031 31.7375 18.9031 31.5125 18.9031 30.6875H32.0281C31.9376 27.7723 31.2684 24.9042 30.0594 22.25H20.9563C21.2469 21.6031 21.575 20.9844 21.8938 20.375H29.0375C28.0445 18.6762 26.8516 17.1025 25.4844 15.6875C25.925 15.2375 26.4219 14.8156 26.8625 14.4125C28.591 16.1811 30.056 18.1891 31.2125 20.375H39.9406C40.341 20.9772 40.7042 21.6034 41.0281 22.25H32.0844C33.1942 24.9299 33.8103 27.7884 33.9031 30.6875H43.2781C43.3156 31.3119 43.3156 31.938 43.2781 32.5625H33.9031Z"/><path fill="#EA9706" d="M41.4031 52.25C52.794 52.25 62.0281 43.0159 62.0281 31.625C62.0281 20.2341 52.794 11 41.4031 11C30.0123 11 20.7781 20.2341 20.7781 31.625C20.7781 43.0159 30.0123 52.25 41.4031 52.25Z"/><path fill="#FFAC00" d="M41.4031 48.5C50.7229 48.5 58.2781 40.9448 58.2781 31.625C58.2781 22.3052 50.7229 14.75 41.4031 14.75C32.0833 14.75 24.5281 22.3052 24.5281 31.625C24.5281 40.9448 32.0833 48.5 41.4031 48.5Z"/><g clip-path="url(#a)"><path fill="#fff" fill-rule="evenodd" d="M50.1568 29.9254C51.3105 30.2489 52.1111 31.291 52.1111 32.5181C52.1111 33.744 51.3105 34.7854 50.1568 35.11V35.6986H48.6386V35.0999C47.5455 34.764 46.7455 33.7331 46.7455 32.5408H48.2636C48.2636 32.868 48.3957 33.1774 48.6386 33.394V31.2244C47.5455 30.8904 46.7318 29.8626 46.7318 28.6493C46.7318 27.4374 47.5455 26.4121 48.6386 26.0776V25.375H50.1568V26.0638C51.3105 26.3788 52.1248 27.3984 52.1248 28.6543H50.6066C50.6066 28.2772 50.4604 27.9519 50.1568 27.74V29.9254ZM48.6386 27.7789C48.3957 27.9934 48.25 28.304 48.25 28.6506C48.25 28.9979 48.3957 29.3091 48.6386 29.5236V27.7789ZM50.1568 31.6124V33.4303C50.4604 33.2132 50.5929 32.8839 50.5929 32.5181C50.5929 32.156 50.4604 31.8296 50.1568 31.6124ZM40.8337 31.387H42.1904C42.8939 31.387 43.3842 31.9004 43.3842 32.6077V35.0306H44.9024V32.6077C44.9024 31.0719 43.7225 29.8688 42.1904 29.8688H41.837L45.2029 26.1037H43.1665L40.8337 28.6906V26.1037H39.3155V35.0306H40.1252H40.8337V31.387ZM37.5226 26.1037H37.4214H36.0044V29.8081H33.3932V26.1037H31.875V35.0306H33.3932V31.3263H36.0044V35.0306H37.4214H37.5226V26.1037Z" clip-rule="evenodd"/><path fill="#fff" d="M50.1568 29.9254H50.1068V29.9633L50.1433 29.9735L50.1568 29.9254ZM50.1568 35.11L50.1432 35.0619L50.1068 35.0721V35.11H50.1568ZM50.1568 35.6986V35.7486H50.2068V35.6986H50.1568ZM48.6386 35.6986H48.5886V35.7486H48.6386V35.6986ZM48.6386 35.0999H48.6886V35.0629L48.6533 35.0521L48.6386 35.0999ZM46.7455 32.5408V32.4908H46.6955V32.5408H46.7455ZM48.2636 32.5408H48.3136V32.4908H48.2636V32.5408ZM48.6386 33.394L48.6053 33.4313L48.6886 33.5056V33.394H48.6386ZM48.6386 31.2244H48.6886V31.1874L48.6532 31.1766L48.6386 31.2244ZM48.6386 26.0776L48.6532 26.1254L48.6886 26.1145V26.0776H48.6386ZM48.6386 25.375V25.325H48.5886V25.375H48.6386ZM50.1568 25.375H50.2068V25.325H50.1568V25.375ZM50.1568 26.0638H50.1068V26.1019L50.1436 26.112L50.1568 26.0638ZM52.1248 28.6543V28.7043H52.1748V28.6543H52.1248ZM50.6066 28.6543H50.5566V28.7043H50.6066V28.6543ZM50.1568 27.74L50.1854 27.699L50.1068 27.6441V27.74H50.1568ZM48.6386 27.7789H48.6886V27.6681L48.6055 27.7415L48.6386 27.7789ZM48.6386 29.5236L48.6055 29.561L48.6886 29.6344V29.5236H48.6386ZM50.1568 33.4303H50.1068V33.5275L50.1858 33.471L50.1568 33.4303ZM50.1568 31.6124L50.1858 31.5717L50.1068 31.5152V31.6124H50.1568ZM40.8337 31.387V31.337H40.7837V31.387H40.8337ZM43.3842 35.0306H43.3342V35.0806H43.3842V35.0306ZM44.9024 35.0306V35.0806H44.9524V35.0306H44.9024ZM41.837 29.8688L41.7997 29.8355L41.7252 29.9188H41.837V29.8688ZM45.2029 26.1037L45.2402 26.137L45.3147 26.0537H45.2029V26.1037ZM43.1665 26.1037V26.0537H43.1443L43.1294 26.0702L43.1665 26.1037ZM40.8337 28.6906H40.7837V28.8207L40.8708 28.724L40.8337 28.6906ZM40.8337 26.1037H40.8837V26.0537H40.8337V26.1037ZM39.3155 26.1037V26.0537H39.2655V26.1037H39.3155ZM39.3155 35.0306H39.2655V35.0806H39.3155V35.0306ZM40.8337 35.0306V35.0806H40.8837V35.0306H40.8337ZM37.5226 26.1037H37.5726V26.0537H37.5226V26.1037ZM36.0044 26.1037V26.0537H35.9544V26.1037H36.0044ZM36.0044 29.8081V29.8581H36.0544V29.8081H36.0044ZM33.3932 29.8081H33.3432V29.8581H33.3932V29.8081ZM33.3932 26.1037H33.4432V26.0537H33.3932V26.1037ZM31.875 26.1037V26.0537H31.825V26.1037H31.875ZM31.875 35.0306H31.825V35.0806H31.875V35.0306ZM33.3932 35.0306V35.0806H33.4432V35.0306H33.3932ZM33.3932 31.3263V31.2763H33.3432V31.3263H33.3932ZM36.0044 31.3263H36.0544V31.2763H36.0044V31.3263ZM36.0044 35.0306H35.9544V35.0806H36.0044V35.0306ZM37.5226 35.0306V35.0806H37.5726V35.0306H37.5226ZM52.1611 32.5181C52.1611 31.2686 51.3456 30.2068 50.1703 29.8772L50.1433 29.9735C51.2755 30.291 52.0611 31.3134 52.0611 32.5181H52.1611ZM50.1703 35.1581C51.3456 34.8275 52.1611 33.7665 52.1611 32.5181H52.0611C52.0611 33.7216 51.2755 34.7434 50.1432 35.0619L50.1703 35.1581ZM50.2068 35.6986V35.11H50.1068V35.6986H50.2068ZM48.6386 35.7486H50.1568V35.6486H48.6386V35.7486ZM48.5886 35.0999V35.6986H48.6886V35.0999H48.5886ZM46.6955 32.5408C46.6955 33.7556 47.5104 34.8055 48.6239 35.1476L48.6533 35.0521C47.5806 34.7224 46.7955 33.7105 46.7955 32.5408H46.6955ZM48.2636 32.4908H46.7455V32.5908H48.2636V32.4908ZM48.6719 33.3567C48.4401 33.1501 48.3136 32.8545 48.3136 32.5408H48.2136C48.2136 32.8815 48.3512 33.2048 48.6053 33.4313L48.6719 33.3567ZM48.5886 31.2244V33.394H48.6886V31.2244H48.5886ZM46.6818 28.6493C46.6818 29.8854 47.5106 30.932 48.624 31.2722L48.6532 31.1766C47.5804 30.8488 46.7818 29.8398 46.7818 28.6493H46.6818ZM48.6239 26.0297C47.5107 26.3705 46.6818 27.4145 46.6818 28.6493H46.7818C46.7818 27.4602 47.5803 26.4538 48.6532 26.1254L48.6239 26.0297ZM48.5886 25.375V26.0776H48.6886V25.375H48.5886ZM50.1568 25.325H48.6386V25.425H50.1568V25.325ZM50.2068 26.0638V25.375H50.1068V26.0638H50.2068ZM52.1748 28.6543C52.1748 27.3755 51.3451 26.3364 50.1699 26.0155L50.1436 26.112C51.276 26.4212 52.0748 27.4214 52.0748 28.6543H52.1748ZM50.6066 28.7043H52.1248V28.6043H50.6066V28.7043ZM50.1281 27.781C50.4164 27.9822 50.5566 28.2911 50.5566 28.6543H50.6566C50.6566 28.2634 50.5043 27.9216 50.1854 27.699L50.1281 27.781ZM50.2068 29.9254V27.74H50.1068V29.9254H50.2068ZM48.3 28.6506C48.3 28.3184 48.4395 28.0214 48.6717 27.8164L48.6055 27.7415C48.3519 27.9654 48.2 28.2896 48.2 28.6506H48.3ZM48.6717 29.4861C48.4395 29.2812 48.3 28.9835 48.3 28.6506H48.2C48.2 29.0122 48.3518 29.3371 48.6055 29.561L48.6717 29.4861ZM48.5886 27.7789V29.5236H48.6886V27.7789H48.5886ZM50.2068 33.4303V31.6124H50.1068V33.4303H50.2068ZM50.5429 32.5181C50.5429 32.8713 50.4155 33.1838 50.1277 33.3897L50.1858 33.471C50.5052 33.2426 50.6429 32.8965 50.6429 32.5181H50.5429ZM50.1277 31.6531C50.4157 31.8591 50.5429 32.1688 50.5429 32.5181H50.6429C50.6429 32.1432 50.5051 31.8001 50.1858 31.5717L50.1277 31.6531ZM42.1904 31.337H40.8337V31.437H42.1904V31.337ZM43.4342 32.6077C43.4342 31.8742 42.9229 31.337 42.1904 31.337V31.437C42.8649 31.437 43.3342 31.9266 43.3342 32.6077H43.4342ZM43.4342 35.0306V32.6077H43.3342V35.0306H43.4342ZM44.9024 34.9806H43.3842V35.0806H44.9024V34.9806ZM44.8524 32.6077V35.0306H44.9524V32.6077H44.8524ZM42.1904 29.9188C43.6942 29.9188 44.8524 31.0989 44.8524 32.6077H44.9524C44.9524 31.0448 43.7507 29.8188 42.1904 29.8188V29.9188ZM41.837 29.9188H42.1904V29.8188H41.837V29.9188ZM45.1656 26.0704L41.7997 29.8355L41.8743 29.9021L45.2402 26.137L45.1656 26.0704ZM43.1665 26.1537H45.2029V26.0537H43.1665V26.1537ZM40.8708 28.724L43.2036 26.1372L43.1294 26.0702L40.7965 28.6571L40.8708 28.724ZM40.7837 26.1037V28.6906H40.8837V26.1037H40.7837ZM39.3155 26.1537H40.8337V26.0537H39.3155V26.1537ZM39.3655 35.0306V26.1037H39.2655V35.0306H39.3655ZM40.1252 34.9806H39.3155V35.0806H40.1252V34.9806ZM40.8337 34.9806H40.1252V35.0806H40.8337V34.9806ZM40.7837 31.387V35.0306H40.8837V31.387H40.7837ZM37.4214 26.1537H37.5226V26.0537H37.4214V26.1537ZM36.0044 26.1537H37.4214V26.0537H36.0044V26.1537ZM36.0544 29.8081V26.1037H35.9544V29.8081H36.0544ZM33.3932 29.8581H36.0044V29.7581H33.3932V29.8581ZM33.3432 26.1037V29.8081H33.4432V26.1037H33.3432ZM31.875 26.1537H33.3932V26.0537H31.875V26.1537ZM31.925 35.0306V26.1037H31.825V35.0306H31.925ZM33.3932 34.9806H31.875V35.0806H33.3932V34.9806ZM33.3432 31.3263V35.0306H33.4432V31.3263H33.3432ZM36.0044 31.2763H33.3932V31.3763H36.0044V31.2763ZM36.0544 35.0306V31.3263H35.9544V35.0306H36.0544ZM37.4214 34.9806H36.0044V35.0806H37.4214V34.9806ZM37.5226 34.9806H37.4214V35.0806H37.5226V34.9806ZM37.4726 26.1037V35.0306H37.5726V26.1037H37.4726Z"/></g><defs><clipPath id="a"><rect width="36" height="36" fill="#fff" transform="translate(24 13)"/></clipPath></defs></svg>