<svg xmlns="http://www.w3.org/2000/svg" enable-background="new 0 0 128 128" viewBox="0 0 128 128"><circle cx="64" cy="64" r="64" fill="#3C9"/><path fill="#333" d="M68.493 41.247v8.353H46.66v10.443h18.922v7.725H46.66v18.67h-9.938V41.247H68.493zM91.278 53.714v6.013h-6.584V75.93c0 1.518.253 2.535.762 3.041.506.506 1.518.754 3.037.754.506 0 .991-.016 1.455-.059.463-.043.906-.105 1.33-.189v6.961c-.762.127-1.604.211-2.531.252-.931.043-1.837.064-2.723.064-1.391 0-2.711-.096-3.957-.285-1.243-.189-2.34-.559-3.291-1.105-.948-.549-1.696-1.328-2.247-2.346-.548-1.012-.821-2.34-.821-3.984V59.727h-5.443v-6.013h5.443v-9.812h8.986v9.812H91.278z"/></svg>