<svg xmlns="http://www.w3.org/2000/svg" enable-background="new 0 0 128 128" viewBox="0 0 128 128"><circle cx="64" cy="64" r="64" fill="#FF6"/><path fill="#333" d="M75.841,54.018v17.21h-8.255V56.927c0-2.3-0.435-3.96-1.299-4.982c-0.867-1.02-2.295-1.528-4.284-1.528   H45.027v34.147H36.77V43.437h28.103c3.541,0,6.252,0.948,8.139,2.848C74.897,48.187,75.841,50.764,75.841,54.018z M52.157,84.563   V56.771h8.257v20.815h17.019c2.168,0,3.636-0.57,4.396-1.705c0.765-1.137,1.144-2.738,1.144-4.809V43.437h8.258v30.582   c0,3.256-0.936,5.828-2.812,7.715c-1.873,1.889-4.592,2.83-8.157,2.83H52.157z"/></svg>