<svg xmlns="http://www.w3.org/2000/svg" enable-background="new 0 0 50 50" viewBox="0 0 50 50"><polygon fill="#D38E71" points="13.146 20.633 17.416 18.151 18.093 18.542 13.823 21.024"/><polygon fill="#D38E71" points="19.794 28.739 24.065 26.257 33.386 46.518 29.115 49"/><path fill="#D38E71" d="M24.0333,20.2468l-4.2707,2.4819c-0.0654,0.038-0.1331,0.0715-0.2033,0.1006
				c-1.0152,0.4158-2.9317-0.186-5.7366-1.8055l4.2707-2.4818c2.8049,1.6194,4.7214,2.2212,5.7366,1.8054
				C23.9002,20.3183,23.968,20.2848,24.0333,20.2468z"/><polygon fill="#D38E71" points="13.663 11.365 17.933 8.883 24.801 12.848 20.53 15.33"/><path fill="#DD9A76" d="M28.0167,25.9499l-4.2708,2.4819c1.2888-0.749,2.0689-2.2897,2.3402-4.6246l4.2708-2.4819
				C30.0855,23.6603,29.3055,25.2009,28.0167,25.9499z"/><path fill="#D38E71" d="M25.109,15.3467l4.2707-2.4819c0.359,0.979,0.6208,2.0133,0.7986,3.0882l-4.2707,2.4819
				C25.7298,17.36,25.4679,16.3257,25.109,15.3467z"/><polygon fill="#DD9A76" points="25.908 18.435 30.178 15.953 38.812 20.938 34.541 23.42"/><polygon fill="#D38E71" points="34.541 23.42 38.812 20.938 36.315 24.765 32.044 27.247"/><path fill="#EAA178" d="M25.109,15.3467c0.3589,0.979,0.6208,2.0133,0.7986,3.0882l8.6339,4.9848l-2.4974,3.8273l-5.958-3.4398
				c-0.4833,4.1589-2.5805,5.7979-6.2917,4.9317L29.1148,49l-6.3191-3.6483l-8.6459-18.9515l-1.0188-0.5881l0.0147-5.1791
				l0.677,0.3908c2.8049,1.6195,4.7214,2.2213,5.7366,1.8055c0.666-0.276,1.1135-0.9526,1.3426-2.0153l-9.7365-5.6213l2.4974-3.8274
				l6.8671,3.9648c-0.2434-0.6898-0.571-1.3242-0.9892-1.8922c-1.0358-1.4292-2.8399-2.9383-5.5094-4.4796l-0.2515-0.1525
				l-2.5921-1.4966l2.4974-3.8273l20.8787,12.0543l-2.4974,3.8273L25.109,15.3467z"/><polygon fill="#F3AC7E" points="13.685 3.482 17.956 1 38.835 13.054 34.564 15.536"/><polygon fill="#DD9A76" points="34.564 15.536 38.835 13.054 36.337 16.882 32.066 19.363"/></svg>