<svg xmlns="http://www.w3.org/2000/svg" viewBox="0 0 512 512"><circle cx="256.001" cy="256.001" r="250.667" fill="#facb00"/><path d="M506.667 256.001c0 138.453-112.213 250.667-250.667 250.667-6.293 0-12.48-.214-18.667-.693 129.707-9.547 232-117.813 232-249.973 0-132.107-102.293-240.427-232-249.973 6.187-.48 12.373-.693 18.667-.693 138.454-.002 250.667 112.265 250.667 250.665z" opacity=".05"/><circle cx="256.001" cy="256.001" r="197.333" fill="#facb00"/><path d="M453.334 256.001c0 108.8-88.533 197.333-197.333 197.333-7.2 0-14.293-.373-21.333-1.173 98.773-10.613 176-94.56 176-196.16s-77.227-185.547-176-196.16c7.04-.8 14.133-1.173 21.333-1.173 108.8-.001 197.333 88.533 197.333 197.333z" opacity=".05"/><path d="M256 0C114.841 0 0 114.841 0 256s114.841 256 256 256 256-114.841 256-256S397.159 0 256 0zm0 501.333C120.724 501.333 10.667 391.276 10.667 256S120.724 10.667 256 10.667 501.333 120.724 501.333 256 391.276 501.333 256 501.333z"/><path d="M256 53.333C144.25 53.333 53.333 144.25 53.333 256S144.25 458.667 256 458.667 458.667 367.75 458.667 256 367.75 53.333 256 53.333zM256 448c-105.87 0-192-86.13-192-192S150.13 64 256 64s192 86.13 192 192-86.13 192-192 192zm0-406.112a5.333 5.333 0 0 0 5.333-5.333v-9.109a5.333 5.333 0 0 0-10.666 0v9.109A5.333 5.333 0 0 0 256 41.888zm0 428.224a5.333 5.333 0 0 0-5.333 5.333v9.109a5.333 5.333 0 0 0 10.666 0v-9.109a5.333 5.333 0 0 0-5.333-5.333zM194.052 45.414c.758 2.83 3.673 4.541 6.531 3.771a5.331 5.331 0 0 0 3.771-6.531l-2.357-8.799a5.32 5.32 0 0 0-6.531-3.771 5.331 5.331 0 0 0-3.771 6.531l2.357 8.799zm123.896 421.175a5.333 5.333 0 1 0-10.302 2.76l2.359 8.799c.766 2.859 3.709 4.536 6.531 3.771a5.332 5.332 0 0 0 3.771-6.531l-2.359-8.799zM141.659 68.622a5.338 5.338 0 0 0 7.286 1.953 5.336 5.336 0 0 0 1.953-7.286l-4.555-7.888a5.333 5.333 0 1 0-9.239 5.333l4.555 7.888zM370.344 443.38c-1.477-2.552-4.742-3.43-7.286-1.953a5.336 5.336 0 0 0-1.953 7.286l4.555 7.888a5.338 5.338 0 0 0 7.286 1.953 5.336 5.336 0 0 0 1.953-7.286l-4.555-7.888z"/><path d="M97.057 104.599a5.332 5.332 0 1 0 7.542-7.542l-6.44-6.44a5.332 5.332 0 1 0-7.542 7.542l6.44 6.44zm317.886 302.802a5.332 5.332 0 1 0-7.542 7.542l6.44 6.44a5.332 5.332 0 1 0 7.542-7.542l-6.44-6.44zM55.401 146.344l7.888 4.555a5.338 5.338 0 0 0 7.286-1.953 5.335 5.335 0 0 0-1.953-7.286l-7.888-4.555a5.332 5.332 0 0 0-7.286 1.953 5.336 5.336 0 0 0 1.953 7.286zm401.201 219.315-7.888-4.555a5.33 5.33 0 0 0-7.286 1.953 5.335 5.335 0 0 0 1.953 7.286l7.888 4.555a5.338 5.338 0 0 0 7.286-1.953 5.336 5.336 0 0 0-1.953-7.286zM33.854 201.997l8.799 2.357c2.862.771 5.774-.944 6.531-3.771a5.331 5.331 0 0 0-3.771-6.531l-8.799-2.357c-2.857-.781-5.768.927-6.531 3.771a5.33 5.33 0 0 0 3.771 6.531zm444.294 108.008-8.799-2.359a5.336 5.336 0 0 0-6.531 3.771 5.331 5.331 0 0 0 3.771 6.531l8.799 2.359c2.805.76 5.763-.9 6.531-3.771a5.331 5.331 0 0 0-3.771-6.531zM41.888 256a5.333 5.333 0 0 0-5.333-5.333h-9.109a5.333 5.333 0 0 0 0 10.666h9.109A5.333 5.333 0 0 0 41.888 256zm442.667-5.333h-9.109a5.333 5.333 0 0 0 0 10.666h9.109a5.333 5.333 0 0 0 0-10.666zM42.654 307.646l-8.799 2.359a5.332 5.332 0 0 0-3.771 6.531c.767 2.865 3.721 4.533 6.531 3.771l8.799-2.359a5.332 5.332 0 0 0 3.771-6.531 5.33 5.33 0 0 0-6.531-3.771zm426.695-103.292 8.799-2.357a5.331 5.331 0 0 0 3.771-6.531c-.763-2.844-3.674-4.552-6.531-3.771l-8.799 2.357a5.331 5.331 0 0 0-3.771 6.531c.758 2.831 3.673 4.542 6.531 3.771zm-406.06 156.75-7.888 4.555a5.336 5.336 0 0 0-1.953 7.286 5.338 5.338 0 0 0 7.286 1.953l7.888-4.555a5.336 5.336 0 0 0 1.953-7.286c-1.476-2.549-4.739-3.429-7.286-1.953zm387.979-224-7.888 4.555a5.336 5.336 0 0 0-1.953 7.286 5.338 5.338 0 0 0 7.286 1.953l7.888-4.555a5.336 5.336 0 0 0 1.953-7.286 5.337 5.337 0 0 0-7.286-1.953zM97.057 407.401l-6.44 6.44a5.332 5.332 0 1 0 7.542 7.542l6.44-6.44a5.332 5.332 0 1 0-7.542-7.542zm317.886-302.802 6.44-6.44a5.332 5.332 0 1 0-7.542-7.542l-6.44 6.44a5.332 5.332 0 1 0 7.542 7.542zM148.945 441.427a5.326 5.326 0 0 0-7.286 1.953l-4.555 7.888a5.335 5.335 0 0 0 1.953 7.286 5.338 5.338 0 0 0 7.286-1.953l4.555-7.888a5.335 5.335 0 0 0-1.953-7.286zM363.057 70.576a5.338 5.338 0 0 0 7.286-1.953l4.555-7.888a5.335 5.335 0 0 0-1.953-7.286 5.33 5.33 0 0 0-7.286 1.953l-4.555 7.888a5.336 5.336 0 0 0 1.953 7.286zM200.583 462.818a5.31 5.31 0 0 0-6.531 3.771l-2.357 8.799a5.331 5.331 0 0 0 3.771 6.531c2.862.771 5.774-.944 6.531-3.771l2.357-8.799a5.331 5.331 0 0 0-3.771-6.531zM311.417 49.185c2.823.765 5.766-.912 6.531-3.771l2.359-8.799a5.331 5.331 0 0 0-3.771-6.531c-2.841-.766-5.768.93-6.531 3.771l-2.359 8.799a5.331 5.331 0 0 0 3.771 6.531zM200.233 238.004l83.423-73.569a5.336 5.336 0 0 0 .471-7.529 5.328 5.328 0 0 0-7.529-.471l-106.336 93.776V146.906a5.333 5.333 0 0 0-10.666 0V343.76a5.333 5.333 0 0 0 10.666 0v-79.326l21.942-19.351 92.542 88.992a5.335 5.335 0 0 0 7.396-7.688l-91.909-88.383zm192.809 15.866c-12.784-10.086-30.914-11.505-44.951-3.609-3.592 1.878-7.007 4.545-10.063 7.8v-17.126a5.333 5.333 0 0 0-10.666 0V343.76a5.333 5.333 0 0 0 10.666 0v-63.085c1.668-9.339 7.861-17.227 15.146-21.037 10.461-5.875 23.833-4.826 33.263 2.607a5.331 5.331 0 0 0 7.49-.885 5.332 5.332 0 0 0-.885-7.49z"/></svg>