<svg xmlns="http://www.w3.org/2000/svg" enable-background="new 0 0 128 128" viewBox="0 0 128 128"><circle cx="64" cy="64" r="64" fill="#C9C"/><path fill="#333" d="M58.715 77.008c-.296 1.771-.97 3.426-2.023 4.971-1.055 1.537-2.577 2.824-4.559 3.857-1.986 1.031-4.664 1.555-8.036 1.555-1.902 0-3.736-.264-5.512-.791-1.771-.527-3.352-1.355-4.743-2.473-1.391-1.117-2.514-2.549-3.356-4.305-.843-1.75-1.265-3.867-1.265-6.359v-3.926h8.984v2.027c0 1.098.085 2.109.253 3.041.169.928.464 1.719.886 2.371.422.654 1.001 1.17 1.744 1.549.737.381 1.696.57 2.883.57 1.307 0 2.318-.232 3.035-.695.716-.465 1.232-1.064 1.549-1.803.316-.742.506-1.539.569-2.408.063-.859.095-1.697.095-2.498V41.186h9.938v30.949C59.157 73.609 59.01 75.238 58.715 77.008zM74.344 77.389c1.307 1.391 2.936 2.275 4.88 2.654V66.816c-.211-.084-.501-.178-.859-.283s-.748-.201-1.17-.285c-1.564-.422-3.104-.916-4.621-1.486-1.518-.568-2.877-1.328-4.078-2.276-1.202-.954-2.166-2.134-2.883-3.547-.717-1.412-1.075-3.177-1.075-5.29 0-2.145.411-4.047 1.233-5.691.822-1.649 1.913-3.03 3.262-4.147s2.909-1.98 4.68-2.592c1.775-.611 3.609-.98 5.512-1.112v-4.869h3.73v4.869c1.897.211 3.679.627 5.349 1.233 1.665.616 3.136 1.459 4.4 2.534s2.298 2.414 3.099 4.021c.801 1.603 1.265 3.499 1.391 5.696h-8.984c-.042-1.686-.569-3.124-1.586-4.305-1.012-1.181-2.234-1.771-3.668-1.771v11.203c.506.126 1.022.253 1.55.374.526.132 1.085.279 1.676.448 3.124.843 5.532 1.886 7.219 3.13 1.687 1.25 2.93 2.545 3.731 3.895.801 1.354 1.274 2.703 1.428 4.053.147 1.348.222 2.551.222 3.604 0 .934-.232 2.104-.696 3.516-.469 1.412-1.302 2.797-2.503 4.146s-2.813 2.551-4.837 3.605c-2.029 1.053-4.627 1.691-7.789 1.902v5.373h-3.73v-5.373c-4.732-.344-8.421-1.799-11.077-4.369-2.661-2.576-4.205-6.35-4.626-11.33h8.927C72.404 74.094 73.037 75.996 74.344 77.389zM77.132 47.831c-.675.21-1.286.537-1.84.979-.548.443-.979.991-1.296 1.645-.316.658-.475 1.423-.475 2.313 0 1.391.443 2.466 1.334 3.225.885.759 2.339 1.37 4.368 1.834V47.515C78.502 47.515 77.806 47.62 77.132 47.831zM85.325 79.506c.822-.273 1.561-.664 2.219-1.17.653-.506 1.191-1.127 1.612-1.865.422-.736.638-1.611.638-2.623 0-1.65-.521-2.883-1.555-3.705-1.032-.822-2.798-1.576-5.285-2.244v12.145C83.713 79.959 84.504 79.785 85.325 79.506z"/></svg>