<svg xmlns="http://www.w3.org/2000/svg" fill="none" viewBox="0 0 64 64"><path fill="#50D9D7" d="M29.8813 50.9469C26.1543 52.3403 22.1038 52.6259 18.2181 51.7693C14.3325 50.9127 10.7775 48.9504 7.98194 46.119C5.18634 43.2876 3.26941 39.708 2.46227 35.8118C1.65512 31.9156 1.99222 27.869 3.43291 24.1601C4.87361 20.4511 7.3564 17.238 10.5819 14.9082C13.8075 12.5784 17.6381 11.2314 21.6119 11.0295C25.5858 10.8276 29.5332 11.7795 32.9782 13.7704C36.4233 15.7613 39.2189 18.7061 41.0281 22.25C42.3499 24.8391 43.1094 27.6783 43.2569 30.5814C43.4044 33.4846 42.9365 36.3861 41.884 39.0958C40.8315 41.8055 39.218 44.2621 37.1495 46.3044C35.081 48.3468 32.6041 49.9289 29.8813 50.9469V50.9469Z"/><path fill="#93E6E5" d="M43.2781 32.5627C43.3156 31.9382 43.3156 31.3121 43.2781 30.6877H33.9031C33.8193 27.7903 33.2126 24.9319 32.1125 22.2502H41.0281C40.7042 21.6036 40.341 20.9774 39.9406 20.3752H31.2125C29.2556 16.7668 26.5286 13.6333 23.225 11.197C23.0611 11.0708 22.86 11.0024 22.6531 11.0024C22.4463 11.0024 22.2452 11.0708 22.0813 11.197C18.7751 13.6306 16.0476 16.7647 14.0938 20.3752H5.36563C4.96524 20.9774 4.60207 21.6036 4.27813 22.2502H13.2219C12.1121 24.9301 11.4959 27.7885 11.4031 30.6877H2.02813C1.99062 31.3121 1.99062 31.9382 2.02813 32.5627H11.4031C11.487 35.46 12.0936 38.3184 13.1938 41.0002H4.27813C4.60207 41.6467 4.96524 42.2729 5.36563 42.8752H14.0938C16.0476 46.4856 18.7751 49.6197 22.0813 52.0533C22.2452 52.1795 22.4463 52.2479 22.6531 52.2479C22.86 52.2479 23.0611 52.1795 23.225 52.0533C26.5335 49.6222 29.2615 46.4876 31.2125 42.8752H39.9406C40.341 42.2729 40.7042 41.6467 41.0281 41.0002H32.0844C33.1942 38.3202 33.8103 35.4618 33.9031 32.5627H43.2781ZM22.6531 13.1283C25.2238 15.1229 27.3987 17.5808 29.0656 20.3752H16.2406C17.9116 17.5838 20.0859 15.1266 22.6531 13.1283V13.1283ZM22.6531 50.122C20.0859 48.1237 17.9116 45.6665 16.2406 42.8752H29.0656C27.3957 45.6673 25.2212 48.1247 22.6531 50.122V50.122ZM30.0313 41.0002H15.275C14.0563 38.3479 13.3775 35.4798 13.2781 32.5627H32.0281C31.9287 35.4798 31.2499 38.3479 30.0313 41.0002V41.0002ZM13.2781 30.6877C13.3687 27.7725 14.0379 24.9044 15.2469 22.2502H30.0313C31.2499 24.9024 31.9287 27.7706 32.0281 30.6877H13.2781Z"/><path fill="#00BEBD" d="M39.9406 20.375H31.2125C30.0623 18.2008 28.607 16.2025 26.8906 14.4406 27.8275 13.6478 28.8277 12.9329 29.8812 12.3031 34.0111 13.8492 37.5366 16.6782 39.9406 20.375V20.375zM39.9406 42.875C37.5366 46.5718 34.0111 49.4008 29.8812 50.9469 28.8277 50.3171 27.8275 49.6023 26.8906 48.8094 28.607 47.0475 30.0623 45.0492 31.2125 42.875H39.9406zM32.0281 32.5625C31.9375 35.4777 31.2683 38.3458 30.0593 41H20.9562C19.7261 38.349 19.0285 35.4823 18.9031 32.5625H32.0281zM32.0281 30.6875H18.9031C19.0226 27.769 19.7138 24.9023 20.9375 22.25H30.0125C31.2376 24.9009 31.9228 27.7691 32.0281 30.6875V30.6875zM29.0656 20.375H21.9219C22.9111 18.6639 24.1181 17.0882 25.5125 15.6875 26.8797 17.1026 28.0726 18.6763 29.0656 20.375V20.375zM29.0656 42.875C28.0726 44.5737 26.8797 46.1474 25.5125 47.5625 24.1181 46.1618 22.9111 44.5861 21.9219 42.875H29.0656z"/><path fill="#50D9D7" d="M33.9031 32.5625C33.8192 35.4599 33.2126 38.3183 32.1125 41H41.0281C40.7041 41.6466 40.341 42.2728 39.9406 42.875H31.2125C30.0623 45.0492 28.6069 47.0476 26.8906 48.8094C26.4125 48.4063 25.9531 47.9844 25.5125 47.5344C26.8797 46.1193 28.0726 44.5456 29.0656 42.8469H21.9218C21.575 42.2375 21.2468 41.6188 20.9843 40.9719H30.0593C31.2647 38.3263 31.9338 35.4682 32.0281 32.5625H18.9031C18.9031 31.7375 18.9031 31.5125 18.9031 30.6875H32.0281C31.9375 27.7723 31.2683 24.9042 30.0593 22.25H20.9562C21.2468 21.6031 21.575 20.9844 21.8937 20.375H29.0375C28.0444 18.6763 26.8516 17.1026 25.4843 15.6875C25.925 15.2375 26.4218 14.8156 26.8625 14.4125C28.5909 16.1811 30.0559 18.1892 31.2125 20.375H39.9406C40.341 20.9773 40.7041 21.6034 41.0281 22.25H32.0843C33.1941 24.9299 33.8103 27.7884 33.9031 30.6875H43.2781C43.3156 31.3119 43.3156 31.9381 43.2781 32.5625H33.9031Z"/><path fill="#EA9706" d="M41.4031 52.25C52.7939 52.25 62.0281 43.0159 62.0281 31.625C62.0281 20.2341 52.7939 11 41.4031 11C30.0122 11 20.7781 20.2341 20.7781 31.625C20.7781 43.0159 30.0122 52.25 41.4031 52.25Z"/><path fill="#FFAC00" d="M41.4031 48.5C50.7229 48.5 58.2781 40.9448 58.2781 31.625C58.2781 22.3052 50.7229 14.75 41.4031 14.75C32.0833 14.75 24.5281 22.3052 24.5281 31.625C24.5281 40.9448 32.0833 48.5 41.4031 48.5Z"/><g clip-path="url(#a)"><path fill="#fff" fill-rule="evenodd" d="M40.8422 34.3889H39.1803C39.1501 34.4794 39.1216 34.57 39.0931 34.6604C39.0319 34.8548 38.9711 35.0477 38.8955 35.2348C38.4912 36.236 37.8062 36.8768 36.6796 36.9177C36.1635 36.9363 35.6705 36.8377 35.2272 36.5553C34.638 36.1802 34.297 35.6154 34.0606 34.9785C33.6998 34.006 33.5949 32.9868 33.579 31.9607C33.5679 31.2278 33.6033 30.4936 33.6403 29.761C33.6751 29.0725 33.8001 28.3974 34.0275 27.7445C34.2058 27.2323 34.4526 26.7609 34.8488 26.3805C35.3694 25.881 35.9995 25.7028 36.7033 25.7328C37.3532 25.7603 37.9088 26.0015 38.3044 26.5216C38.4798 26.752 38.6151 27.014 38.7498 27.2749C38.7864 27.3458 38.8231 27.4167 38.8604 27.4869C38.9052 27.5711 38.9436 27.6051 39.0384 27.6041C39.3705 27.6007 39.7024 27.6009 40.0343 27.6012C40.1787 27.6013 40.323 27.6014 40.4674 27.6012C40.4973 27.6012 40.527 27.5994 40.5691 27.597C40.5933 27.5956 40.6217 27.594 40.6564 27.5923C40.6037 27.4552 40.5544 27.3193 40.5056 27.1851C40.3993 26.8923 40.2958 26.6075 40.1673 26.3348C39.7253 25.3976 39.014 24.7531 38.0173 24.4466C37.4324 24.2667 36.8332 24.2282 36.2249 24.2602C35.6419 24.2909 35.0836 24.4159 34.5591 24.6731C33.5585 25.1641 32.9411 25.9966 32.5351 27.008C32.0769 28.1496 31.9275 29.3526 31.8879 30.5693C31.8541 31.6009 31.8807 32.6325 32.0412 33.6573C32.1766 34.5221 32.388 35.3604 32.7901 36.142C33.2639 37.0629 33.9476 37.7586 34.9303 38.1197C35.765 38.4265 36.627 38.4732 37.4974 38.3253C38.3307 38.1837 39.0485 37.8138 39.6165 37.1726C40.0803 36.6486 40.3817 36.0349 40.585 35.3709C40.6524 35.1515 40.7075 34.9283 40.764 34.7003C40.7894 34.5975 40.815 34.4938 40.8422 34.3889ZM44.9789 35.8206H48.0107V35.8121C48.0107 35.3252 48.0107 34.858 48.011 34.3777H44.9806V32.0373H50.2929V30.4086H44.9815V26.1721H51.289C51.2021 26.0279 51.1165 25.8869 51.0322 25.748C50.82 25.3983 50.6159 25.0619 50.4192 24.721C50.3357 24.5764 50.2331 24.545 50.0785 24.5454C48.3646 24.549 46.6507 24.5487 44.9368 24.5484C44.4858 24.5484 44.0347 24.5483 43.5837 24.5483H43.1511V34.3842H41.6425V35.8242H43.1553V38.2309H44.9789V35.8206Z" clip-rule="evenodd"/><path fill="#fff" d="M39.1803 34.3889V34.0889H38.9641L38.8957 34.294L39.1803 34.3889ZM40.8422 34.3889L41.1326 34.4641L41.2297 34.0889H40.8422V34.3889ZM39.0931 34.6604L39.3793 34.7505L39.3793 34.7505L39.0931 34.6604ZM38.8955 35.2348L38.6174 35.1223L38.6173 35.1224L38.8955 35.2348ZM36.6796 36.9177L36.6904 37.2175L36.6904 37.2175L36.6796 36.9177ZM35.2272 36.5553L35.3884 36.3023L35.3883 36.3022L35.2272 36.5553ZM34.0606 34.9785L33.7793 35.0828L33.7794 35.0829L34.0606 34.9785ZM33.579 31.9607L33.279 31.9652L33.279 31.9653L33.579 31.9607ZM33.6403 29.761L33.94 29.7762L33.94 29.7761L33.6403 29.761ZM34.0275 27.7445L34.3108 27.8431L34.3108 27.8431L34.0275 27.7445ZM34.8488 26.3805L34.6411 26.164L34.6411 26.1641L34.8488 26.3805ZM36.7033 25.7328L36.6905 26.0326L36.6906 26.0326L36.7033 25.7328ZM38.3044 26.5216L38.0656 26.7032L38.0657 26.7032L38.3044 26.5216ZM38.7498 27.2749L39.0164 27.1372L39.0164 27.1372L38.7498 27.2749ZM38.8604 27.4869L39.1253 27.346L39.1252 27.3459L38.8604 27.4869ZM39.0384 27.6041L39.0353 27.3041L39.0353 27.3041L39.0384 27.6041ZM40.0343 27.6012L40.0345 27.3012L40.0345 27.3012L40.0343 27.6012ZM40.4674 27.6012L40.4674 27.3012L40.467 27.3012L40.4674 27.6012ZM40.5691 27.597L40.5519 27.2975L40.5519 27.2975L40.5691 27.597ZM40.6564 27.5923L40.6708 27.892L41.0852 27.8721L40.9365 27.4848L40.6564 27.5923ZM40.5056 27.1851L40.7876 27.0826L40.7876 27.0826L40.5056 27.1851ZM40.1673 26.3348L40.4387 26.2069L40.4386 26.2069L40.1673 26.3348ZM38.0173 24.4466L38.1055 24.1598L38.1055 24.1598L38.0173 24.4466ZM36.2249 24.2602L36.2091 23.9606L36.2091 23.9606L36.2249 24.2602ZM34.5591 24.6731L34.427 24.4038L34.427 24.4038L34.5591 24.6731ZM32.5351 27.008L32.8135 27.1197L32.8135 27.1197L32.5351 27.008ZM31.8879 30.5693L32.1877 30.5791L32.1877 30.5791L31.8879 30.5693ZM32.0412 33.6573L31.7448 33.7037L31.7448 33.7037L32.0412 33.6573ZM32.7901 36.142L32.5233 36.2792L32.5233 36.2792L32.7901 36.142ZM34.9303 38.1197L35.0339 37.8381L35.0338 37.8381L34.9303 38.1197ZM37.4974 38.3253L37.5476 38.6211L37.5476 38.6211L37.4974 38.3253ZM39.6165 37.1726L39.841 37.3716L39.8411 37.3715L39.6165 37.1726ZM40.585 35.3709L40.2982 35.2828L40.2981 35.2831L40.585 35.3709ZM40.764 34.7003L41.0552 34.7724L41.0552 34.7724L40.764 34.7003ZM48.0107 35.8206V36.1206H48.3107V35.8206H48.0107ZM44.9789 35.8206V35.5206H44.6789V35.8206H44.9789ZM48.011 34.3777L48.311 34.3779L48.3112 34.0777H48.011V34.3777ZM44.9806 34.3777H44.6806V34.6777H44.9806V34.3777ZM44.9806 32.0373V31.7373H44.6806V32.0373H44.9806ZM50.2929 32.0373V32.3373H50.5929V32.0373H50.2929ZM50.2929 30.4086H50.5929V30.1086H50.2929V30.4086ZM44.9815 30.4086H44.6815V30.7086H44.9815V30.4086ZM44.9815 26.1721V25.8721H44.6815V26.1721H44.9815ZM51.289 26.1721V26.4721H51.8199L51.5459 26.0173L51.289 26.1721ZM51.0322 25.748L51.2887 25.5924L51.2887 25.5924L51.0322 25.748ZM50.4192 24.721L50.6791 24.5711L50.679 24.571L50.4192 24.721ZM50.0785 24.5454L50.0792 24.8454L50.0792 24.8454L50.0785 24.5454ZM44.9368 24.5484L44.9368 24.2484L44.9368 24.5484ZM43.1511 24.5483V24.2483H42.8511V24.5483H43.1511ZM43.1511 34.3842V34.6842H43.4511V34.3842H43.1511ZM41.6425 34.3842V34.0842H41.3425V34.3842H41.6425ZM41.6425 35.8242H41.3425V36.1242H41.6425V35.8242ZM43.1553 35.8242H43.4553V35.5242H43.1553V35.8242ZM43.1553 38.2309H42.8553V38.5309H43.1553V38.2309ZM44.9789 38.2309V38.5309H45.2789V38.2309H44.9789ZM39.1803 34.6889H40.8422V34.0889H39.1803V34.6889ZM39.3793 34.7505C39.4078 34.6598 39.4357 34.5715 39.4649 34.4838L38.8957 34.294C38.8646 34.3873 38.8353 34.4803 38.807 34.5702L39.3793 34.7505ZM39.1736 35.3472C39.2544 35.1473 39.3186 34.943 39.3793 34.7505L38.807 34.5702C38.7451 34.7666 38.6878 34.9481 38.6174 35.1223L39.1736 35.3472ZM36.6904 37.2175C37.3122 37.1949 37.8285 37.0049 38.246 36.6705C38.6598 36.339 38.9583 35.8803 39.1737 35.3471L38.6173 35.1224C38.4283 35.5905 38.1822 35.9528 37.8708 36.2022C37.563 36.4488 37.1736 36.5996 36.6687 36.6178L36.6904 37.2175ZM35.066 36.8083C35.5716 37.1304 36.1281 37.2377 36.6904 37.2175L36.6688 36.6178C36.1989 36.6348 35.7694 36.545 35.3884 36.3023L35.066 36.8083ZM33.7794 35.0829C34.0279 35.7524 34.4005 36.3846 35.0661 36.8083L35.3883 36.3022C34.8756 35.9758 34.5662 35.4785 34.3418 34.8741L33.7794 35.0829ZM33.279 31.9653C33.2952 33.0068 33.4016 34.0646 33.7793 35.0828L34.3419 34.8741C33.998 33.9473 33.8946 32.9667 33.8789 31.956L33.279 31.9653ZM33.3407 29.7459C33.3038 30.4775 33.2678 31.2211 33.279 31.9652L33.8789 31.9562C33.8681 31.2345 33.9029 30.5097 33.94 29.7762L33.3407 29.7459ZM33.7442 27.6458C33.5068 28.3274 33.3768 29.0308 33.3407 29.7459L33.94 29.7761C33.9734 29.1142 34.0934 28.4673 34.3108 27.8431L33.7442 27.6458ZM34.6411 26.1641C34.199 26.5884 33.9316 27.1073 33.7441 27.6458L34.3108 27.8431C34.4799 27.3572 34.7062 26.9333 35.0566 26.597L34.6411 26.1641ZM36.7161 25.4331C35.9487 25.4004 35.2328 25.5964 34.6411 26.164L35.0565 26.597C35.5061 26.1657 36.0503 26.0052 36.6905 26.0326L36.7161 25.4331ZM38.5432 26.3399C38.0843 25.7367 37.4386 25.4636 36.7159 25.4331L36.6906 26.0326C37.2677 26.0569 37.7333 26.2663 38.0656 26.7032L38.5432 26.3399ZM39.0164 27.1372C38.8838 26.8806 38.7371 26.5947 38.5431 26.3399L38.0657 26.7032C38.2225 26.9093 38.3463 27.1474 38.4832 27.4125L39.0164 27.1372ZM39.1252 27.3459C39.0889 27.2777 39.0532 27.2085 39.0164 27.1372L38.4832 27.4125C38.5197 27.4832 38.5572 27.5558 38.5956 27.6279L39.1252 27.3459ZM39.0353 27.3041C39.0289 27.3042 39.0352 27.3034 39.0489 27.3068C39.0645 27.3107 39.0838 27.3184 39.1025 27.3315C39.1203 27.344 39.13 27.3559 39.1329 27.3597C39.135 27.3624 39.1327 27.3599 39.1253 27.346L38.5956 27.6278C38.6232 27.6797 38.6713 27.7622 38.7588 27.8234C38.8551 27.8906 38.9577 27.9049 39.0415 27.9041L39.0353 27.3041ZM40.0345 27.3012C39.7028 27.3009 39.3693 27.3007 39.0353 27.3041L39.0415 27.9041C39.3716 27.9007 39.7019 27.9009 40.0341 27.9012L40.0345 27.3012ZM40.467 27.3012C40.323 27.3014 40.1789 27.3013 40.0345 27.3012L40.0341 27.9012C40.1784 27.9013 40.3231 27.9014 40.4678 27.9012L40.467 27.3012ZM40.5519 27.2975C40.5076 27.3001 40.487 27.3012 40.4674 27.3012V27.9012C40.5076 27.9012 40.5465 27.8988 40.5863 27.8965L40.5519 27.2975ZM40.642 27.2927C40.6057 27.2944 40.5762 27.2961 40.5519 27.2975L40.5863 27.8965C40.6105 27.8951 40.6376 27.8936 40.6708 27.892L40.642 27.2927ZM40.2237 27.2875C40.2723 27.4213 40.3225 27.5597 40.3764 27.6999L40.9365 27.4848C40.8849 27.3506 40.8365 27.2172 40.7876 27.0826L40.2237 27.2875ZM39.8959 26.4627C40.0175 26.7208 40.1165 26.9924 40.2237 27.2875L40.7876 27.0826C40.6821 26.7921 40.5741 26.4942 40.4387 26.2069L39.8959 26.4627ZM37.9291 24.7333C38.8409 25.0138 39.488 25.5977 39.896 26.4628L40.4386 26.2069C39.9626 25.1974 39.1872 24.4925 38.1055 24.1598L37.9291 24.7333ZM36.2406 24.5598C36.8266 24.5289 37.3882 24.567 37.9291 24.7333L38.1055 24.1598C37.4766 23.9664 36.8398 23.9274 36.2091 23.9606L36.2406 24.5598ZM34.6912 24.9425C35.1734 24.706 35.6909 24.5887 36.2407 24.5598L36.2091 23.9606C35.5929 23.993 34.9938 24.1258 34.427 24.4038L34.6912 24.9425ZM32.8135 27.1197C33.201 26.1546 33.7762 25.3915 34.6913 24.9425L34.427 24.4038C33.3408 24.9368 32.6813 25.8386 32.2567 26.8962L32.8135 27.1197ZM32.1877 30.5791C32.2268 29.3786 32.3739 28.2151 32.8135 27.1197L32.2567 26.8962C31.7799 28.0841 31.6282 29.3267 31.588 30.5596L32.1877 30.5791ZM32.3376 33.6109C32.181 32.6111 32.1543 31.5997 32.1877 30.5791L31.588 30.5595C31.5539 31.6022 31.5804 32.654 31.7448 33.7037L32.3376 33.6109ZM33.0569 36.0047C32.6751 35.2626 32.4704 34.459 32.3375 33.6109L31.7448 33.7037C31.8828 34.5852 32.101 35.4583 32.5233 36.2792L33.0569 36.0047ZM35.0338 37.8381C34.1348 37.5078 33.5033 36.8724 33.0568 36.0047L32.5233 36.2792C33.0246 37.2534 33.7603 38.0094 34.8269 38.4013L35.0338 37.8381ZM37.4471 38.0296C36.6205 38.17 35.8124 38.1243 35.0339 37.8381L34.8268 38.4012C35.7176 38.7287 36.6334 38.7764 37.5476 38.6211L37.4471 38.0296ZM39.3919 36.9737C38.8733 37.5591 38.2192 37.8983 37.4471 38.0296L37.5476 38.6211C38.4422 38.469 39.2237 38.0684 39.841 37.3716L39.3919 36.9737ZM40.2981 35.2831C40.104 35.9172 39.8204 36.4896 39.3919 36.9738L39.8411 37.3715C40.3402 36.8076 40.6594 36.1526 40.8718 35.4587L40.2981 35.2831ZM40.4727 34.6283C40.416 34.8577 40.3627 35.0727 40.2982 35.2828L40.8717 35.459C40.942 35.2303 40.9991 34.999 41.0552 34.7724L40.4727 34.6283ZM40.5518 34.3137C40.5241 34.4204 40.4981 34.5257 40.4727 34.6283L41.0552 34.7724C41.0807 34.6693 41.1059 34.5671 41.1326 34.4641L40.5518 34.3137ZM48.0107 35.5206H44.9789V36.1206H48.0107V35.5206ZM47.7107 35.8121V35.8206H48.3107V35.8121H47.7107ZM47.711 34.3774C47.7107 34.8579 47.7107 35.3252 47.7107 35.8121H48.3107C48.3107 35.3251 48.3107 34.8581 48.311 34.3779L47.711 34.3774ZM44.9806 34.6777H48.011V34.0777H44.9806V34.6777ZM44.6806 32.0373V34.3777H45.2806V32.0373H44.6806ZM50.2929 31.7373H44.9806V32.3373H50.2929V31.7373ZM49.9929 30.4086V32.0373H50.5929V30.4086H49.9929ZM44.9815 30.7086H50.2929V30.1086H44.9815V30.7086ZM44.6815 26.1721V30.4086H45.2815V26.1721H44.6815ZM51.289 25.8721H44.9815V26.4721H51.289V25.8721ZM50.7758 25.9036C50.8601 26.0426 50.9454 26.1832 51.032 26.3269L51.5459 26.0173C51.4588 25.8726 51.3729 25.7312 51.2887 25.5924L50.7758 25.9036ZM50.1593 24.8709C50.3579 25.2152 50.5638 25.5544 50.7758 25.9036L51.2887 25.5924C51.0762 25.2421 50.8738 24.9086 50.6791 24.5711L50.1593 24.8709ZM50.0792 24.8454C50.1407 24.8452 50.1527 24.8525 50.1486 24.8506C50.1474 24.8501 50.1459 24.8492 50.1444 24.8482C50.1429 24.8472 50.1423 24.8466 50.1427 24.8469C50.1433 24.8475 50.1494 24.8537 50.1594 24.8709L50.679 24.571C50.6137 24.4579 50.5254 24.3644 50.4025 24.307C50.2876 24.2534 50.1709 24.2452 50.0779 24.2454L50.0792 24.8454ZM44.9367 24.8484C46.6506 24.8487 48.3648 24.849 50.0792 24.8454L50.0779 24.2454C48.3644 24.249 46.6508 24.2487 44.9368 24.2484L44.9367 24.8484ZM43.5837 24.8483C44.0347 24.8483 44.4857 24.8484 44.9367 24.8484L44.9368 24.2484C44.4858 24.2484 44.0348 24.2483 43.5837 24.2483V24.8483ZM43.1511 24.8483H43.5837V24.2483H43.1511V24.8483ZM43.4511 34.3842V24.5483H42.8511V34.3842H43.4511ZM41.6425 34.6842H43.1511V34.0842H41.6425V34.6842ZM41.9425 35.8242V34.3842H41.3425V35.8242H41.9425ZM43.1553 35.5242H41.6425V36.1242H43.1553V35.5242ZM43.4553 38.2309V35.8242H42.8553V38.2309H43.4553ZM44.9789 37.9309H43.1553V38.5309H44.9789V37.9309ZM44.6789 35.8206V38.2309H45.2789V35.8206H44.6789Z"/></g><defs><clipPath id="a"><rect width="36" height="36" fill="#fff" transform="translate(24 13)"/></clipPath></defs></svg>