<svg xmlns="http://www.w3.org/2000/svg" fill="none" viewBox="0 0 64 64"><path fill="#50D9D7" d="M29.8813 50.9469C26.1543 52.3403 22.1038 52.6259 18.2181 51.7693C14.3325 50.9127 10.7775 48.9504 7.98194 46.119C5.18634 43.2876 3.26941 39.708 2.46227 35.8118C1.65512 31.9156 1.99222 27.869 3.43291 24.1601C4.87361 20.4511 7.3564 17.238 10.5819 14.9082C13.8075 12.5784 17.6381 11.2314 21.6119 11.0295C25.5858 10.8276 29.5332 11.7795 32.9782 13.7704C36.4233 15.7613 39.2189 18.7061 41.0281 22.25C42.3499 24.8391 43.1094 27.6783 43.2569 30.5814C43.4044 33.4846 42.9365 36.3861 41.884 39.0958C40.8315 41.8055 39.218 44.2621 37.1495 46.3044C35.081 48.3468 32.6041 49.9289 29.8813 50.9469V50.9469Z"/><path fill="#93E6E5" d="M43.2781 32.5627C43.3156 31.9382 43.3156 31.3121 43.2781 30.6877H33.9031C33.8193 27.7903 33.2126 24.9319 32.1125 22.2502H41.0281C40.7042 21.6036 40.341 20.9774 39.9406 20.3752H31.2125C29.2556 16.7668 26.5286 13.6333 23.225 11.197C23.0611 11.0708 22.86 11.0024 22.6531 11.0024C22.4463 11.0024 22.2452 11.0708 22.0813 11.197C18.7751 13.6306 16.0476 16.7647 14.0938 20.3752H5.36563C4.96524 20.9774 4.60207 21.6036 4.27813 22.2502H13.2219C12.1121 24.9301 11.4959 27.7885 11.4031 30.6877H2.02813C1.99062 31.3121 1.99062 31.9382 2.02813 32.5627H11.4031C11.487 35.46 12.0936 38.3184 13.1938 41.0002H4.27813C4.60207 41.6467 4.96524 42.2729 5.36563 42.8752H14.0938C16.0476 46.4856 18.7751 49.6197 22.0813 52.0533C22.2452 52.1795 22.4463 52.2479 22.6531 52.2479C22.86 52.2479 23.0611 52.1795 23.225 52.0533C26.5335 49.6222 29.2615 46.4876 31.2125 42.8752H39.9406C40.341 42.2729 40.7042 41.6467 41.0281 41.0002H32.0844C33.1942 38.3202 33.8103 35.4618 33.9031 32.5627H43.2781ZM22.6531 13.1283C25.2238 15.1229 27.3987 17.5808 29.0656 20.3752H16.2406C17.9116 17.5838 20.0859 15.1266 22.6531 13.1283V13.1283ZM22.6531 50.122C20.0859 48.1237 17.9116 45.6665 16.2406 42.8752H29.0656C27.3957 45.6673 25.2212 48.1247 22.6531 50.122V50.122ZM30.0313 41.0002H15.275C14.0563 38.3479 13.3775 35.4798 13.2781 32.5627H32.0281C31.9287 35.4798 31.2499 38.3479 30.0313 41.0002V41.0002ZM13.2781 30.6877C13.3687 27.7725 14.0379 24.9044 15.2469 22.2502H30.0313C31.2499 24.9024 31.9287 27.7706 32.0281 30.6877H13.2781Z"/><path fill="#00BEBD" d="M39.9406 20.375H31.2125C30.0623 18.2008 28.607 16.2025 26.8906 14.4406 27.8275 13.6478 28.8277 12.9329 29.8812 12.3031 34.0111 13.8492 37.5366 16.6782 39.9406 20.375V20.375zM39.9406 42.875C37.5366 46.5718 34.0111 49.4008 29.8812 50.9469 28.8277 50.3171 27.8275 49.6023 26.8906 48.8094 28.607 47.0475 30.0623 45.0492 31.2125 42.875H39.9406zM32.0281 32.5625C31.9375 35.4777 31.2683 38.3458 30.0593 41H20.9562C19.7261 38.349 19.0285 35.4823 18.9031 32.5625H32.0281zM32.0281 30.6875H18.9031C19.0226 27.769 19.7138 24.9023 20.9375 22.25H30.0125C31.2376 24.9009 31.9228 27.7691 32.0281 30.6875V30.6875zM29.0656 20.375H21.9219C22.9111 18.6639 24.1181 17.0882 25.5125 15.6875 26.8797 17.1026 28.0726 18.6763 29.0656 20.375V20.375zM29.0656 42.875C28.0726 44.5737 26.8797 46.1474 25.5125 47.5625 24.1181 46.1618 22.9111 44.5861 21.9219 42.875H29.0656z"/><path fill="#50D9D7" d="M33.9031 32.5625C33.8192 35.4599 33.2126 38.3183 32.1125 41H41.0281C40.7041 41.6466 40.341 42.2728 39.9406 42.875H31.2125C30.0623 45.0492 28.6069 47.0476 26.8906 48.8094C26.4125 48.4063 25.9531 47.9844 25.5125 47.5344C26.8797 46.1193 28.0726 44.5456 29.0656 42.8469H21.9218C21.575 42.2375 21.2468 41.6188 20.9843 40.9719H30.0593C31.2647 38.3263 31.9338 35.4682 32.0281 32.5625H18.9031C18.9031 31.7375 18.9031 31.5125 18.9031 30.6875H32.0281C31.9375 27.7723 31.2683 24.9042 30.0593 22.25H20.9562C21.2468 21.6031 21.575 20.9844 21.8937 20.375H29.0375C28.0444 18.6763 26.8516 17.1026 25.4843 15.6875C25.925 15.2375 26.4218 14.8156 26.8625 14.4125C28.5909 16.1811 30.0559 18.1892 31.2125 20.375H39.9406C40.341 20.9773 40.7041 21.6034 41.0281 22.25H32.0843C33.1941 24.9299 33.8103 27.7884 33.9031 30.6875H43.2781C43.3156 31.3119 43.3156 31.9381 43.2781 32.5625H33.9031Z"/><path fill="#EA9706" d="M41.4031 52.25C52.7939 52.25 62.0281 43.0159 62.0281 31.625C62.0281 20.2341 52.7939 11 41.4031 11C30.0122 11 20.7781 20.2341 20.7781 31.625C20.7781 43.0159 30.0122 52.25 41.4031 52.25Z"/><path fill="#FFAC00" d="M41.4031 48.5C50.7229 48.5 58.2781 40.9448 58.2781 31.625C58.2781 22.3052 50.7229 14.75 41.4031 14.75C32.0833 14.75 24.5281 22.3052 24.5281 31.625C24.5281 40.9448 32.0833 48.5 41.4031 48.5Z"/><g clip-path="url(#a)"><path fill="#fff" fill-rule="evenodd" d="M49.5109 37.6897V38.4268H48.5589V37.7035C47.3485 37.527 46.2369 37.1865 45.4595 36.1827C44.9886 35.5747 44.6588 34.5737 44.6619 33.7932H46.3021C46.3235 33.8682 46.344 33.9445 46.3648 34.0214C46.4106 34.1917 46.4573 34.365 46.5158 34.5342C46.7528 35.2204 47.1269 35.8046 47.8079 36.1274C47.9543 36.1966 48.1111 36.2435 48.2782 36.2936L48.2782 36.2936C48.3583 36.3175 48.4406 36.3422 48.5253 36.3703C48.5298 36.3315 48.5346 36.2973 48.5391 36.266L48.5391 36.2659C48.5473 36.2083 48.5541 36.1607 48.5541 36.1132C48.5549 35.5562 48.5551 34.9994 48.5554 34.4425V34.4425C48.5558 33.4522 48.5562 32.462 48.5593 31.4716C48.5597 31.3361 48.5194 31.28 48.3851 31.2425C47.6084 31.0272 46.8626 30.7404 46.2164 30.2407C45.1743 29.4352 44.831 28.3477 44.9479 27.0796C45.0289 26.2027 45.356 25.4383 46.0311 24.8485C46.613 24.3405 47.3094 24.0794 48.0576 23.9443L48.0789 23.9405C48.555 23.8547 48.5565 23.8544 48.5553 23.3581V23.125H49.4994V23.8669C51.4564 24.0889 52.6644 25.1069 52.9856 27.1156L52.6518 27.1157C52.4378 27.1158 52.2301 27.1158 52.0225 27.1156C51.955 27.1155 51.8831 27.1223 51.8112 27.1291C51.6446 27.1449 51.478 27.1607 51.3652 27.0903C51.2626 27.0266 51.2174 26.8711 51.1722 26.7155C51.1521 26.6463 51.132 26.5771 51.1068 26.5159C50.8165 25.8069 50.2812 25.4023 49.5228 25.2412C49.5211 25.2622 49.5193 25.2821 49.5175 25.3012L49.5175 25.3013L49.5175 25.3014C49.5136 25.3433 49.5101 25.3815 49.5101 25.4197C49.5099 25.812 49.5099 26.2043 49.5099 26.5966C49.51 27.6264 49.5101 28.6562 49.5058 29.686C49.5054 29.8227 49.5472 29.8701 49.676 29.9136C49.8111 29.9593 49.9469 30.0036 50.0827 30.048L50.0828 30.048C50.5401 30.1973 50.9981 30.3469 51.4315 30.5488C52.5755 31.0809 53.1993 32.006 53.2957 33.2686C53.3573 34.0752 53.2542 34.8574 52.8809 35.5882C52.2966 36.7322 51.3442 37.3713 50.1019 37.6099C49.9788 37.633 49.8534 37.6479 49.72 37.6638C49.6526 37.6718 49.5831 37.68 49.5109 37.6897ZM49.5172 36.3348C49.8945 36.2854 50.2299 36.1772 50.5285 35.9789C51.3474 35.4349 51.678 34.6464 51.6535 33.6873C51.6231 32.5101 50.7114 31.6035 49.5172 31.5664V36.3348ZM48.5423 29.5979V25.2372C47.6001 25.3218 46.6161 26.0628 46.5474 27.2436C46.4763 28.465 47.1226 29.2969 48.5423 29.5979ZM39.0336 27.2227L39.0328 27.2227C38.6071 27.2233 38.1956 27.2238 37.7842 27.2164C37.7379 27.2156 37.6739 27.1386 37.6506 27.0833C37.4444 26.5915 37.1813 26.1403 36.7488 25.8109C35.7561 25.0548 34.159 25.3029 33.4151 26.3197C32.9194 26.9976 32.6974 27.7762 32.5765 28.5879C32.3778 29.9216 32.3667 31.2627 32.4991 32.6026C32.5828 33.4496 32.7495 34.2803 33.1639 35.0388C33.5246 35.6989 34.0417 36.1907 34.7997 36.3147C35.384 36.4103 35.9832 36.4368 36.5378 36.1215C37.0846 35.8107 37.4354 35.3406 37.6668 34.7733C37.7459 34.5792 37.811 34.3792 37.8769 34.1766L37.8769 34.1766C37.9075 34.0827 37.9382 33.9883 37.9706 33.8936H39.6029C39.277 35.418 38.752 36.7887 37.2185 37.4923C36.5454 37.8012 35.8268 37.8719 35.0976 37.8324C34.0496 37.7755 33.1212 37.4287 32.3806 36.656C31.8125 36.0631 31.4637 35.3469 31.2247 34.5722C30.8289 33.2888 30.7412 31.9674 30.7507 30.6342C30.7594 29.4384 30.8684 28.2577 31.2291 27.1117C31.4341 26.4611 31.7256 25.8551 32.1633 25.3238C32.7199 24.6483 33.4254 24.2233 34.2791 24.0427C35.2046 23.8468 36.125 23.863 37.0182 24.1893C38.2088 24.6242 38.8677 25.5466 39.245 26.7084C39.2789 26.8135 39.3074 26.9204 39.3379 27.0348L39.3379 27.0349C39.354 27.095 39.3705 27.1572 39.3888 27.2223C39.2691 27.2223 39.1508 27.2225 39.0336 27.2227ZM42.8434 23.9154H41.2626V37.3519H42.8434V23.9154Z" clip-rule="evenodd"/><path fill="#fff" d="M49.5109 38.4268V38.7268H49.8109V38.4268H49.5109ZM49.5109 37.6897L49.4711 37.3924L49.2109 37.4272V37.6897H49.5109ZM48.5589 38.4268H48.2589V38.7268H48.5589V38.4268ZM48.5589 37.7035H48.8589V37.4441L48.6022 37.4067L48.5589 37.7035ZM45.4595 36.1827L45.6967 35.999L45.6967 35.999L45.4595 36.1827ZM44.6619 33.7932V33.4932H44.3631L44.3619 33.7919L44.6619 33.7932ZM46.3021 33.7932L46.5906 33.7109L46.5285 33.4932H46.3021V33.7932ZM46.3648 34.0214L46.6544 33.9434L46.6544 33.9434L46.3648 34.0214ZM46.5158 34.5342L46.7993 34.4363L46.7993 34.4362L46.5158 34.5342ZM47.8079 36.1274L47.6795 36.3985L47.6797 36.3986L47.8079 36.1274ZM48.2782 36.2936L48.3731 36.0088L48.3643 36.0062L48.2782 36.2936ZM48.2782 36.2936L48.1833 36.5783L48.1922 36.581L48.2782 36.2936ZM48.5253 36.3703L48.4307 36.655L48.7813 36.7715L48.8233 36.4045L48.5253 36.3703ZM48.5391 36.266L48.8361 36.3084L48.8365 36.3056L48.5391 36.266ZM48.5391 36.2659L48.2421 36.2235L48.2418 36.2262L48.5391 36.2659ZM48.5541 36.1132L48.2541 36.1128V36.1132H48.5541ZM48.5554 34.4425L48.8554 34.4427V34.4425H48.5554ZM48.5554 34.4425L48.2554 34.4424V34.4425H48.5554ZM48.5593 31.4716L48.8593 31.4725L48.8593 31.4724L48.5593 31.4716ZM48.3851 31.2425L48.4658 30.9535L48.4652 30.9534L48.3851 31.2425ZM46.2164 30.2407L46.3999 30.0033L46.3998 30.0033L46.2164 30.2407ZM44.9479 27.0796L44.6492 27.0521L44.6492 27.0521L44.9479 27.0796ZM46.0311 24.8485L45.8338 24.6225L45.8337 24.6226L46.0311 24.8485ZM48.0576 23.9443L48.0044 23.649L48.0043 23.6491L48.0576 23.9443ZM48.0789 23.9405L48.0257 23.6452L48.0257 23.6452L48.0789 23.9405ZM48.5553 23.3581L48.2553 23.3581L48.2553 23.3588L48.5553 23.3581ZM48.5553 23.125V22.825H48.2553V23.125H48.5553ZM49.4994 23.125H49.7994V22.825H49.4994V23.125ZM49.4994 23.8669H49.1994V24.1348L49.4656 24.165L49.4994 23.8669ZM52.9856 27.1156L52.9857 27.4156L53.3373 27.4155L53.2818 27.0682L52.9856 27.1156ZM52.6518 27.1157L52.6517 26.8157L52.6517 26.8157L52.6518 27.1157ZM52.0225 27.1156L52.022 27.4156L52.0221 27.4156L52.0225 27.1156ZM51.8112 27.1291L51.7829 26.8304L51.7829 26.8304L51.8112 27.1291ZM51.3652 27.0903L51.5239 26.8357L51.5235 26.8355L51.3652 27.0903ZM51.1722 26.7155L51.4603 26.6318L51.4603 26.6318L51.1722 26.7155ZM51.1068 26.5159L50.8292 26.6296L50.8294 26.6301L51.1068 26.5159ZM49.5228 25.2412L49.5851 24.9477L49.2498 24.8765L49.2236 25.2183L49.5228 25.2412ZM49.5175 25.3012L49.8159 25.3331L49.8163 25.3288L49.5175 25.3012ZM49.5175 25.3013L49.8145 25.3453L49.8158 25.3333L49.5175 25.3013ZM49.5175 25.3014L49.2208 25.2574L49.2196 25.2656L49.2188 25.2738L49.5175 25.3014ZM49.5101 25.4197L49.8101 25.4199V25.4197H49.5101ZM49.5099 26.5966L49.8099 26.5965L49.8099 26.5965L49.5099 26.5966ZM49.5058 29.686L49.2058 29.6848L49.2058 29.6852L49.5058 29.686ZM49.676 29.9136L49.7721 29.6294L49.7719 29.6293L49.676 29.9136ZM50.0827 30.048L50.1882 29.7668L50.1759 29.7628L50.0827 30.048ZM50.0828 30.048L49.9773 30.3291L49.9896 30.3331L50.0828 30.048ZM51.4315 30.5488L51.3048 30.8207L51.305 30.8208L51.4315 30.5488ZM53.2957 33.2686L52.9965 33.2914L52.9966 33.2914L53.2957 33.2686ZM52.8809 35.5882L52.6137 35.4517L52.6137 35.4517L52.8809 35.5882ZM50.1019 37.6099L50.1572 37.9048L50.1584 37.9045L50.1019 37.6099ZM49.72 37.6638L49.7554 37.9617L49.7554 37.9617L49.72 37.6638ZM50.5285 35.9789L50.6944 36.2288L50.6945 36.2287L50.5285 35.9789ZM49.5172 36.3348H49.2172V36.6766L49.5562 36.6322L49.5172 36.3348ZM51.6535 33.6873L51.9534 33.6796L51.9534 33.6795L51.6535 33.6873ZM49.5172 31.5664L49.5265 31.2665L49.2172 31.2569V31.5664H49.5172ZM48.5423 25.2372H48.8423V24.9091L48.5155 24.9384L48.5423 25.2372ZM48.5423 29.5979L48.4801 29.8914L48.8423 29.9682V29.5979H48.5423ZM46.5474 27.2436L46.8469 27.261L46.8469 27.261L46.5474 27.2436ZM39.0328 27.2227L39.0333 27.5227L39.0334 27.5227L39.0328 27.2227ZM39.0336 27.2227L39.0332 26.9227L39.0331 26.9227L39.0336 27.2227ZM37.7842 27.2164L37.7896 26.9164L37.7893 26.9164L37.7842 27.2164ZM37.6506 27.0833L37.374 27.1993L37.3742 27.1998L37.6506 27.0833ZM36.7488 25.8109L36.9306 25.5722L36.9306 25.5722L36.7488 25.8109ZM33.4151 26.3197L33.173 26.1426L33.173 26.1426L33.4151 26.3197ZM32.5765 28.5879L32.8732 28.6322L32.8732 28.6321L32.5765 28.5879ZM32.4991 32.6026L32.2005 32.6321L32.2005 32.6321L32.4991 32.6026ZM33.1639 35.0388L32.9006 35.1826L32.9006 35.1826L33.1639 35.0388ZM34.7997 36.3147L34.7513 36.6108L34.7513 36.6108L34.7997 36.3147ZM36.5378 36.1215L36.6861 36.3824L36.6861 36.3823L36.5378 36.1215ZM37.6668 34.7733L37.9446 34.8867L37.9447 34.8865L37.6668 34.7733ZM37.8769 34.1766L38.1622 34.2695L38.1633 34.2661L37.8769 34.1766ZM37.8769 34.1766L37.5916 34.0838L37.5906 34.0871L37.8769 34.1766ZM37.9706 33.8936V33.5936H37.7562L37.6868 33.7965L37.9706 33.8936ZM39.6029 33.8936L39.8962 33.9563L39.9738 33.5936H39.6029V33.8936ZM37.2185 37.4923L37.0934 37.2196L37.0934 37.2196L37.2185 37.4923ZM35.0976 37.8324L35.0813 38.132L35.0813 38.132L35.0976 37.8324ZM32.3806 36.656L32.1639 36.8636L32.164 36.8636L32.3806 36.656ZM31.2247 34.5722L30.938 34.6606L30.938 34.6607L31.2247 34.5722ZM30.7507 30.6342L30.4507 30.632L30.4507 30.6321L30.7507 30.6342ZM31.2291 27.1117L30.9429 27.0216L30.9429 27.0217L31.2291 27.1117ZM32.1633 25.3238L31.9318 25.133L31.9317 25.1331L32.1633 25.3238ZM34.2791 24.0427L34.3411 24.3362L34.3412 24.3362L34.2791 24.0427ZM37.0182 24.1893L36.9153 24.4711L36.9153 24.4711L37.0182 24.1893ZM39.245 26.7084L39.5305 26.6163L39.5303 26.6157L39.245 26.7084ZM39.3379 27.0348L39.048 27.1122L39.0495 27.1173L39.3379 27.0348ZM39.3379 27.0349L39.6279 26.9576L39.6264 26.9525L39.3379 27.0349ZM39.3888 27.2223V27.5223H39.7842L39.6777 27.1415L39.3888 27.2223ZM41.2626 23.9154V23.6154H40.9626V23.9154H41.2626ZM42.8434 23.9154H43.1434V23.6154H42.8434V23.9154ZM41.2626 37.3519H40.9626V37.6519H41.2626V37.3519ZM42.8434 37.3519V37.6519H43.1434V37.3519H42.8434ZM49.8109 38.4268V37.6897H49.2109V38.4268H49.8109ZM48.5589 38.7268H49.5109V38.1268H48.5589V38.7268ZM48.2589 37.7035V38.4268H48.8589V37.7035H48.2589ZM45.2223 36.3664C46.0727 37.4644 47.2828 37.8206 48.5156 38.0004L48.6022 37.4067C47.4142 37.2334 46.4011 36.9085 45.6967 35.999L45.2223 36.3664ZM44.3619 33.7919C44.3585 34.6367 44.7088 35.7034 45.2223 36.3664L45.6967 35.999C45.2684 35.4461 44.959 34.5108 44.9619 33.7944L44.3619 33.7919ZM46.3021 33.4932H44.6619V34.0932H46.3021V33.4932ZM46.6544 33.9434C46.6338 33.8669 46.6127 33.7884 46.5906 33.7109L46.0136 33.8754C46.0343 33.948 46.0543 34.0221 46.0751 34.0995L46.6544 33.9434ZM46.7993 34.4362C46.7448 34.2785 46.7007 34.1153 46.6544 33.9434L46.0751 34.0995C46.1205 34.268 46.1698 34.4515 46.2322 34.6322L46.7993 34.4362ZM47.9364 35.8563C47.3557 35.5811 47.022 35.0808 46.7993 34.4363L46.2322 34.6322C46.4836 35.36 46.8981 36.0282 47.6795 36.3985L47.9364 35.8563ZM48.3643 36.0062C48.193 35.9549 48.0585 35.914 47.9361 35.8561L47.6797 36.3986C47.8501 36.4792 48.0293 36.5322 48.1922 36.5809L48.3643 36.0062ZM48.3731 36.009L48.3731 36.0089L48.1834 36.5782L48.1834 36.5782L48.3731 36.009ZM48.6199 36.0856C48.5303 36.0559 48.4437 36.03 48.3643 36.0062L48.1922 36.581C48.2728 36.6051 48.3509 36.6285 48.4307 36.655L48.6199 36.0856ZM48.2421 36.2235C48.2377 36.2546 48.2322 36.2927 48.2273 36.3361L48.8233 36.4045C48.8273 36.3703 48.8316 36.3399 48.8361 36.3084L48.2421 36.2235ZM48.2418 36.2262L48.2417 36.2263L48.8365 36.3056L48.8365 36.3055L48.2418 36.2262ZM48.2541 36.1132C48.2541 36.1355 48.251 36.1611 48.2421 36.2235L48.8361 36.3083C48.8437 36.2555 48.8541 36.186 48.8541 36.1132H48.2541ZM48.2554 34.4424C48.2551 34.9993 48.2549 35.556 48.2541 36.1128L48.8541 36.1135C48.8549 35.5565 48.8551 34.9995 48.8554 34.4427L48.2554 34.4424ZM48.2554 34.4425V34.4425H48.8554V34.4425H48.2554ZM48.2593 31.4707C48.2562 32.4615 48.2558 33.4522 48.2554 34.4424L48.8554 34.4426C48.8558 33.4523 48.8562 32.4624 48.8593 31.4725L48.2593 31.4707ZM48.3043 31.5314C48.3245 31.537 48.3279 31.5398 48.3227 31.537C48.3156 31.533 48.2989 31.5218 48.2829 31.5006C48.267 31.4794 48.2609 31.4602 48.259 31.4522C48.2576 31.4464 48.2593 31.4501 48.2593 31.4707L48.8593 31.4724C48.8595 31.3831 48.8485 31.2544 48.7624 31.14C48.6762 31.0253 48.5551 30.9785 48.4658 30.9535L48.3043 31.5314ZM46.0328 30.478C46.7235 31.012 47.512 31.3117 48.3049 31.5316L48.4652 30.9534C47.7049 30.7426 47.0018 30.4687 46.3999 30.0033L46.0328 30.478ZM44.6492 27.0521C44.5249 28.3997 44.8931 29.597 46.0329 30.478L46.3998 30.0033C45.4555 29.2734 45.1371 28.2957 45.2466 27.1072L44.6492 27.0521ZM45.8337 24.6226C45.0905 25.2718 44.7359 26.1129 44.6492 27.0521L45.2466 27.1072C45.3219 26.2925 45.6214 25.6047 46.2285 25.0744L45.8337 24.6226ZM48.0043 23.6491C47.222 23.7903 46.4691 24.0678 45.8338 24.6225L46.2284 25.0745C46.7568 24.6132 47.3968 24.3685 48.1109 24.2395L48.0043 23.6491ZM48.0257 23.6452L48.0044 23.649L48.1108 24.2395L48.132 24.2357L48.0257 23.6452ZM48.2553 23.3588C48.2556 23.4894 48.2553 23.5637 48.2499 23.6153C48.2447 23.6658 48.2384 23.6444 48.2641 23.613C48.2907 23.5806 48.3147 23.582 48.2692 23.5954C48.2217 23.6095 48.1516 23.6225 48.0257 23.6452L48.132 24.2357C48.2442 24.2155 48.3528 24.1964 48.4394 24.1708C48.5281 24.1445 48.6417 24.0987 48.728 23.9935C48.8135 23.8893 48.8371 23.7694 48.8467 23.6775C48.8562 23.5868 48.8556 23.4749 48.8553 23.3574L48.2553 23.3588ZM48.2553 23.125V23.3581H48.8553V23.125H48.2553ZM49.4994 22.825H48.5553V23.425H49.4994V22.825ZM49.7994 23.8669V23.125H49.1994V23.8669H49.7994ZM53.2818 27.0682C53.113 26.0123 52.7055 25.188 52.0577 24.5992C51.4118 24.0121 50.555 23.6847 49.5333 23.5688L49.4656 24.165C50.4009 24.271 51.1266 24.5637 51.6542 25.0432C52.1799 25.5211 52.537 26.2101 52.6893 27.1629L53.2818 27.0682ZM52.6519 27.4157L52.9857 27.4156L52.9855 26.8156L52.6517 26.8157L52.6519 27.4157ZM52.0221 27.4156C52.23 27.4158 52.438 27.4158 52.6519 27.4157L52.6517 26.8157C52.4376 26.8158 52.2302 26.8158 52.0229 26.8156L52.0221 27.4156ZM51.8395 27.4278C51.9145 27.4206 51.9715 27.4155 52.022 27.4156L52.023 26.8156C51.9384 26.8154 51.8517 26.8239 51.7829 26.8304L51.8395 27.4278ZM51.2064 27.3449C51.3266 27.4198 51.4568 27.438 51.5568 27.4418C51.6569 27.4455 51.7608 27.4352 51.8395 27.4278L51.7829 26.8304C51.695 26.8388 51.6324 26.8442 51.5793 26.8422C51.5262 26.8402 51.5166 26.8312 51.5239 26.8357L51.2064 27.3449ZM50.8842 26.7993C50.9053 26.872 50.9336 26.9712 50.9735 27.0603C51.0128 27.1476 51.0808 27.2668 51.2068 27.3451L51.5235 26.8355C51.547 26.8501 51.5412 26.8597 51.5209 26.8145C51.5013 26.7709 51.4844 26.7146 51.4603 26.6318L50.8842 26.7993ZM50.8294 26.6301C50.8473 26.6735 50.863 26.7265 50.8842 26.7993L51.4603 26.6318C51.4412 26.5662 51.4167 26.4807 51.3842 26.4018L50.8294 26.6301ZM49.4604 25.5346C50.1334 25.6776 50.5808 26.0229 50.8292 26.6296L51.3844 26.4022C51.0522 25.5908 50.429 25.127 49.5851 24.9477L49.4604 25.5346ZM49.8163 25.3288C49.818 25.3099 49.8201 25.2878 49.8219 25.264L49.2236 25.2183C49.2222 25.2366 49.2206 25.2542 49.2188 25.2736L49.8163 25.3288ZM49.8158 25.3333L49.8158 25.3331L49.2192 25.2692L49.2192 25.2694L49.8158 25.3333ZM49.8143 25.3453L49.8143 25.3453L49.2208 25.2574L49.2208 25.2574L49.8143 25.3453ZM49.8101 25.4197C49.8101 25.3978 49.8121 25.3736 49.8162 25.329L49.2188 25.2738C49.2152 25.313 49.2101 25.3652 49.2101 25.4197H49.8101ZM49.8099 26.5965C49.8099 26.2043 49.8099 25.8121 49.8101 25.4199L49.2101 25.4196C49.2099 25.8119 49.2099 26.2043 49.2099 26.5966L49.8099 26.5965ZM49.8058 29.6873C49.8101 28.6567 49.81 27.6263 49.8099 26.5965L49.2099 26.5966C49.21 27.6265 49.2101 28.6557 49.2058 29.6848L49.8058 29.6873ZM49.7719 29.6293C49.749 29.6216 49.7428 29.6178 49.7448 29.619C49.7486 29.6212 49.7641 29.631 49.78 29.6515C49.7963 29.6727 49.8033 29.6927 49.8057 29.7027C49.8075 29.71 49.8057 29.7074 49.8058 29.6869L49.2058 29.6852C49.2055 29.7771 49.2176 29.9048 49.3049 30.018C49.3884 30.1262 49.504 30.1722 49.5801 30.1978L49.7719 29.6293ZM50.1759 29.7628C50.0397 29.7183 49.9055 29.6745 49.7721 29.6294L49.5799 30.1978C49.7167 30.244 49.854 30.2889 49.9896 30.3331L50.1759 29.7628ZM50.1881 29.7671L50.1881 29.7671L49.9774 30.3289L49.9774 30.3289L50.1881 29.7671ZM51.5582 30.2768C51.1057 30.066 50.6302 29.9111 50.1759 29.7628L49.9896 30.3331C50.45 30.4835 50.8906 30.6277 51.3048 30.8207L51.5582 30.2768ZM53.5948 33.2457C53.4904 31.8783 52.8033 30.856 51.5581 30.2768L51.305 30.8208C52.3478 31.3058 52.9082 32.1338 52.9965 33.2914L53.5948 33.2457ZM53.1481 35.7246C53.5523 34.9333 53.6595 34.0931 53.5948 33.2457L52.9966 33.2914C53.0551 34.0573 52.9561 34.7814 52.6137 35.4517L53.1481 35.7246ZM50.1584 37.9045C51.4806 37.6506 52.5169 36.9605 53.1481 35.7246L52.6137 35.4517C52.0764 36.5038 51.2079 37.092 50.0453 37.3153L50.1584 37.9045ZM49.7554 37.9617C49.8869 37.9461 50.0225 37.9301 50.1572 37.9048L50.0465 37.3151C49.9351 37.336 49.8199 37.3498 49.6845 37.3659L49.7554 37.9617ZM49.5507 37.9871C49.6204 37.9777 49.6877 37.9697 49.7554 37.9617L49.6845 37.3659C49.6175 37.3739 49.5459 37.3824 49.4711 37.3924L49.5507 37.9871ZM50.3625 35.7289C50.1105 35.8963 49.8214 35.9924 49.4783 36.0373L49.5562 36.6322C49.9675 36.5784 50.3492 36.458 50.6944 36.2288L50.3625 35.7289ZM51.3536 33.6949C51.376 34.5688 51.0815 35.2514 50.3625 35.729L50.6945 36.2287C51.6133 35.6184 51.9801 34.724 51.9534 33.6796L51.3536 33.6949ZM49.5079 31.8662C50.5464 31.8985 51.3274 32.6801 51.3536 33.695L51.9534 33.6795C51.9188 32.3401 50.8764 31.3085 49.5265 31.2665L49.5079 31.8662ZM49.8172 36.3348V31.5664H49.2172V36.3348H49.8172ZM48.2423 25.2372V29.5979H48.8423V25.2372H48.2423ZM46.8469 27.261C46.9053 26.2572 47.7446 25.61 48.5691 25.536L48.5155 24.9384C47.4557 25.0335 46.3269 25.8684 46.2479 27.2261L46.8469 27.261ZM48.6045 29.3045C47.9385 29.1633 47.4912 28.9055 47.2167 28.5745C46.9451 28.2467 46.8147 27.8132 46.8469 27.261L46.2479 27.2261C46.2089 27.8953 46.3662 28.4885 46.7548 28.9574C47.1407 29.4229 47.7264 29.7316 48.4801 29.8914L48.6045 29.3045ZM39.0334 27.5227L39.0342 27.5227L39.0331 26.9227L39.0323 26.9227L39.0334 27.5227ZM37.7787 27.5164C38.1936 27.5238 38.608 27.5233 39.0333 27.5227L39.0324 26.9227C38.6062 26.9233 38.1976 26.9238 37.7896 26.9164L37.7787 27.5164ZM37.3742 27.1998C37.4014 27.2643 37.4443 27.3268 37.4902 27.3757C37.514 27.401 37.546 27.4306 37.5859 27.456C37.6219 27.479 37.6896 27.5148 37.779 27.5164L37.7893 26.9164C37.8242 26.917 37.8518 26.9246 37.8698 26.9312C37.8879 26.9379 37.9008 26.9453 37.9083 26.95C37.916 26.955 37.9211 26.9591 37.9235 26.9612C37.9261 26.9634 37.9273 26.9647 37.9274 26.9648C37.9276 26.965 37.9272 26.9646 37.9265 26.9637C37.9258 26.9628 37.9251 26.9619 37.9245 26.961C37.9227 26.9583 37.9242 26.9598 37.9271 26.9668L37.3742 27.1998ZM36.567 26.0495C36.9392 26.333 37.1766 26.7286 37.374 27.1993L37.9273 26.9673C37.7122 26.4543 37.4235 25.9477 36.9306 25.5722L36.567 26.0495ZM33.6573 26.4968C34.3047 25.6118 35.7116 25.398 36.567 26.0495L36.9306 25.5722C35.8005 24.7116 34.0133 24.994 33.173 26.1426L33.6573 26.4968ZM32.8732 28.6321C32.9906 27.8437 33.202 27.1193 33.6573 26.4968L33.173 26.1426C32.6367 26.8758 32.4041 27.7086 32.2798 28.5438L32.8732 28.6321ZM32.7976 32.5731C32.6674 31.2543 32.6786 29.9382 32.8732 28.6322L32.2798 28.5437C32.077 29.9049 32.0661 31.271 32.2005 32.6321L32.7976 32.5731ZM33.4272 34.8949C33.0407 34.1875 32.8797 33.4028 32.7976 32.5731L32.2005 32.6321C32.286 33.4963 32.4583 34.3731 32.9006 35.1826L33.4272 34.8949ZM34.8482 36.0186C34.2102 35.9143 33.7597 35.5036 33.4272 34.8949L32.9006 35.1826C33.2894 35.8941 33.8731 36.4671 34.7513 36.6108L34.8482 36.0186ZM36.3896 35.8607C35.9278 36.1232 35.4158 36.1115 34.8482 36.0186L34.7513 36.6108C35.3522 36.7091 36.0387 36.7503 36.6861 36.3824L36.3896 35.8607ZM37.3891 34.66C37.1767 35.1804 36.8648 35.5905 36.3896 35.8608L36.6861 36.3823C37.3044 36.0308 37.694 35.5007 37.9446 34.8867L37.3891 34.66ZM37.5916 34.0838C37.5251 34.2882 37.4633 34.4778 37.389 34.6601L37.9447 34.8865C38.0285 34.6807 38.0969 34.4703 38.1622 34.2695L37.5916 34.0838ZM37.5906 34.0871L37.5906 34.0872L38.1633 34.2661L38.1633 34.2661L37.5906 34.0871ZM37.6868 33.7965C37.6535 33.8936 37.6221 33.9902 37.5917 34.0838L38.1622 34.2694C38.1929 34.1752 38.2229 34.0829 38.2545 33.9907L37.6868 33.7965ZM39.6029 33.5936H37.9706V34.1936H39.6029V33.5936ZM37.3436 37.765C39.0137 36.9987 39.5661 35.5004 39.8962 33.9563L39.3095 33.8309C38.9878 35.3356 38.4903 36.5788 37.0934 37.2196L37.3436 37.765ZM35.0813 38.132C35.8393 38.173 36.6111 38.1011 37.3436 37.7649L37.0934 37.2196C36.4796 37.5013 35.8143 37.5708 35.1138 37.5328L35.0813 38.132ZM32.164 36.8636C32.9672 37.7015 33.9728 38.0718 35.0813 38.132L35.1138 37.5329C34.1263 37.4793 33.2753 37.1559 32.5971 36.4484L32.164 36.8636ZM30.938 34.6607C31.1857 35.4636 31.5535 36.2264 32.1639 36.8636L32.5972 36.4485C32.0715 35.8997 31.7416 35.2302 31.5114 34.4838L30.938 34.6607ZM30.4507 30.6321C30.4411 31.9779 30.529 33.3345 30.938 34.6606L31.5114 34.4838C31.1287 33.243 31.0413 31.957 31.0507 30.6363L30.4507 30.6321ZM30.9429 27.0217C30.5698 28.2071 30.4595 29.4207 30.4507 30.632L31.0507 30.6364C31.0592 29.4562 31.167 28.3083 31.5152 27.2018L30.9429 27.0217ZM31.9317 25.1331C31.4638 25.7012 31.1564 26.3441 30.9429 27.0216L31.5152 27.2019C31.7117 26.5781 31.9875 26.0091 32.3948 25.5146L31.9317 25.1331ZM34.217 23.7492C33.2973 23.9437 32.5319 24.4047 31.9318 25.133L32.3948 25.5146C32.9079 24.8919 33.5535 24.5028 34.3411 24.3362L34.217 23.7492ZM37.1211 23.9075C36.1653 23.5583 35.1863 23.544 34.2169 23.7492L34.3412 24.3362C35.223 24.1496 36.0848 24.1677 36.9153 24.4711L37.1211 23.9075ZM39.5303 26.6157C39.1348 25.3977 38.4253 24.3839 37.1211 23.9075L36.9153 24.4711C37.9923 24.8645 38.6007 25.6955 38.9596 26.801L39.5303 26.6157ZM39.6278 26.9576C39.5976 26.8445 39.5672 26.73 39.5305 26.6163L38.9595 26.8005C38.9906 26.897 39.0172 26.9963 39.0481 27.1121L39.6278 26.9576ZM39.6264 26.9525L39.6264 26.9524L39.0495 27.1173L39.0495 27.1173L39.6264 26.9525ZM39.6777 27.1415C39.66 27.0784 39.6439 27.0179 39.6278 26.9576L39.0481 27.1122C39.064 27.1721 39.0811 27.236 39.0999 27.3031L39.6777 27.1415ZM39.0341 27.5227C39.1513 27.5225 39.2694 27.5223 39.3888 27.5223V26.9223C39.2689 26.9223 39.1504 26.9225 39.0332 26.9227L39.0341 27.5227ZM41.2626 24.2154H42.8434V23.6154H41.2626V24.2154ZM41.5626 37.3519V23.9154H40.9626V37.3519H41.5626ZM42.8434 37.0519H41.2626V37.6519H42.8434V37.0519ZM42.5434 23.9154V37.3519H43.1434V23.9154H42.5434Z"/></g><defs><clipPath id="a"><rect width="36" height="36" fill="#fff" transform="translate(24 13)"/></clipPath></defs></svg>