<svg xmlns="http://www.w3.org/2000/svg" fill="none" viewBox="0 0 64 64"><path fill="#50D9D7" d="M29.8813 50.9469C26.1543 52.3403 22.1038 52.6259 18.2181 51.7693C14.3325 50.9127 10.7775 48.9504 7.98194 46.119C5.18634 43.2876 3.26941 39.708 2.46227 35.8118C1.65512 31.9156 1.99222 27.869 3.43291 24.1601C4.87361 20.4511 7.3564 17.238 10.5819 14.9082C13.8075 12.5784 17.6381 11.2314 21.6119 11.0295C25.5858 10.8276 29.5332 11.7795 32.9782 13.7704C36.4233 15.7613 39.2189 18.7061 41.0281 22.25C42.3499 24.8391 43.1094 27.6783 43.2569 30.5814C43.4044 33.4846 42.9365 36.3861 41.884 39.0958C40.8315 41.8055 39.218 44.2621 37.1495 46.3044C35.081 48.3468 32.6041 49.9289 29.8813 50.9469V50.9469Z"/><path fill="#93E6E5" d="M43.2781 32.5627C43.3156 31.9382 43.3156 31.3121 43.2781 30.6877H33.9031C33.8193 27.7903 33.2126 24.9319 32.1125 22.2502H41.0281C40.7042 21.6036 40.341 20.9774 39.9406 20.3752H31.2125C29.2556 16.7668 26.5286 13.6333 23.225 11.197C23.0611 11.0708 22.86 11.0024 22.6531 11.0024C22.4463 11.0024 22.2452 11.0708 22.0813 11.197C18.7751 13.6306 16.0476 16.7647 14.0938 20.3752H5.36563C4.96524 20.9774 4.60207 21.6036 4.27813 22.2502H13.2219C12.1121 24.9301 11.4959 27.7885 11.4031 30.6877H2.02813C1.99062 31.3121 1.99062 31.9382 2.02813 32.5627H11.4031C11.487 35.46 12.0936 38.3184 13.1938 41.0002H4.27813C4.60207 41.6467 4.96524 42.2729 5.36563 42.8752H14.0938C16.0476 46.4856 18.7751 49.6197 22.0813 52.0533C22.2452 52.1795 22.4463 52.2479 22.6531 52.2479C22.86 52.2479 23.0611 52.1795 23.225 52.0533C26.5335 49.6222 29.2615 46.4876 31.2125 42.8752H39.9406C40.341 42.2729 40.7042 41.6467 41.0281 41.0002H32.0844C33.1942 38.3202 33.8103 35.4618 33.9031 32.5627H43.2781ZM22.6531 13.1283C25.2238 15.1229 27.3987 17.5808 29.0656 20.3752H16.2406C17.9116 17.5838 20.0859 15.1266 22.6531 13.1283V13.1283ZM22.6531 50.122C20.0859 48.1237 17.9116 45.6665 16.2406 42.8752H29.0656C27.3957 45.6673 25.2212 48.1247 22.6531 50.122V50.122ZM30.0313 41.0002H15.275C14.0563 38.3479 13.3775 35.4798 13.2781 32.5627H32.0281C31.9287 35.4798 31.2499 38.3479 30.0313 41.0002V41.0002ZM13.2781 30.6877C13.3687 27.7725 14.0379 24.9044 15.2469 22.2502H30.0313C31.2499 24.9024 31.9287 27.7706 32.0281 30.6877H13.2781Z"/><path fill="#00BEBD" d="M39.9406 20.375H31.2125C30.0623 18.2008 28.607 16.2025 26.8906 14.4406 27.8275 13.6478 28.8277 12.9329 29.8812 12.3031 34.0111 13.8492 37.5366 16.6782 39.9406 20.375V20.375zM39.9406 42.875C37.5366 46.5718 34.0111 49.4008 29.8812 50.9469 28.8277 50.3171 27.8275 49.6023 26.8906 48.8094 28.607 47.0475 30.0623 45.0492 31.2125 42.875H39.9406zM32.0281 32.5625C31.9375 35.4777 31.2683 38.3458 30.0593 41H20.9562C19.7261 38.349 19.0285 35.4823 18.9031 32.5625H32.0281zM32.0281 30.6875H18.9031C19.0226 27.769 19.7138 24.9023 20.9375 22.25H30.0125C31.2376 24.9009 31.9228 27.7691 32.0281 30.6875V30.6875zM29.0656 20.375H21.9219C22.9111 18.6639 24.1181 17.0882 25.5125 15.6875 26.8797 17.1026 28.0726 18.6763 29.0656 20.375V20.375zM29.0656 42.875C28.0726 44.5737 26.8797 46.1474 25.5125 47.5625 24.1181 46.1618 22.9111 44.5861 21.9219 42.875H29.0656z"/><path fill="#50D9D7" d="M33.9031 32.5625C33.8192 35.4599 33.2126 38.3183 32.1125 41H41.0281C40.7041 41.6466 40.341 42.2728 39.9406 42.875H31.2125C30.0623 45.0492 28.6069 47.0476 26.8906 48.8094C26.4125 48.4063 25.9531 47.9844 25.5125 47.5344C26.8797 46.1193 28.0726 44.5456 29.0656 42.8469H21.9218C21.575 42.2375 21.2468 41.6188 20.9843 40.9719H30.0593C31.2647 38.3263 31.9338 35.4682 32.0281 32.5625H18.9031C18.9031 31.7375 18.9031 31.5125 18.9031 30.6875H32.0281C31.9375 27.7723 31.2683 24.9042 30.0593 22.25H20.9562C21.2468 21.6031 21.575 20.9844 21.8937 20.375H29.0375C28.0444 18.6763 26.8516 17.1026 25.4843 15.6875C25.925 15.2375 26.4218 14.8156 26.8625 14.4125C28.5909 16.1811 30.0559 18.1892 31.2125 20.375H39.9406C40.341 20.9773 40.7041 21.6034 41.0281 22.25H32.0843C33.1941 24.9299 33.8103 27.7884 33.9031 30.6875H43.2781C43.3156 31.3119 43.3156 31.9381 43.2781 32.5625H33.9031Z"/><path fill="#EA9706" d="M41.4031 52.25C52.7939 52.25 62.0281 43.0159 62.0281 31.625C62.0281 20.2341 52.7939 11 41.4031 11C30.0122 11 20.7781 20.2341 20.7781 31.625C20.7781 43.0159 30.0122 52.25 41.4031 52.25Z"/><path fill="#FFAC00" d="M41.4031 48.5C50.7229 48.5 58.2781 40.9448 58.2781 31.625C58.2781 22.3052 50.7229 14.75 41.4031 14.75C32.0833 14.75 24.5281 22.3052 24.5281 31.625C24.5281 40.9448 32.0833 48.5 41.4031 48.5Z"/><g clip-path="url(#a)"><path fill="#fff" fill-rule="evenodd" d="M51.6505 25.7053L51.65 25.7049C51.5292 25.6021 51.4011 25.4932 51.2639 25.375C51.2239 25.5048 51.1822 25.6383 51.1396 25.7747L51.1384 25.7785L51.1383 25.7788L51.1383 25.7789L51.1382 25.779C51.0088 26.1933 50.8711 26.634 50.7469 27.0773C50.728 27.1449 50.7704 27.2329 50.8107 27.3167L50.8108 27.3167C50.8238 27.3437 50.8365 27.3702 50.847 27.3954C50.8816 27.4787 50.9224 27.5606 50.9632 27.6425C51.0433 27.803 51.1232 27.9632 51.1555 28.1328C51.4104 29.4742 51.6499 30.8203 51.8738 32.1676C52.0835 33.4328 51.6392 34.1618 50.3847 34.4454C49.801 34.5764 49.1637 34.5824 48.5669 34.5097C47.8152 34.4192 47.4018 33.92 47.534 33.1838C47.6615 32.4821 47.9569 31.796 48.2655 31.1443C48.4394 30.7774 48.3691 30.6714 48.0308 30.5844C47.2934 31.6054 46.7895 32.6775 46.724 33.9355C46.6501 35.3638 47.4125 36.3228 48.7622 36.4229C49.0577 36.4443 49.3591 36.4443 49.6545 36.4205C51.5582 36.2704 52.8078 35.0076 52.703 33.1242C52.6483 32.144 52.4948 31.1697 52.3414 30.1953L52.3414 30.1952L52.3414 30.1951C52.2576 29.6633 52.1739 29.1315 52.1061 28.5986C52.0874 28.4531 52.1442 28.2956 52.1999 28.1411L52.1999 28.1411C52.2186 28.0894 52.2371 28.038 52.2527 27.9875C52.2946 27.851 52.3399 27.7156 52.3852 27.5802L52.3852 27.5801C52.4712 27.3231 52.5572 27.0663 52.6196 26.8033C52.647 26.6902 52.5529 26.5055 52.4576 26.415C52.2116 26.1826 51.9534 25.963 51.6505 25.7054L51.6505 25.7053ZM35.9532 30.8269L35.799 30.7131C34.9949 31.7769 34.6411 32.6144 34.485 33.8116C34.2479 35.6236 35.2712 36.7195 37.0903 36.6016C37.2678 36.5897 37.4453 36.5706 37.6228 36.548C39.3716 36.3276 40.5355 35.0899 40.4259 33.3446C40.3625 32.3389 40.2091 31.3389 40.0557 30.3384C39.9783 29.8339 39.9009 29.3293 39.835 28.8238C39.81 28.6272 39.8243 28.4068 39.8862 28.2198C39.9511 28.0242 40.0305 27.833 40.11 27.6419C40.194 27.4396 40.2781 27.2373 40.3449 27.0297C40.3818 26.9106 40.327 26.7021 40.2365 26.6151C39.9638 26.3538 39.6754 26.1089 39.3748 25.8537C39.263 25.7588 39.1495 25.6624 39.0345 25.5632C38.9907 25.6936 38.9407 25.8212 38.8906 25.9491C38.6656 26.5238 38.4383 27.1044 38.7569 27.9648C39.1768 29.0978 39.331 30.3333 39.4843 31.5618L39.4843 31.5618L39.4843 31.5619C39.5285 31.9158 39.5726 32.2691 39.623 32.6192C39.7671 33.6186 39.3859 34.2262 38.4067 34.5145C37.7955 34.6944 37.1189 34.7646 36.4816 34.7218C35.5619 34.6598 35.1056 34.0987 35.2748 33.1862C35.3719 32.6665 35.5701 32.1659 35.7768 31.6437C35.872 31.4033 35.9689 31.1584 36.0587 30.9049C36.0477 30.8965 36.0071 30.8666 35.9532 30.8269ZM44.2909 35.9202H42.7708V34.331H44.2909V35.9202ZM32.2832 36.0071V34.437H30.75V36.0071H32.2832Z" clip-rule="evenodd"/><path fill="#fff" d="M51.65 25.7049L51.8447 25.4767L51.8444 25.4764L51.65 25.7049ZM51.6505 25.7053L51.8518 25.4827L51.8452 25.4771L51.6505 25.7053ZM51.2639 25.375L51.4597 25.1477L51.1123 24.8485L50.9772 25.2866L51.2639 25.375ZM51.1396 25.7747L51.4259 25.8643L51.4259 25.8642L51.1396 25.7747ZM51.1384 25.7785L51.4244 25.8691L51.4247 25.8681L51.1384 25.7785ZM51.1383 25.7788L50.8523 25.6882L50.8511 25.6919L51.1383 25.7788ZM51.1383 25.7789L51.4233 25.8729L51.4254 25.8657L51.1383 25.7789ZM51.1382 25.779L50.8533 25.685L50.8519 25.6895L51.1382 25.779ZM50.7469 27.0773L50.458 26.9964L50.458 26.9964L50.7469 27.0773ZM50.8107 27.3167L50.5404 27.4469L50.5427 27.4515L50.8107 27.3167ZM50.8108 27.3167L51.0811 27.1865L51.0788 27.1819L50.8108 27.3167ZM50.847 27.3954L50.5698 27.5101L50.5699 27.5105L50.847 27.3954ZM50.9632 27.6425L51.2317 27.5086L51.2317 27.5086L50.9632 27.6425ZM51.1555 28.1328L51.4502 28.0768L51.4502 28.0766L51.1555 28.1328ZM51.8738 32.1676L52.1698 32.1186L52.1698 32.1185L51.8738 32.1676ZM50.3847 34.4454L50.4505 34.7381L50.4509 34.738L50.3847 34.4454ZM48.5669 34.5097L48.6031 34.2119L48.6027 34.2118L48.5669 34.5097ZM47.534 33.1838L47.2389 33.1302L47.2387 33.1308L47.534 33.1838ZM48.2655 31.1443L47.9944 31.0158L47.9943 31.016L48.2655 31.1443ZM48.0308 30.5844L48.1055 30.2939L47.9074 30.243L47.7876 30.4088L48.0308 30.5844ZM46.724 33.9355L46.4244 33.9199L46.4244 33.92L46.724 33.9355ZM48.7622 36.4229L48.74 36.7221L48.7405 36.7221L48.7622 36.4229ZM49.6545 36.4205L49.6309 36.1214L49.6304 36.1215L49.6545 36.4205ZM52.703 33.1242L53.0025 33.1076L53.0025 33.1075L52.703 33.1242ZM52.3414 30.1953L52.0445 30.2385L52.045 30.2419L52.3414 30.1953ZM52.3414 30.1951L52.6382 30.1519L52.6377 30.1484L52.3414 30.1951ZM52.1061 28.5986L52.4037 28.5608L52.4037 28.5603L52.1061 28.5986ZM52.1999 28.1411L51.918 28.0386L51.9177 28.0394L52.1999 28.1411ZM52.1999 28.1411L52.4819 28.2436L52.4821 28.2429L52.1999 28.1411ZM52.2527 27.9875L52.5394 28.0757L52.5394 28.0756L52.2527 27.9875ZM52.3852 27.5802L52.6697 27.6754L52.6698 27.675L52.3852 27.5802ZM52.3852 27.5801L52.1007 27.4849L52.1006 27.4853L52.3852 27.5801ZM52.6196 26.8033L52.328 26.7327L52.3277 26.734L52.6196 26.8033ZM52.4576 26.415L52.6642 26.1975L52.6636 26.1969L52.4576 26.415ZM51.6505 25.7054L51.4492 25.928L51.4562 25.9339L51.6505 25.7054ZM35.799 30.7131L35.9771 30.4717L35.7385 30.2957L35.5596 30.5322L35.799 30.7131ZM35.9532 30.8269L35.7751 31.0683L35.7753 31.0685L35.9532 30.8269ZM34.485 33.8116L34.7825 33.8505L34.7825 33.8504L34.485 33.8116ZM37.0903 36.6016L37.1097 36.901L37.1104 36.9009L37.0903 36.6016ZM37.6228 36.548L37.5853 36.2503L37.5849 36.2504L37.6228 36.548ZM40.4259 33.3446L40.7253 33.3258L40.7253 33.3258L40.4259 33.3446ZM40.0557 30.3384L40.3522 30.2929L40.3522 30.2929L40.0557 30.3384ZM39.835 28.8238L39.5374 28.8616L39.5375 28.8625L39.835 28.8238ZM39.8862 28.2198L39.6015 28.1254L39.6014 28.1255L39.8862 28.2198ZM40.11 27.6419L40.387 27.757L40.387 27.757L40.11 27.6419ZM40.3449 27.0297L40.6305 27.1215L40.6314 27.1185L40.3449 27.0297ZM40.2365 26.6151L40.4443 26.3988L40.4441 26.3986L40.2365 26.6151ZM39.3748 25.8537L39.5689 25.625L39.5689 25.625L39.3748 25.8537ZM39.0345 25.5632L39.2304 25.336L38.8923 25.0445L38.7501 25.4677L39.0345 25.5632ZM38.8906 25.9491L38.6113 25.8397L38.6113 25.8397L38.8906 25.9491ZM38.7569 27.9648L38.4756 28.069L38.4756 28.0691L38.7569 27.9648ZM39.4843 31.5618L39.7823 31.5267L39.782 31.5246L39.4843 31.5618ZM39.4843 31.5618L39.7824 31.5274L39.7823 31.5268L39.4843 31.5618ZM39.4843 31.5619L39.1863 31.5963L39.1866 31.599L39.4843 31.5619ZM39.623 32.6192L39.326 32.6619L39.326 32.662L39.623 32.6192ZM38.4067 34.5145L38.4914 34.8023L38.4914 34.8023L38.4067 34.5145ZM36.4816 34.7218L36.4614 35.0211L36.4614 35.0211L36.4816 34.7218ZM35.2748 33.1862L34.9799 33.1311L34.9798 33.1315L35.2748 33.1862ZM35.7768 31.6437L35.4979 31.5332L35.4979 31.5332L35.7768 31.6437ZM36.0587 30.9049L36.3415 31.005L36.4143 30.7992L36.2409 30.6666L36.0587 30.9049ZM42.7708 35.9202H42.4708V36.2202H42.7708V35.9202ZM44.2909 35.9202V36.2202H44.5909V35.9202H44.2909ZM42.7708 34.331V34.031H42.4708V34.331H42.7708ZM44.2909 34.331H44.5909V34.031H44.2909V34.331ZM32.2832 34.437H32.5832V34.137H32.2832V34.437ZM32.2832 36.0071V36.3071H32.5832V36.0071H32.2832ZM30.75 34.437V34.137H30.45V34.437H30.75ZM30.75 36.0071H30.45V36.3071H30.75V36.0071ZM51.4554 25.9332L51.4558 25.9336L51.8452 25.4771L51.8447 25.4767L51.4554 25.9332ZM51.0681 25.6023C51.2061 25.7212 51.3348 25.8307 51.4557 25.9335L51.8444 25.4764C51.7235 25.3735 51.5961 25.2652 51.4597 25.1477L51.0681 25.6023ZM51.4259 25.8642C51.4685 25.7279 51.5104 25.5938 51.5506 25.4634L50.9772 25.2866C50.9374 25.4158 50.8958 25.5488 50.8532 25.6853L51.4259 25.8642ZM51.4247 25.8681L51.4259 25.8643L50.8533 25.6851L50.8521 25.6889L51.4247 25.8681ZM51.4243 25.8694L51.4244 25.8691L50.8524 25.6879L50.8523 25.6882L51.4243 25.8694ZM51.4254 25.8657L51.4254 25.8657L50.8511 25.6919L50.8511 25.692L51.4254 25.8657ZM51.4231 25.873L51.4232 25.8728L50.8534 25.6849L50.8533 25.685L51.4231 25.873ZM51.0358 27.1583C51.1586 26.7199 51.295 26.2834 51.4246 25.8684L50.8519 25.6895C50.7227 26.1032 50.5837 26.5481 50.458 26.9964L51.0358 27.1583ZM51.081 27.1864C51.0705 27.1647 51.0624 27.1478 51.0553 27.1318C51.0483 27.1159 51.0442 27.1053 51.0419 27.0983C51.0396 27.091 51.0408 27.0927 51.0417 27.101C51.0425 27.1097 51.0435 27.1307 51.0358 27.1582L50.458 26.9964C50.4247 27.1154 50.4516 27.2231 50.4712 27.2836C50.492 27.3475 50.5224 27.4094 50.5405 27.4469L51.081 27.1864ZM51.0788 27.1819L51.0787 27.1818L50.5427 27.4515L50.5428 27.4516L51.0788 27.1819ZM51.1242 27.2807C51.1099 27.2462 51.0932 27.2117 51.081 27.1865L50.5405 27.447C50.5543 27.4756 50.5632 27.4942 50.5698 27.5101L51.1242 27.2807ZM51.2317 27.5086C51.1901 27.4251 51.154 27.3524 51.124 27.2803L50.5699 27.5105C50.6092 27.6049 50.6548 27.6961 50.6948 27.7763L51.2317 27.5086ZM51.4502 28.0766C51.4087 27.8592 51.308 27.6616 51.2317 27.5086L50.6948 27.7763C50.7785 27.9444 50.8376 28.0672 50.8608 28.189L51.4502 28.0766ZM52.1698 32.1185C51.9454 30.7689 51.7056 29.4205 51.4502 28.0768L50.8608 28.1888C51.1153 29.5279 51.3543 30.8717 51.5779 32.2168L52.1698 32.1185ZM50.4509 34.738C51.1212 34.5865 51.6308 34.3032 51.9307 33.8369C52.2287 33.3733 52.2808 32.7885 52.1698 32.1186L51.5779 32.2167C51.6765 32.8119 51.6113 33.2242 51.426 33.5124C51.2425 33.7977 50.9028 34.0207 50.3186 34.1527L50.4509 34.738ZM48.5306 34.8075C49.1524 34.8832 49.8254 34.8784 50.4505 34.7381L50.319 34.1526C49.7766 34.2744 49.175 34.2815 48.6031 34.2119L48.5306 34.8075ZM47.2387 33.1308C47.1606 33.566 47.2394 33.9668 47.4838 34.2752C47.7258 34.5805 48.0982 34.7554 48.531 34.8075L48.6027 34.2118C48.2838 34.1734 48.0737 34.0535 47.9541 33.9026C47.8369 33.7547 47.7752 33.5378 47.8293 33.2368L47.2387 33.1308ZM47.9943 31.016C47.6846 31.67 47.3739 32.3867 47.2389 33.1302L47.8292 33.2374C47.9491 32.5776 48.2292 31.9219 48.5366 31.2727L47.9943 31.016ZM47.9561 30.875C48.0331 30.8948 48.0727 30.9105 48.0916 30.9207C48.1072 30.9292 48.0841 30.9206 48.0675 30.8843C48.0514 30.8493 48.0607 30.8301 48.0556 30.8554C48.0501 30.883 48.0338 30.9328 47.9944 31.0158L48.5366 31.2728C48.5841 31.1725 48.6243 31.0714 48.6439 30.9731C48.664 30.8728 48.6671 30.7527 48.613 30.6345C48.5582 30.515 48.465 30.4406 48.3777 30.3933C48.2937 30.3478 48.1976 30.3176 48.1055 30.2939L47.9561 30.875ZM47.0235 33.9511C47.0851 32.7698 47.5572 31.7525 48.274 30.7601L47.7876 30.4088C47.0296 31.4583 46.4939 32.5853 46.4244 33.9199L47.0235 33.9511ZM48.7844 36.1237C48.1788 36.0788 47.7323 35.8453 47.4421 35.4881C47.1494 35.1279 46.9895 34.6096 47.0236 33.951L46.4244 33.92C46.3846 34.6897 46.569 35.3651 46.9764 35.8665C47.3864 36.3709 47.9959 36.6669 48.74 36.7221L48.7844 36.1237ZM49.6304 36.1215C49.351 36.144 49.0649 36.1441 48.7839 36.1237L48.7405 36.7221C49.0504 36.7446 49.3671 36.7446 49.6786 36.7195L49.6304 36.1215ZM52.4034 33.1409C52.4518 34.0093 52.1886 34.7127 51.7136 35.2166C51.2363 35.7228 50.5226 36.0511 49.6309 36.1214L49.6781 36.7196C50.6901 36.6398 51.5529 36.2617 52.1502 35.6282C52.7497 34.9922 53.059 34.1225 53.0025 33.1076L52.4034 33.1409ZM52.045 30.2419C52.1989 31.2189 52.3497 32.1783 52.4034 33.141L53.0025 33.1075C52.9468 32.1097 52.7908 31.1205 52.6377 30.1486L52.045 30.2419ZM52.0445 30.2384L52.0445 30.2385L52.6382 30.1521L52.6382 30.152L52.0445 30.2384ZM52.0445 30.2383L52.0445 30.2384L52.6382 30.152L52.6382 30.1519L52.0445 30.2383ZM51.8085 28.6364C51.8769 29.1745 51.9614 29.7107 52.045 30.2418L52.6377 30.1484C52.5538 29.6159 52.4708 29.0885 52.4037 28.5608L51.8085 28.6364ZM51.9177 28.0394C51.869 28.1743 51.7788 28.4053 51.8086 28.6369L52.4037 28.5603C52.396 28.5009 52.4194 28.417 52.4821 28.2429L51.9177 28.0394ZM51.918 28.0386L51.918 28.0386L52.4819 28.2437L52.4819 28.2436L51.918 28.0386ZM51.9659 27.8992C51.9529 27.9417 51.9369 27.9863 51.9177 28.0393L52.4821 28.2429C52.5003 28.1924 52.5214 28.1342 52.5394 28.0757L51.9659 27.8992ZM52.1007 27.485C52.0556 27.6198 52.0091 27.7588 51.9659 27.8994L52.5394 28.0756C52.5801 27.9433 52.6242 27.8114 52.6697 27.6754L52.1007 27.485ZM52.1006 27.4853L52.1006 27.4853L52.6698 27.675L52.6698 27.675L52.1006 27.4853ZM52.3277 26.734C52.2689 26.9817 52.1875 27.2257 52.1007 27.4849L52.6697 27.6753C52.755 27.4204 52.8454 27.1509 52.9115 26.8726L52.3277 26.734ZM52.2509 26.6325C52.2567 26.638 52.2672 26.6496 52.2795 26.6675C52.2914 26.685 52.3023 26.7043 52.3107 26.7231C52.3193 26.7424 52.3231 26.7561 52.3243 26.7626C52.3259 26.7709 52.3218 26.7584 52.328 26.7327L52.9112 26.8739C52.9484 26.7199 52.8994 26.5698 52.8585 26.4783C52.813 26.3766 52.7445 26.2738 52.6642 26.1975L52.2509 26.6325ZM51.4562 25.9339C51.7603 26.1926 52.0123 26.407 52.2516 26.6331L52.6636 26.1969C52.4109 25.9582 52.1466 25.7335 51.8449 25.4769L51.4562 25.9339ZM51.4493 25.9278L51.4493 25.9279L51.8518 25.4829L51.8517 25.4828L51.4493 25.9278ZM35.6209 30.9545L35.7751 31.0683L36.1313 30.5855L35.9771 30.4717L35.6209 30.9545ZM34.7825 33.8504C34.9312 32.7097 35.2624 31.9205 36.0383 30.894L35.5596 30.5322C34.7273 31.6334 34.3509 32.519 34.1875 33.7729L34.7825 33.8504ZM37.0709 36.3022C36.2231 36.3572 35.6112 36.1275 35.2359 35.7256C34.8604 35.3234 34.6719 34.6957 34.7825 33.8505L34.1875 33.7727C34.061 34.7395 34.2657 35.5657 34.7973 36.1351C35.3292 36.7046 36.1385 36.9639 37.1097 36.901L37.0709 36.3022ZM37.5849 36.2504C37.4111 36.2726 37.2399 36.2909 37.0702 36.3023L37.1104 36.9009C37.2957 36.8885 37.4795 36.8687 37.6608 36.8456L37.5849 36.2504ZM40.1265 33.3634C40.1766 34.1617 39.9363 34.8271 39.4975 35.3183C39.0568 35.8116 38.3989 36.1478 37.5853 36.2503L37.6603 36.8456C38.5955 36.7278 39.3939 36.3349 39.945 35.718C40.498 35.0989 40.7848 34.2728 40.7253 33.3258L40.1265 33.3634ZM39.7591 30.3839C39.913 31.3866 40.0641 32.3733 40.1265 33.3635L40.7253 33.3258C40.6609 32.3044 40.5053 31.2911 40.3522 30.2929L39.7591 30.3839ZM39.5375 28.8625C39.6039 29.372 39.6819 29.88 39.7591 30.3839L40.3522 30.2929C40.2747 29.7879 40.1979 29.2866 40.1325 28.785L39.5375 28.8625ZM39.6014 28.1255C39.5233 28.3615 39.5077 28.6279 39.5374 28.8616L40.1326 28.7859C40.1123 28.6265 40.1253 28.4521 40.171 28.3141L39.6014 28.1255ZM39.8329 27.5267C39.7542 27.7161 39.6704 27.9175 39.6015 28.1254L40.171 28.3141C40.2318 28.1308 40.3068 27.9499 40.387 27.757L39.8329 27.5267ZM40.0593 26.9379C39.997 27.1317 39.9178 27.3225 39.8329 27.5267L40.387 27.757C40.4702 27.5567 40.5593 27.343 40.6305 27.1215L40.0593 26.9379ZM40.0287 26.8315C40.0208 26.824 40.023 26.8235 40.03 26.837C40.0363 26.8492 40.043 26.8664 40.0483 26.8864C40.0535 26.9064 40.056 26.9244 40.0564 26.9377C40.057 26.9525 40.0548 26.9523 40.0583 26.9409L40.6314 27.1185C40.6729 26.9847 40.6565 26.8406 40.6287 26.7343C40.6008 26.6277 40.5445 26.4951 40.4443 26.3988L40.0287 26.8315ZM39.1806 26.0824C39.4824 26.3386 39.7639 26.5777 40.0289 26.8317L40.4441 26.3986C40.1638 26.1299 39.8683 25.8791 39.5689 25.625L39.1806 26.0824ZM38.8386 25.7904C38.9546 25.8905 39.0689 25.9876 39.1806 26.0824L39.5689 25.625C39.457 25.5299 39.3444 25.4343 39.2304 25.336L38.8386 25.7904ZM39.17 26.0584C39.2196 25.9317 39.2723 25.7973 39.3188 25.6588L38.7501 25.4677C38.709 25.5899 38.6618 25.7107 38.6113 25.8397L39.17 26.0584ZM39.0382 27.8607C38.761 27.1121 38.9483 26.6245 39.17 26.0584L38.6113 25.8397C38.3829 26.423 38.1155 27.0967 38.4756 28.069L39.0382 27.8607ZM39.782 31.5246C39.6295 30.3029 39.4723 29.0318 39.0382 27.8606L38.4756 28.0691C38.8813 29.1637 39.0325 30.3638 39.1866 31.5989L39.782 31.5246ZM39.7823 31.5268L39.7823 31.5267L39.1864 31.5968L39.1864 31.5969L39.7823 31.5268ZM39.7824 31.5275L39.7824 31.5274L39.1863 31.5962L39.1863 31.5963L39.7824 31.5275ZM39.9199 32.5764C39.87 32.2296 39.8263 31.8791 39.782 31.5247L39.1866 31.599C39.2308 31.9525 39.2752 32.3085 39.326 32.6619L39.9199 32.5764ZM38.4914 34.8023C39.0237 34.6456 39.4375 34.3889 39.689 33.9949C39.9402 33.6013 39.9982 33.1192 39.9199 32.5763L39.326 32.662C39.3919 33.1186 39.3313 33.4401 39.1832 33.6721C39.0353 33.9039 38.7689 34.0951 38.3219 34.2267L38.4914 34.8023ZM36.4614 35.0211C37.1328 35.0663 37.845 34.9925 38.4914 34.8023L38.322 34.2267C37.7461 34.3962 37.105 34.463 36.5017 34.4224L36.4614 35.0211ZM34.9798 33.1315C34.8848 33.6443 34.9573 34.1094 35.2348 34.4594C35.5114 34.8081 35.9473 34.9865 36.4614 35.0211L36.5017 34.4224C36.0962 34.3951 35.8441 34.262 35.7049 34.0865C35.5668 33.9123 35.4957 33.6406 35.5698 33.2409L34.9798 33.1315ZM35.4979 31.5332C35.2932 32.0502 35.0832 32.578 34.9799 33.1311L35.5697 33.2413C35.6605 32.755 35.8469 32.2816 36.0558 31.7541L35.4979 31.5332ZM35.7759 30.8048C35.6883 31.0522 35.5933 31.2921 35.4979 31.5332L36.0558 31.7541C36.1506 31.5145 36.2496 31.2645 36.3415 31.005L35.7759 30.8048ZM35.7753 31.0685C35.8312 31.1097 35.8682 31.137 35.8764 31.1432L36.2409 30.6666C36.2271 30.656 36.183 30.6236 36.1311 30.5854L35.7753 31.0685ZM42.7708 36.2202H44.2909V35.6202H42.7708V36.2202ZM42.4708 34.331V35.9202H43.0708V34.331H42.4708ZM44.2909 34.031H42.7708V34.631H44.2909V34.031ZM44.5909 35.9202V34.331H43.9909V35.9202H44.5909ZM31.9832 34.437V36.0071H32.5832V34.437H31.9832ZM30.75 34.737H32.2832V34.137H30.75V34.737ZM31.05 36.0071V34.437H30.45V36.0071H31.05ZM32.2832 35.7071H30.75V36.3071H32.2832V35.7071Z"/></g><defs><clipPath id="a"><rect width="36" height="36" fill="#fff" transform="translate(24 13)"/></clipPath></defs></svg>