<svg xmlns="http://www.w3.org/2000/svg" fill="none" viewBox="0 0 64 64"><path fill="#50D9D7" d="M29.8813 50.9469C26.1543 52.3403 22.1038 52.6259 18.2181 51.7693C14.3325 50.9127 10.7775 48.9504 7.98194 46.119C5.18634 43.2876 3.26941 39.708 2.46227 35.8118C1.65512 31.9156 1.99222 27.869 3.43291 24.1601C4.87361 20.4511 7.3564 17.238 10.5819 14.9082C13.8075 12.5784 17.6381 11.2314 21.6119 11.0295C25.5858 10.8276 29.5332 11.7795 32.9782 13.7704C36.4233 15.7613 39.2189 18.7061 41.0281 22.25C42.3499 24.8391 43.1094 27.6783 43.2569 30.5814C43.4044 33.4846 42.9365 36.3861 41.884 39.0958C40.8315 41.8055 39.218 44.2621 37.1495 46.3044C35.081 48.3468 32.6041 49.9289 29.8813 50.9469V50.9469Z"/><path fill="#93E6E5" d="M43.2781 32.5626C43.3156 31.9382 43.3156 31.3121 43.2781 30.6876H33.9031C33.8193 27.7902 33.2126 24.9318 32.1125 22.2501H41.0281C40.7042 21.6035 40.341 20.9774 39.9406 20.3751H31.2125C29.2556 16.7668 26.5286 13.6333 23.225 11.197C23.0611 11.0708 22.86 11.0024 22.6531 11.0024C22.4463 11.0024 22.2452 11.0708 22.0813 11.197C18.7751 13.6306 16.0476 16.7647 14.0938 20.3751H5.36563C4.96524 20.9774 4.60207 21.6035 4.27813 22.2501H13.2219C12.1121 24.93 11.4959 27.7885 11.4031 30.6876H2.02813C1.99062 31.3121 1.99062 31.9382 2.02813 32.5626H11.4031C11.487 35.46 12.0936 38.3184 13.1938 41.0001H4.27813C4.60207 41.6467 4.96524 42.2729 5.36563 42.8751H14.0938C16.0476 46.4856 18.7751 49.6197 22.0813 52.0533C22.2452 52.1794 22.4463 52.2479 22.6531 52.2479C22.86 52.2479 23.0611 52.1794 23.225 52.0533C26.5335 49.6222 29.2615 46.4875 31.2125 42.8751H39.9406C40.341 42.2729 40.7042 41.6467 41.0281 41.0001H32.0844C33.1942 38.3202 33.8103 35.4618 33.9031 32.5626H43.2781ZM22.6531 13.1283C25.2238 15.1229 27.3987 17.5808 29.0656 20.3751H16.2406C17.9116 17.5838 20.0859 15.1266 22.6531 13.1283V13.1283ZM22.6531 50.122C20.0859 48.1237 17.9116 45.6665 16.2406 42.8751H29.0656C27.3957 45.6673 25.2212 48.1246 22.6531 50.122V50.122ZM30.0313 41.0001H15.275C14.0563 38.3479 13.3775 35.4797 13.2781 32.5626H32.0281C31.9287 35.4797 31.2499 38.3479 30.0313 41.0001V41.0001ZM13.2781 30.6876C13.3687 27.7724 14.0379 24.9043 15.2469 22.2501H30.0313C31.2499 24.9023 31.9287 27.7705 32.0281 30.6876H13.2781Z"/><path fill="#00BEBD" d="M39.9406 20.375H31.2125C30.0623 18.2008 28.607 16.2024 26.8906 14.4406 27.8275 13.6477 28.8277 12.9328 29.8812 12.3031 34.0111 13.8492 37.5366 16.6782 39.9406 20.375V20.375zM39.9406 42.875C37.5366 46.5718 34.0111 49.4008 29.8812 50.9469 28.8277 50.3171 27.8275 49.6023 26.8906 48.8094 28.607 47.0475 30.0623 45.0492 31.2125 42.875H39.9406zM32.0281 32.5625C31.9376 35.4777 31.2684 38.3458 30.0594 41H20.9563C19.7261 38.349 19.0286 35.4823 18.9031 32.5625H32.0281zM32.0281 30.6875H18.9031C19.0227 27.769 19.7139 24.9023 20.9375 22.25H30.0125C31.2376 24.9009 31.9228 27.7691 32.0281 30.6875V30.6875zM29.0656 20.375H21.9219C22.9111 18.6639 24.1181 17.0882 25.5125 15.6875 26.8797 17.1026 28.0726 18.6763 29.0656 20.375V20.375zM29.0656 42.875C28.0726 44.5737 26.8797 46.1474 25.5125 47.5625 24.1181 46.1618 22.9111 44.5861 21.9219 42.875H29.0656z"/><path fill="#50D9D7" d="M33.9031 32.5625C33.8193 35.4599 33.2126 38.3183 32.1125 41H41.0281C40.7042 41.6466 40.341 42.2727 39.9406 42.875H31.2125C30.0623 45.0491 28.607 47.0475 26.8906 48.8094C26.4125 48.4062 25.9531 47.9844 25.5125 47.5344C26.8798 46.1193 28.0726 44.5456 29.0656 42.8469H21.9219C21.575 42.2375 21.2469 41.6187 20.9844 40.9719H30.0594C31.2647 38.3263 31.9339 35.4681 32.0281 32.5625H18.9031C18.9031 31.7375 18.9031 31.5125 18.9031 30.6875H32.0281C31.9376 27.7723 31.2684 24.9042 30.0594 22.25H20.9563C21.2469 21.6031 21.575 20.9844 21.8938 20.375H29.0375C28.0445 18.6762 26.8516 17.1025 25.4844 15.6875C25.925 15.2375 26.4219 14.8156 26.8625 14.4125C28.591 16.1811 30.056 18.1891 31.2125 20.375H39.9406C40.341 20.9772 40.7042 21.6034 41.0281 22.25H32.0844C33.1942 24.9299 33.8103 27.7884 33.9031 30.6875H43.2781C43.3156 31.3119 43.3156 31.938 43.2781 32.5625H33.9031Z"/><path fill="#EA9706" d="M41.4031 52.25C52.794 52.25 62.0281 43.0159 62.0281 31.625C62.0281 20.2341 52.794 11 41.4031 11C30.0123 11 20.7781 20.2341 20.7781 31.625C20.7781 43.0159 30.0123 52.25 41.4031 52.25Z"/><path fill="#FFAC00" d="M41.4031 48.5C50.7229 48.5 58.2781 40.9448 58.2781 31.625C58.2781 22.3052 50.7229 14.75 41.4031 14.75C32.0833 14.75 24.5281 22.3052 24.5281 31.625C24.5281 40.9448 32.0833 48.5 41.4031 48.5Z"/><g clip-path="url(#a)"><path fill="#fff" fill-rule="evenodd" d="M42.4352 28.4293C42.6326 26.3639 41.7306 24.7382 40.2555 23.4033C39.6877 22.8874 38.9952 23.116 38.7718 23.8639C38.6876 24.152 38.6877 24.4651 38.6878 24.7454C38.6879 24.8627 38.6879 24.9742 38.6818 25.0758C38.8582 25.1075 39.029 25.1219 39.1852 25.1351C39.4889 25.1606 39.7374 25.1815 39.8643 25.3164C40.5256 26.0211 41.1021 26.8088 41.6717 27.5931C41.7393 27.6849 41.5956 28.09 41.4744 28.1298C41.3222 28.1813 41.1702 28.2359 41.0179 28.2906C39.9363 28.6789 38.8445 29.0709 37.6517 28.3774C36.9938 29.8957 37.6188 30.8237 39.1302 30.6055C39.7593 30.5144 40.376 30.3155 40.9865 30.1187L40.9865 30.1187C41.0597 30.095 41.1329 30.0714 41.206 30.0481C41.9782 29.8005 42.3625 29.1945 42.4352 28.4293ZM49.0601 38.8044C49.1012 39.009 49.1423 39.2137 49.1838 39.4179L49.1935 39.4182L49.1936 39.4182C49.284 39.4216 49.3759 39.425 49.4677 39.43C49.4829 39.3085 49.507 39.1856 49.531 39.0627L49.531 39.0627L49.531 39.0626C49.5836 38.7935 49.6363 38.5244 49.5959 38.27C49.2756 36.2305 48.9276 34.1945 48.5501 32.1637C48.2576 30.5848 48.6229 30.0308 50.2486 29.7347C50.3967 29.7075 50.5478 29.6863 50.6991 29.6651C51.0958 29.6096 51.4932 29.5539 51.8379 29.3885C52.1807 29.224 52.5616 28.8015 52.6204 28.4432C52.842 27.0979 50.742 25.5 49.4608 25.9743C48.4584 26.3448 48.0723 27.4234 48.6194 28.3047L49.0092 28.1485C49.2264 28.0613 49.444 27.974 49.6616 27.8874C49.6028 28.1627 49.4747 28.2752 49.324 28.3324C48.2887 28.7254 47.7815 29.4854 47.7451 30.5744C47.7395 30.7276 47.7289 30.882 47.7183 31.0366C47.6891 31.4604 47.6599 31.8855 47.7347 32.2901C47.9952 33.7039 48.2911 35.1116 48.587 36.5187C48.7042 37.0759 48.8213 37.633 48.9362 38.1904C48.9778 38.3948 49.0189 38.5996 49.0601 38.8044ZM45.0011 34.3209C44.3779 34.3019 43.8637 33.7513 43.8948 33.1384C43.926 32.5238 44.4973 31.9958 45.0929 32.0322C45.6954 32.0685 46.2373 32.652 46.2079 33.2319C46.1802 33.8431 45.6261 34.3417 45.0011 34.3209ZM33.0168 34.3313C33.647 34.3278 34.156 33.7963 34.1404 33.1592C34.1231 32.5394 33.5553 31.9664 32.9597 32.0408C32.3208 32.1204 31.9036 32.4892 31.8759 33.1731C31.8499 33.805 32.3866 34.3348 33.0168 34.3313Z" clip-rule="evenodd"/><path fill="#fff" d="M40.2555 23.4033L40.0538 23.6254L40.0542 23.6258L40.2555 23.4033ZM42.4352 28.4293L42.1366 28.4008L42.1366 28.4009L42.4352 28.4293ZM38.7718 23.8639L38.4844 23.778L38.4839 23.7797L38.7718 23.8639ZM38.6878 24.7454L38.9878 24.7453L38.9878 24.7453L38.6878 24.7454ZM38.6818 25.0758L38.3823 25.0577L38.3663 25.3238L38.6286 25.371L38.6818 25.0758ZM39.1852 25.1351L39.1601 25.434L39.1601 25.434L39.1852 25.1351ZM39.8643 25.3164L40.083 25.1111L40.0828 25.1109L39.8643 25.3164ZM41.6717 27.5931L41.429 27.7694L41.4301 27.7709L41.6717 27.5931ZM41.4744 28.1298L41.3807 27.8448L41.3782 27.8456L41.4744 28.1298ZM41.0179 28.2906L41.1193 28.5729L41.1193 28.5729L41.0179 28.2906ZM37.6517 28.3774L37.8025 28.118L37.5106 27.9483L37.3764 28.2581L37.6517 28.3774ZM39.1302 30.6055L39.173 30.9025L39.1732 30.9024L39.1302 30.6055ZM40.9865 30.1187L41.0785 30.4042L41.0813 30.4033L40.9865 30.1187ZM40.9865 30.1187L40.8944 29.8331L40.8916 29.8341L40.9865 30.1187ZM41.206 30.0481L41.2974 30.3338L41.2976 30.3337L41.206 30.0481ZM49.1838 39.4179L48.8898 39.4777L48.9369 39.7089L49.1727 39.7177L49.1838 39.4179ZM49.0601 38.8044L48.7659 38.8635L48.7659 38.8635L49.0601 38.8044ZM49.1935 39.4182L49.2135 39.1188L49.2046 39.1184L49.1935 39.4182ZM49.1936 39.4182L49.1737 39.7177L49.1825 39.718L49.1936 39.4182ZM49.4677 39.43L49.4514 39.7295L49.7307 39.7448L49.7654 39.4672L49.4677 39.43ZM49.531 39.0627L49.2368 39.0039L49.2366 39.0051L49.531 39.0627ZM49.531 39.0626L49.8252 39.1215L49.8254 39.1202L49.531 39.0626ZM49.5959 38.27L49.2995 38.3166L49.2996 38.3171L49.5959 38.27ZM48.5501 32.1637L48.2552 32.2184L48.2552 32.2185L48.5501 32.1637ZM50.2486 29.7347L50.3023 30.0299L50.3028 30.0298L50.2486 29.7347ZM50.6991 29.6651L50.6575 29.368L50.6575 29.368L50.6991 29.6651ZM51.8379 29.3885L51.7081 29.118L51.7081 29.118L51.8379 29.3885ZM52.6204 28.4432L52.3244 28.3944L52.3244 28.3945L52.6204 28.4432ZM49.4608 25.9743L49.5648 26.2557L49.565 26.2557L49.4608 25.9743ZM48.6194 28.3047L48.3645 28.4629L48.4973 28.6768L48.731 28.5831L48.6194 28.3047ZM49.0092 28.1485L49.1208 28.4269L49.1209 28.4269L49.0092 28.1485ZM49.6616 27.8874L49.955 27.9502L50.0724 27.401L49.5507 27.6087L49.6616 27.8874ZM49.324 28.3324L49.2176 28.0519L49.2176 28.0519L49.324 28.3324ZM47.7451 30.5744L48.0449 30.5853L48.0449 30.5844L47.7451 30.5744ZM47.7183 31.0366L48.0176 31.0572L48.0176 31.0572L47.7183 31.0366ZM47.7347 32.2901L48.0297 32.2358L48.0297 32.2355L47.7347 32.2901ZM48.587 36.5187L48.2934 36.5804L48.2934 36.5804L48.587 36.5187ZM48.9362 38.1904L49.2302 38.1306L49.2301 38.1298L48.9362 38.1904ZM43.8948 33.1384L44.1945 33.1537L44.1945 33.1536L43.8948 33.1384ZM45.0011 34.3209L45.0111 34.0211L45.0103 34.0211L45.0011 34.3209ZM45.0929 32.0322L45.0746 32.3316L45.0748 32.3316L45.0929 32.0322ZM46.2079 33.2319L45.9082 33.2167L45.9082 33.2184L46.2079 33.2319ZM34.1404 33.1592L34.4404 33.1519L34.4403 33.1508L34.1404 33.1592ZM33.0168 34.3313L33.0152 34.0313L33.0168 34.3313ZM32.9597 32.0408L32.9968 32.3385L32.9969 32.3385L32.9597 32.0408ZM31.8759 33.1731L32.1757 33.1854L32.1757 33.1852L31.8759 33.1731ZM40.0542 23.6258C41.4816 24.9174 42.3224 26.4563 42.1366 28.4008L42.7339 28.4578C42.9428 26.2714 41.9796 24.5589 40.4568 23.1809L40.0542 23.6258ZM39.0593 23.9497C39.1495 23.6476 39.3188 23.4951 39.475 23.4457C39.6264 23.3978 39.8332 23.4249 40.0538 23.6254L40.4573 23.1813C40.1101 22.8658 39.6867 22.7493 39.2939 22.8737C38.9061 22.9965 38.6175 23.3322 38.4844 23.778L39.0593 23.9497ZM38.9878 24.7453C38.9877 24.4571 38.9896 24.1879 39.0598 23.9481L38.4839 23.7797C38.3855 24.1161 38.3877 24.473 38.3878 24.7456L38.9878 24.7453ZM38.9812 25.0938C38.988 24.9814 38.9879 24.8603 38.9878 24.7453L38.3878 24.7456C38.3879 24.8651 38.3878 24.967 38.3823 25.0577L38.9812 25.0938ZM39.2104 24.8361C39.0526 24.8228 38.8954 24.8094 38.7349 24.7805L38.6286 25.371C38.821 25.4057 39.0055 25.421 39.1601 25.434L39.2104 24.8361ZM40.0828 25.1109C39.9578 24.978 39.7931 24.9218 39.655 24.8916C39.5158 24.8613 39.3563 24.8484 39.2104 24.8361L39.1601 25.434C39.3179 25.4473 39.4344 25.4576 39.5271 25.4779C39.6209 25.4983 39.6438 25.5199 39.6457 25.522L40.0828 25.1109ZM41.9145 27.4168C41.3462 26.6343 40.7592 25.8316 40.083 25.1111L39.6455 25.5217C40.292 26.2106 40.8581 26.9833 41.429 27.7694L41.9145 27.4168ZM41.568 28.4148C41.643 28.3902 41.697 28.346 41.7303 28.3135C41.7656 28.2789 41.7943 28.2409 41.8169 28.2063C41.862 28.1373 41.8988 28.0579 41.9259 27.9831C41.953 27.9083 41.9753 27.8245 41.9845 27.744C41.9891 27.704 41.9914 27.6562 41.9856 27.6065C41.9804 27.5611 41.9654 27.486 41.9134 27.4153L41.4301 27.7709C41.4115 27.7456 41.4018 27.7223 41.3969 27.7072C41.3919 27.692 41.3902 27.6806 41.3896 27.6752C41.3885 27.6654 41.3897 27.6647 41.3884 27.6761C41.3858 27.6986 41.3773 27.7358 41.3617 27.7788C41.3462 27.8216 41.3285 27.8568 41.3148 27.8778C41.308 27.8882 41.306 27.8891 41.3106 27.8847C41.3132 27.8821 41.3195 27.8763 41.3298 27.8693C41.34 27.8624 41.357 27.8526 41.3807 27.8448L41.568 28.4148ZM41.1193 28.5729C41.272 28.5181 41.4215 28.4644 41.5706 28.414L41.3782 27.8456C41.223 27.8982 41.0684 27.9537 40.9165 28.0082L41.1193 28.5729ZM37.5009 28.6367C38.8293 29.4091 40.0534 28.9556 41.1193 28.5729L40.9165 28.0082C39.8192 28.4022 38.8598 28.7328 37.8025 28.118L37.5009 28.6367ZM39.0873 30.3086C38.3836 30.4102 37.997 30.2312 37.8271 29.9763C37.6483 29.708 37.6135 29.2201 37.9269 28.4966L37.3764 28.2581C37.032 29.053 36.9807 29.7882 37.3278 30.309C37.6838 30.8431 38.3653 31.019 39.173 30.9025L39.0873 30.3086ZM40.8944 29.8331C40.2796 30.0314 39.687 30.2217 39.0872 30.3087L39.1732 30.9024C39.8316 30.807 40.4725 30.5996 41.0785 30.4042L40.8944 29.8331ZM40.8916 29.8341L40.8916 29.8341L41.0813 30.4033L41.0813 30.4033L40.8916 29.8341ZM41.1146 29.7623C41.0411 29.7858 40.9676 29.8095 40.8944 29.8331L41.0785 30.4042C41.1519 30.3806 41.2247 30.3571 41.2974 30.3338L41.1146 29.7623ZM42.1366 28.4009C42.0729 29.0715 41.7503 29.5585 41.1144 29.7624L41.2976 30.3337C42.206 30.0425 42.6522 29.3176 42.7339 28.4577L42.1366 28.4009ZM49.4778 39.3581C49.4363 39.1543 49.3953 38.95 49.3542 38.7453L48.7659 38.8635C48.807 39.068 48.8482 39.273 48.8898 39.4777L49.4778 39.3581ZM49.2046 39.1184L49.1949 39.1181L49.1727 39.7177L49.1824 39.718L49.2046 39.1184ZM49.2136 39.1189L49.2135 39.1189L49.1736 39.7176L49.1737 39.7176L49.2136 39.1189ZM49.4841 39.1304C49.3891 39.1253 49.2946 39.1218 49.2047 39.1184L49.1825 39.718C49.2733 39.7214 49.3626 39.7247 49.4514 39.7295L49.4841 39.1304ZM49.2366 39.0051C49.2129 39.1261 49.1867 39.2592 49.1701 39.3928L49.7654 39.4672C49.7791 39.3577 49.801 39.245 49.8254 39.1203L49.2366 39.0051ZM49.2368 39.0038L49.2368 39.0039L49.8252 39.1215L49.8252 39.1215L49.2368 39.0038ZM49.2368 39.0038L49.2368 39.0038L49.8252 39.1215L49.8252 39.1215L49.2368 39.0038ZM49.2996 38.3171C49.3301 38.5094 49.2916 38.724 49.2366 39.0051L49.8254 39.1202C49.8757 38.8629 49.9424 38.5394 49.8921 38.2229L49.2996 38.3171ZM48.2552 32.2185C48.6321 34.2465 48.9796 36.2798 49.2995 38.3166L49.8922 38.2235C49.5715 36.1813 49.2231 34.1426 48.8451 32.1089L48.2552 32.2185ZM50.1948 29.4396C49.3752 29.5888 48.7656 29.817 48.4333 30.2975C48.1005 30.7784 48.1077 31.4225 48.2552 32.2184L48.8451 32.1091C48.7 31.326 48.7435 30.9036 48.9267 30.6388C49.1103 30.3735 49.4962 30.1767 50.3023 30.0299L50.1948 29.4396ZM50.6575 29.368C50.5074 29.3891 50.3498 29.4111 50.1943 29.4397L50.3028 30.0298C50.4436 30.0039 50.5883 29.9836 50.7407 29.9622L50.6575 29.368ZM51.7081 29.118C51.4129 29.2597 51.0641 29.3111 50.6575 29.368L50.7407 29.9622C51.1276 29.908 51.5734 29.8482 51.9677 29.6589L51.7081 29.118ZM52.3244 28.3945C52.3072 28.4993 52.2338 28.6453 52.1071 28.7941C51.983 28.9401 51.8341 29.0575 51.7081 29.118L51.9677 29.6589C52.1844 29.5549 52.3975 29.3789 52.5641 29.1829C52.7284 28.9898 52.8748 28.7454 52.9165 28.4918L52.3244 28.3945ZM49.565 26.2557C50.0627 26.0714 50.7971 26.2816 51.4207 26.7637C52.0465 27.2477 52.4082 27.8858 52.3244 28.3944L52.9164 28.4919C53.0543 27.6553 52.4767 26.8218 51.7877 26.2891C51.0963 25.7545 50.1401 25.4029 49.3566 25.693L49.565 26.2557ZM48.8743 28.1464C48.4323 27.4345 48.7315 26.5637 49.5648 26.2557L49.3568 25.6929C48.1853 26.1259 47.7123 27.4124 48.3645 28.4629L48.8743 28.1464ZM48.8976 27.87L48.5078 28.0262L48.731 28.5831L49.1208 28.4269L48.8976 27.87ZM49.5507 27.6087C49.3326 27.6955 49.1146 27.7829 48.8975 27.87L49.1209 28.4269C49.3381 28.3397 49.5554 28.2526 49.7726 28.1662L49.5507 27.6087ZM49.4304 28.6129C49.5426 28.5703 49.6593 28.5016 49.7575 28.384C49.8542 28.2682 49.918 28.123 49.955 27.9502L49.3683 27.8247C49.3464 27.9271 49.3167 27.9758 49.297 27.9994C49.2788 28.0212 49.2561 28.0373 49.2176 28.0519L49.4304 28.6129ZM48.0449 30.5844C48.0616 30.0845 48.1853 29.6816 48.4063 29.3636C48.6267 29.0464 48.9591 28.7918 49.4305 28.6128L49.2176 28.0519C48.6537 28.2659 48.2147 28.5878 47.9136 29.0212C47.613 29.4537 47.4649 29.9753 47.4453 30.5644L48.0449 30.5844ZM48.0176 31.0572C48.0281 30.9035 48.0391 30.7441 48.0449 30.5853L47.4453 30.5635C47.4399 30.711 47.4297 30.8606 47.419 31.016L48.0176 31.0572ZM48.0297 32.2355C47.963 31.8748 47.9879 31.4885 48.0176 31.0572L47.419 31.016C47.3903 31.4322 47.3568 31.8962 47.4397 32.3447L48.0297 32.2355ZM48.8806 36.457C48.5846 35.0492 48.2894 33.6453 48.0297 32.2358L47.4397 32.3445C47.7009 33.7626 47.9977 35.1739 48.2934 36.5804L48.8806 36.457ZM49.2301 38.1298C49.115 37.5717 48.9977 37.014 48.8806 36.457L48.2934 36.5804C48.4106 37.1377 48.5276 37.6942 48.6424 38.251L49.2301 38.1298ZM49.3542 38.7453C49.3131 38.5406 49.2719 38.3354 49.2302 38.1306L48.6422 38.2502C48.6837 38.4541 48.7248 38.6586 48.7659 38.8635L49.3542 38.7453ZM43.5952 33.1232C43.5553 33.908 44.2048 34.5967 44.992 34.6208L45.0103 34.0211C44.5509 34.007 44.172 33.5947 44.1945 33.1537L43.5952 33.1232ZM45.1112 31.7327C44.3399 31.6856 43.6344 32.3512 43.5952 33.1233L44.1945 33.1536C44.2176 32.6965 44.6547 32.306 45.0746 32.3316L45.1112 31.7327ZM46.5075 33.2471C46.5271 32.8597 46.357 32.4929 46.1071 32.224C45.8568 31.9545 45.5017 31.7563 45.111 31.7327L45.0748 32.3316C45.2865 32.3444 45.5037 32.456 45.6676 32.6324C45.8319 32.8093 45.918 33.0242 45.9082 33.2167L46.5075 33.2471ZM44.9912 34.6208C45.7733 34.6468 46.4721 34.0277 46.5075 33.2455L45.9082 33.2184C45.8882 33.6585 45.4789 34.0366 45.0111 34.0211L44.9912 34.6208ZM33.8405 33.1666C33.8521 33.6394 33.4739 34.0288 33.0152 34.0313L33.0185 34.6313C33.8202 34.6269 34.46 33.9533 34.4404 33.1519L33.8405 33.1666ZM32.9969 32.3385C33.1853 32.3149 33.3897 32.3922 33.5583 32.5553C33.727 32.7185 33.8343 32.9446 33.8406 33.1676L34.4403 33.1508C34.4292 32.754 34.2439 32.3837 33.9755 32.124C33.707 31.8643 33.3296 31.6922 32.9225 31.7431L32.9969 32.3385ZM32.1757 33.1852C32.187 32.9047 32.2755 32.7177 32.4008 32.5925C32.5291 32.4642 32.7243 32.3725 32.9968 32.3385L32.9226 31.7431C32.5562 31.7888 32.2234 31.9213 31.9765 32.1682C31.7265 32.4182 31.5925 32.7576 31.5762 33.1609L32.1757 33.1852ZM33.0152 34.0313C32.5476 34.0339 32.1571 33.6378 32.1757 33.1854L31.5762 33.1607C31.5428 33.9721 32.2257 34.6357 33.0185 34.6313L33.0152 34.0313Z"/></g><defs><clipPath id="a"><rect width="36" height="36" fill="#fff" transform="translate(24 13)"/></clipPath></defs></svg>