<svg xmlns="http://www.w3.org/2000/svg" fill="none" viewBox="0 0 64 64"><path fill="#50D9D7" d="M29.8813 50.9469C26.1543 52.3403 22.1038 52.6259 18.2181 51.7693C14.3325 50.9127 10.7775 48.9504 7.98194 46.119C5.18634 43.2876 3.26941 39.708 2.46227 35.8118C1.65512 31.9156 1.99222 27.869 3.43291 24.1601C4.87361 20.4511 7.3564 17.238 10.5819 14.9082C13.8075 12.5784 17.6381 11.2314 21.6119 11.0295C25.5858 10.8276 29.5332 11.7795 32.9782 13.7704C36.4233 15.7613 39.2189 18.7061 41.0281 22.25C42.3499 24.8391 43.1094 27.6783 43.2569 30.5814C43.4044 33.4846 42.9365 36.3861 41.884 39.0958C40.8315 41.8055 39.218 44.2621 37.1495 46.3044C35.081 48.3468 32.6041 49.9289 29.8813 50.9469V50.9469Z"/><path fill="#93E6E5" d="M43.2781 32.5626C43.3156 31.9382 43.3156 31.3121 43.2781 30.6876H33.9031C33.8193 27.7902 33.2126 24.9318 32.1125 22.2501H41.0281C40.7042 21.6035 40.341 20.9774 39.9406 20.3751H31.2125C29.2556 16.7668 26.5286 13.6333 23.225 11.197C23.0611 11.0708 22.86 11.0024 22.6531 11.0024C22.4463 11.0024 22.2452 11.0708 22.0813 11.197C18.7751 13.6306 16.0476 16.7647 14.0938 20.3751H5.36563C4.96524 20.9774 4.60207 21.6035 4.27813 22.2501H13.2219C12.1121 24.93 11.4959 27.7885 11.4031 30.6876H2.02813C1.99062 31.3121 1.99062 31.9382 2.02813 32.5626H11.4031C11.487 35.46 12.0936 38.3184 13.1938 41.0001H4.27813C4.60207 41.6467 4.96524 42.2729 5.36563 42.8751H14.0938C16.0476 46.4856 18.7751 49.6197 22.0813 52.0533C22.2452 52.1794 22.4463 52.2479 22.6531 52.2479C22.86 52.2479 23.0611 52.1794 23.225 52.0533C26.5335 49.6222 29.2615 46.4875 31.2125 42.8751H39.9406C40.341 42.2729 40.7042 41.6467 41.0281 41.0001H32.0844C33.1942 38.3202 33.8103 35.4618 33.9031 32.5626H43.2781ZM22.6531 13.1283C25.2238 15.1229 27.3987 17.5808 29.0656 20.3751H16.2406C17.9116 17.5838 20.0859 15.1266 22.6531 13.1283V13.1283ZM22.6531 50.122C20.0859 48.1237 17.9116 45.6665 16.2406 42.8751H29.0656C27.3957 45.6673 25.2212 48.1246 22.6531 50.122V50.122ZM30.0313 41.0001H15.275C14.0563 38.3479 13.3775 35.4797 13.2781 32.5626H32.0281C31.9287 35.4797 31.2499 38.3479 30.0313 41.0001V41.0001ZM13.2781 30.6876C13.3687 27.7724 14.0379 24.9043 15.2469 22.2501H30.0313C31.2499 24.9023 31.9287 27.7705 32.0281 30.6876H13.2781Z"/><path fill="#00BEBD" d="M39.9406 20.375H31.2125C30.0623 18.2008 28.607 16.2024 26.8906 14.4406 27.8275 13.6477 28.8277 12.9328 29.8812 12.3031 34.0111 13.8492 37.5366 16.6782 39.9406 20.375V20.375zM39.9406 42.875C37.5366 46.5718 34.0111 49.4008 29.8812 50.9469 28.8277 50.3171 27.8275 49.6023 26.8906 48.8094 28.607 47.0475 30.0623 45.0492 31.2125 42.875H39.9406zM32.0281 32.5625C31.9376 35.4777 31.2684 38.3458 30.0594 41H20.9563C19.7261 38.349 19.0286 35.4823 18.9031 32.5625H32.0281zM32.0281 30.6875H18.9031C19.0227 27.769 19.7139 24.9023 20.9375 22.25H30.0125C31.2376 24.9009 31.9228 27.7691 32.0281 30.6875V30.6875zM29.0656 20.375H21.9219C22.9111 18.6639 24.1181 17.0882 25.5125 15.6875 26.8797 17.1026 28.0726 18.6763 29.0656 20.375V20.375zM29.0656 42.875C28.0726 44.5737 26.8797 46.1474 25.5125 47.5625 24.1181 46.1618 22.9111 44.5861 21.9219 42.875H29.0656z"/><path fill="#50D9D7" d="M33.9031 32.5625C33.8193 35.4599 33.2126 38.3183 32.1125 41H41.0281C40.7042 41.6466 40.341 42.2727 39.9406 42.875H31.2125C30.0623 45.0491 28.607 47.0475 26.8906 48.8094C26.4125 48.4062 25.9531 47.9844 25.5125 47.5344C26.8798 46.1193 28.0726 44.5456 29.0656 42.8469H21.9219C21.575 42.2375 21.2469 41.6187 20.9844 40.9719H30.0594C31.2647 38.3263 31.9339 35.4681 32.0281 32.5625H18.9031C18.9031 31.7375 18.9031 31.5125 18.9031 30.6875H32.0281C31.9376 27.7723 31.2684 24.9042 30.0594 22.25H20.9563C21.2469 21.6031 21.575 20.9844 21.8938 20.375H29.0375C28.0445 18.6762 26.8516 17.1025 25.4844 15.6875C25.925 15.2375 26.4219 14.8156 26.8625 14.4125C28.591 16.1811 30.056 18.1891 31.2125 20.375H39.9406C40.341 20.9772 40.7042 21.6034 41.0281 22.25H32.0844C33.1942 24.9299 33.8103 27.7884 33.9031 30.6875H43.2781C43.3156 31.3119 43.3156 31.938 43.2781 32.5625H33.9031Z"/><path fill="#EA9706" d="M41.4031 52.25C52.794 52.25 62.0281 43.0159 62.0281 31.625C62.0281 20.2341 52.794 11 41.4031 11C30.0123 11 20.7781 20.2341 20.7781 31.625C20.7781 43.0159 30.0123 52.25 41.4031 52.25Z"/><path fill="#FFAC00" d="M41.4031 48.5C50.7229 48.5 58.2781 40.9448 58.2781 31.625C58.2781 22.3052 50.7229 14.75 41.4031 14.75C32.0833 14.75 24.5281 22.3052 24.5281 31.625C24.5281 40.9448 32.0833 48.5 41.4031 48.5Z"/><g clip-path="url(#a)"><g clip-path="url(#b)"><path fill="#fff" d="M40.1433 23.125C40.3415 23.1933 40.4128 23.3337 40.4107 23.5353C40.4048 24.1389 40.4086 24.7428 40.4086 25.3696C40.673 25.2908 40.9226 25.2176 41.1719 25.1421C42.2402 24.818 43.3099 24.4995 44.3749 24.1651C44.6638 24.0744 44.8927 24.2592 44.8809 24.5333C44.8632 24.9384 44.8771 25.3449 44.8762 25.7509C44.8753 26.0252 44.8197 26.0923 44.5541 26.1728C43.1753 26.5904 41.7972 27.0095 40.4166 27.4285C40.4166 27.7522 40.4166 28.0736 40.4166 28.4081C40.8031 28.2899 41.179 28.1742 41.5555 28.0603C42.4969 27.7755 43.4383 27.4898 44.3805 27.2079C44.6872 27.1161 44.8723 27.2483 44.8753 27.5607C44.8791 27.9859 44.878 28.4113 44.8756 28.8368C44.8744 29.0474 44.8188 29.1271 44.6041 29.1933C43.7234 29.4645 42.8411 29.7309 41.9592 29.9983C41.4751 30.145 40.9898 30.2886 40.5068 30.4397C40.4663 30.4525 40.4131 30.5132 40.4131 30.5519C40.4089 32.2194 40.4101 33.8865 40.4113 35.554C40.4113 35.563 40.4169 35.5717 40.4284 35.6069C40.663 35.572 40.9046 35.5464 41.1415 35.4994C42.1234 35.3038 42.9591 34.8455 43.674 34.1562C44.3024 33.55 44.7579 32.8441 45.014 32.0188C45.156 31.5611 45.2169 31.088 45.2249 30.6091C45.2293 30.3412 45.3544 30.2093 45.6306 30.2072C46.1574 30.2035 46.6841 30.2032 47.2108 30.2072C47.5208 30.2096 47.6287 30.3424 47.626 30.6504C47.6201 31.4109 47.503 32.1537 47.2573 32.8738C46.8781 33.9862 46.2689 34.9629 45.4227 35.7938C44.4669 36.7321 43.3339 37.3752 42.0329 37.7274C41.3872 37.9024 40.7242 37.9712 40.0549 37.9738C39.5184 37.9759 38.9816 37.9744 38.4451 37.9741C38.1222 37.9741 38.0107 37.8666 38.0107 37.5504C38.0101 35.5011 38.0104 33.4521 38.0104 31.4028C38.0104 31.3417 38.0104 31.2804 38.0104 31.1953C37.7277 31.279 37.4677 31.3545 37.2083 31.4327C36.7277 31.5774 36.248 31.7245 35.7674 31.8686C35.4676 31.9587 35.2632 31.825 35.257 31.5216C35.2484 31.1014 35.2502 30.6806 35.2561 30.2601C35.2593 30.0149 35.333 29.9355 35.5938 29.8574C36.3595 29.6275 37.1246 29.3956 37.8918 29.1715C37.9882 29.1433 38.0136 29.1035 38.0122 29.0123C38.0071 28.7374 38.0104 28.4622 38.0104 28.1605C37.8288 28.2134 37.6635 28.2614 37.4985 28.3102C36.9005 28.4878 36.3036 28.6697 35.7039 28.8414C35.4637 28.91 35.273 28.7818 35.2656 28.5389C35.252 28.085 35.2555 27.6308 35.2582 27.1766C35.2593 26.9868 35.3762 26.8862 35.5554 26.8331C36.3261 26.6052 37.0945 26.3701 37.8658 26.1455C37.9817 26.1118 38.0142 26.0633 38.0134 25.947C38.0077 25.1496 38.0145 24.3522 38.0074 23.5548C38.006 23.3557 38.0648 23.2099 38.2526 23.125C38.8829 23.125 39.5131 23.125 40.1433 23.125Z"/></g></g><defs><clipPath id="a"><rect width="36" height="36" fill="#fff" transform="translate(24 13)"/></clipPath><clipPath id="b"><rect width="12.375" height="14.85" fill="#fff" transform="translate(35.25 23.125)"/></clipPath></defs></svg>