<svg xmlns="http://www.w3.org/2000/svg" fill="none" viewBox="0 0 64 64"><path fill="#50D9D7" d="M29.8813 50.9469C26.1543 52.3403 22.1038 52.6259 18.2181 51.7693C14.3325 50.9127 10.7775 48.9504 7.98194 46.119C5.18634 43.2876 3.26941 39.708 2.46227 35.8118C1.65512 31.9156 1.99222 27.869 3.43291 24.1601C4.87361 20.4511 7.3564 17.238 10.5819 14.9082C13.8075 12.5784 17.6381 11.2314 21.6119 11.0295C25.5858 10.8276 29.5332 11.7795 32.9782 13.7704C36.4233 15.7613 39.2189 18.7061 41.0281 22.25C42.3499 24.8391 43.1094 27.6783 43.2569 30.5814C43.4044 33.4846 42.9365 36.3861 41.884 39.0958C40.8315 41.8055 39.218 44.2621 37.1495 46.3044C35.081 48.3468 32.6041 49.9289 29.8813 50.9469V50.9469Z"/><path fill="#93E6E5" d="M43.2781 32.5626C43.3156 31.9382 43.3156 31.3121 43.2781 30.6876H33.9031C33.8193 27.7902 33.2126 24.9318 32.1125 22.2501H41.0281C40.7042 21.6035 40.341 20.9774 39.9406 20.3751H31.2125C29.2556 16.7668 26.5286 13.6333 23.225 11.197C23.0611 11.0708 22.86 11.0024 22.6531 11.0024C22.4463 11.0024 22.2452 11.0708 22.0813 11.197C18.7751 13.6306 16.0476 16.7647 14.0938 20.3751H5.36563C4.96524 20.9774 4.60207 21.6035 4.27813 22.2501H13.2219C12.1121 24.93 11.4959 27.7885 11.4031 30.6876H2.02813C1.99062 31.3121 1.99062 31.9382 2.02813 32.5626H11.4031C11.487 35.46 12.0936 38.3184 13.1938 41.0001H4.27813C4.60207 41.6467 4.96524 42.2729 5.36563 42.8751H14.0938C16.0476 46.4856 18.7751 49.6197 22.0813 52.0533C22.2452 52.1794 22.4463 52.2479 22.6531 52.2479C22.86 52.2479 23.0611 52.1794 23.225 52.0533C26.5335 49.6222 29.2615 46.4875 31.2125 42.8751H39.9406C40.341 42.2729 40.7042 41.6467 41.0281 41.0001H32.0844C33.1942 38.3202 33.8103 35.4618 33.9031 32.5626H43.2781ZM22.6531 13.1283C25.2238 15.1229 27.3987 17.5808 29.0656 20.3751H16.2406C17.9116 17.5838 20.0859 15.1266 22.6531 13.1283V13.1283ZM22.6531 50.122C20.0859 48.1237 17.9116 45.6665 16.2406 42.8751H29.0656C27.3957 45.6673 25.2212 48.1246 22.6531 50.122V50.122ZM30.0313 41.0001H15.275C14.0563 38.3479 13.3775 35.4797 13.2781 32.5626H32.0281C31.9287 35.4797 31.2499 38.3479 30.0313 41.0001V41.0001ZM13.2781 30.6876C13.3687 27.7724 14.0379 24.9043 15.2469 22.2501H30.0313C31.2499 24.9023 31.9287 27.7705 32.0281 30.6876H13.2781Z"/><path fill="#00BEBD" d="M39.9406 20.375H31.2125C30.0623 18.2008 28.607 16.2024 26.8906 14.4406 27.8275 13.6477 28.8277 12.9328 29.8812 12.3031 34.0111 13.8492 37.5366 16.6782 39.9406 20.375V20.375zM39.9406 42.875C37.5366 46.5718 34.0111 49.4008 29.8812 50.9469 28.8277 50.3171 27.8275 49.6023 26.8906 48.8094 28.607 47.0475 30.0623 45.0492 31.2125 42.875H39.9406zM32.0281 32.5625C31.9375 35.4777 31.2683 38.3458 30.0593 41H20.9562C19.7261 38.349 19.0285 35.4823 18.9031 32.5625H32.0281zM32.0281 30.6875H18.9031C19.0226 27.769 19.7138 24.9023 20.9375 22.25H30.0125C31.2376 24.9009 31.9228 27.7691 32.0281 30.6875V30.6875zM29.0656 20.375H21.9219C22.9111 18.6639 24.1181 17.0882 25.5125 15.6875 26.8797 17.1026 28.0726 18.6763 29.0656 20.375V20.375zM29.0656 42.875C28.0726 44.5737 26.8797 46.1474 25.5125 47.5625 24.1181 46.1618 22.9111 44.5861 21.9219 42.875H29.0656z"/><path fill="#50D9D7" d="M33.9031 32.5625C33.8192 35.4599 33.2126 38.3183 32.1125 41H41.0281C40.7041 41.6466 40.341 42.2727 39.9406 42.875H31.2125C30.0623 45.0491 28.6069 47.0475 26.8906 48.8094C26.4125 48.4062 25.9531 47.9844 25.5125 47.5344C26.8797 46.1193 28.0726 44.5456 29.0656 42.8469H21.9218C21.575 42.2375 21.2468 41.6187 20.9843 40.9719H30.0593C31.2647 38.3263 31.9338 35.4681 32.0281 32.5625H18.9031C18.9031 31.7375 18.9031 31.5125 18.9031 30.6875H32.0281C31.9375 27.7723 31.2683 24.9042 30.0593 22.25H20.9562C21.2468 21.6031 21.575 20.9844 21.8937 20.375H29.0375C28.0444 18.6762 26.8516 17.1025 25.4843 15.6875C25.925 15.2375 26.4218 14.8156 26.8625 14.4125C28.5909 16.1811 30.0559 18.1891 31.2125 20.375H39.9406C40.341 20.9772 40.7041 21.6034 41.0281 22.25H32.0843C33.1941 24.9299 33.8103 27.7884 33.9031 30.6875H43.2781C43.3156 31.3119 43.3156 31.938 43.2781 32.5625H33.9031Z"/><path fill="#EA9706" d="M41.4031 52.25C52.7939 52.25 62.0281 43.0159 62.0281 31.625C62.0281 20.2341 52.7939 11 41.4031 11C30.0122 11 20.7781 20.2341 20.7781 31.625C20.7781 43.0159 30.0122 52.25 41.4031 52.25Z"/><path fill="#FFAC00" d="M41.4031 48.5C50.7229 48.5 58.2781 40.9448 58.2781 31.625C58.2781 22.3052 50.7229 14.75 41.4031 14.75C32.0833 14.75 24.5281 22.3052 24.5281 31.625C24.5281 40.9448 32.0833 48.5 41.4031 48.5Z"/><g clip-path="url(#a)"><path fill="#fff" fill-rule="evenodd" d="M35.6057 35.6856C36.935 32.7113 38.1772 29.9296 39.4194 27.1479C39.4617 27.1579 39.5028 27.1693 39.5426 27.1856C39.5426 27.7251 39.5438 28.2647 39.5449 28.8042C39.5488 30.6628 39.5527 32.5217 39.5103 34.3791C39.5062 34.5855 39.2153 34.8004 38.9603 34.9888C38.9028 35.0312 38.8472 35.0723 38.7971 35.1116C38.697 35.1903 38.5605 35.2221 38.4238 35.2539C38.3617 35.2683 38.2995 35.2828 38.2407 35.3017C38.2476 35.3224 38.2547 35.3432 38.2619 35.364C38.269 35.3848 38.2762 35.4055 38.283 35.4263H42.3009C42.3065 35.4005 42.3124 35.3747 42.3183 35.3489C42.3242 35.3231 42.3301 35.2973 42.3357 35.2715C42.2807 35.256 42.226 35.2399 42.1713 35.2237C42.0477 35.1873 41.9244 35.1509 41.7993 35.1229C41.3064 35.0122 41.0562 34.7202 41.0574 34.1965C41.0624 31.7018 41.0612 29.2071 41.0574 26.7123C41.0562 26.1875 41.3213 25.9017 41.8105 25.7935C41.933 25.7662 42.055 25.7335 42.1768 25.7007C42.2294 25.6866 42.2819 25.6725 42.3345 25.6588C42.3301 25.6211 42.3261 25.5836 42.322 25.5462C42.318 25.5087 42.3139 25.4713 42.3096 25.4335C42.074 25.4335 41.8383 25.4354 41.6025 25.4373C41.0258 25.442 40.4488 25.4467 39.8737 25.4234C39.4742 25.4083 39.3062 25.5632 39.1531 25.9231C38.4537 27.5718 37.7364 29.2131 37.0191 30.8544C36.7918 31.3747 36.5644 31.895 36.3376 32.4155C36.2832 32.5416 36.2238 32.6658 36.1511 32.8177C36.1208 32.8811 36.0881 32.9494 36.0526 33.0247C35.7656 32.3935 35.4758 31.7743 35.1889 31.1616C34.504 29.6986 33.8363 28.2723 33.2669 26.8067C32.8313 25.6865 32.255 25.2208 31.0912 25.4197C30.7749 25.4733 30.4463 25.4592 30.1178 25.4451C29.9681 25.4387 29.8183 25.4323 29.6698 25.4323C29.6679 25.4688 29.6664 25.5049 29.6648 25.5411C29.6633 25.5773 29.6617 25.6135 29.6599 25.65C29.7074 25.6635 29.7548 25.6784 29.8021 25.6933C29.9008 25.7244 29.9995 25.7555 30.1005 25.7734C30.8908 25.9118 31.1 26.1422 31.1012 26.9263C31.1026 27.7877 31.1019 28.6491 31.1013 29.5105C31.1002 31.018 31.0992 32.5255 31.1087 34.0329C31.1124 34.6635 30.851 35.0185 30.2411 35.1229C30.1034 35.1464 29.9667 35.1766 29.8301 35.2069C29.7618 35.222 29.6935 35.2371 29.625 35.2513C29.6294 35.2765 29.6334 35.3017 29.6374 35.3268C29.6415 35.352 29.6455 35.3772 29.6499 35.4024H33.1636C33.0666 35.2476 32.9608 35.1909 32.8475 35.167C31.8555 34.9543 31.741 34.8158 31.741 33.7812C31.7397 32.0001 31.7397 30.2178 31.7397 28.4355V27.4827C31.7615 27.4802 31.783 27.4779 31.8044 27.4757C31.8259 27.4735 31.8474 27.4713 31.8692 27.4688C33.0877 30.1486 34.3063 32.8283 35.6057 35.6856ZM49.7622 35.42H54.375C52.7386 34.5624 51.601 33.2508 50.4671 31.9436C49.8088 31.1846 49.1518 30.4272 48.3993 29.7609C48.7435 29.4307 49.0815 29.1035 49.4162 28.7795C50.31 27.9144 51.1795 27.0728 52.0761 26.2605C52.2719 26.0839 52.545 25.9955 52.8184 25.907C52.9465 25.8655 53.0747 25.824 53.1951 25.7734C53.2823 25.7369 53.3676 25.6959 53.4529 25.655C53.4881 25.6381 53.5232 25.6213 53.5585 25.6047C53.5471 25.5769 53.535 25.5498 53.5227 25.5223C53.5189 25.5138 53.515 25.5052 53.5112 25.4965H49.6776C49.6882 25.5358 49.6947 25.5687 49.7 25.5952C49.7089 25.6401 49.7142 25.667 49.7298 25.6765C49.7983 25.7167 49.8755 25.7495 49.9539 25.7646C50.758 25.9244 50.9148 26.219 50.3621 26.8143C49.6019 27.6327 48.8023 28.4143 48.0027 29.196C47.6647 29.5264 47.3266 29.8569 46.9915 30.1901C46.9654 30.1719 46.9395 30.1539 46.9137 30.136C46.8879 30.1181 46.8621 30.1001 46.836 30.0819C46.836 29.767 46.8325 29.4518 46.8291 29.1367C46.8197 28.2643 46.8102 27.3922 46.8733 26.5248C46.889 26.3159 47.1879 26.1148 47.4576 25.9333C47.529 25.8853 47.5984 25.8386 47.6599 25.7935C47.7614 25.7196 47.8956 25.6901 48.0296 25.6607C48.0895 25.6476 48.1494 25.6344 48.2064 25.6173C48.1989 25.5984 48.1917 25.5793 48.1846 25.5601C48.1774 25.5409 48.1703 25.5217 48.1628 25.5028H43.9894L43.9707 25.6651C44.0369 25.6795 44.1033 25.6944 44.1699 25.7093C44.2895 25.7361 44.4095 25.763 44.5296 25.7872C45.0473 25.893 45.3249 26.1976 45.3249 26.7451V34.1664C45.3249 34.7126 45.0473 35.016 44.5258 35.1217C44.3963 35.1484 44.2697 35.1917 44.1432 35.2349C44.0849 35.2548 44.0267 35.2746 43.9682 35.2929C43.9757 35.3137 43.9828 35.3344 43.99 35.3552C43.9971 35.376 44.0043 35.3967 44.0118 35.4175H48.2225C48.1854 35.3732 48.1585 35.3363 48.1369 35.3067C48.102 35.2588 48.0809 35.23 48.0533 35.2199C47.4454 34.9994 47.1383 34.8883 46.9832 34.6695C46.8248 34.4461 46.8248 34.1104 46.8248 33.4313V32.739V30.3827C46.9432 30.4823 47.0422 30.5619 47.1271 30.6302C47.2751 30.7491 47.3807 30.834 47.4732 30.9315C48.1479 31.6427 48.8162 32.3601 49.4822 33.0789C49.5706 33.1744 49.6601 33.2692 49.7496 33.364C50.0328 33.664 50.3162 33.9642 50.5688 34.2885C50.9496 34.7793 50.8426 35.0097 50.2451 35.1406C50.1211 35.1671 49.9995 35.2035 49.8782 35.2399C49.8266 35.2553 49.7752 35.2707 49.7236 35.2853C49.7299 35.308 49.7364 35.3304 49.7429 35.3527C49.7495 35.3751 49.756 35.3974 49.7622 35.42Z" clip-rule="evenodd"/><path fill="#fff" d="M39.4194 27.1479L39.4889 26.856L39.2469 26.7984L39.1455 27.0255L39.4194 27.1479ZM35.6057 35.6856L35.3326 35.8098L35.6081 36.4155L35.8796 35.808L35.6057 35.6856ZM39.5426 27.1856H39.8426V26.9845L39.6567 26.9081L39.5426 27.1856ZM39.5449 28.8042L39.2449 28.8049L39.2449 28.8049L39.5449 28.8042ZM39.5103 34.3791L39.2104 34.3722L39.2103 34.3732L39.5103 34.3791ZM38.9603 34.9888L38.7821 34.7474L38.7821 34.7474L38.9603 34.9888ZM38.7971 35.1116L38.6118 34.8756L38.6116 34.8758L38.7971 35.1116ZM38.4238 35.2539L38.4918 35.5461L38.4918 35.5461L38.4238 35.2539ZM38.2407 35.3017L38.1489 35.0161L37.8612 35.1086L37.9558 35.3956L38.2407 35.3017ZM38.2619 35.364L37.9782 35.4617L37.9782 35.4617L38.2619 35.364ZM38.283 35.4263L37.9981 35.5202L38.066 35.7263H38.283V35.4263ZM42.3009 35.4263V35.7263H42.5427L42.594 35.4899L42.3009 35.4263ZM42.3357 35.2715L42.6289 35.3351L42.6888 35.059L42.4169 34.9826L42.3357 35.2715ZM42.1713 35.2237L42.0864 35.5115L42.0864 35.5115L42.1713 35.2237ZM41.7993 35.1229L41.7335 35.4156L41.7339 35.4157L41.7993 35.1229ZM41.0574 34.1965L41.3574 34.1973L41.3574 34.1971L41.0574 34.1965ZM41.0574 26.7123L41.3574 26.7119L41.3574 26.7116L41.0574 26.7123ZM41.8105 25.7935L41.8753 26.0864L41.8756 26.0863L41.8105 25.7935ZM42.1768 25.7007L42.2547 25.9905L42.2547 25.9905L42.1768 25.7007ZM42.3345 25.6588L42.41 25.9492L42.6624 25.8835L42.6325 25.6244L42.3345 25.6588ZM42.322 25.5462L42.0238 25.5784L42.0238 25.5784L42.322 25.5462ZM42.3096 25.4335L42.6076 25.3991L42.577 25.1335H42.3096V25.4335ZM41.6025 25.4373L41.6 25.1373L41.6025 25.4373ZM39.8737 25.4234L39.8858 25.1237L39.8851 25.1237L39.8737 25.4234ZM39.1531 25.9231L38.877 25.8057L38.8769 25.806L39.1531 25.9231ZM37.0191 30.8544L36.7442 30.7343L36.7442 30.7343L37.0191 30.8544ZM36.3376 32.4155L36.0626 32.2957L36.0622 32.2966L36.3376 32.4155ZM36.1511 32.8177L35.8805 32.6882L35.8805 32.6882L36.1511 32.8177ZM36.0526 33.0247L35.7794 33.1488L36.0473 33.7381L36.3238 33.1529L36.0526 33.0247ZM35.1889 31.1616L34.9172 31.2888L35.1889 31.1616ZM33.2669 26.8067L33.5466 26.6981L33.5465 26.698L33.2669 26.8067ZM31.0912 25.4197L31.1414 25.7155L31.1418 25.7154L31.0912 25.4197ZM30.1178 25.4451L30.105 25.7448L30.1178 25.4451ZM29.6698 25.4323V25.1323H29.3848L29.3702 25.4169L29.6698 25.4323ZM29.6599 25.65L29.3602 25.6347L29.348 25.8736L29.5782 25.9387L29.6599 25.65ZM29.8021 25.6933L29.8923 25.4072L29.8923 25.4072L29.8021 25.6933ZM30.1005 25.7734L30.0482 26.0688L30.0487 26.0689L30.1005 25.7734ZM31.1012 26.9263L31.4012 26.9259L31.4012 26.9258L31.1012 26.9263ZM31.1013 29.5105L31.4013 29.5107L31.4013 29.5107L31.1013 29.5105ZM31.1087 34.0329L31.4087 34.0311L31.4087 34.031L31.1087 34.0329ZM30.2411 35.1229L30.2916 35.4187L30.2918 35.4186L30.2411 35.1229ZM29.8301 35.2069L29.7654 34.9139L29.7653 34.9139L29.8301 35.2069ZM29.625 35.2513L29.5638 34.9576L29.28 35.0168L29.3294 35.3025L29.625 35.2513ZM29.6374 35.3268L29.9336 35.2793L29.9336 35.2792L29.6374 35.3268ZM29.6499 35.4024L29.3543 35.4535L29.3974 35.7024H29.6499V35.4024ZM33.1636 35.4024V35.7024H33.7059L33.4178 35.243L33.1636 35.4024ZM32.8475 35.167L32.7846 35.4603L32.7855 35.4605L32.8475 35.167ZM31.741 33.7812L32.041 33.7812L32.041 33.781L31.741 33.7812ZM31.7397 27.4827L31.7053 27.1847L31.4397 27.2153V27.4827H31.7397ZM31.8044 27.4757L31.8351 27.7742L31.8351 27.7742L31.8044 27.4757ZM31.8692 27.4688L32.1423 27.3446L32.0518 27.1457L31.8347 27.1708L31.8692 27.4688ZM54.375 35.42V35.72L54.5143 35.1543L54.375 35.42ZM49.7622 35.42L49.4729 35.4995L49.5335 35.72H49.7622V35.42ZM50.4671 31.9436L50.2405 32.1402L50.2405 32.1402L50.4671 31.9436ZM48.3993 29.7609L48.1916 29.5445L47.9567 29.7698L48.2004 29.9856L48.3993 29.7609ZM49.4162 28.7795L49.2076 28.564L49.2076 28.564L49.4162 28.7795ZM52.0761 26.2605L51.8752 26.0377L51.8746 26.0382L52.0761 26.2605ZM52.8184 25.907L52.726 25.6216L52.726 25.6216L52.8184 25.907ZM53.1951 25.7734L53.0792 25.4967L53.0788 25.4968L53.1951 25.7734ZM53.4529 25.655L53.5827 25.9255L53.5827 25.9255L53.4529 25.655ZM53.5585 25.6047L53.6859 25.8763L53.9442 25.7551L53.8362 25.4911L53.5585 25.6047ZM53.5227 25.5223L53.2488 25.6447L53.2488 25.6448L53.5227 25.5223ZM53.5112 25.4965L53.7855 25.3749L53.7064 25.1965H53.5112V25.4965ZM49.6776 25.4965V25.1965H49.2855L49.388 25.5749L49.6776 25.4965ZM49.7 25.5952L49.4057 25.6536L49.4057 25.6536L49.7 25.5952ZM49.7298 25.6765L49.5742 25.933L49.5777 25.935L49.7298 25.6765ZM49.9539 25.7646L50.0124 25.4703L50.0106 25.47L49.9539 25.7646ZM50.3621 26.8143L50.5819 27.0185L50.582 27.0184L50.3621 26.8143ZM48.0027 29.196L48.2124 29.4105L48.2124 29.4105L48.0027 29.196ZM46.9915 30.1901L46.8198 30.4361L47.0253 30.5796L47.2031 30.4029L46.9915 30.1901ZM46.9137 30.136L47.0848 29.8896L47.0848 29.8896L46.9137 30.136ZM46.836 30.0819H46.536V30.2383L46.6642 30.3279L46.836 30.0819ZM46.8291 29.1367L46.5291 29.14L46.5291 29.14L46.8291 29.1367ZM46.8733 26.5248L46.5741 26.5023L46.5741 26.5031L46.8733 26.5248ZM47.4576 25.9333L47.2901 25.6844L47.2901 25.6844L47.4576 25.9333ZM47.6599 25.7935L47.4833 25.551L47.4826 25.5515L47.6599 25.7935ZM48.0296 25.6607L47.9653 25.3677L47.9653 25.3677L48.0296 25.6607ZM48.2064 25.6173L48.2927 25.9046L48.6054 25.8106L48.4853 25.507L48.2064 25.6173ZM48.1846 25.5601L47.9035 25.6649L47.9035 25.6649L48.1846 25.5601ZM48.1628 25.5028L48.4418 25.3924L48.3667 25.2028H48.1628V25.5028ZM43.9894 25.5028V25.2028H43.7219L43.6913 25.4685L43.9894 25.5028ZM43.9707 25.6651L43.6727 25.6309L43.6416 25.9007L43.907 25.9583L43.9707 25.6651ZM44.1699 25.7093L44.2354 25.4165L44.2354 25.4165L44.1699 25.7093ZM44.5296 25.7872L44.5896 25.4933L44.589 25.4932L44.5296 25.7872ZM44.5258 35.1217L44.4662 34.8277L44.4652 34.8279L44.5258 35.1217ZM44.1432 35.2349L44.0462 34.951L44.0462 34.951L44.1432 35.2349ZM43.9682 35.2929L43.8788 35.0065L43.58 35.0998L43.6859 35.3944L43.9682 35.2929ZM43.99 35.3552L43.7063 35.4529L43.7064 35.4529L43.99 35.3552ZM44.0118 35.4175L43.7295 35.519L43.8008 35.7175H44.0118V35.4175ZM48.2225 35.4175V35.7175H48.8655L48.4524 35.2248L48.2225 35.4175ZM48.1369 35.3067L47.8945 35.4835L47.8945 35.4835L48.1369 35.3067ZM48.0533 35.2199L48.1562 34.9381L48.1555 34.9379L48.0533 35.2199ZM46.9832 34.6695L47.2279 34.496L47.2279 34.496L46.9832 34.6695ZM46.8248 30.3827L47.0178 30.1531L46.5248 29.7386V30.3827H46.8248ZM47.1271 30.6302L46.9392 30.864L46.9392 30.864L47.1271 30.6302ZM47.4732 30.9315L47.2556 31.138L47.2556 31.138L47.4732 30.9315ZM49.4822 33.0789L49.7022 32.875L49.7022 32.875L49.4822 33.0789ZM49.7496 33.364L49.5315 33.5699L49.5315 33.5699L49.7496 33.364ZM50.5688 34.2885L50.8058 34.1046L50.8054 34.1041L50.5688 34.2885ZM50.2451 35.1406L50.3078 35.434L50.3094 35.4336L50.2451 35.1406ZM49.8782 35.2399L49.7921 34.9525L49.7921 34.9525L49.8782 35.2399ZM49.7236 35.2853L49.6417 34.9967L49.3556 35.0779L49.4343 35.3648L49.7236 35.2853ZM49.7429 35.3527L49.455 35.4369L49.455 35.4369L49.7429 35.3527ZM39.1455 27.0255C37.9033 29.8072 36.6611 32.5889 35.3318 35.5632L35.8796 35.808C37.2089 32.8336 38.4512 30.0519 39.6934 27.2702L39.1455 27.0255ZM39.6567 26.9081C39.5955 26.883 39.5369 26.8674 39.4889 26.856L39.35 27.4397C39.3866 27.4484 39.4101 27.4555 39.4286 27.4631L39.6567 26.9081ZM39.8449 28.8036C39.8438 28.264 39.8426 27.7247 39.8426 27.1856H39.2426C39.2426 27.7255 39.2438 28.2653 39.2449 28.8049L39.8449 28.8036ZM39.8102 34.3859C39.8528 32.5242 39.8488 30.6616 39.8449 28.8036L39.2449 28.8049C39.2488 30.6641 39.2527 32.5192 39.2104 34.3722L39.8102 34.3859ZM39.1385 35.2301C39.2617 35.1391 39.4164 35.0255 39.5394 34.9049C39.6499 34.7966 39.8057 34.6169 39.8102 34.385L39.2103 34.3732C39.2108 34.3477 39.2192 34.3786 39.1194 34.4765C39.0321 34.562 38.9139 34.6501 38.7821 34.7474L39.1385 35.2301ZM38.9823 35.3476C39.0283 35.3115 39.0802 35.2731 39.1385 35.2301L38.7821 34.7474C38.7254 34.7893 38.6661 34.8331 38.6118 34.8756L38.9823 35.3476ZM38.4918 35.5461C38.6115 35.5182 38.82 35.4753 38.9825 35.3474L38.6116 34.8758C38.574 34.9054 38.5095 34.9259 38.3559 34.9617L38.4918 35.5461ZM38.3325 35.5873C38.3774 35.5728 38.4273 35.5611 38.4918 35.5461L38.3559 34.9617C38.296 34.9756 38.2215 34.9927 38.1489 35.0161L38.3325 35.5873ZM38.5455 35.2663C38.5382 35.2451 38.5317 35.2263 38.5256 35.2078L37.9558 35.3956C37.9634 35.4186 37.9712 35.4413 37.9782 35.4617L38.5455 35.2663ZM38.5679 35.3324C38.5604 35.3094 38.5525 35.2867 38.5455 35.2662L37.9782 35.4617C37.9855 35.4828 37.992 35.5017 37.9981 35.5202L38.5679 35.3324ZM42.3009 35.1263H38.283V35.7263H42.3009V35.1263ZM42.0259 35.2819C42.02 35.3074 42.0137 35.3349 42.0077 35.3627L42.594 35.4899C42.5992 35.4661 42.6047 35.442 42.6107 35.4159L42.0259 35.2819ZM42.0425 35.2078C42.0374 35.2317 42.0319 35.2558 42.0259 35.2819L42.6107 35.4159C42.6166 35.3904 42.6229 35.3629 42.6289 35.3351L42.0425 35.2078ZM42.0864 35.5115C42.1408 35.5275 42.1974 35.5442 42.2546 35.5603L42.4169 34.9826C42.3641 34.9678 42.3112 34.9522 42.2562 34.936L42.0864 35.5115ZM41.7339 35.4157C41.8475 35.4411 41.9611 35.4745 42.0864 35.5115L42.2562 34.936C42.1342 34.9 42.0012 34.8606 41.8646 34.8301L41.7339 35.4157ZM40.7574 34.1958C40.7567 34.5053 40.8308 34.7833 41.0104 35.004C41.1894 35.2238 41.4437 35.3505 41.7335 35.4156L41.865 34.8302C41.6619 34.7846 41.5447 34.71 41.4757 34.6251C41.4073 34.5412 41.3569 34.4114 41.3574 34.1973L40.7574 34.1958ZM40.7574 26.7128C40.7612 29.2073 40.7624 31.7017 40.7574 34.1959L41.3574 34.1971C41.3624 31.7019 41.3612 29.2068 41.3574 26.7119L40.7574 26.7128ZM41.7456 25.5006C41.4596 25.5639 41.2035 25.687 41.0209 25.903C40.8364 26.1213 40.7567 26.3992 40.7574 26.7131L41.3574 26.7116C41.3569 26.5007 41.4091 26.3732 41.4792 26.2903C41.5511 26.2052 41.6722 26.1314 41.8753 26.0864L41.7456 25.5006ZM42.099 25.411C41.9761 25.444 41.8604 25.4751 41.7454 25.5007L41.8756 26.0863C42.0056 26.0574 42.134 26.0229 42.2547 25.9905L42.099 25.411ZM42.259 25.3685C42.2051 25.3825 42.1513 25.3969 42.099 25.411L42.2547 25.9905C42.3075 25.9763 42.3588 25.9625 42.41 25.9492L42.259 25.3685ZM42.0238 25.5784C42.0278 25.6157 42.032 25.6542 42.0365 25.6932L42.6325 25.6244C42.6283 25.5879 42.6244 25.5516 42.6203 25.5139L42.0238 25.5784ZM42.0116 25.4679C42.0158 25.5044 42.0197 25.5408 42.0238 25.5784L42.6203 25.514C42.6163 25.4767 42.6121 25.4382 42.6076 25.3991L42.0116 25.4679ZM41.6049 25.7373C41.8409 25.7354 42.0755 25.7335 42.3096 25.7335V25.1335C42.0726 25.1335 41.8356 25.1354 41.6 25.1373L41.6049 25.7373ZM39.8616 25.7232C40.4452 25.7468 41.0295 25.742 41.6049 25.7373L41.6 25.1373C41.0222 25.142 40.4525 25.1466 39.8858 25.1237L39.8616 25.7232ZM39.4291 26.0406C39.4992 25.8759 39.5534 25.8077 39.5989 25.7742C39.6364 25.7466 39.7025 25.7172 39.8624 25.7232L39.8851 25.1237C39.6454 25.1146 39.4277 25.1551 39.2431 25.2911C39.0664 25.4212 38.96 25.6104 38.877 25.8057L39.4291 26.0406ZM37.294 30.9746C38.0112 29.3335 38.7291 27.6907 39.4292 26.0403L38.8769 25.806C38.1783 27.4529 37.4616 29.0928 36.7442 30.7343L37.294 30.9746ZM36.6126 32.5353C36.8393 32.015 37.0666 31.4949 37.294 30.9746L36.7442 30.7343C36.5169 31.2546 36.2894 31.775 36.0626 32.2957L36.6126 32.5353ZM36.4218 32.9471C36.4939 32.7963 36.5559 32.6668 36.613 32.5344L36.0622 32.2966C36.0104 32.4164 35.9537 32.5352 35.8805 32.6882L36.4218 32.9471ZM36.3238 33.1529C36.359 33.0783 36.3914 33.0106 36.4218 32.9471L35.8805 32.6882C35.8502 32.7516 35.8172 32.8205 35.7813 32.8965L36.3238 33.1529ZM34.9172 31.2888C35.2042 31.9017 35.4933 32.5194 35.7794 33.1488L36.3257 32.9006C36.0379 32.2676 35.7473 31.6469 35.4606 31.0344L34.9172 31.2888ZM32.9873 26.9154C33.5609 28.392 34.233 29.8273 34.9172 31.2888L35.4606 31.0344C34.7749 29.5698 34.1117 28.1527 33.5466 26.6981L32.9873 26.9154ZM31.1418 25.7154C31.6774 25.6239 32.0259 25.6932 32.2846 25.8674C32.5532 26.0482 32.7777 26.3764 32.9873 26.9155L33.5465 26.698C33.3205 26.1169 33.0391 25.6521 32.6197 25.3697C32.1904 25.0807 31.6689 25.0166 31.0407 25.124L31.1418 25.7154ZM30.105 25.7448C30.4274 25.7586 30.7884 25.7753 31.1414 25.7155L31.0411 25.1239C30.7615 25.1713 30.4652 25.1597 30.1307 25.1454L30.105 25.7448ZM29.6698 25.7323C29.8108 25.7323 29.9541 25.7384 30.105 25.7448L30.1307 25.1454C29.982 25.139 29.8258 25.1323 29.6698 25.1323V25.7323ZM29.9646 25.554C29.9661 25.5176 29.9676 25.4827 29.9694 25.4476L29.3702 25.4169C29.3683 25.4549 29.3667 25.4923 29.3651 25.5282L29.9646 25.554ZM29.9595 25.6653C29.9614 25.6274 29.963 25.59 29.9646 25.554L29.3651 25.5282C29.3635 25.5646 29.362 25.5996 29.3602 25.6347L29.9595 25.6653ZM29.8923 25.4072C29.8456 25.3925 29.7941 25.3762 29.7415 25.3613L29.5782 25.9387C29.6208 25.9507 29.6639 25.9643 29.7119 25.9794L29.8923 25.4072ZM30.1527 25.478C30.0743 25.4641 29.9942 25.4393 29.8923 25.4072L29.7119 25.9794C29.8074 26.0095 29.9247 26.0469 30.0482 26.0688L30.1527 25.478ZM31.4012 26.9258C31.4006 26.5233 31.3507 26.171 31.1226 25.9102C30.8975 25.6528 30.5532 25.5481 30.1522 25.4779L30.0487 26.0689C30.4381 26.1371 30.5936 26.2168 30.6709 26.3052C30.7453 26.3902 30.8006 26.5451 30.8012 26.9268L31.4012 26.9258ZM31.4013 29.5107C31.4019 28.6494 31.4026 27.7877 31.4012 26.9259L30.8012 26.9268C30.8026 27.7878 30.8019 28.6489 30.8013 29.5103L31.4013 29.5107ZM31.4087 34.031C31.3992 32.5248 31.4002 31.0184 31.4013 29.5107L30.8013 29.5103C30.8002 31.0176 30.7992 32.5261 30.8087 34.0348L31.4087 34.031ZM30.2918 35.4186C30.6452 35.3581 30.9408 35.2168 31.1414 34.9599C31.3392 34.7067 31.4108 34.3845 31.4087 34.0311L30.8087 34.0347C30.8103 34.312 30.753 34.4825 30.6686 34.5905C30.587 34.6949 30.447 34.7833 30.1905 34.8272L30.2918 35.4186ZM29.8949 35.4998C30.0327 35.4693 30.1622 35.4407 30.2916 35.4187L30.1907 34.8272C30.0445 34.8521 29.9008 34.884 29.7654 34.9139L29.8949 35.4998ZM29.6862 35.545C29.7567 35.5303 29.8268 35.5148 29.8949 35.4998L29.7653 34.9139C29.6967 34.9291 29.6302 34.9438 29.5638 34.9576L29.6862 35.545ZM29.9336 35.2792C29.9296 35.2544 29.9253 35.2274 29.9206 35.2002L29.3294 35.3025C29.3334 35.3256 29.3372 35.349 29.3412 35.3744L29.9336 35.2792ZM29.9455 35.3512C29.9415 35.3281 29.9377 35.3047 29.9336 35.2793L29.3412 35.3744C29.3452 35.3993 29.3496 35.4263 29.3543 35.4535L29.9455 35.3512ZM33.1636 35.1024H29.6499V35.7024H33.1636V35.1024ZM32.7855 35.4605C32.8122 35.4662 32.8278 35.4732 32.8409 35.4823C32.8546 35.4918 32.8786 35.5125 32.9095 35.5618L33.4178 35.243C33.2766 35.0178 33.1006 34.9138 32.9095 34.8735L32.7855 35.4605ZM31.441 33.7812C31.441 34.0409 31.4478 34.2646 31.4782 34.4523C31.5092 34.6435 31.568 34.82 31.6881 34.9699C31.8084 35.1201 31.9675 35.2151 32.1463 35.2854C32.3214 35.3543 32.5357 35.407 32.7846 35.4603L32.9104 34.8737C32.6633 34.8207 32.4912 34.7763 32.3658 34.727C32.2442 34.6792 32.1886 34.635 32.1564 34.5947C32.1238 34.5541 32.092 34.4887 32.0705 34.3563C32.0484 34.2203 32.041 34.0388 32.041 33.7812H31.441ZM31.4397 28.4355C31.4397 30.2178 31.4397 32.0002 31.441 33.7814L32.041 33.781C32.0397 32 32.0397 30.2178 32.0397 28.4355H31.4397ZM31.4397 27.4827V28.4355H32.0397V27.4827H31.4397ZM31.7738 27.1773C31.7526 27.1795 31.7293 27.1819 31.7053 27.1847L31.7742 27.7807C31.7937 27.7784 31.8133 27.7764 31.8351 27.7742L31.7738 27.1773ZM31.8347 27.1708C31.8152 27.1731 31.7956 27.1751 31.7738 27.1773L31.8351 27.7742C31.8562 27.772 31.8796 27.7696 31.9036 27.7668L31.8347 27.1708ZM35.8788 35.5614C34.5793 32.7042 33.3608 30.0244 32.1423 27.3446L31.5961 27.593C32.8146 30.2728 34.0332 32.9525 35.3326 35.8098L35.8788 35.5614ZM54.375 35.12H49.7622V35.72H54.375V35.12ZM50.2405 32.1402C51.3693 33.4415 52.5416 34.7978 54.2357 35.6857L54.5143 35.1543C52.9357 34.3269 51.8326 33.06 50.6938 31.747L50.2405 32.1402ZM48.2004 29.9856C48.9357 30.6365 49.58 31.3787 50.2405 32.1402L50.6938 31.747C50.0376 30.9906 49.368 30.2179 48.5981 29.5363L48.2004 29.9856ZM49.2076 28.564C48.8728 28.888 48.5352 29.2148 48.1916 29.5445L48.607 29.9774C48.9517 29.6467 49.2903 29.319 49.6249 28.9951L49.2076 28.564ZM51.8746 26.0382C50.9738 26.8544 50.1008 27.6995 49.2076 28.564L49.6249 28.9951C50.5193 28.1294 51.3853 27.2912 52.2775 26.4828L51.8746 26.0382ZM52.726 25.6216C52.4679 25.7051 52.1275 25.8102 51.8752 26.0377L52.277 26.4833C52.4162 26.3577 52.6221 26.2859 52.9108 26.1924L52.726 25.6216ZM53.0788 25.4968C52.9722 25.5416 52.8564 25.5793 52.726 25.6216L52.9108 26.1924C53.0366 26.1517 53.1772 26.1063 53.3113 26.0499L53.0788 25.4968ZM53.3232 25.3845C53.2367 25.426 53.1582 25.4636 53.0792 25.4967L53.3109 26.0501C53.4064 26.0101 53.4986 25.9658 53.5827 25.9255L53.3232 25.3845ZM53.4311 25.3331C53.3945 25.3503 53.3581 25.3677 53.3232 25.3845L53.5827 25.9255C53.618 25.9085 53.652 25.8922 53.6859 25.8763L53.4311 25.3331ZM53.2488 25.6448C53.2614 25.6729 53.2716 25.6957 53.2808 25.7183L53.8362 25.4911C53.8227 25.4581 53.8086 25.4267 53.7966 25.3999L53.2488 25.6448ZM53.2369 25.618C53.241 25.6272 53.2451 25.6363 53.2488 25.6447L53.7966 25.4C53.7927 25.3913 53.7891 25.3831 53.7855 25.3749L53.2369 25.618ZM49.6776 25.7965H53.5112V25.1965H49.6776V25.7965ZM49.9943 25.5369C49.9889 25.51 49.9807 25.4683 49.9671 25.4181L49.388 25.5749C49.3957 25.6033 49.4005 25.6273 49.4057 25.6536L49.9943 25.5369ZM49.8855 25.42C49.9307 25.4474 49.9586 25.482 49.9745 25.5075C49.9892 25.5312 49.9958 25.5505 49.9977 25.5563C49.9998 25.5628 50.0002 25.5656 49.9991 25.5605C49.998 25.5555 49.9967 25.5491 49.9943 25.5369L49.4057 25.6536C49.4088 25.6689 49.4159 25.7075 49.4271 25.742C49.4366 25.7711 49.4702 25.8698 49.5742 25.933L49.8855 25.42ZM50.0106 25.47C49.9735 25.4628 49.9285 25.4453 49.882 25.4179L49.5777 25.935C49.6681 25.9882 49.7774 26.0361 49.8971 26.0592L50.0106 25.47ZM50.582 27.0184C50.73 26.859 50.849 26.7007 50.9188 26.5432C50.9905 26.3815 51.0208 26.1941 50.9433 26.0099C50.869 25.8331 50.7202 25.7195 50.5685 25.6438C50.4151 25.5674 50.2251 25.5126 50.0124 25.4703L49.8954 26.0588C50.0847 26.0965 50.2158 26.1385 50.3008 26.1808C50.3873 26.224 50.3939 26.2512 50.3902 26.2424C50.3834 26.2262 50.3995 26.2341 50.3703 26.3001C50.3392 26.3702 50.2706 26.472 50.1423 26.6102L50.582 27.0184ZM48.2124 29.4105C49.0112 28.6297 49.816 27.843 50.5819 27.0185L50.1424 26.6101C49.3879 27.4223 48.5935 28.1989 47.793 28.9814L48.2124 29.4105ZM47.2031 30.4029C47.5371 30.0707 47.8742 29.7411 48.2124 29.4105L47.793 28.9814C47.4551 29.3118 47.1161 29.6431 46.78 29.9774L47.2031 30.4029ZM46.7426 30.3824C46.7685 30.4004 46.794 30.4181 46.8198 30.4361L47.1633 29.9442C47.1368 29.9257 47.1106 29.9075 47.0848 29.8896L46.7426 30.3824ZM46.6642 30.3279C46.6907 30.3464 46.7168 30.3645 46.7426 30.3824L47.0848 29.8896C47.059 29.8716 47.0335 29.8539 47.0077 29.8359L46.6642 30.3279ZM46.5291 29.14C46.5326 29.4554 46.536 29.7689 46.536 30.0819H47.136C47.136 29.7651 47.1325 29.4483 47.1291 29.1335L46.5291 29.14ZM46.5741 26.5031C46.5099 27.385 46.5197 28.2697 46.5291 29.14L47.1291 29.1335C47.1196 28.259 47.1105 27.3994 47.1725 26.5466L46.5741 26.5031ZM47.2901 25.6844C47.1599 25.7721 46.9989 25.8797 46.8699 25.9955C46.7528 26.1005 46.5915 26.2722 46.5741 26.5023L47.1724 26.5474C47.1709 26.5685 47.1669 26.5351 47.2706 26.442C47.3624 26.3597 47.4857 26.276 47.6251 26.1823L47.2901 25.6844ZM47.4826 25.5515C47.4269 25.5924 47.3628 25.6356 47.2901 25.6844L47.6251 26.1823C47.6953 26.135 47.77 26.0848 47.8373 26.0355L47.4826 25.5515ZM47.9653 25.3677C47.8469 25.3937 47.6453 25.4331 47.4833 25.551L47.8366 26.036C47.8776 26.0061 47.9444 25.9866 48.0939 25.9537L47.9653 25.3677ZM48.12 25.33C48.0759 25.3433 48.0273 25.3541 47.9653 25.3677L48.0939 25.9537C48.1517 25.9411 48.223 25.9256 48.2927 25.9046L48.12 25.33ZM47.9035 25.6649C47.9105 25.6836 47.9186 25.7056 47.9274 25.7277L48.4853 25.507C48.4791 25.4913 48.473 25.4749 48.4657 25.4553L47.9035 25.6649ZM47.8838 25.6131C47.89 25.6288 47.8962 25.6452 47.9035 25.6649L48.4657 25.4553C48.4587 25.4365 48.4505 25.4145 48.4418 25.3924L47.8838 25.6131ZM43.9894 25.8028H48.1628V25.2028H43.9894V25.8028ZM44.2687 25.6994L44.2874 25.537L43.6913 25.4685L43.6727 25.6309L44.2687 25.6994ZM44.2354 25.4165C44.1691 25.4017 44.1017 25.3866 44.0344 25.372L43.907 25.9583C43.9722 25.9725 44.0376 25.9871 44.1043 26.002L44.2354 25.4165ZM44.589 25.4932C44.4726 25.4696 44.3556 25.4435 44.2354 25.4165L44.1043 26.002C44.2235 26.0287 44.3465 26.0563 44.4701 26.0813L44.589 25.4932ZM45.6249 26.7451C45.6249 26.4201 45.5417 26.1317 45.35 25.9062C45.1598 25.6824 44.8921 25.5551 44.5896 25.4933L44.4695 26.0812C44.6848 26.1251 44.8148 26.203 44.8928 26.2948C44.9694 26.3849 45.0249 26.5226 45.0249 26.7451H45.6249ZM45.6249 34.1664V26.7451H45.0249V34.1664H45.6249ZM44.5854 35.4157C44.8892 35.3541 45.1579 35.2275 45.3489 35.0042C45.5415 34.779 45.6249 34.4909 45.6249 34.1664H45.0249C45.0249 34.3881 44.9695 34.5248 44.893 34.6142C44.8148 34.7056 44.6839 34.7836 44.4662 34.8277L44.5854 35.4157ZM44.2401 35.5188C44.3698 35.4745 44.4785 35.4378 44.5864 35.4155L44.4652 34.8279C44.3141 34.8591 44.1696 34.9088 44.0462 34.951L44.2401 35.5188ZM44.0576 35.5793C44.1205 35.5596 44.1825 35.5384 44.2401 35.5188L44.0462 34.951C43.9873 34.9711 43.9329 34.9896 43.8788 35.0065L44.0576 35.5793ZM44.2736 35.2575C44.2666 35.237 44.2588 35.2143 44.2505 35.1914L43.6859 35.3944C43.6926 35.413 43.6991 35.4319 43.7063 35.4529L44.2736 35.2575ZM44.2941 35.316C44.2874 35.2974 44.2809 35.2785 44.2736 35.2575L43.7064 35.4529C43.7134 35.4734 43.7212 35.4961 43.7295 35.519L44.2941 35.316ZM48.2225 35.1175H44.0118V35.7175H48.2225V35.1175ZM47.8945 35.4835C47.9165 35.5136 47.9485 35.5576 47.9926 35.6102L48.4524 35.2248C48.4223 35.1888 48.4004 35.1589 48.3792 35.1299L47.8945 35.4835ZM47.9504 35.5017C47.8988 35.4829 47.8719 35.4526 47.8699 35.4504C47.8684 35.4488 47.8694 35.4498 47.8744 35.4563C47.8794 35.4628 47.8853 35.4708 47.8945 35.4835L48.3792 35.1299C48.3652 35.1106 48.3408 35.0766 48.3148 35.0478C48.2867 35.0167 48.2354 34.967 48.1562 34.9381L47.9504 35.5017ZM46.7384 34.8431C46.8585 35.0124 47.0265 35.1223 47.2186 35.2145C47.4074 35.3052 47.653 35.3938 47.951 35.5019L48.1555 34.9379C47.8457 34.8255 47.6337 34.7483 47.4783 34.6737C47.3261 34.6006 47.2629 34.5455 47.2279 34.496L46.7384 34.8431ZM46.5248 33.4313C46.5248 33.7645 46.5244 34.0361 46.5461 34.2513C46.5681 34.4701 46.6157 34.6699 46.7384 34.8431L47.2279 34.496C47.1922 34.4457 47.1606 34.366 47.143 34.1913C47.1251 34.0131 47.1248 33.7772 47.1248 33.4313H46.5248ZM46.5248 32.739V33.4313H47.1248V32.739H46.5248ZM46.5248 30.3827V32.739H47.1248V30.3827H46.5248ZM47.3151 30.3963C47.2302 30.3281 47.1335 30.2504 47.0178 30.1531L46.6317 30.6124C46.753 30.7143 46.8542 30.7957 46.9392 30.864L47.3151 30.3963ZM47.6909 30.7251C47.5817 30.6099 47.4589 30.5119 47.3151 30.3963L46.9392 30.864C47.0914 30.9863 47.1797 31.058 47.2556 31.138L47.6909 30.7251ZM49.7022 32.875C49.036 32.1559 48.3667 31.4375 47.6909 30.7251L47.2556 31.138C47.929 31.8479 48.5965 32.5644 49.2621 33.2827L49.7022 32.875ZM49.9678 33.158C49.8781 33.0631 49.7896 32.9693 49.7022 32.875L49.2621 33.2827C49.3517 33.3794 49.4421 33.4753 49.5315 33.5699L49.9678 33.158ZM50.8054 34.1041C50.5427 33.7668 50.2493 33.4563 49.9678 33.158L49.5315 33.5699C49.8163 33.8717 50.0898 34.1617 50.3321 34.4728L50.8054 34.1041ZM50.3094 35.4336C50.4711 35.3982 50.6206 35.3519 50.7441 35.2851C50.8686 35.2178 50.9907 35.1161 51.0526 34.9604C51.1154 34.8025 51.0949 34.6433 51.0444 34.5065C50.995 34.3726 50.9095 34.2383 50.8058 34.1046L50.3317 34.4724C50.4184 34.5841 50.4624 34.6626 50.4814 34.7141C50.4993 34.7626 50.4861 34.7612 50.4951 34.7386C50.5032 34.7183 50.5103 34.7294 50.4585 34.7574C50.4058 34.786 50.318 34.8175 50.1809 34.8475L50.3094 35.4336ZM49.9642 35.5273C50.0875 35.4903 50.1976 35.4575 50.3078 35.434L50.1825 34.8472C50.0446 34.8767 49.9114 34.9167 49.7921 34.9525L49.9642 35.5273ZM49.8055 35.574C49.8595 35.5586 49.9131 35.5426 49.9642 35.5273L49.7921 34.9525C49.7402 34.968 49.6908 34.9828 49.6417 34.9967L49.8055 35.574ZM50.0309 35.2685C50.0242 35.2458 50.0184 35.2258 50.0129 35.2059L49.4343 35.3648C49.4413 35.3902 49.4486 35.415 49.455 35.4369L50.0309 35.2685ZM50.0515 35.3406C50.0445 35.3151 50.0373 35.2905 50.0309 35.2685L49.455 35.4369C49.4616 35.4596 49.4675 35.4796 49.4729 35.4995L50.0515 35.3406Z"/></g><defs><clipPath id="a"><rect width="36" height="36" fill="#fff" transform="translate(24 13)"/></clipPath></defs></svg>