<svg xmlns="http://www.w3.org/2000/svg" enable-background="new 0 0 128 128" viewBox="0 0 128 128"><circle cx="64" cy="64" r="64" fill="#C9C"/><path fill="#333" d="M87.639,50.331v4.683h-4.938v0.632c0,0.295-0.021,0.569-0.063,0.825h5v4.682h-5.57   c-0.632,2.574-1.791,4.537-3.477,5.886c-2.704,2.236-6.588,3.354-11.646,3.354h-9.622v16.393h-9.496V61.152h-7.467V56.47h7.467   v-1.457h-7.467v-4.683h7.467v-9.115h19.877c4.553,0,8.183,1.183,10.887,3.546c1.644,1.391,2.781,3.249,3.414,5.569H87.639z    M66.182,49.126h-8.858v1.204H70.93C69.749,49.528,68.168,49.126,66.182,49.126z M73.274,55.708c0-0.253-0.026-0.484-0.068-0.695   H57.324v1.457h15.882C73.248,56.259,73.274,56.006,73.274,55.708z M66.182,62.545c2.029,0,3.652-0.466,4.874-1.394H57.324v1.394   H66.182z"/></svg>