<svg xmlns="http://www.w3.org/2000/svg" enable-background="new 0 0 128 128" viewBox="0 0 128 128"><circle cx="64" cy="64" r="64" fill="#999"/><path fill="#333" d="M44.753 44.94c1.707 0 3.246.276 4.616.827 1.375.553 2.545 1.31 3.525 2.269.98.962 1.728 2.074 2.245 3.338s.774 2.624.774 4.083c0 2.242-.474 4.184-1.417 5.82-.943 1.639-2.482 2.882-4.616 3.739v.105c1.033.283 1.881.719 2.561 1.307.674.59 1.228 1.283 1.655 2.081.427.804.737 1.684.938 2.646.195.959.327 1.92.4 2.882.032.606.069 1.317.105 2.134.037.822.101 1.658.185 2.512.09.854.232 1.662.432 2.429.19.765.485 1.415.88 1.947h-8.384c-.464-1.21-.749-2.65-.854-4.323-.105-1.674-.269-3.275-.485-4.804-.284-1.994-.891-3.454-1.813-4.379-.927-.927-2.439-1.388-4.537-1.388h-8.384V83.06h-8.383V44.94H44.753zM41.765 62.188c1.924 0 3.362-.43 4.327-1.283.959-.854 1.438-2.242 1.438-4.163 0-1.852-.479-3.196-1.438-4.034-.964-.835-2.403-1.254-4.327-1.254h-9.185v10.734H41.765zM74.542 44.94l8.916 26.216h.109l8.438-26.216h11.798V83.06h-7.852V56.046h-.105L86.503 83.06h-6.461L70.7 56.312h-.111V83.06h-7.846V44.94H74.542z"/></svg>