<svg xmlns="http://www.w3.org/2000/svg" enable-background="new 0 0 128 128" viewBox="0 0 128 128"><circle cx="64" cy="64" r="64" fill="#3C9"/><path fill="#333" d="M42.922,71.232v-5.606h4.938v-3.699h-4.938v-5.607h4.938V43.818h8.8l7.114,12.501h8.974V43.818h7.847    v12.501h4.484v5.607h-4.484v3.699h4.484v5.606h-4.484v12.949h-8.41l-7.456-12.949h-9.021v12.949h-7.847V71.232H42.922z     M55.706,56.319h0.447l-0.447-0.785V56.319z M55.706,65.626h5.77l-2.129-3.699h-3.641V65.626z M69.106,65.626h3.641v-3.699H67.03    L69.106,65.626z M72.747,72.015v-0.782H72.3L72.747,72.015z"/></svg>