<svg xmlns="http://www.w3.org/2000/svg" viewBox="0 0 512 512"><g transform="matrix(1.12362 0 0 1.12362 -31.648 -31.648)"><path fill="#ffb61c" d="m -355.93222,67.084747 c 0,115.839383 -93.90637,209.745763 -209.74576,209.745763 -115.83938,0 -209.74576,-93.90638 -209.74576,-209.745763 0,-115.839383 93.90638,-209.745757 209.74576,-209.745757 115.83939,0 209.74576,93.906374 209.74576,209.745757 z" transform="rotate(-22.809 347.561 -1882.042)"/><path fill="#fcd116" d="m -355.93222,67.084747 c 0,115.839383 -93.90637,209.745763 -209.74576,209.745763 -115.83938,0 -209.74576,-93.90638 -209.74576,-209.745763 0,-115.839383 93.90638,-209.745757 209.74576,-209.745757 115.83939,0 209.74576,93.906374 209.74576,209.745757 z" transform="rotate(-22.809 279.292 -1868.27)"/><path fill="none" stroke="#ffb61c" stroke-width="2.357" d="m -355.93222,67.084747 c 0,115.839383 -93.90637,209.745763 -209.74576,209.745763 -115.83938,0 -209.74576,-93.90638 -209.74576,-209.745763 0,-115.839383 93.90638,-209.745757 209.74576,-209.745757 115.83939,0 209.74576,93.906374 209.74576,209.745757 z" transform="matrix(.78213 -.32893 .32893 .78213 671.032 4.77)"/><path fill="#ffb61c" d="M 181.66439,79.265826 C 91.0624,117.36835 48.50176,221.70745 86.60428,312.30944 c 0.97054,2.3078 2.01301,4.56711 3.06819,6.81202 -33.12781,-88.91813 9.51023,-188.92951 97.79474,-226.057418 88.28465,-37.127972 189.61367,2.338063 229.99212,88.207168 -0.86637,-2.32416 -1.78084,-4.63761 -2.75132,-6.94527 C 376.60548,83.723944 272.26638,41.1633 181.66439,79.265826 z"/></g><g transform="matrix(1.12362 0 0 1.12362 -43.703 -41.802)"><g transform="rotate(23.79 -539.396 646.975) scale(.13067)"><path fill="#ffb61c" d="m -355.93222,67.084747 c 0,115.839383 -93.90637,209.745763 -209.74576,209.745763 -115.83938,0 -209.74576,-93.90638 -209.74576,-209.745763 0,-115.839383 93.90638,-209.745757 209.74576,-209.745757 115.83939,0 209.74576,93.906374 209.74576,209.745757 z" transform="rotate(-22.809 -497.409 67.085)"/><path fill="#fcd116" stroke="#f6851f" stroke-width="2" d="m -355.93222,67.084747 c 0,115.839383 -93.90637,209.745763 -209.74576,209.745763 -115.83938,0 -209.74576,-93.90638 -209.74576,-209.745763 0,-115.839383 93.90638,-209.745757 209.74576,-209.745757 115.83939,0 209.74576,93.906374 209.74576,209.745757 z" transform="rotate(-22.809 -565.678 80.856)"/></g><g transform="rotate(23.79 -421.275 1207.715) scale(.13067)"><path fill="#ffb61c" d="m -355.93222,67.084747 c 0,115.839383 -93.90637,209.745763 -209.74576,209.745763 -115.83938,0 -209.74576,-93.90638 -209.74576,-209.745763 0,-115.839383 93.90638,-209.745757 209.74576,-209.745757 115.83939,0 209.74576,93.906374 209.74576,209.745757 z" transform="rotate(-22.809 -497.409 67.085)"/><path fill="#fcd116" stroke="#f6851f" stroke-width="2" d="m -355.93222,67.084747 c 0,115.839383 -93.90637,209.745763 -209.74576,209.745763 -115.83938,0 -209.74576,-93.90638 -209.74576,-209.745763 0,-115.839383 93.90638,-209.745757 209.74576,-209.745757 115.83939,0 209.74576,93.906374 209.74576,209.745757 z" transform="rotate(-22.809 -565.678 80.856)"/></g></g><path style="line-height:125%" fill="#ffb61c" stroke="#f6851f" d="m 296.74037,165.39134 0,17.79687 c -15.48183,2.49133 -25.79883,13.87906 -25.79883,29.7168 0,34.70065 49.64974,28.48036 49.64974,57.30859 0,11.03303 -6.5874,18.32813 -19.75586,18.32813 -10.85507,0 -19.92879,-5.34677 -27.58072,-11.93099 l -6.76237,10.14909 c 7.47398,6.94012 18.85911,12.63411 30.24804,13.70182 l 0,17.61979 10.68034,0 0,-17.97396 c 16.90545,-2.31338 27.58073,-14.062 27.58073,-30.96745 0,-38.25969 -49.64974,-31.14031 -49.64974,-56.94336 0,-10.32122 6.9418,-17.08854 17.79688,-17.08854 9.60941,0 15.13061,3.74282 21.71484,10.14909 l 7.82487,-8.72135 c -6.40627,-6.76218 -13.87865,-12.27908 -25.26758,-13.52474 l 0,-17.61979 -10.68034,0 z m -79.77604,14.24414 c -29.89595,0 -51.96289,22.9482 -51.96289,60.49609 0,38.08174 21.71538,60.50716 51.07747,60.50716 14.94797,0 26.32918,-6.22327 35.58269,-16.90039 l -8.35613,-9.07552 c -7.47398,8.36375 -15.66141,12.98242 -26.87239,12.98242 -22.06606,0 -36.125,-18.50574 -36.125,-47.86784 0,-29.00618 14.58932,-47.1595 36.83333,-47.1595 9.78737,0 17.25823,4.27319 23.3086,10.85742 l 8.36719,-9.42969 c -6.76218,-7.65194 -17.79466,-14.41015 -31.85287,-14.41015 z" font-family="Sans" font-size="83.742" font-weight="400" letter-spacing="0" word-spacing="0"/></svg>