<svg xmlns="http://www.w3.org/2000/svg" fill="none" viewBox="0 0 64 64"><path fill="#50D9D7" d="M29.8813 50.9469C26.1543 52.3403 22.1038 52.6259 18.2181 51.7693C14.3325 50.9127 10.7775 48.9504 7.98194 46.119C5.18634 43.2876 3.26941 39.708 2.46227 35.8118C1.65512 31.9156 1.99222 27.869 3.43291 24.1601C4.87361 20.4511 7.3564 17.238 10.5819 14.9082C13.8075 12.5784 17.6381 11.2314 21.6119 11.0295C25.5858 10.8276 29.5332 11.7795 32.9782 13.7704C36.4233 15.7613 39.2189 18.7061 41.0281 22.25C42.3499 24.8391 43.1094 27.6783 43.2569 30.5814C43.4044 33.4846 42.9365 36.3861 41.884 39.0958C40.8315 41.8055 39.218 44.2621 37.1495 46.3044C35.081 48.3468 32.6041 49.9289 29.8813 50.9469V50.9469Z"/><path fill="#93E6E5" d="M43.2781 32.5626C43.3156 31.9382 43.3156 31.3121 43.2781 30.6876H33.9031C33.8193 27.7902 33.2126 24.9318 32.1125 22.2501H41.0281C40.7042 21.6035 40.341 20.9774 39.9406 20.3751H31.2125C29.2556 16.7668 26.5286 13.6333 23.225 11.197C23.0611 11.0708 22.86 11.0024 22.6531 11.0024C22.4463 11.0024 22.2452 11.0708 22.0813 11.197C18.7751 13.6306 16.0476 16.7647 14.0938 20.3751H5.36563C4.96524 20.9774 4.60207 21.6035 4.27813 22.2501H13.2219C12.1121 24.93 11.4959 27.7885 11.4031 30.6876H2.02813C1.99062 31.3121 1.99062 31.9382 2.02813 32.5626H11.4031C11.487 35.46 12.0936 38.3184 13.1938 41.0001H4.27813C4.60207 41.6467 4.96524 42.2729 5.36563 42.8751H14.0938C16.0476 46.4856 18.7751 49.6197 22.0813 52.0533C22.2452 52.1794 22.4463 52.2479 22.6531 52.2479C22.86 52.2479 23.0611 52.1794 23.225 52.0533C26.5335 49.6222 29.2615 46.4875 31.2125 42.8751H39.9406C40.341 42.2729 40.7042 41.6467 41.0281 41.0001H32.0844C33.1942 38.3202 33.8103 35.4618 33.9031 32.5626H43.2781ZM22.6531 13.1283C25.2238 15.1229 27.3987 17.5808 29.0656 20.3751H16.2406C17.9116 17.5838 20.0859 15.1266 22.6531 13.1283V13.1283ZM22.6531 50.122C20.0859 48.1237 17.9116 45.6665 16.2406 42.8751H29.0656C27.3957 45.6673 25.2212 48.1246 22.6531 50.122V50.122ZM30.0313 41.0001H15.275C14.0563 38.3479 13.3775 35.4797 13.2781 32.5626H32.0281C31.9287 35.4797 31.2499 38.3479 30.0313 41.0001V41.0001ZM13.2781 30.6876C13.3687 27.7724 14.0379 24.9043 15.2469 22.2501H30.0313C31.2499 24.9023 31.9287 27.7705 32.0281 30.6876H13.2781Z"/><path fill="#00BEBD" d="M39.9406 20.375H31.2125C30.0623 18.2008 28.607 16.2024 26.8906 14.4406 27.8275 13.6477 28.8277 12.9328 29.8812 12.3031 34.0111 13.8492 37.5366 16.6782 39.9406 20.375V20.375zM39.9406 42.875C37.5366 46.5718 34.0111 49.4008 29.8812 50.9469 28.8277 50.3171 27.8275 49.6023 26.8906 48.8094 28.607 47.0475 30.0623 45.0492 31.2125 42.875H39.9406zM32.0281 32.5625C31.9375 35.4777 31.2683 38.3458 30.0593 41H20.9562C19.7261 38.349 19.0285 35.4823 18.9031 32.5625H32.0281zM32.0281 30.6875H18.9031C19.0226 27.769 19.7138 24.9023 20.9375 22.25H30.0125C31.2376 24.9009 31.9228 27.7691 32.0281 30.6875V30.6875zM29.0656 20.375H21.9219C22.9111 18.6639 24.1181 17.0882 25.5125 15.6875 26.8797 17.1026 28.0726 18.6763 29.0656 20.375V20.375zM29.0656 42.875C28.0726 44.5737 26.8797 46.1474 25.5125 47.5625 24.1181 46.1618 22.9111 44.5861 21.9219 42.875H29.0656z"/><path fill="#50D9D7" d="M33.9031 32.5625C33.8192 35.4599 33.2126 38.3183 32.1125 41H41.0281C40.7041 41.6466 40.341 42.2727 39.9406 42.875H31.2125C30.0623 45.0491 28.6069 47.0475 26.8906 48.8094C26.4125 48.4062 25.9531 47.9844 25.5125 47.5344C26.8797 46.1193 28.0726 44.5456 29.0656 42.8469H21.9218C21.575 42.2375 21.2468 41.6187 20.9843 40.9719H30.0593C31.2647 38.3263 31.9338 35.4681 32.0281 32.5625H18.9031C18.9031 31.7375 18.9031 31.5125 18.9031 30.6875H32.0281C31.9375 27.7723 31.2683 24.9042 30.0593 22.25H20.9562C21.2468 21.6031 21.575 20.9844 21.8937 20.375H29.0375C28.0444 18.6762 26.8516 17.1025 25.4843 15.6875C25.925 15.2375 26.4218 14.8156 26.8625 14.4125C28.5909 16.1811 30.0559 18.1891 31.2125 20.375H39.9406C40.341 20.9772 40.7041 21.6034 41.0281 22.25H32.0843C33.1941 24.9299 33.8103 27.7884 33.9031 30.6875H43.2781C43.3156 31.3119 43.3156 31.938 43.2781 32.5625H33.9031Z"/><path fill="#EA9706" d="M41.4031 52.25C52.7939 52.25 62.0281 43.0159 62.0281 31.625C62.0281 20.2341 52.7939 11 41.4031 11C30.0122 11 20.7781 20.2341 20.7781 31.625C20.7781 43.0159 30.0122 52.25 41.4031 52.25Z"/><path fill="#FFAC00" d="M41.4031 48.5C50.7229 48.5 58.2781 40.9448 58.2781 31.625C58.2781 22.3052 50.7229 14.75 41.4031 14.75C32.0833 14.75 24.5281 22.3052 24.5281 31.625C24.5281 40.9448 32.0833 48.5 41.4031 48.5Z"/><g clip-path="url(#a)"><path fill="#fff" fill-rule="evenodd" d="M35.524 22.5214C35.524 22.2969 35.4843 22.1001 35.2423 22H33.2564C33.0469 22.1278 33.0036 22.3142 33 22.5387C33.0036 28.1772 33.0036 33.8193 33.0036 39.4613C33.0036 39.4735 33.0035 39.4856 33.0034 39.4976C33.0029 39.557 33.0024 39.6145 33.0144 39.672C33.0506 39.8826 33.1842 39.9931 33.4044 39.9931C33.9713 39.9965 34.5418 39.9965 35.1123 39.9931C35.3434 39.9896 35.4734 39.8757 35.5059 39.6547C35.5131 39.5891 35.5131 39.527 35.5131 39.4613V35.5596V35.2902C35.5553 35.3155 35.5932 35.3351 35.6269 35.3527C35.6855 35.3832 35.7315 35.4071 35.7659 35.4422C37.2247 36.8889 38.6798 38.3357 40.1314 39.7894C40.2722 39.9275 40.4275 39.9965 40.6333 39.9931C41.2508 39.9862 41.8718 39.9896 42.4893 39.9931C42.6806 39.9931 42.8395 39.9517 42.9226 39.7687C43.0056 39.5891 42.9081 39.4579 42.789 39.3301L38.8243 35.1763C38.3936 34.7268 37.963 34.2744 37.5296 33.8191L37.4016 33.6846C37.4305 33.6467 37.4521 33.6191 37.4738 33.5915L37.4738 33.5914L41.3302 28.9818C41.5089 28.766 41.6885 28.551 41.8682 28.3361C42.0478 28.1212 42.2275 27.9062 42.4062 27.6904C42.5615 27.5039 42.5615 27.2933 42.3882 27.1794C42.2907 27.1138 42.1535 27.0861 42.0307 27.0827C41.7418 27.0795 41.4522 27.08 41.1626 27.0804C40.8149 27.0809 40.4672 27.0814 40.1206 27.0758C39.8859 27.0723 39.7198 27.1517 39.5753 27.3313C38.7119 28.389 37.8441 29.4424 36.9771 30.4949C36.7345 30.7894 36.4921 31.0837 36.2497 31.3781C36.136 31.5162 36.0214 31.6552 35.9067 31.7942C35.7921 31.9331 35.6774 32.0721 35.5637 32.2102C35.5597 32.209 35.5551 32.2072 35.5503 32.2053C35.5421 32.2021 35.533 32.1986 35.524 32.1964V31.9927C35.524 30.9409 35.5236 29.8886 35.5232 28.8362C35.5224 26.7311 35.5216 24.6255 35.524 22.5214ZM47.8048 27.7456C47.357 27.9977 46.9635 28.305 46.5879 28.671V28.6707C46.5879 28.2461 46.5879 27.818 46.5843 27.3934C46.5843 27.1517 46.5302 27.0999 46.2882 27.0999H44.4323C44.2012 27.0999 44.1434 27.1552 44.1434 27.3796V39.7169C44.1434 39.9448 44.1976 39.9965 44.4323 39.9965H46.5446C46.8479 39.9965 46.8876 39.9586 46.8876 39.6616V33.2461C46.8876 32.5797 46.9707 31.9271 47.2271 31.3021C47.617 30.356 48.2886 29.6827 49.3538 29.4686C49.6869 29.4019 50.0359 29.3962 50.3831 29.3906C50.5026 29.3887 50.622 29.3867 50.7404 29.3823C50.9065 29.3754 51.004 29.3202 51.004 29.1613C51.0076 28.5329 51.0076 27.9079 51.004 27.2795C51.004 27.1345 50.9282 27.0482 50.7621 27.0585C50.6745 27.0631 50.5869 27.0662 50.4994 27.0692C50.3237 27.0754 50.1485 27.0815 49.9749 27.0999C49.2094 27.1794 48.4764 27.3693 47.8048 27.7456Z" clip-rule="evenodd"/></g><defs><clipPath id="a"><rect width="36" height="36" fill="#fff" transform="translate(24 13)"/></clipPath></defs></svg>