<svg xmlns="http://www.w3.org/2000/svg" enable-background="new 0 0 128 128" viewBox="0 0 128 128"><circle cx="64" cy="64" r="64" fill="#F66"/><path fill="#333" d="M55.005 83.731c-1.908.807-3.831 1.207-5.775 1.207-3.067 0-5.823-.531-8.269-1.596-2.45-1.064-4.516-2.535-6.197-4.4-1.681-1.871-2.972-4.068-3.868-6.588-.896-2.523-1.344-5.242-1.344-8.156 0-2.991.448-5.766 1.344-8.327.896-2.559 2.187-4.793 3.868-6.7 1.681-1.905 3.747-3.399 6.197-4.484 2.445-1.083 5.201-1.626 8.269-1.626 2.055 0 4.047.309 5.97.925s3.663 1.522 5.211 2.719c1.555 1.199 2.836 2.675 3.842 4.43 1.007 1.757 1.623 3.775 1.85 6.055h-8.41c-.522-2.242-1.534-3.923-3.025-5.046-1.497-1.122-3.309-1.681-5.438-1.681-1.981 0-3.663.385-5.049 1.148-1.38.767-2.503 1.795-3.362 3.083s-1.486 2.756-1.876 4.4c-.395 1.646-.59 3.346-.59 5.104 0 1.68.195 3.314.59 4.906.39 1.586 1.017 3.02 1.876 4.283.859 1.275 1.981 2.293 3.362 3.057 1.386.764 3.067 1.154 5.049 1.154 2.914 0 5.164-.744 6.755-2.219 1.586-1.475 2.514-3.615 2.772-6.418h-8.853v-6.559H66.72v21.641h-5.607l-.896-4.543C58.646 81.519 56.907 82.931 55.005 83.731zM79.698 76.839c.354.617.812 1.123 1.37 1.514.563.389 1.207.684 1.939.869.728.189 1.485.279 2.266.279.563 0 1.154-.064 1.766-.195.622-.131 1.181-.338 1.687-.617.5-.279.922-.652 1.26-1.121.337-.465.506-1.055.506-1.766 0-1.197-.797-2.092-2.383-2.693-1.591-.596-3.805-1.195-6.645-1.791-1.16-.264-2.293-.57-3.389-.928-1.106-.354-2.087-.822-2.945-1.402-.859-.576-1.55-1.307-2.076-2.184-.521-.877-.785-1.953-.785-3.223 0-1.868.368-3.402 1.096-4.598.727-1.196 1.691-2.139 2.888-2.829 1.196-.693 2.54-1.181 4.036-1.46 1.492-.279 3.025-.419 4.596-.419s3.088.15 4.568.448c1.476.3 2.793.804 3.953 1.512 1.158.712 2.118 1.655 2.887 2.833.765 1.178 1.223 2.663 1.376 4.455h-7.572c-.11-1.53-.69-2.568-1.733-3.111-1.049-.54-2.282-.812-3.705-.812-.448 0-.933.028-1.455.084-.526.056-1.001.177-1.428.363-.432.188-.795.459-1.096.814s-.448.833-.448 1.428c0 .712.264 1.292.785 1.739.522.449 1.207.813 2.045 1.094.843.279 1.802.533 2.888.756 1.086.225 2.188.467 3.31.73 1.159.262 2.286.576 3.394.951 1.102.375 2.081.869 2.94 1.486.858.617 1.55 1.381 2.076 2.297.521.918.78 2.045.78 3.395 0 1.906-.38 3.504-1.149 4.795-.764 1.285-1.765 2.324-2.998 3.109s-2.64 1.338-4.231 1.654-3.204.475-4.849.475c-1.687 0-3.325-.168-4.933-.506-1.612-.332-3.04-.896-4.289-1.676-1.254-.791-2.281-1.828-3.083-3.115-.806-1.291-1.249-2.902-1.317-4.848h7.567C79.166 75.485 79.34 76.218 79.698 76.839z"/></svg>