<svg xmlns="http://www.w3.org/2000/svg" enable-background="new 0 0 128 128" viewBox="0 0 128 128"><circle cx="64" cy="64" r="64" fill="#9CF"/><path fill="#333" d="M17.574 70.127h2.561c.88-1.195 1.602-2.488 2.155-3.885.559-1.395.985-2.917 1.286-4.569.295-1.651.496-3.446.596-5.383s.147-4.028.147-6.278v-4.739h22.126v24.854h3.33v12.6H43.71v-6.961H23.633v6.961h-6.06V70.127zM39.737 70.127V50.781h-9.011v.556c0 2.079-.053 4-.147 5.765-.1 1.766-.274 3.41-.517 4.933-.242 1.524-.58 2.948-1.022 4.272-.442 1.326-1.001 2.598-1.686 3.82H39.737zM52.51 53.685h5.807v14.948l8.331-14.948h6.877v22.081h-5.813V60.817l-8.326 14.948H52.51V53.685zM78.136 53.685H84.2v8.031h8.59v-8.031h6.059v22.081H92.79v-9.27H84.2v9.27h-6.064V53.685zM110.427 69.189v6.576h-6.709v-6.576H110.427z"/></svg>