<svg xmlns="http://www.w3.org/2000/svg" fill="none" viewBox="0 0 36 36"><g clip-path="url(#a)"><rect width="32" height="32" x="2" y="2" fill="#FFCD00" rx="16"/><path fill="#fff" fill-rule="evenodd" d="M22.7087 11.6772V11H23.586V11.6837C24.5708 11.8065 25.4421 12.1187 26.0734 12.9001C26.4857 13.4106 26.7011 14.0049 26.7947 14.696L26.5432 14.6961H26.5429C26.3826 14.6962 26.2277 14.6963 26.0725 14.696C25.9958 14.6957 25.9146 14.7029 25.8335 14.7102C25.6453 14.727 25.457 14.7438 25.323 14.6668C25.2104 14.602 25.1572 14.4353 25.1036 14.2673C25.0782 14.188 25.0528 14.1084 25.021 14.0391C24.7463 13.4397 24.2715 13.0997 23.6087 12.9617C23.6064 12.9879 23.6037 13.0125 23.6011 13.0361C23.5959 13.084 23.5911 13.1276 23.5911 13.1711C23.5908 13.5452 23.5911 13.9193 23.5915 14.2934L23.5915 14.2951V14.2952C23.5923 15.1943 23.5931 16.0933 23.5855 16.9921C23.5837 17.1931 23.6671 17.2436 23.8347 17.2988C23.913 17.3245 23.9916 17.35 24.0701 17.3755L24.0701 17.3755C24.5047 17.5165 24.9409 17.658 25.3531 17.849C26.3259 18.3011 26.9401 19.046 27.0633 20.1452C27.1592 20.9998 27.0823 21.828 26.6626 22.5933C26.0447 23.7193 25.0567 24.2817 23.8051 24.4262C23.7752 24.4295 23.7454 24.4322 23.7156 24.4348C23.6917 24.4369 23.6678 24.439 23.6439 24.4415C23.6402 24.4417 23.6367 24.4446 23.6267 24.453L23.6267 24.453C23.6193 24.4592 23.6084 24.4684 23.5911 24.4818C23.5911 24.5238 23.5907 24.5681 23.5902 24.6141V24.6141V24.6141C23.5892 24.7286 23.588 24.8533 23.5929 24.9779C23.5976 25.1025 23.5596 25.1706 23.4239 25.1557C23.4006 25.1532 23.3768 25.1539 23.353 25.1547H23.353C23.338 25.1552 23.3229 25.1556 23.3081 25.1553C23.2524 25.154 23.1916 25.1589 23.1308 25.1637L23.1308 25.1637C22.9898 25.175 22.8487 25.1862 22.7707 25.1215C22.6943 25.058 22.699 24.8892 22.7033 24.7329V24.7329C22.7045 24.6883 22.7057 24.6448 22.705 24.605C22.7027 24.4723 22.6324 24.4547 22.5301 24.429L22.5188 24.4262C22.4002 24.396 22.2806 24.3679 22.1608 24.3399L22.1608 24.3399C21.8146 24.2587 21.4677 24.1774 21.1435 24.0422C19.9512 23.5452 19.3559 22.5826 19.1623 21.3393C19.1436 21.2176 19.1314 21.0947 19.1192 20.9716L19.1192 20.9715L19.1169 20.9489C19.1152 20.9303 19.1186 20.9113 19.1233 20.8859L19.1233 20.8859C19.126 20.8714 19.1291 20.8548 19.1317 20.8349C19.2374 20.8349 19.343 20.8346 19.4484 20.8343L19.4491 20.8343H19.4491C19.8143 20.8333 20.1782 20.8322 20.5418 20.8437C20.5923 20.8451 20.6539 20.9637 20.684 21.0383C20.7389 21.1729 20.7885 21.3102 20.838 21.4474L20.8381 21.4474C20.9323 21.7083 21.0264 21.9689 21.1569 22.2102C21.4242 22.7049 21.8642 23.0171 22.4178 23.1519C22.4718 23.1649 22.5273 23.1713 22.5868 23.1782C22.616 23.1815 22.6462 23.185 22.6776 23.1894C22.6806 23.166 22.6841 23.1446 22.6874 23.1245L22.6874 23.1245C22.6937 23.0857 22.6992 23.0519 22.6989 23.018C22.6971 22.5189 22.6949 22.0197 22.6928 21.5206L22.6928 21.5202L22.6928 21.5184C22.6896 20.7693 22.6863 20.0201 22.6841 19.2711C22.6837 19.1016 22.6888 18.932 22.7031 18.7634C22.717 18.5999 22.6688 18.5202 22.4928 18.4781C21.8823 18.3303 21.3098 18.0853 20.7836 17.7393C19.6945 17.0236 19.2684 15.992 19.3703 14.721C19.5162 12.8992 20.7595 11.9945 22.3594 11.7379C22.4381 11.7254 22.5167 11.7114 22.6096 11.6948L22.7087 11.6772ZM23.8545 23.1496L23.8545 23.1496C24.0228 23.0985 24.1805 23.0507 24.3271 22.9796C25.1882 22.5622 25.6255 21.696 25.563 20.6126C25.4967 19.4629 24.6379 19.0052 23.6059 18.8088V23.2279C23.6912 23.1991 23.774 23.174 23.8545 23.1496ZM22.6837 12.9548C21.596 13.04 20.7817 13.9974 20.854 15.0869C20.9202 16.0851 21.8161 16.9995 22.6837 16.9481V12.9548ZM15.6944 15.0446C15.5501 15.0446 15.4092 15.0442 15.2705 15.0437H15.2705C14.9266 15.0425 14.5972 15.0413 14.2677 15.0479C14.1288 15.0507 14.1082 14.9674 14.0871 14.8821C14.0836 14.8678 14.0801 14.8534 14.0759 14.8394C13.8439 14.0501 13.3441 13.5341 12.5395 13.3289C11.4935 13.0626 10.3249 13.5809 9.91909 14.4939C9.59252 15.229 9.62078 16.4672 10.7732 16.9966C11.2065 17.1957 11.6674 17.3344 12.1284 17.4732L12.1284 17.4732C12.325 17.5323 12.5216 17.5915 12.716 17.6553C12.8652 17.7042 13.0157 17.7495 13.1661 17.7949C13.4436 17.8785 13.721 17.9622 13.9898 18.0676C15.5017 18.6609 16.077 19.7532 15.9909 21.3522C15.8788 23.4353 14.295 24.578 12.621 24.7878C11.2902 24.9551 10.0877 24.6507 9.09966 23.7035C8.39883 23.0313 8.08616 22.1772 8 21.1836C8.10245 21.1836 8.20324 21.1834 8.3029 21.1832H8.30299C8.52368 21.1828 8.73884 21.1825 8.95422 21.1841C9.0064 21.1845 9.06195 21.1804 9.11772 21.1763H9.11772C9.25943 21.1659 9.40251 21.1554 9.49525 21.2179C9.57224 21.2698 9.59806 21.3962 9.62414 21.5239C9.63665 21.5852 9.64923 21.6468 9.66756 21.7005C10.0066 22.7034 10.6357 23.3913 11.7233 23.5677C13.4696 23.8517 14.9505 22.1123 14.3488 20.4818C14.0912 19.7842 13.5057 19.4632 12.8531 19.2446C12.5071 19.1288 12.1582 19.0209 11.8094 18.9129L11.8094 18.9129L11.8094 18.9129C11.2761 18.7479 10.7428 18.5829 10.2197 18.39C9.3674 18.0754 8.69296 17.5191 8.42893 16.6126C7.85363 14.6356 8.67768 12.749 10.8506 12.1686C12.2018 11.8077 13.4733 12.0115 14.5753 12.9222C15.227 13.4609 15.5661 14.1808 15.6944 15.0446ZM17.9462 24.7501C18.0384 24.7498 18.1313 24.7495 18.2253 24.7495C18.2253 20.4749 18.2253 16.2351 18.2249 12H16.9316V12.227C16.932 16.3107 16.932 20.3948 16.932 24.4785C16.932 24.4906 16.9306 24.5035 16.9293 24.5164C16.9262 24.5451 16.9231 24.5736 16.9353 24.5924C16.9389 24.598 16.9428 24.6039 16.9467 24.61C16.9835 24.667 17.0313 24.7408 17.0756 24.7425C17.3628 24.752 17.6503 24.7511 17.9462 24.7501Z" clip-rule="evenodd"/><path fill="#fff" d="M22.7087 11V10.7H22.4087V11H22.7087ZM22.7087 11.6772L22.7612 11.9726L23.0087 11.9286V11.6772H22.7087ZM23.586 11H23.886V10.7H23.586V11ZM23.586 11.6837H23.286V11.9486L23.5489 11.9814L23.586 11.6837ZM26.0734 12.9001L26.3068 12.7116L26.3068 12.7116L26.0734 12.9001ZM26.7947 14.696L26.7948 14.996L27.138 14.9958L27.092 14.6557L26.7947 14.696ZM26.5432 14.6961V14.9961H26.5433L26.5432 14.6961ZM26.5429 14.6961V14.3961L26.5427 14.3961L26.5429 14.6961ZM26.0725 14.696L26.0714 14.996L26.0719 14.996L26.0725 14.696ZM25.8335 14.7102L25.8068 14.4114L25.8335 14.7102ZM25.323 14.6668L25.1734 14.9268L25.1735 14.9269L25.323 14.6668ZM25.1036 14.2673L25.3894 14.1761V14.1761L25.1036 14.2673ZM25.021 14.0391L24.7483 14.1641L24.7484 14.1643L25.021 14.0391ZM23.6087 12.9617L23.6699 12.668L23.3393 12.5992L23.3098 12.9355L23.6087 12.9617ZM23.6011 13.0361L23.8993 13.0688V13.0688L23.6011 13.0361ZM23.5911 13.1711L23.8911 13.1713V13.1711H23.5911ZM23.5915 14.2934L23.2915 14.2936L23.2915 14.2939L23.5915 14.2934ZM23.5915 14.2951H23.8915L23.8915 14.2946L23.5915 14.2951ZM23.5915 14.2952H23.2915V14.2954L23.5915 14.2952ZM23.5855 16.9921L23.8855 16.9949L23.8855 16.9946L23.5855 16.9921ZM23.8347 17.2988L23.9284 17.0138L23.9284 17.0138L23.8347 17.2988ZM24.0701 17.3755L24.1756 17.0943L24.1627 17.0901L24.0701 17.3755ZM24.0701 17.3755L23.9647 17.6567L23.9775 17.6608L24.0701 17.3755ZM25.3531 17.849L25.4796 17.577L25.4793 17.5768L25.3531 17.849ZM27.0633 20.1452L26.7652 20.1786L26.7652 20.1786L27.0633 20.1452ZM26.6626 22.5933L26.9257 22.7376L26.9257 22.7375L26.6626 22.5933ZM23.8051 24.4262L23.8385 24.7243L23.8395 24.7242L23.8051 24.4262ZM23.7156 24.4348L23.7419 24.7336L23.7419 24.7336L23.7156 24.4348ZM23.6439 24.4415L23.6652 24.7409L23.6748 24.7399L23.6439 24.4415ZM23.6267 24.453L23.8142 24.6873L23.8196 24.6828L23.6267 24.453ZM23.6267 24.453L23.4393 24.2187L23.4339 24.2232L23.6267 24.453ZM23.5911 24.4818L23.4077 24.2444L23.2911 24.3345V24.4818H23.5911ZM23.5902 24.6141L23.2902 24.6113V24.6141H23.5902ZM23.5902 24.6141L23.8902 24.617V24.6141H23.5902ZM23.5929 24.9779L23.8927 24.9667L23.8927 24.966L23.5929 24.9779ZM23.4239 25.1557L23.3911 25.454L23.3913 25.454L23.4239 25.1557ZM23.353 25.1547V25.4548L23.3624 25.4545L23.353 25.1547ZM23.353 25.1547V24.8545L23.3435 24.8548L23.353 25.1547ZM23.3081 25.1553L23.3153 24.8554L23.3148 24.8554L23.3081 25.1553ZM23.1308 25.1637L23.107 24.8647L23.0941 24.8657L23.0815 24.8678L23.1308 25.1637ZM23.1308 25.1637L23.1546 25.4628L23.1674 25.4618L23.1801 25.4596L23.1308 25.1637ZM22.7707 25.1215L22.5791 25.3523L22.5792 25.3523L22.7707 25.1215ZM22.7033 24.7329L23.0033 24.7411V24.7329H22.7033ZM22.7033 24.7329L22.4033 24.7246V24.7329H22.7033ZM22.705 24.605L22.405 24.61L22.405 24.6104L22.705 24.605ZM22.5301 24.429L22.4571 24.72L22.4572 24.7201L22.5301 24.429ZM22.5188 24.4262L22.4446 24.7169L22.4457 24.7172L22.5188 24.4262ZM22.1608 24.3399L22.0881 24.6309L22.0924 24.632L22.1608 24.3399ZM22.1608 24.3399L22.2336 24.0488L22.2292 24.0478L22.1608 24.3399ZM21.1435 24.0422L21.259 23.7653L21.2589 23.7653L21.1435 24.0422ZM19.1623 21.3393L18.8658 21.385L18.8659 21.3855L19.1623 21.3393ZM19.1192 20.9716L18.8205 20.9996L18.8206 21.0012L19.1192 20.9716ZM19.1192 20.9715L19.4179 20.9435L19.4177 20.9419L19.1192 20.9715ZM19.1169 20.9489L18.8183 20.9773L18.8184 20.9785L19.1169 20.9489ZM19.1233 20.8859L19.4184 20.9402L19.4192 20.9352L19.1233 20.8859ZM19.1233 20.8859L18.8282 20.8315L18.8274 20.8365L19.1233 20.8859ZM19.1317 20.8349V20.5349H18.8697L18.8345 20.7946L19.1317 20.8349ZM19.4484 20.8343L19.4493 21.1343L19.4497 21.1343L19.4484 20.8343ZM19.4491 20.8343V20.5343L19.4478 20.5343L19.4491 20.8343ZM19.4491 20.8343V21.1343L19.45 21.1343L19.4491 20.8343ZM20.5418 20.8437L20.5323 21.1436L20.5335 21.1436L20.5418 20.8437ZM20.684 21.0383L20.4058 21.1506L20.4062 21.1516L20.684 21.0383ZM20.838 21.4474L21.1227 21.3525L21.1202 21.3455L20.838 21.4474ZM20.8381 21.4474L20.5534 21.5423L20.5559 21.5493L20.8381 21.4474ZM21.1569 22.2102L21.4209 22.0676L21.4208 22.0675L21.1569 22.2102ZM22.4178 23.1519L22.3468 23.4434L22.3474 23.4435L22.4178 23.1519ZM22.5868 23.1782L22.621 22.8801H22.621L22.5868 23.1782ZM22.6776 23.1894L22.6358 23.4865L22.9365 23.5288L22.9752 23.2276L22.6776 23.1894ZM22.6874 23.1245L22.3915 23.0752L22.3913 23.0762L22.6874 23.1245ZM22.6874 23.1245L22.9833 23.1738L22.9835 23.1728L22.6874 23.1245ZM22.6989 23.018L22.3989 23.0191L22.399 23.0207L22.6989 23.018ZM22.6928 21.5206L22.9928 21.5193L22.9928 21.518L22.6928 21.5206ZM22.6928 21.5202L22.3928 21.5216L22.3928 21.5228L22.6928 21.5202ZM22.6928 21.5184L22.3928 21.5197L22.3928 21.5198L22.6928 21.5184ZM22.6841 19.2711L22.3841 19.2719L22.3841 19.272L22.6841 19.2711ZM22.7031 18.7634L23.002 18.7889L23.002 18.7888L22.7031 18.7634ZM22.4928 18.4781L22.4222 18.7697L22.4229 18.7698L22.4928 18.4781ZM20.7836 17.7393L20.9484 17.4886L20.9483 17.4886L20.7836 17.7393ZM19.3703 14.721L19.6693 14.745L19.6693 14.7449L19.3703 14.721ZM22.3594 11.7379L22.3124 11.4416L22.3119 11.4417L22.3594 11.7379ZM22.6096 11.6948L22.5571 11.3995L22.5569 11.3995L22.6096 11.6948ZM23.8545 23.1496L23.937 23.4381L23.9416 23.4366L23.8545 23.1496ZM23.8545 23.1496L23.7721 22.8611L23.7674 22.8625L23.8545 23.1496ZM24.3271 22.9796L24.1963 22.7096L24.1962 22.7097L24.3271 22.9796ZM25.563 20.6126L25.2635 20.6298L25.2635 20.6299L25.563 20.6126ZM23.6059 18.8088L23.662 18.5141L23.3059 18.4463V18.8088H23.6059ZM23.6059 23.2279H23.3059V23.6457L23.7018 23.5121L23.6059 23.2279ZM20.854 15.0869L20.5546 15.1068V15.1068L20.854 15.0869ZM22.6837 12.9548H22.9837V12.6303L22.6602 12.6557L22.6837 12.9548ZM22.6837 16.9481L22.7014 17.2476L22.9837 17.2308V16.9481H22.6837ZM15.2705 15.0437L15.2716 14.7437H15.2705V15.0437ZM15.6944 15.0446V15.3446H16.0423L15.9912 15.0006L15.6944 15.0446ZM15.2705 15.0437L15.2694 15.3437H15.2705V15.0437ZM14.2677 15.0479L14.2737 15.3478L14.2737 15.3478L14.2677 15.0479ZM14.0871 14.8821L13.7959 14.9541L13.7959 14.9541L14.0871 14.8821ZM14.0759 14.8394L14.3638 14.7549L14.3638 14.7548L14.0759 14.8394ZM12.5395 13.3289L12.6136 13.0382L12.6135 13.0382L12.5395 13.3289ZM9.91909 14.4939L9.64494 14.372L9.64492 14.3721L9.91909 14.4939ZM10.7732 16.9966L10.8985 16.724L10.8985 16.724L10.7732 16.9966ZM12.1284 17.4732L12.0419 17.7605L12.0495 17.7626L12.1284 17.4732ZM12.1284 17.4732L12.2149 17.1858L12.2074 17.1837L12.1284 17.4732ZM12.716 17.6553L12.6224 17.9403L12.6226 17.9404L12.716 17.6553ZM13.1661 17.7949L13.2527 17.5077H13.2527L13.1661 17.7949ZM13.9898 18.0676L14.0994 17.7883L14.0993 17.7883L13.9898 18.0676ZM15.9909 21.3522L15.6913 21.3361L15.6913 21.3361L15.9909 21.3522ZM12.621 24.7878L12.5837 24.4902L12.5836 24.4902L12.621 24.7878ZM9.09966 23.7035L8.89202 23.92L8.89205 23.92L9.09966 23.7035ZM8 21.1836V20.8836H7.67286L7.70112 21.2095L8 21.1836ZM8.3029 21.1832V20.8832L8.30236 20.8832L8.3029 21.1832ZM8.30299 21.1832V21.4832L8.30353 21.4832L8.30299 21.1832ZM8.95422 21.1841L8.95647 20.8841H8.95644L8.95422 21.1841ZM9.11772 21.1763V20.8763H9.10672L9.09576 20.8771L9.11772 21.1763ZM9.11772 21.1763V21.4763H9.12872L9.13968 21.4755L9.11772 21.1763ZM9.49525 21.2179L9.66305 20.9692L9.66289 20.9691L9.49525 21.2179ZM9.62414 21.5239L9.3302 21.5839L9.62414 21.5239ZM9.66756 21.7005L9.95176 21.6045L9.95153 21.6038L9.66756 21.7005ZM11.7233 23.5677L11.7714 23.2716L11.7713 23.2716L11.7233 23.5677ZM14.3488 20.4818L14.6302 20.378L14.6302 20.3779L14.3488 20.4818ZM12.8531 19.2446L12.9484 18.9601L12.9483 18.9601L12.8531 19.2446ZM11.8094 18.9129L11.8981 18.6264L11.8864 18.6227L11.8745 18.6201L11.8094 18.9129ZM11.8094 18.9129L11.7232 19.2003L11.7337 19.2034L11.7443 19.2058L11.8094 18.9129ZM11.8094 18.9129L11.7207 19.1995L11.7232 19.2003L11.8094 18.9129ZM10.2197 18.39L10.1158 18.6714L10.1159 18.6714L10.2197 18.39ZM8.42893 16.6126L8.14088 16.6964L8.1409 16.6965L8.42893 16.6126ZM10.8506 12.1686L10.7732 11.8787L10.7732 11.8787L10.8506 12.1686ZM14.5753 12.9222L14.7664 12.691L14.7664 12.691L14.5753 12.9222ZM18.2253 24.7495V25.0495H18.5253V24.7495H18.2253ZM17.9462 24.7501L17.9452 24.4501H17.9452L17.9462 24.7501ZM18.2249 12L18.5249 12L18.5248 11.7H18.2249V12ZM16.9316 12V11.7H16.6316V12H16.9316ZM16.9316 12.227H16.6316V12.227L16.9316 12.227ZM16.9293 24.5164L16.631 24.4845L16.631 24.4845L16.9293 24.5164ZM16.9353 24.5924L16.6831 24.7549L16.6844 24.757L16.9353 24.5924ZM16.9467 24.61L16.6948 24.7729L16.6948 24.7729L16.9467 24.61ZM17.0756 24.7425L17.0643 25.0423L17.0657 25.0423L17.0756 24.7425ZM22.4087 11V11.6772H23.0087V11H22.4087ZM23.586 10.7H22.7087V11.3H23.586V10.7ZM23.886 11.6837V11H23.286V11.6837H23.886ZM26.3068 12.7116C25.607 11.8454 24.6471 11.5136 23.6231 11.386L23.5489 11.9814C24.4945 12.0993 25.2772 12.3919 25.8401 13.0886L26.3068 12.7116ZM27.092 14.6557C26.993 13.9249 26.7618 13.2749 26.3068 12.7116L25.8401 13.0886C26.2097 13.5462 26.4092 14.0848 26.4974 14.7362L27.092 14.6557ZM26.5433 14.9961L26.7948 14.996L26.7945 14.396L26.5431 14.3961L26.5433 14.9961ZM26.5429 14.9961H26.5432V14.3961H26.5429V14.9961ZM26.0719 14.996C26.2275 14.9963 26.3829 14.9962 26.5431 14.9961L26.5427 14.3961C26.3824 14.3962 26.2278 14.3963 26.0731 14.396L26.0719 14.996ZM25.8602 15.009C25.9443 15.0015 26.0111 14.9957 26.0714 14.996L26.0736 14.396C25.9804 14.3956 25.885 14.4044 25.8068 14.4114L25.8602 15.009ZM25.1735 14.9269C25.3003 14.9997 25.4361 15.0193 25.5465 15.0235C25.6565 15.0276 25.7704 15.017 25.8602 15.009L25.8068 14.4114C25.7084 14.4202 25.6341 14.4264 25.5693 14.4239C25.5051 14.4214 25.4798 14.4109 25.4726 14.4067L25.1735 14.9269ZM24.8178 14.3586C24.843 14.4375 24.8759 14.5426 24.9209 14.6359C24.965 14.7275 25.0397 14.8499 25.1734 14.9268L25.4727 14.4068C25.4937 14.4189 25.4855 14.4255 25.4615 14.3755C25.4383 14.3274 25.4178 14.2651 25.3894 14.1761L24.8178 14.3586ZM24.7484 14.1643C24.7712 14.2139 24.7912 14.2751 24.8178 14.3586L25.3894 14.1761C25.3653 14.1008 25.3345 14.0029 25.2937 13.9139L24.7484 14.1643ZM23.5475 13.2554C24.1301 13.3767 24.5186 13.6628 24.7483 14.1641L25.2938 13.9141C24.9741 13.2166 24.4129 12.8227 23.6699 12.668L23.5475 13.2554ZM23.8993 13.0688C23.9019 13.0455 23.9049 13.0178 23.9075 12.9879L23.3098 12.9355C23.3079 12.9579 23.3055 12.9795 23.3029 13.0034L23.8993 13.0688ZM23.8911 13.1711C23.8911 13.1469 23.8937 13.1199 23.8993 13.0688L23.3029 13.0034C23.298 13.0481 23.2911 13.1084 23.2911 13.1711H23.8911ZM23.8915 14.2931C23.8911 13.919 23.8908 13.5451 23.8911 13.1713L23.2911 13.1709C23.2908 13.5452 23.2911 13.9196 23.2915 14.2936L23.8915 14.2931ZM23.8915 14.2946L23.8915 14.2929L23.2915 14.2939L23.2915 14.2956L23.8915 14.2946ZM23.8915 14.2952V14.2951H23.2915V14.2952H23.8915ZM23.8855 16.9946C23.8931 16.0942 23.8923 15.1938 23.8915 14.2949L23.2915 14.2954C23.2923 15.1948 23.293 16.0924 23.2855 16.9896L23.8855 16.9946ZM23.9284 17.0138C23.9101 17.0077 23.8956 17.0026 23.8835 16.998C23.8715 16.9934 23.8636 16.9898 23.8586 16.9873C23.8484 16.9823 23.8552 16.984 23.8661 16.9957C23.8716 17.0016 23.8767 17.0085 23.8807 17.0157C23.8847 17.0228 23.8867 17.0283 23.8874 17.0307C23.8886 17.0345 23.8852 17.0257 23.8855 16.9949L23.2855 16.9893C23.2843 17.1296 23.3124 17.2815 23.427 17.4046C23.5269 17.5119 23.6598 17.557 23.7411 17.5837L23.9284 17.0138ZM24.1627 17.0901C24.084 17.0646 24.0061 17.0393 23.9284 17.0138L23.741 17.5837C23.82 17.6097 23.8991 17.6354 23.9775 17.6608L24.1627 17.0901ZM24.1755 17.0946L24.1755 17.0946L23.9648 17.6564L23.9648 17.6564L24.1755 17.0946ZM25.4793 17.5768C25.0479 17.3769 24.5943 17.2301 24.1627 17.0901L23.9775 17.6608C24.4151 17.8028 24.8339 17.9391 25.227 18.1212L25.4793 17.5768ZM27.3615 20.1118C27.2251 18.8957 26.5349 18.0675 25.4796 17.577L25.2267 18.1211C26.1169 18.5348 26.6551 19.1963 26.7652 20.1786L27.3615 20.1118ZM26.9257 22.7375C27.3844 21.9011 27.4617 21.0052 27.3615 20.1117L26.7652 20.1786C26.8567 20.9944 26.7802 21.755 26.3996 22.449L26.9257 22.7375ZM23.8395 24.7242C25.1716 24.5704 26.2536 23.9622 26.9257 22.7376L26.3996 22.4489C25.8358 23.4765 24.9418 23.9929 23.7707 24.1282L23.8395 24.7242ZM23.7419 24.7336C23.7712 24.7311 23.8045 24.7281 23.8385 24.7243L23.7717 24.1281C23.746 24.1309 23.7197 24.1333 23.6892 24.136L23.7419 24.7336ZM23.6748 24.7399C23.696 24.7377 23.7176 24.7358 23.7419 24.7336L23.6892 24.136C23.6657 24.138 23.6396 24.1403 23.613 24.1431L23.6748 24.7399ZM23.8196 24.6828C23.8227 24.6802 23.8228 24.6801 23.8225 24.6804C23.8225 24.6804 23.8174 24.6846 23.8097 24.69C23.7951 24.7002 23.7432 24.7352 23.6652 24.7407L23.6226 24.1422C23.5409 24.1481 23.4854 24.1846 23.4656 24.1984C23.4554 24.2056 23.4473 24.2121 23.4437 24.2151C23.4398 24.2182 23.4358 24.2216 23.4339 24.2232L23.8196 24.6828ZM23.8141 24.6873L23.8141 24.6873L23.4393 24.2188L23.4393 24.2188L23.8141 24.6873ZM23.7745 24.7192C23.7965 24.7022 23.811 24.69 23.8196 24.6828L23.4339 24.2232C23.4277 24.2284 23.4203 24.2347 23.4077 24.2444L23.7745 24.7192ZM23.8902 24.6169C23.8907 24.5713 23.8911 24.5255 23.8911 24.4818H23.2911C23.2911 24.5222 23.2907 24.565 23.2903 24.6113L23.8902 24.6169ZM23.8902 24.6141V24.6141H23.2902V24.6141H23.8902ZM23.8902 24.6141V24.6141H23.2902V24.6141H23.8902ZM23.8927 24.966C23.8881 24.8499 23.8891 24.7325 23.8902 24.617L23.2903 24.6113C23.2892 24.7247 23.2879 24.8566 23.2932 24.9898L23.8927 24.966ZM23.3913 25.454C23.5033 25.4662 23.6712 25.454 23.7905 25.3123C23.8927 25.1909 23.8956 25.0432 23.8927 24.9667L23.2931 24.989C23.2938 25.0059 23.2922 25.0069 23.2941 24.998C23.2962 24.9882 23.3043 24.9583 23.3315 24.9259C23.3613 24.8905 23.3982 24.8709 23.4282 24.8626C23.4536 24.8556 23.4665 24.8586 23.4564 24.8575L23.3913 25.454ZM23.3624 25.4545C23.3752 25.4541 23.3819 25.454 23.3877 25.454C23.3929 25.454 23.3934 25.4542 23.3911 25.454L23.4566 24.8575C23.4087 24.8523 23.3635 24.8542 23.3435 24.8548L23.3624 25.4545ZM23.353 25.4547H23.353V24.8547H23.353V25.4547ZM23.3008 25.4552C23.3255 25.4558 23.3489 25.455 23.3624 25.4545L23.3435 24.8548C23.327 24.8554 23.3204 24.8555 23.3153 24.8554L23.3008 25.4552ZM23.1546 25.4628C23.219 25.4576 23.2638 25.4544 23.3013 25.4552L23.3148 24.8554C23.2409 24.8537 23.1642 24.8601 23.107 24.8647L23.1546 25.4628ZM23.1801 25.4596L23.1801 25.4596L23.0815 24.8678L23.0814 24.8678L23.1801 25.4596ZM22.5792 25.3523C22.6916 25.4456 22.824 25.4653 22.9086 25.4705C22.9966 25.4759 23.0896 25.468 23.1546 25.4628L23.1069 24.8647C23.0708 24.8675 23.0404 24.8699 23.0118 24.8713C22.9834 24.8726 22.962 24.8727 22.9457 24.8717C22.929 24.8706 22.9237 24.8688 22.9258 24.8695C22.9286 24.8703 22.9439 24.8753 22.9623 24.8906L22.5792 25.3523ZM22.4034 24.7246C22.4014 24.7971 22.398 24.9009 22.4086 24.9956C22.4176 25.075 22.4441 25.2402 22.5791 25.3523L22.9624 24.8906C22.9953 24.918 23.0064 24.9457 23.0081 24.9502C23.0098 24.9546 23.0072 24.9493 23.0049 24.9284C23.0026 24.9085 23.0014 24.8827 23.0012 24.8494C23.0011 24.8161 23.0021 24.781 23.0031 24.7411L22.4034 24.7246ZM22.4033 24.7329V24.7329H23.0033V24.7329H22.4033ZM22.405 24.6104C22.4056 24.6421 22.4046 24.6784 22.4034 24.7246L23.0031 24.7411C23.0043 24.6982 23.0058 24.6475 23.0049 24.5996L22.405 24.6104ZM22.4572 24.7201C22.4861 24.7273 22.4957 24.7299 22.5015 24.7319C22.5058 24.7334 22.49 24.7287 22.4692 24.7123C22.4446 24.693 22.425 24.6668 22.4136 24.6391C22.4038 24.6153 22.4049 24.6018 22.405 24.61L23.0049 24.5999C23.0028 24.4768 22.9648 24.3391 22.8409 24.2414C22.7491 24.1689 22.6337 24.1457 22.603 24.138L22.4572 24.7201ZM22.4457 24.7172L22.4571 24.72L22.6031 24.1381L22.5918 24.1352L22.4457 24.7172ZM22.0924 24.632C22.2126 24.6601 22.3294 24.6875 22.4446 24.7169L22.5929 24.1355C22.471 24.1044 22.3485 24.0757 22.2293 24.0478L22.0924 24.632ZM22.088 24.6309L22.0881 24.6309L22.2336 24.0488L22.2336 24.0488L22.088 24.6309ZM21.028 24.3191C21.379 24.4655 21.7505 24.5519 22.0924 24.6319L22.2292 24.0478C21.8787 23.9656 21.5564 23.8894 21.259 23.7653L21.028 24.3191ZM18.8659 21.3855C19.0717 22.7071 19.7182 23.7731 21.028 24.3191L21.2589 23.7653C20.1841 23.3173 19.6402 22.4582 19.4587 21.2932L18.8659 21.3855ZM18.8206 21.0012C18.8327 21.1229 18.8456 21.2539 18.8658 21.385L19.4588 21.2937C19.4415 21.1813 19.43 21.0664 19.4177 20.942L18.8206 21.0012ZM18.8205 20.9995L18.8205 20.9996L19.4179 20.9436L19.4179 20.9435L18.8205 20.9995ZM18.8184 20.9785L18.8206 21.0011L19.4177 20.9419L19.4155 20.9193L18.8184 20.9785ZM18.8283 20.8316C18.8257 20.8455 18.8117 20.9088 18.8183 20.9773L19.4156 20.9204C19.4174 20.9395 19.4159 20.953 19.4155 20.9559C19.4154 20.9573 19.4154 20.957 19.4159 20.954C19.4164 20.9508 19.4171 20.947 19.4184 20.9402L18.8283 20.8316ZM18.8274 20.8365L18.8274 20.8366L19.4192 20.9352L19.4192 20.9352L18.8274 20.8365ZM18.8345 20.7946C18.8328 20.8067 18.831 20.817 18.8283 20.8316L19.4184 20.9402C19.421 20.9257 19.4253 20.9028 19.429 20.8752L18.8345 20.7946ZM19.4476 20.5343C19.3421 20.5346 19.2369 20.5349 19.1317 20.5349V21.1349C19.2379 21.1349 19.3439 21.1346 19.4493 21.1343L19.4476 20.5343ZM19.4478 20.5343L19.4471 20.5343L19.4497 21.1343L19.4504 21.1343L19.4478 20.5343ZM19.4491 20.5343H19.4491V21.1343H19.4491V20.5343ZM20.5512 20.5439C20.1816 20.5322 19.8126 20.5333 19.4482 20.5343L19.45 21.1343C19.816 21.1333 20.1747 21.1323 20.5323 21.1436L20.5512 20.5439ZM20.9622 20.926C20.9427 20.8777 20.9114 20.8105 20.8719 20.7499C20.8527 20.7203 20.8242 20.6808 20.7859 20.6451C20.7552 20.6163 20.6735 20.5472 20.55 20.5438L20.5335 21.1436C20.4817 21.1422 20.4425 21.1262 20.4195 21.1139C20.3967 21.1017 20.3824 21.0892 20.3762 21.0833C20.3646 21.0726 20.3628 21.0676 20.3691 21.0772C20.3806 21.0948 20.3951 21.1242 20.4058 21.1506L20.9622 20.926ZM21.1202 21.3455C21.071 21.2092 21.0194 21.0661 20.9617 20.9249L20.4062 21.1516C20.4584 21.2796 20.506 21.4111 20.5559 21.5493L21.1202 21.3455ZM21.1227 21.3525L21.1227 21.3525L20.5534 21.5423L20.5534 21.5423L21.1227 21.3525ZM21.4208 22.0675C21.3027 21.8492 21.2158 21.6101 21.1202 21.3455L20.5559 21.5493C20.6488 21.8065 20.75 22.0885 20.893 22.3529L21.4208 22.0675ZM22.4888 22.8604C22.0082 22.7434 21.6433 22.4794 21.4209 22.0676L20.893 22.3528C21.205 22.9304 21.7203 23.2908 22.3468 23.4434L22.4888 22.8604ZM22.621 22.8801C22.5581 22.8729 22.5212 22.8683 22.4882 22.8603L22.3474 23.4435C22.4224 23.4616 22.4965 23.4698 22.5525 23.4762L22.621 22.8801ZM22.7195 22.8923C22.6837 22.8873 22.6498 22.8834 22.621 22.8801L22.5525 23.4762C22.5822 23.4796 22.6087 23.4827 22.6358 23.4865L22.7195 22.8923ZM22.3913 23.0762C22.3881 23.0959 22.3838 23.1221 22.3801 23.1512L22.9752 23.2276C22.9775 23.21 22.9801 23.1933 22.9835 23.1728L22.3913 23.0762ZM22.3915 23.0752L22.3915 23.0752L22.9833 23.1738L22.9833 23.1738L22.3915 23.0752ZM22.399 23.0207C22.399 23.0206 22.399 23.0238 22.3979 23.0332C22.3966 23.0436 22.3947 23.0556 22.3913 23.0762L22.9835 23.1728C22.9889 23.1395 22.9995 23.0795 22.9989 23.0153L22.399 23.0207ZM22.3928 21.5218C22.3949 22.0211 22.3971 22.5201 22.3989 23.0191L22.9989 23.0169C22.9971 22.5177 22.9949 22.0184 22.9928 21.5193L22.3928 21.5218ZM22.3928 21.5228L22.3928 21.5231L22.9928 21.518L22.9928 21.5176L22.3928 21.5228ZM22.3928 21.5198L22.3928 21.5216L22.9928 21.5188L22.9928 21.517L22.3928 21.5198ZM22.3841 19.272C22.3863 20.0212 22.3896 20.7706 22.3928 21.5197L22.9928 21.5171C22.9896 20.7679 22.9863 20.019 22.9841 19.2702L22.3841 19.272ZM22.4042 18.738C22.3889 18.9174 22.3836 19.096 22.3841 19.2719L22.9841 19.2703C22.9837 19.1072 22.9886 18.9467 23.002 18.7889L22.4042 18.738ZM22.4229 18.7698C22.4362 18.773 22.4454 18.7759 22.4513 18.778C22.4572 18.7801 22.4588 18.7812 22.4575 18.7804C22.456 18.7796 22.4513 18.7768 22.4449 18.7713C22.4383 18.7656 22.431 18.7581 22.4244 18.7486C22.4177 18.7392 22.4129 18.7298 22.4097 18.7217C22.4066 18.7137 22.4055 18.7082 22.4051 18.7063C22.4048 18.7045 22.4052 18.7059 22.4053 18.7115C22.4054 18.7171 22.4052 18.7257 22.4042 18.738L23.002 18.7888C23.011 18.6829 23.0079 18.5344 22.914 18.4019C22.8196 18.2686 22.6782 18.214 22.5627 18.1863L22.4229 18.7698ZM20.6187 17.9899C21.1746 18.3555 21.7792 18.614 22.4222 18.7697L22.5634 18.1865C21.9854 18.0466 21.4449 17.8151 20.9484 17.4886L20.6187 17.9899ZM19.0713 14.697C19.0171 15.3723 19.1021 16.0008 19.3572 16.5625C19.613 17.1257 20.0322 17.6045 20.6188 17.99L20.9483 17.4886C20.4459 17.1584 20.1075 16.7635 19.9035 16.3143C19.6987 15.8636 19.6216 15.3408 19.6693 14.745L19.0713 14.697ZM22.3119 11.4417C21.472 11.5764 20.7008 11.885 20.1166 12.4216C19.5273 12.9629 19.1497 13.7171 19.0713 14.697L19.6693 14.7449C19.7368 13.903 20.0538 13.294 20.5225 12.8634C20.9965 12.4281 21.6469 12.156 22.4069 12.0341L22.3119 11.4417ZM22.5569 11.3995C22.4635 11.4162 22.3877 11.4297 22.3124 11.4416L22.4064 12.0342C22.4884 12.0212 22.57 12.0066 22.6622 11.9902L22.5569 11.3995ZM22.6562 11.3818L22.5571 11.3995L22.6621 11.9902L22.7612 11.9726L22.6562 11.3818ZM23.7721 22.8611L23.7721 22.8611L23.9369 23.438L23.9369 23.438L23.7721 22.8611ZM24.1962 22.7097C24.0745 22.7687 23.9401 22.8101 23.7675 22.8625L23.9416 23.4366C24.1055 23.387 24.2864 23.3328 24.4581 23.2495L24.1962 22.7097ZM25.2635 20.6299C25.3206 21.6189 24.9261 22.3559 24.1963 22.7096L24.458 23.2495C25.4504 22.7686 25.9305 21.7731 25.8625 20.5953L25.2635 20.6299ZM23.5498 19.1035C24.0449 19.1977 24.4621 19.3488 24.7588 19.5871C25.0432 19.8155 25.2351 20.138 25.2635 20.6298L25.8625 20.5953C25.8246 19.9375 25.554 19.4562 25.1345 19.1193C24.7272 18.7922 24.199 18.6163 23.662 18.5141L23.5498 19.1035ZM23.9059 23.2279V18.8088H23.3059V23.2279H23.9059ZM23.7674 22.8625C23.6876 22.8867 23.6003 22.9131 23.51 22.9436L23.7018 23.5121C23.782 23.4851 23.8605 23.4612 23.9416 23.4367L23.7674 22.8625ZM21.1533 15.0671C21.0917 14.1385 21.7862 13.326 22.7071 13.2538L22.6602 12.6557C21.4058 12.754 20.4717 13.8564 20.5546 15.1068L21.1533 15.0671ZM22.6659 16.6486C22.3428 16.6678 21.9816 16.5057 21.6824 16.2009C21.3853 15.8984 21.1811 15.4856 21.1533 15.0671L20.5546 15.1068C20.5931 15.6864 20.8699 16.2299 21.2543 16.6213C21.6364 17.0105 22.1569 17.2798 22.7014 17.2476L22.6659 16.6486ZM22.3837 12.9548V16.9481H22.9837V12.9548H22.3837ZM15.2695 15.3437C15.408 15.3442 15.5495 15.3446 15.6944 15.3446V14.7446C15.5508 14.7446 15.4103 14.7442 15.2716 14.7437L15.2695 15.3437ZM15.2705 15.3437H15.2705V14.7437H15.2705V15.3437ZM14.2737 15.3478C14.599 15.3413 14.9249 15.3424 15.2694 15.3437L15.2716 14.7437C14.9283 14.7425 14.5953 14.7413 14.2617 14.748L14.2737 15.3478ZM13.7959 14.9541C13.8024 14.9804 13.825 15.0938 13.8999 15.1865C13.9976 15.3075 14.1369 15.3506 14.2737 15.3478L14.2617 14.748C14.2562 14.7481 14.271 14.7469 14.2956 14.7567C14.3232 14.7678 14.3483 14.7868 14.3666 14.8095C14.3748 14.8197 14.38 14.8285 14.3831 14.8344C14.3846 14.8373 14.3857 14.8396 14.3863 14.8411C14.3866 14.8419 14.3868 14.8424 14.387 14.8428C14.3871 14.843 14.3871 14.8431 14.3872 14.8432C14.3872 14.8433 14.3872 14.8433 14.3872 14.8433C14.3872 14.8434 14.3872 14.8434 14.3872 14.8434C14.3872 14.8434 14.3872 14.8434 14.3872 14.8433C14.3872 14.8433 14.3872 14.8433 14.3872 14.8432C14.3871 14.8431 14.3871 14.843 14.387 14.8428C14.3869 14.8424 14.3867 14.8419 14.3865 14.8412C14.386 14.8397 14.3854 14.8376 14.3846 14.8347C14.3829 14.8284 14.3812 14.8214 14.3784 14.8101L13.7959 14.9541ZM13.7881 14.924C13.7901 14.9307 13.7921 14.9387 13.7959 14.9541L14.3784 14.8101C14.3751 14.7969 14.37 14.7762 14.3638 14.7549L13.7881 14.924ZM12.4653 13.6196C13.1604 13.7969 13.5839 14.2293 13.7881 14.9241L14.3638 14.7548C14.1039 13.871 13.5277 13.2714 12.6136 13.0382L12.4653 13.6196ZM10.1932 14.6157C10.5326 13.8521 11.5439 13.385 12.4654 13.6196L12.6135 13.0382C11.4432 12.7402 10.1171 13.3097 9.64494 14.372L10.1932 14.6157ZM10.8985 16.724C10.4131 16.501 10.1744 16.1387 10.0835 15.7535C9.9899 15.3566 10.0535 14.9302 10.1933 14.6157L9.64492 14.3721C9.45807 14.7927 9.37256 15.3529 9.49954 15.8913C9.62928 16.4412 9.98092 16.9628 10.648 17.2692L10.8985 16.724ZM12.2149 17.1859C11.7504 17.0461 11.3096 16.9129 10.8985 16.724L10.648 17.2692C11.1033 17.4784 11.5845 17.6228 12.042 17.7604L12.2149 17.1859ZM12.2074 17.1837L12.2074 17.1837L12.0495 17.7626L12.0495 17.7626L12.2074 17.1837ZM12.8095 17.3703C12.611 17.3051 12.4108 17.2449 12.2149 17.1859L12.042 17.7604C12.2391 17.8198 12.4321 17.8779 12.6224 17.9403L12.8095 17.3703ZM13.2527 17.5077C13.1017 17.4621 12.9546 17.4178 12.8093 17.3702L12.6226 17.9404C12.7757 17.9906 12.9297 18.037 13.0796 18.0821L13.2527 17.5077ZM14.0993 17.7883C13.8173 17.6777 13.5282 17.5907 13.2527 17.5077L13.0796 18.0821C13.359 18.1664 13.6247 18.2466 13.8803 18.3469L14.0993 17.7883ZM16.2904 21.3683C16.3355 20.5311 16.2093 19.7942 15.8481 19.1806C15.485 18.5636 14.9034 18.1039 14.0994 17.7883L13.8802 18.3468C14.5881 18.6246 15.0501 19.0077 15.3311 19.485C15.614 19.9656 15.7323 20.5743 15.6913 21.3361L16.2904 21.3683ZM12.6583 25.0855C14.436 24.8627 16.1685 23.6335 16.2904 21.3683L15.6913 21.3361C15.589 23.237 14.1541 24.2933 12.5837 24.4902L12.6583 25.0855ZM8.89205 23.92C9.95576 24.9398 11.2532 25.2621 12.6584 25.0855L12.5836 24.4902C11.3272 24.6481 10.2196 24.3616 9.30728 23.4869L8.89205 23.92ZM7.70112 21.2095C7.7916 22.2529 8.12427 23.1837 8.89202 23.92L9.30731 23.4869C8.67338 22.879 8.38072 22.1015 8.29888 21.1577L7.70112 21.2095ZM8.30236 20.8832C8.20266 20.8834 8.10214 20.8836 8 20.8836V21.4836C8.10276 21.4836 8.20381 21.4834 8.30343 21.4832L8.30236 20.8832ZM8.30299 20.8832H8.3029V21.4832H8.30299V20.8832ZM8.95644 20.8841C8.73945 20.8825 8.52291 20.8828 8.30246 20.8832L8.30353 21.4832C8.52445 21.4828 8.73823 21.4825 8.95199 21.4841L8.95644 20.8841ZM9.09576 20.8771C9.03738 20.8814 8.99432 20.8844 8.95647 20.8841L8.95196 21.4841C9.01849 21.4846 9.08653 21.4794 9.13967 21.4755L9.09576 20.8771ZM9.11772 20.8763H9.11772V21.4763H9.11772V20.8763ZM9.66289 20.9691C9.55214 20.8945 9.43085 20.8755 9.34273 20.8703C9.25398 20.865 9.16194 20.8722 9.09577 20.8771L9.13968 21.4755C9.21522 21.4699 9.26557 21.4667 9.30696 21.4692C9.349 21.4717 9.34562 21.4788 9.3276 21.4667L9.66289 20.9691ZM9.91807 21.4638C9.90614 21.4054 9.88918 21.3195 9.86125 21.2414C9.83436 21.1663 9.78083 21.0487 9.66305 20.9692L9.32744 21.4666C9.30584 21.452 9.29519 21.4371 9.29216 21.4324C9.28956 21.4283 9.29162 21.4304 9.29632 21.4435C9.30089 21.4563 9.30605 21.4741 9.31198 21.499C9.31795 21.5241 9.3235 21.5511 9.3302 21.5839L9.91807 21.4638ZM9.95153 21.6038C9.94052 21.5715 9.93151 21.5297 9.91807 21.4638L9.3302 21.5839C9.3418 21.6407 9.35795 21.722 9.3836 21.7973L9.95153 21.6038ZM11.7713 23.2716C11.2827 23.1923 10.9102 23.0014 10.6215 22.7267C10.3302 22.4494 10.1103 22.0732 9.95176 21.6045L9.38337 21.7966C9.56394 22.3307 9.82805 22.7998 10.2079 23.1613C10.5904 23.5254 11.0762 23.7667 11.6752 23.8639L11.7713 23.2716ZM14.0673 20.5857C14.5852 21.9889 13.3035 23.5207 11.7714 23.2716L11.6751 23.8639C13.6358 24.1827 15.3158 22.2358 14.6302 20.378L14.0673 20.5857ZM12.7578 19.5291C13.3848 19.7391 13.8582 20.0193 14.0673 20.5857L14.6302 20.3779C14.3242 19.5492 13.6266 19.1873 12.9484 18.9601L12.7578 19.5291ZM11.7207 19.1995C12.0701 19.3076 12.4157 19.4146 12.7579 19.5291L12.9483 18.9601C12.5985 18.8431 12.2464 18.7341 11.8981 18.6264L11.7207 19.1995ZM11.7443 19.2058L11.7443 19.2058L11.8745 18.6201L11.8745 18.6201L11.7443 19.2058ZM11.7232 19.2003L11.7232 19.2003L11.8956 18.6256L11.8956 18.6256L11.7232 19.2003ZM10.1159 18.6714C10.6478 18.8676 11.1887 19.0349 11.7207 19.1995L11.8981 18.6263C11.3635 18.4609 10.8379 18.2982 10.3235 18.1085L10.1159 18.6714ZM8.1409 16.6965C8.43887 17.7195 9.20216 18.3342 10.1158 18.6714L10.3236 18.1085C9.53264 17.8166 8.94706 17.3187 8.71697 16.5287L8.1409 16.6965ZM10.7732 11.8787C9.61353 12.1885 8.7906 12.8555 8.34222 13.73C7.89588 14.6006 7.83557 15.6473 8.14088 16.6964L8.71699 16.5288C8.44699 15.601 8.51106 14.7158 8.87614 14.0037C9.23919 13.2956 9.91476 12.7291 10.928 12.4584L10.7732 11.8787ZM14.7664 12.691C13.581 11.7114 12.2067 11.4959 10.7732 11.8787L10.928 12.4584C12.1968 12.1196 13.3656 12.3117 14.3842 13.1535L14.7664 12.691ZM15.9912 15.0006C15.8546 14.0811 15.4877 13.2872 14.7664 12.691L14.3842 13.1534C14.9664 13.6347 15.2776 14.2804 15.3977 15.0887L15.9912 15.0006ZM18.2253 24.4495C18.1307 24.4495 18.0373 24.4498 17.9452 24.4501L17.9473 25.0501C18.0395 25.0498 18.1319 25.0495 18.2253 25.0495V24.4495ZM17.9249 12C17.9253 16.2352 17.9253 20.4749 17.9253 24.7495H18.5253C18.5253 20.4749 18.5253 16.2351 18.5249 12L17.9249 12ZM16.9316 12.3H18.2249V11.7H16.9316V12.3ZM17.2316 12.227V12H16.6316V12.227H17.2316ZM17.232 24.4785C17.232 20.3948 17.232 16.3106 17.2316 12.2269L16.6316 12.227C16.632 16.3107 16.632 20.3948 16.632 24.4785H17.232ZM17.2276 24.5484C17.2286 24.539 17.232 24.5095 17.232 24.4785H16.632C16.632 24.4735 16.6323 24.471 16.6322 24.4727C16.632 24.4747 16.6317 24.4773 16.631 24.4845L17.2276 24.5484ZM17.1875 24.43C17.2243 24.4871 17.2262 24.539 17.2264 24.5496C17.2267 24.5572 17.2263 24.5615 17.2264 24.5603C17.2265 24.5588 17.2267 24.5564 17.2276 24.5483L16.631 24.4845C16.63 24.494 16.6256 24.5294 16.6267 24.5666C16.6277 24.6033 16.6341 24.6789 16.6831 24.7549L17.1875 24.43ZM17.1986 24.4472C17.1948 24.4412 17.1904 24.4345 17.1861 24.4279L16.6844 24.757C16.6875 24.7616 16.6907 24.7666 16.6948 24.7729L17.1986 24.4472ZM17.0869 24.4427C17.1564 24.4453 17.2015 24.4744 17.2161 24.4848C17.2323 24.4964 17.239 24.5051 17.2362 24.5019C17.2345 24.4998 17.2302 24.4944 17.2229 24.4838C17.2156 24.4734 17.2082 24.462 17.1986 24.4471L16.6948 24.7729C16.7106 24.7974 16.7428 24.8481 16.7805 24.8921C16.7998 24.9146 16.829 24.9457 16.8678 24.9734C16.905 24.9999 16.9727 25.0388 17.0643 25.0423L17.0869 24.4427ZM17.9452 24.4501C17.6483 24.4511 17.3664 24.452 17.0856 24.4427L17.0657 25.0423C17.3593 25.0521 17.6523 25.0511 17.9473 25.0501L17.9452 24.4501Z"/></g><rect width="34" height="34" x="1" y="1" stroke="#FFDE55" stroke-width="2" rx="17"/><defs><clipPath id="a"><rect width="32" height="32" x="2" y="2" fill="#fff" rx="16"/></clipPath></defs></svg>