<svg xmlns="http://www.w3.org/2000/svg" enable-background="new 0 0 128 128" viewBox="0 0 128 128"><circle cx="64" cy="64" r="64" fill="#69C"/><path fill="#333" d="M53.559 44.593c1.712 0 3.251.276 4.621.827 1.37.553 2.545 1.31 3.525 2.269.979.962 1.729 2.074 2.244 3.338.512 1.265.77 2.624.77 4.083 0 2.242-.469 4.184-1.412 5.82-.943 1.639-2.482 2.882-4.621 3.739v.104c1.032.284 1.887.72 2.566 1.308.674.59 1.222 1.283 1.654 2.081.427.804.737 1.684.933 2.646.194.959.332 1.92.4 2.882.037.606.073 1.317.11 2.134.032.822.096 1.658.185 2.512.09.854.231 1.662.427 2.429.195.765.485 1.415.88 1.947h-8.378c-.469-1.21-.754-2.65-.859-4.323-.105-1.674-.264-3.275-.479-4.804-.284-1.994-.89-3.454-1.817-4.379-.922-.927-2.435-1.388-4.537-1.388h-8.379v14.894h-8.383V44.593H53.559zM50.576 61.839c1.918 0 3.361-.429 4.32-1.283.959-.854 1.443-2.242 1.443-4.163 0-1.852-.484-3.196-1.443-4.034-.959-.835-2.402-1.254-4.32-1.254h-9.186v10.734H50.576zM77.134 75.854c.337.585.769 1.067 1.307 1.441.532.374 1.148.648 1.839.827.695.177 1.418.267 2.166.267.532 0 1.096-.061 1.681-.188.585-.124 1.117-.318 1.603-.588.479-.266.879-.621 1.201-1.066.316-.445.479-1.004.479-1.682 0-1.141-.759-1.994-2.267-2.563-1.512-.57-3.625-1.139-6.328-1.708-1.102-.251-2.182-.543-3.23-.883-1.054-.337-1.986-.782-2.803-1.333-.822-.553-1.476-1.246-1.977-2.082-.495-.838-.748-1.859-.748-3.071 0-1.779.348-3.238 1.043-4.376.696-1.141 1.607-2.039 2.746-2.698 1.144-.659 2.424-1.12 3.847-1.389 1.423-.266 2.882-.4 4.379-.4 1.496 0 2.945.145 4.353.429 1.401.285 2.661.764 3.762 1.441 1.102.674 2.019 1.573 2.751 2.695.728 1.12 1.165 2.537 1.307 4.245h-7.208c-.105-1.46-.659-2.445-1.654-2.964-.996-.514-2.172-.774-3.525-.774-.428 0-.886.029-1.387.082-.5.053-.953.169-1.359.348-.411.177-.759.435-1.043.772-.29.34-.427.793-.427 1.362 0 .677.247 1.228.748 1.655.495.427 1.148.774 1.944 1.043.807.267 1.718.506 2.756.72 1.027.214 2.076.445 3.146.692 1.101.25 2.182.554 3.229.909 1.049.356 1.987.827 2.804 1.415.822.588 1.476 1.317 1.976 2.189.495.872.749 1.949.749 3.23 0 1.814-.369 3.336-1.097 4.563-.732 1.23-1.681 2.217-2.856 2.965-1.175.746-2.519 1.272-4.03 1.575-1.513.3-3.052.453-4.616.453-1.607 0-3.172-.161-4.7-.479-1.528-.321-2.888-.855-4.084-1.602-1.196-.748-2.171-1.736-2.935-2.965-.77-1.227-1.187-2.766-1.26-4.618h7.209C76.623 74.563 76.797 75.266 77.134 75.854z"/></svg>