<svg xmlns="http://www.w3.org/2000/svg" enable-background="new 0 0 128 128" viewBox="0 0 128 128"><circle cx="64" cy="64" r="64" fill="#FF6"/><path fill="#333" d="M46.086 43.032v22.496l10.513-10.924h9.87L55.013 65.766l12.742 19.202H57.653l-8.336-13.569-3.23 3.114v10.455h-8.337V43.032H46.086zM78.621 54.604v5.639h.121c.39-.938.917-1.813 1.586-2.614.664-.801 1.428-1.491 2.287-2.061.864-.563 1.781-1.006 2.761-1.317.976-.311 1.998-.469 3.057-.469.549 0 1.154.1 1.818.29v7.751c-.391-.073-.859-.142-1.412-.205-.549-.058-1.07-.084-1.586-.084-1.523 0-2.814.253-3.874.764-1.059.512-1.907 1.201-2.556 2.082-.643.885-1.106 1.912-1.381 3.082-.273 1.176-.41 2.45-.41 3.82v13.686h-8.337V54.604H78.621z"/></svg>