<svg xmlns="http://www.w3.org/2000/svg" viewBox="0 0 32 32"><path fill="#2fc1f4" d="M16 3C8.8 3 3 8.8 3 16s5.8 13 13 13 13-5.8 13-13S23.2 3 16 3zM9 14.5c1.6 0 3 1.5 3 3.2S10.6 21 9 21s-3-1.5-3-3.2c0-.5.4-1 1-1s1 .5 1 1c0 .6.4 1.2 1 1.2s1-.6 1-1.2-.4-1.2-1-1.2c-1.7 0-3-1.5-3-3.2S7.3 10 9 10s3 1.5 3 3.2c0 .6-.4 1-1 1s-1-.4-1-1c0-.7-.4-1.2-1-1.2s-1 .6-1 1.2.4 1.3 1 1.3zm9.8 4.9c.3.4.3 1.1-.2 1.4-.2.1-.4.2-.6.2-.3 0-.6-.1-.8-.4L15 17.8V20c0 .5-.4 1-1 1s-1-.5-1-1v-9c0-.6.4-1 1-1h2c1.6 0 3 1.6 3 3.6 0 1.6-.9 2.9-2.1 3.4l1.9 2.4zm3.6 1.6H21c-.5 0-1-.5-1-1v-9c0-.6.5-1 1-1h1.4c2 0 3.6 2.4 3.6 5.5S24.4 21 22.4 21z"/><path fill="#2fc1f4" d="M22.4 12H22v7h.4c.6 0 1.6-1.4 1.6-3.5s-.9-3.5-1.6-3.5zM16 12h-1v3.1h1c.5 0 1-.6 1-1.6 0-.9-.5-1.5-1-1.5z"/><path fill="#0f73a5" d="M16 1C7.7 1 1 7.7 1 16s6.7 15 15 15 15-6.7 15-15S24.3 1 16 1zm0 28C8.8 29 3 23.2 3 16S8.8 3 16 3s13 5.8 13 13-5.8 13-13 13z"/><path fill="#fff" d="M19 13.6c0-2-1.4-3.6-3-3.6h-2c-.6 0-1 .4-1 1v9c0 .5.4 1 1 1s1-.5 1-1v-2.2l2.2 2.8c.2.3.5.4.8.4.2 0 .4-.1.6-.2.4-.3.5-1 .2-1.4L16.9 17c1.2-.5 2.1-1.8 2.1-3.4zm-3 1.5h-1V12h1c.5 0 1 .6 1 1.6 0 .9-.5 1.5-1 1.5zM9 12c.6 0 1 .6 1 1.2s.4 1 1 1 1-.4 1-1c0-1.8-1.4-3.2-3-3.2s-3 1.5-3 3.2 1.3 3.2 3 3.2c.6 0 1 .6 1 1.2S9.6 19 9 19s-1-.6-1-1.2c0-.5-.4-1-1-1s-1 .5-1 1C6 19.5 7.3 21 9 21s3-1.5 3-3.2-1.4-3.2-3-3.2c-.6 0-1-.6-1-1.2S8.4 12 9 12zm13.4-2H21c-.5 0-1 .4-1 1v9c0 .5.5 1 1 1h1.4c2 0 3.6-2.4 3.6-5.5S24.4 10 22.4 10zm0 9H22v-7h.4c.6 0 1.6 1.4 1.6 3.5s-.9 3.5-1.6 3.5z"/></svg>