<svg xmlns="http://www.w3.org/2000/svg" viewBox="0 0 128 128"><circle cx="64" cy="64" r="64" fill="#FFF"/><path fill="#333" d="M65.146 92.602h-6.402v-6.697H46.232V43.268h12.512v-7.87h6.402v7.928c3.482.079 6.381.53 8.695 1.354 1.834.627 3.324 1.784 4.457 3.47.475.785.834 1.561 1.086 2.324.258.767.379 1.578.379 2.442 0 3.646-1.697 6.608-5.105 8.885-.428.234-.85.479-1.266.735-.41.256-.891.537-1.438.851 1.57.432 2.988 1.018 4.262 1.76a13.578 13.578 0 0 1 3.316 2.699c1.484 1.562 2.234 3.577 2.234 6.038 0 2.19-.686 4.202-2.057 6.039-1.295 1.8-3.092 3.228-5.4 4.282-2.355 1.057-5.406 1.623-9.164 1.699v6.698zm-6.402-42.816h-4.168v10.808h4.168V49.786zm-4.168 17.266v12.395h4.168V67.052h-4.168zm10.57-6.988c3.051-.39 4.811-1.077 5.279-2.055.475-.98.648-2.135.533-3.468-.117-1.331-.533-2.366-1.234-3.111-.705-.743-2.234-1.252-4.578-1.526v10.16zm0 19.322c3.563-.39 5.695-1.575 6.402-3.552.701-1.977.674-3.848-.09-5.609-.764-1.76-2.871-2.701-6.313-2.82v11.981z"/></svg>