<svg xmlns="http://www.w3.org/2000/svg" viewBox="0 0 512 512"><g transform="matrix(.96852 0 0 .96852 -9.496 -523.478)"><g transform="translate(0 540.362)"><g style="line-height:125%" fill="#f69b1f" font-family="Sans" font-size="70.909" font-weight="400" letter-spacing="0" word-spacing="0"><path d="m 117.25,111.34375 c -50.629129,0 -87.625,31.48576 -87.625,74.03125 l 36.252311,16.90473 c 0,-42.54549 36.995869,-74.03125 87.624999,-74.03125 z"/><path d="m 29.625,185.375 c 0,37.76319 25.80292,57.70889 50.543697,69.24571 l 36.252313,16.90473 C 91.680231,259.98862 65.877311,240.04292 65.877311,202.27973 z"/><path d="m 80.168697,254.62071 c 2.018196,0.9411 4.029325,1.82624 6.018803,2.66054 l 36.25231,16.90473 c -1.98948,-0.8343 -4.00061,-1.71944 -6.0188,-2.66054 z"/><path d="m 86.1875,257.28125 40,17.4375 36.25231,16.90473 -40,-17.4375 z"/><path d="m 126.1875,274.71875 c 3.06457,1.384 6.04301,2.72768 8.91397,4.06643 l 36.25231,16.90473 c -2.87095,-1.33875 -5.8494,-2.68243 -8.91397,-4.06643 z"/><path d="m 135.10147,278.78518 c 21.84071,10.18449 37.46103,20.08356 37.46103,45.27732 l 36.25231,16.90473 c 0,-25.19376 -15.62032,-35.09283 -37.46103,-45.27732 z"/><path d="M172.5625 324.0625c0 27.22911-21.69213 45.53125-58.28125 45.53125l36.25231 16.90473c36.58912 0 58.28125-18.30214 58.28125-45.53125zM114.28125 369.59375c-14.492502 0-28.769641-3.52005-41.92409-9.65407l36.25231 16.90473c13.15445 6.13402 27.43159 9.65407 41.92409 9.65407z"/><path d="M 72.35716,359.93968 C 59.251792,353.82855 47.260752,345.12291 37.28125,334.71875 l 36.252311,16.90473 c 9.979503,10.40416 21.970542,19.1098 35.075909,25.22093 z"/><path d="M 37.28125,334.71875 16,359.375 l 36.252311,16.90473 21.28125,-24.65625 z"/><path d="m 16,359.375 c 11.321403,11.71865 24.865839,21.49271 40.072775,28.58382 l 36.252312,16.90473 C 77.118151,397.77244 63.573714,387.99838 52.252311,376.27973 z"/><path d="m 56.072775,387.95882 c 17.366968,8.09835 36.902269,12.69743 57.770975,12.69743 l 36.25231,16.90473 c -20.8687,0 -40.40401,-4.59908 -57.770973,-12.69743 z"/><path d="m 113.84375,400.65625 c 58.71277,0 94.875,-35.31519 94.875,-79.5625 l 36.25231,16.90473 c 0,44.24731 -36.16223,79.5625 -94.875,79.5625 z"/><path d="m 208.71875,321.09375 c 0,-38.94274 -22.35255,-58.19839 -52.04146,-72.04256 l 36.25231,16.90473 c 29.68891,13.84417 52.04146,33.09982 52.04146,72.04256 z"/><path d="m 156.67729,249.05119 c -1.77356,-0.82703 -3.57331,-1.63474 -5.39604,-2.42619 l 36.25231,16.90473 c 1.82273,0.79145 3.62248,1.59916 5.39604,2.42619 z"/><path d="m 151.28125,246.625 -39.5625,-17 36.25231,16.90473 39.5625,17 z"/><path d="m 111.71875,229.625 c -4.19844,-1.77626 -8.4735,-3.58318 -12.644907,-5.52834 l 36.252307,16.90473 c 4.17141,1.94516 8.44647,3.75208 12.64491,5.52834 z"/><path d="M 99.073843,224.09666 C 81.264039,215.79181 65.34375,204.96709 65.34375,183.25 l 36.25231,16.90473 c 0,21.71709 15.92029,32.54181 33.73009,40.84666 z"/><path d="m 65.34375,183.25 c 0,-25.10184 20.848045,-40.84375 51.90625,-40.84375 l 36.25231,16.90473 c -31.0582,0 -51.90625,15.74191 -51.90625,40.84375 z"/><path d="m 117.25,142.40625 c 13.78479,0 26.01301,2.8798 36.99937,8.00283 l 36.25231,16.90473 c -10.98636,-5.12303 -23.21457,-8.00283 -36.99937,-8.00283 z"/><path d="m 154.24937,150.40908 c 9.69776,4.52213 18.4279,10.79214 26.40688,18.37217 l 36.25231,16.90473 c -7.97898,-7.58003 -16.70912,-13.85003 -26.40688,-18.37217 z"/><path d="m 180.65625,168.78125 19.125,-22.96875 36.25231,16.90473 -19.125,22.96875 z"/><path d="m 199.78125,145.8125 c -9.30594,-9.50393 -20.63755,-17.62719 -33.43876,-23.5965 l 36.25231,16.90473 c 12.80122,5.96931 24.13282,14.09257 33.43876,23.5965 z"/><path d="M166.34249 122.216C151.63675 115.3586 134.99158 111.34375 117.25 111.34375l36.25231 16.90473c17.74159 0 34.38675 4.01485 49.09249 10.87225zM263.28125 116.4375l0 279.125 36.25231 16.90473 0-279.125z"/><path d="m 263.28125,395.5625 32.75,0 36.25231,16.90473 -32.75,0 z"/><path d="m 296.03125,395.5625 0,-153.59375 36.25231,16.90473 0,153.59375 z"/><path d="m 296.03125,241.96875 c 0,-24.67638 -2.98568,-57.88612 -4.6875,-82.5625 l 36.25231,16.90473 c 1.70182,24.67638 4.6875,57.88612 4.6875,82.5625 z"/><path d="m 291.34375,159.40625 1.71875,0 36.25231,16.90473 -1.71875,0 z"/><path d="m 293.0625,159.40625 22.125,62.125 36.25231,16.90473 -22.125,-62.125 z"/><path d="m 315.1875,221.53125 54.03125,145.9375 36.25231,16.90473 -54.03125,-145.9375 z"/><path d="m 369.21875,367.46875 20,0 36.25231,16.90473 -20,0 z"/><path d="m 389.21875,367.46875 53.59375,-145.9375 36.25231,16.90473 -53.59375,145.9375 z"/><path d="m 442.8125,221.53125 22.5625,-62.125 36.25231,16.90473 -22.5625,62.125 z"/><path d="m 465.375,159.40625 1.6875,0 36.25231,16.90473 -1.6875,0 z"/><path d="m 467.0625,159.40625 c -2.12727,24.67638 -4.6875,57.88612 -4.6875,82.5625 l 36.25231,16.90473 c 0,-24.67638 2.56023,-57.88612 4.6875,-82.5625 z"/><path d="m 462.375,241.96875 0,153.59375 36.25231,16.90473 0,-153.59375 z"/><path d="m 462.375,395.5625 33.625,0 36.25231,16.90473 -33.625,0 z"/><path d="m 496,395.5625 0,-279.125 36.25231,16.90473 0,279.125 z"/><path d="m 496,116.4375 -41.6875,0 36.25231,16.90473 41.6875,0 z"/><path d="m 454.3125,116.4375 -53.625,149.78125 36.25231,16.90473 53.625,-149.78125 z"/><path d="m 400.6875,266.21875 -19.5625,57 36.25231,16.90473 19.5625,-57 z"/><path d="m 381.125,323.21875 -1.6875,0 36.25231,16.90473 1.6875,0 z"/><path d="m 379.4375,323.21875 -20.4375,-57 36.25231,16.90473 20.4375,57 z"/><path d="m 359,266.21875 -54.03125,-149.78125 36.25231,16.90473 54.03125,149.78125 z"/><path d="m 304.96875,116.4375 -41.6875,0 36.25231,16.90473 41.6875,0 z"/></g><path d="m 117.25,111.34375 c -50.629129,0 -87.625,31.48576 -87.625,74.03125 0,40.84367 30.184298,60.84442 56.5625,71.90625 l 40,17.4375 c 26.3782,11.91274 46.375,20.83827 46.375,49.34375 0,27.22911 -21.69213,45.53125 -58.28125,45.53125 -28.930931,0 -57.003621,-14.02771 -77,-34.875 L 16,359.375 c 24.250927,25.10184 58.701902,41.28125 97.84375,41.28125 58.71277,0 94.875,-35.31519 94.875,-79.5625 0,-41.26912 -25.10293,-60.42874 -57.4375,-74.46875 l -39.5625,-17 c -22.123653,-9.36001 -46.375,-19.57134 -46.375,-46.375 0,-25.10184 20.848045,-40.84375 51.90625,-40.84375 25.95275,0 46.38806,10.20772 63.40625,26.375 l 19.125,-22.96875 C 179.78487,125.39067 150.43548,111.34375 117.25,111.34375 z m 146.03125,5.09375 0,279.125 32.75,0 0,-153.59375 c 0,-24.67638 -2.98568,-57.88612 -4.6875,-82.5625 l 1.71875,0 22.125,62.125 54.03125,145.9375 20,0 53.59375,-145.9375 22.5625,-62.125 1.6875,0 c -2.12727,24.67638 -4.6875,57.88612 -4.6875,82.5625 l 0,153.59375 33.625,0 0,-279.125 -41.6875,0 -53.625,149.78125 -19.5625,57 -1.6875,0 -20.4375,-57 -54.03125,-149.78125 -41.6875,0 z" style="line-height:125%" fill="#f69b1f" font-family="Sans" font-size="70.909" font-weight="400" letter-spacing="0" word-spacing="0"/></g><path style="line-height:125%" fill="#fcd116" d="m 117.25,111.34375 c -50.629129,0 -87.625,31.48576 -87.625,74.03125 0,40.84367 30.184298,60.84442 56.5625,71.90625 l 40,17.4375 c 26.3782,11.91274 46.375,20.83827 46.375,49.34375 0,27.22911 -21.69213,45.53125 -58.28125,45.53125 -28.930931,0 -57.003621,-14.02771 -77,-34.875 L 16,359.375 c 24.250927,25.10184 58.701902,41.28125 97.84375,41.28125 58.71277,0 94.875,-35.31519 94.875,-79.5625 0,-41.26912 -25.10293,-60.42874 -57.4375,-74.46875 l -39.5625,-17 c -22.123653,-9.36001 -46.375,-19.57134 -46.375,-46.375 0,-25.10184 20.848045,-40.84375 51.90625,-40.84375 25.95275,0 46.38806,10.20772 63.40625,26.375 l 19.125,-22.96875 C 179.78487,125.39067 150.43548,111.34375 117.25,111.34375 z m 146.03125,5.09375 0,279.125 32.75,0 0,-153.59375 c 0,-24.67638 -2.98568,-57.88612 -4.6875,-82.5625 l 1.71875,0 22.125,62.125 54.03125,145.9375 20,0 53.59375,-145.9375 22.5625,-62.125 1.6875,0 c -2.12727,24.67638 -4.6875,57.88612 -4.6875,82.5625 l 0,153.59375 33.625,0 0,-279.125 -41.6875,0 -53.625,149.78125 -19.5625,57 -1.6875,0 -20.4375,-57 -54.03125,-149.78125 -41.6875,0 z" font-family="Sans" font-size="70.909" font-weight="400" letter-spacing="0" transform="translate(0 540.362)" word-spacing="0"/></g></svg>