<svg xmlns="http://www.w3.org/2000/svg" enable-background="new 0 0 128 128" viewBox="0 0 128 128"><circle cx="64" cy="64" r="64" fill="#F66"/><path fill="#333" d="M51.015,41.773c1.923-0.697,3.807-1.167,5.649-1.412c1.842-0.247,3.786-0.368,5.833-0.368   c1.144,0.042,2.292,0.152,3.436,0.337c1.146,0.185,2.274,0.482,3.378,0.891c0.656,0.205,1.146,0.369,1.475,0.492   c0.327,0.122,0.615,0.243,0.859,0.369c0.248,0.121,0.5,0.274,0.768,0.459c0.266,0.184,0.684,0.461,1.259,0.829   c0.202,0.122,0.4,0.245,0.582,0.366c0.185,0.124,0.358,0.27,0.522,0.433c0.41,0.49,0.748,0.898,1.014,1.228   c0.266,0.327,0.512,0.633,0.738,0.92c0.223,0.287,0.355,0.492,0.396,0.613c0.164,0.369,0.309,0.728,0.43,1.075   c0.125,0.348,0.225,0.706,0.309,1.075c0.082,0.205,0.152,0.411,0.213,0.614c0.062,0.205,0.113,0.408,0.156,0.613   c0.203,1.352,0.16,2.608-0.124,3.775c-0.287,1.168-0.737,2.303-1.352,3.409h5.035v5.462h-9.517   c-0.941,0.901-1.913,1.761-2.916,2.579c-1.002,0.82-1.955,1.618-2.857,2.396h15.29v5.464h-21.06   c-0.327,0.49-0.593,0.982-0.798,1.473c-0.287,0.614-0.298,1.21-0.031,1.781c0.266,0.574,0.656,1.064,1.167,1.476   c0.511,0.409,1.085,0.757,1.721,1.041c0.635,0.287,1.196,0.472,1.688,0.554c1.229,0.205,2.475,0.297,3.744,0.275   c1.268-0.018,2.537-0.123,3.808-0.305c1.267-0.188,2.519-0.43,3.747-0.738c1.227-0.309,2.412-0.666,3.559-1.074l2.334,7.735   c-1.883,0.614-3.796,1.116-5.74,1.505s-3.899,0.663-5.865,0.829c-1.555,0.082-3.09,0.082-4.605,0   c-1.515-0.081-2.988-0.348-4.418-0.798c-1.024-0.369-1.997-0.799-2.917-1.289c-0.922-0.492-1.771-1.085-2.547-1.781   c-1.025-0.939-1.884-2.047-2.58-3.316c-0.369-0.653-0.635-1.277-0.798-1.871c-0.163-0.592-0.287-1.238-0.369-1.934   c-0.163-1.228-0.103-2.416,0.185-3.563h-5.404v-5.464h8.167c0.735-0.901,1.534-1.761,2.393-2.579   c0.861-0.817,1.742-1.615,2.643-2.396H46.47v-5.462H66.24c0.493-0.453,0.963-0.911,1.412-1.383   c0.451-0.469,0.852-0.951,1.199-1.443c0.346-0.49,0.622-1.002,0.828-1.534c0.205-0.532,0.308-1.064,0.308-1.597   c-0.081-0.245-0.166-0.532-0.245-0.858c-0.369-0.408-0.77-0.759-1.199-1.046c-0.429-0.285-0.879-0.509-1.352-0.675   c-0.469-0.163-0.972-0.306-1.502-0.43c-0.531-0.123-1.045-0.224-1.535-0.306c-1.926-0.287-3.765-0.308-5.525-0.063   c-1.763,0.245-3.542,0.698-5.344,1.352L51.015,41.773z"/></svg>