<svg xmlns="http://www.w3.org/2000/svg" enable-background="new 0 0 128 128" viewBox="0 0 128 128"><circle cx="64" cy="64" r="64" fill="#9CF"/><path fill="#333" d="M57.197,77.387c1.307,1.392,2.933,2.279,4.874,2.659V66.816c-0.213-0.084-0.498-0.18-0.856-0.284   c-0.358-0.105-0.748-0.2-1.17-0.285c-1.563-0.421-3.101-0.917-4.621-1.488c-1.518-0.569-2.88-1.328-4.081-2.276   c-1.204-0.951-2.163-2.132-2.88-3.544c-0.717-1.415-1.075-3.178-1.075-5.288c0-2.15,0.411-4.05,1.233-5.696   c0.822-1.644,1.907-3.024,3.259-4.145c1.35-1.117,2.911-1.981,4.685-2.595c1.771-0.611,3.607-0.98,5.507-1.106v-4.875h3.733v4.875   c1.897,0.21,3.681,0.622,5.349,1.233c1.665,0.614,3.133,1.457,4.397,2.532c1.268,1.077,2.3,2.416,3.102,4.021   c0.801,1.602,1.267,3.501,1.394,5.696h-8.987c-0.045-1.686-0.569-3.122-1.584-4.305c-1.012-1.18-2.236-1.773-3.67-1.773v11.203   c0.506,0.126,1.022,0.253,1.55,0.379c0.529,0.127,1.085,0.277,1.678,0.445c3.122,0.843,5.528,1.887,7.217,3.133   c1.687,1.244,2.93,2.543,3.733,3.892c0.801,1.352,1.275,2.7,1.423,4.052c0.147,1.35,0.222,2.551,0.222,3.607   c0,0.928-0.232,2.1-0.696,3.512c-0.463,1.416-1.299,2.796-2.5,4.147c-1.201,1.349-2.816,2.551-4.843,3.607   c-2.023,1.054-4.619,1.687-7.783,1.897v5.38h-3.733v-5.38c-4.727-0.338-8.418-1.792-11.076-4.366   c-2.659-2.574-4.2-6.351-4.622-11.329h8.924C55.255,74.096,55.888,75.996,57.197,77.387z M59.982,47.83   c-0.678,0.211-1.289,0.538-1.837,0.98c-0.548,0.442-0.98,0.991-1.296,1.644c-0.319,0.656-0.475,1.425-0.475,2.313   c0,1.392,0.442,2.466,1.328,3.225c0.885,0.762,2.342,1.373,4.368,1.836V47.512C61.353,47.512,60.656,47.62,59.982,47.83z    M68.179,79.508c0.822-0.276,1.56-0.666,2.213-1.172c0.656-0.506,1.194-1.128,1.615-1.865c0.422-0.738,0.633-1.615,0.633-2.627   c0-1.646-0.517-2.88-1.55-3.705c-1.035-0.822-2.798-1.57-5.285-2.244v12.151C66.563,79.961,67.354,79.782,68.179,79.508z"/></svg>