<svg xmlns="http://www.w3.org/2000/svg" viewBox="0 0 128 128"><circle cx="64" cy="64" r="64" fill="#99F"/><path fill="#333" d="M36.708 76.983c1.27 1.351 2.846 2.208 4.729 2.582V66.729a13.416 13.416 0 0 0-1.966-.553 47.948 47.948 0 0 1-4.481-1.438c-1.476-.553-2.793-1.291-3.96-2.213s-2.1-2.065-2.795-3.44c-.696-1.371-1.043-3.078-1.043-5.128 0-2.081.4-3.926 1.196-5.522.801-1.597 1.855-2.934 3.164-4.021 1.31-1.085 2.825-1.923 4.542-2.519a20.309 20.309 0 0 1 5.343-1.075v-4.727h3.623v4.727c1.839.206 3.567.606 5.185 1.201 1.618.591 3.041 1.407 4.269 2.456 1.228 1.043 2.231 2.34 3.009 3.894.777 1.561 1.228 3.399 1.352 5.528h-8.718c-.042-1.639-.553-3.03-1.536-4.174-.983-1.148-2.171-1.723-3.56-1.723v10.865c.49.127.99.248 1.501.374.511.121 1.054.264 1.628.427 3.03.817 5.361 1.834 6.998 3.041 1.639 1.206 2.845 2.466 3.622 3.772.777 1.313 1.238 2.624 1.384 3.932a32.89 32.89 0 0 1 .213 3.498c0 .901-.224 2.04-.674 3.41s-1.259 2.713-2.426 4.021c-1.165 1.312-2.729 2.477-4.695 3.499-1.966 1.021-4.481 1.639-7.551 1.844v5.222h-3.623v-5.222c-4.587-.326-8.168-1.739-10.744-4.236-2.58-2.498-4.073-6.16-4.484-10.992h8.657c-.04 2.333.571 4.178 1.841 5.526zm2.701-28.67a5.31 5.31 0 0 0-1.778.948 4.629 4.629 0 0 0-1.259 1.597c-.306.633-.461 1.381-.461 2.24 0 1.349.429 2.397 1.291 3.135.858.732 2.271 1.328 4.236 1.776V48.002c-.699 0-1.373.105-2.029.311zm7.951 30.726a7.208 7.208 0 0 0 2.15-1.133c.635-.496 1.157-1.097 1.565-1.813s.614-1.564.614-2.55c0-1.592-.501-2.793-1.505-3.589-1.004-.801-2.711-1.528-5.124-2.182v11.793a11.177 11.177 0 0 0 2.3-.526zM96.816 82.354c-3.314 2.888-7.898 4.331-13.753 4.331-5.934 0-10.528-1.434-13.782-4.3-3.254-2.861-4.882-7.282-4.882-13.258V41.863h9.641v27.264c0 1.186.1 2.351.308 3.499a7.12 7.12 0 0 0 1.288 3.04c.654.88 1.565 1.592 2.732 2.145 1.165.554 2.732.828 4.695.828 3.438 0 5.813-.764 7.124-2.298 1.308-1.539 1.963-3.941 1.963-7.214V41.863h9.641v27.264c0 5.934-1.657 10.344-4.975 13.227z"/></svg>