<svg xmlns="http://www.w3.org/2000/svg" enable-background="new 0 0 128 128" viewBox="0 0 128 128"><circle cx="64" cy="64" r="64" fill="#C9C"/><path fill="#333" d="M49.54 41.684c2.087 0 3.989.185 5.713.549 1.717.374 3.188.979 4.415 1.813 1.228.843 2.182 1.955 2.856 3.346.68 1.392 1.012 3.114 1.012 5.159 0 2.213-.501 4.052-1.502 5.527-1.006 1.471-2.487 2.683-4.453 3.62 2.698.78 4.717 2.14 6.05 4.084 1.327 1.944 1.997 4.289 1.997 7.029 0 2.213-.432 4.126-1.291 5.744-.859 1.617-2.018 2.935-3.473 3.957-1.449 1.022-3.109 1.781-4.975 2.271-1.859.489-3.772.737-5.738.737h-21.24V41.684H49.54zM48.313 59.427c1.718 0 3.13-.406 4.237-1.229 1.101-.816 1.654-2.149 1.654-3.988 0-1.028-.185-1.866-.554-2.52-.364-.653-.854-1.164-1.47-1.538-.617-.364-1.318-.617-2.119-.765-.801-.142-1.628-.216-2.486-.216h-9.027v10.255H48.313zM48.866 78.032c.938 0 1.838-.095 2.697-.279.859-.184 1.618-.489 2.277-.922.647-.427 1.174-1.012 1.559-1.749.396-.738.586-1.676.586-2.819 0-2.256-.639-3.862-1.902-4.827-1.271-.959-2.946-1.438-5.038-1.438H38.548v12.035H48.866zM78.554 77.632c.385.675.885 1.229 1.496 1.655.617.432 1.323.748 2.124.953.796.206 1.623.306 2.481.306.617 0 1.266-.068 1.935-.216.68-.137 1.291-.363 1.845-.669.553-.312 1.017-.717 1.38-1.233.369-.511.554-1.154.554-1.934 0-1.307-.869-2.292-2.609-2.945-1.744-.654-4.168-1.308-7.276-1.966-1.271-.285-2.509-.622-3.715-1.012-1.207-.39-2.282-.901-3.22-1.533-.943-.638-1.702-1.434-2.276-2.397-.574-.96-.858-2.14-.858-3.531 0-2.044.4-3.72 1.201-5.032.795-1.312 1.85-2.345 3.161-3.099 1.308-.759 2.782-1.291 4.416-1.602 1.639-.301 3.314-.458 5.038-.458 1.723 0 3.388.168 5.006.489 1.617.327 3.056.881 4.326 1.66 1.27.774 2.318 1.813 3.161 3.099.838 1.291 1.339 2.919 1.507 4.88h-8.293c-.122-1.676-.754-2.81-1.902-3.404-1.145-.596-2.498-.891-4.053-.891-.49 0-1.022.031-1.592.09-.579.063-1.096.194-1.57.4-.469.205-.869.5-1.195.891-.327.39-.49.911-.49 1.564 0 .78.284 1.412.858 1.902.575.495 1.317.891 2.239 1.201.922.306 1.977.585 3.168.827 1.18.248 2.392.512 3.619.802 1.271.284 2.504.632 3.715 1.038 1.202.416 2.282.953 3.221 1.628.943.68 1.701 1.518 2.275 2.519s.859 2.245.859 3.715c0 2.087-.422 3.837-1.26 5.249-.843 1.412-1.939 2.55-3.287 3.409-1.35.858-2.894 1.465-4.633 1.808-1.738.353-3.51.521-5.312.521-1.845 0-3.642-.18-5.406-.554-1.755-.363-3.325-.979-4.695-1.839-1.37-.858-2.497-1.997-3.372-3.404-.885-1.412-1.365-3.188-1.443-5.312h8.288C77.969 76.146 78.159 76.958 78.554 77.632z"/></svg>