<svg xmlns="http://www.w3.org/2000/svg" viewBox="0 0 512 512"><g transform="matrix(.96852 0 0 .96852 -9.496 -523.478)"><g fill="#f69b1f" transform="translate(0 540.362)"><g style="line-height:125%" font-family="Sans" font-size="95.167" font-weight="400" letter-spacing="0" word-spacing="0"><path d="M 16,65.28125 135.90625,439.875 172.15856,456.77973 52.252311,82.18598 z"/><path d="M135.90625 439.875l55.40625 0 36.25231 16.90473-55.40625 0zM191.3125 439.875l118.75-374.59375 36.25231 16.90473-118.75 374.59375z"/><path d="m 310.0625,65.28125 -48.53125,0 36.25231,16.90473 48.53125,0 z"/><path d="m 261.53125,65.28125 -59.96875,202.125 36.25231,16.90473 59.96875,-202.125 z"/><path d="m 201.5625,267.40625 c -13.13307,44.53825 -22.26467,79.93901 -35.96875,123.90625 l 36.25231,16.90473 c 13.70408,-43.96724 22.83568,-79.368 35.96875,-123.90625 z"/><path d="m 165.59375,391.3125 -2.28125,0 36.25231,16.90473 2.28125,0 z"/><path d="m 163.3125,391.3125 c -14.27508,-43.96724 -22.82717,-79.368 -36.53125,-123.90625 l 36.25231,16.90473 c 13.70408,44.53825 22.25617,79.93901 36.53125,123.90625 z"/><path d="m 126.78125,267.40625 -59.96875,-202.125 36.25231,16.90473 59.96875,202.125 z"/><path d="M66.8125 65.28125l-50.8125 0 36.252311 16.90473 50.812499 0zM373.21875 84.6875l-5.6875 77.65625 36.25231 16.90473 5.6875-77.65625z"/><path d="m 367.53125,162.34375 -43.40625,2.875 36.25231,16.90473 43.40625,-2.875 z"/><path d="m 324.125,165.21875 0,35.40625 36.25231,16.90473 0,-35.40625 z"/><path d="m 324.125,200.625 41.125,0 36.25231,16.90473 -41.125,0 z"/><path d="M365.25 200.625l0 153.59375 36.25231 16.90473 0-153.59375zM365.25 354.21875c0 40.25489 10.78065 71.27043 40.0261 84.90781l36.25231 16.90473c-29.24544-13.63738-40.0261-44.65292-40.0261-84.90781z"/><path d="m 405.2761,439.12656 c 10.57897,4.93305 23.57403,7.59219 39.3489,7.59219 l 36.25231,16.90473 c -15.77487,0 -28.76993,-2.65914 -39.3489,-7.59219 z"/><path d="m 444.625,446.71875 c 17.13009,0 35.95791,-5.14222 51.375,-10.28125 l 36.25231,16.90473 c -15.41709,5.13903 -34.24491,10.28125 -51.375,10.28125 z"/><path d="m 496,436.4375 -9.125,-35.40625 36.25231,16.90473 9.125,35.40625 z"/><path d="m 486.875,401.03125 c -9.13605,3.42602 -21.6992,7.4375 -31.40625,7.4375 l 36.25231,16.90473 c 9.70705,0 22.2702,-4.01148 31.40625,-7.4375 z"/><path d="m 455.46875,408.46875 c -8.50677,0 -15.51959,-1.37496 -21.23129,-4.03836 l 36.25232,16.90473 c 5.71169,2.6634 12.72451,4.03836 21.23128,4.03836 z"/><path d="M 434.23746,404.43039 C 418.47942,397.08229 412.625,379.92704 412.625,354.78125 l 36.25231,16.90473 c 0,25.14579 5.85442,42.30104 21.61247,49.64914 z"/><path d="m 412.625,354.78125 0,-154.15625 36.25231,16.90473 0,154.15625 z"/><path d="m 412.625,200.625 74.8125,0 36.25231,16.90473 -74.8125,0 z"/><path d="m 487.4375,200.625 0,-38.28125 36.25231,16.90473 0,38.28125 z"/><path d="m 487.4375,162.34375 -74.8125,0 36.25231,16.90473 74.8125,0 z"/><path d="m 412.625,162.34375 0,-77.65625 36.25231,16.90473 0,77.65625 z"/><path d="m 412.625,84.6875 -39.40625,0 36.25231,16.90473 39.40625,0 z"/></g><path d="m 16,65.28125 119.90625,374.59375 55.40625,0 118.75,-374.59375 -48.53125,0 -59.96875,202.125 c -13.13307,44.53825 -22.26467,79.93901 -35.96875,123.90625 l -2.28125,0 C 149.03742,347.34526 140.48533,311.9445 126.78125,267.40625 L 66.8125,65.28125 16,65.28125 z m 357.21875,19.40625 -5.6875,77.65625 -43.40625,2.875 0,35.40625 41.125,0 0,153.59375 c 0,54.8163 19.99067,92.5 79.375,92.5 17.13009,0 35.95791,-5.14222 51.375,-10.28125 l -9.125,-35.40625 c -9.13605,3.42602 -21.6992,7.4375 -31.40625,7.4375 -31.97618,0 -42.84375,-19.42731 -42.84375,-53.6875 l 0,-154.15625 74.8125,0 0,-38.28125 -74.8125,0 0,-77.65625 -39.40625,0 z" style="line-height:125%" font-family="Sans" font-size="95.167" font-weight="400" letter-spacing="0" word-spacing="0"/></g><path style="line-height:125%" fill="#fcd116" d="m 16,65.28125 119.90625,374.59375 55.40625,0 118.75,-374.59375 -48.53125,0 -59.96875,202.125 c -13.13307,44.53825 -22.26467,79.93901 -35.96875,123.90625 l -2.28125,0 C 149.03742,347.34526 140.48533,311.9445 126.78125,267.40625 L 66.8125,65.28125 16,65.28125 z m 357.21875,19.40625 -5.6875,77.65625 -43.40625,2.875 0,35.40625 41.125,0 0,153.59375 c 0,54.8163 19.99067,92.5 79.375,92.5 17.13009,0 35.95791,-5.14222 51.375,-10.28125 l -9.125,-35.40625 c -9.13605,3.42602 -21.6992,7.4375 -31.40625,7.4375 -31.97618,0 -42.84375,-19.42731 -42.84375,-53.6875 l 0,-154.15625 74.8125,0 0,-38.28125 -74.8125,0 0,-77.65625 -39.40625,0 z" font-family="Sans" font-size="95.167" font-weight="400" letter-spacing="0" transform="translate(0 540.362)" word-spacing="0"/></g></svg>