<svg xmlns="http://www.w3.org/2000/svg" fill="none" viewBox="0 0 512 512"><path fill="#1CC0F3" d="M292.68 416.773L352.786 381.842 352.545 466.83 292.438 501.76 292.68 416.773zM187.561 302.396L247.668 267.467 306.293 301.313 246.186 336.244 187.561 302.396zM146.935 140.441L207.042 105.511 206.969 130.955 146.862 165.885 146.935 140.441zM292.901 338.773L353.008 303.842 352.938 328.244 292.831 363.174 292.901 338.773zM187.782 224.396L247.889 189.466 306.514 223.313 246.407 258.243 187.782 224.396zM161.486 108.53L221.591 73.599C212.649 78.7968 207.085 89.8273 207.041 105.511L146.935 140.441C146.979 124.757 152.542 113.728 161.486 108.53z"/><path fill="#1F95D3" d="M351.455 397.021L411.562 362.091L411.41 415.69L351.304 450.619L351.455 397.021Z"/><path fill="#1CC0F3" d="M292.831 363.174L352.938 328.244L411.562 362.091L351.455 397.021L292.831 363.174Z"/><path fill="#38D1F4" d="M293.223 224.9L353.33 189.97 353.159 250.244 293.052 285.174 293.223 224.9zM128.465 51.6997L188.571 16.769C206.124 6.56895 230.416 7.97695 257.178 23.4271L197.071 58.3578C170.31 42.9076 146.017 41.4986 128.465 51.6997z"/><path fill="#1CC0F3" d="M293.052 285.174L353.159 250.244L411.783 284.09L351.676 319.021L293.052 285.174Z"/><path fill="#1F95D3" d="M351.676 319.021L411.783 284.09L411.631 337.69L351.525 372.619L351.676 319.021Z"/><path fill="#00ADEF" d="M197.071 58.3577C250.25 89.0603 293.396 163.794 293.223 224.9L293.052 285.174L351.676 319.021L351.525 372.619L292.901 338.773L292.831 363.174L351.455 397.021L351.304 450.619L292.68 416.773L292.438 501.76L245.793 474.83L246.034 389.842L187.409 355.996L187.561 302.396L246.186 336.244L246.255 311.842L187.631 277.996L187.782 224.396L246.407 258.243L246.578 197.97C246.667 166.373 224.416 127.832 196.918 111.957C169.512 96.1331 147.024 108.844 146.935 140.441L146.862 165.885L100.217 138.955L100.289 113.51C100.463 52.4032 143.891 27.6541 197.071 58.3577Z"/><path fill="#38D1F4" d="M197.071 58.3578L257.178 23.4271C310.357 54.1307 353.503 128.863 353.33 189.97L293.223 224.9C293.396 163.794 250.25 89.0604 197.071 58.3578Z"/></svg>