<svg xmlns="http://www.w3.org/2000/svg" fill="none" viewBox="0 0 32 32"><g clip-path="url(#a)"><path fill="#FDD837" d="M19.4371 30.5629C27.48 28.6646 32.4611 20.6057 30.5629 12.5629C28.6646 4.52002 20.6057 -0.461131 12.5629 1.43715C4.52001 3.33544 -0.461137 11.3943 1.43715 19.4372C3.33543 27.48 11.3943 32.4611 19.4371 30.5629Z"/><mask id="b" style="mask-type:alpha" width="30" height="30" x="1" y="1" maskUnits="userSpaceOnUse"><path fill="#FDD40C" d="M1.00014 15.8839C0.997339 16.5397 1.03692 17.1951 1.11863 17.8458C1.48847 20.7393 2.69719 23.4613 4.5957 25.676C6.49421 27.8907 8.99947 29.5012 11.8025 30.309C13.1291 30.6894 14.5017 30.8854 15.8817 30.8917C16.931 30.8966 17.9779 30.7918 19.0053 30.579C20.9636 30.1667 22.8195 29.3664 24.4636 28.2255C26.1077 27.0845 27.5066 25.6258 28.578 23.9356C28.7159 23.718 28.848 23.4946 28.9762 23.2712C29.5693 22.2183 30.0318 21.097 30.3535 19.9321C30.4623 19.5436 30.5477 19.1356 30.6332 18.7277C30.7187 18.3198 30.7711 17.906 30.8139 17.4845C30.8644 16.9989 30.8903 16.5074 30.8916 16.0101C30.8949 15.411 30.8619 14.8123 30.7925 14.2172C30.7459 13.8054 30.6811 13.3994 30.5982 12.9992C30.0161 10.1125 28.5948 7.46176 26.5125 5.37941C24.4301 3.29707 21.7794 1.87575 18.8926 1.29363C18.4925 1.21205 18.0846 1.14795 17.6727 1.09938C17.1195 1.03484 16.5631 1.00176 16.0061 1.00032C15.4721 0.996795 14.9384 1.02273 14.4074 1.07802C13.9878 1.11881 13.5721 1.18097 13.1642 1.25867C12.7562 1.33637 12.3541 1.42767 11.9579 1.53645C10.7926 1.85796 9.67118 2.32114 8.61868 2.91563C8.39335 3.0419 8.16996 3.17399 7.9524 3.30414C5.55626 4.82563 3.63962 6.99414 2.424 9.55904C1.92261 10.6175 1.54896 11.732 1.31094 12.8788C1.1069 13.8675 1.00278 14.8743 1.00014 15.8839V15.8839Z"/></mask><g mask="url(#b)"><path fill="#FFF6AA" d="M16.2219-7.10809C17.0057-6.72033 17.7544-6.26538 18.4597-5.74833L-8.28871 24.5218C-8.9159 23.9119-9.48853 23.2482-10.0001 22.5385L16.2219-7.10809zM23.2219-.108093C24.0057.279666 24.7544.734622 25.4597 1.25167L-1.28871 31.5218C-1.9159 30.9119-2.48853 30.2482-3.00006 29.5385L23.2219-.108093zM19.2219-3.10809C20.0057-2.72033 20.7544-2.26538 21.4597-1.74833L-5.28871 28.5218C-5.9159 27.9119-6.48853 27.2482-7.00006 26.5385L19.2219-3.10809zM26.2219 3.89191C27.0057 4.27967 27.7544 4.73462 28.4597 5.25167L1.71129 35.5218C1.0841 34.9119.51147 34.2482-.0000610352 33.5385L26.2219 3.89191zM31.2219 5.89191C32.0057 6.27967 32.7544 6.73462 33.4597 7.25167L6.71129 37.5218C6.0841 36.9119 5.51147 36.2482 4.99994 35.5385L31.2219 5.89191zM33.2219 10.8919C34.0057 11.2797 34.7544 11.7346 35.4597 12.2517L8.71129 42.5218C8.0841 41.9119 7.51147 41.2482 6.99994 40.5385L33.2219 10.8919zM39.2219 10.8919C40.0057 11.2797 40.7544 11.7346 41.4597 12.2517L14.7113 42.5218C14.0841 41.9119 13.5115 41.2482 12.9999 40.5385L39.2219 10.8919z"/></g><path fill="#F9BF2C" d="M17.9801 29.1825C25.3659 27.9836 30.3814 21.0243 29.1825 13.6385C27.9836 6.2527 21.0244 1.23721 13.6386 2.4361C6.25276 3.63498 1.23727 10.5943 2.43616 17.9801C3.63504 25.3659 10.5943 30.3814 17.9801 29.1825Z"/><path style="mix-blend-mode:multiply" fill="url(#c)" d="M18.0172 29.4108C25.5291 28.1915 30.6302 21.1134 29.4108 13.6015C28.1915 6.08961 21.1134 0.988492 13.6015 2.20785C6.0896 3.4272 0.988481 10.5053 2.20783 18.0172C3.42719 25.5291 10.5053 30.6302 18.0172 29.4108Z"/><path style="mix-blend-mode:multiply" fill="url(#d)" d="M28.5814 15.9602C28.6451 12.4573 27.3521 9.07159 24.9865 6.54702C22.6209 4.02245 19.3761 2.56546 15.9651 2.49616C17.7172 2.44769 19.461 2.76023 21.0936 3.41531C22.7261 4.0704 24.2143 5.05475 25.4702 6.31025C26.7262 7.56575 27.7245 9.06695 28.4061 10.7252C29.0877 12.3835 29.4389 14.1652 29.4389 15.9651C29.4389 17.7651 29.0877 19.5468 28.4061 21.205C27.7245 22.8633 26.7262 24.3645 25.4702 25.62C24.2143 26.8755 22.7261 27.8598 21.0936 28.5149C19.461 29.17 17.7172 29.4825 15.9651 29.4341C19.3778 29.3648 22.624 27.9064 24.9899 25.3797C27.3558 22.853 28.6476 19.4649 28.5814 15.9602V15.9602Z"/><path style="mix-blend-mode:multiply" fill="url(#e)" d="M15.9651 2.49616C12.5541 2.56546 9.30932 4.02245 6.94371 6.54702C4.57811 9.07159 3.28512 12.4573 3.34883 15.9602C3.28257 19.4649 4.57442 22.853 6.9403 25.3797C9.30618 27.9064 12.5524 29.3648 15.9651 29.4341C14.213 29.4825 12.4692 29.17 10.8366 28.5149C9.20409 27.8598 7.71591 26.8755 6.45995 25.62C5.20399 24.3645 4.20573 22.8633 3.52409 21.205C2.84246 19.5468 2.49127 17.7651 2.49127 15.9651C2.49127 14.1652 2.84246 12.3835 3.52409 10.7252C4.20573 9.06695 5.20399 7.56575 6.45995 6.31025C7.71591 5.05475 9.20409 4.0704 10.8366 3.41531C12.4692 2.76023 14.213 2.44769 15.9651 2.49616V2.49616Z"/><path fill="#FFF6AA" fill-rule="evenodd" d="M5.07481 18.1482L5.0748 18.1483C5.05064 18.2464 5.0265 18.3444 5 18.4414V19.0537C5.00271 19.0592 5.00599 19.0648 5.00931 19.0704L5.00931 19.0704L5.00932 19.0704C5.01774 19.0847 5.02637 19.0993 5.02637 19.1152C5.1654 20.0102 5.86534 20.6544 6.7187 20.7921C7.61041 20.9347 8.50691 20.9126 9.39622 20.7798C9.95234 20.6962 10.4605 20.4798 10.8656 20.0594C11.3642 19.5405 11.5704 18.8889 11.5632 18.1857C11.556 17.5144 11.4913 16.8407 11.4241 16.1694C11.3187 15.0925 11.2012 14.0155 11.0646 12.9434C11.019 12.582 11.0886 12.3066 11.3259 12.0287C11.719 11.5664 11.6495 11.087 11.1964 10.7354C10.97 10.5601 10.7523 10.3721 10.5344 10.1839L10.427 10.0911C10.2688 9.95343 10.1801 9.96819 10.0794 10.16C9.81811 10.6517 9.8205 11.1657 9.93077 11.6968C9.9585 11.8309 9.98674 11.9648 10.015 12.0986L10.015 12.0986L10.015 12.0986C10.1234 12.6125 10.2315 13.1253 10.3095 13.6442C10.4318 14.4507 10.5204 15.2621 10.6019 16.0735C10.6571 16.6071 10.705 17.1456 10.705 17.6841C10.705 18.5742 10.3263 19.0758 9.4993 19.3069C8.78257 19.5061 8.04667 19.5307 7.31077 19.4422C6.92724 19.3955 6.56528 19.2799 6.26805 19.0094C5.95883 18.7291 5.81261 18.3873 5.94684 17.9619C5.96105 17.9159 5.97471 17.8696 5.98839 17.8232L5.98839 17.8232L5.9884 17.8232C6.03239 17.6741 6.07643 17.5248 6.13861 17.3841C6.22886 17.1776 6.32917 16.9775 6.42952 16.7773C6.46776 16.7011 6.50601 16.6248 6.54371 16.5481C6.68274 16.2678 6.5509 15.9678 6.27045 15.9432C6.09067 15.9285 5.94924 16.0072 5.87253 16.167C5.83541 16.2445 5.79798 16.3219 5.76053 16.3993C5.59001 16.7519 5.41914 17.1053 5.27566 17.4702C5.18826 17.6874 5.1315 17.918 5.07481 18.1482ZM18.161 17.3739L18.161 17.374C18.1855 17.4896 18.2102 17.6065 18.2394 17.7239C18.1075 17.7239 18.0069 17.7239 17.9062 17.7264C17.5476 17.7264 17.189 17.7272 16.8304 17.7279C16.2925 17.7291 15.7546 17.7303 15.2167 17.7288C14.814 17.7288 14.6198 17.5272 14.5934 17.1166C14.5815 16.9223 14.5671 16.7305 14.5503 16.5387C14.5176 16.1348 14.4843 15.7305 14.4509 15.326L14.4508 15.3248C14.3984 14.6905 14.346 14.0557 14.2962 13.4209C14.2363 12.6464 14.0062 11.9136 13.7689 11.1833C13.7497 11.1243 13.6634 11.0481 13.6083 11.0481C13.5507 11.0481 13.4716 11.1169 13.4405 11.1784C13.3829 11.2964 13.3339 11.4188 13.2849 11.5412L13.2849 11.5412L13.2849 11.5412L13.2849 11.5412L13.2849 11.5412C13.2604 11.6024 13.2359 11.6636 13.2103 11.7243C13.1049 11.9751 13.0665 12.2357 13.1073 12.5062C13.1299 12.6572 13.153 12.8083 13.1762 12.9597L13.1763 12.9605C13.2266 13.2897 13.2771 13.6196 13.323 13.9496C13.4153 14.6072 13.5055 15.2659 13.5957 15.9243C13.6437 16.2752 13.6918 16.6259 13.7401 16.9764C13.7567 17.0976 13.7719 17.219 13.7872 17.3405L13.7872 17.3405L13.7872 17.3406C13.8228 17.6232 13.8583 17.9059 13.9103 18.1862C14.0229 18.7886 14.4185 19.1796 14.9434 19.1869C15.8413 19.1977 16.7379 19.198 17.635 19.1983H17.6351H17.6351C17.9715 19.1984 18.3079 19.1986 18.6445 19.1992C18.7811 19.1992 18.8458 19.1378 18.8554 18.9951C18.9178 18.0362 18.9681 17.0797 18.8147 16.1256C18.726 15.5675 18.539 15.0511 18.1075 14.6651C17.9661 14.5372 17.8774 14.5495 17.7696 14.7093C17.4052 15.2454 17.3908 15.7519 17.7672 16.283C17.9998 16.6126 18.0789 16.986 18.161 17.3739ZM26.0001 17.8992C25.9881 18.4771 25.8299 19.1065 25.4104 19.6622C25.3587 19.731 25.3073 19.8 25.256 19.8689C24.9146 20.3271 24.5749 20.783 24.1519 21.172C23.2986 21.9539 22.3302 22.1973 21.2323 21.8432C20.6738 21.6638 20.1225 21.4695 19.5712 21.2703C19.5016 21.2457 19.4106 21.14 19.4129 21.0736C19.4153 20.9556 19.5232 20.8917 19.6431 20.9113C19.8564 20.9458 20.0673 20.99 20.2759 21.0392C21.5032 21.322 22.5675 20.9949 23.4999 20.1491C23.9458 19.7434 24.3173 19.2713 24.6505 18.7697C25.0437 18.1771 25.0053 17.4837 24.5307 16.8641C24.2757 16.531 24.0133 16.2026 23.751 15.8743L23.7509 15.8742C23.5892 15.6718 23.4274 15.4693 23.2674 15.2658C22.9582 14.8724 23.1356 14.3314 23.6054 14.2257C23.8068 14.1814 24.0153 14.2109 24.1424 14.3708L24.3282 14.6018C24.7829 15.1665 25.2391 15.733 25.6525 16.328C25.9258 16.7288 25.9953 17.2476 26.0001 17.8992ZM15.5979 22.3483C15.8448 22.1196 16.0893 21.8909 16.3482 21.6475C16.4139 21.7243 16.4796 21.8009 16.5453 21.8774C16.6855 22.0408 16.8254 22.2038 16.9642 22.3679C17.0529 22.4687 17.1488 22.4958 17.2519 22.3974C17.482 22.1786 17.7121 21.9573 17.9422 21.736C18.0261 21.6524 18.0333 21.559 17.9542 21.4655C17.8757 21.3733 17.7978 21.2811 17.72 21.189C17.5696 21.0109 17.4195 20.8332 17.2662 20.6566C17.1895 20.5656 17.0913 20.5631 17.0026 20.6443C16.8664 20.7722 16.7309 20.9008 16.5943 21.0305C16.4736 21.1451 16.352 21.2605 16.2283 21.377C16.138 21.2663 16.0456 21.155 15.9526 21.043C15.8433 20.9113 15.7331 20.7785 15.6243 20.6443C15.5284 20.5287 15.4301 20.4967 15.3126 20.6074C15.2012 20.7131 15.0885 20.8182 14.9759 20.9234C14.8632 21.0285 14.7505 21.1336 14.6391 21.2393C14.5456 21.3278 14.5432 21.4262 14.6247 21.5245C14.6951 21.6085 14.7656 21.6927 14.8361 21.7769C14.9888 21.9593 15.1418 22.1421 15.2959 22.3237C15.3893 22.4343 15.49 22.4491 15.5979 22.3483Z" clip-rule="evenodd"/><path fill="#FFF6AA" d="M5.0748 18.1483L5.36613 18.22L5.36709 18.2158L5.0748 18.1483ZM5.07481 18.1482L4.78347 18.0765L4.78252 18.0806L5.07481 18.1482ZM5 18.4414L4.71061 18.3623L4.7 18.4012V18.4414H5ZM5 19.0537H4.7V19.1229L4.73033 19.1851L5 19.0537ZM5.00931 19.0704L5.28782 18.9589L5.27928 18.9376L5.2676 18.9178L5.00931 19.0704ZM5.00931 19.0704L4.73081 19.1819L4.73903 19.2025L4.75017 19.2216L5.00931 19.0704ZM5.00932 19.0704L4.75017 19.2216L4.75103 19.223L5.00932 19.0704ZM5.02637 19.1152H4.72637V19.1383L4.72992 19.1612L5.02637 19.1152ZM6.7187 20.7921L6.67091 21.0883L6.67132 21.0883L6.7187 20.7921ZM9.39622 20.7798L9.44052 21.0765L9.44082 21.0765L9.39622 20.7798ZM10.8656 20.0594L11.0817 20.2675L11.0819 20.2672L10.8656 20.0594ZM11.5632 18.1857L11.8632 18.1826L11.8632 18.1825L11.5632 18.1857ZM11.4241 16.1694L11.1256 16.1987L11.1256 16.1993L11.4241 16.1694ZM11.0646 12.9434L10.7669 12.9809L10.767 12.9813L11.0646 12.9434ZM11.3259 12.0287L11.554 12.2235L11.5544 12.2231L11.3259 12.0287ZM11.1964 10.7354L11.3804 10.4984L11.38 10.4981L11.1964 10.7354ZM10.5344 10.1839L10.7305 9.95685L10.7304 9.95675L10.5344 10.1839ZM10.427 10.0911L10.23 10.3174L10.231 10.3183L10.427 10.0911ZM10.0794 10.16L10.3443 10.3007L10.345 10.2994L10.0794 10.16ZM9.93077 11.6968L10.2246 11.636L10.2245 11.6358L9.93077 11.6968ZM10.015 12.0986L10.3107 12.0471L10.3085 12.0366L10.015 12.0986ZM10.015 12.0986L9.7194 12.15L9.71981 12.1523L10.015 12.0986ZM10.015 12.0986L9.71969 12.1523L9.72143 12.1605L10.015 12.0986ZM10.3095 13.6442L10.0128 13.6888L10.0129 13.6891L10.3095 13.6442ZM10.6019 16.0735L10.3034 16.1035L10.3035 16.1044L10.6019 16.0735ZM9.4993 19.3069L9.57962 19.596L9.58005 19.5959L9.4993 19.3069ZM7.31077 19.4422L7.2745 19.74L7.27495 19.74L7.31077 19.4422ZM6.26805 19.0094L6.46996 18.7875L6.46954 18.7872L6.26805 19.0094ZM5.94684 17.9619L6.23294 18.0522L6.23351 18.0504L5.94684 17.9619ZM5.98839 17.8232L5.70104 17.737L5.70065 17.7383L5.98839 17.8232ZM5.98839 17.8232L6.27574 17.9094L6.27639 17.9072L5.98839 17.8232ZM5.9884 17.8232L5.70066 17.7383L5.7004 17.7392L5.9884 17.8232ZM6.13861 17.3841L6.41301 17.5054L6.4135 17.5042L6.13861 17.3841ZM6.42952 16.7773L6.69771 16.9118H6.69771L6.42952 16.7773ZM6.54371 16.5481L6.27495 16.4148L6.2745 16.4157L6.54371 16.5481ZM6.27045 15.9432L6.29665 15.6444L6.29498 15.6442L6.27045 15.9432ZM5.87253 16.167L5.60207 16.0372L5.60198 16.0374L5.87253 16.167ZM5.76053 16.3993L5.49045 16.2687L5.49045 16.2687L5.76053 16.3993ZM5.27566 17.4702L5.55399 17.5822L5.55486 17.5799L5.27566 17.4702ZM18.161 17.374L18.4545 17.3119L18.4535 17.3075L18.161 17.374ZM18.161 17.3739L17.8675 17.4361L17.8685 17.4404L18.161 17.3739ZM18.2394 17.7239V18.0239H18.623L18.5305 17.6516L18.2394 17.7239ZM17.9062 17.7264V18.0265L17.9135 18.0263L17.9062 17.7264ZM16.8304 17.7279L16.8311 18.0279L16.8304 17.7279ZM15.2167 17.7288L15.2175 17.4288H15.2167V17.7288ZM14.5934 17.1166L14.294 17.135L14.2941 17.1358L14.5934 17.1166ZM14.5503 16.5387L14.2513 16.5629L14.2514 16.5649L14.5503 16.5387ZM14.4509 15.326L14.1519 15.3505L14.1519 15.3507L14.4509 15.326ZM14.4508 15.3248L14.7497 15.3003L14.7497 15.3001L14.4508 15.3248ZM14.2962 13.4209L13.9971 13.444L13.9971 13.4443L14.2962 13.4209ZM13.7689 11.1833L14.0542 11.0906L14.0542 11.0906L13.7689 11.1833ZM13.4405 11.1784L13.1728 11.0428L13.1708 11.047L13.4405 11.1784ZM13.2849 11.5412L13.5587 11.6645L13.5634 11.6527L13.2849 11.5412ZM13.2849 11.5412L13.0114 11.4179L13.0103 11.4205L13.2849 11.5412ZM13.2849 11.5412L13.0102 11.4205L13.0084 11.4248L13.2849 11.5412ZM13.2849 11.5412L13.0084 11.4248L13.0064 11.4297L13.2849 11.5412ZM13.2103 11.7243L12.9339 11.6077L12.9338 11.608L13.2103 11.7243ZM13.1073 12.5062L13.4039 12.4617L13.4039 12.4615L13.1073 12.5062ZM13.1762 12.9597L12.8796 13.005L12.8797 13.0054L13.1762 12.9597ZM13.1763 12.9605L13.4728 12.9152L13.4728 12.9149L13.1763 12.9605ZM13.323 13.9496L13.0259 13.9909L13.0259 13.9912L13.323 13.9496ZM13.5957 15.9243L13.2984 15.965V15.965L13.5957 15.9243ZM13.7401 16.9764L14.0373 16.9358L14.0373 16.9354L13.7401 16.9764ZM13.7872 17.3405L13.4895 17.3779L13.4897 17.3789L13.7872 17.3405ZM13.7872 17.3406L14.0849 17.3031L14.0847 17.3022L13.7872 17.3406ZM13.9103 18.1862L13.6153 18.2409L13.6154 18.2413L13.9103 18.1862ZM14.9434 19.1869L14.9392 19.4869L14.9398 19.4869L14.9434 19.1869ZM17.635 19.1983L17.6349 19.4983H17.635V19.1983ZM17.6351 19.1983L17.6352 18.8983H17.6351V19.1983ZM18.6445 19.1992L18.6439 19.4992H18.6445V19.1992ZM18.8554 18.9951L19.1548 19.0153L19.1548 19.0146L18.8554 18.9951ZM18.8147 16.1256L18.5184 16.1727L18.5185 16.1733L18.8147 16.1256ZM18.1075 14.6651L17.9064 14.8876L17.9075 14.8887L18.1075 14.6651ZM17.7696 14.7093L18.0177 14.878L18.0182 14.8772L17.7696 14.7093ZM17.7672 16.283L18.0122 16.11L18.0119 16.1096L17.7672 16.283ZM25.4104 19.6622L25.171 19.4815L25.1706 19.482L25.4104 19.6622ZM26.0001 17.8992L26.3001 17.9055L26.3001 17.897L26.0001 17.8992ZM25.256 19.8689L25.0154 19.6897V19.6897L25.256 19.8689ZM24.1519 21.172L24.3546 21.3932L24.355 21.3928L24.1519 21.172ZM21.2323 21.8432L21.3244 21.5577L21.3241 21.5576L21.2323 21.8432ZM19.5712 21.2703L19.6731 20.9882L19.6712 20.9875L19.5712 21.2703ZM19.4129 21.0736L19.7128 21.0845L19.7129 21.0797L19.4129 21.0736ZM19.6431 20.9113L19.5945 21.2074L19.5953 21.2075L19.6431 20.9113ZM20.2759 21.0392L20.207 21.3312L20.2085 21.3315L20.2759 21.0392ZM23.4999 20.1491L23.7015 20.3713L23.7019 20.371L23.4999 20.1491ZM24.6505 18.7697L24.9004 18.9357L24.9005 18.9355L24.6505 18.7697ZM24.5307 16.8641L24.2925 17.0464L24.2925 17.0465L24.5307 16.8641ZM23.751 15.8743L23.9854 15.6871L23.9841 15.6854L23.751 15.8743ZM23.7509 15.8742L23.5166 16.0615L23.5179 16.0632L23.7509 15.8742ZM23.2674 15.2658L23.0316 15.4512L23.0316 15.4512L23.2674 15.2658ZM23.6054 14.2257L23.541 13.9327L23.5396 13.933L23.6054 14.2257ZM24.1424 14.3708L23.9075 14.5574L23.9086 14.5588L24.1424 14.3708ZM24.3282 14.6018L24.0945 14.7898L24.0945 14.7899L24.3282 14.6018ZM25.6525 16.328L25.9004 16.159L25.8989 16.1568L25.6525 16.328ZM16.3482 21.6475L16.5761 21.4525L16.3717 21.2135L16.1427 21.4289L16.3482 21.6475ZM15.5979 22.3483L15.394 22.1282L15.393 22.1291L15.5979 22.3483ZM16.5453 21.8774L16.3176 22.0728L16.5453 21.8774ZM16.9642 22.3679L16.7351 22.5617L16.739 22.5661L16.9642 22.3679ZM17.2519 22.3974L17.0451 22.18L17.0448 22.1804L17.2519 22.3974ZM17.9422 21.736L18.1502 21.9523L18.154 21.9485L17.9422 21.736ZM17.9542 21.4655L18.1832 21.2717L18.1827 21.2711L17.9542 21.4655ZM17.72 21.189L17.4908 21.3826L17.4908 21.3826L17.72 21.189ZM17.2662 20.6566L17.0369 20.85L17.0396 20.8532L17.2662 20.6566ZM17.0026 20.6443L16.8 20.4229L16.7972 20.4256L17.0026 20.6443ZM16.5943 21.0305L16.3878 20.8129L16.3878 20.8129L16.5943 21.0305ZM16.2283 21.377L15.9958 21.5666L16.1995 21.8163L16.434 21.5954L16.2283 21.377ZM15.9526 21.043L16.1835 20.8514L15.9526 21.043ZM15.6243 20.6443L15.8573 20.4553L15.8551 20.4527L15.6243 20.6443ZM15.3126 20.6074L15.1069 20.389L15.1062 20.3897L15.3126 20.6074ZM14.9759 20.9234L15.1805 21.1427L15.1805 21.1427L14.9759 20.9234ZM14.6391 21.2393L14.8453 21.4572L14.8455 21.457L14.6391 21.2393ZM14.6247 21.5245L14.3937 21.716L14.3949 21.7174L14.6247 21.5245ZM14.8361 21.7769L14.6061 21.9695H14.6061L14.8361 21.7769ZM15.2959 22.3237L15.525 22.1301L15.5246 22.1296L15.2959 22.3237ZM5.36709 18.2158L5.36709 18.2158L4.78252 18.0806L4.78252 18.0807L5.36709 18.2158ZM5.28939 18.5205C5.31706 18.4192 5.3421 18.3175 5.3661 18.22L4.7835 18.0765C4.75919 18.1753 4.73594 18.2697 4.71061 18.3623L5.28939 18.5205ZM5.3 19.0537V18.4414H4.7V19.0537H5.3ZM5.2676 18.9178C5.26567 18.9146 5.26552 18.9143 5.26561 18.9144C5.26584 18.9148 5.26748 18.9177 5.26967 18.9222L4.73033 19.1851C4.73925 19.2034 4.74895 19.2195 4.75103 19.223L5.2676 18.9178ZM5.28782 18.9589L5.28782 18.9589L4.73081 19.1819L4.73081 19.1819L5.28782 18.9589ZM5.26846 18.9193L5.26846 18.9193L4.75017 19.2216L4.75018 19.2216L5.26846 18.9193ZM5.32637 19.1152C5.32637 19.0525 5.30928 19.003 5.29632 18.973C5.28434 18.9453 5.26998 18.9218 5.26761 18.9178L4.75103 19.223C4.75708 19.2333 4.75124 19.2242 4.74568 19.2113C4.73914 19.1962 4.72637 19.162 4.72637 19.1152H5.32637ZM6.76649 20.4959C6.03254 20.3775 5.44054 19.827 5.32281 19.0691L4.72992 19.1612C4.89025 20.1934 5.69814 20.9313 6.67091 21.0883L6.76649 20.4959ZM9.35192 20.4831C8.48679 20.6123 7.62179 20.6327 6.76608 20.4959L6.67132 21.0883C7.59902 21.2367 8.52702 21.2129 9.44052 21.0765L9.35192 20.4831ZM10.6496 19.8512C10.2998 20.2142 9.85741 20.4071 9.35162 20.4831L9.44082 21.0765C10.0473 20.9853 10.6212 20.7454 11.0817 20.2675L10.6496 19.8512ZM11.2632 18.1888C11.2697 18.8287 11.0837 19.3995 10.6493 19.8515L11.0819 20.2672C11.6447 19.6816 11.871 18.9491 11.8632 18.1826L11.2632 18.1888ZM11.1256 16.1993C11.1929 16.8717 11.2562 17.5328 11.2632 18.1889L11.8632 18.1825C11.8558 17.496 11.7897 16.8097 11.7227 16.1396L11.1256 16.1993ZM10.767 12.9813C10.9032 14.0498 11.0203 15.1238 11.1256 16.1987L11.7227 16.1402C11.617 15.0611 11.4993 13.9811 11.3622 12.9055L10.767 12.9813ZM11.0977 11.8339C10.9557 12.0002 10.8551 12.1766 10.8001 12.3744C10.7455 12.5709 10.7406 12.7718 10.7669 12.9809L11.3622 12.9059C11.343 12.7536 11.3501 12.636 11.3782 12.5351C11.4059 12.4353 11.4588 12.335 11.554 12.2235L11.0977 11.8339ZM11.0125 10.9723C11.1937 11.113 11.2668 11.2537 11.2803 11.374C11.2937 11.4929 11.2552 11.6487 11.0973 11.8344L11.5544 12.2231C11.7897 11.9464 11.913 11.6314 11.8766 11.3071C11.8403 10.9842 11.6522 10.7093 11.3804 10.4984L11.0125 10.9723ZM10.3383 10.4109C10.5552 10.5982 10.7789 10.7915 11.0128 10.9726L11.38 10.4981C11.161 10.3286 10.9495 10.146 10.7305 9.95685L10.3383 10.4109ZM10.231 10.3183L10.3384 10.411L10.7304 9.95675L10.623 9.864L10.231 10.3183ZM10.345 10.2994C10.3641 10.2631 10.3734 10.2535 10.3712 10.2558C10.3669 10.2603 10.3395 10.2868 10.2881 10.2966C10.2364 10.3065 10.2003 10.292 10.1933 10.2887C10.1893 10.2869 10.2003 10.2916 10.23 10.3174L10.6239 9.86484C10.5433 9.79468 10.3819 9.66773 10.1751 9.70736C9.96971 9.74672 9.86502 9.92289 9.81376 10.0205L10.345 10.2994ZM10.2245 11.6358C10.1218 11.1409 10.1286 10.7068 10.3443 10.3007L9.81446 10.0192C9.50762 10.5967 9.51923 11.1904 9.63703 11.7577L10.2245 11.6358ZM10.3085 12.0366C10.2803 11.9027 10.2521 11.7694 10.2246 11.636L9.63698 11.7575C9.66485 11.8923 9.69322 12.0268 9.72142 12.1605L10.3085 12.0366ZM10.3105 12.0472L10.3105 12.0472L9.7194 12.15L9.7194 12.15L10.3105 12.0472ZM10.3101 12.0449L10.3101 12.0449L9.71981 12.1523L9.71981 12.1523L10.3101 12.0449ZM10.6062 13.5996C10.5267 13.0705 10.4166 12.5492 10.3085 12.0367L9.72143 12.1605C9.83014 12.6759 9.93639 13.18 10.0128 13.6888L10.6062 13.5996ZM10.9004 16.0436C10.8188 15.2309 10.7295 14.4134 10.6061 13.5992L10.0129 13.6891C10.134 14.488 10.2221 15.2933 10.3034 16.1035L10.9004 16.0436ZM11.005 17.6841C11.005 17.1292 10.9556 16.5777 10.9004 16.0427L10.3035 16.1044C10.3585 16.6365 10.405 17.162 10.405 17.6841H11.005ZM9.58005 19.5959C10.0358 19.4685 10.4034 19.2563 10.6528 18.922C10.9014 18.5885 11.005 18.1703 11.005 17.6841H10.405C10.405 18.0879 10.3192 18.3656 10.1718 18.5633C10.025 18.7601 9.78975 18.9143 9.41854 19.018L9.58005 19.5959ZM7.27495 19.74C8.04078 19.8322 8.81729 19.8078 9.57962 19.596L9.41897 19.0179C8.74786 19.2044 8.05256 19.2292 7.3466 19.1443L7.27495 19.74ZM6.06614 19.2313C6.42564 19.5584 6.85537 19.6889 7.2745 19.74L7.34705 19.1444C6.99911 19.102 6.70493 19.0014 6.46996 18.7875L6.06614 19.2313ZM5.66075 17.8717C5.57618 18.1397 5.57641 18.3968 5.65681 18.6358C5.73587 18.8707 5.88535 19.0674 6.06656 19.2317L6.46954 18.7872C6.34152 18.6711 6.26328 18.5568 6.22549 18.4444C6.18903 18.3361 6.18327 18.2096 6.23293 18.0522L5.66075 17.8717ZM5.70065 17.7383C5.68689 17.785 5.67374 17.8295 5.66017 17.8735L6.23351 18.0504C6.24835 18.0023 6.26254 17.9542 6.27612 17.9081L5.70065 17.7383ZM5.70104 17.737L5.70104 17.737L6.27573 17.9094L6.27574 17.9094L5.70104 17.737ZM5.7004 17.7392L5.70039 17.7392L6.27639 17.9072L6.2764 17.9072L5.7004 17.7392ZM5.86421 17.2628C5.79286 17.4243 5.74368 17.5925 5.70066 17.7383L6.27614 17.9081C6.32111 17.7557 6.36001 17.6253 6.413 17.5054L5.86421 17.2628ZM6.16134 16.6429C6.06156 16.8419 5.95765 17.049 5.86371 17.264L6.4135 17.5042C6.50007 17.3062 6.59678 17.1131 6.69771 16.9118L6.16134 16.6429ZM6.2745 16.4157C6.23739 16.4912 6.19966 16.5664 6.16134 16.6429L6.69771 16.9118C6.73586 16.8357 6.77463 16.7584 6.81292 16.6805L6.2745 16.4157ZM6.24424 16.2421C6.26222 16.2436 6.27087 16.2486 6.27498 16.2516C6.27962 16.255 6.28549 16.261 6.29057 16.2723C6.30079 16.2952 6.309 16.3462 6.27495 16.4148L6.81247 16.6814C6.91745 16.4697 6.92926 16.2306 6.8382 16.0272C6.7447 15.8183 6.54913 15.6665 6.29665 15.6444L6.24424 16.2421ZM6.143 16.2968C6.15785 16.2658 6.17208 16.2555 6.17957 16.2513C6.18756 16.2468 6.20659 16.239 6.24591 16.2422L6.29498 15.6442C6.15452 15.6327 6.01295 15.6568 5.8861 15.728C5.75876 15.7994 5.66392 15.9083 5.60207 16.0372L6.143 16.2968ZM6.03061 16.5299C6.06802 16.4526 6.10569 16.3747 6.14309 16.2966L5.60198 16.0374C5.56513 16.1143 5.52794 16.1912 5.49045 16.2687L6.03061 16.5299ZM5.55486 17.5799C5.69348 17.2274 5.85926 16.8842 6.03061 16.5299L5.49045 16.2687C5.32076 16.6196 5.1448 16.9831 4.99647 17.3604L5.55486 17.5799ZM5.36611 18.22C5.42371 17.986 5.47584 17.7764 5.55398 17.5821L4.99734 17.3582C4.90068 17.5985 4.83929 17.8499 4.7835 18.0765L5.36611 18.22ZM18.4535 17.3075L18.4535 17.3074L17.8685 17.4404L17.8685 17.4405L18.4535 17.3075ZM18.5305 17.6516C18.5028 17.5401 18.4791 17.4283 18.4545 17.3119L17.8675 17.4361C17.8918 17.5509 17.9176 17.6729 17.9482 17.7962L18.5305 17.6516ZM17.9135 18.0263C18.0098 18.0239 18.1067 18.0239 18.2394 18.0239V17.4239C18.1084 17.4239 18.0039 17.4239 17.8989 17.4265L17.9135 18.0263ZM16.8311 18.0279C17.1897 18.0272 17.548 18.0264 17.9062 18.0264V17.4264C17.5472 17.4264 17.1883 17.4272 16.8298 17.4279L16.8311 18.0279ZM15.2159 18.0288C15.7546 18.0303 16.2933 18.0291 16.8311 18.0279L16.8298 17.4279C16.2917 17.4291 15.7546 17.4303 15.2175 17.4288L15.2159 18.0288ZM14.2941 17.1358C14.3097 17.3798 14.3782 17.616 14.5523 17.7893C14.7295 17.9658 14.9673 18.0288 15.2167 18.0288V17.4288C15.0633 17.4288 15.0027 17.3911 14.9756 17.3641C14.9453 17.3339 14.9035 17.2639 14.8928 17.0973L14.2941 17.1358ZM14.2514 16.5649C14.268 16.7542 14.2822 16.9434 14.294 17.135L14.8929 17.0981C14.8807 16.9012 14.8662 16.7069 14.8492 16.5126L14.2514 16.5649ZM14.1519 15.3507C14.1853 15.7553 14.2186 16.1593 14.2513 16.5629L14.8493 16.5146C14.8166 16.1103 14.7832 15.7058 14.7498 15.3013L14.1519 15.3507ZM14.1518 15.3493L14.1519 15.3505L14.7498 15.3015L14.7497 15.3003L14.1518 15.3493ZM13.9971 13.4443C14.0469 14.0799 14.0994 14.7153 14.1518 15.3495L14.7497 15.3001C14.6973 14.6657 14.645 14.0315 14.5953 13.3975L13.9971 13.4443ZM13.4835 11.276C13.7218 12.0091 13.9403 12.7099 13.9971 13.444L14.5953 13.3978C14.5323 12.5828 14.2906 11.8181 14.0542 11.0906L13.4835 11.276ZM13.6083 11.3481C13.558 11.3481 13.5261 11.3324 13.5198 11.3293C13.5144 11.3266 13.511 11.3244 13.5094 11.3233C13.5078 11.3222 13.507 11.3216 13.5069 11.3214C13.5067 11.3213 13.5066 11.3212 13.5064 11.3209C13.5062 11.3207 13.5053 11.3198 13.5039 11.3179C13.5028 11.3165 13.4922 11.3027 13.4835 11.2761L14.0542 11.0906C14.0209 10.9881 13.9499 10.9108 13.8972 10.8657C13.8669 10.8398 13.8301 10.8136 13.788 10.7926C13.7494 10.7733 13.6861 10.7481 13.6083 10.7481V11.3481ZM13.708 11.3141C13.7035 11.323 13.7005 11.3262 13.7013 11.3252C13.7014 11.3251 13.7018 11.3247 13.7022 11.3243C13.7027 11.3238 13.7029 11.3236 13.7028 11.3237C13.7027 11.3238 13.7018 11.3245 13.6998 11.3258C13.6979 11.327 13.6941 11.3293 13.6883 11.332C13.6794 11.3361 13.6511 11.3481 13.6083 11.3481V10.7481C13.4762 10.7481 13.3749 10.8174 13.3261 10.8567C13.2684 10.9033 13.2109 10.9677 13.1729 11.0428L13.708 11.3141ZM13.5634 11.6527C13.6131 11.5286 13.6582 11.4164 13.7101 11.3099L13.1708 11.047C13.1077 11.1764 13.0547 11.309 13.0064 11.4297L13.5634 11.6527ZM13.5584 11.6645L13.5584 11.6644L13.0114 11.4179L13.0114 11.4179L13.5584 11.6645ZM13.5596 11.6619L13.5596 11.6619L13.0103 11.4205L13.0103 11.4205L13.5596 11.6619ZM13.5614 11.6576L13.5614 11.6576L13.0084 11.4248L13.0084 11.4248L13.5614 11.6576ZM13.5614 11.6577L13.5614 11.6576L13.0084 11.4248L13.0084 11.4248L13.5614 11.6577ZM13.4868 11.8408C13.5136 11.7772 13.5391 11.7135 13.5634 11.6527L13.0064 11.4297C12.9817 11.4913 12.9582 11.55 12.9339 11.6077L13.4868 11.8408ZM13.4039 12.4615C13.372 12.2498 13.401 12.0447 13.4869 11.8406L12.9338 11.608C12.8087 11.9055 12.761 12.2217 12.8106 12.5509L13.4039 12.4615ZM13.4727 12.9144C13.4496 12.7629 13.4265 12.6122 13.4039 12.4617L12.8106 12.5507C12.8333 12.7021 12.8565 12.8538 12.8796 13.005L13.4727 12.9144ZM13.4728 12.9149L13.4727 12.9141L12.8797 13.0054L12.8798 13.0062L13.4728 12.9149ZM13.6201 13.9082C13.5739 13.5759 13.5231 13.244 13.4728 12.9152L12.8797 13.0059C12.9301 13.3353 12.9802 13.6633 13.0259 13.9909L13.6201 13.9082ZM13.8929 15.8836C13.8027 15.2253 13.7124 14.5661 13.6201 13.9079L13.0259 13.9912C13.1181 14.6483 13.2082 15.3065 13.2984 15.965L13.8929 15.8836ZM14.0373 16.9354C13.989 16.5851 13.9409 16.2345 13.8929 15.8836L13.2984 15.965C13.3465 16.3158 13.3945 16.6668 13.4429 17.0174L14.0373 16.9354ZM14.0849 17.303C14.0696 17.1819 14.0542 17.0588 14.0373 16.9358L13.4429 17.0171C13.4592 17.1364 13.4742 17.2562 13.4895 17.3779L14.0849 17.303ZM14.0847 17.3021L14.0847 17.3021L13.4897 17.3789L13.4897 17.3789L14.0847 17.3021ZM14.0847 17.3022L14.0847 17.3021L13.4897 17.3789L13.4897 17.3789L14.0847 17.3022ZM14.2053 18.1315C14.1551 17.8612 14.1206 17.5872 14.0849 17.3031L13.4896 17.378C13.5249 17.6591 13.5615 17.9505 13.6153 18.2409L14.2053 18.1315ZM14.9476 18.887C14.6012 18.8821 14.2987 18.6314 14.2052 18.131L13.6154 18.2413C13.7471 18.9458 14.2357 19.477 14.9392 19.4869L14.9476 18.887ZM17.6351 18.8983C16.7377 18.898 15.8428 18.8977 14.947 18.8869L14.9398 19.4869C15.8397 19.4977 16.738 19.498 17.6349 19.4983L17.6351 18.8983ZM17.6351 18.8983H17.635V19.4983H17.6351V18.8983ZM17.6351 18.8983H17.6351V19.4983H17.6351V18.8983ZM18.6451 18.8992C18.3082 18.8986 17.9715 18.8984 17.6352 18.8983L17.635 19.4983C17.9714 19.4984 18.3076 19.4986 18.6439 19.4992L18.6451 18.8992ZM18.5561 18.975C18.5537 19.0103 18.5478 18.9747 18.5895 18.9346C18.633 18.8927 18.6725 18.8992 18.6445 18.8992V19.4992C18.7531 19.4992 18.8933 19.475 19.0057 19.3667C19.1163 19.2602 19.1475 19.1225 19.1548 19.0153L18.5561 18.975ZM18.5185 16.1733C18.6659 17.0897 18.6185 18.0147 18.5561 18.9757L19.1548 19.0146C19.217 18.0576 19.2703 17.0696 19.1109 16.078L18.5185 16.1733ZM17.9075 14.8887C18.2665 15.2098 18.4351 15.6482 18.5184 16.1727L19.111 16.0786C19.0169 15.4867 18.8116 14.8924 18.3076 14.4415L17.9075 14.8887ZM18.0182 14.8772C18.0371 14.8492 18.045 14.8433 18.0412 14.8465C18.0352 14.8516 18.0092 14.8709 17.9654 14.8767C17.9211 14.8826 17.8898 14.8705 17.8805 14.8661C17.8744 14.8632 17.8822 14.8658 17.9064 14.8876L18.3087 14.4425C18.2275 14.3691 18.0805 14.2562 17.8865 14.2819C17.6954 14.3073 17.5816 14.4516 17.5209 14.5415L18.0182 14.8772ZM18.0119 16.1096C17.8515 15.8832 17.7891 15.6841 17.7906 15.5004C17.7921 15.3152 17.8589 15.1115 18.0177 14.878L17.5215 14.5407C17.3158 14.8432 17.1933 15.1608 17.1906 15.4956C17.1879 15.832 17.3064 16.1517 17.5224 16.4565L18.0119 16.1096ZM18.4545 17.3118C18.3743 16.9332 18.2861 16.498 18.0122 16.11L17.5221 16.456C17.7135 16.7272 17.7834 17.0388 17.8675 17.4361L18.4545 17.3118ZM25.6498 19.843C26.1148 19.2271 26.287 18.5329 26.3 17.9055L25.7002 17.893C25.6892 18.4213 25.545 18.986 25.171 19.4815L25.6498 19.843ZM25.4965 20.0481C25.548 19.9791 25.599 19.9107 25.6502 19.8425L25.1706 19.482C25.1184 19.5514 25.0667 19.6208 25.0154 19.6897L25.4965 20.0481ZM24.355 21.3928C24.8021 20.9816 25.1579 20.5026 25.4965 20.0481L25.0154 19.6897C24.6713 20.1515 24.3478 20.5843 23.9489 20.9512L24.355 21.3928ZM21.1402 22.1288C22.3478 22.5182 23.4273 22.2428 24.3546 21.3932L23.9493 20.9508C23.1699 21.665 22.3126 21.8764 21.3244 21.5577L21.1402 22.1288ZM19.4692 21.5525C20.0218 21.7521 20.577 21.9477 21.1405 22.1289L21.3241 21.5576C20.7706 21.3798 20.2232 21.1869 19.6731 20.9882L19.4692 21.5525ZM19.1131 21.0628C19.1102 21.1457 19.1355 21.2145 19.1557 21.2572C19.1777 21.3036 19.2057 21.3446 19.2336 21.3785C19.2829 21.4383 19.365 21.5156 19.4711 21.5532L19.6712 20.9875C19.6841 20.9921 19.6925 20.9967 19.6964 20.9989C19.7005 21.0014 19.7025 21.0029 19.7025 21.003C19.7026 21.0031 19.7018 21.0025 19.7005 21.0011C19.6992 20.9998 19.6978 20.9983 19.6966 20.9968C19.6933 20.9929 19.6947 20.9935 19.6981 21.0006C19.6999 21.0045 19.7035 21.0128 19.7067 21.0252C19.7098 21.0373 19.7137 21.0578 19.7128 21.0845L19.1131 21.0628ZM19.6917 20.6153C19.5689 20.5951 19.4323 20.6145 19.3171 20.6915C19.1951 20.7732 19.1162 20.9086 19.113 21.0675L19.7129 21.0797C19.7125 21.0964 19.708 21.1184 19.6956 21.1409C19.6833 21.1631 19.6669 21.1794 19.6508 21.1902C19.6202 21.2107 19.5974 21.2079 19.5945 21.2074L19.6917 20.6153ZM20.3447 20.7472C20.1315 20.6969 19.9133 20.6511 19.6909 20.6152L19.5953 21.2075C19.7996 21.2405 20.0032 21.2831 20.207 21.3312L20.3447 20.7472ZM23.2984 19.9269C22.4314 20.7134 21.4656 21.0055 20.3432 20.7469L20.2085 21.3315C21.5408 21.6385 22.7036 21.2765 23.7015 20.3713L23.2984 19.9269ZM24.4006 18.6037C24.0759 19.0925 23.7199 19.5434 23.298 19.9272L23.7019 20.371C24.1718 19.9434 24.5588 19.45 24.9004 18.9357L24.4006 18.6037ZM24.2925 17.0465C24.6974 17.5751 24.7157 18.1287 24.4005 18.6038L24.9005 18.9355C25.3716 18.2254 25.3132 17.3923 24.7689 16.6816L24.2925 17.0465ZM23.5167 16.0616C23.7793 16.3903 24.0397 16.7162 24.2925 17.0464L24.7689 16.6817C24.5117 16.3457 24.2474 16.015 23.9854 15.6871L23.5167 16.0616ZM23.5179 16.0632L23.518 16.0633L23.9841 15.6854L23.984 15.6853L23.5179 16.0632ZM23.0316 15.4512C23.1924 15.6558 23.3549 15.8592 23.5166 16.0615L23.9853 15.687C23.8234 15.4843 23.6624 15.2828 23.5033 15.0804L23.0316 15.4512ZM23.5396 13.933C22.8353 14.0915 22.5985 14.9001 23.0316 15.4512L23.5033 15.0804C23.318 14.8446 23.4359 14.5714 23.6713 14.5184L23.5396 13.933ZM24.3772 14.1841C24.1492 13.8973 23.7985 13.8761 23.541 13.9327L23.6698 14.5187C23.8151 14.4868 23.8814 14.5246 23.9075 14.5574L24.3772 14.1841ZM24.5619 14.4137L24.3761 14.1827L23.9086 14.5588L24.0945 14.7898L24.5619 14.4137ZM25.8989 16.1568C25.4784 15.5516 25.0155 14.977 24.5619 14.4136L24.0945 14.7899C24.5504 15.356 24.9998 15.9143 25.4061 16.4992L25.8989 16.1568ZM26.3001 17.897C26.2952 17.2378 26.2278 16.6392 25.9004 16.159L25.4046 16.497C25.6238 16.8185 25.6954 17.2575 25.7001 17.9014L26.3001 17.897ZM16.1427 21.4289C15.8841 21.672 15.6402 21.9002 15.394 22.1282L15.8017 22.5684C16.0494 22.339 16.2944 22.1098 16.5537 21.866L16.1427 21.4289ZM16.7729 21.682C16.7072 21.6055 16.6417 21.5291 16.5761 21.4525L16.1202 21.8425C16.1861 21.9195 16.252 21.9963 16.3176 22.0728L16.7729 21.682ZM17.1933 22.1742C17.0537 22.0091 16.913 21.8453 16.7729 21.682L16.3176 22.0728C16.458 22.2363 16.5972 22.3985 16.7351 22.5616L17.1933 22.1742ZM17.0448 22.1804C17.0402 22.1848 17.0471 22.1768 17.0667 22.1691C17.0886 22.1605 17.1168 22.1562 17.1464 22.1606C17.1741 22.1647 17.1913 22.1746 17.1969 22.1783C17.2019 22.1815 17.1991 22.1807 17.1895 22.1698L16.739 22.5661C16.8039 22.6399 16.9094 22.7321 17.0589 22.7542C17.2249 22.7786 17.3628 22.7062 17.459 22.6145L17.0448 22.1804ZM17.7343 21.5198C17.5041 21.7412 17.2745 21.9619 17.0451 22.18L17.4586 22.6148C17.6894 22.3953 17.9202 22.1734 18.1502 21.9522L17.7343 21.5198ZM17.7252 21.6594C17.7303 21.6653 17.7071 21.6397 17.7098 21.5887C17.7124 21.539 17.7369 21.5171 17.7305 21.5235L18.154 21.9485C18.2314 21.8713 18.3015 21.7609 18.3089 21.6202C18.3164 21.4782 18.2573 21.3592 18.1832 21.2717L17.7252 21.6594ZM17.4908 21.3826C17.5686 21.4746 17.6469 21.5672 17.7257 21.6599L18.1827 21.2711C18.1046 21.1794 18.0271 21.0876 17.9492 20.9954L17.4908 21.3826ZM17.0396 20.8532C17.1914 21.0281 17.3402 21.2043 17.4908 21.3826L17.9492 20.9954C17.799 20.8176 17.6476 20.6383 17.4929 20.46L17.0396 20.8532ZM17.2051 20.8656C17.209 20.862 17.182 20.8879 17.1267 20.8856C17.0684 20.8833 17.0388 20.8522 17.0369 20.8499L17.4956 20.4632C17.417 20.3699 17.2999 20.2922 17.1511 20.2861C17.0053 20.2802 16.8849 20.3454 16.8001 20.4229L17.2051 20.8656ZM16.8009 21.2481C16.9376 21.1183 17.0725 20.9902 17.208 20.8629L16.7972 20.4256C16.6603 20.5542 16.5243 20.6833 16.3878 20.8129L16.8009 21.2481ZM16.434 21.5954C16.5582 21.4784 16.6802 21.3626 16.8009 21.2481L16.3878 20.8129C16.267 20.9276 16.1458 21.0426 16.0226 21.1586L16.434 21.5954ZM15.7218 21.2346C15.8149 21.3468 15.9065 21.4571 15.9958 21.5666L16.4608 21.1874C16.3695 21.0755 16.2763 20.9632 16.1835 20.8514L15.7218 21.2346ZM15.3912 20.8332C15.5013 20.969 15.6126 21.1031 15.7218 21.2346L16.1835 20.8514C16.074 20.7194 15.9648 20.588 15.8573 20.4553L15.3912 20.8332ZM15.5183 20.8258C15.5282 20.8164 15.525 20.8224 15.5076 20.8292C15.4873 20.8373 15.4584 20.8422 15.4268 20.8369C15.3977 20.832 15.3807 20.8208 15.3773 20.8183C15.3746 20.8164 15.3802 20.82 15.3934 20.8358L15.8551 20.4527C15.7914 20.3759 15.6841 20.2717 15.5262 20.2451C15.3494 20.2155 15.2053 20.2964 15.1069 20.389L15.5183 20.8258ZM15.1805 21.1427C15.293 21.0377 15.4066 20.9318 15.5191 20.825L15.1062 20.3897C14.9958 20.4945 14.884 20.5987 14.7712 20.704L15.1805 21.1427ZM14.8455 21.457C14.9559 21.3522 15.0677 21.248 15.1805 21.1427L14.7712 20.704C14.6587 20.809 14.5451 20.9149 14.4326 21.0217L14.8455 21.457ZM14.8557 21.3331C14.8458 21.3213 14.8681 21.3426 14.866 21.3914C14.8637 21.4423 14.8377 21.4644 14.8453 21.4572L14.4328 21.0215C14.347 21.1027 14.273 21.2183 14.2665 21.3651C14.2602 21.5098 14.322 21.6295 14.3937 21.716L14.8557 21.3331ZM15.0662 21.5844C14.9957 21.5001 14.9251 21.4158 14.8545 21.3317L14.3949 21.7174C14.4652 21.8012 14.5355 21.8852 14.6061 21.9695L15.0662 21.5844ZM15.5246 22.1296C15.3713 21.9489 15.2189 21.7669 15.0662 21.5844L14.6061 21.9695C14.7586 22.1517 14.9122 22.3353 15.0671 22.5178L15.5246 22.1296ZM15.393 22.1291C15.385 22.1366 15.3874 22.1322 15.4011 22.1264C15.4167 22.1197 15.4413 22.1138 15.4707 22.1167C15.5295 22.1224 15.5462 22.1551 15.525 22.1301L15.0667 22.5173C15.139 22.6029 15.2528 22.6983 15.4123 22.7138C15.5782 22.7301 15.7116 22.6526 15.8027 22.5674L15.393 22.1291Z"/></g><defs><radialGradient id="d" cx="0" cy="0" r="1" gradientTransform="matrix(-7.06796 -24.56636 24.02204 -6.91135 24.084 27.196)" gradientUnits="userSpaceOnUse"><stop offset=".02" stop-color="#fff" stop-opacity="0"/><stop offset="1" stop-color="#F9A822" stop-opacity=".8"/></radialGradient><radialGradient id="e" cx="0" cy="0" r="1" gradientTransform="matrix(6.73686 24.70202 -24.05524 6.56047 6.983 5.298)" gradientUnits="userSpaceOnUse"><stop offset=".02" stop-color="#fff" stop-opacity="0"/><stop offset=".666" stop-color="#FCD99D" stop-opacity=".51"/><stop offset="1" stop-color="#F9A822" stop-opacity=".6"/></radialGradient><linearGradient id="c" x1="6.675" x2="6.691" y1="17.039" y2="40.277" gradientUnits="userSpaceOnUse"><stop offset=".02" stop-color="#fff" stop-opacity="0"/><stop offset="1" stop-color="#F9A822"/></linearGradient><clipPath id="a"><rect width="32" height="32" fill="#fff" rx="16"/></clipPath></defs></svg>