<svg xmlns="http://www.w3.org/2000/svg" viewBox="0 0 128 128"><circle cx="64" cy="64" r="64" fill="#F66"/><path fill="#333" d="M68.759 42.082c1.965 0 3.732.315 5.311.953 1.576.633 2.928 1.502 4.053 2.604a11.372 11.372 0 0 1 2.579 3.841c.593 1.455.891 3.015.891 4.695 0 2.582-.546 4.812-1.628 6.697-1.086 1.882-2.856 3.31-5.312 4.294v.121c1.188.328 2.171.828 2.948 1.508a8.343 8.343 0 0 1 1.902 2.393c.492.922.851 1.934 1.074 3.039.225 1.102.38 2.209.461 3.316.04.695.082 1.518.122 2.455.042.943.113 1.902.216 2.887.103.98.266 1.914.492 2.793.225.881.562 1.629 1.012 2.24h-9.641c-.531-1.391-.858-3.047-.979-4.975a74.6 74.6 0 0 0-.554-5.523c-.329-2.291-1.024-3.973-2.086-5.037-1.064-1.064-2.807-1.592-5.22-1.592h-9.64v17.127h-9.64V42.082h23.639zm-3.44 19.828c2.211 0 3.868-.49 4.975-1.476 1.104-.979 1.658-2.576 1.658-4.784 0-2.129-.554-3.673-1.658-4.637-1.106-.965-2.764-1.444-4.975-1.444H54.76V61.91h10.559z"/></svg>