<svg xmlns="http://www.w3.org/2000/svg" fill="none" viewBox="0 0 32 32"><g clip-path="url(#a)"><path fill="#FDD837" d="M19.4371 30.5629C27.48 28.6646 32.4611 20.6057 30.5629 12.5629C28.6646 4.52002 20.6057 -0.461131 12.5629 1.43715C4.52001 3.33544 -0.461137 11.3943 1.43715 19.4372C3.33543 27.48 11.3943 32.4611 19.4371 30.5629Z"/><mask id="b" style="mask-type:alpha" width="30" height="30" x="1" y="1" maskUnits="userSpaceOnUse"><path fill="#FDD40C" d="M1.00014 15.8839C0.997339 16.5397 1.03692 17.1951 1.11863 17.8458C1.48847 20.7393 2.69719 23.4613 4.5957 25.676C6.49421 27.8907 8.99947 29.5012 11.8025 30.309C13.1291 30.6894 14.5017 30.8854 15.8817 30.8917C16.931 30.8966 17.9779 30.7918 19.0053 30.579C20.9636 30.1667 22.8195 29.3664 24.4636 28.2255C26.1077 27.0845 27.5066 25.6258 28.578 23.9356C28.7159 23.718 28.848 23.4946 28.9762 23.2712C29.5693 22.2183 30.0318 21.097 30.3535 19.9321C30.4623 19.5436 30.5477 19.1356 30.6332 18.7277C30.7187 18.3198 30.7711 17.906 30.8139 17.4845C30.8644 16.9989 30.8903 16.5074 30.8916 16.0101C30.8949 15.411 30.8619 14.8123 30.7925 14.2172C30.7459 13.8054 30.6811 13.3994 30.5982 12.9992C30.0161 10.1125 28.5948 7.46176 26.5125 5.37941C24.4301 3.29707 21.7794 1.87575 18.8926 1.29363C18.4925 1.21205 18.0846 1.14795 17.6727 1.09938C17.1195 1.03484 16.5631 1.00176 16.0061 1.00032C15.4721 0.996795 14.9384 1.02273 14.4074 1.07802C13.9878 1.11881 13.5721 1.18097 13.1642 1.25867C12.7562 1.33637 12.3541 1.42767 11.9579 1.53645C10.7926 1.85796 9.67118 2.32114 8.61868 2.91563C8.39335 3.0419 8.16996 3.17399 7.9524 3.30414C5.55626 4.82563 3.63962 6.99414 2.424 9.55904C1.92261 10.6175 1.54896 11.732 1.31094 12.8788C1.1069 13.8675 1.00278 14.8743 1.00014 15.8839V15.8839Z"/></mask><g mask="url(#b)"><path fill="#FFF6AA" d="M16.2219-7.10809C17.0057-6.72033 17.7544-6.26538 18.4597-5.74833L-8.28871 24.5218C-8.9159 23.9119-9.48853 23.2482-10.0001 22.5385L16.2219-7.10809zM23.2219-.108093C24.0057.279666 24.7544.734622 25.4597 1.25167L-1.28871 31.5218C-1.9159 30.9119-2.48853 30.2482-3.00006 29.5385L23.2219-.108093zM19.2219-3.10809C20.0057-2.72033 20.7544-2.26538 21.4597-1.74833L-5.28871 28.5218C-5.9159 27.9119-6.48853 27.2482-7.00006 26.5385L19.2219-3.10809zM26.2219 3.89191C27.0057 4.27967 27.7544 4.73462 28.4597 5.25167L1.71129 35.5218C1.0841 34.9119.51147 34.2482-.0000610352 33.5385L26.2219 3.89191zM31.2219 5.89191C32.0057 6.27967 32.7544 6.73462 33.4597 7.25167L6.71129 37.5218C6.0841 36.9119 5.51147 36.2482 4.99994 35.5385L31.2219 5.89191zM33.2219 10.8919C34.0057 11.2797 34.7544 11.7346 35.4597 12.2517L8.71129 42.5218C8.0841 41.9119 7.51147 41.2482 6.99994 40.5385L33.2219 10.8919zM39.2219 10.8919C40.0057 11.2797 40.7544 11.7346 41.4597 12.2517L14.7113 42.5218C14.0841 41.9119 13.5115 41.2482 12.9999 40.5385L39.2219 10.8919z"/></g><path fill="#F9BF2C" d="M17.9801 29.1825C25.3659 27.9836 30.3814 21.0243 29.1825 13.6385C27.9836 6.2527 21.0244 1.23721 13.6386 2.4361C6.25276 3.63498 1.23727 10.5943 2.43616 17.9801C3.63504 25.3659 10.5943 30.3814 17.9801 29.1825Z"/><path style="mix-blend-mode:multiply" fill="url(#c)" d="M18.0172 29.4108C25.5291 28.1915 30.6302 21.1134 29.4108 13.6015C28.1915 6.08961 21.1134 0.988492 13.6015 2.20785C6.0896 3.4272 0.988481 10.5053 2.20783 18.0172C3.42719 25.5291 10.5053 30.6302 18.0172 29.4108Z"/><path style="mix-blend-mode:multiply" fill="url(#d)" d="M28.5814 15.9602C28.6451 12.4573 27.3521 9.07159 24.9865 6.54702C22.6209 4.02245 19.3761 2.56546 15.9651 2.49616C17.7172 2.44769 19.461 2.76023 21.0936 3.41531C22.7261 4.0704 24.2143 5.05475 25.4702 6.31025C26.7262 7.56575 27.7245 9.06695 28.4061 10.7252C29.0877 12.3835 29.4389 14.1652 29.4389 15.9651C29.4389 17.7651 29.0877 19.5468 28.4061 21.205C27.7245 22.8633 26.7262 24.3645 25.4702 25.62C24.2143 26.8755 22.7261 27.8598 21.0936 28.5149C19.461 29.17 17.7172 29.4825 15.9651 29.4341C19.3778 29.3648 22.624 27.9064 24.9899 25.3797C27.3558 22.853 28.6476 19.4649 28.5814 15.9602V15.9602Z"/><path style="mix-blend-mode:multiply" fill="url(#e)" d="M15.9651 2.49616C12.5541 2.56546 9.30932 4.02245 6.94371 6.54702C4.57811 9.07159 3.28512 12.4573 3.34883 15.9602C3.28257 19.4649 4.57442 22.853 6.9403 25.3797C9.30618 27.9064 12.5524 29.3648 15.9651 29.4341C14.213 29.4825 12.4692 29.17 10.8366 28.5149C9.20409 27.8598 7.71591 26.8755 6.45995 25.62C5.20399 24.3645 4.20573 22.8633 3.52409 21.205C2.84246 19.5468 2.49127 17.7651 2.49127 15.9651C2.49127 14.1652 2.84246 12.3835 3.52409 10.7252C4.20573 9.06695 5.20399 7.56575 6.45995 6.31025C7.71591 5.05475 9.20409 4.0704 10.8366 3.41531C12.4692 2.76023 14.213 2.44769 15.9651 2.49616V2.49616Z"/><path fill="#FFF6AA" d="M7.97656 20H14.5039V18.541H10.1445V18.4355L14.3867 12.6934V11.5449H8.07617V13.0039H12.2305V13.1094L7.97656 18.8457V20ZM16.3203 20H18.0898V17.416L18.9277 16.4082L21.3828 20H23.5039L20.2051 15.248L23.2871 11.5449H21.3184L18.1953 15.3418H18.0898V11.5449H16.3203V20Z"/><path fill="#FFF6AA" d="M7.97656 20H7.77656V20.2H7.97656V20ZM14.5039 20V20.2H14.7039V20H14.5039ZM14.5039 18.541H14.7039V18.341H14.5039V18.541ZM10.1445 18.541H9.94453V18.741H10.1445V18.541ZM10.1445 18.4355L9.98367 18.3167L9.94453 18.3697V18.4355H10.1445ZM14.3867 12.6934L14.5476 12.8122L14.5867 12.7592V12.6934H14.3867ZM14.3867 11.5449H14.5867V11.3449H14.3867V11.5449ZM8.07617 11.5449V11.3449H7.87617V11.5449H8.07617ZM8.07617 13.0039H7.87617V13.2039H8.07617V13.0039ZM12.2305 13.0039H12.4305V12.8039H12.2305V13.0039ZM12.2305 13.1094L12.3911 13.2285L12.4305 13.1754V13.1094H12.2305ZM7.97656 18.8457L7.81592 18.7266L7.77656 18.7796V18.8457H7.97656ZM7.97656 20.2H14.5039V19.8H7.97656V20.2ZM14.7039 20V18.541H14.3039V20H14.7039ZM14.5039 18.341H10.1445V18.741H14.5039V18.341ZM10.3445 18.541V18.4355H9.94453V18.541H10.3445ZM10.3054 18.5544L14.5476 12.8122L14.2259 12.5745L9.98367 18.3167L10.3054 18.5544ZM14.5867 12.6934V11.5449H14.1867V12.6934H14.5867ZM14.3867 11.3449H8.07617V11.7449H14.3867V11.3449ZM7.87617 11.5449V13.0039H8.27617V11.5449H7.87617ZM8.07617 13.2039H12.2305V12.8039H8.07617V13.2039ZM12.0305 13.0039V13.1094H12.4305V13.0039H12.0305ZM12.0698 12.9902L7.81592 18.7266L8.13721 18.9648L12.3911 13.2285L12.0698 12.9902ZM7.77656 18.8457V20H8.17656V18.8457H7.77656ZM16.3203 20H16.1203V20.2H16.3203V20ZM18.0898 20V20.2H18.2898V20H18.0898ZM18.0898 17.416L17.9361 17.2882L17.8898 17.3437V17.416H18.0898ZM18.9277 16.4082L19.0928 16.2953L18.9433 16.0766L18.7739 16.2803L18.9277 16.4082ZM21.3828 20L21.2177 20.1129L21.2773 20.2H21.3828V20ZM23.5039 20V20.2H23.8862L23.6682 19.8859L23.5039 20ZM20.2051 15.248L20.0514 15.1201L19.954 15.2371L20.0408 15.3621L20.2051 15.248ZM23.2871 11.5449L23.4408 11.6729L23.7138 11.3449H23.2871V11.5449ZM21.3184 11.5449V11.3449H21.2239L21.1639 11.4179L21.3184 11.5449ZM18.1953 15.3418V15.5418H18.2898L18.3498 15.4688L18.1953 15.3418ZM18.0898 15.3418H17.8898V15.5418H18.0898V15.3418ZM18.0898 11.5449H18.2898V11.3449H18.0898V11.5449ZM16.3203 11.5449V11.3449H16.1203V11.5449H16.3203ZM16.3203 20.2H18.0898V19.8H16.3203V20.2ZM18.2898 20V17.416H17.8898V20H18.2898ZM18.2436 17.5439L19.0815 16.5361L18.7739 16.2803L17.9361 17.2882L18.2436 17.5439ZM18.7626 16.5211L21.2177 20.1129L21.5479 19.8871L19.0928 16.2953L18.7626 16.5211ZM21.3828 20.2H23.5039V19.8H21.3828V20.2ZM23.6682 19.8859L20.3694 15.134L20.0408 15.3621L23.3396 20.1141L23.6682 19.8859ZM20.3588 15.376L23.4408 11.6729L23.1334 11.417L20.0514 15.1201L20.3588 15.376ZM23.2871 11.3449H21.3184V11.7449H23.2871V11.3449ZM21.1639 11.4179L18.0409 15.2147L18.3498 15.4688L21.4728 11.672L21.1639 11.4179ZM18.1953 15.1418H18.0898V15.5418H18.1953V15.1418ZM18.2898 15.3418V11.5449H17.8898V15.3418H18.2898ZM18.0898 11.3449H16.3203V11.7449H18.0898V11.3449ZM16.1203 11.5449V20H16.5203V11.5449H16.1203Z"/></g><defs><radialGradient id="d" cx="0" cy="0" r="1" gradientTransform="matrix(-7.06796 -24.56636 24.02204 -6.91135 24.084 27.196)" gradientUnits="userSpaceOnUse"><stop offset=".02" stop-color="#fff" stop-opacity="0"/><stop offset="1" stop-color="#F9A822" stop-opacity=".8"/></radialGradient><radialGradient id="e" cx="0" cy="0" r="1" gradientTransform="matrix(6.73686 24.70202 -24.05524 6.56047 6.983 5.298)" gradientUnits="userSpaceOnUse"><stop offset=".02" stop-color="#fff" stop-opacity="0"/><stop offset=".666" stop-color="#FCD99D" stop-opacity=".51"/><stop offset="1" stop-color="#F9A822" stop-opacity=".6"/></radialGradient><linearGradient id="c" x1="6.675" x2="6.691" y1="17.039" y2="40.277" gradientUnits="userSpaceOnUse"><stop offset=".02" stop-color="#fff" stop-opacity="0"/><stop offset="1" stop-color="#F9A822"/></linearGradient><clipPath id="a"><rect width="32" height="32" fill="#fff" rx="16"/></clipPath></defs></svg>