<svg xmlns="http://www.w3.org/2000/svg" enable-background="new 0 0 128 128" viewBox="0 0 128 128"><circle cx="64" cy="64" r="64" fill="#F66"/><path fill="#333" d="M51.231 49.967H29.558v-8.104h34.505v7.614L40.547 77.601h24.128v8.099H27.713V78.09L51.231 49.967zM76.588 76.983c1.268 1.351 2.842 2.208 4.727 2.582V66.729c-.205-.079-.482-.174-.828-.274-.348-.105-.727-.194-1.138-.279-1.515-.405-3.007-.885-4.481-1.438-1.473-.553-2.793-1.291-3.96-2.213-1.165-.922-2.097-2.065-2.793-3.44-.696-1.371-1.044-3.078-1.044-5.128 0-2.081.398-3.926 1.197-5.522.798-1.597 1.852-2.934 3.161-4.021 1.31-1.085 2.825-1.923 4.545-2.519 1.718-.596 3.499-.954 5.341-1.075v-4.727h3.623v4.727c1.842.206 3.569.606 5.188 1.201 1.617.591 3.04 1.407 4.268 2.456 1.229 1.043 2.229 2.34 3.01 3.895.777 1.56 1.227 3.398 1.349 5.527h-8.718c-.04-1.639-.551-3.03-1.534-4.174-.983-1.148-2.171-1.723-3.562-1.723v10.865c.492.127.992.248 1.504.374.512.121 1.054.264 1.625.427 3.031.817 5.365 1.834 7.001 3.041 1.636 1.206 2.846 2.466 3.622 3.772.777 1.313 1.238 2.624 1.381 3.932.146 1.312.217 2.477.217 3.498 0 .901-.227 2.04-.675 3.41-.45 1.37-1.259 2.714-2.427 4.021-1.167 1.312-2.732 2.477-4.695 3.499-1.968 1.021-4.484 1.639-7.553 1.844v5.222h-3.623v-5.222c-4.584-.326-8.166-1.739-10.744-4.236-2.58-2.498-4.074-6.16-4.482-10.992h8.658C74.703 73.79 75.318 75.635 76.588 76.983zM79.288 48.313c-.653.2-1.249.521-1.78.948-.533.433-.951.965-1.258 1.597-.309.633-.461 1.381-.461 2.24 0 1.349.43 2.397 1.291 3.135.859.732 2.269 1.328 4.234 1.776V48.002C80.619 48.002 79.941 48.107 79.288 48.313zM87.24 79.039c.798-.264 1.514-.644 2.149-1.133.632-.496 1.153-1.097 1.565-1.813.408-.716.613-1.564.613-2.55 0-1.592-.503-2.793-1.504-3.589-1.004-.801-2.715-1.528-5.127-2.182v11.793C85.675 79.481 86.441 79.308 87.24 79.039z"/></svg>