<svg xmlns="http://www.w3.org/2000/svg" viewBox="0 0 32 32"><defs><linearGradient id="a" x1="50%" x2="50%" y1="0%" y2="100%"><stop offset="0%" stop-color="#5B86E5"/><stop offset="100%" stop-color="#36D1DC"/></linearGradient></defs><g fill="none" fill-rule="evenodd"><path fill="url(#a)" fill-rule="nonzero" d="M16,26.5 C10.2010101,26.5 5.5,21.7989899 5.5,16 C5.5,10.2010101 10.2010101,5.5 16,5.5 C21.7989899,5.5 26.5,10.2010101 26.5,16 C26.5,21.7989899 21.7989899,26.5 16,26.5 Z"/><path fill="#FFF" fill-rule="nonzero" d="M19.8901961,16.51 L19.11,12.51 L20.11,12.51 L20.8707768,16.3138839 C20.9790887,16.8554436 20.627872,17.3822687 20.0863122,17.4905807 C20.021739,17.5034953 19.9560481,17.51 19.8901961,17.51 L17.11,17.51 L17.11,16.51 L19.8901961,16.51 Z M13.11,10.51 L14.11,10.51 L14.11,17.51 L13.11,17.51 L13.11,10.51 Z M15.11,16.51 L16.11,16.51 L16.11,17.51 L15.11,17.51 L15.11,16.51 Z M14.11,21.4854153 L11.11,21.4854153 L11.11,20.4854153 L11.61,20.4854153 L11.61,19.4854153 C11.61,18.9331306 12.0577153,18.4854153 12.61,18.4854153 L14.11,18.4854153 L14.11,19.4854153 L12.81,19.4854153 C12.6995431,19.4854153 12.61,19.5749584 12.61,19.6854153 L12.61,20.4854153 L14.11,20.4854153 L14.11,21.4854153 Z"/></g></svg>