<svg xmlns="http://www.w3.org/2000/svg" enable-background="new 0 0 128 128" viewBox="0 0 128 128"><circle cx="64" cy="64" r="64" fill="#F66"/><path fill="#333" d="M75.96,76.27H52.04v-8.865h5.865c1.064,0,2.008,0.045,2.84,0.131l8.18,0.879   c-2.825-0.629-4.869-1.41-6.129-2.346c-1.739-1.279-2.609-3.171-2.609-5.669c0-2.672,0.606-5.364,1.824-8.084   c1.502-3.388,3.414-5.082,5.738-5.082c2.867,0,5.059,2.685,6.582,8.05c1.086,3.78,1.629,7.572,1.629,11.371V76.27z M67.654,94.518   h-7.172V80.049h7.172V94.518z M72.766,37.521l-3.909,7.301l-7.626-3.976l3.947-7.364L72.766,37.521z M71.527,62.744   c-1.649-3.952-3.473-5.931-5.476-5.931c-1.085,0-1.628,0.479-1.628,1.437c0,0.911,0.712,1.813,2.134,2.703   C67.981,61.844,69.642,62.441,71.527,62.744z"/></svg>