<svg xmlns="http://www.w3.org/2000/svg" enable-background="new 0 0 128 128" viewBox="0 0 128 128"><circle cx="64" cy="64" r="64" fill="#F66"/><path fill="#333" d="M33.098 47.503v26.411h15.794v5.992H25.969V47.503H33.098zM59.099 74.277c.97.939 2.36 1.408 4.179 1.408 1.297 0 2.419-.322 3.357-.975.938-.648 1.512-1.34 1.729-2.066h5.67c-.912 2.814-2.303 4.826-4.18 6.033-1.875 1.213-4.141 1.818-6.808 1.818-1.845 0-3.51-.295-4.991-.885-1.48-.59-2.74-1.428-3.768-2.52-1.027-1.086-1.817-2.393-2.381-3.904-.559-1.514-.838-3.172-.838-4.99 0-1.756.284-3.389.863-4.9.569-1.513 1.387-2.819 2.451-3.926 1.059-1.102 2.318-1.977 3.789-2.609 1.465-.638 3.093-.953 4.874-.953 1.997 0 3.741.385 5.222 1.159 1.48.77 2.698 1.808 3.652 3.104.953 1.302 1.639 2.788 2.065 4.448.422 1.67.575 3.408.454 5.221H57.513C57.602 71.828 58.129 73.34 59.099 74.277zM66.381 61.937c-.77-.848-1.943-1.27-3.514-1.27-1.028 0-1.887.169-2.562.521-.685.348-1.228.774-1.64 1.291-.405.517-.695 1.06-.858 1.634-.169.574-.269 1.09-.295 1.543h10.481C67.693 64.023 67.156 62.78 66.381 61.937zM85.283 47.503v17.38l8.127-8.442h7.625l-8.854 8.626 9.85 14.84h-7.805l-6.445-10.482-2.498 2.404v8.078h-6.444V47.503H85.283z"/></svg>