<svg xmlns="http://www.w3.org/2000/svg" fill="none" viewBox="0 0 32 32"><g clip-path="url(#a)"><path fill="#50D9D7" d="M30.0625 9.90625V28.1875H1.9375V9.90625C1.9375 9.53329 2.08566 9.1756 2.34938 8.91188C2.6131 8.64816 2.97079 8.5 3.34375 8.5H28.6562C29.0292 8.5 29.3869 8.64816 29.6506 8.91188C29.9143 9.1756 30.0625 9.53329 30.0625 9.90625V9.90625Z"/><path fill="#00BEBD" d="M1.46875 28.1875H30.5312C30.6556 28.1875 30.7748 28.2369 30.8627 28.3248 30.9506 28.4127 31 28.5319 31 28.6562V29.5938C31 29.9667 30.8518 30.3244 30.5881 30.5881 30.3244 30.8518 29.9667 31 29.5938 31H2.40625C2.03329 31 1.6756 30.8518 1.41188 30.5881 1.14816 30.3244 1 29.9667 1 29.5938V28.6562C1 28.5319 1.04939 28.4127 1.13729 28.3248 1.2252 28.2369 1.34443 28.1875 1.46875 28.1875V28.1875zM29.125 9.90625V11.7812H10.375L8.5 9.4375H28.6562C28.7806 9.4375 28.8998 9.48689 28.9877 9.57479 29.0756 9.6627 29.125 9.78193 29.125 9.90625z"/><path fill="#fff" d="M29.125 11.7812V27.25H2.875V9.90625C2.875 9.78193 2.92439 9.6627 3.01229 9.57479C3.1002 9.48689 3.21943 9.4375 3.34375 9.4375H9.94375C10.2246 9.43768 10.5019 9.50095 10.755 9.62265C11.0081 9.74435 11.2307 9.92137 11.4063 10.1406C12.1328 11.05 12.175 11.1063 12.2266 11.1578C12.4036 11.3553 12.6204 11.5129 12.8628 11.6204C13.1052 11.7278 13.3677 11.7827 13.6328 11.7812H29.125Z"/><path fill="#F3F3F3" d="M19.2812 29.125H12.7188C12.4701 29.125 12.2317 29.0262 12.0558 28.8504C11.88 28.6746 11.7812 28.4361 11.7812 28.1875H20.2188C20.2188 28.4361 20.12 28.6746 19.9442 28.8504C19.7683 29.0262 19.5299 29.125 19.2812 29.125Z"/><path fill="#00BEBD" d="M27.5968 9.4375H4.40308C4.47339 9.34844 4.56245 9.27344 5.41558 8.5H26.5843C27.3437 9.18906 27.5125 9.33906 27.5968 9.4375Z"/><path fill="#F3F3F3" d="M28.0234 11.7812C27.8583 12.196 27.5726 12.5517 27.2033 12.8024C26.8339 13.0531 26.3979 13.1872 25.9515 13.1875H6.04837C5.61494 13.1854 5.19142 13.0577 4.82912 12.8198C4.46683 12.5819 4.18131 12.244 4.00716 11.8471C3.83302 11.4502 3.77773 11.0113 3.848 10.5836C3.91827 10.156 4.11108 9.75782 4.40305 9.4375H8.49993L10.3749 11.7812H28.0234Z"/><path fill="#00AAA8" d="M28.0234 11.7812H10.375L8.5 9.4375H27.5969C27.8836 9.74707 28.0761 10.1321 28.1517 10.5472C28.2272 10.9624 28.1827 11.3905 28.0234 11.7812Z"/><path fill="#50D9D7" d="M25.9516 12.2501H6.0485C5.78661 12.2485 5.5313 12.1679 5.31585 12.019C5.10041 11.8701 4.93483 11.6597 4.84072 11.4153C4.7466 11.1709 4.72831 10.9038 4.78823 10.6489C4.84815 10.3939 4.9835 10.1629 5.17663 9.98606L14.3688 1.63293C14.8156 1.22048 15.4014 0.991455 16.0094 0.991455C16.6175 0.991455 17.2033 1.22048 17.6501 1.63293L26.8235 9.98606C27.0166 10.1629 27.152 10.3939 27.2119 10.6489C27.2718 10.9038 27.2535 11.1709 27.1594 11.4153C27.0653 11.6597 26.8997 11.8701 26.6843 12.019C26.4688 12.1679 26.2135 12.2485 25.9516 12.2501V12.2501Z"/><path fill="#00BEBD" d="M5.6875 12.25H11.3125V13.1875C11.3125 13.4361 11.2137 13.6746 11.0379 13.8504 10.8621 14.0262 10.6236 14.125 10.375 14.125H6.625C6.37636 14.125 6.1379 14.0262 5.96209 13.8504 5.78627 13.6746 5.6875 13.4361 5.6875 13.1875V12.25zM6.625 24.4375H10.375C10.6236 24.4375 10.8621 24.5363 11.0379 24.7121 11.2137 24.8879 11.3125 25.1264 11.3125 25.375V26.3125H5.6875V25.375C5.6875 25.1264 5.78627 24.8879 5.96209 24.7121 6.1379 24.5363 6.37636 24.4375 6.625 24.4375z"/><path fill="#00AAA8" d="M5.21875 26.3125H26.7812C26.9056 26.3125 27.0248 26.3619 27.1127 26.4498C27.2006 26.5377 27.25 26.6569 27.25 26.7812V27.25H4.75V26.7812C4.75 26.6569 4.79939 26.5377 4.88729 26.4498C4.9752 26.3619 5.09443 26.3125 5.21875 26.3125V26.3125Z"/><path fill="#50D9D7" d="M10.375 14.125H6.625V24.4375H10.375V14.125Z"/><path fill="#00BEBD" d="M20.6875 12.25H26.3125V13.1875C26.3125 13.4361 26.2137 13.6746 26.0379 13.8504 25.8621 14.0262 25.6236 14.125 25.375 14.125H21.625C21.3764 14.125 21.1379 14.0262 20.9621 13.8504 20.7863 13.6746 20.6875 13.4361 20.6875 13.1875V12.25zM21.625 24.4375H25.375C25.6236 24.4375 25.8621 24.5363 26.0379 24.7121 26.2137 24.8879 26.3125 25.1264 26.3125 25.375V26.3125H20.6875V25.375C20.6875 25.1264 20.7863 24.8879 20.9621 24.7121 21.1379 24.5363 21.3764 24.4375 21.625 24.4375z"/><path fill="#50D9D7" d="M25.375 14.125H21.625V24.4375H25.375V14.125Z"/><path fill="#00BEBD" stroke="#00BEBD" stroke-width=".2" d="M17.9622 16.9167C17.8413 16.9167 17.7432 17.0148 17.7432 17.1358V17.4656C17.2288 17.5492 16.8398 17.9212 16.8398 18.3663 16.8398 19.0594 17.4632 19.1871 17.9183 19.2803 18.4358 19.3863 18.6466 19.4598 18.6466 19.7651 18.6466 20.0255 18.3332 20.2455 17.9622 20.2455 17.7103 20.2455 17.4785 20.1463 17.3573 19.9865 17.2841 19.8902 17.1467 19.8714 17.0504 19.9445 16.9541 20.0176 16.9352 20.155 17.0084 20.2514 17.1747 20.4705 17.4402 20.618 17.7432 20.6663V20.9957C17.7432 21.1167 17.8413 21.2147 17.9622 21.2147 18.0832 21.2147 18.1812 21.1167 18.1812 20.9957V20.6659C18.6956 20.5823 19.0846 20.2102 19.0846 19.7651 19.0846 19.072 18.4613 18.9444 18.0062 18.8512 17.4886 18.7452 17.2779 18.6717 17.2779 18.3663 17.2779 18.1059 17.5913 17.8859 17.9622 17.8859 18.2141 17.8859 18.446 17.9852 18.5672 18.1449 18.6403 18.2413 18.7777 18.2601 18.8741 18.1869 18.9704 18.1138 18.9892 17.9764 18.9161 17.8801 18.7497 17.661 18.4843 17.5135 18.1812 17.4652V17.1358C18.1812 17.0148 18.0832 16.9167 17.9622 16.9167V16.9167zM14.7615 17.5667C14.6845 17.3941 14.4387 17.3941 14.3616 17.5667L13.1023 20.3864C13.053 20.4968 13.1026 20.6263 13.213 20.6757 13.3234 20.725 13.4529 20.6755 13.5023 20.565L13.8356 19.8187H15.2876L15.6209 20.565C15.6572 20.6465 15.7372 20.6948 15.821 20.6948 15.9782 20.6948 16.0858 20.532 16.0208 20.3864L14.7615 17.5667zM14.0312 19.3807L14.5616 18.1931 15.0919 19.3807H14.0312V19.3807z"/></g><defs><clipPath id="a"><rect width="30" height="30" fill="#fff" transform="translate(1 1)"/></clipPath></defs></svg>