<svg xmlns="http://www.w3.org/2000/svg" fill="none" viewBox="0 0 36 36"><g clip-path="url(#a)"><rect width="32" height="32" x="2" y="2" fill="#FFCD00" rx="16"/><path fill="#fff" d="M23.5535 10.2622C23.8869 10.2825 24.0336 10.4439 23.9936 10.7464L23.702 12.7438C23.6602 12.9251 23.537 13.0264 23.3065 13.0264H21.5122C20.846 13.0264 20.4923 13.2883 20.4302 13.7928L20.1387 15.7501H22.3863C22.5942 15.7501 22.6982 15.8509 22.6982 16.0525V18.1512C22.6982 18.3528 22.5942 18.4536 22.3863 18.4536H19.764L19.0979 22.9932C18.9109 24.2844 18.4323 25.1319 17.6204 25.5356C16.809 25.9191 16.1016 25.9996 14.8739 25.9996C14.0612 26.0067 13.2505 25.9186 12.4596 25.7372C12.1295 25.7169 11.981 25.5559 12.0019 25.2529L12.3144 23.173C12.3347 22.9911 12.3556 22.9708 12.6054 22.9708H14.4773C15.1225 22.9708 15.4971 22.709 15.5774 22.2044L16.1187 18.4514H14.936C14.6863 18.4514 14.5614 18.3103 14.5614 18.028V16.0525C14.5614 15.8509 14.6659 15.7501 14.8739 15.7501H16.5175L16.913 12.9864C17.1006 11.6952 17.5582 10.8883 18.3696 10.5049C19.1815 10.1011 19.9098 10.0003 21.1376 10.0003C21.9508 9.99395 22.7619 10.0819 23.5535 10.2622Z"/></g><rect width="34" height="34" x="1" y="1" stroke="#FFDE55" stroke-width="2" rx="17"/><defs><clipPath id="a"><rect width="32" height="32" x="2" y="2" fill="#fff" rx="16"/></clipPath></defs></svg>