<svg xmlns="http://www.w3.org/2000/svg" viewBox="0 0 128 128"><circle cx="64" cy="64" r="64" fill="#FC6"/><path fill="#333" d="M23.225 52.289h9.348l4.858 17.063h.179l4.858-17.063h9.348v23.459h-6.081V57.917h-.137l-5.037 17.831H34.48l-5.032-17.831h-.143v17.831h-6.081V52.289zM63.705 76.344c-1.116 0-2.165-.137-3.129-.41-.97-.27-1.813-.691-2.54-1.27a5.893 5.893 0 0 1-1.702-2.178c-.411-.879-.617-1.922-.617-3.135 0-1.328.237-2.43.706-3.287.469-.865 1.075-1.551 1.813-2.066a8.026 8.026 0 0 1 2.545-1.154 26.85 26.85 0 0 1 2.883-.616 45.799 45.799 0 0 1 2.855-.358 18.199 18.199 0 0 0 2.498-.411c.727-.18 1.301-.448 1.723-.796s.623-.854.59-1.518c0-.669-.109-1.212-.342-1.639a2.455 2.455 0 0 0-.906-.975 3.59 3.59 0 0 0-1.313-.453c-.5-.074-1.037-.111-1.611-.111-1.271 0-2.271.274-2.998.817-.722.542-1.144 1.448-1.271 2.719h-6.444c.095-1.48.469-2.729 1.133-3.741a7.742 7.742 0 0 1 2.545-2.43c1.028-.601 2.177-1.032 3.446-1.291a19.607 19.607 0 0 1 3.906-.385c1.18 0 2.375.085 3.582.248 1.213.163 2.318.495 3.314.975a6.481 6.481 0 0 1 2.455 2.045c.633.875.949 2.013.949 3.404v12.205c0 1.059.059 2.076.18 3.039.121.971.336 1.697.637 2.176h-6.533a8.274 8.274 0 0 1-.295-1.105 10.183 10.183 0 0 1-.158-1.16 8.438 8.438 0 0 1-3.637 2.225c-1.386.425-2.81.636-4.264.636zm2.407-4.268c1.271 0 2.256-.211 2.947-.637.699-.422 1.211-.928 1.543-1.518a4.86 4.86 0 0 0 .617-1.793c.074-.605.109-1.09.109-1.453v-2.404a2.95 2.95 0 0 1-.994.57 9.876 9.876 0 0 1-1.318.336c-.484.096-.984.17-1.502.227a35.28 35.28 0 0 0-1.539.227c-.51.096-1 .217-1.453.365a4.17 4.17 0 0 0-1.202.615c-.349.254-.627.58-.838.971-.216.395-.322.895-.322 1.502 0 .605.105 1.096.322 1.475.21.375.5.68.858.906.363.227.785.385 1.271.475.486.089.986.136 1.501.136zM82.765 52.289h6.449v8.536h9.117v-8.536h6.443v23.459h-6.443v-9.842h-9.117v9.842h-6.449V52.289z"/></svg>