<svg xmlns="http://www.w3.org/2000/svg" fill-rule="evenodd" clip-rule="evenodd" image-rendering="optimizeQuality" shape-rendering="geometricPrecision" text-rendering="geometricPrecision" viewBox="0 0 1707 1707"><defs><linearGradient id="a" x1="-89.055" x2="1795.72" y1="216.429" y2="1490.23" gradientUnits="userSpaceOnUse"><stop offset="0" stop-color="#a96f44"/><stop offset="1" stop-color="#f2ecb6"/></linearGradient></defs><path fill="url(#a)" d="M853 1707c-470,0 -853,-383 -853,-854 0,-470 383,-853 853,-853 471,0 854,383 854,853 0,471 -383,854 -854,854zm-255 -614l-178 0c-11,0 -20,-9 -20,-20l0 -439c0,-11 9,-20 20,-20l178 0c108,0 163,43 163,129 0,50 -23,88 -66,110 43,22 66,61 66,110 0,86 -55,130 -163,130zm-158 -40l158 0c86,0 123,-27 123,-90 0,-50 -32,-80 -94,-89l-187 -1 0 180zm0 -399l0 179 187 0c62,-9 94,-39 94,-90 0,-63 -37,-89 -123,-89l-158 0zm479 416c-14,0 -24,-14 -19,-27l151 -393c7,-20 40,-13 76,-13 8,0 15,5 18,12l160 393c10,25 -27,40 -37,15l-75 -184 -185 0 -71 184c-3,8 -10,13 -18,13zm104 -237l154 0 -64 -156 -30 0 -60 156zm-170 697c-373,0 -677,-303 -677,-677 0,-373 304,-677 677,-677 374,0 677,304 677,677 0,374 -303,677 -677,677zm0 -1314c-351,0 -637,286 -637,637 0,352 286,637 637,637 352,0 637,-285 637,-637 0,-351 -285,-637 -637,-637zm0 -77c-10,0 -19,-9 -19,-19l0 -76c0,-25 39,-25 39,0l0 76c0,10 -9,19 -20,19zm190 25c-13,0 -22,-12 -19,-24l20 -73c7,-25 44,-15 37,10l-19 73c-2,8 -10,14 -19,14zm177 73c-15,0 -24,-16 -17,-29l38 -65c13,-22 46,-3 34,19l-38 66c-4,6 -10,9 -17,9zm152 117c-17,0 -26,-21 -14,-33l54 -53c18,-18 45,9 27,27 -18,18 -52,59 -67,59zm117 152c-20,0 -27,-26 -10,-36l65 -38c22,-13 42,21 20,34 -13,7 -65,40 -75,40zm73 177c-22,0 -27,-32 -5,-38l73 -20c24,-6 34,31 10,38l-78 20zm100 190l-75 0c-26,0 -26,-39 0,-39l75 0c26,0 26,39 0,39zm-27 209l-78 -20c-25,-7 -15,-44 10,-38l73 20c22,6 17,38 -5,38zm-81 195c-10,0 -63,-33 -75,-40 -22,-13 -3,-46 19,-34l66 38c17,10 10,36 -10,36zm-129 168c-14,0 -49,-41 -67,-59 -18,-18 10,-46 28,-28l53 54c12,12 3,33 -14,33zm-167 128c-7,0 -13,-3 -17,-9l-38 -66c-12,-22 21,-41 34,-19l38 65c7,13 -3,29 -17,29zm-195 81c-9,0 -17,-6 -19,-14l-20 -73c-6,-25 31,-35 38,-10l19 73c4,12 -6,24 -18,24zm-210 28c-10,0 -19,-9 -19,-20l0 -75c0,-26 39,-25 39,0l0 75c0,11 -9,20 -20,20zm-209 -28c-13,0 -22,-12 -19,-24l20 -73c6,-25 44,-15 37,10l-19 73c-3,8 -10,14 -19,14zm-195 -81c-15,0 -24,-16 -17,-29l38 -65c12,-22 46,-3 33,19l-37 66c-4,6 -10,9 -17,9zm-168 -128c-17,0 -26,-21 -13,-33l53 -54c18,-18 45,10 27,28 -18,18 -52,59 -67,59zm-128 -168c-20,0 -27,-26 -10,-36l65 -38c22,-12 42,21 20,34 -13,7 -65,40 -75,40zm-81 -195c-22,0 -27,-32 -5,-38l73 -20c24,-6 34,31 10,38l-78 20zm48 -209l-76 0c-25,0 -25,-39 0,-39l76 0c25,0 25,39 0,39zm25 -190l-78 -20c-25,-7 -15,-44 10,-38l73 20c21,6 17,38 -5,38zm73 -177c-10,0 -63,-33 -75,-40 -22,-13 -3,-47 19,-34l66 38c17,10 10,36 -10,36zm117 -152c-15,0 -49,-41 -67,-59 -18,-18 9,-45 27,-27l53 53c13,12 4,33 -13,33zm151 -117c-6,0 -13,-3 -16,-9l-38 -66c-13,-22 21,-41 34,-19l37 65c8,13 -2,29 -17,29zm177 -73c-8,0 -16,-6 -18,-14l-20 -73c-6,-25 31,-35 38,-10l19 73c3,12 -6,24 -19,24z"/></svg>