<svg xmlns="http://www.w3.org/2000/svg" viewBox="0 0 128 128"><circle cx="64" cy="64" r="64" fill="#FFF"/><path fill="#333" d="M39.778 76.983c1.268 1.354 2.846 2.214 4.728 2.582V66.734a8.5 8.5 0 0 0-.828-.279 12.99 12.99 0 0 0-1.138-.273 50.059 50.059 0 0 1-4.482-1.444 14.738 14.738 0 0 1-3.957-2.208 10.256 10.256 0 0 1-2.796-3.445c-.695-1.365-1.043-3.073-1.043-5.123 0-2.086.397-3.931 1.196-5.527.798-1.597 1.853-2.936 3.164-4.021 1.31-1.086 2.825-1.924 4.543-2.52a20.538 20.538 0 0 1 5.341-1.074v-4.728h3.622v4.728c1.842.205 3.57.605 5.188 1.201 1.617.59 3.04 1.412 4.268 2.455 1.229 1.044 2.232 2.34 3.01 3.899.776 1.555 1.228 3.394 1.349 5.522h-8.716c-.042-1.633-.554-3.024-1.536-4.173-.982-1.144-2.171-1.718-3.563-1.718v10.865c.493.128.993.243 1.505.369.511.121 1.054.269 1.628.427 3.027.822 5.362 1.839 6.998 3.041 1.639 1.212 2.846 2.466 3.623 3.772.777 1.317 1.238 2.624 1.381 3.937a32.1 32.1 0 0 1 .216 3.494c0 .906-.224 2.039-.675 3.414-.45 1.37-1.259 2.709-2.427 4.016-1.167 1.313-2.732 2.477-4.695 3.504-1.965 1.022-4.484 1.634-7.554 1.845v5.217h-3.622V86.69c-4.585-.332-8.166-1.744-10.745-4.242s-4.073-6.154-4.481-10.992h8.657c-.042 2.34.572 4.179 1.841 5.527zm2.701-28.67a5.414 5.414 0 0 0-1.781.948 4.617 4.617 0 0 0-1.257 1.597c-.309.638-.461 1.381-.461 2.245 0 1.349.43 2.392 1.291 3.13.858.737 2.269 1.333 4.234 1.781V48.007c-.695 0-1.372.099-2.026.306zm7.952 30.731a7.265 7.265 0 0 0 2.15-1.138 6.027 6.027 0 0 0 1.565-1.813c.408-.716.613-1.564.613-2.545 0-1.597-.503-2.793-1.504-3.594-1.004-.796-2.714-1.522-5.128-2.176v11.787a11.13 11.13 0 0 0 2.304-.521zM75.451 41.862v15.967h.123c1.064-1.639 2.506-2.835 4.329-3.594a14.713 14.713 0 0 1 5.681-1.133c1.594 0 3.17.326 4.727.979 1.555.653 2.957 1.66 4.205 3.009 1.249 1.354 2.261 3.083 3.041 5.191.777 2.107 1.164 4.615 1.164 7.52 0 2.908-.387 5.411-1.164 7.524-.78 2.103-1.792 3.836-3.041 5.186-1.248 1.349-2.65 2.355-4.205 3.009-1.557.653-3.133.98-4.727.98-2.334 0-4.421-.364-6.266-1.107-1.839-.732-3.232-1.98-4.173-3.741h-.124v4.053h-8.286V41.862h8.716zm14.122 24.135c-.287-1.229-.737-2.313-1.349-3.257a7.148 7.148 0 0 0-2.303-2.239c-.923-.554-2.037-.833-3.35-.833-1.267 0-2.374.279-3.314.833a7 7 0 0 0-2.331 2.239c-.614.943-1.064 2.028-1.353 3.257a16.925 16.925 0 0 0-.429 3.867c0 1.308.142 2.577.429 3.805.288 1.229.738 2.313 1.353 3.252a6.968 6.968 0 0 0 2.331 2.244c.94.554 2.048.828 3.314.828 1.313 0 2.427-.274 3.35-.828a7.123 7.123 0 0 0 2.303-2.244c.611-.938 1.062-2.023 1.349-3.252.287-1.228.43-2.497.43-3.805 0-1.353-.143-2.639-.43-3.867z"/></svg>