<svg xmlns="http://www.w3.org/2000/svg" enable-background="new 0 0 128 128" viewBox="0 0 128 128"><circle cx="64" cy="64" r="64" fill="#FFF"/><path fill="#333" d="M39.778 76.983c1.268 1.354 2.846 2.214 4.728 2.582V66.734c-.206-.084-.482-.179-.828-.279-.348-.1-.727-.194-1.138-.273-1.516-.411-3.007-.891-4.482-1.444-1.473-.554-2.792-1.291-3.957-2.208-1.167-.928-2.1-2.07-2.796-3.445-.695-1.365-1.043-3.073-1.043-5.123 0-2.086.397-3.931 1.196-5.527.798-1.597 1.853-2.936 3.164-4.021 1.31-1.086 2.825-1.924 4.543-2.52 1.72-.595 3.499-.948 5.341-1.074v-4.728h3.622v4.728c1.842.205 3.57.605 5.188 1.201 1.617.59 3.04 1.412 4.268 2.455 1.229 1.044 2.232 2.34 3.01 3.899.776 1.555 1.228 3.394 1.349 5.522h-8.716c-.042-1.633-.554-3.024-1.536-4.173-.982-1.144-2.171-1.718-3.563-1.718v10.865c.493.128.993.243 1.505.369.511.121 1.054.269 1.628.427 3.027.822 5.362 1.839 6.998 3.041 1.639 1.212 2.846 2.466 3.623 3.772.777 1.317 1.238 2.624 1.381 3.937.145 1.307.216 2.477.216 3.494 0 .906-.224 2.039-.675 3.414-.45 1.37-1.259 2.709-2.427 4.016-1.167 1.313-2.732 2.477-4.695 3.504-1.965 1.022-4.484 1.634-7.554 1.845v5.217h-3.622V86.69c-4.585-.332-8.166-1.744-10.745-4.242s-4.073-6.154-4.481-10.992h8.657C37.895 73.796 38.509 75.635 39.778 76.983zM42.479 48.313c-.653.205-1.249.521-1.781.948-.532.432-.951.964-1.257 1.597-.309.638-.461 1.381-.461 2.245 0 1.349.43 2.392 1.291 3.13.858.737 2.269 1.333 4.234 1.781V48.007C43.81 48.007 43.133 48.106 42.479 48.313zM50.431 79.044c.799-.269 1.516-.647 2.15-1.138.632-.49 1.156-1.091 1.565-1.813.408-.716.613-1.564.613-2.545 0-1.597-.503-2.793-1.504-3.594-1.004-.796-2.714-1.522-5.128-2.176v11.787C48.866 79.481 49.633 79.313 50.431 79.044zM75.451 41.862v15.967h.123c1.064-1.639 2.506-2.835 4.329-3.594 1.821-.754 3.715-1.133 5.681-1.133 1.594 0 3.17.326 4.727.979 1.555.653 2.957 1.66 4.205 3.009 1.249 1.354 2.261 3.083 3.041 5.191.777 2.107 1.164 4.615 1.164 7.52 0 2.908-.387 5.411-1.164 7.524-.78 2.103-1.792 3.836-3.041 5.186-1.248 1.349-2.65 2.355-4.205 3.009-1.557.653-3.133.98-4.727.98-2.334 0-4.421-.364-6.266-1.107-1.839-.732-3.232-1.98-4.173-3.741h-.124v4.053h-8.286V41.862H75.451zM89.573 65.997c-.287-1.229-.737-2.313-1.349-3.257-.617-.938-1.384-1.687-2.303-2.239-.923-.554-2.037-.833-3.35-.833-1.267 0-2.374.279-3.314.833-.94.553-1.718 1.301-2.331 2.239-.614.943-1.064 2.028-1.353 3.257-.287 1.228-.429 2.514-.429 3.867 0 1.308.142 2.577.429 3.805.288 1.229.738 2.313 1.353 3.252.613.943 1.391 1.691 2.331 2.244.94.554 2.048.828 3.314.828 1.313 0 2.427-.274 3.35-.828.919-.553 1.686-1.301 2.303-2.244.611-.938 1.062-2.023 1.349-3.252.287-1.228.43-2.497.43-3.805C90.003 68.511 89.86 67.225 89.573 65.997z"/></svg>