<svg xmlns="http://www.w3.org/2000/svg" fill="none" viewBox="0 0 64 64"><path fill="#50D9D7" d="M29.8813 50.9469C26.1543 52.3403 22.1038 52.6259 18.2181 51.7693C14.3325 50.9127 10.7775 48.9504 7.98194 46.119C5.18634 43.2876 3.26941 39.708 2.46227 35.8118C1.65512 31.9156 1.99222 27.869 3.43291 24.1601C4.87361 20.4511 7.3564 17.238 10.5819 14.9082C13.8075 12.5784 17.6381 11.2314 21.6119 11.0295C25.5858 10.8276 29.5332 11.7795 32.9782 13.7704C36.4233 15.7613 39.2189 18.7061 41.0281 22.25C42.3499 24.8391 43.1094 27.6783 43.2569 30.5814C43.4044 33.4846 42.9365 36.3861 41.884 39.0958C40.8315 41.8055 39.218 44.2621 37.1495 46.3044C35.081 48.3468 32.6041 49.9289 29.8813 50.9469V50.9469Z"/><path fill="#93E6E5" d="M43.2781 32.5627C43.3156 31.9382 43.3156 31.3121 43.2781 30.6877H33.9031C33.8193 27.7903 33.2126 24.9319 32.1125 22.2502H41.0281C40.7042 21.6036 40.341 20.9774 39.9406 20.3752H31.2125C29.2556 16.7668 26.5286 13.6333 23.225 11.197C23.0611 11.0708 22.86 11.0024 22.6531 11.0024C22.4463 11.0024 22.2452 11.0708 22.0813 11.197C18.7751 13.6306 16.0476 16.7647 14.0938 20.3752H5.36563C4.96524 20.9774 4.60207 21.6036 4.27813 22.2502H13.2219C12.1121 24.9301 11.4959 27.7885 11.4031 30.6877H2.02813C1.99062 31.3121 1.99062 31.9382 2.02813 32.5627H11.4031C11.487 35.46 12.0936 38.3184 13.1938 41.0002H4.27813C4.60207 41.6467 4.96524 42.2729 5.36563 42.8752H14.0938C16.0476 46.4856 18.7751 49.6197 22.0813 52.0533C22.2452 52.1795 22.4463 52.2479 22.6531 52.2479C22.86 52.2479 23.0611 52.1795 23.225 52.0533C26.5335 49.6222 29.2615 46.4876 31.2125 42.8752H39.9406C40.341 42.2729 40.7042 41.6467 41.0281 41.0002H32.0844C33.1942 38.3202 33.8103 35.4618 33.9031 32.5627H43.2781ZM22.6531 13.1283C25.2238 15.1229 27.3987 17.5808 29.0656 20.3752H16.2406C17.9116 17.5838 20.0859 15.1266 22.6531 13.1283V13.1283ZM22.6531 50.122C20.0859 48.1237 17.9116 45.6665 16.2406 42.8752H29.0656C27.3957 45.6673 25.2212 48.1247 22.6531 50.122V50.122ZM30.0313 41.0002H15.275C14.0563 38.3479 13.3775 35.4798 13.2781 32.5627H32.0281C31.9287 35.4798 31.2499 38.3479 30.0313 41.0002V41.0002ZM13.2781 30.6877C13.3687 27.7725 14.0379 24.9044 15.2469 22.2502H30.0313C31.2499 24.9024 31.9287 27.7706 32.0281 30.6877H13.2781Z"/><path fill="#00BEBD" d="M39.9406 20.375H31.2125C30.0623 18.2008 28.607 16.2025 26.8906 14.4406 27.8275 13.6478 28.8277 12.9329 29.8812 12.3031 34.0111 13.8492 37.5366 16.6782 39.9406 20.375V20.375zM39.9406 42.875C37.5366 46.5718 34.0111 49.4008 29.8812 50.9469 28.8277 50.3171 27.8275 49.6023 26.8906 48.8094 28.607 47.0475 30.0623 45.0492 31.2125 42.875H39.9406zM32.0281 32.5625C31.9376 35.4777 31.2683 38.3458 30.0594 41H20.9562C19.7261 38.349 19.0286 35.4823 18.9031 32.5625H32.0281zM32.0281 30.6875H18.9031C19.0227 27.769 19.7139 24.9023 20.9375 22.25H30.0125C31.2376 24.9009 31.9228 27.7691 32.0281 30.6875V30.6875zM29.0656 20.375H21.9219C22.9111 18.6639 24.1181 17.0882 25.5125 15.6875 26.8797 17.1026 28.0726 18.6763 29.0656 20.375V20.375zM29.0656 42.875C28.0726 44.5737 26.8797 46.1474 25.5125 47.5625 24.1181 46.1618 22.9111 44.5861 21.9219 42.875H29.0656z"/><path fill="#50D9D7" d="M33.9031 32.5625C33.8192 35.4599 33.2126 38.3183 32.1125 41H41.0281C40.7042 41.6466 40.341 42.2728 39.9406 42.875H31.2125C30.0623 45.0492 28.607 47.0476 26.8906 48.8094C26.4125 48.4063 25.9531 47.9844 25.5125 47.5344C26.8797 46.1193 28.0726 44.5456 29.0656 42.8469H21.9219C21.575 42.2375 21.2469 41.6188 20.9844 40.9719H30.0594C31.2647 38.3263 31.9339 35.4682 32.0281 32.5625H18.9031C18.9031 31.7375 18.9031 31.5125 18.9031 30.6875H32.0281C31.9376 27.7723 31.2683 24.9042 30.0594 22.25H20.9562C21.2469 21.6031 21.575 20.9844 21.8937 20.375H29.0375C28.0445 18.6763 26.8516 17.1026 25.4844 15.6875C25.925 15.2375 26.4219 14.8156 26.8625 14.4125C28.591 16.1811 30.056 18.1892 31.2125 20.375H39.9406C40.341 20.9773 40.7042 21.6034 41.0281 22.25H32.0844C33.1942 24.9299 33.8103 27.7884 33.9031 30.6875H43.2781C43.3156 31.3119 43.3156 31.9381 43.2781 32.5625H33.9031Z"/><path fill="#EA9706" d="M41.4031 52.25C52.794 52.25 62.0281 43.0159 62.0281 31.625C62.0281 20.2341 52.794 11 41.4031 11C30.0122 11 20.7781 20.2341 20.7781 31.625C20.7781 43.0159 30.0122 52.25 41.4031 52.25Z"/><path fill="#FFAC00" d="M41.4031 48.5C50.7229 48.5 58.2781 40.9448 58.2781 31.625C58.2781 22.3052 50.7229 14.75 41.4031 14.75C32.0833 14.75 24.5281 22.3052 24.5281 31.625C24.5281 40.9448 32.0833 48.5 41.4031 48.5Z"/><g clip-path="url(#a)"><path fill="#fff" stroke="#fff" stroke-width=".6" d="M47.799 22H36.375V24.2697H40.4037C41.8831 24.2697 43.145 25.2184 43.6134 26.5393H36.375V28.809H43.6134C43.145 30.1299 41.8831 31.0786 40.4037 31.0786H36.375V33.3483L43.0267 40L44.6316 38.3951L39.5848 33.3483H40.4037C43.1438 33.3483 45.4366 31.3958 45.9637 28.809H47.799V26.5393H45.9637C45.7929 25.7012 45.4367 24.9298 44.9401 24.2697H47.799V22Z"/></g><defs><clipPath id="a"><rect width="36" height="36" fill="#fff" transform="translate(24 13)"/></clipPath></defs></svg>