<svg xmlns="http://www.w3.org/2000/svg" viewBox="0 0 512 512"><g transform="matrix(.96852 0 0 .96852 -9.496 -523.478)"><g fill="#f69b1f"><g style="line-height:125%" font-family="Sans" font-size="94.352" font-weight="400" letter-spacing="0" word-spacing="0"><path d="m 16,610.67468 0,371.375 36.252311,16.90473 0,-371.375 z"/><path d="M16 982.04968l118.3125 0 36.25231 16.90473-118.312499 0zM134.3125 982.04968c83.2182 0 140.96875-35.65928 140.96875-108.6875l36.25231 16.90473c0 73.02822-57.75055 108.6875-140.96875 108.6875z"/><path d="m 275.28125,873.36218 c 0,-37.58772 -17.26165,-63.46492 -48.13703,-77.86234 l 36.25231,16.90473 c 30.87538,14.39743 48.13703,40.27462 48.13703,77.86234 z"/><path d="m 227.14422,795.49984 c -10.97601,-5.1182 -23.67246,-8.78563 -37.92547,-11.01266 l 36.25231,16.90473 c 14.25301,2.22703 26.94947,5.89446 37.92547,11.01266 z"/><path d="M189.21875 784.48718l0-2.28125 36.25231 16.90473 0 2.28125zM189.21875 782.20593c43.59049-11.3222 64.5625-44.14034 64.5625-80.9375l36.25231 16.90473c0 36.79716-20.97201 69.6153-64.5625 80.9375z"/><path d="m 253.78125,701.26843 c 0,-37.9365 -17.6851,-62.42248 -47.34244,-76.25193 l 36.25231,16.90473 c 29.65734,13.82945 47.34244,38.31543 47.34244,76.25193 z"/><path d="m 206.43881,625.0165 c -21.2375,-9.90321 -48.61429,-14.34182 -80.03256,-14.34182 l 36.25231,16.90473 c 31.41827,0 58.79506,4.43861 80.03256,14.34182 z"/><path d="M126.40625 610.67468l-110.40625 0 36.252311 16.90473 110.406249 0zM63 648.04968l57.15625 0 36.25231 16.90473-57.156249 0z"/><path d="m 120.15625,648.04968 c 24.59559,0 44.05685,3.07751 58.29529,9.71701 l 36.25232,16.90473 c -14.23845,-6.6395 -33.69971,-9.71701 -58.2953,-9.71701 z"/><path d="m 178.45154,657.76669 c 19.18926,8.94809 28.89221,24.36587 28.89221,47.43924 l 36.25231,16.90473 c 0,-23.07337 -9.70295,-38.49115 -28.8922,-47.43924 z"/><path d="m 207.34375,705.20593 c 0,41.32605 -26.03316,63.96875 -89.4375,63.96875 l 36.25231,16.90473 c 63.40434,0 89.4375,-22.6427 89.4375,-63.96875 z"/><path d="m 117.90625,769.17468 -54.90625,0 36.252311,16.90473 54.906249,0 z"/><path d="M63 769.17468l0-121.125 36.252311 16.90473 0 121.125zM466.5625 700.11218c-31.13606 0-59.44336 22.09228-78.125 56.625l36.25231 16.90473c18.68164-34.53272 46.98894-56.625 78.125-56.625z"/><path d="m 388.4375,756.73718 -1.6875,0 36.25231,16.90473 1.6875,0 z"/><path d="m 386.75,756.73718 -3.96875,-49.8125 36.25231,16.90473 3.96875,49.8125 z"/><path d="m 382.78125,706.92468 -38.5,0 36.25231,16.90473 38.5,0 z"/><path d="m 344.28125,706.92468 0,275.125 36.25231,16.90473 0,-275.125 z"/><path d="m 344.28125,982.04968 46.4375,0 36.25231,16.90473 -46.4375,0 z"/><path d="m 390.71875,982.04968 0,-176.625 36.25231,16.90473 0,176.625 z"/><path d="m 390.71875,805.42468 c 18.68164,-46.42104 46.41448,-63.40625 69.625,-63.40625 l 36.25231,16.90473 c -23.21052,0 -50.94336,16.98521 -69.625,63.40625 z"/><path d="m 460.34375,742.01843 c 11.3222,0 17.53599,1.7007 26.59375,4.53125 l 36.25231,16.90473 c -9.05776,-2.83055 -15.27155,-4.53125 -26.59375,-4.53125 z"/><path d="m 486.9375,746.54968 9.0625,-40.75 36.25231,16.90473 -9.0625,40.75 z"/><path d="M496 705.79968c-9.05776-3.96277-17.54919-5.6875-29.4375-5.6875l36.25231 16.90473c11.88831 0 20.37974 1.72473 29.4375 5.6875zM63 804.29968l64.53125 0 36.25231 16.90473-64.531249 0z"/><path d="m 127.53125,804.29968 c 27.47725,0 49.80768,3.72771 66.44117,11.48403 l 36.25231,16.90473 c -16.63349,-7.75632 -38.96392,-11.48403 -66.44117,-11.48403 z"/><path d="m 193.97242,815.78371 c 22.77673,10.62096 34.87133,28.79584 34.87133,55.29722 l 36.25231,16.90473 c 0,-26.50138 -12.0946,-44.67626 -34.87133,-55.29722 z"/><path d="m 228.84375,871.08093 c 0,50.38381 -37.34205,73.59375 -101.3125,73.59375 l 36.25231,16.90473 c 63.97045,0 101.3125,-23.20994 101.3125,-73.59375 z"/><path d="m 127.53125,944.67468 -64.53125,0 36.252311,16.90473 64.531249,0 z"/><path d="m 63,944.67468 0,-140.375 36.252311,16.90473 0,140.375 z"/></g><path d="m 16,610.67468 0,371.375 118.3125,0 c 83.2182,0 140.96875,-35.65928 140.96875,-108.6875 0,-50.94992 -31.71592,-80.38335 -86.0625,-88.875 l 0,-2.28125 c 43.59049,-11.3222 64.5625,-44.14034 64.5625,-80.9375 0,-65.10267 -52.08234,-90.59375 -127.375,-90.59375 l -110.40625,0 z m 47,37.375 57.15625,0 c 57.74324,0 87.1875,16.96242 87.1875,57.15625 0,41.32605 -26.03316,63.96875 -89.4375,63.96875 l -54.90625,0 0,-121.125 z m 403.5625,52.0625 c -31.13606,0 -59.44336,22.09228 -78.125,56.625 l -1.6875,0 -3.96875,-49.8125 -38.5,0 0,275.125 46.4375,0 0,-176.625 c 18.68164,-46.42104 46.41448,-63.40625 69.625,-63.40625 11.3222,0 17.53599,1.7007 26.59375,4.53125 l 9.0625,-40.75 c -9.05776,-3.96277 -17.54919,-5.6875 -29.4375,-5.6875 z M 63,804.29968 l 64.53125,0 c 65.10267,0 101.3125,20.92632 101.3125,66.78125 0,50.38381 -37.34205,73.59375 -101.3125,73.59375 l -64.53125,0 0,-140.375 z" style="line-height:125%" font-family="Sans" font-size="94.352" font-weight="400" letter-spacing="0" word-spacing="0"/></g><path style="line-height:125%" fill="#fcd116" d="m 16,70.3125 0,371.375 118.3125,0 c 83.2182,0 140.96875,-35.65928 140.96875,-108.6875 0,-50.94992 -31.71592,-80.38335 -86.0625,-88.875 l 0,-2.28125 c 43.59049,-11.3222 64.5625,-44.14034 64.5625,-80.9375 0,-65.102674 -52.08234,-90.59375 -127.375,-90.59375 L 16,70.3125 z m 47,37.375 57.15625,0 c 57.74324,0 87.1875,16.96242 87.1875,57.15625 0,41.32605 -26.03316,63.96875 -89.4375,63.96875 l -54.90625,0 0,-121.125 z M 466.5625,159.75 c -31.13606,0 -59.44336,22.09228 -78.125,56.625 l -1.6875,0 -3.96875,-49.8125 -38.5,0 0,275.125 46.4375,0 0,-176.625 c 18.68164,-46.42104 46.41448,-63.40625 69.625,-63.40625 11.3222,0 17.53599,1.7007 26.59375,4.53125 L 496,165.4375 C 486.94224,161.47473 478.45081,159.75 466.5625,159.75 z M 63,263.9375 l 64.53125,0 c 65.10267,0 101.3125,20.92632 101.3125,66.78125 0,50.38381 -37.34205,73.59375 -101.3125,73.59375 l -64.53125,0 0,-140.375 z" font-family="Sans" font-size="94.352" font-weight="400" letter-spacing="0" transform="translate(0 540.362)" word-spacing="0"/></g></svg>