<svg xmlns="http://www.w3.org/2000/svg" enable-background="new 0 0 128 128" viewBox="0 0 128 128"><circle cx="64" cy="64" r="64" fill="#FFF"/><path fill="#333" d="M56.094 54.468c-.521-.838-1.175-1.575-1.96-2.213-.785-.633-1.676-1.128-2.661-1.486-.991-.353-2.029-.526-3.114-.526-1.981 0-3.662.379-5.043 1.143-1.386.77-2.503 1.797-3.367 3.083-.854 1.291-1.486 2.756-1.876 4.405-.39 1.645-.59 3.341-.59 5.1 0 1.682.2 3.314.59 4.906.39 1.586 1.022 3.02 1.876 4.285.864 1.275 1.981 2.291 3.367 3.055 1.381.766 3.062 1.154 5.043 1.154 2.692 0 4.795-.826 6.313-2.465 1.507-1.65 2.435-3.816 2.771-6.508h8.521c-.227 2.508-.806 4.764-1.738 6.787-.933 2.012-2.166 3.734-3.699 5.158-1.533 1.418-3.325 2.502-5.38 3.246-2.056.748-4.321 1.123-6.787 1.123-3.062 0-5.817-.533-8.269-1.598-2.449-1.064-4.51-2.535-6.191-4.4-1.686-1.871-2.972-4.068-3.867-6.586-.901-2.525-1.35-5.244-1.35-8.158 0-2.986.448-5.764 1.35-8.324.896-2.562 2.182-4.796 3.867-6.697 1.682-1.908 3.742-3.404 6.191-4.49 2.451-1.08 5.207-1.623 8.269-1.623 2.208 0 4.289.316 6.249.954 1.966.632 3.721 1.56 5.27 2.771 1.555 1.218 2.835 2.719 3.842 4.516 1.012 1.792 1.649 3.853 1.907 6.166h-8.521C56.958 56.233 56.621 55.311 56.094 54.468zM77.678 75.855c1.159 1.234 2.598 2.02 4.32 2.355V66.498c-.189-.08-.442-.164-.759-.254-.315-.094-.663-.18-1.038-.252-1.381-.375-2.745-.816-4.094-1.318-1.344-.506-2.551-1.174-3.615-2.022-1.064-.838-1.918-1.881-2.551-3.136-.632-1.254-.948-2.813-.948-4.679 0-1.908.358-3.589 1.091-5.049.728-1.459 1.691-2.682 2.888-3.672 1.196-.986 2.577-1.755 4.147-2.293 1.57-.542 3.193-.874 4.879-.985v-4.315h3.305v4.315c1.681.19 3.262.554 4.736 1.091 1.476.543 2.777 1.291 3.9 2.245 1.116.954 2.033 2.14 2.745 3.562.711 1.418 1.122 3.099 1.232 5.043h-7.962c-.037-1.496-.506-2.766-1.401-3.81-.896-1.049-1.981-1.57-3.251-1.57v9.923c.447.11.906.227 1.375.332.464.115.959.247 1.486.395 2.761.749 4.895 1.671 6.386 2.777 1.497 1.101 2.604 2.249 3.31 3.446.711 1.195 1.128 2.393 1.265 3.588.126 1.195.194 2.26.194 3.193 0 .822-.205 1.859-.616 3.113-.411 1.256-1.148 2.477-2.213 3.674-1.064 1.191-2.498 2.26-4.289 3.193-1.797.932-4.095 1.49-6.897 1.682v4.762h-3.305v-4.762c-4.189-.301-7.461-1.588-9.812-3.869-2.355-2.281-3.72-5.621-4.095-10.033h7.904C75.959 72.941 76.518 74.623 77.678 75.855zM80.144 49.678c-.596.185-1.138.479-1.623.869-.485.391-.869.881-1.148 1.455-.285.585-.422 1.265-.422 2.05 0 1.232.39 2.182 1.181 2.855.779.675 2.07 1.218 3.867 1.629v-9.138C81.36 49.398 80.744 49.493 80.144 49.678zM87.404 77.736c.728-.246 1.381-.59 1.961-1.037.579-.447 1.059-1.002 1.434-1.654.373-.654.559-1.428.559-2.33 0-1.453-.459-2.551-1.371-3.277-.916-.727-2.477-1.391-4.684-1.986v10.76C85.977 78.137 86.678 77.975 87.404 77.736z"/></svg>