<svg xmlns="http://www.w3.org/2000/svg" enable-background="new 0 0 128 128" viewBox="0 0 128 128"><circle cx="64" cy="64" r="64" fill="#FC6"/><path fill="#333" d="M40.472 56.467c-.428-.68-.959-1.274-1.592-1.791s-1.354-.917-2.154-1.207c-.807-.284-1.639-.427-2.52-.427-1.607 0-2.967.306-4.084.928-1.117.621-2.023 1.454-2.725 2.497-.695 1.044-1.201 2.234-1.518 3.563-.32 1.333-.479 2.703-.479 4.131 0 1.359.158 2.682.479 3.973.316 1.281.822 2.439 1.518 3.467.701 1.029 1.607 1.855 2.725 2.479 1.117.615 2.477.926 4.084.926 2.176 0 3.885-.664 5.105-1.996 1.223-1.334 1.973-3.088 2.246-5.264h6.902c-.189 2.027-.652 3.855-1.412 5.49-.754 1.633-1.754 3.023-2.992 4.174-1.244 1.148-2.699 2.027-4.359 2.635-1.664.605-3.492.906-5.49.906-2.482 0-4.711-.428-6.691-1.291-1.982-.865-3.652-2.051-5.018-3.568-1.363-1.512-2.402-3.287-3.129-5.328-.729-2.043-1.092-4.24-1.092-6.602 0-2.418.363-4.668 1.092-6.739.727-2.076 1.766-3.884 3.129-5.428 1.365-1.538 3.035-2.75 5.018-3.625 1.98-.88 4.209-1.317 6.691-1.317 1.787 0 3.473.258 5.059.77 1.592.517 3.01 1.265 4.27 2.25 1.254.979 2.291 2.197 3.107 3.651.818 1.454 1.334 3.114 1.545 4.99h-6.902C41.167 57.896 40.894 57.146 40.472 56.467zM60.438 47.82v12.436h13.115V47.82h7.123v32.4h-7.123V66.246H60.438v13.975h-7.125v-32.4H60.438zM109.724 47.82v5.991H94.062v7.487h13.574v5.539H94.062v13.383h-7.123v-32.4H109.724z"/></svg>