<svg xmlns="http://www.w3.org/2000/svg" enable-background="new 0 0 128 128" viewBox="0 0 128 128"><circle cx="64" cy="64" r="64" fill="#9CF"/><path fill="#333" d="M66.056,34.347h7.346l-3.104,7.659c1.564,0.424,2.998,1.035,4.305,1.836l3.857-9.495h7.282l-5.823,14.496   c1.855,2.743,2.852,5.485,2.978,8.226h-6.334l-9.116,22.722c1.396-0.547,2.577-1.412,3.547-2.592   c0.975-1.141,1.775-2.891,2.408-5.254h9.427c-0.843,4.979-2.972,9.008-6.392,12.088c-3.288,3.039-7.488,4.598-12.595,4.682   l-1.96,4.938H54.6l2.281-5.76c-1.565-0.42-2.998-1.012-4.305-1.771l-3.036,7.531h-7.282l4.938-12.215   c-3.209-4.133-4.811-9.598-4.811-16.393c0-7.931,2.129-14.07,6.397-18.417c3.709-3.712,8.436-5.57,14.175-5.57h0.442L66.056,34.347   z M55.105,53.335c-1.981,2.785-2.972,6.732-2.972,11.836c0,1.266,0.041,2.426,0.126,3.482l7.662-18.989   C58.02,50.297,56.417,51.523,55.105,53.335z M70.993,52.134c-0.97-1.139-2.234-1.942-3.8-2.405L55.996,77.516   c1.222,1.223,2.593,2.064,4.115,2.529l11.077-27.658C71.141,52.303,71.083,52.218,70.993,52.134z"/></svg>