<svg xmlns="http://www.w3.org/2000/svg" fill="none" viewBox="0 0 64 64"><path fill="#50D9D7" d="M29.8813 50.9469C26.1543 52.3403 22.1038 52.6259 18.2181 51.7693C14.3325 50.9127 10.7775 48.9504 7.98194 46.119C5.18634 43.2876 3.26941 39.708 2.46227 35.8118C1.65512 31.9156 1.99222 27.869 3.43291 24.1601C4.87361 20.4511 7.3564 17.238 10.5819 14.9082C13.8075 12.5784 17.6381 11.2314 21.6119 11.0295C25.5858 10.8276 29.5332 11.7795 32.9782 13.7704C36.4233 15.7613 39.2189 18.7061 41.0281 22.25C42.3499 24.8391 43.1094 27.6783 43.2569 30.5814C43.4044 33.4846 42.9365 36.3861 41.884 39.0958C40.8315 41.8055 39.218 44.2621 37.1495 46.3044C35.081 48.3468 32.6041 49.9289 29.8813 50.9469V50.9469Z"/><path fill="#93E6E5" d="M43.2781 32.5627C43.3156 31.9382 43.3156 31.3121 43.2781 30.6877H33.9031C33.8193 27.7903 33.2126 24.9319 32.1125 22.2502H41.0281C40.7042 21.6036 40.341 20.9774 39.9406 20.3752H31.2125C29.2556 16.7668 26.5286 13.6333 23.225 11.197C23.0611 11.0708 22.86 11.0024 22.6531 11.0024C22.4463 11.0024 22.2452 11.0708 22.0813 11.197C18.7751 13.6306 16.0476 16.7647 14.0938 20.3752H5.36563C4.96524 20.9774 4.60207 21.6036 4.27813 22.2502H13.2219C12.1121 24.9301 11.4959 27.7885 11.4031 30.6877H2.02813C1.99062 31.3121 1.99062 31.9382 2.02813 32.5627H11.4031C11.487 35.46 12.0936 38.3184 13.1938 41.0002H4.27813C4.60207 41.6467 4.96524 42.2729 5.36563 42.8752H14.0938C16.0476 46.4856 18.7751 49.6197 22.0813 52.0533C22.2452 52.1795 22.4463 52.2479 22.6531 52.2479C22.86 52.2479 23.0611 52.1795 23.225 52.0533C26.5335 49.6222 29.2615 46.4876 31.2125 42.8752H39.9406C40.341 42.2729 40.7042 41.6467 41.0281 41.0002H32.0844C33.1942 38.3202 33.8103 35.4618 33.9031 32.5627H43.2781ZM22.6531 13.1283C25.2238 15.1229 27.3987 17.5808 29.0656 20.3752H16.2406C17.9116 17.5838 20.0859 15.1266 22.6531 13.1283V13.1283ZM22.6531 50.122C20.0859 48.1237 17.9116 45.6665 16.2406 42.8752H29.0656C27.3957 45.6673 25.2212 48.1247 22.6531 50.122V50.122ZM30.0313 41.0002H15.275C14.0563 38.3479 13.3775 35.4798 13.2781 32.5627H32.0281C31.9287 35.4798 31.2499 38.3479 30.0313 41.0002V41.0002ZM13.2781 30.6877C13.3687 27.7725 14.0379 24.9044 15.2469 22.2502H30.0313C31.2499 24.9024 31.9287 27.7706 32.0281 30.6877H13.2781Z"/><path fill="#00BEBD" d="M39.9406 20.375H31.2125C30.0623 18.2008 28.607 16.2025 26.8906 14.4406 27.8275 13.6478 28.8277 12.9329 29.8812 12.3031 34.0111 13.8492 37.5366 16.6782 39.9406 20.375V20.375zM39.9406 42.875C37.5366 46.5718 34.0111 49.4008 29.8812 50.9469 28.8277 50.3171 27.8275 49.6023 26.8906 48.8094 28.607 47.0475 30.0623 45.0492 31.2125 42.875H39.9406zM32.0281 32.5625C31.9375 35.4777 31.2683 38.3458 30.0593 41H20.9562C19.7261 38.349 19.0285 35.4823 18.9031 32.5625H32.0281zM32.0281 30.6875H18.9031C19.0226 27.769 19.7138 24.9023 20.9375 22.25H30.0125C31.2376 24.9009 31.9228 27.7691 32.0281 30.6875V30.6875zM29.0656 20.375H21.9219C22.9111 18.6639 24.1181 17.0882 25.5125 15.6875 26.8797 17.1026 28.0726 18.6763 29.0656 20.375V20.375zM29.0656 42.875C28.0726 44.5737 26.8797 46.1474 25.5125 47.5625 24.1181 46.1618 22.9111 44.5861 21.9219 42.875H29.0656z"/><path fill="#50D9D7" d="M33.9031 32.5625C33.8192 35.4599 33.2126 38.3183 32.1125 41H41.0281C40.7041 41.6466 40.341 42.2728 39.9406 42.875H31.2125C30.0623 45.0492 28.6069 47.0476 26.8906 48.8094C26.4125 48.4063 25.9531 47.9844 25.5125 47.5344C26.8797 46.1193 28.0726 44.5456 29.0656 42.8469H21.9218C21.575 42.2375 21.2468 41.6188 20.9843 40.9719H30.0593C31.2647 38.3263 31.9338 35.4682 32.0281 32.5625H18.9031C18.9031 31.7375 18.9031 31.5125 18.9031 30.6875H32.0281C31.9375 27.7723 31.2683 24.9042 30.0593 22.25H20.9562C21.2468 21.6031 21.575 20.9844 21.8937 20.375H29.0375C28.0444 18.6763 26.8516 17.1026 25.4843 15.6875C25.925 15.2375 26.4218 14.8156 26.8625 14.4125C28.5909 16.1811 30.0559 18.1892 31.2125 20.375H39.9406C40.341 20.9773 40.7041 21.6034 41.0281 22.25H32.0843C33.1941 24.9299 33.8103 27.7884 33.9031 30.6875H43.2781C43.3156 31.3119 43.3156 31.9381 43.2781 32.5625H33.9031Z"/><path fill="#EA9706" d="M41.4031 52.25C52.7939 52.25 62.0281 43.0159 62.0281 31.625C62.0281 20.2341 52.7939 11 41.4031 11C30.0122 11 20.7781 20.2341 20.7781 31.625C20.7781 43.0159 30.0122 52.25 41.4031 52.25Z"/><path fill="#FFAC00" d="M41.4031 48.5C50.7229 48.5 58.2781 40.9448 58.2781 31.625C58.2781 22.3052 50.7229 14.75 41.4031 14.75C32.0833 14.75 24.5281 22.3052 24.5281 31.625C24.5281 40.9448 32.0833 48.5 41.4031 48.5Z"/><g clip-path="url(#a)"><path fill="#fff" fill-rule="evenodd" d="M39.7216 33.0213L39.7215 33.0215L39.7215 33.0217C39.5032 33.8449 39.285 34.668 39.0641 35.495H30.75C30.7642 35.4547 30.7737 35.4203 30.7813 35.393C30.793 35.351 30.8 35.326 30.8116 35.3229C32.0173 35.0368 32.0469 34.9992 32.0469 33.7216V27.2494C32.0469 26.544 32.0469 26.1945 31.8826 25.9602C31.7213 25.7301 31.4016 25.611 30.768 25.375H38.8253V27.4837C38.7977 27.4908 38.7701 27.4982 38.7425 27.5057L38.7425 27.5057C38.7149 27.5131 38.6873 27.5206 38.6597 27.5277C38.6358 27.4774 38.6109 27.4274 38.586 27.3773L38.586 27.3773C38.5347 27.274 38.4833 27.1706 38.4401 27.0643C38.1422 26.3251 37.608 25.942 36.8094 25.9446C35.9748 25.9471 35.1401 25.9484 34.3055 25.9446C33.8664 25.942 33.6057 26.1439 33.6018 26.5944C33.5944 27.3525 33.5957 28.1113 33.597 28.8833V28.8833C33.5975 29.183 33.598 29.4847 33.598 29.7891C33.9008 29.7891 34.1992 29.794 34.4943 29.7989H34.4943C35.1789 29.8102 35.8454 29.8212 36.5076 29.7697C37.1419 29.7205 37.617 29.3412 37.7172 28.6267C37.7253 28.5697 37.7749 28.5189 37.8527 28.4393C37.8987 28.3922 37.9546 28.3349 38.0177 28.2603V32.0065L38.0176 32.0065L38.0176 32.0065C37.9701 32.0233 37.9226 32.0401 37.8751 32.0582C37.8564 32.02 37.8347 31.9824 37.8131 31.9448C37.7652 31.8614 37.7173 31.7781 37.7005 31.688C37.5759 31.0525 37.1612 30.6822 36.568 30.6188C35.9053 30.5484 35.2383 30.5221 34.5421 30.4946L34.5421 30.4946L34.542 30.4946C34.2399 30.4826 33.9324 30.4705 33.6173 30.4544C33.6173 30.7773 33.6166 31.095 33.6159 31.4087V31.4089V31.4089C33.6137 32.4587 33.6115 33.464 33.6352 34.4685C33.6391 34.6109 33.8933 34.8646 34.0333 34.8659C35.1016 34.8789 36.1738 34.8879 37.237 34.8051C38.1525 34.7339 38.7033 34.0918 39.1322 33.3255C39.1984 33.2063 39.3088 33.1122 39.419 33.0183C39.4691 32.9756 39.5191 32.9329 39.5649 32.888C39.6187 32.9332 39.67 32.9771 39.7213 33.0211L39.7213 33.0211L39.7216 33.0213ZM52.3311 33.0489C52.0615 34.3382 50.875 35.498 49.8208 35.6585C48.5535 35.8514 47.5314 35.3323 46.8868 34.1673C45.7479 32.1091 46.6518 29.3248 48.6883 28.6413C49.5987 28.3358 50.5142 28.3384 51.3488 28.8355C51.6737 29.0283 51.9498 29.3791 52.1295 29.7222C52.3311 30.1066 52.1193 30.4574 51.7238 30.5946C51.2923 30.7435 50.8943 30.5519 50.8339 30.1118C50.7479 29.4879 50.572 29.0232 49.8889 28.9338C49.139 28.8368 48.5548 29.1164 48.1208 29.7377C47.2784 30.9454 47.4505 32.9389 48.4919 33.9835C49.3226 34.8171 50.4988 34.8339 51.431 34.0055C51.6151 33.8411 51.7804 33.6568 51.9796 33.4348C52.0848 33.3175 52.1994 33.1898 52.3311 33.0489ZM44.7515 30.6542V28.7798C44.6083 28.7537 44.4684 28.7293 44.331 28.7053C44.0185 28.6508 43.719 28.5986 43.4238 28.5338C42.2758 28.284 41.2127 28.7578 40.857 29.6898C40.4974 30.6334 40.8852 31.5111 41.9381 32.17C42.0603 32.2465 42.1831 32.3223 42.306 32.3982C42.7836 32.6932 43.2622 32.9887 43.7075 33.3285C44.1338 33.6547 44.3868 34.1103 44.1364 34.689C43.922 35.1847 43.3596 35.4643 42.7445 35.3737C41.906 35.2507 41.4374 34.7071 41.1754 33.9421C41.1168 33.7721 41.0658 33.5996 41.0148 33.4272C40.9932 33.3541 40.9716 33.281 40.9494 33.2081C40.9244 33.2146 40.899 33.2214 40.8736 33.2282C40.8483 33.235 40.8229 33.2418 40.7979 33.2482V35.4954C40.9171 35.4954 41.034 35.4935 41.1492 35.4917C41.4049 35.4876 41.6522 35.4836 41.8983 35.5006C42.0989 35.5143 42.2999 35.5431 42.5006 35.5719C42.8499 35.6221 43.1981 35.6721 43.5406 35.6417C44.3675 35.5679 44.9697 35.0851 45.2317 34.2683C45.4911 33.4618 45.2574 32.7978 44.5113 32.2295C44.2722 32.047 44.0144 31.8903 43.7565 31.7336C43.5754 31.6237 43.3944 31.5136 43.2196 31.3946C43.1264 31.3309 43.0315 31.2684 42.9365 31.2059C42.6011 30.9851 42.2639 30.7631 41.9908 30.4807C41.4579 29.9293 41.6428 29.2303 42.34 28.9079C43.0655 28.5714 43.8282 28.8989 44.2276 29.7364C44.3283 29.9474 44.4129 30.1662 44.4976 30.3855C44.5371 30.4877 44.5767 30.59 44.6179 30.6917C44.6404 30.6852 44.6625 30.6791 44.6847 30.6729C44.7068 30.6668 44.729 30.6606 44.7515 30.6542Z" clip-rule="evenodd"/><path fill="#fff" d="M39.7216 33.0213L39.9148 33.073L39.9473 32.9514L39.8517 32.8695L39.7216 33.0213ZM39.7215 33.0217L39.5283 32.97L39.5281 32.9705L39.7215 33.0217ZM39.0641 35.495V35.695H39.2178L39.2574 35.5466L39.0641 35.495ZM30.75 35.495L30.5613 35.4287L30.4677 35.695H30.75V35.495ZM30.7813 35.393L30.974 35.4466L30.974 35.4466L30.7813 35.393ZM30.8116 35.3229L30.7654 35.1282L30.7597 35.1297L30.8116 35.3229ZM31.8826 25.9602L31.7188 26.075L31.7188 26.075L31.8826 25.9602ZM30.768 25.375V25.175L30.6982 25.5624L30.768 25.375ZM38.8253 25.375H39.0253V25.175H38.8253V25.375ZM38.8253 27.4837L38.8753 27.6773L39.0253 27.6386V27.4837H38.8253ZM38.7425 27.5057L38.6904 27.3126L38.6895 27.3128L38.7425 27.5057ZM38.7425 27.5057L38.7945 27.6988L38.7955 27.6985L38.7425 27.5057ZM38.6597 27.5277L38.479 27.6135L38.5498 27.7625L38.7096 27.7213L38.6597 27.5277ZM38.586 27.3773L38.4003 27.4516L38.4033 27.4591L38.4069 27.4663L38.586 27.3773ZM38.586 27.3773L38.7717 27.303L38.7687 27.2955L38.7651 27.2883L38.586 27.3773ZM38.4401 27.0643L38.2546 27.139L38.2548 27.1396L38.4401 27.0643ZM36.8094 25.9446L36.81 26.1446L36.81 26.1446L36.8094 25.9446ZM34.3055 25.9446L34.3043 26.1446L34.3046 26.1446L34.3055 25.9446ZM33.6018 26.5944L33.8018 26.5963L33.8018 26.5961L33.6018 26.5944ZM33.597 28.8833L33.797 28.8833L33.797 28.883L33.597 28.8833ZM33.597 28.8833L33.397 28.8833L33.397 28.8837L33.597 28.8833ZM33.598 29.7891H33.398V29.9891H33.598V29.7891ZM34.4943 29.7989L34.491 29.9989H34.4943V29.7989ZM34.4943 29.7989L34.4976 29.5989H34.4943V29.7989ZM36.5076 29.7697L36.4922 29.5703L36.4921 29.5703L36.5076 29.7697ZM37.7172 28.6267L37.5192 28.5986L37.5191 28.5989L37.7172 28.6267ZM37.8527 28.4393L37.7096 28.2995L37.7096 28.2995L37.8527 28.4393ZM38.0177 28.2603H38.2177V27.7137L37.8649 28.1313L38.0177 28.2603ZM38.0177 32.0065L38.0854 32.1946L38.2177 32.147V32.0065H38.0177ZM38.0176 32.0065L37.9498 31.8183L37.9458 31.8198L38.0176 32.0065ZM38.0176 32.0065L38.0844 32.1951L38.0894 32.1932L38.0176 32.0065ZM37.8751 32.0582L37.6956 32.1464L37.776 32.3101L37.9464 32.2451L37.8751 32.0582ZM37.8131 31.9448L37.6397 32.0444L37.6397 32.0444L37.8131 31.9448ZM37.7005 31.688L37.8971 31.6513L37.8968 31.6496L37.7005 31.688ZM36.568 30.6188L36.5892 30.42L36.5891 30.4199L36.568 30.6188ZM34.5421 30.4946L34.55 30.2947L34.5494 30.2947L34.5421 30.4946ZM34.5421 30.4946L34.5341 30.6944L34.5348 30.6944L34.5421 30.4946ZM34.542 30.4946L34.55 30.2947L34.5499 30.2947L34.542 30.4946ZM33.6173 30.4544L33.6274 30.2547L33.4173 30.244V30.4544H33.6173ZM33.6159 31.4087L33.4159 31.4083V31.4087H33.6159ZM33.6159 31.4089L33.8159 31.4093V31.4089H33.6159ZM33.6352 34.4685L33.4353 34.4732L33.4353 34.4739L33.6352 34.4685ZM34.0333 34.8659L34.0357 34.6659L34.0351 34.6659L34.0333 34.8659ZM37.237 34.8051L37.2215 34.6057L37.2214 34.6057L37.237 34.8051ZM39.1322 33.3255L39.3067 33.4232L39.3071 33.4226L39.1322 33.3255ZM39.419 33.0183L39.5487 33.1705L39.5487 33.1705L39.419 33.0183ZM39.5649 32.888L39.6936 32.7349L39.5545 32.618L39.4248 32.7453L39.5649 32.888ZM39.7213 33.0211L39.853 32.8705L39.8514 32.8692L39.7213 33.0211ZM39.7213 33.0211L39.5896 33.1716L39.5911 33.1729L39.7213 33.0211ZM49.8208 35.6585L49.8509 35.8562L49.8509 35.8562L49.8208 35.6585ZM52.3311 33.0489L52.5269 33.0898L52.6732 32.3904L52.1851 32.9123L52.3311 33.0489ZM46.8868 34.1673L47.0618 34.0705L47.0618 34.0705L46.8868 34.1673ZM48.6883 28.6413L48.6247 28.4517L48.6247 28.4517L48.6883 28.6413ZM51.3488 28.8355L51.2465 29.0073L51.2467 29.0074L51.3488 28.8355ZM52.1295 29.7222L51.9524 29.815L51.9524 29.815L52.1295 29.7222ZM51.7238 30.5946L51.789 30.7837L51.7893 30.7836L51.7238 30.5946ZM50.8339 30.1118L51.0321 30.0846L51.0321 30.0845L50.8339 30.1118ZM49.8889 28.9338L49.9148 28.7355L49.9146 28.7355L49.8889 28.9338ZM48.1208 29.7377L47.9568 29.6232L47.9567 29.6233L48.1208 29.7377ZM48.4919 33.9835L48.6335 33.8423L48.6335 33.8423L48.4919 33.9835ZM51.431 34.0055L51.5639 34.155L51.5642 34.1547L51.431 34.0055ZM51.9796 33.4348L51.8307 33.3012L51.8307 33.3012L51.9796 33.4348ZM44.7515 28.7798H44.9515V28.613L44.7873 28.583L44.7515 28.7798ZM44.7515 30.6542L44.8068 30.8463L44.9515 30.8047V30.6542H44.7515ZM44.331 28.7053L44.2966 28.9023L44.2966 28.9023L44.331 28.7053ZM43.4238 28.5338L43.4666 28.3385L43.4663 28.3384L43.4238 28.5338ZM40.857 29.6898L40.6701 29.6185L40.6701 29.6186L40.857 29.6898ZM41.9381 32.17L42.0443 32.0005L42.0442 32.0004L41.9381 32.17ZM42.306 32.3982L42.411 32.228L42.411 32.228L42.306 32.3982ZM43.7075 33.3285L43.8291 33.1697L43.8289 33.1695L43.7075 33.3285ZM44.1364 34.689L43.9529 34.6095L43.9528 34.6096L44.1364 34.689ZM42.7445 35.3737L42.7737 35.1759L42.7735 35.1758L42.7445 35.3737ZM41.1754 33.9421L41.3646 33.8773L41.3645 33.8769L41.1754 33.9421ZM41.0148 33.4272L40.823 33.4839L40.823 33.4839L41.0148 33.4272ZM40.9494 33.2081L41.1408 33.1499L41.0849 32.9665L40.8994 33.0145L40.9494 33.2081ZM40.8736 33.2282L40.9254 33.4214L40.9254 33.4214L40.8736 33.2282ZM40.7979 33.2482L40.7479 33.0546L40.5979 33.0934V33.2482H40.7979ZM40.7979 35.4954H40.5979V35.6954H40.7979V35.4954ZM41.1492 35.4917L41.1524 35.6917L41.1524 35.6917L41.1492 35.4917ZM41.8983 35.5006L41.8846 35.7001L41.8847 35.7001L41.8983 35.5006ZM42.5006 35.5719L42.4721 35.7699L42.4721 35.7699L42.5006 35.5719ZM43.5406 35.6417L43.5583 35.8409L43.5584 35.8409L43.5406 35.6417ZM45.2317 34.2683L45.0413 34.207L45.0412 34.2072L45.2317 34.2683ZM44.5113 32.2295L44.39 32.3885L44.3902 32.3886L44.5113 32.2295ZM43.7565 31.7336L43.6526 31.9046L43.6526 31.9046L43.7565 31.7336ZM43.2196 31.3946L43.1068 31.5597L43.107 31.5599L43.2196 31.3946ZM42.9365 31.2059L42.8265 31.3729L42.8265 31.3729L42.9365 31.2059ZM41.9908 30.4807L41.847 30.6197L41.847 30.6197L41.9908 30.4807ZM42.34 28.9079L42.424 29.0895L42.4242 29.0894L42.34 28.9079ZM44.2276 29.7364L44.047 29.8225L44.0471 29.8225L44.2276 29.7364ZM44.4976 30.3855L44.3111 30.4576L44.3111 30.4576L44.4976 30.3855ZM44.6179 30.6917L44.4326 30.7669L44.5003 30.9337L44.6733 30.8839L44.6179 30.6917ZM44.6847 30.6729L44.7382 30.8656L44.7382 30.8656L44.6847 30.6729ZM39.9147 33.0732L39.9148 33.073L39.5284 32.9696L39.5283 32.9698L39.9147 33.0732ZM39.9147 33.0734L39.9147 33.0732L39.5283 32.9698L39.5283 32.97L39.9147 33.0734ZM39.2574 35.5466C39.4782 34.7194 39.6965 33.8961 39.9148 33.073L39.5281 32.9705C39.3099 33.7936 39.0917 34.6166 38.8709 35.4434L39.2574 35.5466ZM30.75 35.695H39.0641V35.295H30.75V35.695ZM30.5886 35.3394C30.5811 35.3666 30.5731 35.3953 30.5613 35.4287L30.9387 35.5613C30.9553 35.5142 30.9664 35.474 30.974 35.4466L30.5886 35.3394ZM30.7597 35.1297C30.6949 35.1471 30.6578 35.1895 30.6412 35.2125C30.6245 35.2358 30.615 35.2584 30.6102 35.2704C30.601 35.2942 30.5933 35.3228 30.5886 35.3394L30.974 35.4466C30.9771 35.4356 30.9792 35.4281 30.981 35.422C30.9829 35.4155 30.9834 35.4146 30.9827 35.4163C30.9826 35.4165 30.9778 35.4296 30.966 35.446C30.9544 35.4621 30.9226 35.5001 30.8636 35.516L30.7597 35.1297ZM31.8469 33.7216C31.8469 34.0442 31.8448 34.2737 31.8247 34.4477C31.8049 34.6201 31.7698 34.7113 31.7231 34.7719C31.6769 34.8317 31.6003 34.8862 31.4439 34.944C31.2853 35.0027 31.0702 35.056 30.7655 35.1283L30.8578 35.5174C31.1559 35.4467 31.3967 35.388 31.5827 35.3192C31.7709 35.2496 31.9278 35.1613 32.0397 35.0163C32.1511 34.872 32.1987 34.6964 32.2221 34.4935C32.2453 34.2921 32.2469 34.0378 32.2469 33.7216H31.8469ZM31.8469 27.2494V33.7216H32.2469V27.2494H31.8469ZM31.7188 26.075C31.7725 26.1516 31.8083 26.258 31.8273 26.4481C31.8466 26.6406 31.8469 26.8925 31.8469 27.2494H32.2469C32.2469 26.9009 32.2471 26.6253 32.2253 26.4082C32.2033 26.1887 32.157 26.0032 32.0464 25.8454L31.7188 26.075ZM30.6982 25.5624C31.0189 25.6819 31.2461 25.7668 31.4143 25.8493C31.5803 25.9309 31.6661 25.9997 31.7188 26.075L32.0464 25.8454C31.9378 25.6906 31.7831 25.5848 31.5906 25.4903C31.4002 25.3968 31.1507 25.3041 30.8378 25.1876L30.6982 25.5624ZM38.8253 25.175H30.768V25.575H38.8253V25.175ZM39.0253 27.4837V25.375H38.6253V27.4837H39.0253ZM38.7946 27.6988C38.8223 27.6913 38.8489 27.6841 38.8753 27.6773L38.7754 27.29C38.7465 27.2974 38.7179 27.3052 38.6904 27.3126L38.7946 27.6988ZM38.7955 27.6985L38.7955 27.6985L38.6895 27.3128L38.6894 27.3128L38.7955 27.6985ZM38.7096 27.7213C38.7385 27.7139 38.7671 27.7062 38.7945 27.6988L38.6904 27.3126C38.6626 27.3201 38.6361 27.3272 38.6097 27.334L38.7096 27.7213ZM38.4069 27.4663C38.4319 27.5166 38.456 27.5651 38.479 27.6135L38.8403 27.4418C38.8155 27.3897 38.7899 27.3381 38.7652 27.2883L38.4069 27.4663ZM38.4003 27.4516L38.4003 27.4516L38.7717 27.303L38.7717 27.303L38.4003 27.4516ZM38.2548 27.1396C38.3014 27.2541 38.3562 27.3642 38.4069 27.4663L38.7651 27.2883C38.7133 27.1839 38.6653 27.0872 38.6254 26.9889L38.2548 27.1396ZM36.81 26.1446C37.1762 26.1434 37.4675 26.2302 37.6985 26.3906C37.9301 26.5514 38.1167 26.7969 38.2546 27.139L38.6256 26.9895C38.4656 26.5924 38.2361 26.2769 37.9266 26.062C37.6164 25.8466 37.2412 25.7432 36.8087 25.7446L36.81 26.1446ZM34.3046 26.1446C35.14 26.1484 35.9752 26.1471 36.81 26.1446L36.8088 25.7446C35.9743 25.7471 35.1403 25.7484 34.3064 25.7446L34.3046 26.1446ZM33.8018 26.5961C33.8034 26.4094 33.8568 26.3078 33.9228 26.2495C33.9929 26.1876 34.1121 26.1434 34.3043 26.1446L34.3067 25.7446C34.0598 25.7431 33.8291 25.7986 33.658 25.9497C33.483 26.1043 33.4041 26.3289 33.4019 26.5927L33.8018 26.5961ZM33.797 28.883C33.7957 28.1107 33.7945 27.3531 33.8018 26.5963L33.4019 26.5924C33.3944 27.3519 33.3957 28.1118 33.397 28.8836L33.797 28.883ZM33.797 28.8833V28.8833H33.397V28.8833H33.797ZM33.798 29.7891C33.798 29.4845 33.7975 29.1827 33.797 28.883L33.397 28.8837C33.3975 29.1834 33.398 29.4849 33.398 29.7891H33.798ZM34.4976 29.5989C34.2028 29.594 33.9027 29.5891 33.598 29.5891V29.9891C33.8989 29.9891 34.1957 29.994 34.491 29.9989L34.4976 29.5989ZM34.4943 29.5989H34.4943V29.9989H34.4943V29.5989ZM36.4921 29.5703C35.8409 29.621 35.1838 29.6103 34.4976 29.5989L34.491 29.9989C35.1739 30.0101 35.85 30.0215 36.5232 29.9691L36.4921 29.5703ZM37.5191 28.5989C37.4746 28.9164 37.3497 29.1447 37.1786 29.2993C37.0066 29.4547 36.7736 29.5484 36.4922 29.5703L36.5231 29.9691C36.8759 29.9417 37.1977 29.8212 37.4468 29.5961C37.6969 29.37 37.8596 29.0514 37.9153 28.6544L37.5191 28.5989ZM37.7096 28.2995C37.6735 28.3365 37.6325 28.3781 37.6009 28.4188C37.5682 28.4608 37.5302 28.5205 37.5192 28.5986L37.9152 28.6547C37.9122 28.6759 37.9031 28.6817 37.9167 28.6642C37.9313 28.6454 37.954 28.6218 37.9957 28.5791L37.7096 28.2995ZM37.8649 28.1313C37.8069 28.1998 37.7555 28.2526 37.7096 28.2995L37.9957 28.5791C38.042 28.5318 38.1023 28.47 38.1704 28.3894L37.8649 28.1313ZM38.2177 32.0065V28.2603H37.8177V32.0065H38.2177ZM38.0853 32.1947L38.0854 32.1946L37.9499 31.8183L37.9498 31.8183L38.0853 32.1947ZM38.0894 32.1932L38.0894 32.1932L37.9458 31.8198L37.9458 31.8198L38.0894 32.1932ZM37.9464 32.2451C37.9913 32.228 38.0365 32.212 38.0843 32.195L37.9508 31.818C37.9037 31.8347 37.8539 31.8523 37.8038 31.8714L37.9464 32.2451ZM37.6397 32.0444C37.6619 32.0831 37.6802 32.115 37.6956 32.1464L38.0547 31.9701C38.0325 31.925 38.0075 31.8817 37.9865 31.8451L37.6397 32.0444ZM37.5039 31.7247C37.5281 31.8543 37.5955 31.9675 37.6397 32.0444L37.9865 31.8451C37.9349 31.7554 37.9065 31.702 37.8971 31.6513L37.5039 31.7247ZM36.5467 30.8177C36.8064 30.8454 37.0162 30.9387 37.1738 31.0853C37.3315 31.2321 37.4487 31.4433 37.5042 31.7265L37.8968 31.6496C37.8277 31.2972 37.6753 31.0055 37.4462 30.7924C37.217 30.5792 36.9228 30.4556 36.5892 30.42L36.5467 30.8177ZM34.5342 30.6944C35.2316 30.722 35.8919 30.7481 36.5468 30.8177L36.5891 30.4199C35.9187 30.3487 35.245 30.3222 34.55 30.2947L34.5342 30.6944ZM34.5348 30.6944L34.5348 30.6944L34.5494 30.2947L34.5493 30.2947L34.5348 30.6944ZM34.534 30.6944L34.5341 30.6944L34.5501 30.2947L34.55 30.2947L34.534 30.6944ZM33.6071 30.6542C33.9235 30.6703 34.2322 30.6825 34.5341 30.6944L34.5499 30.2947C34.2477 30.2828 33.9412 30.2707 33.6274 30.2547L33.6071 30.6542ZM33.8159 31.4092C33.8166 31.0955 33.8173 30.7775 33.8173 30.4544H33.4173C33.4173 30.777 33.4166 31.0945 33.4159 31.4083L33.8159 31.4092ZM33.8159 31.4089V31.4087H33.4159V31.4089H33.8159ZM33.8159 31.4089V31.4089H33.4159V31.4089H33.8159ZM33.8352 34.4638C33.8115 33.4623 33.8137 32.4595 33.8159 31.4093L33.4159 31.4084C33.4137 32.4578 33.4115 33.4657 33.4353 34.4732L33.8352 34.4638ZM34.0351 34.6659C34.0528 34.6661 34.0476 34.6711 34.0156 34.6519C33.9885 34.6356 33.9561 34.6101 33.9245 34.5786C33.8929 34.547 33.8671 34.5144 33.8504 34.4868C33.8309 34.4547 33.8347 34.4477 33.8352 34.4631L33.4353 34.4739C33.4376 34.5605 33.4747 34.6387 33.5083 34.6942C33.5447 34.7542 33.592 34.8118 33.6419 34.8617C33.6919 34.9115 33.7495 34.9586 33.8096 34.9947C33.8648 35.0279 33.9438 35.0651 34.0314 35.0659L34.0351 34.6659ZM37.2214 34.6057C36.1685 34.6877 35.1048 34.6789 34.0357 34.6659L34.0309 35.0659C35.0984 35.0788 36.1791 35.0881 37.2525 35.0045L37.2214 34.6057ZM38.9577 33.2278C38.5372 33.9792 38.0325 34.5426 37.2215 34.6057L37.2525 35.0045C38.2724 34.9252 38.8695 34.2044 39.3067 33.4232L38.9577 33.2278ZM39.2892 32.8661C39.1854 32.9546 39.0443 33.0718 38.9573 33.2284L39.3071 33.4226C39.3525 33.3408 39.4323 33.2697 39.5487 33.1705L39.2892 32.8661ZM39.4248 32.7453C39.3849 32.7844 39.3404 32.8225 39.2892 32.8661L39.5487 33.1705C39.5978 33.1287 39.6534 33.0814 39.705 33.0307L39.4248 32.7453ZM39.8514 32.8692C39.8002 32.8253 39.7483 32.7808 39.6936 32.7349L39.4363 33.0411C39.4892 33.0856 39.5398 33.1289 39.5911 33.1729L39.8514 32.8692ZM39.853 32.8705L39.853 32.8705L39.5896 33.1716L39.5896 33.1716L39.853 32.8705ZM39.8517 32.8695L39.8514 32.8692L39.5911 33.1729L39.5914 33.1732L39.8517 32.8695ZM49.8509 35.8562C50.4333 35.7676 51.0307 35.4088 51.513 34.917C51.9969 34.4236 52.3829 33.7782 52.5269 33.0898L52.1354 33.008C52.0097 33.6089 51.6676 34.1881 51.2274 34.637C50.7854 35.0876 50.2626 35.3889 49.7907 35.4608L49.8509 35.8562ZM46.7118 34.2641C47.0499 34.8752 47.4935 35.3279 48.0297 35.6004C48.5664 35.8731 49.1819 35.9581 49.8509 35.8562L49.7907 35.4608C49.1925 35.5518 48.6632 35.4737 48.2109 35.2438C47.7581 35.0137 47.3683 34.6244 47.0618 34.0705L46.7118 34.2641ZM48.6247 28.4517C47.5346 28.8175 46.7602 29.7409 46.4066 30.8269C46.0529 31.9134 46.113 33.1821 46.7118 34.2641L47.0618 34.0705C46.5216 33.0943 46.4643 31.9418 46.787 30.9507C47.1098 29.9591 47.8056 29.1485 48.752 28.8309L48.6247 28.4517ZM51.4512 28.6636C50.5542 28.1294 49.5751 28.1327 48.6247 28.4517L48.7519 28.8309C49.6223 28.5389 50.4743 28.5474 51.2465 29.0073L51.4512 28.6636ZM52.3067 29.6293C52.117 29.2674 51.8189 28.882 51.4509 28.6635L51.2467 29.0074C51.5285 29.1747 51.7825 29.4908 51.9524 29.815L52.3067 29.6293ZM51.7893 30.7836C52.0244 30.702 52.2234 30.5505 52.3291 30.3412C52.4378 30.1259 52.4349 29.8738 52.3067 29.6293L51.9524 29.815C52.0258 29.955 52.0177 30.0705 51.972 30.161C51.9233 30.2575 51.8186 30.35 51.6582 30.4057L51.7893 30.7836ZM50.6358 30.139C50.6741 30.4181 50.8243 30.6346 51.0469 30.7513C51.2655 30.8657 51.5314 30.8726 51.789 30.7837L51.6585 30.4056C51.4847 30.4655 51.3359 30.451 51.2325 30.3969C51.1332 30.3449 51.0542 30.2456 51.0321 30.0846L50.6358 30.139ZM49.863 29.1322C50.156 29.1705 50.3164 29.283 50.4201 29.4351C50.5325 29.5998 50.5935 29.8323 50.6358 30.1391L51.0321 30.0845C50.9883 29.7673 50.9183 29.4555 50.7505 29.2096C50.574 28.951 50.3049 28.7865 49.9148 28.7355L49.863 29.1322ZM48.2847 29.8522C48.4855 29.5648 48.7142 29.3659 48.97 29.248C49.2253 29.1304 49.5202 29.0878 49.8632 29.1322L49.9146 28.7355C49.5077 28.6828 49.1355 28.7314 48.8027 28.8847C48.4705 29.0377 48.1901 29.2892 47.9568 29.6232L48.2847 29.8522ZM48.6335 33.8423C48.1526 33.3598 47.8639 32.6478 47.7992 31.9044C47.7345 31.161 47.8958 30.4099 48.2848 29.8521L47.9567 29.6233C47.5034 30.2732 47.3296 31.1227 47.4007 31.9391C47.4718 32.7555 47.7898 33.5625 48.3502 34.1247L48.6335 33.8423ZM51.2982 33.856C50.8642 34.2417 50.3838 34.4221 49.9253 34.4178C49.4675 34.4135 49.0149 34.225 48.6335 33.8423L48.3502 34.1247C48.7996 34.5756 49.3505 34.8124 49.9215 34.8178C50.4918 34.8231 51.0656 34.5978 51.5639 34.155L51.2982 33.856ZM51.8307 33.3012C51.6299 33.5251 51.4721 33.7007 51.2978 33.8563L51.5642 34.1547C51.7581 33.9816 51.9309 33.7886 52.1285 33.5683L51.8307 33.3012ZM52.1851 32.9123C52.0517 33.0549 51.9358 33.1841 51.8307 33.3012L52.1285 33.5683C52.2337 33.451 52.347 33.3247 52.4772 33.1855L52.1851 32.9123ZM44.5515 28.7798V30.6542H44.9515V28.7798H44.5515ZM44.2966 28.9023C44.4341 28.9263 44.5733 28.9506 44.7156 28.9766L44.7873 28.583C44.6433 28.5568 44.5026 28.5322 44.3653 28.5083L44.2966 28.9023ZM43.3809 28.7292C43.6811 28.795 43.9849 28.848 44.2966 28.9023L44.3653 28.5083C44.0521 28.4537 43.7569 28.4021 43.4666 28.3385L43.3809 28.7292ZM41.0438 29.7611C41.3554 28.9447 42.3034 28.4947 43.3812 28.7293L43.4663 28.3384C42.2482 28.0733 41.0699 28.5708 40.6701 29.6185L41.0438 29.7611ZM42.0442 32.0004C41.5408 31.6854 41.214 31.3289 41.0511 30.9565C40.8901 30.5885 40.8813 30.1877 41.0439 29.761L40.6701 29.6186C40.4731 30.1355 40.4784 30.6454 40.6847 31.1168C40.889 31.5838 41.2826 31.9957 41.832 32.3395L42.0442 32.0004ZM42.411 32.228C42.2881 32.1521 42.1658 32.0766 42.0443 32.0005L41.8319 32.3394C41.9547 32.4164 42.0781 32.4926 42.2009 32.5684L42.411 32.228ZM43.8289 33.1695C43.3744 32.8227 42.8873 32.5221 42.411 32.228L42.2009 32.5684C42.68 32.8642 43.1501 33.1547 43.5862 33.4875L43.8289 33.1695ZM44.32 34.7684C44.4642 34.435 44.4677 34.1227 44.363 33.8438C44.2604 33.5706 44.0609 33.3471 43.8291 33.1697L43.586 33.4873C43.7805 33.6361 43.9206 33.8035 43.9885 33.9844C44.0542 34.1595 44.059 34.3643 43.9529 34.6095L44.32 34.7684ZM42.7154 35.5716C43.4029 35.6729 44.0632 35.362 44.32 34.7684L43.9528 34.6096C43.7808 35.0074 43.3162 35.2558 42.7737 35.1759L42.7154 35.5716ZM40.9862 34.0068C41.1239 34.4091 41.3206 34.767 41.6046 35.0423C41.8909 35.3198 42.2568 35.5043 42.7155 35.5716L42.7735 35.1758C42.3937 35.1201 42.1061 34.9713 41.883 34.7551C41.6575 34.5365 41.4888 34.24 41.3646 33.8773L40.9862 34.0068ZM40.823 33.4839C40.8738 33.6556 40.926 33.8324 40.9863 34.0073L41.3645 33.8769C41.3076 33.7118 41.2578 33.5436 41.2066 33.3705L40.823 33.4839ZM40.7581 33.2663C40.78 33.3383 40.8014 33.4106 40.823 33.4839L41.2066 33.3705C41.185 33.2975 41.1632 33.2236 41.1408 33.1499L40.7581 33.2663ZM40.9254 33.4214C40.9509 33.4145 40.9754 33.408 40.9995 33.4017L40.8994 33.0145C40.8733 33.0212 40.8471 33.0282 40.8219 33.035L40.9254 33.4214ZM40.848 33.4419C40.874 33.4351 40.9002 33.4281 40.9254 33.4214L40.8219 33.035C40.7964 33.0418 40.7719 33.0484 40.7479 33.0546L40.848 33.4419ZM40.9979 35.4954V33.2482H40.5979V35.4954H40.9979ZM41.146 35.2917C41.0306 35.2936 40.9153 35.2954 40.7979 35.2954V35.6954C40.919 35.6954 41.0375 35.6935 41.1524 35.6917L41.146 35.2917ZM41.9121 35.3011C41.6561 35.2834 41.4002 35.2876 41.146 35.2917L41.1524 35.6917C41.4096 35.6875 41.6484 35.6838 41.8846 35.7001L41.9121 35.3011ZM42.529 35.374C42.3296 35.3454 42.1212 35.3153 41.912 35.301L41.8847 35.7001C42.0765 35.7132 42.2702 35.7409 42.4721 35.7699L42.529 35.374ZM43.5229 35.4425C43.2075 35.4705 42.8827 35.4248 42.529 35.374L42.4721 35.7699C42.8171 35.8194 43.1887 35.8737 43.5583 35.8409L43.5229 35.4425ZM45.0412 34.2072C44.8033 34.9492 44.2678 35.376 43.5228 35.4425L43.5584 35.8409C44.4672 35.7598 45.1362 35.2209 45.4221 34.3293L45.0412 34.2072ZM44.3902 32.3886C44.7419 32.6565 44.9572 32.9351 45.0599 33.2261C45.162 33.5152 45.1603 33.8371 45.0413 34.207L45.4221 34.3295C45.5625 33.893 45.5736 33.4797 45.4371 33.093C45.3014 32.7084 45.0268 32.3708 44.6325 32.0704L44.3902 32.3886ZM43.6526 31.9046C43.9121 32.0622 44.1607 32.2135 44.39 32.3885L44.6327 32.0705C44.3837 31.8805 44.1167 31.7185 43.8603 31.5627L43.6526 31.9046ZM43.107 31.5599C43.2868 31.6823 43.4724 31.795 43.6526 31.9046L43.8603 31.5627C43.6785 31.4523 43.5019 31.3449 43.3322 31.2293L43.107 31.5599ZM42.8265 31.3729C42.9218 31.4356 43.0152 31.4971 43.1068 31.5597L43.3324 31.2295C43.2375 31.1646 43.1412 31.1012 43.0464 31.0388L42.8265 31.3729ZM41.847 30.6197C42.1382 30.9208 42.4946 31.1544 42.8265 31.3729L43.0464 31.0388C42.7075 30.8157 42.3897 30.6055 42.1345 30.3417L41.847 30.6197ZM42.2561 28.7264C41.8647 28.9073 41.5933 29.206 41.5094 29.5626C41.4246 29.9233 41.5413 30.3033 41.847 30.6197L42.1346 30.3417C41.9074 30.1066 41.8501 29.8614 41.8988 29.6542C41.9485 29.4428 42.1181 29.2309 42.424 29.0895L42.2561 28.7264ZM44.4081 29.6503C44.1918 29.1966 43.8694 28.8658 43.4861 28.6986C43.1002 28.5303 42.6683 28.5352 42.2559 28.7265L42.4242 29.0894C42.7372 28.9442 43.0495 28.9445 43.3261 29.0652C43.6054 29.187 43.864 29.4387 44.047 29.8225L44.4081 29.6503ZM44.6842 30.3134C44.5999 30.0953 44.5126 29.8693 44.4081 29.6502L44.0471 29.8225C44.1439 30.0255 44.2258 30.2371 44.3111 30.4576L44.6842 30.3134ZM44.8033 30.6165C44.7627 30.5166 44.7238 30.4159 44.6842 30.3134L44.3111 30.4576C44.3505 30.5596 44.3906 30.6634 44.4326 30.7669L44.8033 30.6165ZM44.6312 30.4802C44.6092 30.4863 44.5861 30.4927 44.5626 30.4995L44.6733 30.8839C44.6947 30.8777 44.7159 30.8718 44.7382 30.8656L44.6312 30.4802ZM44.6961 30.462C44.6747 30.4681 44.6535 30.474 44.6312 30.4802L44.7382 30.8656C44.7602 30.8595 44.7833 30.8531 44.8068 30.8463L44.6961 30.462Z"/></g><defs><clipPath id="a"><rect width="36" height="36" fill="#fff" transform="translate(24 13)"/></clipPath></defs></svg>