<svg xmlns="http://www.w3.org/2000/svg" enable-background="new 0 0 128 128" viewBox="0 0 128 128"><circle cx="64" cy="64" r="64" fill="#C9C"/><path fill="#333" d="M39.138 44.07v16.599L54.78 44.07h10.988L50.125 59.879l17.157 24.219H56.237L44.186 66.103l-5.048 5.101v12.895h-8.8V44.07H39.138zM89.703 65.317c-.523-3.325-2.486-4.99-5.886-4.99-1.272 0-2.337.295-3.196.874-.861.575-1.563 1.323-2.102 2.24-.543.917-.926 1.934-1.149 3.056-.224 1.123-.337 2.203-.337 3.252 0 1.043.113 2.112.337 3.193.224 1.085.587 2.065 1.093 2.945.504.875 1.186 1.597 2.045 2.16.859.554 1.908.838 3.141.838 1.908 0 3.373-.532 4.4-1.597 1.027-1.069 1.673-2.497 1.934-4.289h7.68c-.521 3.847-2.018 6.792-4.484 8.826-2.465 2.039-5.625 3.057-9.474 3.057-2.206 0-4.202-.364-5.997-1.091-1.794-.732-3.328-1.761-4.598-3.083-1.27-1.328-2.26-2.898-2.971-4.711-.713-1.813-1.064-3.805-1.064-5.97 0-2.245.326-4.321.979-6.25.654-1.929 1.619-3.589 2.889-4.99s2.822-2.492 4.652-3.277c1.832-.785 3.926-1.175 6.279-1.175 1.721 0 3.372.221 4.961.669 1.588.448 3.009 1.128 4.26 2.044 1.252.917 2.271 2.066 3.057 3.452.783 1.381 1.232 2.987 1.344 4.816H89.703zM87.686 51.079h-7.288l-6.165-7.962h6.444l3.476 4.542 3.588-4.542h6.168L87.686 51.079z"/></svg>