<svg xmlns="http://www.w3.org/2000/svg" fill="none" viewBox="0 0 64 64"><path fill="#50D9D7" d="M29.8813 50.9469C26.1543 52.3403 22.1038 52.6259 18.2181 51.7693C14.3325 50.9127 10.7775 48.9504 7.98194 46.119C5.18634 43.2876 3.26941 39.708 2.46227 35.8118C1.65512 31.9156 1.99222 27.869 3.43291 24.1601C4.87361 20.4511 7.3564 17.238 10.5819 14.9082C13.8075 12.5784 17.6381 11.2314 21.6119 11.0295C25.5858 10.8276 29.5332 11.7795 32.9782 13.7704C36.4233 15.7613 39.2189 18.7061 41.0281 22.25C42.3499 24.8391 43.1094 27.6783 43.2569 30.5814C43.4044 33.4846 42.9365 36.3861 41.884 39.0958C40.8315 41.8055 39.218 44.2621 37.1495 46.3044C35.081 48.3468 32.6041 49.9289 29.8813 50.9469V50.9469Z"/><path fill="#93E6E5" d="M43.2781 32.5627C43.3156 31.9382 43.3156 31.3121 43.2781 30.6877H33.9031C33.8193 27.7903 33.2126 24.9319 32.1125 22.2502H41.0281C40.7042 21.6036 40.341 20.9774 39.9406 20.3752H31.2125C29.2556 16.7668 26.5286 13.6333 23.225 11.197C23.0611 11.0708 22.86 11.0024 22.6531 11.0024C22.4463 11.0024 22.2452 11.0708 22.0813 11.197C18.7751 13.6306 16.0476 16.7647 14.0938 20.3752H5.36563C4.96524 20.9774 4.60207 21.6036 4.27813 22.2502H13.2219C12.1121 24.9301 11.4959 27.7885 11.4031 30.6877H2.02813C1.99062 31.3121 1.99062 31.9382 2.02813 32.5627H11.4031C11.487 35.46 12.0936 38.3184 13.1938 41.0002H4.27813C4.60207 41.6467 4.96524 42.2729 5.36563 42.8752H14.0938C16.0476 46.4856 18.7751 49.6197 22.0813 52.0533C22.2452 52.1795 22.4463 52.2479 22.6531 52.2479C22.86 52.2479 23.0611 52.1795 23.225 52.0533C26.5335 49.6222 29.2615 46.4876 31.2125 42.8752H39.9406C40.341 42.2729 40.7042 41.6467 41.0281 41.0002H32.0844C33.1942 38.3202 33.8103 35.4618 33.9031 32.5627H43.2781ZM22.6531 13.1283C25.2238 15.1229 27.3987 17.5808 29.0656 20.3752H16.2406C17.9116 17.5838 20.0859 15.1266 22.6531 13.1283V13.1283ZM22.6531 50.122C20.0859 48.1237 17.9116 45.6665 16.2406 42.8752H29.0656C27.3957 45.6673 25.2212 48.1247 22.6531 50.122V50.122ZM30.0313 41.0002H15.275C14.0563 38.3479 13.3775 35.4798 13.2781 32.5627H32.0281C31.9287 35.4798 31.2499 38.3479 30.0313 41.0002V41.0002ZM13.2781 30.6877C13.3687 27.7725 14.0379 24.9044 15.2469 22.2502H30.0313C31.2499 24.9024 31.9287 27.7706 32.0281 30.6877H13.2781Z"/><path fill="#00BEBD" d="M39.9406 20.375H31.2125C30.0623 18.2008 28.607 16.2025 26.8906 14.4406 27.8275 13.6478 28.8277 12.9329 29.8812 12.3031 34.0111 13.8492 37.5366 16.6782 39.9406 20.375V20.375zM39.9406 42.875C37.5366 46.5718 34.0111 49.4008 29.8812 50.9469 28.8277 50.3171 27.8275 49.6023 26.8906 48.8094 28.607 47.0475 30.0623 45.0492 31.2125 42.875H39.9406zM32.0281 32.5625C31.9375 35.4777 31.2683 38.3458 30.0593 41H20.9562C19.7261 38.349 19.0285 35.4823 18.9031 32.5625H32.0281zM32.0281 30.6875H18.9031C19.0226 27.769 19.7138 24.9023 20.9375 22.25H30.0125C31.2376 24.9009 31.9228 27.7691 32.0281 30.6875V30.6875zM29.0656 20.375H21.9219C22.9111 18.6639 24.1181 17.0882 25.5125 15.6875 26.8797 17.1026 28.0726 18.6763 29.0656 20.375V20.375zM29.0656 42.875C28.0726 44.5737 26.8797 46.1474 25.5125 47.5625 24.1181 46.1618 22.9111 44.5861 21.9219 42.875H29.0656z"/><path fill="#50D9D7" d="M33.9031 32.5625C33.8192 35.4599 33.2126 38.3183 32.1125 41H41.0281C40.7041 41.6466 40.341 42.2728 39.9406 42.875H31.2125C30.0623 45.0492 28.6069 47.0476 26.8906 48.8094C26.4125 48.4063 25.9531 47.9844 25.5125 47.5344C26.8797 46.1193 28.0726 44.5456 29.0656 42.8469H21.9218C21.575 42.2375 21.2468 41.6188 20.9843 40.9719H30.0593C31.2647 38.3263 31.9338 35.4682 32.0281 32.5625H18.9031C18.9031 31.7375 18.9031 31.5125 18.9031 30.6875H32.0281C31.9375 27.7723 31.2683 24.9042 30.0593 22.25H20.9562C21.2468 21.6031 21.575 20.9844 21.8937 20.375H29.0375C28.0444 18.6763 26.8516 17.1026 25.4843 15.6875C25.925 15.2375 26.4218 14.8156 26.8625 14.4125C28.5909 16.1811 30.0559 18.1892 31.2125 20.375H39.9406C40.341 20.9773 40.7041 21.6034 41.0281 22.25H32.0843C33.1941 24.9299 33.8103 27.7884 33.9031 30.6875H43.2781C43.3156 31.3119 43.3156 31.9381 43.2781 32.5625H33.9031Z"/><path fill="#EA9706" d="M41.4031 52.25C52.7939 52.25 62.0281 43.0159 62.0281 31.625C62.0281 20.2341 52.7939 11 41.4031 11C30.0122 11 20.7781 20.2341 20.7781 31.625C20.7781 43.0159 30.0122 52.25 41.4031 52.25Z"/><path fill="#FFAC00" d="M41.4031 48.5C50.7229 48.5 58.2781 40.9448 58.2781 31.625C58.2781 22.3052 50.7229 14.75 41.4031 14.75C32.0833 14.75 24.5281 22.3052 24.5281 31.625C24.5281 40.9448 32.0833 48.5 41.4031 48.5Z"/><g clip-path="url(#a)"><path fill="#fff" fill-rule="evenodd" d="M45.859 28.9844V28.9849V28.9854C45.8588 29.089 45.8586 29.1915 45.8586 29.2925C45.7921 29.2522 45.7274 29.209 45.6631 29.166C45.5224 29.0721 45.3834 28.9793 45.2315 28.9207C44.5648 28.6622 43.8903 28.7025 43.2485 29.0026C42.411 29.394 41.8985 30.1086 41.5599 30.9598C41.278 31.6684 41.2252 32.4112 41.3389 33.1663C41.4209 33.71 41.6011 34.2156 41.9169 34.6615C42.3626 35.2908 42.959 35.6575 43.7203 35.724C44.4475 35.7874 45.0772 35.5665 45.6001 35.0387C45.6577 34.9806 45.7102 34.9169 45.7686 34.846L45.7686 34.846L45.7687 34.8459C45.7977 34.8106 45.8282 34.7736 45.8615 34.7347V35.7996C45.8696 35.7989 45.8759 35.7988 45.881 35.7986C45.889 35.7984 45.8938 35.7982 45.8978 35.7964C46.5819 35.4764 47.278 35.1895 48.0037 34.9835C48.0286 34.9763 48.0584 34.9389 48.0625 34.9118C48.0686 34.8702 48.0674 34.8273 48.0662 34.7811V34.7811V34.7811V34.7811C48.0657 34.7613 48.0651 34.741 48.0651 34.72L47.976 34.7201H47.9759C47.9113 34.7203 47.8507 34.7204 47.7902 34.7197L47.7716 34.7195H47.7716C47.6851 34.7183 47.5987 34.7172 47.5123 34.713C47.2264 34.6988 47.0954 34.5617 47.0876 34.2706C47.0866 34.2316 47.0866 34.1923 47.0867 34.1532L47.0867 34.1338L47.0868 33.2036V33.2017V33.2016C47.0871 32.505 47.0873 31.8083 47.0864 31.1116C47.0859 30.5817 47.0846 30.052 47.0834 29.5222C47.0819 28.8792 47.0804 28.2362 47.0801 27.5933C47.08 27.1473 47.0818 26.7012 47.0837 26.2552L47.0837 26.2546C47.0847 26.0091 47.0857 25.7636 47.0864 25.5181C47.0866 25.4891 47.0849 25.4601 47.083 25.427V25.427V25.427L47.083 25.4269L47.0829 25.4267C47.082 25.4105 47.081 25.3934 47.0801 25.3748C47.0566 25.3823 47.0349 25.3888 47.0144 25.3949L47.0144 25.3949L47.0144 25.3949L47.0144 25.3949C46.9742 25.4069 46.9389 25.4175 46.9048 25.431C46.3232 25.6617 45.7215 25.8242 45.1186 25.9819C44.8862 26.0429 44.8862 26.0431 44.9067 26.2949C44.9072 26.2996 44.9102 26.304 44.914 26.3096C44.916 26.3127 44.9183 26.3161 44.9205 26.3201C44.9716 26.323 45.0229 26.3261 45.0744 26.3292L45.0744 26.3292L45.0745 26.3292L45.0745 26.3292C45.1861 26.3359 45.2985 26.3427 45.411 26.3477C45.7505 26.3624 45.8037 26.4139 45.8364 26.7657C45.8378 26.7824 45.8381 26.7988 45.8383 26.8155L45.8445 27.2317V27.2318V27.2319C45.8497 27.5694 45.8548 27.907 45.8579 28.2444C45.8601 28.493 45.8596 28.7416 45.859 28.9844ZM45.8602 32.015C45.8599 32.1491 45.8596 32.2833 45.8596 32.4174C45.8596 32.5567 45.8585 32.6961 45.8573 32.8354C45.8548 33.1483 45.8523 33.461 45.8625 33.7735C45.883 34.4095 45.3 34.9531 44.7452 34.9912C44.3043 35.0213 43.8963 34.9454 43.5321 34.6762C43.2371 34.4582 43.0272 34.1669 42.8712 33.8354C42.6782 33.4256 42.5805 32.9882 42.5425 32.5351C42.4963 31.983 42.5053 31.4351 42.6451 30.8961C42.7645 30.4345 42.9549 30.0116 43.2772 29.6577C43.878 28.9981 45.0842 29.0648 45.5515 29.8518C45.7761 30.2303 45.8545 30.6498 45.8586 31.0865C45.8615 31.396 45.8608 31.7055 45.8602 32.015ZM35.7546 30.7827C35.756 30.7766 35.7579 30.7686 35.7602 30.7575H35.8828C36.0405 30.7574 36.1982 30.7567 36.356 30.7559H36.356H36.356C36.7383 30.754 37.1207 30.7522 37.5029 30.7603C37.7914 30.7665 38.084 30.7817 38.3662 30.8381C38.8852 30.9421 39.2826 31.2176 39.4182 31.7827C39.4412 31.878 39.4541 31.9757 39.4673 32.0756C39.4734 32.122 39.4796 32.1688 39.4869 32.2161H39.7827V28.6868H39.4799C39.4766 28.7181 39.4736 28.7484 39.4708 28.778L39.4707 28.778C39.4653 28.8342 39.4601 28.888 39.4528 28.9414C39.3928 29.3778 39.1846 29.7008 38.7868 29.8911C38.4693 30.0432 38.1336 30.0999 37.7909 30.1049C37.3203 30.1117 36.8496 30.1105 36.3789 30.1093C36.1967 30.1088 36.0145 30.1083 35.8323 30.1083C35.8168 30.1083 35.8014 30.1069 35.7839 30.1053C35.7749 30.1045 35.7653 30.1036 35.7549 30.1029C35.7542 30.0871 35.7534 30.072 35.7526 30.0573C35.751 30.0292 35.7495 30.0027 35.7495 29.9762C35.7491 28.9687 35.7491 27.9615 35.7493 26.9541C35.7495 26.5666 35.9159 26.383 36.2913 26.3554C36.3289 26.3526 36.3667 26.3529 36.4044 26.3533L36.4243 26.3534C36.6338 26.3547 36.8433 26.3558 37.0527 26.357C37.6812 26.3604 38.3097 26.3638 38.9382 26.3718C39.1955 26.3753 39.4555 26.3945 39.6901 26.5194C40.0286 26.6995 40.2008 27.012 40.2978 27.3751C40.3275 27.4863 40.3501 27.5995 40.3723 27.7105L40.3723 27.7105L40.3724 27.7106L40.3724 27.7107C40.3824 27.7607 40.3923 27.8102 40.4028 27.859H40.7317V25.7122H33.0037C33.0037 25.7299 33.0042 25.7469 33.0048 25.7635C33.0059 25.799 33.007 25.8324 33.0025 25.865C32.9892 25.964 33.032 25.9953 33.1229 25.9981C33.2185 26.0008 33.3137 26.0117 33.4088 26.0225L33.4088 26.0225L33.4593 26.0282C33.9863 26.0872 34.278 26.4191 34.278 26.9595V34.3721C34.278 34.8494 34.0584 35.1487 33.6083 35.2572C33.4758 35.2892 33.34 35.3063 33.2028 35.3236L33.2028 35.3236C33.1396 35.3315 33.0762 35.3395 33.0127 35.349V35.6021H37.048V35.3333C37.0091 35.3308 36.9711 35.329 36.9336 35.3272C36.8501 35.3232 36.7695 35.3193 36.6901 35.3079C36.5752 35.2915 36.4601 35.2679 36.3491 35.2333C35.9897 35.1211 35.7556 34.8509 35.7541 34.5212C35.7502 33.6119 35.7506 32.7028 35.751 31.7937V31.7937V31.7936C35.7512 31.463 35.7513 31.1324 35.7512 30.8018C35.7512 30.7968 35.7524 30.792 35.7546 30.7827ZM48.9563 29.7585C48.922 29.5696 48.9251 29.5654 49.0845 29.5102C49.5969 29.3325 50.1092 29.1545 50.6265 28.9748L51.2306 28.765C51.2315 28.7822 51.2327 28.7981 51.2338 28.8133L51.2338 28.8134C51.2358 28.8409 51.2376 28.8659 51.2376 28.8909L51.2374 30.4824C51.2372 32.1783 51.2371 33.8743 51.2347 35.5704C51.2337 36.2408 51.1636 36.8999 50.8954 37.5224C50.537 38.3547 49.9104 38.7966 49.0352 38.8626C48.6613 38.8907 48.2879 38.8832 47.9353 38.7118C47.5619 38.5304 47.3749 38.203 47.4552 37.8369C47.5053 37.6085 47.6586 37.4702 47.8647 37.4052C48.0833 37.3363 48.285 37.3766 48.4465 37.564L48.4824 37.6057C48.6279 37.7748 48.7736 37.9443 48.9312 38.1007C49.025 38.1937 49.1406 38.2706 49.2579 38.3306C49.4934 38.4515 49.7109 38.3851 49.8262 38.1405C49.9 37.984 49.9457 37.8061 49.9684 37.6329C49.9999 37.3958 50.0071 37.1539 50.0081 36.9141C50.0134 35.7157 50.0144 34.5174 50.0148 33.3191C50.0151 32.3699 50.0132 31.4206 50.009 30.4714C50.0086 30.3572 49.9941 30.2426 49.9797 30.1288L49.9796 30.1287L49.9762 30.1011C49.9363 29.7849 49.76 29.7291 49.5297 29.7159C49.4191 29.7095 49.3073 29.7218 49.1955 29.734C49.1465 29.7394 49.0976 29.7447 49.0487 29.7485C49.0283 29.75 49.0081 29.7524 48.988 29.7548L48.9563 29.7585ZM50.5924 26.8886C50.9936 26.8866 51.3225 26.5482 51.3218 26.1387C51.3223 25.6866 50.9452 25.3601 50.5801 25.3763C50.1825 25.3942 49.8553 25.7207 49.8555 26.1327C49.856 26.5515 50.1866 26.8906 50.5924 26.8886Z" clip-rule="evenodd"/><path fill="#fff" d="M45.859 28.9844L45.659 28.9839V28.9844H45.859ZM45.859 28.9854L46.059 28.9859V28.9854H45.859ZM45.8586 29.2925L45.755 29.4635L46.0586 29.6475V29.2925H45.8586ZM45.6631 29.166L45.7741 28.9997L45.7741 28.9997L45.6631 29.166ZM45.2315 28.9207L45.1592 29.1072L45.1596 29.1073L45.2315 28.9207ZM43.2485 29.0026L43.3331 29.1838L43.3332 29.1838L43.2485 29.0026ZM41.5599 30.9598L41.7458 31.0338L41.7458 31.0337L41.5599 30.9598ZM41.3389 33.1663L41.1411 33.1961L41.1411 33.1962L41.3389 33.1663ZM41.9169 34.6615L42.0801 34.5459L42.0801 34.5459L41.9169 34.6615ZM43.7203 35.724L43.7029 35.9232L43.7029 35.9232L43.7203 35.724ZM45.6001 35.0387L45.4581 34.8979L45.458 34.898L45.6001 35.0387ZM45.7686 34.846L45.923 34.9732L45.923 34.9731L45.7686 34.846ZM45.7686 34.846L45.923 34.9731L45.9232 34.9729L45.7686 34.846ZM45.7687 34.8459L45.6143 34.7187L45.6142 34.7189L45.7687 34.8459ZM45.8615 34.7347H46.0615V34.1928L45.7095 34.6047L45.8615 34.7347ZM45.8615 35.7996H45.6615V36.0168L45.878 35.9989L45.8615 35.7996ZM45.881 35.7986L45.8749 35.5987L45.8749 35.5987L45.881 35.7986ZM45.8978 35.7964L45.9809 35.9783L45.9825 35.9775L45.8978 35.7964ZM48.0037 34.9835L48.0583 35.1759L48.0594 35.1756L48.0037 34.9835ZM48.0625 34.9118L48.2602 34.9418L48.2604 34.9408L48.0625 34.9118ZM48.0662 34.7811H47.8661L47.8663 34.7864L48.0662 34.7811ZM48.0662 34.7811H48.2663L48.2661 34.7757L48.0662 34.7811ZM48.0651 34.72H48.2651V34.5197L48.0648 34.52L48.0651 34.72ZM47.976 34.7201L47.976 34.9201L47.9763 34.9201L47.976 34.7201ZM47.9759 34.7201L47.9759 34.5201L47.9755 34.5201L47.9759 34.7201ZM47.7902 34.7197L47.7875 34.9197L47.7879 34.9197L47.7902 34.7197ZM47.7716 34.7195L47.7743 34.5195H47.7716V34.7195ZM47.7716 34.7195L47.7689 34.9195H47.7716V34.7195ZM47.5123 34.713L47.5024 34.9128L47.5026 34.9128L47.5123 34.713ZM47.0876 34.2706L46.8877 34.2759L46.8877 34.2759L47.0876 34.2706ZM47.0867 34.1532L47.2867 34.1534L47.2867 34.1533L47.0867 34.1532ZM47.0867 34.1338L47.2867 34.1339L47.2867 34.1338L47.0867 34.1338ZM47.0868 33.2036L47.2868 33.2036V33.2036H47.0868ZM47.0868 33.2016L46.8868 33.2016V33.2016H47.0868ZM47.0864 31.1116L46.8864 31.1118L46.8864 31.1118L47.0864 31.1116ZM47.0834 29.5222L47.2834 29.5217L47.2834 29.5217L47.0834 29.5222ZM47.0801 27.5933L46.8801 27.5933L46.8801 27.5934L47.0801 27.5933ZM47.0837 26.2552L46.8837 26.2543L46.8837 26.2544L47.0837 26.2552ZM47.0837 26.2546L47.2837 26.2555L47.2837 26.2554L47.0837 26.2546ZM47.0864 25.5181L46.8864 25.517L46.8864 25.5175L47.0864 25.5181ZM47.083 25.427H46.8826L46.8833 25.4387L47.083 25.427ZM47.083 25.427H47.2834L47.2826 25.4144L47.083 25.427ZM47.083 25.4269L46.8833 25.4384L46.8834 25.4395L47.083 25.4269ZM47.0829 25.4267L47.2826 25.4151L47.2826 25.415L47.0829 25.4267ZM47.0801 25.3748L47.2799 25.3655L47.2678 25.1053L47.0195 25.1842L47.0801 25.3748ZM47.0144 25.3949L46.9569 25.2029L46.9442 25.2076L47.0144 25.3949ZM47.0144 25.3949L47.052 25.5913L47.0687 25.5881L47.0847 25.5822L47.0144 25.3949ZM47.0144 25.3949L46.9768 25.1985L46.9677 25.2002L46.9587 25.2028L47.0144 25.3949ZM47.0144 25.3949L46.9587 25.2028L46.9571 25.2033L47.0144 25.3949ZM46.9048 25.431L46.8312 25.2451L46.8311 25.2451L46.9048 25.431ZM45.1186 25.9819L45.068 25.7884L45.0678 25.7885L45.1186 25.9819ZM44.9067 26.2949L44.7074 26.3112L44.7077 26.3149L44.9067 26.2949ZM44.914 26.3096L44.7479 26.4212L44.748 26.4212L44.914 26.3096ZM44.9205 26.3201L44.7461 26.418L44.7998 26.5135L44.9092 26.5197L44.9205 26.3201ZM45.0744 26.3292L45.0869 26.1296L45.0865 26.1295L45.0744 26.3292ZM45.0745 26.3292L45.062 26.5288L45.0624 26.5288L45.0745 26.3292ZM45.411 26.3477L45.4022 26.5475L45.4023 26.5475L45.411 26.3477ZM45.8364 26.7657L46.0356 26.7484L46.0355 26.7472L45.8364 26.7657ZM45.8383 26.8155L45.6383 26.8184L45.6383 26.8184L45.8383 26.8155ZM45.8445 27.2317H46.0445L46.0445 27.2287L45.8445 27.2317ZM45.8445 27.2319H45.6445L45.6445 27.2349L45.8445 27.2319ZM45.8579 28.2444L46.0579 28.2427L46.0579 28.2426L45.8579 28.2444ZM45.8602 32.015L45.6602 32.0146L45.6602 32.0146L45.8602 32.015ZM45.8573 32.8354L46.0573 32.8371L46.0573 32.8371L45.8573 32.8354ZM45.8625 33.7735L46.0624 33.767L46.0624 33.7669L45.8625 33.7735ZM44.7452 34.9912L44.7588 35.1907L44.7589 35.1907L44.7452 34.9912ZM43.5321 34.6762L43.651 34.5154L43.651 34.5153L43.5321 34.6762ZM42.8712 33.8354L43.0521 33.7503L43.0521 33.7502L42.8712 33.8354ZM42.5425 32.5351L42.3432 32.5518L42.3432 32.5518L42.5425 32.5351ZM42.6451 30.8961L42.8387 30.9463L42.8387 30.9462L42.6451 30.8961ZM43.2772 29.6577L43.4251 29.7924L43.4251 29.7924L43.2772 29.6577ZM45.5515 29.8518L45.7235 29.7497L45.7235 29.7497L45.5515 29.8518ZM45.8586 31.0865L46.0586 31.0846L46.0586 31.0846L45.8586 31.0865ZM35.7602 30.7575V30.5575H35.5973L35.5643 30.7171L35.7602 30.7575ZM35.7546 30.7827L35.5599 30.7368L35.5599 30.7368L35.7546 30.7827ZM35.8828 30.7575L35.8828 30.9575L35.8829 30.9575L35.8828 30.7575ZM36.356 30.7559V30.5559L36.355 30.5559L36.356 30.7559ZM36.356 30.7559V30.9559L36.357 30.9559L36.356 30.7559ZM37.5029 30.7603L37.5072 30.5603L37.5071 30.5603L37.5029 30.7603ZM38.3662 30.8381L38.4055 30.642L38.4055 30.642L38.3662 30.8381ZM39.4182 31.7827L39.2238 31.8294L39.2238 31.8295L39.4182 31.7827ZM39.4673 32.0756L39.6656 32.0493L39.6656 32.0493L39.4673 32.0756ZM39.4869 32.2161L39.2892 32.2466L39.3154 32.4161H39.4869V32.2161ZM39.7827 32.2161V32.4161H39.9827V32.2161H39.7827ZM39.7827 28.6868H39.9827V28.4868H39.7827V28.6868ZM39.4799 28.6868V28.4868H39.3001L39.281 28.6656L39.4799 28.6868ZM39.4708 28.778L39.6698 28.7979L39.6698 28.7973L39.4708 28.778ZM39.4707 28.778L39.2717 28.7581L39.2717 28.7588L39.4707 28.778ZM39.4528 28.9414L39.651 28.9686L39.651 28.9684L39.4528 28.9414ZM38.7868 29.8911L38.7005 29.7107L38.7004 29.7107L38.7868 29.8911ZM37.7909 30.1049L37.7938 30.3048L37.7938 30.3048L37.7909 30.1049ZM36.3789 30.1093L36.3794 29.9093L36.3794 29.9093L36.3789 30.1093ZM35.7839 30.1053L35.8022 29.9062L35.8022 29.9062L35.7839 30.1053ZM35.7549 30.1029L35.555 30.1113L35.5625 30.2894L35.7403 30.3023L35.7549 30.1029ZM35.7526 30.0573L35.9523 30.0463L35.9523 30.0463L35.7526 30.0573ZM35.7495 29.9762L35.9495 29.9762L35.9495 29.9761L35.7495 29.9762ZM35.7493 26.9541L35.5493 26.9539L35.5493 26.954L35.7493 26.9541ZM36.2913 26.3554L36.2767 26.1559L36.2766 26.1559L36.2913 26.3554ZM36.4044 26.3533L36.4028 26.5532L36.4029 26.5532L36.4044 26.3533ZM36.4243 26.3534L36.4228 26.5534L36.423 26.5534L36.4243 26.3534ZM37.0527 26.357L37.0538 26.157L37.0538 26.157L37.0527 26.357ZM38.9382 26.3718L38.9409 26.1718L38.9407 26.1718L38.9382 26.3718ZM39.6901 26.5194L39.5961 26.6959L39.5961 26.6959L39.6901 26.5194ZM40.2978 27.3751L40.491 27.3235L40.491 27.3234L40.2978 27.3751ZM40.3723 27.7105L40.5697 27.6776L40.5684 27.6712L40.3723 27.7105ZM40.3723 27.7105L40.1749 27.7434L40.1764 27.7506L40.3723 27.7105ZM40.3724 27.7106L40.5683 27.6707L40.5683 27.6705L40.3724 27.7106ZM40.3724 27.7107L40.5685 27.6714L40.5684 27.6708L40.3724 27.7107ZM40.4028 27.859L40.2072 27.9009L40.241 28.059H40.4028V27.859ZM40.7317 27.859V28.059H40.9317V27.859H40.7317ZM40.7317 25.7122H40.9317V25.5122H40.7317V25.7122ZM33.0037 25.7122V25.5122H32.8037V25.7122H33.0037ZM33.0048 25.7635L33.2047 25.7572L33.0048 25.7635ZM33.0025 25.865L32.8043 25.8379L32.8043 25.8383L33.0025 25.865ZM33.1229 25.9981L33.1169 26.198L33.1172 26.198L33.1229 25.9981ZM33.4088 26.0225L33.3862 26.2212L33.3889 26.2215L33.4088 26.0225ZM33.4088 26.0225L33.4313 25.8237L33.4287 25.8235L33.4088 26.0225ZM33.4593 26.0282L33.4369 26.2269L33.4371 26.2269L33.4593 26.0282ZM33.6083 35.2572L33.5614 35.0628L33.5613 35.0628L33.6083 35.2572ZM33.2028 35.3236L33.1778 35.1251L33.1734 35.1258L33.2028 35.3236ZM33.2028 35.3236L33.2278 35.5221L33.2322 35.5214L33.2028 35.3236ZM33.0127 35.349L32.9831 35.1512L32.8127 35.1767V35.349H33.0127ZM33.0127 35.6021H32.8127V35.8021H33.0127V35.6021ZM37.048 35.6021V35.8021H37.248V35.6021H37.048ZM37.048 35.3333H37.248V35.146L37.061 35.1338L37.048 35.3333ZM36.9336 35.3272L36.9241 35.5269L36.9241 35.5269L36.9336 35.3272ZM36.6901 35.3079L36.6617 35.5059L36.6618 35.5059L36.6901 35.3079ZM36.3491 35.2333L36.2894 35.4242L36.2896 35.4242L36.3491 35.2333ZM35.7541 34.5212L35.5541 34.522L35.5541 34.5221L35.7541 34.5212ZM35.751 31.7937L35.951 31.7938V31.7937H35.751ZM35.751 31.7936L35.551 31.7936V31.7936H35.751ZM35.7512 30.8018L35.5512 30.8018L35.5512 30.8018L35.7512 30.8018ZM49.0845 29.5102L49.15 29.6991L49.15 29.6991L49.0845 29.5102ZM48.9563 29.7585L48.7595 29.7943L48.7931 29.9787L48.9792 29.9572L48.9563 29.7585ZM50.6265 28.9748L50.5609 28.7859L50.5609 28.7859L50.6265 28.9748ZM51.2306 28.765L51.4303 28.754L51.4158 28.4889L51.1649 28.576L51.2306 28.765ZM51.2338 28.8133L51.4333 28.7991L51.4332 28.7988L51.2338 28.8133ZM51.2338 28.8134L51.0343 28.8276L51.0343 28.8279L51.2338 28.8134ZM51.2376 28.8909L51.4376 28.8909V28.8909H51.2376ZM51.2374 30.4824L51.0374 30.4824L51.0374 30.4824L51.2374 30.4824ZM51.2347 35.5704L51.4347 35.5707L51.4347 35.5707L51.2347 35.5704ZM50.8954 37.5224L50.7117 37.4433L50.7117 37.4433L50.8954 37.5224ZM49.0352 38.8626L49.0502 39.062L49.0502 39.062L49.0352 38.8626ZM47.9353 38.7118L48.0227 38.5319L48.0227 38.5319L47.9353 38.7118ZM47.4552 37.8369L47.6506 37.8798L47.6506 37.8798L47.4552 37.8369ZM47.8647 37.4052L47.9248 37.596L47.9248 37.596L47.8647 37.4052ZM48.4465 37.564L48.5981 37.4336L48.598 37.4334L48.4465 37.564ZM48.4824 37.6057L48.634 37.4753L48.634 37.4753L48.4824 37.6057ZM48.9312 38.1007L48.7903 38.2427L48.7903 38.2427L48.9312 38.1007ZM49.2579 38.3306L49.3492 38.1527L49.3489 38.1525L49.2579 38.3306ZM49.8262 38.1405L50.0071 38.2258L50.0071 38.2258L49.8262 38.1405ZM49.9684 37.6329L49.7702 37.6066L49.7701 37.6069L49.9684 37.6329ZM50.0081 36.9141L49.8081 36.9132L49.8081 36.9133L50.0081 36.9141ZM50.0148 33.3191L50.2148 33.3192L50.2148 33.3192L50.0148 33.3191ZM50.009 30.4714L49.809 30.4721L49.809 30.4722L50.009 30.4714ZM49.9797 30.1288L50.1781 30.1036L50.1776 30.1005L49.9797 30.1288ZM49.9796 30.1287L49.7812 30.1538L49.7817 30.157L49.9796 30.1287ZM49.9762 30.1011L49.7777 30.1262L49.7777 30.1262L49.9762 30.1011ZM49.5297 29.7159L49.5182 29.9156L49.5183 29.9156L49.5297 29.7159ZM49.1955 29.734L49.1737 29.5352L49.1737 29.5352L49.1955 29.734ZM49.0487 29.7485L49.063 29.948L49.0642 29.9479L49.0487 29.7485ZM48.988 29.7548L49.011 29.9535L49.0119 29.9534L48.988 29.7548ZM51.3218 26.1387L51.1218 26.1385L51.1218 26.139L51.3218 26.1387ZM50.5924 26.8886L50.5934 27.0886L50.5934 27.0886L50.5924 26.8886ZM50.5801 25.3763L50.5712 25.1765L50.5711 25.1765L50.5801 25.3763ZM49.8555 26.1327L49.6555 26.1328L49.6555 26.1329L49.8555 26.1327ZM46.059 28.9849V28.9844H45.659V28.9849H46.059ZM46.059 28.9854V28.9849H45.659V28.9854H46.059ZM46.0586 29.2925C46.0586 29.1918 46.0588 29.0895 46.059 28.9859L45.659 28.985C45.6588 29.0885 45.6586 29.1913 45.6586 29.2925H46.0586ZM45.5521 29.3324C45.6158 29.3749 45.6841 29.4206 45.755 29.4635L45.9623 29.1214C45.9002 29.0838 45.8391 29.0431 45.7741 28.9997L45.5521 29.3324ZM45.1596 29.1073C45.2871 29.1565 45.4077 29.236 45.5521 29.3324L45.7741 28.9997C45.637 28.9081 45.4796 28.8021 45.3035 28.7341L45.1596 29.1073ZM43.3332 29.1838C43.9288 28.9053 44.5466 28.8697 45.1592 29.1072L45.3038 28.7343C44.583 28.4547 43.8518 28.4997 43.1637 28.8214L43.3332 29.1838ZM41.7458 31.0337C42.0732 30.2105 42.5577 29.5462 43.3331 29.1838L43.1638 28.8214C42.2642 29.2418 41.7238 30.0067 41.3741 30.8859L41.7458 31.0337ZM41.5367 33.1366C41.4273 32.4101 41.479 31.7041 41.7458 31.0338L41.3741 30.8859C41.0769 31.6328 41.0231 32.4122 41.1411 33.1961L41.5367 33.1366ZM42.0801 34.5459C41.7855 34.13 41.6149 33.6552 41.5367 33.1365L41.1411 33.1962C41.2269 33.7649 41.4166 34.3013 41.7537 34.7771L42.0801 34.5459ZM43.7377 35.5247C43.0396 35.4638 42.4947 35.1312 42.0801 34.5459L41.7537 34.7771C42.2305 35.4503 42.8783 35.8513 43.7029 35.9232L43.7377 35.5247ZM45.458 34.898C44.978 35.3825 44.4071 35.5831 43.7377 35.5247L43.7029 35.9232C44.4878 35.9917 45.1765 35.7505 45.7422 35.1795L45.458 34.898ZM45.6142 34.7188C45.5547 34.7911 45.5081 34.8475 45.4581 34.8979L45.7421 35.1795C45.8074 35.1137 45.8657 35.0426 45.923 34.9732L45.6142 34.7188ZM45.6142 34.7188L45.6142 34.7189L45.923 34.9731L45.923 34.9731L45.6142 34.7188ZM45.6142 34.7189L45.6141 34.719L45.9232 34.9729L45.9232 34.9728L45.6142 34.7189ZM45.7095 34.6047C45.6748 34.6453 45.6432 34.6836 45.6143 34.7187L45.9231 34.973C45.9522 34.9377 45.9816 34.902 46.0136 34.8646L45.7095 34.6047ZM46.0615 35.7996V34.7347H45.6615V35.7996H46.0615ZM45.8749 35.5987C45.8694 35.5989 45.8587 35.5992 45.845 35.6003L45.878 35.9989C45.8806 35.9987 45.8824 35.9986 45.887 35.9985L45.8749 35.5987ZM45.8146 35.6145C45.8392 35.6033 45.8601 35.6003 45.8691 35.5993C45.8736 35.5988 45.8767 35.5986 45.8771 35.5986C45.8774 35.5986 45.8773 35.5986 45.8749 35.5987L45.887 35.9985C45.8883 35.9985 45.9004 35.9982 45.9126 35.9969C45.927 35.9953 45.9524 35.9913 45.9809 35.9783L45.8146 35.6145ZM47.9491 34.7911C47.2091 35.0012 46.5024 35.2928 45.8131 35.6152L45.9825 35.9775C46.6615 35.66 47.3468 35.3779 48.0583 35.1759L47.9491 34.7911ZM47.8647 34.8818C47.8678 34.8618 47.8739 34.8486 47.8766 34.8432C47.8798 34.8368 47.8829 34.8324 47.8857 34.829C47.8883 34.8258 47.8928 34.8208 47.9001 34.8151C47.9064 34.8103 47.9224 34.7988 47.9481 34.7914L48.0594 35.1756C48.1287 35.1555 48.1742 35.1082 48.1961 35.0812C48.2198 35.0521 48.2509 35.0035 48.2602 34.9418L47.8647 34.8818ZM47.8663 34.7864C47.8676 34.8361 47.8678 34.8613 47.8646 34.8828L48.2604 34.9408C48.2694 34.879 48.2673 34.8184 48.2661 34.7758L47.8663 34.7864ZM47.8662 34.7811V34.7811H48.2662V34.7811H47.8662ZM47.8662 34.7811V34.7811H48.2662V34.7811H47.8662ZM47.8662 34.7811V34.7811H48.2662V34.7811H47.8662ZM47.8651 34.72C47.8651 34.7441 47.8658 34.767 47.8663 34.7864L48.2661 34.7757C48.2656 34.7557 48.2651 34.738 48.2651 34.72H47.8651ZM47.9763 34.9201L48.0655 34.92L48.0648 34.52L47.9757 34.5201L47.9763 34.9201ZM47.9759 34.9201H47.976V34.5201H47.9759V34.9201ZM47.7879 34.9197C47.8501 34.9204 47.912 34.9203 47.9764 34.9201L47.9755 34.5201C47.9106 34.5203 47.8514 34.5204 47.7924 34.5197L47.7879 34.9197ZM47.769 34.9195L47.7875 34.9197L47.7928 34.5198L47.7743 34.5195L47.769 34.9195ZM47.7716 34.9195H47.7716V34.5195H47.7716V34.9195ZM47.5026 34.9128C47.5931 34.9172 47.6831 34.9183 47.7689 34.9195L47.7742 34.5195C47.6872 34.5184 47.6043 34.5172 47.522 34.5133L47.5026 34.9128ZM46.8877 34.2759C46.8923 34.4472 46.9338 34.6115 47.0513 34.7341C47.1696 34.8574 47.3319 34.9043 47.5024 34.9128L47.5222 34.5133C47.4069 34.5075 47.3607 34.4788 47.34 34.4572C47.3186 34.4349 47.2907 34.3851 47.2876 34.2653L46.8877 34.2759ZM46.8867 34.1531C46.8866 34.1917 46.8866 34.2337 46.8877 34.2759L47.2876 34.2653C47.2866 34.2294 47.2866 34.193 47.2867 34.1534L46.8867 34.1531ZM46.8867 34.1337L46.8867 34.1532L47.2867 34.1533L47.2867 34.1339L46.8867 34.1337ZM46.8868 33.2036L46.8867 34.1337L47.2867 34.1338L47.2868 33.2036L46.8868 33.2036ZM46.8868 33.2017V33.2036H47.2868V33.2017H46.8868ZM46.8868 33.2016V33.2017H47.2868V33.2016H46.8868ZM46.8864 31.1118C46.8873 31.8084 46.8871 32.5049 46.8868 33.2016L47.2868 33.2017C47.2871 32.5051 47.2873 31.8083 47.2864 31.1113L46.8864 31.1118ZM46.8834 29.5227C46.8846 30.0524 46.8859 30.5821 46.8864 31.1118L47.2864 31.1114C47.2859 30.5814 47.2846 30.0515 47.2834 29.5217L46.8834 29.5227ZM46.8801 27.5934C46.8804 28.2365 46.8819 28.8797 46.8834 29.5227L47.2834 29.5217C47.2819 28.8787 47.2804 28.2359 47.2801 27.5932L46.8801 27.5934ZM46.8837 26.2544C46.8818 26.7003 46.88 27.1468 46.8801 27.5933L47.2801 27.5932C47.28 27.1477 47.2818 26.7022 47.2837 26.2561L46.8837 26.2544ZM46.8837 26.2537L46.8837 26.2543L47.2837 26.2561L47.2837 26.2555L46.8837 26.2537ZM46.8864 25.5175C46.8857 25.7629 46.8847 26.0082 46.8837 26.2538L47.2837 26.2554C47.2847 26.01 47.2857 25.7643 47.2864 25.5187L46.8864 25.5175ZM46.8833 25.4387C46.8853 25.4731 46.8865 25.4955 46.8864 25.517L47.2864 25.5192C47.2866 25.4827 47.2845 25.4472 47.2826 25.4154L46.8833 25.4387ZM46.883 25.427V25.427H47.283V25.427H46.883ZM46.883 25.427V25.427H47.283V25.427H46.883ZM46.8834 25.4395L46.8834 25.4396L47.2826 25.4144L47.2826 25.4143L46.8834 25.4395ZM46.8833 25.4382L46.8833 25.4384L47.2826 25.4153L47.2826 25.4151L46.8833 25.4382ZM46.8804 25.3841C46.8813 25.404 46.8824 25.4223 46.8833 25.4383L47.2826 25.415C47.2817 25.3988 47.2807 25.3828 47.2799 25.3655L46.8804 25.3841ZM47.0718 25.5865C47.0921 25.5804 47.1154 25.5734 47.1407 25.5654L47.0195 25.1842C46.9979 25.1911 46.9777 25.1971 46.9571 25.2033L47.0718 25.5865ZM47.0847 25.5822L47.0847 25.5822L46.9442 25.2076L46.9442 25.2076L47.0847 25.5822ZM47.052 25.5913L47.052 25.5913L46.9768 25.1985L46.9768 25.1985L47.052 25.5913ZM47.0702 25.587L47.0702 25.587L46.9587 25.2028L46.9587 25.2028L47.0702 25.587ZM46.9785 25.617C47.0031 25.6072 47.0299 25.599 47.0718 25.5865L46.9571 25.2033C46.9186 25.2148 46.8747 25.2278 46.8312 25.2451L46.9785 25.617ZM45.1692 26.1754C45.7716 26.0178 46.3842 25.8526 46.9785 25.6169L46.8311 25.2451C46.2621 25.4707 45.6713 25.6305 45.068 25.7884L45.1692 26.1754ZM45.1061 26.2787C45.1006 26.2113 45.098 26.1762 45.0984 26.1524C45.0989 26.129 45.1027 26.1504 45.0835 26.1789C45.0631 26.209 45.0393 26.2144 45.0568 26.2076C45.0646 26.2046 45.0769 26.2005 45.0968 26.1949C45.1165 26.1892 45.1397 26.1831 45.1693 26.1754L45.0678 25.7885C45.0143 25.8025 44.9577 25.817 44.9123 25.8346C44.8651 25.8529 44.799 25.8855 44.7521 25.9548C44.7064 26.0224 44.6995 26.095 44.6985 26.1443C44.6975 26.1933 44.7026 26.2526 44.7074 26.3112L45.1061 26.2787ZM45.08 26.1981C45.0765 26.193 45.0811 26.1995 45.0856 26.2079C45.0908 26.2176 45.1024 26.2414 45.1057 26.2749L44.7077 26.3149C44.7116 26.3531 44.7249 26.3815 44.7326 26.396C44.7396 26.4092 44.7476 26.4207 44.7479 26.4212L45.08 26.1981ZM45.0949 26.2221C45.0882 26.2103 45.0817 26.2007 45.0799 26.1981L44.748 26.4212C44.7503 26.4247 44.7483 26.4219 44.7461 26.418L45.0949 26.2221ZM45.0865 26.1295C45.0351 26.1264 44.9834 26.1233 44.9319 26.1204L44.9092 26.5197C44.9598 26.5226 45.0108 26.5257 45.0624 26.5288L45.0865 26.1295ZM45.0869 26.1296L45.0869 26.1296L45.062 26.5288L45.062 26.5288L45.0869 26.1296ZM45.0869 26.1296L45.0869 26.1296L45.062 26.5288L45.062 26.5288L45.0869 26.1296ZM45.087 26.1296L45.0869 26.1296L45.062 26.5288L45.062 26.5288L45.087 26.1296ZM45.4197 26.1479C45.3092 26.143 45.1984 26.1363 45.0866 26.1296L45.0624 26.5288C45.1737 26.5356 45.2878 26.5425 45.4022 26.5475L45.4197 26.1479ZM46.0355 26.7472C46.0272 26.6575 46.0166 26.5737 45.9968 26.5014C45.9765 26.427 45.9429 26.3503 45.8788 26.2875C45.8142 26.2241 45.7366 26.1924 45.6614 26.1749C45.589 26.1581 45.5063 26.1516 45.4196 26.1479L45.4023 26.5475C45.4854 26.5511 45.5367 26.5566 45.5708 26.5645C45.602 26.5718 45.6035 26.5778 45.5987 26.573C45.5944 26.5688 45.6014 26.5719 45.6109 26.6067C45.6209 26.6434 45.6292 26.6979 45.6372 26.7842L46.0355 26.7472ZM46.0383 26.8126C46.038 26.797 46.0378 26.7734 46.0356 26.7484L45.6371 26.783C45.6378 26.7913 45.6381 26.8006 45.6383 26.8184L46.0383 26.8126ZM46.0445 27.2287L46.0383 26.8125L45.6383 26.8184L45.6445 27.2347L46.0445 27.2287ZM46.0445 27.2318V27.2317H45.6445V27.2318H46.0445ZM46.0445 27.2319V27.2318H45.6445V27.2319H46.0445ZM46.0579 28.2426C46.0548 27.9044 46.0496 27.5662 46.0445 27.2288L45.6445 27.2349C45.6497 27.5725 45.6548 27.9095 45.6579 28.2463L46.0579 28.2426ZM46.059 28.9848C46.0596 28.7422 46.0601 28.4925 46.0579 28.2427L45.6579 28.2462C45.6601 28.4935 45.6596 28.741 45.659 28.9839L46.059 28.9848ZM46.0596 32.4174C46.0596 32.2835 46.0599 32.1496 46.0602 32.0154L45.6602 32.0146C45.6599 32.1487 45.6596 32.283 45.6596 32.4174H46.0596ZM46.0573 32.8371C46.0584 32.6978 46.0596 32.5577 46.0596 32.4174H45.6596C45.6596 32.5558 45.6585 32.6943 45.6573 32.8338L46.0573 32.8371ZM46.0624 33.7669C46.0523 33.4593 46.0548 33.1506 46.0573 32.8371L45.6573 32.8338C45.6548 33.146 45.6522 33.4628 45.6626 33.78L46.0624 33.7669ZM44.7589 35.1907C45.0935 35.1678 45.4224 34.9952 45.6635 34.7455C45.9058 34.4945 46.0747 34.1493 46.0624 33.767L45.6626 33.7799C45.6708 34.0336 45.5585 34.2783 45.3757 34.4676C45.1917 34.6582 44.9517 34.7766 44.7315 34.7917L44.7589 35.1907ZM43.4132 34.837C43.8258 35.142 44.2849 35.2231 44.7588 35.1907L44.7316 34.7917C44.3237 34.8195 43.9669 34.7489 43.651 34.5154L43.4132 34.837ZM42.6902 33.9206C42.8564 34.2737 43.0851 34.5946 43.4133 34.8371L43.651 34.5153C43.3891 34.3219 43.1979 34.06 43.0521 33.7503L42.6902 33.9206ZM42.3432 32.5518C42.3827 33.0226 42.4848 33.4844 42.6902 33.9206L43.0521 33.7502C42.8716 33.3669 42.7783 32.9538 42.7418 32.5184L42.3432 32.5518ZM42.4515 30.8459C42.3039 31.4147 42.296 31.9873 42.3432 32.5518L42.7418 32.5184C42.6967 31.9786 42.7066 31.4554 42.8387 30.9463L42.4515 30.8459ZM43.1294 29.523C42.7789 29.9078 42.5764 30.3633 42.4514 30.846L42.8387 30.9462C42.9527 30.5058 43.1309 30.1154 43.4251 29.7924L43.1294 29.523ZM45.7235 29.7497C45.4507 29.2903 44.9673 29.0494 44.4794 29.0128C43.9924 28.9764 43.4772 29.1412 43.1294 29.5231L43.4251 29.7924C43.678 29.5147 44.0663 29.383 44.4495 29.4117C44.8317 29.4404 45.185 29.6263 45.3795 29.9539L45.7235 29.7497ZM46.0586 31.0846C46.0543 30.6256 45.9718 30.168 45.7235 29.7497L45.3795 29.9539C45.5805 30.2925 45.6547 30.6739 45.6586 31.0883L46.0586 31.0846ZM46.0602 32.0154C46.0608 31.7061 46.0615 31.3955 46.0586 31.0846L45.6586 31.0883C45.6615 31.3965 45.6608 31.7049 45.6602 32.0146L46.0602 32.0154ZM35.5643 30.7171C35.5626 30.7254 35.5613 30.7311 35.5599 30.7368L35.9492 30.8286C35.9508 30.8221 35.9532 30.8119 35.9561 30.798L35.5643 30.7171ZM35.8828 30.5575H35.7602V30.9575H35.8828V30.5575ZM36.355 30.5559C36.1972 30.5567 36.0399 30.5574 35.8827 30.5575L35.8829 30.9575C36.0411 30.9574 36.1993 30.9567 36.3569 30.9559L36.355 30.5559ZM36.356 30.5559H36.356V30.9559H36.356V30.5559ZM36.356 30.5559H36.356V30.9559H36.356V30.5559ZM37.5071 30.5603C37.1219 30.5521 36.7369 30.554 36.355 30.5559L36.357 30.9559C36.7398 30.954 37.1195 30.9522 37.4986 30.9602L37.5071 30.5603ZM38.4055 30.642C38.1053 30.582 37.7983 30.5666 37.5072 30.5603L37.4986 30.9602C37.7844 30.9664 38.0627 30.9813 38.327 31.0342L38.4055 30.642ZM39.6127 31.736C39.5356 31.4149 39.3809 31.1664 39.1648 30.9845C38.9509 30.8045 38.6878 30.6986 38.4055 30.642L38.3269 31.0342C38.5637 31.0817 38.7587 31.1655 38.9072 31.2905C39.0533 31.4135 39.1652 31.5853 39.2238 31.8294L39.6127 31.736ZM39.6656 32.0493C39.6526 31.9513 39.6385 31.8431 39.6127 31.7358L39.2238 31.8295C39.2439 31.9128 39.2556 32.0001 39.269 32.1018L39.6656 32.0493ZM39.6846 32.1856C39.6777 32.1408 39.6717 32.0961 39.6656 32.0493L39.269 32.1018C39.2751 32.1478 39.2816 32.1968 39.2892 32.2466L39.6846 32.1856ZM39.7827 32.0161H39.4869V32.4161H39.7827V32.0161ZM39.5827 28.6868V32.2161H39.9827V28.6868H39.5827ZM39.4799 28.8868H39.7827V28.4868H39.4799V28.8868ZM39.6698 28.7973C39.6727 28.7675 39.6756 28.7382 39.6788 28.7081L39.281 28.6656C39.2776 28.698 39.2745 28.7292 39.2717 28.7587L39.6698 28.7973ZM39.6698 28.7979L39.6698 28.7979L39.2718 28.7581L39.2717 28.7581L39.6698 28.7979ZM39.651 28.9684C39.6589 28.9105 39.6644 28.8528 39.6698 28.7973L39.2717 28.7588C39.2662 28.8156 39.2613 28.8654 39.2546 28.9144L39.651 28.9684ZM38.8731 30.0715C39.3392 29.8485 39.583 29.4628 39.651 28.9686L39.2547 28.9141C39.2026 29.2928 39.03 29.553 38.7005 29.7107L38.8731 30.0715ZM37.7938 30.3048C38.1566 30.2996 38.5226 30.2393 38.8732 30.0715L38.7004 29.7107C38.4159 29.847 38.1106 29.9002 37.788 29.9049L37.7938 30.3048ZM36.3784 30.3093C36.8488 30.3105 37.3212 30.3117 37.7938 30.3048L37.788 29.9049C37.3194 29.9117 36.8504 29.9105 36.3794 29.9093L36.3784 30.3093ZM35.8323 30.3083C36.0142 30.3083 36.1961 30.3088 36.3784 30.3093L36.3794 29.9093C36.1973 29.9088 36.0148 29.9083 35.8323 29.9083V30.3083ZM35.7657 30.3045C35.7814 30.3059 35.806 30.3083 35.8323 30.3083V29.9083C35.8275 29.9083 35.8215 29.9079 35.8022 29.9062L35.7657 30.3045ZM35.7403 30.3023C35.7487 30.303 35.7565 30.3037 35.7657 30.3045L35.8022 29.9062C35.7933 29.9054 35.782 29.9043 35.7694 29.9034L35.7403 30.3023ZM35.5529 30.0683C35.5537 30.0832 35.5544 30.097 35.555 30.1113L35.9547 30.0945C35.954 30.0772 35.9531 30.0608 35.9523 30.0463L35.5529 30.0683ZM35.5495 29.9762C35.5495 30.0092 35.5514 30.0412 35.5529 30.0683L35.9523 30.0463C35.9506 30.0172 35.9495 29.9962 35.9495 29.9762H35.5495ZM35.5493 26.954C35.5491 27.9615 35.5491 28.9688 35.5495 29.9763L35.9495 29.9761C35.9491 28.9687 35.9491 27.9615 35.9493 26.9541L35.5493 26.954ZM36.2766 26.1559C36.0616 26.1718 35.8677 26.235 35.7314 26.3856C35.596 26.535 35.5494 26.7354 35.5493 26.9539L35.9493 26.9542C35.9494 26.7853 35.9861 26.7001 36.0279 26.654C36.0686 26.609 36.1456 26.5666 36.3059 26.5548L36.2766 26.1559ZM36.406 26.1533C36.3697 26.153 36.3238 26.1525 36.2767 26.1559L36.3058 26.5549C36.334 26.5528 36.3637 26.5529 36.4028 26.5532L36.406 26.1533ZM36.4257 26.1534L36.4058 26.1533L36.4029 26.5532L36.4228 26.5534L36.4257 26.1534ZM37.0538 26.157C36.8443 26.1558 36.6349 26.1547 36.4255 26.1534L36.423 26.5534C36.6326 26.5547 36.8422 26.5558 37.0517 26.557L37.0538 26.157ZM38.9407 26.1718C38.3114 26.1638 37.6822 26.1604 37.0538 26.157L37.0517 26.557C37.6803 26.5604 38.308 26.5638 38.9356 26.5718L38.9407 26.1718ZM39.7841 26.3428C39.5039 26.1937 39.2015 26.1754 38.9409 26.1718L38.9355 26.5718C39.1895 26.5752 39.407 26.5953 39.5961 26.6959L39.7841 26.3428ZM40.491 27.3234C40.3865 26.9322 40.1908 26.5592 39.784 26.3428L39.5961 26.6959C39.8665 26.8398 40.0151 27.0918 40.1046 27.4267L40.491 27.3234ZM40.5684 27.6712C40.5464 27.5612 40.5226 27.4419 40.491 27.3235L40.1045 27.4266C40.1323 27.5308 40.1538 27.6378 40.1762 27.7498L40.5684 27.6712ZM40.5696 27.6776L40.5696 27.6776L40.1751 27.7434L40.1751 27.7434L40.5696 27.6776ZM40.5683 27.6705L40.5683 27.6704L40.1764 27.7506L40.1764 27.7506L40.5683 27.6705ZM40.5684 27.6708L40.5683 27.6707L40.1764 27.7504L40.1764 27.7505L40.5684 27.6708ZM40.5983 27.8171C40.5882 27.7699 40.5785 27.7216 40.5685 27.6714L40.1763 27.7499C40.1862 27.7997 40.1964 27.8506 40.2072 27.9009L40.5983 27.8171ZM40.7317 27.659H40.4028V28.059H40.7317V27.659ZM40.5317 25.7122V27.859H40.9317V25.7122H40.5317ZM33.0037 25.9122H40.7317V25.5122H33.0037V25.9122ZM33.2047 25.7572C33.2041 25.7402 33.2037 25.7262 33.2037 25.7122H32.8037C32.8037 25.7335 32.8044 25.7537 32.8049 25.7698L33.2047 25.7572ZM33.2007 25.892C33.2078 25.8399 33.2057 25.7894 33.2047 25.7572L32.8049 25.7698C32.8061 25.8087 32.8061 25.8249 32.8043 25.8379L33.2007 25.892ZM33.129 25.7982C33.1158 25.7978 33.1146 25.7965 33.1202 25.7982C33.1269 25.8001 33.1461 25.8071 33.1656 25.8267C33.1862 25.8475 33.1954 25.8706 33.1986 25.8859C33.2013 25.8985 33.1993 25.9024 33.2007 25.8916L32.8043 25.8383C32.7945 25.9112 32.7961 26.0223 32.8817 26.1085C32.9593 26.1867 33.0613 26.1963 33.1169 26.198L33.129 25.7982ZM33.4314 25.8238C33.3377 25.8131 33.2341 25.8012 33.1287 25.7982L33.1172 26.198C33.2029 26.2005 33.2897 26.2102 33.3862 26.2212L33.4314 25.8238ZM33.4287 25.8235L33.4287 25.8235L33.3889 26.2215L33.3889 26.2215L33.4287 25.8235ZM33.4818 25.8295L33.4313 25.8238L33.3864 26.2212L33.4369 26.2269L33.4818 25.8295ZM34.478 26.9595C34.478 26.6535 34.3949 26.3842 34.2165 26.1813C34.0377 25.9779 33.7826 25.8631 33.4816 25.8294L33.4371 26.2269C33.663 26.2522 33.8172 26.3329 33.916 26.4453C34.0152 26.5582 34.078 26.7251 34.078 26.9595H34.478ZM34.478 34.3721V26.9595H34.078V34.3721H34.478ZM33.6552 35.4516C33.9146 35.3891 34.1268 35.2663 34.2718 35.073C34.416 34.8811 34.478 34.6408 34.478 34.3721H34.078C34.078 34.5807 34.0301 34.7287 33.952 34.8329C33.8747 34.9357 33.7521 35.0168 33.5614 35.0628L33.6552 35.4516ZM33.2278 35.522C33.363 35.505 33.5101 35.4867 33.6553 35.4516L33.5613 35.0628C33.4416 35.0917 33.3169 35.1076 33.1778 35.1251L33.2278 35.522ZM33.2322 35.5214L33.2323 35.5214L33.1734 35.1258L33.1733 35.1258L33.2322 35.5214ZM33.0422 35.5468C33.1031 35.5377 33.1642 35.53 33.2278 35.522L33.1778 35.1251C33.115 35.133 33.0493 35.1413 32.9831 35.1512L33.0422 35.5468ZM33.2127 35.6021V35.349H32.8127V35.6021H33.2127ZM37.048 35.4021H33.0127V35.8021H37.048V35.4021ZM36.848 35.3333V35.6021H37.248V35.3333H36.848ZM36.9241 35.5269C36.9618 35.5287 36.9981 35.5305 37.0349 35.5329L37.061 35.1338C37.0202 35.1311 36.9804 35.1292 36.9432 35.1274L36.9241 35.5269ZM36.6618 35.5059C36.7522 35.5188 36.8422 35.523 36.9241 35.5269L36.9432 35.1274C36.858 35.1233 36.7869 35.1197 36.7183 35.11L36.6618 35.5059ZM36.2896 35.4242C36.4131 35.4627 36.5391 35.4884 36.6617 35.5059L36.7184 35.11C36.6113 35.0947 36.507 35.073 36.4086 35.0424L36.2896 35.4242ZM35.5541 34.5221C35.5561 34.9593 35.8682 35.2927 36.2894 35.4242L36.4087 35.0424C36.1112 34.9495 35.9551 34.7424 35.9541 34.5203L35.5541 34.5221ZM35.551 31.7936C35.5506 32.7027 35.5502 33.6122 35.5541 34.522L35.9541 34.5203C35.9502 33.6116 35.9506 32.703 35.951 31.7938L35.551 31.7936ZM35.551 31.7937V31.7937H35.951V31.7937H35.551ZM35.551 31.7936V31.7937H35.951V31.7936H35.551ZM35.5512 30.8018C35.5513 31.1324 35.5512 31.4629 35.551 31.7936L35.951 31.7937C35.9512 31.4631 35.9513 31.1325 35.9512 30.8018L35.5512 30.8018ZM35.5599 30.7368C35.5597 30.7377 35.5512 30.7684 35.5512 30.8018H35.9512C35.9512 30.8156 35.9495 30.8262 35.9487 30.8306C35.9483 30.8326 35.9481 30.8336 35.9482 30.833C35.9484 30.8322 35.9486 30.8312 35.9492 30.8286L35.5599 30.7368ZM49.019 29.3212C48.9832 29.3336 48.9392 29.3487 48.9028 29.3669C48.8633 29.3867 48.8063 29.4227 48.7703 29.492C48.7364 29.5572 48.737 29.6223 48.74 29.6624C48.743 29.7031 48.7515 29.7502 48.7595 29.7943L49.1531 29.7227C49.1488 29.699 49.1455 29.6804 49.143 29.6647C49.1405 29.6488 49.1393 29.6391 49.1389 29.6331C49.1385 29.627 49.1391 29.6292 49.1382 29.6364C49.1372 29.6445 49.1341 29.6594 49.1252 29.6765C49.1209 29.6849 49.1157 29.6926 49.1101 29.6995C49.1046 29.7063 49.0991 29.7116 49.0945 29.7155C49.0857 29.723 49.0798 29.7256 49.082 29.7245C49.0843 29.7234 49.0901 29.7207 49.1025 29.716C49.1148 29.7114 49.1298 29.7061 49.15 29.6991L49.019 29.3212ZM50.5609 28.7859C50.0436 28.9656 49.5313 29.1435 49.019 29.3212L49.15 29.6991C49.6625 29.5214 50.1748 29.3434 50.6921 29.1637L50.5609 28.7859ZM51.1649 28.576L50.5609 28.7859L50.6921 29.1637L51.2962 28.9539L51.1649 28.576ZM51.4332 28.7988C51.4321 28.7835 51.4311 28.7692 51.4303 28.754L51.0309 28.7759C51.0319 28.7951 51.0332 28.8128 51.0343 28.8277L51.4332 28.7988ZM51.4333 28.7992L51.4333 28.7991L51.0343 28.8274L51.0343 28.8276L51.4333 28.7992ZM51.4376 28.8909C51.4376 28.8573 51.4352 28.8251 51.4333 28.799L51.0343 28.8279C51.0364 28.8568 51.0376 28.8744 51.0376 28.8909H51.4376ZM51.4374 30.4824L51.4376 28.8909L51.0376 28.8908L51.0374 30.4824L51.4374 30.4824ZM51.4347 35.5707C51.4371 33.8744 51.4372 32.1783 51.4374 30.4824L51.0374 30.4824C51.0372 32.1783 51.0371 33.8742 51.0347 35.5702L51.4347 35.5707ZM51.0791 37.6016C51.3626 36.9434 51.4337 36.2534 51.4347 35.5707L51.0347 35.5701C51.0337 36.2281 50.9646 36.8564 50.7117 37.4433L51.0791 37.6016ZM49.0502 39.062C49.5184 39.0267 49.9304 38.8898 50.2756 38.6425C50.6207 38.3952 50.8879 38.0454 51.0791 37.6015L50.7117 37.4433C50.5444 37.8318 50.3192 38.1191 50.0426 38.3173C49.766 38.5155 49.4271 38.6325 49.0201 38.6631L49.0502 39.062ZM47.8478 38.8917C48.2495 39.0869 48.6669 39.0908 49.0502 39.062L49.0202 38.6631C48.6557 38.6906 48.3263 38.6795 48.0227 38.5319L47.8478 38.8917ZM47.2599 37.7941C47.1559 38.268 47.4088 38.6784 47.8479 38.8917L48.0227 38.5319C47.715 38.3824 47.594 38.1379 47.6506 37.8798L47.2599 37.7941ZM47.8045 37.2145C47.5418 37.2973 47.3277 37.4846 47.2599 37.7941L47.6506 37.8798C47.6829 37.7325 47.7754 37.6431 47.9248 37.596L47.8045 37.2145ZM48.598 37.4334C48.494 37.3127 48.3689 37.2309 48.2262 37.1947C48.0849 37.1588 47.9413 37.1714 47.8045 37.2145L47.9248 37.596C48.0067 37.5702 48.0732 37.5685 48.1278 37.5823C48.181 37.5959 48.2375 37.6279 48.2951 37.6946L48.598 37.4334ZM48.634 37.4753L48.5981 37.4336L48.2949 37.6944L48.3308 37.7361L48.634 37.4753ZM49.072 37.9587C48.9211 37.8089 48.7804 37.6455 48.634 37.4753L48.3308 37.7361C48.4753 37.9042 48.6262 38.0798 48.7903 38.2427L49.072 37.9587ZM49.3489 38.1525C49.2447 38.0993 49.1475 38.0336 49.072 37.9587L48.7903 38.2427C48.9025 38.3539 49.0365 38.442 49.1669 38.5087L49.3489 38.1525ZM49.6453 38.0552C49.6056 38.1395 49.5597 38.1712 49.5251 38.1825C49.4894 38.1941 49.4319 38.1951 49.3492 38.1527L49.1666 38.5085C49.3194 38.587 49.4884 38.6152 49.6492 38.5627C49.811 38.5099 49.9315 38.3861 50.0071 38.2258L49.6453 38.0552ZM49.7701 37.6069C49.7494 37.7646 49.7083 37.9216 49.6453 38.0552L50.0071 38.2258C50.0917 38.0464 50.142 37.8476 50.1667 37.6589L49.7701 37.6069ZM49.8081 36.9133C49.8071 37.1505 49.7999 37.3823 49.7702 37.6066L50.1667 37.6592C50.1998 37.4093 50.2071 37.1574 50.2081 36.9149L49.8081 36.9133ZM49.8148 33.319C49.8144 34.5173 49.8134 35.7153 49.8081 36.9132L50.2081 36.915C50.2134 35.7162 50.2144 34.5175 50.2148 33.3192L49.8148 33.319ZM49.809 30.4722C49.8132 31.4212 49.8151 32.3701 49.8148 33.3191L50.2148 33.3192C50.2151 32.3696 50.2132 31.4201 50.209 30.4705L49.809 30.4722ZM49.7812 30.1539C49.7959 30.2699 49.8087 30.3723 49.809 30.4721L50.209 30.4706C50.2085 30.3421 50.1922 30.2153 50.1781 30.1036L49.7812 30.1539ZM49.7817 30.157L49.7817 30.1571L50.1776 30.1005L50.1776 30.1004L49.7817 30.157ZM49.7777 30.1262L49.7812 30.1538L50.1781 30.1036L50.1746 30.076L49.7777 30.1262ZM49.5183 29.9156C49.6279 29.9219 49.68 29.9377 49.7087 29.9581C49.7267 29.9708 49.7623 30.0039 49.7777 30.1262L50.1746 30.0761C50.1501 29.8821 50.0776 29.7292 49.9399 29.6317C49.813 29.5418 49.6618 29.5232 49.5412 29.5163L49.5183 29.9156ZM49.2173 29.9328C49.332 29.9203 49.4271 29.9103 49.5182 29.9156L49.5413 29.5163C49.4111 29.5087 49.2825 29.5233 49.1737 29.5352L49.2173 29.9328ZM49.0642 29.9479C49.1167 29.9439 49.1688 29.9381 49.2173 29.9328L49.1737 29.5352C49.1242 29.5406 49.0784 29.5456 49.0332 29.5491L49.0642 29.9479ZM49.0119 29.9534C49.0327 29.9509 49.0482 29.9491 49.063 29.948L49.0344 29.5491C49.0084 29.5509 48.9835 29.5539 48.9642 29.5563L49.0119 29.9534ZM48.9792 29.9572L49.011 29.9535L48.9651 29.5562L48.9334 29.5598L48.9792 29.9572ZM51.1218 26.139C51.1223 26.4424 50.8784 26.6872 50.5914 26.6886L50.5934 27.0886C51.1088 27.0861 51.5227 26.6541 51.5218 26.1383L51.1218 26.139ZM50.5889 25.5761C50.8371 25.5651 51.1222 25.7972 51.1218 26.1385L51.5218 26.1389C51.5224 25.5759 51.0534 25.1551 50.5712 25.1765L50.5889 25.5761ZM50.0555 26.1326C50.0553 25.8306 50.2953 25.5893 50.5891 25.5761L50.5711 25.1765C50.0696 25.1991 49.6552 25.6107 49.6555 26.1328L50.0555 26.1326ZM50.5914 26.6886C50.3023 26.69 50.0559 26.4465 50.0555 26.1325L49.6555 26.1329C49.6561 26.6564 50.0709 27.0912 50.5934 27.0886L50.5914 26.6886Z"/></g><defs><clipPath id="a"><rect width="36" height="36" fill="#fff" transform="translate(24 13)"/></clipPath></defs></svg>