<svg xmlns="http://www.w3.org/2000/svg" fill="none" viewBox="0 0 36 36"><g clip-path="url(#a)"><rect width="32" height="32" x="2" y="2" fill="#FFCD00" rx="16"/><path fill="#fff" fill-rule="evenodd" d="M18.5317 18.9872C18.9369 19.6147 19.1527 20.3436 19.1538 21.0882C19.1527 22.1253 18.7358 23.1196 17.9948 23.853C17.2537 24.5863 16.249 24.9988 15.201 25H10V11H13.9528C14.7194 10.9987 15.4699 11.2184 16.1124 11.6324C16.7549 12.0463 17.2616 12.6364 17.5707 13.3308C17.8798 14.0251 17.9778 14.7934 17.8528 15.5419C17.7277 16.2905 17.3851 16.9868 16.8667 17.5457C17.549 17.8597 18.1266 18.3598 18.5317 18.9872ZM13.9528 12.6471H11.6643V17.1765H13.9528C14.5597 17.1765 15.1418 16.9379 15.571 16.5132C16.0002 16.0884 16.2413 15.5124 16.2413 14.9118C16.2413 14.3111 16.0002 13.7351 15.571 13.3104C15.1418 12.8857 14.5597 12.6471 13.9528 12.6471ZM15.201 18.8235H11.6643V23.3529H15.201C15.808 23.3529 16.3901 23.1143 16.8192 22.6896C17.2484 22.2649 17.4895 21.6889 17.4895 21.0882C17.4895 20.4876 17.2484 19.9116 16.8192 19.4868C16.3901 19.0621 15.808 18.8235 15.201 18.8235ZM23.4977 18.1816C23.0813 18.6106 22.847 19.1922 22.8463 19.7989V25H21.231V15.8461H22.8463V16.582C23.4939 16.1035 24.2707 15.8462 25.0675 15.8461H26.0771V17.5105H25.0675C24.4786 17.5112 23.9141 17.7525 23.4977 18.1816Z" clip-rule="evenodd"/><path fill="#fff" d="M19.1538 21.0882L19.6538 21.0888L19.6538 21.0875L19.1538 21.0882ZM18.5317 18.9872L18.1117 19.2584V19.2584L18.5317 18.9872ZM17.9948 23.853L17.6431 23.4976H17.6431L17.9948 23.853ZM15.201 25V25.5H15.2016L15.201 25ZM10 25H9.5V25.5H10V25ZM10 11V10.5H9.5V11H10ZM13.9528 11V11.5L13.9536 11.5L13.9528 11ZM16.1124 11.6324L15.8416 12.0527L15.8416 12.0527L16.1124 11.6324ZM17.8528 15.5419L18.3459 15.6243V15.6243L17.8528 15.5419ZM16.8667 17.5457L16.5001 17.2057L16.0309 17.7115L16.6577 17.9999L16.8667 17.5457ZM11.6643 12.6471V12.1471H11.1643V12.6471H11.6643ZM11.6643 17.1765H11.1643V17.6765H11.6643V17.1765ZM15.571 13.3104L15.2193 13.6658L15.2193 13.6658L15.571 13.3104ZM11.6643 18.8235V18.3235H11.1643V18.8235H11.6643ZM11.6643 23.3529H11.1643V23.8529H11.6643V23.3529ZM16.8192 22.6896L16.4675 22.3342H16.4675L16.8192 22.6896ZM16.8192 19.4868L17.1709 19.1315H17.1709L16.8192 19.4868ZM22.8463 19.7989L22.3463 19.7984V19.7989H22.8463ZM23.4977 18.1816L23.1389 17.8333V17.8333L23.4977 18.1816ZM22.8463 25V25.5H23.3463V25H22.8463ZM21.231 25H20.731V25.5H21.231V25ZM21.231 15.8461V15.3461H20.731V15.8461H21.231ZM22.8463 15.8461H23.3463V15.3461H22.8463V15.8461ZM22.8463 16.582H22.3463V17.5732L23.1435 16.9841L22.8463 16.582ZM25.0675 15.8461V15.3461H25.0675L25.0675 15.8461ZM26.0771 15.8461H26.5771V15.3461H26.0771V15.8461ZM26.0771 17.5105V18.0105H26.5771V17.5105H26.0771ZM25.0675 17.5105V17.0105L25.0669 17.0105L25.0675 17.5105ZM19.6538 21.0875C19.6525 20.2466 19.4088 19.4239 18.9518 18.716L18.1117 19.2584C18.4649 19.8056 18.6528 20.4406 18.6538 21.089L19.6538 21.0875ZM18.3465 24.2084C19.1817 23.3818 19.6525 22.26 19.6538 21.0888L18.6538 21.0877C18.6528 21.9907 18.2899 22.8575 17.6431 23.4976L18.3465 24.2084ZM15.2016 25.5C16.3803 25.4987 17.5114 25.0348 18.3465 24.2084L17.6431 23.4976C16.9961 24.1379 16.1177 24.499 15.2005 24.5L15.2016 25.5ZM10 25.5H15.201V24.5H10V25.5ZM9.5 11V25H10.5V11H9.5ZM13.9528 10.5H10V11.5H13.9528V10.5ZM16.3832 11.212C15.6594 10.7458 14.8146 10.4985 13.952 10.5L13.9536 11.5C14.6243 11.4989 15.2803 11.6911 15.8416 12.0527L16.3832 11.212ZM18.0275 13.1274C17.6786 12.3437 17.107 11.6783 16.3832 11.212L15.8416 12.0527C16.4028 12.4142 16.8446 12.9292 17.1139 13.5341L18.0275 13.1274ZM18.3459 15.6243C18.4871 14.7789 18.3764 13.9112 18.0275 13.1274L17.1139 13.5341C17.3832 14.1389 17.4684 14.8079 17.3596 15.4596L18.3459 15.6243ZM17.2333 17.8857C17.8178 17.2555 18.2047 16.4697 18.3459 15.6243L17.3596 15.4596C17.2507 16.1112 16.9523 16.7181 16.5001 17.2057L17.2333 17.8857ZM18.9518 18.716C18.4948 18.0083 17.8438 17.4449 17.0757 17.0915L16.6577 17.9999C17.2542 18.2744 17.7584 18.7112 18.1117 19.2584L18.9518 18.716ZM11.6643 13.1471H13.9528V12.1471H11.6643V13.1471ZM12.1643 17.1765V12.6471H11.1643V17.1765H12.1643ZM13.9528 16.6765H11.6643V17.6765H13.9528V16.6765ZM15.2193 16.1578C14.8843 16.4893 14.4288 16.6765 13.9528 16.6765V17.6765C14.6907 17.6765 15.3994 17.3864 15.9227 16.8686L15.2193 16.1578ZM15.7413 14.9118C15.7413 15.3781 15.5541 15.8264 15.2193 16.1578L15.9227 16.8686C16.4462 16.3505 16.7413 15.6467 16.7413 14.9118H15.7413ZM15.2193 13.6658C15.5541 13.9971 15.7413 14.4454 15.7413 14.9118H16.7413C16.7413 14.1768 16.4462 13.4731 15.9227 12.955L15.2193 13.6658ZM13.9528 13.1471C14.4288 13.1471 14.8843 13.3342 15.2193 13.6658L15.9227 12.955C15.3994 12.4371 14.6907 12.1471 13.9528 12.1471V13.1471ZM11.6643 19.3235H15.201V18.3235H11.6643V19.3235ZM12.1643 23.3529V18.8235H11.1643V23.3529H12.1643ZM15.201 22.8529H11.6643V23.8529H15.201V22.8529ZM16.4675 22.3342C16.1325 22.6658 15.6771 22.8529 15.201 22.8529V23.8529C15.9389 23.8529 16.6476 23.5629 17.1709 23.045L16.4675 22.3342ZM16.9895 21.0882C16.9895 21.5546 16.8024 22.0029 16.4675 22.3342L17.1709 23.045C17.6944 22.5269 17.9895 21.8232 17.9895 21.0882H16.9895ZM16.4675 19.8422C16.8024 20.1736 16.9895 20.6219 16.9895 21.0882H17.9895C17.9895 20.3533 17.6944 19.6495 17.1709 19.1315L16.4675 19.8422ZM15.201 19.3235C15.6771 19.3235 16.1325 19.5107 16.4675 19.8422L17.1709 19.1315C16.6476 18.6136 15.9389 18.3235 15.201 18.3235V19.3235ZM23.3463 19.7995C23.3469 19.3205 23.532 18.8641 23.8565 18.5298L23.1389 17.8333C22.6306 18.357 22.3472 19.064 22.3463 19.7984L23.3463 19.7995ZM23.3463 25V19.7989H22.3463V25H23.3463ZM21.231 25.5H22.8463V24.5H21.231V25.5ZM20.731 15.8461V25H21.731V15.8461H20.731ZM22.8463 15.3461H21.231V16.3461H22.8463V15.3461ZM23.3463 16.582V15.8461H22.3463V16.582H23.3463ZM25.0675 15.3461C24.1625 15.3462 23.2818 15.6385 22.5492 16.1799L23.1435 16.9841C23.7059 16.5685 24.3788 16.3462 25.0675 16.3461L25.0675 15.3461ZM26.0771 15.3461H25.0675V16.3461H26.0771V15.3461ZM26.5771 17.5105V15.8461H25.5771V17.5105H26.5771ZM25.0675 18.0105H26.0771V17.0105H25.0675V18.0105ZM23.8565 18.5298C24.1805 18.196 24.6165 18.011 25.0681 18.0105L25.0669 17.0105C24.3407 17.0114 23.6477 17.3091 23.1389 17.8333L23.8565 18.5298Z"/></g><rect width="34" height="34" x="1" y="1" stroke="#FFDE55" stroke-width="2" rx="17"/><defs><clipPath id="a"><rect width="32" height="32" x="2" y="2" fill="#fff" rx="16"/></clipPath></defs></svg>