<svg xmlns="http://www.w3.org/2000/svg" fill="none" viewBox="0 0 36 36"><g clip-path="url(#a)"><rect width="32" height="32" x="2" y="2" fill="#FFCD00" rx="16"/><path fill="#fff" fill-rule="evenodd" d="M24.323 22.0974C24.323 22.1582 24.3219 22.22 24.3207 22.2823C24.318 22.426 24.3153 22.5727 24.3264 22.7181C24.3454 22.9647 24.2359 23.0533 24.0079 23.0319C23.9968 23.0309 23.9856 23.0313 23.9744 23.0316C23.9664 23.0319 23.9584 23.0322 23.9506 23.0319C23.8739 23.0295 23.791 23.0352 23.708 23.0409H23.708C23.5144 23.0542 23.3206 23.0675 23.2063 22.9775C23.1255 22.9141 23.1296 22.7466 23.1339 22.571V22.571C23.1364 22.4675 23.139 22.3612 23.1243 22.2717C23.1111 22.1889 23.0206 22.0899 22.941 22.0528C22.799 21.9876 22.6515 21.9317 22.5042 21.8759L22.5042 21.8759C22.242 21.7765 21.9804 21.6774 21.7514 21.5265C21.1383 21.123 20.9126 20.4837 20.9063 19.7577C20.9046 19.5863 20.9676 19.511 21.1401 19.5145C21.2588 19.5169 21.3776 19.516 21.4963 19.5151H21.4963H21.4963C21.6923 19.5136 21.8881 19.5122 22.0832 19.5255C22.1651 19.5313 22.3061 19.6372 22.309 19.7021C22.3273 20.1699 22.4682 20.5567 22.918 20.7599C23.4337 20.9933 23.9574 20.9794 24.4674 20.746C24.8106 20.5891 24.9785 20.3054 24.9848 19.9186C24.9911 19.5377 24.8089 19.262 24.4966 19.0988C24.2696 18.98 24.0305 18.8852 23.7916 18.7904C23.6681 18.7414 23.5446 18.6925 23.4228 18.6402C23.3103 18.5918 23.1964 18.5457 23.0825 18.4995C22.7902 18.3809 22.4976 18.2622 22.2259 18.1064C21.4392 17.6553 21.1234 16.9322 21.2088 16.0382C21.2925 15.1668 21.7789 14.5953 22.576 14.2786C22.6355 14.255 22.7014 14.2354 22.7674 14.2157C22.9295 14.1674 23.0928 14.1188 23.1673 14.0094C23.2525 13.8846 23.2274 13.6732 23.2045 13.4798L23.2045 13.4797C23.1997 13.439 23.1949 13.3991 23.1914 13.3609C23.1656 13.0835 23.2613 12.9955 23.5397 13.0002L23.574 13.0007C24.3203 13.0127 24.3269 13.0128 24.3196 13.776C24.3173 14.0059 24.3557 14.1194 24.6181 14.1842C25.6712 14.4454 26.3434 15.3642 26.3508 16.4782C26.3525 16.6924 26.2843 16.803 26.0546 16.7944C25.7784 16.7834 25.5016 16.7828 25.2255 16.7938C24.9991 16.803 24.9195 16.6942 24.9149 16.4829C24.9126 16.3688 24.8943 16.253 24.8673 16.1412C24.6668 15.311 23.6469 14.9526 22.9748 15.4742C22.4849 15.8546 22.5055 16.704 23.0458 17.0358C23.2703 17.1737 23.5192 17.2715 23.7678 17.3692L23.7679 17.3692C23.8835 17.4146 23.9991 17.46 24.1121 17.5094C24.2464 17.5681 24.3826 17.6235 24.5187 17.6789L24.5187 17.6789C24.8327 17.8068 25.1468 17.9347 25.4386 18.1023C26.2047 18.5424 26.5049 19.2545 26.4287 20.1259C26.3531 20.9915 25.8741 21.5584 25.0851 21.8647C24.9219 21.9287 24.7518 21.9761 24.5713 22.0265L24.5712 22.0265C24.4907 22.049 24.408 22.072 24.323 22.0974ZM10.6549 15.2771V17.2625C10.6878 17.2639 10.7202 17.2657 10.7524 17.2675H10.7524C10.823 17.2714 10.8922 17.2752 10.9615 17.2752C11.2154 17.2756 11.4693 17.2751 11.7232 17.2747L11.7236 17.2747C12.2316 17.2738 12.7397 17.2729 13.2477 17.2787C13.7663 17.2845 14.0127 17.5155 13.9909 17.9428C13.9731 18.2919 13.7474 18.5206 13.3434 18.5322C12.8539 18.5465 12.3642 18.5464 11.8746 18.5463C11.6689 18.5463 11.4633 18.5462 11.2577 18.5473C11.1337 18.5476 11.0098 18.5475 10.8759 18.5474H10.8756L10.6532 18.5473C10.6513 18.591 10.6491 18.6329 10.647 18.6734C10.6423 18.7635 10.638 18.847 10.6372 18.9306C10.635 19.1751 10.6347 19.4197 10.6343 19.6643C10.6336 20.1994 10.6328 20.7345 10.6131 21.2686C10.5931 21.8076 10.2596 22.1168 9.78916 22.1023C9.33135 22.0878 9.01907 21.7694 9.01448 21.2442C9.00382 20.0477 9.00332 18.8511 9.00281 17.6548C9.00264 17.2436 9.00246 16.8324 9.00188 16.4212L9.0011 16.1637C8.99982 15.7777 8.99854 15.3917 9.00417 15.0061C9.01506 14.2673 9.25514 14.0125 9.98512 14.0062C10.9062 13.998 11.8274 13.9997 12.7485 14.0014C13.0753 14.002 13.4022 14.0025 13.729 14.0027C13.8052 14.0027 13.8814 14.0108 13.9565 14.0201C14.3226 14.0664 14.5346 14.2777 14.545 14.6054C14.5558 14.9499 14.3559 15.1821 13.9806 15.2458C13.8408 15.2695 13.6964 15.2765 13.5543 15.2771C12.9542 15.2787 12.3539 15.2783 11.7536 15.278C11.4964 15.2778 11.2393 15.2777 10.9821 15.2777C10.8796 15.2771 10.7764 15.2771 10.6549 15.2771ZM19.471 18.1222C19.4699 17.8755 19.4688 17.6288 19.4688 17.3822C19.4688 17.3822 19.4682 17.3822 19.4665 17.3828C19.4665 17.1272 19.4676 16.8716 19.4688 16.6161C19.4715 16.0051 19.4742 15.3944 19.4613 14.7837C19.4516 14.3019 19.1542 14.0171 18.7153 14.0009C18.2397 13.9835 17.9452 14.2284 17.8736 14.7136C17.8495 14.8746 17.8403 15.039 17.8398 15.2023C17.8387 15.7174 17.8387 16.2327 17.8386 16.748C17.8386 17.5804 17.8386 18.4129 17.834 19.2454C17.8323 19.532 17.818 19.825 17.7613 20.1047C17.653 20.6379 17.3269 20.9095 16.837 20.924C16.3385 20.939 16.028 20.6987 15.8652 20.1649C15.8333 20.0599 15.8052 19.9534 15.7772 19.847C15.7293 19.6654 15.6815 19.4839 15.6143 19.3097C15.4819 18.9675 15.2206 18.8523 14.8195 18.9108C14.5021 18.9571 14.27 19.1962 14.2248 19.5222C14.0603 20.7161 14.8723 21.9227 16.0297 22.163C16.362 22.2319 16.7121 22.2499 17.0519 22.2371C18.5176 22.1815 19.4401 21.2297 19.4665 19.7503C19.4759 19.2078 19.4735 18.6649 19.471 18.1222Z" clip-rule="evenodd"/><path fill="#fff" d="M24.3207 22.2823L24.6206 22.2879V22.2879L24.3207 22.2823ZM24.323 22.0974L24.2373 21.8099L24.023 21.8738V22.0974H24.323ZM24.3264 22.7181L24.6256 22.6952L24.6256 22.6951L24.3264 22.7181ZM24.0079 23.0319L24.0359 22.7332L24.0353 22.7332L24.0079 23.0319ZM23.9744 23.0316L23.9646 22.7318H23.9646L23.9744 23.0316ZM23.9506 23.0319L23.9411 23.3318L23.9414 23.3318L23.9506 23.0319ZM23.708 23.0409V23.3409H23.7183L23.7286 23.3402L23.708 23.0409ZM23.708 23.0409V22.7409H23.6977L23.6875 22.7416L23.708 23.0409ZM23.2063 22.9775L23.3918 22.7418L23.3915 22.7415L23.2063 22.9775ZM23.1339 22.571L23.4339 22.5783V22.571H23.1339ZM23.1339 22.571L22.8339 22.5637V22.571H23.1339ZM23.1243 22.2717L22.828 22.3188L22.8283 22.3202L23.1243 22.2717ZM22.941 22.0528L23.0675 21.7808L23.0661 21.7802L22.941 22.0528ZM22.5042 21.8759L22.37 22.1442L22.3836 22.1511L22.3979 22.1564L22.5042 21.8759ZM22.5042 21.8759L22.6383 21.6076L22.6247 21.6008L22.6105 21.5954L22.5042 21.8759ZM21.7514 21.5265L21.9165 21.276L21.9164 21.2759L21.7514 21.5265ZM20.9063 19.7577L21.2063 19.7551L21.2063 19.7547L20.9063 19.7577ZM21.1401 19.5145L21.1461 19.2146L21.1461 19.2146L21.1401 19.5145ZM21.4963 19.5151V19.2151L21.4941 19.2151L21.4963 19.5151ZM21.4963 19.5151V19.8151L21.4986 19.8151L21.4963 19.5151ZM22.0832 19.5255L22.1043 19.2262L22.1037 19.2262L22.0832 19.5255ZM22.309 19.7021L22.6087 19.6903L22.6087 19.6888L22.309 19.7021ZM22.918 20.7599L23.0417 20.4866L23.0416 20.4865L22.918 20.7599ZM24.4674 20.746L24.3427 20.4732L24.3426 20.4732L24.4674 20.746ZM24.9848 19.9186L24.6848 19.9137L24.6848 19.9137L24.9848 19.9186ZM24.4966 19.0988L24.3576 19.3646L24.3576 19.3646L24.4966 19.0988ZM23.7916 18.7904L23.6809 19.0693L23.7916 18.7904ZM23.4228 18.6402L23.3044 18.9158L23.3045 18.9159L23.4228 18.6402ZM23.0825 18.4995L22.9698 18.7775L23.0825 18.4995ZM22.2259 18.1064L22.3751 17.8461L22.3751 17.8461L22.2259 18.1064ZM21.2088 16.0382L20.9102 16.0095L20.9102 16.0097L21.2088 16.0382ZM22.576 14.2786L22.4653 13.9998L22.4652 13.9998L22.576 14.2786ZM22.7674 14.2157L22.853 14.5032L22.853 14.5032L22.7674 14.2157ZM23.1673 14.0094L22.9195 13.8403L22.9193 13.8405L23.1673 14.0094ZM23.2045 13.4798L23.5024 13.4445L23.5023 13.443L23.2045 13.4798ZM23.2045 13.4797L22.9066 13.515L22.9068 13.5165L23.2045 13.4797ZM23.1914 13.3609L22.8926 13.3887L22.8927 13.389L23.1914 13.3609ZM23.5397 13.0002L23.5347 13.3001L23.5349 13.3001L23.5397 13.0002ZM23.574 13.0007L23.5692 13.3007L23.5692 13.3007L23.574 13.0007ZM24.3196 13.776L24.6196 13.779L24.6196 13.7789L24.3196 13.776ZM24.6181 14.1842L24.6903 13.893L24.6901 13.893L24.6181 14.1842ZM26.3508 16.4782L26.0508 16.4802L26.0508 16.4806L26.3508 16.4782ZM26.0546 16.7944L26.0426 17.0941L26.0432 17.0941L26.0546 16.7944ZM25.2255 16.7938L25.2135 16.494L25.2132 16.494L25.2255 16.7938ZM24.9149 16.4829L24.615 16.4889L24.615 16.4894L24.9149 16.4829ZM24.8673 16.1412L25.159 16.071L25.159 16.0708L24.8673 16.1412ZM22.9748 15.4742L22.7908 15.2372L22.7908 15.2373L22.9748 15.4742ZM23.0458 17.0358L23.2029 16.7802L23.2028 16.7801L23.0458 17.0358ZM23.7678 17.3692L23.6581 17.6484L23.6625 17.6501L23.7678 17.3692ZM23.7679 17.3692L23.8776 17.0899L23.8732 17.0883L23.7679 17.3692ZM24.1121 17.5094L23.992 17.7843L23.9921 17.7843L24.1121 17.5094ZM24.5187 17.6789L24.4055 17.9569L24.4134 17.9598L24.5187 17.6789ZM24.5187 17.6789L24.6319 17.401L24.6241 17.398L24.5187 17.6789ZM25.4386 18.1023L25.2892 18.3624L25.2892 18.3625L25.4386 18.1023ZM26.4287 20.1259L26.1299 20.0998L26.1299 20.0998L26.4287 20.1259ZM25.0851 21.8647L24.9765 21.585L24.9755 21.5854L25.0851 21.8647ZM24.5713 22.0265L24.4906 21.7375L24.4835 21.7395L24.4764 21.7419L24.5713 22.0265ZM24.5712 22.0265L24.6519 22.3155L24.659 22.3135L24.6661 22.3111L24.5712 22.0265ZM10.6549 17.2625H10.3549V17.5495L10.6417 17.5622L10.6549 17.2625ZM10.6549 15.2771V14.9771H10.3549V15.2771H10.6549ZM10.7524 17.2675L10.7359 17.567L10.7441 17.5675H10.7524V17.2675ZM10.7524 17.2675L10.7689 16.9679L10.7607 16.9675H10.7524V17.2675ZM10.9615 17.2752L10.962 16.9752H10.9615V17.2752ZM11.7232 17.2747L11.7237 17.5747L11.7242 17.5747L11.7232 17.2747ZM11.7236 17.2747L11.7231 16.9747L11.7226 16.9747L11.7236 17.2747ZM13.2477 17.2787L13.2443 17.5787L13.2444 17.5787L13.2477 17.2787ZM13.9909 17.9428L13.6913 17.9275L13.6913 17.9275L13.9909 17.9428ZM13.3434 18.5322L13.3348 18.2323L13.3347 18.2323L13.3434 18.5322ZM11.8746 18.5463L11.8746 18.2463L11.8746 18.5463ZM11.2577 18.5473L11.2586 18.8473L11.2592 18.8473L11.2577 18.5473ZM10.8759 18.5474L10.8761 18.2474H10.8759V18.5474ZM10.8756 18.5474L10.8754 18.8474H10.8756V18.5474ZM10.6532 18.5473L10.6534 18.2473L10.3663 18.2471L10.3535 18.5339L10.6532 18.5473ZM10.647 18.6734L10.9466 18.6889V18.6889L10.647 18.6734ZM10.6372 18.9306L10.3372 18.9277L10.3372 18.9279L10.6372 18.9306ZM10.6343 19.6643L10.3343 19.6638V19.6638L10.6343 19.6643ZM10.6131 21.2686L10.9129 21.2797L10.9129 21.2796L10.6131 21.2686ZM9.78916 22.1023L9.77968 22.4022L9.77994 22.4022L9.78916 22.1023ZM9.01448 21.2442L9.31447 21.2416L9.31447 21.2416L9.01448 21.2442ZM9.00281 17.6548L9.30281 17.6547L9.00281 17.6548ZM9.00188 16.4212L9.30188 16.4207L9.30188 16.4203L9.00188 16.4212ZM9.0011 16.1637L9.3011 16.1628L9.3011 16.1628L9.0011 16.1637ZM9.00417 15.0061L8.7042 15.0017L8.7042 15.0017L9.00417 15.0061ZM9.98512 14.0062L9.98774 14.3062L9.98777 14.3062L9.98512 14.0062ZM12.7485 14.0014L12.749 13.7014L12.7485 14.0014ZM13.729 14.0027L13.7289 14.3027H13.729V14.0027ZM13.9565 14.0201L13.9942 13.7224L13.9932 13.7223L13.9565 14.0201ZM14.545 14.6054L14.2451 14.6149L14.2451 14.6149L14.545 14.6054ZM13.9806 15.2458L13.9304 14.95L13.9303 14.95L13.9806 15.2458ZM13.5543 15.2771L13.5551 15.5771L13.5555 15.5771L13.5543 15.2771ZM11.7536 15.278L11.7535 15.578L11.7536 15.278ZM10.9821 15.2777L10.9804 15.5777H10.9821V15.2777ZM19.4688 17.3822H19.7688V17.0822H19.4688V17.3822ZM19.471 18.1222L19.771 18.1208V18.1208L19.471 18.1222ZM19.4665 17.3828H19.1665V17.8004L19.5622 17.6671L19.4665 17.3828ZM19.4688 16.6161L19.1688 16.6147V16.6147L19.4688 16.6161ZM19.4613 14.7837L19.1614 14.7897L19.1614 14.79L19.4613 14.7837ZM18.7153 14.0009L18.7264 13.7011L18.7262 13.7011L18.7153 14.0009ZM17.8736 14.7136L18.1703 14.758L18.1704 14.7574L17.8736 14.7136ZM17.8398 15.2023L17.5398 15.2012L17.5398 15.2016L17.8398 15.2023ZM17.8386 16.748L17.5386 16.748V16.748L17.8386 16.748ZM17.834 19.2454L18.134 19.2472L18.134 19.2471L17.834 19.2454ZM17.7613 20.1047L18.0553 20.1644L18.0553 20.1643L17.7613 20.1047ZM16.837 20.924L16.8282 20.6241L16.828 20.6241L16.837 20.924ZM15.8652 20.1649L15.5782 20.2522L15.5783 20.2524L15.8652 20.1649ZM15.7772 19.847L15.4871 19.9235L15.7772 19.847ZM15.6143 19.3097L15.8942 19.2017L15.8941 19.2015L15.6143 19.3097ZM14.8195 18.9108L14.7763 18.6139L14.7762 18.6139L14.8195 18.9108ZM14.2248 19.5222L13.9276 19.4809L13.9276 19.4813L14.2248 19.5222ZM16.0297 22.163L15.9687 22.4568L15.9688 22.4568L16.0297 22.163ZM17.0519 22.2371L17.0631 22.5369L17.0633 22.5369L17.0519 22.2371ZM19.4665 19.7503L19.7664 19.7557L19.7664 19.7556L19.4665 19.7503ZM24.6206 22.2879C24.6218 22.2261 24.623 22.1615 24.623 22.0974H24.023C24.023 22.1549 24.0219 22.2139 24.0207 22.2767L24.6206 22.2879ZM24.6256 22.6951C24.6157 22.5664 24.6179 22.434 24.6206 22.2879L24.0207 22.2767C24.0181 22.418 24.0149 22.5791 24.0273 22.7411L24.6256 22.6951ZM23.9798 23.3306C24.1224 23.344 24.3167 23.3338 24.4653 23.1941C24.6172 23.0512 24.6377 22.8528 24.6256 22.6952L24.0273 22.741C24.0288 22.7604 24.0287 22.7746 24.0281 22.7845C24.0275 22.7944 24.0264 22.7985 24.0265 22.7982C24.0266 22.7978 24.0281 22.7924 24.0327 22.7842C24.0375 22.7756 24.0446 22.766 24.0543 22.757C24.0639 22.7479 24.0735 22.7418 24.0813 22.7379C24.0888 22.7343 24.0932 22.7334 24.0927 22.7335C24.0921 22.7336 24.0874 22.7345 24.0775 22.7349C24.0676 22.7352 24.054 22.7349 24.0359 22.7332L23.9798 23.3306ZM23.9842 23.3315C23.9872 23.3314 23.9888 23.3313 23.9903 23.3313C23.9916 23.3313 23.992 23.3313 23.9918 23.3313C23.9915 23.3313 23.9871 23.3313 23.9804 23.3307L24.0353 22.7332C24.0025 22.7302 23.9725 22.7315 23.9646 22.7318L23.9842 23.3315ZM23.9414 23.3318C23.9604 23.3324 23.9779 23.3317 23.9842 23.3315L23.9646 22.7318C23.9602 22.7319 23.9586 22.732 23.9573 22.732C23.9564 22.732 23.9574 22.732 23.9598 22.7321L23.9414 23.3318ZM23.7286 23.3402C23.815 23.3342 23.8823 23.3299 23.9411 23.3318L23.9601 22.7321C23.8656 22.7291 23.767 22.7361 23.6875 22.7416L23.7286 23.3402ZM23.708 23.3409H23.708V22.7409H23.708V23.3409ZM23.0207 23.2132C23.1472 23.3128 23.2955 23.3392 23.4058 23.3471C23.5179 23.3552 23.637 23.3465 23.7286 23.3402L23.6875 22.7416C23.5854 22.7486 23.5108 22.7531 23.4489 22.7487C23.3854 22.7441 23.3796 22.7322 23.3918 22.7418L23.0207 23.2132ZM22.834 22.5637C22.832 22.6451 22.8287 22.7543 22.8403 22.8518C22.8504 22.9368 22.8801 23.1029 23.021 23.2135L23.3915 22.7415C23.4241 22.7671 23.4363 22.7941 23.4389 22.8008C23.4412 22.8065 23.4386 22.8022 23.4361 22.7809C23.4337 22.7606 23.4322 22.7336 23.432 22.6977C23.4318 22.6618 23.4327 22.6232 23.4338 22.5783L22.834 22.5637ZM22.8339 22.571V22.571H23.4339V22.571H22.8339ZM22.8283 22.3202C22.8375 22.3764 22.8367 22.4523 22.834 22.5637L23.4338 22.5783C23.4361 22.4827 23.4405 22.346 23.4204 22.2232L22.8283 22.3202ZM22.8144 22.3248C22.8112 22.3234 22.81 22.3225 22.8106 22.3229C22.8111 22.3232 22.8126 22.3242 22.8149 22.326C22.8197 22.3299 22.8253 22.3351 22.8303 22.3409C22.8327 22.3437 22.8345 22.3461 22.8358 22.3479C22.8371 22.3497 22.8374 22.3505 22.8372 22.3501C22.837 22.3497 22.8357 22.3472 22.834 22.3426C22.8323 22.338 22.8298 22.33 22.828 22.3188L23.4206 22.2245C23.4018 22.1062 23.3376 22.0105 23.2848 21.9493C23.2294 21.8849 23.1541 21.8211 23.0675 21.7808L22.8144 22.3248ZM22.3979 22.1564C22.5468 22.2129 22.6847 22.2653 22.8158 22.3255L23.0661 21.7802C22.9133 21.71 22.7561 21.6506 22.6105 21.5954L22.3979 22.1564ZM22.37 22.1442L22.37 22.1442L22.6383 21.6076L22.6383 21.6076L22.37 22.1442ZM21.5863 21.777C21.8478 21.9493 22.1415 22.0593 22.3978 22.1564L22.6105 21.5954C22.3424 21.4938 22.113 21.4055 21.9165 21.276L21.5863 21.777ZM20.6063 19.7603C20.6131 20.5473 20.8618 21.3001 21.5865 21.7771L21.9164 21.2759C21.4149 20.9458 21.212 20.4202 21.2063 19.7551L20.6063 19.7603ZM21.1461 19.2146C21.0245 19.2121 20.8607 19.2347 20.7384 19.366C20.6216 19.4913 20.6052 19.6505 20.6063 19.7607L21.2063 19.7547C21.206 19.7286 21.2086 19.721 21.2075 19.7248C21.206 19.7305 21.1989 19.7519 21.1773 19.7751C21.155 19.799 21.1311 19.8099 21.1185 19.8137C21.1089 19.8167 21.1113 19.814 21.134 19.8144L21.1461 19.2146ZM21.4941 19.2151C21.3746 19.216 21.26 19.2169 21.1461 19.2146L21.134 19.8144C21.2576 19.8169 21.3805 19.816 21.4986 19.8151L21.4941 19.2151ZM21.4963 19.2151H21.4963V19.8151H21.4963V19.2151ZM21.4963 19.2151H21.4963V19.8151H21.4963V19.2151ZM22.1037 19.2262C21.8953 19.2119 21.6881 19.2137 21.4941 19.2151L21.4986 19.8151C21.6964 19.8136 21.8808 19.8124 22.0627 19.8248L22.1037 19.2262ZM22.6087 19.6888C22.6038 19.579 22.5484 19.4992 22.5208 19.4637C22.4865 19.4197 22.4463 19.3828 22.4088 19.354C22.346 19.3056 22.2329 19.2353 22.1043 19.2262L22.0621 19.8247C22.0443 19.8235 22.0327 19.8202 22.0286 19.819C22.0239 19.8175 22.0224 19.8167 22.024 19.8174C22.0277 19.8192 22.035 19.8234 22.0426 19.8293C22.051 19.8358 22.0517 19.8379 22.0472 19.8322C22.0448 19.8291 22.0378 19.8197 22.0303 19.8038C22.0233 19.7889 22.0111 19.7582 22.0093 19.7153L22.6087 19.6888ZM23.0416 20.4865C22.8767 20.412 22.78 20.3114 22.718 20.192C22.6523 20.0654 22.617 19.9006 22.6087 19.6903L22.0092 19.7138C22.0193 19.9714 22.0636 20.2339 22.1855 20.4685C22.311 20.7102 22.5096 20.9046 22.7945 21.0333L23.0416 20.4865ZM24.3426 20.4732C23.9069 20.6726 23.4739 20.6822 23.0417 20.4866L22.7944 21.0332C23.3935 21.3044 24.008 21.2862 24.5922 21.0188L24.3426 20.4732ZM24.6848 19.9137C24.6824 20.0648 24.6489 20.1771 24.5971 20.261C24.5462 20.3435 24.4669 20.4164 24.3427 20.4732L24.5921 21.0189C24.8111 20.9188 24.9873 20.7713 25.1078 20.576C25.2273 20.3822 25.2809 20.1592 25.2848 19.9235L24.6848 19.9137ZM24.3576 19.3646C24.5748 19.4782 24.6892 19.6521 24.6848 19.9137L25.2848 19.9236C25.293 19.4232 25.043 19.0459 24.6356 18.8329L24.3576 19.3646ZM23.6809 19.0693C23.9224 19.1651 24.1467 19.2543 24.3576 19.3646L24.6356 18.8329C24.3924 18.7057 24.1387 18.6054 23.9022 18.5116L23.6809 19.0693ZM23.3045 18.9159C23.4308 18.9701 23.5581 19.0206 23.6809 19.0693L23.9022 18.5116C23.7781 18.4623 23.6585 18.4149 23.5412 18.3645L23.3045 18.9159ZM22.9698 18.7775C23.0841 18.8239 23.1951 18.8689 23.3044 18.9158L23.5413 18.3646C23.4254 18.3148 23.3087 18.2675 23.1953 18.2215L22.9698 18.7775ZM22.0766 18.3666C22.369 18.5343 22.6807 18.6602 22.9698 18.7775L23.1953 18.2215C22.8996 18.1015 22.6263 17.9901 22.3751 17.8461L22.0766 18.3666ZM20.9102 16.0097C20.8634 16.499 20.9249 16.9599 21.1196 17.3676C21.3152 17.7772 21.6362 18.1141 22.0767 18.3666L22.3751 17.8461C22.0289 17.6476 21.7987 17.3974 21.661 17.1091C21.5225 16.819 21.4688 16.4713 21.5075 16.0667L20.9102 16.0097ZM22.4652 13.9998C22.0285 14.1733 21.6608 14.4233 21.3901 14.7637C21.1183 15.1054 20.9569 15.5228 20.9102 16.0095L21.5074 16.0668C21.5444 15.6822 21.6681 15.3781 21.8597 15.1371C22.0524 14.8947 22.3264 14.7006 22.6868 14.5574L22.4652 13.9998ZM22.6818 13.9282C22.6185 13.947 22.5394 13.9703 22.4653 13.9998L22.6866 14.5574C22.7316 14.5396 22.7842 14.5237 22.853 14.5032L22.6818 13.9282ZM22.9193 13.8405C22.927 13.8292 22.9254 13.84 22.8765 13.8622C22.8281 13.884 22.7675 13.9027 22.6818 13.9282L22.853 14.5032C22.9294 14.4805 23.0314 14.4506 23.1239 14.4088C23.2158 14.3672 23.3331 14.299 23.4153 14.1782L22.9193 13.8405ZM22.9066 13.5151C22.9186 13.6164 22.9276 13.6967 22.9265 13.7654C22.9253 13.8382 22.9124 13.8507 22.9195 13.8403L23.4151 14.1785C23.5074 14.0433 23.5246 13.8877 23.5264 13.7753C23.5283 13.6587 23.5133 13.5366 23.5024 13.4445L22.9066 13.5151ZM22.9068 13.5165L22.9068 13.5166L23.5023 13.443L23.5022 13.4429L22.9068 13.5165ZM22.8927 13.389C22.8967 13.4314 22.9018 13.475 22.9066 13.515L23.5024 13.4444C23.4975 13.4029 23.4932 13.3667 23.49 13.3328L22.8927 13.389ZM23.5447 12.7002C23.3955 12.6977 23.1874 12.713 23.0382 12.8638C22.8833 13.0203 22.8782 13.2328 22.8926 13.3887L23.4901 13.3331C23.4877 13.3074 23.4871 13.2876 23.4874 13.2728C23.4878 13.2578 23.4891 13.2499 23.4896 13.2473C23.4901 13.2448 23.4895 13.249 23.4855 13.2571C23.4813 13.2656 23.4745 13.2759 23.4647 13.2858C23.444 13.3067 23.4271 13.3091 23.437 13.3066C23.4422 13.3053 23.4525 13.3033 23.4694 13.3019C23.4862 13.3004 23.5077 13.2997 23.5347 13.3001L23.5447 12.7002ZM23.5789 12.7008L23.5446 12.7002L23.5349 13.3001L23.5692 13.3007L23.5789 12.7008ZM24.6196 13.7789C24.6213 13.5947 24.6229 13.4318 24.6095 13.3034C24.5963 13.1771 24.5637 13.0204 24.4448 12.8978C24.3253 12.7747 24.1697 12.7382 24.0448 12.7221C23.9186 12.7058 23.758 12.7036 23.5789 12.7008L23.5692 13.3007C23.7632 13.3038 23.8833 13.3062 23.968 13.3171C24.054 13.3283 24.0395 13.3418 24.0141 13.3156C23.9891 13.2899 24.0035 13.2771 24.0128 13.3658C24.0218 13.4524 24.0215 13.5757 24.0196 13.7731L24.6196 13.7789ZM24.6901 13.893C24.6408 13.8808 24.6182 13.8701 24.6104 13.8656C24.6055 13.8628 24.6135 13.8667 24.6216 13.8793C24.6286 13.8901 24.6269 13.8941 24.6242 13.878C24.6212 13.8599 24.619 13.8303 24.6196 13.779L24.0196 13.773C24.0184 13.8893 24.0225 14.0575 24.1176 14.2048C24.2209 14.3647 24.3859 14.4359 24.5461 14.4755L24.6901 13.893ZM26.6508 16.4762C26.6425 15.2378 25.8885 14.1901 24.6903 13.893L24.5459 14.4754C25.454 14.7006 26.0442 15.4907 26.0508 16.4802L26.6508 16.4762ZM26.0432 17.0941C26.2005 17.1001 26.3865 17.0682 26.5176 16.9147C26.6366 16.7754 26.6518 16.6 26.6508 16.4758L26.0508 16.4806C26.051 16.4996 26.0503 16.5146 26.0492 16.5264C26.0482 16.5382 26.0468 16.5453 26.0459 16.5488C26.0442 16.5558 26.0461 16.543 26.0614 16.5251C26.0689 16.5162 26.0777 16.5086 26.0868 16.5027C26.0957 16.497 26.1027 16.4943 26.1058 16.4933C26.1087 16.4923 26.1075 16.4931 26.1007 16.4938C26.0938 16.4946 26.0826 16.4952 26.0659 16.4946L26.0432 17.0941ZM25.2374 17.0935C25.5052 17.0829 25.774 17.0834 26.0426 17.0941L26.0665 16.4946C25.7828 16.4833 25.4981 16.4827 25.2135 16.494L25.2374 17.0935ZM24.615 16.4894C24.6178 16.62 24.6431 16.7917 24.7673 16.9253C24.9 17.0681 25.0803 17.1 25.2377 17.0935L25.2132 16.494C25.1971 16.4947 25.1858 16.4941 25.1786 16.4934C25.1715 16.4926 25.1694 16.4918 25.1709 16.4923C25.1727 16.4928 25.178 16.4947 25.1852 16.4991C25.1926 16.5036 25.2001 16.5096 25.2068 16.5168C25.2134 16.5239 25.2175 16.5304 25.2199 16.5347C25.2221 16.5389 25.2222 16.5403 25.2214 16.5376C25.2206 16.5348 25.2191 16.5286 25.2177 16.518C25.2163 16.5075 25.2152 16.4938 25.2148 16.4763L24.615 16.4894ZM24.5757 16.2115C24.599 16.3084 24.6132 16.402 24.615 16.4889L25.2148 16.4768C25.212 16.3356 25.1895 16.1976 25.159 16.071L24.5757 16.2115ZM23.1587 15.7112C23.6579 15.3238 24.426 15.5919 24.5757 16.2117L25.159 16.0708C24.9076 15.0301 23.6359 14.5813 22.7908 15.2372L23.1587 15.7112ZM23.2028 16.7801C23.0332 16.676 22.9321 16.4822 22.9237 16.2619C22.9153 16.0403 23.0025 15.8325 23.1588 15.7112L22.7908 15.2373C22.4571 15.4964 22.3097 15.9034 22.3242 16.2847C22.3387 16.6671 22.5182 17.0638 22.8888 17.2915L23.2028 16.7801ZM23.8775 17.0899C23.6244 16.9905 23.4009 16.9019 23.2029 16.7802L22.8888 17.2914C23.1398 17.4456 23.4139 17.5525 23.6582 17.6484L23.8775 17.0899ZM23.8732 17.0883L23.8732 17.0883L23.6625 17.6501L23.6625 17.6501L23.8732 17.0883ZM24.2323 17.2345C24.1131 17.1825 23.9923 17.135 23.8776 17.09L23.6582 17.6484C23.7747 17.6942 23.885 17.7375 23.992 17.7843L24.2323 17.2345ZM24.6318 17.4011C24.4951 17.3454 24.3625 17.2914 24.2322 17.2345L23.9921 17.7843C24.1304 17.8448 24.27 17.9016 24.4056 17.9568L24.6318 17.4011ZM24.6241 17.398L24.624 17.398L24.4134 17.9598L24.4134 17.9598L24.6241 17.398ZM25.5881 17.8422C25.2758 17.6628 24.9426 17.5276 24.6319 17.4011L24.4056 17.9568C24.7229 18.086 25.0179 18.2066 25.2892 18.3624L25.5881 17.8422ZM26.7276 20.1521C26.7693 19.6756 26.7095 19.2243 26.5209 18.8244C26.3311 18.4221 26.0195 18.09 25.588 17.8422L25.2892 18.3625C25.6239 18.5547 25.8454 18.7987 25.9782 19.0803C26.1122 19.3643 26.1644 19.7048 26.1299 20.0998L26.7276 20.1521ZM25.1936 22.1443C25.6274 21.9759 25.9924 21.7293 26.2598 21.3911C26.5282 21.0516 26.6853 20.636 26.7276 20.152L26.1299 20.0998C26.0965 20.4814 25.9763 20.7821 25.7891 21.019C25.6008 21.2571 25.3318 21.4471 24.9765 21.585L25.1936 22.1443ZM24.6519 22.3155C24.8296 22.2659 25.0147 22.2145 25.1947 22.1439L24.9755 21.5854C24.829 21.6429 24.6739 21.6864 24.4906 21.7375L24.6519 22.3155ZM24.6661 22.3111L24.6661 22.3111L24.4764 21.7419L24.4764 21.7419L24.6661 22.3111ZM24.4088 22.3849C24.4908 22.3604 24.5709 22.3381 24.6519 22.3155L24.4906 21.7375C24.4104 21.7599 24.3253 21.7837 24.2373 21.8099L24.4088 22.3849ZM10.9549 17.2625V15.2771H10.3549V17.2625H10.9549ZM10.7689 16.9679C10.737 16.9662 10.7029 16.9643 10.6682 16.9628L10.6417 17.5622C10.6726 17.5635 10.7034 17.5652 10.7359 17.567L10.7689 16.9679ZM10.7524 16.9675H10.7524V17.5675H10.7524V16.9675ZM10.9615 16.9752C10.9019 16.9752 10.8409 16.9719 10.7689 16.9679L10.7359 17.567C10.805 17.5708 10.8826 17.5752 10.9615 17.5752V16.9752ZM11.7226 16.9747C11.4687 16.9751 11.2153 16.9756 10.962 16.9752L10.961 17.5752C11.2155 17.5756 11.4699 17.5751 11.7237 17.5747L11.7226 16.9747ZM11.7226 16.9747L11.7222 16.9747L11.7242 17.5747L11.7246 17.5747L11.7226 16.9747ZM13.2511 16.9787C12.7408 16.9729 12.2308 16.9738 11.7231 16.9747L11.7241 17.5747C12.2325 17.5738 12.7386 17.5729 13.2443 17.5787L13.2511 16.9787ZM14.2905 17.9581C14.3045 17.6831 14.2325 17.4195 14.0232 17.2302C13.8231 17.0492 13.547 16.982 13.2511 16.9787L13.2444 17.5787C13.467 17.5811 13.5733 17.6323 13.6207 17.6751C13.6588 17.7096 13.699 17.7751 13.6913 17.9275L14.2905 17.9581ZM13.352 18.8321C13.6086 18.8247 13.8423 18.7467 14.0171 18.583C14.193 18.4182 14.2784 18.1951 14.2905 17.958L13.6913 17.9275C13.6856 18.0396 13.6492 18.1055 13.6069 18.1452C13.5633 18.186 13.4822 18.2281 13.3348 18.2323L13.352 18.8321ZM11.8745 18.8463C12.3634 18.8464 12.8576 18.8465 13.3521 18.8321L13.3347 18.2323C12.8503 18.2465 12.365 18.2464 11.8746 18.2463L11.8745 18.8463ZM11.2592 18.8473C11.4639 18.8462 11.6687 18.8463 11.8745 18.8463L11.8746 18.2463C11.6691 18.2463 11.4627 18.2462 11.2562 18.2473L11.2592 18.8473ZM10.8756 18.8474C11.0094 18.8475 11.134 18.8476 11.2586 18.8473L11.2568 18.2473C11.1335 18.2476 11.0102 18.2475 10.8761 18.2474L10.8756 18.8474ZM10.8756 18.8474H10.8759V18.2474H10.8756V18.8474ZM10.653 18.8473L10.8754 18.8474L10.8758 18.2474L10.6534 18.2473L10.653 18.8473ZM10.9466 18.6889C10.9487 18.6486 10.9509 18.6057 10.9529 18.5606L10.3535 18.5339C10.3516 18.5764 10.3495 18.6172 10.3474 18.6578L10.9466 18.6889ZM10.9372 18.9334C10.9379 18.8574 10.9418 18.7803 10.9466 18.6889L10.3474 18.6578C10.3428 18.7468 10.3381 18.8367 10.3372 18.9277L10.9372 18.9334ZM10.9343 19.6647C10.9347 19.4199 10.935 19.1764 10.9372 18.9332L10.3372 18.9279C10.335 19.1737 10.3347 19.4194 10.3343 19.6638L10.9343 19.6647ZM10.9129 21.2796C10.9328 20.7394 10.9336 20.1989 10.9343 19.6647L10.3343 19.6638C10.3336 20.1998 10.3328 20.7297 10.3133 21.2575L10.9129 21.2796ZM9.77994 22.4022C10.0852 22.4116 10.3697 22.315 10.5808 22.1065C10.7907 21.8992 10.9007 21.6088 10.9129 21.2797L10.3133 21.2574C10.3055 21.4673 10.2387 21.601 10.1592 21.6795C10.081 21.7568 9.96359 21.8075 9.79839 21.8025L9.77994 22.4022ZM8.71449 21.2469C8.7173 21.5685 8.81542 21.8561 9.01151 22.0684C9.2088 22.2819 9.48114 22.3927 9.77968 22.4022L9.79864 21.8025C9.63936 21.7974 9.52666 21.7418 9.45221 21.6612C9.37656 21.5793 9.31625 21.4452 9.31447 21.2416L8.71449 21.2469ZM8.70281 17.655C8.70332 18.8511 8.70382 20.0489 8.71449 21.2469L9.31447 21.2416C9.30382 20.0465 9.30332 18.8512 9.30281 17.6547L8.70281 17.655ZM8.70188 16.4216C8.70246 16.8326 8.70264 17.2437 8.70281 17.655L9.30281 17.6547C9.30264 17.2435 9.30246 16.8321 9.30188 16.4207L8.70188 16.4216ZM8.7011 16.1647L8.70188 16.4221L9.30188 16.4203L9.3011 16.1628L8.7011 16.1647ZM8.7042 15.0017C8.69853 15.3905 8.69983 15.7791 8.7011 16.1647L9.3011 16.1628C9.29982 15.7762 9.29856 15.3929 9.30414 15.0105L8.7042 15.0017ZM9.98251 13.7062C9.59778 13.7095 9.24981 13.7758 9.00999 14.0222C8.77281 14.266 8.70988 14.6166 8.7042 15.0017L9.30414 15.0105C9.30935 14.6568 9.3719 14.5107 9.43998 14.4407C9.50542 14.3735 9.64248 14.3092 9.98774 14.3062L9.98251 13.7062ZM12.749 13.7014C11.8282 13.6997 10.9055 13.698 9.98248 13.7062L9.98777 14.3062C10.907 14.2981 11.8266 14.2997 12.7479 14.3014L12.749 13.7014ZM13.7292 13.7027C13.4026 13.7025 13.0759 13.702 12.749 13.7014L12.7479 14.3014C13.0748 14.302 13.4018 14.3025 13.7289 14.3027L13.7292 13.7027ZM13.9932 13.7223C13.9165 13.7128 13.8248 13.7027 13.729 13.7027V14.3027C13.7856 14.3027 13.8464 14.3088 13.9198 14.3178L13.9932 13.7223ZM14.8448 14.596C14.8376 14.3662 14.7572 14.1552 14.5958 13.9946C14.4374 13.8369 14.2252 13.7517 13.9942 13.7224L13.9188 14.3177C14.054 14.3348 14.1308 14.3783 14.1725 14.4199C14.2113 14.4584 14.242 14.5169 14.2451 14.6149L14.8448 14.596ZM14.0308 15.5416C14.2682 15.5013 14.4814 15.402 14.6332 15.2286C14.7872 15.0529 14.8522 14.8306 14.8448 14.596L14.2451 14.6149C14.2486 14.7248 14.2191 14.7908 14.1819 14.8332C14.1427 14.878 14.0683 14.9266 13.9304 14.95L14.0308 15.5416ZM13.5555 15.5771C13.7054 15.5765 13.8681 15.5692 14.0308 15.5416L13.9303 14.95C13.8135 14.9699 13.6874 14.9765 13.553 14.9771L13.5555 15.5771ZM11.7535 15.578C12.3536 15.5783 12.9544 15.5787 13.5551 15.5771L13.5535 14.9771C12.954 14.9787 12.3541 14.9783 11.7538 14.978L11.7535 15.578ZM10.9821 15.5777C11.2391 15.5777 11.4962 15.5778 11.7535 15.578L11.7538 14.978C11.4966 14.9778 11.2394 14.9777 10.9821 14.9777V15.5777ZM10.6549 15.5771C10.7766 15.5771 10.8789 15.5771 10.9804 15.5776L10.9838 14.9777C10.8803 14.9771 10.7762 14.9771 10.6549 14.9771V15.5771ZM19.1688 17.3822C19.1688 17.6296 19.1699 17.877 19.171 18.1235L19.771 18.1208C19.7699 17.874 19.7688 17.628 19.7688 17.3822H19.1688ZM19.5622 17.6671C19.5539 17.6699 19.5422 17.6734 19.5277 17.6763C19.5204 17.6778 19.5118 17.6793 19.5021 17.6804C19.4973 17.6809 19.4921 17.6814 19.4866 17.6817C19.4838 17.6819 19.4809 17.682 19.4779 17.6821C19.4765 17.6821 19.475 17.6822 19.4734 17.6822C19.4727 17.6822 19.4719 17.6822 19.4711 17.6822C19.4707 17.6822 19.4703 17.6822 19.4699 17.6822C19.4697 17.6822 19.4696 17.6822 19.4694 17.6822C19.4693 17.6822 19.4691 17.6822 19.4691 17.6822C19.4689 17.6822 19.4688 17.6822 19.4688 17.3822C19.4688 17.0822 19.4686 17.0822 19.4685 17.0822C19.4684 17.0822 19.4683 17.0822 19.4682 17.0822C19.468 17.0822 19.4678 17.0822 19.4676 17.0822C19.4672 17.0822 19.4668 17.0822 19.4664 17.0822C19.4656 17.0822 19.4649 17.0822 19.4641 17.0823C19.4626 17.0823 19.4611 17.0823 19.4596 17.0824C19.4566 17.0825 19.4537 17.0826 19.4509 17.0827C19.4453 17.0831 19.4401 17.0836 19.4351 17.0841C19.4254 17.0852 19.4165 17.0867 19.4088 17.0882C19.3936 17.0913 19.3807 17.0951 19.3707 17.0985L19.5622 17.6671ZM19.1688 16.6147C19.1676 16.8702 19.1665 17.1264 19.1665 17.3828H19.7665C19.7665 17.128 19.7676 16.8731 19.7688 16.6174L19.1688 16.6147ZM19.1614 14.79C19.1742 15.3963 19.1715 16.0032 19.1688 16.6147L19.7688 16.6174C19.7715 16.0071 19.7743 15.3925 19.7612 14.7773L19.1614 14.79ZM18.7042 14.3007C18.8604 14.3064 18.9669 14.358 19.0347 14.4274C19.1023 14.4966 19.1578 14.6104 19.1614 14.7897L19.7613 14.7776C19.7551 14.4752 19.657 14.2057 19.4638 14.008C19.2708 13.8105 19.009 13.7115 18.7264 13.7011L18.7042 14.3007ZM18.1704 14.7574C18.1987 14.5657 18.2649 14.4583 18.3363 14.3982C18.4071 14.3384 18.5201 14.2939 18.7043 14.3007L18.7262 13.7011C18.4349 13.6904 18.1628 13.7597 17.9496 13.9394C17.7369 14.1186 17.6201 14.3763 17.5768 14.6698L18.1704 14.7574ZM18.1398 15.2033C18.1403 15.0502 18.1489 14.9008 18.1703 14.758L17.5769 14.6693C17.5501 14.8483 17.5404 15.0279 17.5398 15.2012L18.1398 15.2033ZM18.1386 16.748C18.1387 16.2326 18.1387 15.7177 18.1398 15.2029L17.5398 15.2016C17.5387 15.7172 17.5387 16.2327 17.5386 16.748L18.1386 16.748ZM18.134 19.2471C18.1386 18.4136 18.1386 17.5802 18.1386 16.748L17.5386 16.748C17.5386 17.5805 17.5386 18.4122 17.534 19.2438L18.134 19.2471ZM18.0553 20.1643C18.1178 19.8563 18.1323 19.5406 18.134 19.2472L17.534 19.2436C17.5324 19.5235 17.5182 19.7938 17.4672 20.045L18.0553 20.1643ZM16.8459 21.2238C17.1456 21.215 17.4207 21.1258 17.6395 20.9349C17.857 20.7451 17.9914 20.4786 18.0553 20.1644L17.4673 20.045C17.4228 20.264 17.34 20.3999 17.245 20.4828C17.1512 20.5647 17.0184 20.6185 16.8282 20.6241L16.8459 21.2238ZM15.5783 20.2524C15.6708 20.556 15.8161 20.8118 16.0408 20.9869C16.2691 21.1648 16.5451 21.2329 16.8461 21.2238L16.828 20.6241C16.6304 20.6301 16.5019 20.5856 16.4096 20.5136C16.3138 20.4389 16.2224 20.3076 16.1522 20.0774L15.5783 20.2524ZM15.4871 19.9235C15.5149 20.0289 15.5444 20.1409 15.5782 20.2522L16.1522 20.0775C16.1222 19.9788 16.0956 19.8779 16.0673 19.7705L15.4871 19.9235ZM15.3344 19.4177C15.3946 19.5738 15.4385 19.7391 15.4871 19.9235L16.0673 19.7705C16.0201 19.5917 15.9683 19.394 15.8942 19.2017L15.3344 19.4177ZM14.8628 19.2076C15.0305 19.1832 15.1286 19.2016 15.1864 19.2297C15.2362 19.254 15.2894 19.3014 15.3345 19.4179L15.8941 19.2015C15.8068 18.9758 15.6632 18.7945 15.449 18.6903C15.2428 18.5899 15.0097 18.5799 14.7763 18.6139L14.8628 19.2076ZM14.5219 19.5635C14.5496 19.3643 14.6827 19.2339 14.8629 19.2076L14.7762 18.6139C14.3215 18.6803 13.9905 19.0281 13.9276 19.4809L14.5219 19.5635ZM16.0907 21.8693C15.0969 21.663 14.3778 20.6102 14.522 19.5631L13.9276 19.4813C13.7429 20.822 14.6476 22.1825 15.9687 22.4568L16.0907 21.8693ZM17.0407 21.9373C16.718 21.9494 16.3931 21.932 16.0906 21.8693L15.9688 22.4568C16.3309 22.5318 16.7062 22.5503 17.0631 22.5369L17.0407 21.9373ZM19.1665 19.745C19.1544 20.4226 18.9387 20.9529 18.5837 21.3187C18.2289 21.6842 17.7096 21.912 17.0405 21.9373L17.0633 22.5369C17.8599 22.5067 18.5347 22.2307 19.0142 21.7366C19.4935 21.2427 19.7521 20.5574 19.7664 19.7557L19.1665 19.745ZM19.171 18.1235C19.1735 18.6668 19.1759 19.2064 19.1665 19.7451L19.7664 19.7556C19.7759 19.2091 19.7735 18.663 19.771 18.1208L19.171 18.1235Z"/></g><rect width="34" height="34" x="1" y="1" stroke="#FFDE55" stroke-width="2" rx="17"/><defs><clipPath id="a"><rect width="32" height="32" x="2" y="2" fill="#fff" rx="16"/></clipPath></defs></svg>