<svg xmlns="http://www.w3.org/2000/svg" enable-background="new 0 0 128 128" viewBox="0 0 128 128"><circle cx="64" cy="64" r="64" fill="#FC6"/><path fill="#333" d="M54.793,82.225c-2.234-1.09-4.146-2.534-5.746-4.336c-1.597-1.803-2.827-3.884-3.691-6.244    c-0.861-2.355-1.294-4.88-1.294-7.57c0-2.891,0.396-5.58,1.181-8.064c0.785-2.487,1.952-4.683,3.499-6.585    c1.549-1.902,3.451-3.436,5.709-4.605c2.256-1.167,4.858-1.876,7.802-2.131v-6.466h4.489v6.466c2.079,0,4.121,0.358,6.126,1.066    c2.005,0.712,3.805,1.713,5.404,3.007c1.597,1.293,2.89,2.866,3.878,4.719c0.99,1.852,1.536,3.918,1.639,6.202H73.207    c-0.15-1.826-0.835-3.389-2.053-4.683c-1.217-1.293-2.689-2.015-4.413-2.165v25.183c0.912-0.147,1.773-0.49,2.588-1.022    c0.812-0.532,1.507-1.181,2.092-1.938c0.582-0.765,1.051-1.613,1.407-2.551c0.355-0.938,0.534-1.887,0.534-2.854h10.576    c-0.203,2.432-0.774,4.629-1.71,6.579c-0.94,1.954-2.169,3.63-3.691,5.026s-3.285,2.498-5.29,3.31    c-2.006,0.812-4.174,1.317-6.506,1.522v7.688h-4.489V84.09C59.512,83.932,57.024,83.316,54.793,82.225z M58.79,52.66    c-0.94,0.812-1.702,1.763-2.284,2.854c-0.585,1.091-1.004,2.282-1.257,3.575c-0.253,1.294-0.38,2.601-0.38,3.921    c0,1.37,0.127,2.727,0.38,4.068c0.253,1.346,0.658,2.616,1.217,3.807c0.559,1.191,1.307,2.234,2.245,3.12    c0.938,0.89,2.121,1.56,3.541,2.013V50.908C60.879,51.264,59.726,51.849,58.79,52.66z"/></svg>