<svg xmlns="http://www.w3.org/2000/svg" viewBox="0 0 512 512"><path d="M256 0C114.841 0 0 114.841 0 256s114.841 256 256 256 256-114.841 256-256S397.159 0 256 0zm0 501.333C120.724 501.333 10.667 391.276 10.667 256S120.724 10.667 256 10.667 501.333 120.724 501.333 256 391.276 501.333 256 501.333z"/><path d="M256 53.333C144.25 53.333 53.333 144.25 53.333 256S144.25 458.667 256 458.667 458.667 367.75 458.667 256 367.75 53.333 256 53.333zM256 448c-105.87 0-192-86.13-192-192S150.13 64 256 64s192 86.13 192 192-86.13 192-192 192zm0-406.112a5.333 5.333 0 0 0 5.333-5.333v-9.109a5.333 5.333 0 0 0-10.666 0v9.109A5.333 5.333 0 0 0 256 41.888zm0 428.224a5.333 5.333 0 0 0-5.333 5.333v9.109a5.333 5.333 0 0 0 10.666 0v-9.109a5.333 5.333 0 0 0-5.333-5.333zM194.052 45.414c.758 2.83 3.673 4.541 6.531 3.771a5.331 5.331 0 0 0 3.771-6.531l-2.357-8.799a5.32 5.32 0 0 0-6.531-3.771 5.331 5.331 0 0 0-3.771 6.531l2.357 8.799zm123.896 421.175a5.333 5.333 0 1 0-10.302 2.76l2.359 8.799c.766 2.859 3.709 4.536 6.531 3.771a5.332 5.332 0 0 0 3.771-6.531l-2.359-8.799zM141.659 68.622a5.338 5.338 0 0 0 7.286 1.953 5.336 5.336 0 0 0 1.953-7.286l-4.555-7.888a5.333 5.333 0 1 0-9.239 5.333l4.555 7.888zM370.344 443.38c-1.477-2.552-4.742-3.43-7.286-1.953a5.336 5.336 0 0 0-1.953 7.286l4.555 7.888a5.338 5.338 0 0 0 7.286 1.953 5.336 5.336 0 0 0 1.953-7.286l-4.555-7.888z"/><path d="M97.057 104.599a5.332 5.332 0 1 0 7.542-7.542l-6.44-6.44a5.332 5.332 0 1 0-7.542 7.542l6.44 6.44zm317.886 302.802a5.332 5.332 0 1 0-7.542 7.542l6.44 6.44a5.332 5.332 0 1 0 7.542-7.542l-6.44-6.44zM55.401 146.344l7.888 4.555a5.338 5.338 0 0 0 7.286-1.953 5.335 5.335 0 0 0-1.953-7.286l-7.888-4.555a5.332 5.332 0 0 0-7.286 1.953 5.336 5.336 0 0 0 1.953 7.286zm401.201 219.315-7.888-4.555a5.33 5.33 0 0 0-7.286 1.953 5.335 5.335 0 0 0 1.953 7.286l7.888 4.555a5.338 5.338 0 0 0 7.286-1.953 5.336 5.336 0 0 0-1.953-7.286zM33.854 201.997l8.799 2.357c2.862.771 5.775-.944 6.531-3.771a5.331 5.331 0 0 0-3.771-6.531l-8.799-2.357c-2.857-.781-5.768.927-6.531 3.771a5.33 5.33 0 0 0 3.771 6.531zm444.294 108.008-8.799-2.359a5.336 5.336 0 0 0-6.531 3.771 5.331 5.331 0 0 0 3.771 6.531l8.799 2.359c2.805.76 5.763-.9 6.531-3.771a5.331 5.331 0 0 0-3.771-6.531zM41.888 256a5.333 5.333 0 0 0-5.333-5.333h-9.109a5.333 5.333 0 0 0 0 10.666h9.109A5.333 5.333 0 0 0 41.888 256zm442.667-5.333h-9.109a5.333 5.333 0 0 0 0 10.666h9.109a5.333 5.333 0 0 0 0-10.666zM42.654 307.646l-8.799 2.359a5.332 5.332 0 0 0-3.771 6.531c.767 2.865 3.721 4.533 6.531 3.771l8.799-2.359a5.332 5.332 0 0 0 3.771-6.531 5.33 5.33 0 0 0-6.531-3.771zm426.695-103.292 8.799-2.357a5.331 5.331 0 0 0 3.771-6.531c-.763-2.844-3.674-4.552-6.531-3.771l-8.799 2.357a5.331 5.331 0 0 0-3.771 6.531c.758 2.831 3.673 4.542 6.531 3.771zm-406.06 156.75-7.888 4.555a5.336 5.336 0 0 0-1.953 7.286 5.338 5.338 0 0 0 7.286 1.953l7.888-4.555a5.336 5.336 0 0 0 1.953-7.286c-1.476-2.549-4.739-3.429-7.286-1.953zm387.979-224-7.888 4.555a5.336 5.336 0 0 0-1.953 7.286 5.338 5.338 0 0 0 7.286 1.953l7.888-4.555a5.336 5.336 0 0 0 1.953-7.286 5.337 5.337 0 0 0-7.286-1.953zM97.057 407.401l-6.44 6.44a5.332 5.332 0 1 0 7.542 7.542l6.44-6.44a5.332 5.332 0 1 0-7.542-7.542zm317.886-302.802 6.44-6.44a5.332 5.332 0 1 0-7.542-7.542l-6.44 6.44a5.332 5.332 0 1 0 7.542 7.542zM148.945 441.427a5.326 5.326 0 0 0-7.286 1.953l-4.555 7.888a5.335 5.335 0 0 0 1.953 7.286 5.338 5.338 0 0 0 7.286-1.953l4.555-7.888a5.335 5.335 0 0 0-1.953-7.286zM363.057 70.576a5.338 5.338 0 0 0 7.286-1.953l4.555-7.888a5.335 5.335 0 0 0-1.953-7.286 5.33 5.33 0 0 0-7.286 1.953l-4.555 7.888a5.336 5.336 0 0 0 1.953 7.286zM200.583 462.818a5.31 5.31 0 0 0-6.531 3.771l-2.357 8.799a5.331 5.331 0 0 0 3.771 6.531c2.862.771 5.775-.944 6.531-3.771l2.357-8.799a5.331 5.331 0 0 0-3.771-6.531zM311.417 49.185c2.823.765 5.766-.912 6.531-3.771l2.359-8.799a5.331 5.331 0 0 0-3.771-6.531c-2.841-.766-5.768.93-6.531 3.771l-2.359 8.799a5.331 5.331 0 0 0 3.771 6.531zm15.708 309.047H214.674c13.431-12.274 21.893-32.733 21.904-48.32V254.642h41.036c2.948 0 5.333-2.388 5.333-5.333s-2.385-5.333-5.333-5.333h-41.036v-75.555c0-19.841 16.141-35.984 35.984-35.984 19.839 0 35.979 16.143 35.979 35.984 0 2.945 2.385 5.333 5.333 5.333s5.333-2.388 5.333-5.333c0-25.724-20.927-46.651-46.646-46.651-25.714 0-46.635 20.911-46.651 46.622v75.583h-41.036c-2.948 0-5.333 2.388-5.333 5.333s2.385 5.333 5.333 5.333h41.036v55.242c0 21.112-17.448 48.349-35.984 48.349-2.948 0-5.333 2.388-5.333 5.333s2.385 5.333 5.333 5.333h137.198c2.948 0 5.333-2.388 5.333-5.333s-2.384-5.333-5.332-5.333z"/></svg>