<svg xmlns="http://www.w3.org/2000/svg" viewBox="0 0 512 512"><g transform="matrix(1.00623 0 0 1.00623 -19.834 -553.828)"><g transform="translate(0 540.362)"><g style="line-height:125%" fill="#f69b1f" font-family="Sans" font-size="121.951" font-weight="400" letter-spacing="0" word-spacing="0"><path d="m 82.59375,16 0,480 36.25231,16.90473 0,-480 z"/><path d="M82.59375 496l122.90625 0 36.25231 16.90473-122.90625 0zM205.5 496c144.87791 0 223.90625-89.26082 223.90625-242.1875l36.25231 16.90473c0 152.92668-79.02834 242.1875-223.90625 242.1875z"/><path d="m 429.40625,253.8125 c 0,-106.81241 -38.9146,-180.832664 -113.21422,-215.479144 l 36.25231,16.90473 c 74.29962,34.64648 113.21422,108.666734 113.21422,215.479144 z"/><path d="M 316.19203,38.333356 C 284.62353,23.612725 246.6672,16 202.59375,16 l 36.25231,16.90473 c 44.07345,0 82.02979,7.612725 113.59828,22.333356 z"/><path d="M202.59375 16l-120 0 36.25231 16.90473 120 0zM143.3125 65.75l54.875 0 36.25231 16.90473-54.875 0z"/><path d="m 198.1875,65.75 c 32.00114,0 59.46005,5.501594 82.35872,16.179418 l 36.25231,16.90473 C 293.89986,88.156324 266.44095,82.65473 234.43981,82.65473 z"/><path d="M280.54622 81.929418C337.75505 108.60633 366.5 167.59194 366.5 253.8125l36.25231 16.90473c0-86.22056-28.74495-145.20616-85.95378-171.883082zM366.5 253.8125C366.5 375.2758 310.13861 446.25 198.1875 446.25l36.25231 16.90473c111.95111 0 168.3125-70.9742 168.3125-192.4375z"/><path d="m 198.1875,446.25 -54.875,0 36.25231,16.90473 54.875,0 z"/><path d="m 143.3125,446.25 0,-380.5 36.25231,16.90473 0,380.5 z"/></g><path d="m 82.59375,16 0,480 L 205.5,496 C 350.37791,496 429.40625,406.73918 429.40625,253.8125 429.40625,101.61753 350.39848,16 202.59375,16 l -120,0 z m 60.71875,49.75 54.875,0 C 310.13861,65.75 366.5,133.08091 366.5,253.8125 366.5,375.2758 310.13861,446.25 198.1875,446.25 l -54.875,0 0,-380.5 z" style="line-height:125%" fill="#f69b1f" font-family="Sans" font-size="121.951" font-weight="400" letter-spacing="0" word-spacing="0"/></g><path style="line-height:125%" fill="#fcd116" d="m 82.59375,16 0,480 L 205.5,496 C 350.37791,496 429.40625,406.73918 429.40625,253.8125 429.40625,101.61753 350.39848,16 202.59375,16 l -120,0 z m 60.71875,49.75 54.875,0 C 310.13861,65.75 366.5,133.08091 366.5,253.8125 366.5,375.2758 310.13861,446.25 198.1875,446.25 l -54.875,0 0,-380.5 z" font-family="Sans" font-size="121.951" font-weight="400" letter-spacing="0" transform="translate(0 540.362)" word-spacing="0"/></g></svg>