<svg xmlns="http://www.w3.org/2000/svg" fill="none" viewBox="0 0 64 64"><path fill="#50D9D7" d="M29.8813 50.9469C26.1543 52.3403 22.1038 52.6259 18.2181 51.7693C14.3325 50.9127 10.7775 48.9504 7.98194 46.119C5.18634 43.2876 3.26941 39.708 2.46227 35.8118C1.65512 31.9156 1.99222 27.869 3.43291 24.1601C4.87361 20.4511 7.3564 17.238 10.5819 14.9082C13.8075 12.5784 17.6381 11.2314 21.6119 11.0295C25.5858 10.8276 29.5332 11.7795 32.9782 13.7704C36.4233 15.7613 39.2189 18.7061 41.0281 22.25C42.3499 24.8391 43.1094 27.6783 43.2569 30.5814C43.4044 33.4846 42.9365 36.3861 41.884 39.0958C40.8315 41.8055 39.218 44.2621 37.1495 46.3044C35.081 48.3468 32.6041 49.9289 29.8813 50.9469V50.9469Z"/><path fill="#93E6E5" d="M43.2781 32.5626C43.3156 31.9382 43.3156 31.3121 43.2781 30.6876H33.9031C33.8193 27.7902 33.2126 24.9318 32.1125 22.2501H41.0281C40.7042 21.6035 40.341 20.9774 39.9406 20.3751H31.2125C29.2556 16.7668 26.5286 13.6333 23.225 11.197C23.0611 11.0708 22.86 11.0024 22.6531 11.0024C22.4463 11.0024 22.2452 11.0708 22.0813 11.197C18.7751 13.6306 16.0476 16.7647 14.0938 20.3751H5.36563C4.96524 20.9774 4.60207 21.6035 4.27813 22.2501H13.2219C12.1121 24.93 11.4959 27.7885 11.4031 30.6876H2.02813C1.99062 31.3121 1.99062 31.9382 2.02813 32.5626H11.4031C11.487 35.46 12.0936 38.3184 13.1938 41.0001H4.27813C4.60207 41.6467 4.96524 42.2729 5.36563 42.8751H14.0938C16.0476 46.4856 18.7751 49.6197 22.0813 52.0533C22.2452 52.1794 22.4463 52.2479 22.6531 52.2479C22.86 52.2479 23.0611 52.1794 23.225 52.0533C26.5335 49.6222 29.2615 46.4875 31.2125 42.8751H39.9406C40.341 42.2729 40.7042 41.6467 41.0281 41.0001H32.0844C33.1942 38.3202 33.8103 35.4618 33.9031 32.5626H43.2781ZM22.6531 13.1283C25.2238 15.1229 27.3987 17.5808 29.0656 20.3751H16.2406C17.9116 17.5838 20.0859 15.1266 22.6531 13.1283V13.1283ZM22.6531 50.122C20.0859 48.1237 17.9116 45.6665 16.2406 42.8751H29.0656C27.3957 45.6673 25.2212 48.1246 22.6531 50.122V50.122ZM30.0313 41.0001H15.275C14.0563 38.3479 13.3775 35.4797 13.2781 32.5626H32.0281C31.9287 35.4797 31.2499 38.3479 30.0313 41.0001V41.0001ZM13.2781 30.6876C13.3687 27.7724 14.0379 24.9043 15.2469 22.2501H30.0313C31.2499 24.9023 31.9287 27.7705 32.0281 30.6876H13.2781Z"/><path fill="#00BEBD" d="M39.9406 20.375H31.2125C30.0623 18.2008 28.607 16.2024 26.8906 14.4406 27.8275 13.6477 28.8277 12.9328 29.8812 12.3031 34.0111 13.8492 37.5366 16.6782 39.9406 20.375V20.375zM39.9406 42.875C37.5366 46.5718 34.0111 49.4008 29.8812 50.9469 28.8277 50.3171 27.8275 49.6023 26.8906 48.8094 28.607 47.0475 30.0623 45.0492 31.2125 42.875H39.9406zM32.0281 32.5625C31.9376 35.4777 31.2683 38.3458 30.0594 41H20.9562C19.7261 38.349 19.0286 35.4823 18.9031 32.5625H32.0281zM32.0281 30.6875H18.9031C19.0227 27.769 19.7139 24.9023 20.9375 22.25H30.0125C31.2376 24.9009 31.9228 27.7691 32.0281 30.6875V30.6875zM29.0656 20.375H21.9219C22.9111 18.6639 24.1181 17.0882 25.5125 15.6875 26.8797 17.1026 28.0726 18.6763 29.0656 20.375V20.375zM29.0656 42.875C28.0726 44.5737 26.8797 46.1474 25.5125 47.5625 24.1181 46.1618 22.9111 44.5861 21.9219 42.875H29.0656z"/><path fill="#50D9D7" d="M33.9031 32.5625C33.8192 35.4599 33.2126 38.3183 32.1125 41H41.0281C40.7042 41.6466 40.341 42.2727 39.9406 42.875H31.2125C30.0623 45.0491 28.607 47.0475 26.8906 48.8094C26.4125 48.4062 25.9531 47.9844 25.5125 47.5344C26.8797 46.1193 28.0726 44.5456 29.0656 42.8469H21.9219C21.575 42.2375 21.2469 41.6187 20.9844 40.9719H30.0594C31.2647 38.3263 31.9339 35.4681 32.0281 32.5625H18.9031C18.9031 31.7375 18.9031 31.5125 18.9031 30.6875H32.0281C31.9376 27.7723 31.2683 24.9042 30.0594 22.25H20.9562C21.2469 21.6031 21.575 20.9844 21.8937 20.375H29.0375C28.0445 18.6762 26.8516 17.1025 25.4844 15.6875C25.925 15.2375 26.4219 14.8156 26.8625 14.4125C28.591 16.1811 30.056 18.1891 31.2125 20.375H39.9406C40.341 20.9772 40.7042 21.6034 41.0281 22.25H32.0844C33.1942 24.9299 33.8103 27.7884 33.9031 30.6875H43.2781C43.3156 31.3119 43.3156 31.938 43.2781 32.5625H33.9031Z"/><path fill="#EA9706" d="M41.4031 52.25C52.794 52.25 62.0281 43.0159 62.0281 31.625C62.0281 20.2341 52.794 11 41.4031 11C30.0122 11 20.7781 20.2341 20.7781 31.625C20.7781 43.0159 30.0122 52.25 41.4031 52.25Z"/><path fill="#FFAC00" d="M41.4031 48.5C50.7229 48.5 58.2781 40.9448 58.2781 31.625C58.2781 22.3052 50.7229 14.75 41.4031 14.75C32.0833 14.75 24.5281 22.3052 24.5281 31.625C24.5281 40.9448 32.0833 48.5 41.4031 48.5Z"/><g clip-path="url(#a)"><path fill="#fff" d="M30.365 33.255L31.445 32.815C31.5161 32.7839 31.5717 32.7483 31.6117 32.7083C31.6561 32.6639 31.6783 32.5928 31.6783 32.495V25.555C31.6783 25.4661 31.6539 25.4017 31.605 25.3617C31.5606 25.3217 31.5072 25.2883 31.445 25.2617L30.365 24.8217V24.2017H38.8717V26.975H37.8583L37.525 25.695C37.5028 25.6106 37.4672 25.5483 37.4183 25.5083C37.3694 25.4639 37.3094 25.4417 37.2383 25.4417H33.9783V28.3817H35.7983C35.8917 28.3817 35.9561 28.3594 35.9917 28.315C36.0317 28.2661 36.0628 28.2061 36.085 28.135L36.4183 27.095H37.245V30.8483H36.4183L36.085 29.815C36.0583 29.7261 36.0272 29.6617 35.9917 29.6217C35.9561 29.5817 35.8917 29.5617 35.7983 29.5617H33.9783V32.495C33.9783 32.5928 34.0006 32.6639 34.045 32.7083C34.0939 32.7528 34.1539 32.7883 34.225 32.815L35.3517 33.255V33.875H30.365V33.255ZM45.1093 34.095C44.407 34.095 43.7448 33.9883 43.1226 33.775C42.5004 33.5572 41.9559 33.2372 41.4893 32.815C41.027 32.3928 40.6604 31.8683 40.3893 31.2417C40.1226 30.615 39.9893 29.8906 39.9893 29.0683C39.9893 28.2861 40.1204 27.5817 40.3826 26.955C40.6448 26.3283 41.0093 25.795 41.4759 25.355C41.9426 24.915 42.4982 24.5772 43.1426 24.3417C43.7915 24.1061 44.5004 23.9883 45.2693 23.9883C45.7582 23.9883 46.1937 24.0061 46.5759 24.0417C46.9582 24.0728 47.3004 24.115 47.6026 24.1683C47.9048 24.2172 48.1759 24.2706 48.4159 24.3283C48.6604 24.3817 48.887 24.4306 49.0959 24.475V27.2417H48.0826L47.7493 25.935C47.7315 25.8683 47.6893 25.8128 47.6226 25.7683C47.5604 25.7239 47.5004 25.6906 47.4426 25.6683C47.287 25.6017 47.1137 25.5417 46.9226 25.4883C46.7359 25.4306 46.5448 25.3817 46.3493 25.3417C46.1537 25.2972 45.9604 25.2639 45.7693 25.2417C45.5782 25.2194 45.4026 25.2083 45.2426 25.2083C44.8426 25.2083 44.4693 25.2817 44.1226 25.4283C43.7804 25.575 43.4848 25.7972 43.2359 26.095C42.987 26.3883 42.7915 26.7617 42.6493 27.215C42.507 27.6639 42.4359 28.1906 42.4359 28.795C42.4359 29.3994 42.4982 29.9528 42.6226 30.455C42.7515 30.9528 42.9382 31.3817 43.1826 31.7417C43.4315 32.1017 43.7359 32.3817 44.0959 32.5817C44.4604 32.7817 44.8782 32.8817 45.3493 32.8817C45.5359 32.8817 45.7093 32.8683 45.8693 32.8417C46.0293 32.815 46.1737 32.7817 46.3026 32.7417C46.4315 32.7017 46.5448 32.6617 46.6426 32.6217C46.7404 32.5817 46.8204 32.5483 46.8826 32.5217V30.5483C46.8826 30.4594 46.8582 30.395 46.8093 30.355C46.7648 30.315 46.7115 30.2839 46.6493 30.2617L45.2093 29.8017V29.195H50.2493V29.8017L49.4026 30.2617C49.3448 30.2928 49.2893 30.3261 49.2359 30.3617C49.187 30.3972 49.1626 30.4594 49.1626 30.5483V31.595C49.1626 32.035 49.1648 32.4039 49.1693 32.7017C49.1737 32.9994 49.187 33.235 49.2093 33.4083C48.9382 33.4972 48.6404 33.5839 48.3159 33.6683C47.9959 33.7483 47.6582 33.8194 47.3026 33.8817C46.9515 33.9483 46.5893 33.9994 46.2159 34.035C45.847 34.075 45.4782 34.095 45.1093 34.095Z"/></g><defs><clipPath id="a"><rect width="36" height="36" fill="#fff" transform="translate(24 13)"/></clipPath></defs></svg>