<svg xmlns="http://www.w3.org/2000/svg" enable-background="new 0 0 128 128" viewBox="0 0 128 128"><circle cx="64" cy="64" r="64" fill="#C9C"/><path fill="#333" d="M74.95,83.463c-2.999,1.727-6.646,2.598-10.95,2.598c-3.462,0-6.571-0.607-9.338-1.809    c-2.761-1.201-5.095-2.855-6.992-4.969c-1.897-2.107-3.352-4.584-4.368-7.436c-1.012-2.846-1.518-5.918-1.518-9.208    c0-3.375,0.506-6.508,1.518-9.398c1.017-2.891,2.471-5.412,4.368-7.564s4.231-3.839,6.992-5.062    c2.767-1.225,5.876-1.836,9.338-1.836c3.504,0,6.624,0.611,9.364,1.836c2.745,1.223,5.068,2.909,6.966,5.062    c1.896,2.152,3.352,4.674,4.363,7.564s1.522,6.023,1.522,9.398c0,3.29-0.511,6.353-1.522,9.177    c-1.012,2.83-2.467,5.316-4.363,7.467l5.628,5.127l-4.616,4.811L74.95,83.463z M73.49,73.023c0.843-1.145,1.522-2.557,2.028-4.242    c0.506-1.689,0.76-3.738,0.76-6.142c0-1.981-0.222-3.902-0.664-5.76c-0.443-1.857-1.154-3.512-2.124-4.967    c-0.97-1.457-2.234-2.616-3.794-3.482c-1.56-0.864-3.457-1.297-5.696-1.297s-4.137,0.433-5.696,1.297    c-1.56,0.861-2.824,2.018-3.799,3.472c-0.97,1.452-1.676,3.106-2.119,4.959c-0.442,1.853-0.669,3.768-0.669,5.746    c0,1.895,0.227,3.74,0.669,5.525c0.443,1.791,1.149,3.404,2.119,4.832c0.975,1.434,2.239,2.576,3.799,3.447    c1.56,0.857,3.457,1.291,5.696,1.291c1.054,0,1.854-0.037,2.403-0.117c0.553-0.068,1.08-0.221,1.586-0.453l-4.242-3.857    l4.621-4.938L73.49,73.023z"/></svg>