<svg xmlns="http://www.w3.org/2000/svg" fill="none" viewBox="0 0 64 64"><path fill="#50D9D7" d="M29.8813 50.9469C26.1543 52.3403 22.1038 52.6259 18.2181 51.7693C14.3325 50.9127 10.7775 48.9504 7.98194 46.119C5.18634 43.2876 3.26941 39.708 2.46227 35.8118C1.65512 31.9156 1.99222 27.869 3.43291 24.1601C4.87361 20.4511 7.3564 17.238 10.5819 14.9082C13.8075 12.5784 17.6381 11.2314 21.6119 11.0295C25.5858 10.8276 29.5332 11.7795 32.9782 13.7704C36.4233 15.7613 39.2189 18.7061 41.0281 22.25C42.3499 24.8391 43.1094 27.6783 43.2569 30.5814C43.4044 33.4846 42.9365 36.3861 41.884 39.0958C40.8315 41.8055 39.218 44.2621 37.1495 46.3044C35.081 48.3468 32.6041 49.9289 29.8813 50.9469V50.9469Z"/><path fill="#93E6E5" d="M43.2781 32.5626C43.3156 31.9382 43.3156 31.3121 43.2781 30.6876H33.9031C33.8193 27.7902 33.2126 24.9318 32.1125 22.2501H41.0281C40.7042 21.6035 40.341 20.9774 39.9406 20.3751H31.2125C29.2556 16.7668 26.5286 13.6333 23.225 11.197C23.0611 11.0708 22.86 11.0024 22.6531 11.0024C22.4463 11.0024 22.2452 11.0708 22.0813 11.197C18.7751 13.6306 16.0476 16.7647 14.0938 20.3751H5.36563C4.96524 20.9774 4.60207 21.6035 4.27813 22.2501H13.2219C12.1121 24.93 11.4959 27.7885 11.4031 30.6876H2.02813C1.99062 31.3121 1.99062 31.9382 2.02813 32.5626H11.4031C11.487 35.46 12.0936 38.3184 13.1938 41.0001H4.27813C4.60207 41.6467 4.96524 42.2729 5.36563 42.8751H14.0938C16.0476 46.4856 18.7751 49.6197 22.0813 52.0533C22.2452 52.1794 22.4463 52.2479 22.6531 52.2479C22.86 52.2479 23.0611 52.1794 23.225 52.0533C26.5335 49.6222 29.2615 46.4875 31.2125 42.8751H39.9406C40.341 42.2729 40.7042 41.6467 41.0281 41.0001H32.0844C33.1942 38.3202 33.8103 35.4618 33.9031 32.5626H43.2781ZM22.6531 13.1283C25.2238 15.1229 27.3987 17.5808 29.0656 20.3751H16.2406C17.9116 17.5838 20.0859 15.1266 22.6531 13.1283V13.1283ZM22.6531 50.122C20.0859 48.1237 17.9116 45.6665 16.2406 42.8751H29.0656C27.3957 45.6673 25.2212 48.1246 22.6531 50.122V50.122ZM30.0313 41.0001H15.275C14.0563 38.3479 13.3775 35.4797 13.2781 32.5626H32.0281C31.9287 35.4797 31.2499 38.3479 30.0313 41.0001V41.0001ZM13.2781 30.6876C13.3687 27.7724 14.0379 24.9043 15.2469 22.2501H30.0313C31.2499 24.9023 31.9287 27.7705 32.0281 30.6876H13.2781Z"/><path fill="#00BEBD" d="M39.9406 20.375H31.2125C30.0623 18.2008 28.607 16.2024 26.8906 14.4406 27.8275 13.6477 28.8277 12.9328 29.8812 12.3031 34.0111 13.8492 37.5366 16.6782 39.9406 20.375V20.375zM39.9406 42.875C37.5366 46.5718 34.0111 49.4008 29.8812 50.9469 28.8277 50.3171 27.8275 49.6023 26.8906 48.8094 28.607 47.0475 30.0623 45.0492 31.2125 42.875H39.9406zM32.0281 32.5625C31.9375 35.4777 31.2683 38.3458 30.0593 41H20.9562C19.7261 38.349 19.0285 35.4823 18.9031 32.5625H32.0281zM32.0281 30.6875H18.9031C19.0226 27.769 19.7138 24.9023 20.9375 22.25H30.0125C31.2376 24.9009 31.9228 27.7691 32.0281 30.6875V30.6875zM29.0656 20.375H21.9219C22.9111 18.6639 24.1181 17.0882 25.5125 15.6875 26.8797 17.1026 28.0726 18.6763 29.0656 20.375V20.375zM29.0656 42.875C28.0726 44.5737 26.8797 46.1474 25.5125 47.5625 24.1181 46.1618 22.9111 44.5861 21.9219 42.875H29.0656z"/><path fill="#50D9D7" d="M33.9031 32.5625C33.8192 35.4599 33.2126 38.3183 32.1125 41H41.0281C40.7041 41.6466 40.341 42.2727 39.9406 42.875H31.2125C30.0623 45.0491 28.6069 47.0475 26.8906 48.8094C26.4125 48.4062 25.9531 47.9844 25.5125 47.5344C26.8797 46.1193 28.0726 44.5456 29.0656 42.8469H21.9218C21.575 42.2375 21.2468 41.6187 20.9843 40.9719H30.0593C31.2647 38.3263 31.9338 35.4681 32.0281 32.5625H18.9031C18.9031 31.7375 18.9031 31.5125 18.9031 30.6875H32.0281C31.9375 27.7723 31.2683 24.9042 30.0593 22.25H20.9562C21.2468 21.6031 21.575 20.9844 21.8937 20.375H29.0375C28.0444 18.6762 26.8516 17.1025 25.4843 15.6875C25.925 15.2375 26.4218 14.8156 26.8625 14.4125C28.5909 16.1811 30.0559 18.1891 31.2125 20.375H39.9406C40.341 20.9772 40.7041 21.6034 41.0281 22.25H32.0843C33.1941 24.9299 33.8103 27.7884 33.9031 30.6875H43.2781C43.3156 31.3119 43.3156 31.938 43.2781 32.5625H33.9031Z"/><path fill="#EA9706" d="M41.4031 52.25C52.7939 52.25 62.0281 43.0159 62.0281 31.625C62.0281 20.2341 52.7939 11 41.4031 11C30.0122 11 20.7781 20.2341 20.7781 31.625C20.7781 43.0159 30.0122 52.25 41.4031 52.25Z"/><path fill="#FFAC00" d="M41.4031 48.5C50.7229 48.5 58.2781 40.9448 58.2781 31.625C58.2781 22.3052 50.7229 14.75 41.4031 14.75C32.0833 14.75 24.5281 22.3052 24.5281 31.625C24.5281 40.9448 32.0833 48.5 41.4031 48.5Z"/><g clip-path="url(#a)"><path fill="#fff" d="M37.5245 36.5678C38.6868 37.7238 40.1789 38.4911 41.7953 38.7642C43.4117 39.0373 45.073 38.8027 46.5506 38.0927C46.684 38.364 46.9051 38.5824 47.178 38.7125C47.451 38.8426 47.7598 38.8768 48.0546 38.8096C48.3494 38.7424 48.6129 38.5777 48.8025 38.3422C48.9921 38.1067 49.0967 37.8141 49.0994 37.5118V31.4266C49.0994 31.2505 49.0646 31.0762 48.997 30.9136C48.9294 30.751 48.8303 30.6034 48.7055 30.4792C48.5807 30.355 48.4325 30.2568 48.2696 30.1901C48.1066 30.1233 47.9321 30.0895 47.756 30.0904H43.9292C43.5909 30.1154 43.2745 30.2673 43.0437 30.5158C42.8128 30.7644 42.6845 31.091 42.6845 31.4302C42.6845 31.7694 42.8128 32.0961 43.0437 32.3446C43.2745 32.5931 43.5909 32.745 43.9292 32.77H46.4199V35.0283C45.6361 35.6678 44.6836 36.0661 43.6779 36.175C42.6722 36.2839 41.6565 36.0988 40.7539 35.642C39.8514 35.1852 39.1007 34.4763 38.5929 33.6014C38.0852 32.7265 37.8421 31.7231 37.8933 30.7128C37.9444 29.7025 38.2875 28.7288 38.881 27.9096C39.4745 27.0904 40.2929 26.461 41.2369 26.0977C42.181 25.7343 43.2102 25.6526 44.1998 25.8625C45.1893 26.0724 46.0967 26.5649 46.812 27.2802C46.9305 27.4275 47.0788 27.5481 47.2471 27.6341C47.4154 27.7202 47.6 27.7697 47.7888 27.7795C47.9776 27.7894 48.1663 27.7592 48.3427 27.6911C48.519 27.623 48.679 27.5184 48.8121 27.3842C48.9453 27.25 49.0486 27.0893 49.1154 26.9124C49.1822 26.7356 49.2108 26.5466 49.1996 26.3579C49.1883 26.1692 49.1373 25.985 49.05 25.8173C48.9627 25.6497 48.8409 25.5023 48.6928 25.385C47.2047 23.9267 45.2013 23.1146 43.1179 23.1251C41.0345 23.1356 39.0394 23.9679 37.5662 25.4412C36.0929 26.9144 35.2606 28.9095 35.2501 30.9929C35.2396 33.0763 36.0517 35.0797 37.51 36.5678H37.5245Z"/></g><defs><clipPath id="a"><rect width="36" height="36" fill="#fff" transform="translate(24 13)"/></clipPath></defs></svg>