<svg xmlns="http://www.w3.org/2000/svg" fill="none" viewBox="0 0 32 32"><g clip-path="url(#a)"><path fill="#497174" d="M16 31C24.2843 31 31 24.2843 31 16C31 7.71573 24.2843 1 16 1C7.71573 1 1 7.71573 1 16C1 24.2843 7.71573 31 16 31Z"/><path fill="#D6E4E5" d="M16 29.75C8.41875 29.75 2.25 23.5819 2.25 16C2.25 8.41813 8.41875 2.25 16 2.25C23.5819 2.25 29.75 8.41813 29.75 16C29.75 23.5819 23.5819 29.75 16 29.75Z"/><path fill="#497174" d="M16.0002 25.499C21.2462 25.499 25.499 21.2462 25.499 16.0002C25.499 10.7542 21.2462 6.50146 16.0002 6.50146C10.7542 6.50146 6.50146 10.7542 6.50146 16.0002C6.50146 21.2462 10.7542 25.499 16.0002 25.499Z"/><path fill="#D6E4E5" d="M16.0002 7.59521C11.3658 7.59521 7.59521 11.3652 7.59521 16.0002C7.59521 20.6346 11.3658 24.4046 16.0002 24.4046C20.634 24.4046 24.4046 20.634 24.4046 16.0002C24.4046 11.3658 20.6346 7.59521 16.0002 7.59521Z"/><path fill="#497174" d="M28.8292 15.727L28.0186 15.5857 27.6767 14.8926 27.2923 15.6201 26.5273 15.7313 27.0998 16.3213 26.9692 17.0826 27.708 16.7213 28.3923 17.0807 28.2767 16.2663 28.8292 15.727zM3.61166 17.0826L4.35104 16.7213 5.03416 17.0807 4.91854 16.2663 5.47104 15.727 4.66104 15.5857 4.31978 14.8926 3.93479 15.6201 3.17041 15.7313 3.74229 16.3213 3.61166 17.0826zM26.8686 12.6276L26.1592 12.9326 26.8648 13.3551 26.9361 14.1244 27.5561 13.5838 28.3092 13.7544 27.9873 12.9976 28.3817 12.3332 27.5623 12.4063 27.0523 11.8257 26.8686 12.6276zM5.74814 19.7994L5.42502 19.0425 5.82002 18.3787 5.00127 18.4519 4.49127 17.8706 4.30752 18.6731 3.59814 18.9781 4.30377 19.4006 4.37439 20.1694 4.99439 19.6294 5.74814 19.7994zM24.9668 10.3436L25.7574 10.5686 26.0249 11.2936 26.4837 10.6105 27.2555 10.5805 26.748 9.93234 26.958 9.18922 26.1843 9.47234 25.543 9.04297 25.5724 9.86547 24.9668 10.3436zM6.52002 21.6117L6.73002 20.8686 5.95689 21.1504 5.31502 20.7217 5.34502 21.5436 4.73877 22.0217 5.52877 22.2473 5.79689 22.9723 6.25627 22.2898 7.02814 22.2586 6.52002 21.6117zM23.9513 8.2525L24.3969 8.88375 24.6644 8.105 25.4019 7.87563 24.7444 7.38125 24.7531 6.60938 24.0806 7.0825 23.3488 6.83437 23.5906 7.62125 23.1294 8.23937 23.9513 8.2525zM8.23654 23.126L7.56404 23.5985 6.83279 23.3504 7.07404 24.1366 6.61279 24.7554 7.43467 24.7685 7.88029 25.3997 8.14779 24.621 8.88467 24.3916 8.22717 23.8979 8.23654 23.126zM20.8718 6.73098L21.6699 6.53035 22.2643 7.02473 22.3199 6.2041 22.9737 5.79098 22.2106 5.4841 22.0193 4.73535 21.4924 5.36723 20.7212 5.3166 21.1581 6.01348 20.8718 6.73098zM10.3412 24.9644L9.81311 25.5956 9.04248 25.545 9.47936 26.2419 9.19373 26.9594 9.99186 26.7594 10.585 27.2531 10.6406 26.4325 11.295 26.02 10.5312 25.7131 10.3412 24.9644zM18.3836 5.82105L19.1017 5.42105 19.8036 5.7448 19.6455 4.9373 20.1698 4.3698 19.353 4.27043 18.9755 3.59668 18.6286 4.34293 17.8711 4.49418 18.4742 5.05418 18.3836 5.82105zM13.308 26.8329L12.9299 26.1592 12.5837 26.9048 11.8262 27.0561 12.4287 27.6154 12.3374 28.3823 13.0568 27.9829 13.758 28.3061 13.6005 27.4986 14.1243 26.9317 13.308 26.8329zM17.0819 3.60742L16.2675 3.72305 15.7281 3.16992 15.5863 3.98055 14.895 4.32242 15.6206 4.70805 15.7325 5.4718 16.3225 4.89992 17.0844 5.03055 16.7219 4.29117 17.0819 3.60742zM17.0822 26.9647L16.2672 27.081 15.7278 26.5278 15.5859 27.3378 14.894 27.6797 15.6203 28.0647 15.7322 28.8297 16.3222 28.2572 17.084 28.3878 16.7215 27.6485 17.0822 26.9647zM13.7546 3.69004L12.9984 4.01254 12.334 3.61816 12.4071 4.43754 11.8271 4.94691 12.6284 5.13066 12.9334 5.84004 13.3565 5.13441 14.1246 5.06441 13.5846 4.44379 13.7546 3.69004zM19.8002 26.2516L19.0439 26.5741 18.3802 26.1797 18.4533 26.9984 17.8721 27.5084 18.6739 27.6922 18.9789 28.4016 19.4014 27.6959 20.1708 27.6253 19.6302 27.0053 19.8002 26.2516zM10.5814 4.74414L9.93332 5.25102 9.19082 5.04164 9.4727 5.81414 9.04395 6.45664 9.86582 6.42664 10.3446 7.03352 10.5696 6.24164 11.2946 5.97477 10.6114 5.51602 10.5814 4.74414zM22.2606 24.9717L21.6131 25.4798 20.87 25.2698 21.1525 26.0423 20.7231 26.6848 21.5456 26.6554 22.0231 27.2611 22.2494 26.4704 22.9744 26.2029 22.2913 25.7436 22.2606 24.9717zM7.87647 6.59814L7.38272 7.25627 6.61084 7.24564 7.08396 7.91939 6.83521 8.65064 7.62147 8.40877 8.24084 8.87064 8.25397 8.04877 8.88459 7.60252 8.10647 7.33564 7.87647 6.59814zM24.3929 23.1143L23.8998 23.7724 23.1279 23.7618 23.6004 24.4349 23.3517 25.1668 24.1379 24.9255 24.7567 25.3868 24.7704 24.5643 25.4011 24.1186 24.6223 23.8518 24.3929 23.1143zM5.31869 11.2789L6.01557 10.8414 6.73244 11.1276 6.53182 10.3301 7.02619 9.73574 6.20557 9.67949 5.79307 9.02637 5.48494 9.78949 4.73682 9.98012 5.36869 10.5076 5.31869 11.2789zM26.4335 21.3588L26.0216 20.7051 25.7135 21.4688 24.9653 21.6588 25.5966 22.1863 25.5466 22.9576 26.2428 22.5201 26.9603 22.8057 26.7591 22.0088 27.2535 21.4145 26.4335 21.3588zM4.49488 14.1282L5.05613 13.5257 5.82238 13.6163 5.42238 12.8976 5.74613 12.1963 4.93863 12.3545 4.37113 11.8301 4.27176 12.647 3.59863 13.0245 4.34426 13.3707 4.49488 14.1282zM28.3075 18.2411L27.5006 18.3992 26.9331 17.8755 26.8338 18.6917 26.1606 19.0692 26.9063 19.4155 27.0569 20.1736 27.6169 19.5711 28.3838 19.6617 27.9844 18.943 28.3075 18.2411z"/><path fill="#497174" stroke="#497174" stroke-width=".2" d="M16.6533 14.0945C16.7749 14.2094 16.9661 14.206 17.0836 14.0869L17.6224 13.5405C17.7418 13.4195 17.7404 13.2247 17.6194 13.1054C17.4985 12.9861 17.3037 12.9875 17.1844 13.1084L16.8569 13.4405L15.95 12.584C15.8281 12.4689 15.6365 12.4725 15.5191 12.5923L14.4765 13.6555C14.3612 13.7731 14.3589 13.9606 14.4714 14.081L15.9252 15.637V15.8203H14.8327C14.6628 15.8203 14.5251 15.958 14.5251 16.1279C14.5251 16.2978 14.6628 16.4356 14.8327 16.4356H15.9252V18.8488C15.3188 18.7082 14.8653 18.1614 14.8653 17.5103C14.8653 17.3404 14.7276 17.2026 14.5577 17.2026C14.3878 17.2026 14.25 17.3404 14.25 17.5103C14.25 18.6069 15.1395 19.4991 16.2329 19.4991C16.4028 19.4991 16.5406 19.3614 16.5406 19.1915V16.4356H17.6342C17.8041 16.4356 17.9418 16.2978 17.9418 16.1279C17.9418 15.958 17.8041 15.8203 17.6342 15.8203H16.5405V15.5157C16.5405 15.4377 16.5109 15.3626 16.4577 15.3057L15.1221 13.8761L15.7471 13.2387L16.6533 14.0945Z"/></g><defs><clipPath id="a"><rect width="30" height="30" fill="#fff" transform="translate(1 1)"/></clipPath></defs></svg>