<svg xmlns="http://www.w3.org/2000/svg" enable-background="new 0 0 128 128" viewBox="0 0 128 128"><circle cx="64" cy="64" r="64" fill="#C9C"/><path fill="#333" d="M33.241,68.432v-6.266h7.783l-1.713-6.079h-6.07v-6.266h4.236l-2.402-8.607h10.127l1.898,8.607h10.191   l1.707-8.607h10.002l1.77,8.607h10.635l1.896-8.607h9.686l-2.408,8.607h4.18v6.266h-6.014l-1.713,6.079h7.727v6.266h-9.434   L80.14,86.786h-9.053l-3.736-18.354h-6.834l-3.668,18.354h-8.863l-5.189-18.354H33.241z M49.819,62.166h5.127l1.145-6.079h-7.6   L49.819,62.166z M52.538,74.571l1.145-6.14h-2.535L52.538,74.571z M61.78,62.166h4.307l-1.201-6.079h-1.902L61.78,62.166z    M73.3,62.166h5.318l1.332-6.079h-7.914L73.3,62.166z M75.835,74.571l1.328-6.14h-2.598L75.835,74.571z"/></svg>