<svg xmlns="http://www.w3.org/2000/svg" fill="none" viewBox="0 0 64 64"><path fill="#50D9D7" d="M29.8813 50.9469C26.1543 52.3403 22.1038 52.6259 18.2181 51.7693C14.3325 50.9127 10.7775 48.9504 7.98194 46.119C5.18634 43.2876 3.26941 39.708 2.46227 35.8118C1.65512 31.9156 1.99222 27.869 3.43291 24.1601C4.87361 20.4511 7.3564 17.238 10.5819 14.9082C13.8075 12.5784 17.6381 11.2314 21.6119 11.0295C25.5858 10.8276 29.5332 11.7795 32.9782 13.7704C36.4233 15.7613 39.2189 18.7061 41.0281 22.25C42.3499 24.8391 43.1094 27.6783 43.2569 30.5814C43.4044 33.4846 42.9365 36.3861 41.884 39.0958C40.8315 41.8055 39.218 44.2621 37.1495 46.3044C35.081 48.3468 32.6041 49.9289 29.8813 50.9469V50.9469Z"/><path fill="#93E6E5" d="M43.2781 32.5627C43.3156 31.9382 43.3156 31.3121 43.2781 30.6877H33.9031C33.8193 27.7903 33.2126 24.9319 32.1125 22.2502H41.0281C40.7042 21.6036 40.341 20.9774 39.9406 20.3752H31.2125C29.2556 16.7668 26.5286 13.6333 23.225 11.197C23.0611 11.0708 22.86 11.0024 22.6531 11.0024C22.4463 11.0024 22.2452 11.0708 22.0813 11.197C18.7751 13.6306 16.0476 16.7647 14.0938 20.3752H5.36563C4.96524 20.9774 4.60207 21.6036 4.27813 22.2502H13.2219C12.1121 24.9301 11.4959 27.7885 11.4031 30.6877H2.02813C1.99062 31.3121 1.99062 31.9382 2.02813 32.5627H11.4031C11.487 35.46 12.0936 38.3184 13.1938 41.0002H4.27813C4.60207 41.6467 4.96524 42.2729 5.36563 42.8752H14.0938C16.0476 46.4856 18.7751 49.6197 22.0813 52.0533C22.2452 52.1795 22.4463 52.2479 22.6531 52.2479C22.86 52.2479 23.0611 52.1795 23.225 52.0533C26.5335 49.6222 29.2615 46.4876 31.2125 42.8752H39.9406C40.341 42.2729 40.7042 41.6467 41.0281 41.0002H32.0844C33.1942 38.3202 33.8103 35.4618 33.9031 32.5627H43.2781ZM22.6531 13.1283C25.2238 15.1229 27.3987 17.5808 29.0656 20.3752H16.2406C17.9116 17.5838 20.0859 15.1266 22.6531 13.1283V13.1283ZM22.6531 50.122C20.0859 48.1237 17.9116 45.6665 16.2406 42.8752H29.0656C27.3957 45.6673 25.2212 48.1247 22.6531 50.122V50.122ZM30.0313 41.0002H15.275C14.0563 38.3479 13.3775 35.4798 13.2781 32.5627H32.0281C31.9287 35.4798 31.2499 38.3479 30.0313 41.0002V41.0002ZM13.2781 30.6877C13.3687 27.7725 14.0379 24.9044 15.2469 22.2502H30.0313C31.2499 24.9024 31.9287 27.7706 32.0281 30.6877H13.2781Z"/><path fill="#00BEBD" d="M39.9406 20.375H31.2125C30.0623 18.2008 28.607 16.2025 26.8906 14.4406 27.8275 13.6478 28.8277 12.9329 29.8812 12.3031 34.0111 13.8492 37.5366 16.6782 39.9406 20.375V20.375zM39.9406 42.875C37.5366 46.5718 34.0111 49.4008 29.8812 50.9469 28.8277 50.3171 27.8275 49.6023 26.8906 48.8094 28.607 47.0475 30.0623 45.0492 31.2125 42.875H39.9406zM32.0281 32.5625C31.9375 35.4777 31.2683 38.3458 30.0593 41H20.9562C19.7261 38.349 19.0285 35.4823 18.9031 32.5625H32.0281zM32.0281 30.6875H18.9031C19.0226 27.769 19.7138 24.9023 20.9375 22.25H30.0125C31.2376 24.9009 31.9228 27.7691 32.0281 30.6875V30.6875zM29.0656 20.375H21.9219C22.9111 18.6639 24.1181 17.0882 25.5125 15.6875 26.8797 17.1026 28.0726 18.6763 29.0656 20.375V20.375zM29.0656 42.875C28.0726 44.5737 26.8797 46.1474 25.5125 47.5625 24.1181 46.1618 22.9111 44.5861 21.9219 42.875H29.0656z"/><path fill="#50D9D7" d="M33.9031 32.5625C33.8192 35.4599 33.2126 38.3183 32.1125 41H41.0281C40.7041 41.6466 40.341 42.2728 39.9406 42.875H31.2125C30.0623 45.0492 28.6069 47.0476 26.8906 48.8094C26.4125 48.4063 25.9531 47.9844 25.5125 47.5344C26.8797 46.1193 28.0726 44.5456 29.0656 42.8469H21.9218C21.575 42.2375 21.2468 41.6188 20.9843 40.9719H30.0593C31.2647 38.3263 31.9338 35.4682 32.0281 32.5625H18.9031C18.9031 31.7375 18.9031 31.5125 18.9031 30.6875H32.0281C31.9375 27.7723 31.2683 24.9042 30.0593 22.25H20.9562C21.2468 21.6031 21.575 20.9844 21.8937 20.375H29.0375C28.0444 18.6763 26.8516 17.1026 25.4843 15.6875C25.925 15.2375 26.4218 14.8156 26.8625 14.4125C28.5909 16.1811 30.0559 18.1892 31.2125 20.375H39.9406C40.341 20.9773 40.7041 21.6034 41.0281 22.25H32.0843C33.1941 24.9299 33.8103 27.7884 33.9031 30.6875H43.2781C43.3156 31.3119 43.3156 31.9381 43.2781 32.5625H33.9031Z"/><path fill="#EA9706" d="M41.4031 52.25C52.7939 52.25 62.0281 43.0159 62.0281 31.625C62.0281 20.2341 52.7939 11 41.4031 11C30.0122 11 20.7781 20.2341 20.7781 31.625C20.7781 43.0159 30.0122 52.25 41.4031 52.25Z"/><path fill="#FFAC00" d="M41.4031 48.5C50.7229 48.5 58.2781 40.9448 58.2781 31.625C58.2781 22.3052 50.7229 14.75 41.4031 14.75C32.0833 14.75 24.5281 22.3052 24.5281 31.625C24.5281 40.9448 32.0833 48.5 41.4031 48.5Z"/><g clip-path="url(#a)"><path fill="#fff" fill-rule="evenodd" d="M40.0196 34.5612L41.0126 34.561C41.1729 33.1203 40.8953 31.7657 40.6249 30.4467C40.4894 29.7854 40.3557 29.1329 40.2799 28.483C40.3281 28.4237 40.3761 28.3713 40.4209 28.3223C40.5107 28.2242 40.5876 28.1401 40.6281 28.0426C40.7084 27.8487 40.7677 27.6474 40.827 27.4462L40.827 27.4462C40.8574 27.343 40.8878 27.2398 40.921 27.1377C41.0126 26.8544 40.9306 26.6823 40.6217 26.5562L40.6182 26.5547C40.2007 26.384 39.7613 26.2043 39.7666 25.6533C39.7666 25.613 39.7019 25.572 39.6048 25.5104C39.5472 25.4739 39.4782 25.4301 39.4045 25.375C39.3484 25.5386 39.2934 25.6975 39.2395 25.8531L39.2395 25.8531L39.2395 25.8531C39.0673 26.3507 38.907 26.8137 38.7634 27.2819C38.7325 27.382 38.7985 27.5882 38.8795 27.6232C39.2242 27.771 39.2729 28.0493 39.3216 28.3275L39.3216 28.3275L39.3216 28.3275C39.3293 28.3715 39.337 28.4155 39.3459 28.459C39.4524 28.9815 39.5493 29.505 39.6462 30.0296C39.7482 30.581 39.8485 31.133 39.947 31.6752C40.0017 31.9764 40.0559 32.2746 40.1095 32.568C39.6 32.568 39.0957 32.574 38.5953 32.5798H38.5953H38.5953H38.5952C37.438 32.5934 36.3017 32.6068 35.1701 32.546C34.0647 32.487 33.7058 31.8183 34.0658 30.8243C34.1116 30.6992 34.1648 30.5731 34.2372 30.46C34.4513 30.1276 34.3309 29.9505 33.8687 29.8384C33.7876 30.0403 33.6993 30.2396 33.6111 30.4384L33.6111 30.4384C33.4192 30.8712 33.2285 31.3013 33.1169 31.7492C32.6749 33.514 33.496 34.4899 35.4172 34.547C36.048 34.5662 36.6793 34.5641 37.3104 34.5621C37.5658 34.5612 37.8212 34.5604 38.0765 34.561C38.7215 34.5616 39.367 34.5614 40.0196 34.5612ZM50.4066 30.3599C50.2947 29.3919 49.7708 28.5721 48.8379 27.9095C48.7883 28.1119 48.7422 28.3089 48.697 28.5019L48.697 28.5019L48.697 28.5019L48.697 28.502L48.697 28.502C48.5948 28.9388 48.4975 29.3547 48.3757 29.7643C48.2979 30.0235 48.3639 30.1457 48.5812 30.2978C49.3991 30.8704 49.7324 31.6862 49.8602 32.6501C49.645 32.6501 49.4333 32.6504 49.2239 32.6507H49.2238H49.2237C48.7431 32.6513 48.275 32.6519 47.807 32.6491C47.7351 32.6487 47.6623 32.6505 47.5895 32.6524H47.5895H47.5895C47.133 32.6641 46.6778 32.6757 46.4555 32.1266C46.0881 32.542 45.9752 33.7862 46.2627 34.1656C46.3852 34.3277 46.6153 34.5159 46.8016 34.5209C47.7391 34.5442 48.6772 34.5416 49.6676 34.5388C49.998 34.5379 50.3342 34.5369 50.6781 34.5369C50.6521 34.106 50.6315 33.6794 50.6111 33.2561L50.6111 33.2559L50.6111 33.2557V33.2557C50.5638 32.2761 50.5174 31.3146 50.4066 30.3599ZM37.9698 26.5682C38.2915 27.469 37.7952 27.9275 36.9794 28.2328L37.1061 28.3759C37.1655 28.3926 37.2246 28.4117 37.2837 28.4308L37.2837 28.4308C37.4122 28.4724 37.5407 28.5139 37.6727 28.5311C38.301 28.6122 38.5002 28.8264 38.465 29.4199C38.4011 30.506 37.7952 31.1366 36.6301 31.2647C36.3217 31.2991 36.0078 31.2901 35.6931 31.281H35.6931C35.5493 31.2769 35.4053 31.2728 35.2616 31.2728C35.1402 30.8634 35.2765 30.7633 35.6482 30.7322C36.0997 30.6952 36.5513 30.5881 36.9858 30.46C37.0989 30.4267 37.191 30.3313 37.2983 30.2199L37.2983 30.2199C37.3527 30.1635 37.4109 30.1031 37.4778 30.0446C36.1881 29.7072 36.0507 29.499 36.4874 28.3849C36.6972 27.8504 37.0412 27.3569 37.3766 26.8765C37.4494 26.7712 37.6006 26.7145 37.7567 26.6559C37.8291 26.6287 37.9026 26.6012 37.9698 26.5682ZM42.1711 36.625H44.2223V34.6971H42.1711V36.625Z" clip-rule="evenodd"/><path fill="#fff" d="M41.0126 34.561L41.0126 34.761L41.1916 34.7609L41.2114 34.5831L41.0126 34.561ZM40.0196 34.5612L40.0195 34.3612L40.0195 34.3612L40.0196 34.5612ZM40.6249 30.4467L40.8209 30.4066L40.8209 30.4066L40.6249 30.4467ZM40.2799 28.483L40.1247 28.3569L40.0715 28.4224L40.0812 28.5062L40.2799 28.483ZM40.4209 28.3223L40.5685 28.4573L40.5685 28.4573L40.4209 28.3223ZM40.6281 28.0426L40.8128 28.1193L40.8129 28.1191L40.6281 28.0426ZM40.827 27.4462L41.0188 27.5028L41.0193 27.5012L40.827 27.4462ZM40.827 27.4462L40.6351 27.3897L40.6347 27.3912L40.827 27.4462ZM40.921 27.1377L41.1112 27.1996L41.1113 27.1993L40.921 27.1377ZM40.6217 26.5562L40.546 26.7413L40.5461 26.7413L40.6217 26.5562ZM40.6182 26.5547L40.5425 26.7398L40.5425 26.7398L40.6182 26.5547ZM39.7666 25.6533L39.9666 25.6552V25.6533H39.7666ZM39.6048 25.5104L39.7119 25.3415L39.7119 25.3415L39.6048 25.5104ZM39.4045 25.375L39.5243 25.2148L39.3043 25.0504L39.2153 25.3102L39.4045 25.375ZM39.2395 25.8531L39.0504 25.7876L39.048 25.7955L39.2395 25.8531ZM39.2395 25.8531L39.4294 25.9162L39.4311 25.9107L39.2395 25.8531ZM39.2395 25.8531L39.4285 25.9186L39.4293 25.9162L39.2395 25.8531ZM38.7634 27.2819L38.9545 27.3408L38.9546 27.3405L38.7634 27.2819ZM38.8795 27.6232L38.8 27.8067L38.8007 27.807L38.8795 27.6232ZM39.3216 28.3275L39.1243 28.362L39.1269 28.3733L39.3216 28.3275ZM39.3216 28.3275L39.519 28.2929L39.5163 28.2817L39.3216 28.3275ZM39.3459 28.459L39.5419 28.4191L39.5419 28.419L39.3459 28.459ZM39.6462 30.0296L39.4496 30.0659L39.4496 30.0659L39.6462 30.0296ZM39.947 31.6752L39.7502 31.7109L39.7502 31.7109L39.947 31.6752ZM40.1095 32.568V32.768H40.3494L40.3062 32.5321L40.1095 32.568ZM38.5953 32.5798V32.7799L38.5977 32.7798L38.5953 32.5798ZM38.5952 32.5798V32.3798L38.5929 32.3799L38.5952 32.5798ZM35.1701 32.546L35.1809 32.3463L35.1808 32.3463L35.1701 32.546ZM34.0658 30.8243L33.878 30.7556L33.8777 30.7562L34.0658 30.8243ZM34.2372 30.46L34.0691 30.3517L34.0688 30.3521L34.2372 30.46ZM33.8687 29.8384L33.9159 29.644L33.7477 29.6032L33.6832 29.7638L33.8687 29.8384ZM33.6111 30.4384L33.4283 30.3573L33.4271 30.3602L33.6111 30.4384ZM33.6111 30.4384L33.794 30.5195L33.7952 30.5167L33.6111 30.4384ZM33.1169 31.7492L33.3109 31.7978L33.3109 31.7976L33.1169 31.7492ZM35.4172 34.547L35.4233 34.3471L35.4232 34.3471L35.4172 34.547ZM37.3104 34.5621L37.3111 34.7621L37.3111 34.7621L37.3104 34.5621ZM38.0765 34.561L38.076 34.761L38.0763 34.761L38.0765 34.561ZM48.8379 27.9095L48.9537 27.7464L48.7137 27.5759L48.6436 27.8619L48.8379 27.9095ZM50.4066 30.3599L50.2079 30.3828L50.2079 30.3829L50.4066 30.3599ZM48.697 28.5019L48.8914 28.549L48.8918 28.5474L48.697 28.5019ZM48.697 28.5019L48.5026 28.4548L48.502 28.4577L48.697 28.5019ZM48.697 28.5019L48.8917 28.5477L48.8921 28.5461L48.697 28.5019ZM48.697 28.502L48.5021 28.4561L48.5005 28.4645L48.697 28.502ZM48.697 28.502L48.8919 28.5476L48.8935 28.5394L48.697 28.502ZM48.3757 29.7643L48.5672 29.8217L48.5674 29.8213L48.3757 29.7643ZM48.5812 30.2978L48.4665 30.4616L48.4665 30.4616L48.5812 30.2978ZM49.8602 32.6501V32.8501H50.0885L50.0585 32.6238L49.8602 32.6501ZM49.2239 32.6507V32.8507L49.2242 32.8507L49.2239 32.6507ZM49.2237 32.6507L49.2237 32.4507L49.2235 32.4507L49.2237 32.6507ZM47.807 32.6491L47.8081 32.4491L47.8081 32.4491L47.807 32.6491ZM47.5895 32.6524V32.8525L47.5946 32.8523L47.5895 32.6524ZM47.5895 32.6524V32.4523L47.5844 32.4525L47.5895 32.6524ZM46.4555 32.1266L46.6409 32.0515L46.5197 31.7521L46.3057 31.9941L46.4555 32.1266ZM46.2627 34.1656L46.4223 34.045L46.4221 34.0448L46.2627 34.1656ZM46.8016 34.5209L46.7963 34.7209L46.7967 34.7209L46.8016 34.5209ZM49.6676 34.5388L49.667 34.3388L49.667 34.3388L49.6676 34.5388ZM50.6781 34.5369V34.7369H50.8906L50.8778 34.5249L50.6781 34.5369ZM50.6111 33.2561L50.8109 33.2465L50.8107 33.244L50.6111 33.2561ZM50.6111 33.2559L50.4113 33.2662L50.4114 33.268L50.6111 33.2559ZM50.6111 33.2557H50.4108L50.4113 33.266L50.6111 33.2557ZM50.6111 33.2557H50.8113L50.8108 33.246L50.6111 33.2557ZM36.9794 28.2328L36.9093 28.0455L36.6368 28.1475L36.8297 28.3654L36.9794 28.2328ZM37.9698 26.5682L38.1582 26.5009L38.0828 26.2898L37.8817 26.3886L37.9698 26.5682ZM37.1061 28.3759L36.9564 28.5085L36.9954 28.5525L37.052 28.5684L37.1061 28.3759ZM37.2837 28.4308L37.3469 28.2411L37.3452 28.2405L37.2837 28.4308ZM37.2837 28.4308L37.2205 28.6206L37.2222 28.6211L37.2837 28.4308ZM37.6727 28.5311L37.647 28.7294L37.6471 28.7294L37.6727 28.5311ZM38.465 29.4199L38.2654 29.4081L38.2654 29.4082L38.465 29.4199ZM36.6301 31.2647L36.6082 31.0659L36.608 31.066L36.6301 31.2647ZM35.6931 31.281L35.6989 31.081H35.6931V31.281ZM35.6931 31.281L35.6874 31.481H35.6931V31.281ZM35.2616 31.2728L35.0699 31.3296L35.1123 31.4728H35.2616V31.2728ZM35.6482 30.7322L35.6318 30.5329L35.6315 30.5329L35.6482 30.7322ZM36.9858 30.46L36.9294 30.2681L36.9292 30.2681L36.9858 30.46ZM37.2983 30.2199L37.1569 30.0784L37.1543 30.0811L37.2983 30.2199ZM37.2983 30.2199L37.4398 30.3613L37.4423 30.3587L37.2983 30.2199ZM37.4778 30.0446L37.6095 30.1951L37.8936 29.9466L37.5284 29.8511L37.4778 30.0446ZM36.4874 28.3849L36.3012 28.3119L36.3012 28.3119L36.4874 28.3849ZM37.3766 26.8765L37.5406 26.991L37.5412 26.9901L37.3766 26.8765ZM37.7567 26.6559L37.8269 26.8432L37.8269 26.8432L37.7567 26.6559ZM44.2223 36.625V36.825H44.4223V36.625H44.2223ZM42.1711 36.625H41.9711V36.825H42.1711V36.625ZM44.2223 34.6971H44.4223V34.4971H44.2223V34.6971ZM42.1711 34.6971V34.4971H41.9711V34.6971H42.1711ZM41.0126 34.361L40.0195 34.3612L40.0196 34.7612L41.0126 34.761L41.0126 34.361ZM40.429 30.4869C40.7002 31.8101 40.9701 33.1343 40.8138 34.5389L41.2114 34.5831C41.3757 33.1062 41.0903 31.7214 40.8209 30.4066L40.429 30.4869ZM40.0812 28.5062C40.1582 29.1661 40.2938 29.8271 40.429 30.4869L40.8209 30.4066C40.685 29.7436 40.5531 29.0997 40.4785 28.4599L40.0812 28.5062ZM40.2734 28.1873C40.2289 28.2358 40.1771 28.2924 40.1247 28.3569L40.4351 28.6092C40.4791 28.555 40.5233 28.5067 40.5685 28.4573L40.2734 28.1873ZM40.4434 27.9659C40.4191 28.0245 40.3697 28.082 40.2734 28.1873L40.5685 28.4573C40.6517 28.3664 40.7562 28.2556 40.8128 28.1193L40.4434 27.9659ZM40.6351 27.3897C40.5754 27.5926 40.5189 27.7837 40.4433 27.9661L40.8129 28.1191C40.8979 27.9138 40.9601 27.7023 41.0188 27.5028L40.6351 27.3897ZM40.6347 27.3912L40.6347 27.3913L41.0193 27.5012L41.0193 27.5011L40.6347 27.3912ZM40.7308 27.0759C40.6966 27.1811 40.6654 27.2869 40.6352 27.3897L41.0188 27.5027C41.0494 27.3991 41.079 27.2986 41.1112 27.1996L40.7308 27.0759ZM40.5461 26.7413C40.682 26.7968 40.7272 26.8468 40.7431 26.8783C40.7571 26.906 40.7685 26.9593 40.7307 27.0762L41.1113 27.1993C41.1651 27.0328 41.1813 26.8584 41.1 26.6977C41.0206 26.5408 40.8704 26.4416 40.6974 26.371L40.5461 26.7413ZM40.5425 26.7398L40.546 26.7413L40.6975 26.371L40.6939 26.3696L40.5425 26.7398ZM39.5666 25.6513C39.5633 25.9922 39.7025 26.23 39.9054 26.3999C40.0952 26.5588 40.3407 26.6573 40.5425 26.7398L40.6939 26.3696C40.4782 26.2814 40.2953 26.2046 40.1622 26.0932C40.0424 25.9929 39.9645 25.8653 39.9666 25.6552L39.5666 25.6513ZM39.4976 25.6793C39.5224 25.695 39.5427 25.7079 39.5601 25.7195C39.5778 25.7313 39.589 25.7394 39.596 25.7451C39.604 25.7516 39.6001 25.7497 39.593 25.74C39.5854 25.7295 39.5666 25.6991 39.5666 25.6533H39.9666C39.9666 25.5873 39.9397 25.5367 39.9169 25.5053C39.8947 25.4746 39.8685 25.4511 39.8482 25.4346C39.8087 25.4025 39.7564 25.3698 39.7119 25.3415L39.4976 25.6793ZM39.2847 25.5352C39.3653 25.5954 39.4403 25.6429 39.4976 25.6793L39.7119 25.3415C39.6541 25.3049 39.5911 25.2648 39.5243 25.2148L39.2847 25.5352ZM39.4285 25.9185C39.4824 25.763 39.5375 25.6037 39.5937 25.4398L39.2153 25.3102C39.1593 25.4734 39.1044 25.632 39.0505 25.7876L39.4285 25.9185ZM39.4311 25.9107L39.4311 25.9107L39.048 25.7955L39.048 25.7955L39.4311 25.9107ZM39.4293 25.9162L39.4293 25.9161L39.0497 25.79L39.0497 25.7901L39.4293 25.9162ZM38.9546 27.3405C39.0969 26.8763 39.256 26.4167 39.4285 25.9185L39.0505 25.7877C38.8785 26.2846 38.717 26.751 38.5722 27.2232L38.9546 27.3405ZM38.9589 27.4397C38.9764 27.4472 38.9862 27.4561 38.9891 27.4589C38.9922 27.4619 38.9921 27.4626 38.9896 27.4588C38.9844 27.4508 38.9764 27.4354 38.9693 27.4138C38.9622 27.3927 38.9578 27.3715 38.9563 27.3542C38.9545 27.3347 38.9573 27.3317 38.9545 27.3408L38.5723 27.2229C38.5387 27.3316 38.5618 27.4561 38.5897 27.5401C38.6053 27.5869 38.6271 27.6358 38.656 27.6795C38.6822 27.7191 38.7281 27.7756 38.8 27.8067L38.9589 27.4397ZM39.5186 28.293C39.4953 28.1596 39.4672 27.9906 39.3905 27.8371C39.3086 27.6731 39.1753 27.5324 38.9582 27.4394L38.8007 27.807C38.9284 27.8618 38.9919 27.9342 39.0327 28.0158C39.0787 28.108 39.0993 28.2172 39.1246 28.3619L39.5186 28.293ZM39.5163 28.2817L39.5163 28.2816L39.1269 28.3733L39.1269 28.3733L39.5163 28.2817ZM39.5163 28.2817L39.5163 28.2817L39.1269 28.3733L39.1269 28.3733L39.5163 28.2817ZM39.5419 28.419C39.5337 28.3787 39.5264 28.3375 39.5186 28.293L39.1246 28.3619C39.1322 28.4055 39.1404 28.4523 39.1499 28.499L39.5419 28.419ZM39.8429 29.9932C39.746 29.4689 39.6488 28.9437 39.5419 28.4191L39.1499 28.499C39.256 29.0194 39.3526 29.5411 39.4496 30.0659L39.8429 29.9932ZM40.1438 31.6394C40.0453 31.0973 39.945 30.545 39.8429 29.9932L39.4496 30.0659C39.5515 30.6171 39.6517 31.1687 39.7502 31.7109L40.1438 31.6394ZM40.3062 32.5321C40.2526 32.2387 40.1985 31.9406 40.1438 31.6394L39.7502 31.7109C39.8049 32.0121 39.8591 32.3104 39.9128 32.604L40.3062 32.5321ZM38.5977 32.7798C39.0982 32.7739 39.6013 32.768 40.1095 32.768V32.368C39.5986 32.368 39.0932 32.374 38.593 32.3799L38.5977 32.7798ZM38.5953 32.7798H38.5953V32.3798H38.5953V32.7798ZM38.5953 32.7798H38.5953V32.3798H38.5953V32.7798ZM38.5952 32.7798H38.5953V32.3798H38.5952V32.7798ZM35.1594 32.7457C36.2986 32.8069 37.4415 32.7934 38.5976 32.7798L38.5929 32.3799C37.4345 32.3935 36.3048 32.4067 35.1809 32.3463L35.1594 32.7457ZM33.8777 30.7562C33.6881 31.2799 33.6694 31.7671 33.8979 32.1402C34.1289 32.5177 34.5728 32.7144 35.1595 32.7457L35.1808 32.3463C34.6621 32.3186 34.3737 32.1514 34.239 31.9313C34.1016 31.7069 34.0835 31.3627 34.2538 30.8924L33.8777 30.7562ZM34.0688 30.3521C33.9847 30.4835 33.9255 30.6255 33.878 30.7556L34.2536 30.8931C34.2976 30.7729 34.3449 30.6627 34.4057 30.5678L34.0688 30.3521ZM33.8216 30.0327C33.929 30.0588 34.0064 30.0863 34.0598 30.1139C34.1138 30.1416 34.1312 30.1631 34.136 30.171C34.1378 30.1739 34.1422 30.1798 34.1381 30.2033C34.1329 30.2323 34.1151 30.2803 34.0691 30.3517L34.4054 30.5683C34.5223 30.3867 34.6018 30.1658 34.4772 29.9622C34.4209 29.8702 34.3349 29.8056 34.243 29.7583C34.1506 29.7107 34.0396 29.674 33.9159 29.644L33.8216 30.0327ZM33.794 30.5195C33.8818 30.3212 33.9717 30.1187 34.0543 29.9129L33.6832 29.7638C33.6036 29.9619 33.5167 30.158 33.4283 30.3573L33.794 30.5195ZM33.7952 30.5167L33.7952 30.5166L33.4271 30.3602L33.4271 30.3602L33.7952 30.5167ZM33.3109 31.7976C33.4177 31.3694 33.6007 30.9553 33.794 30.5195L33.4283 30.3574C33.2377 30.7872 33.0394 31.2332 32.9228 31.7009L33.3109 31.7976ZM35.4232 34.3471C34.4886 34.3193 33.8723 34.0688 33.535 33.661C33.2012 33.2575 33.0981 32.6475 33.3109 31.7978L32.9229 31.7006C32.6937 32.6157 32.7801 33.376 33.2267 33.9159C33.6698 34.4515 34.4246 34.7176 35.4113 34.7469L35.4232 34.3471ZM37.3097 34.3621C36.6781 34.3641 36.0502 34.3662 35.4233 34.3471L35.4111 34.7469C36.0458 34.7662 36.6805 34.7641 37.3111 34.7621L37.3097 34.3621ZM38.0769 34.361C37.821 34.3604 37.5651 34.3612 37.3097 34.3621L37.3111 34.7621C37.5666 34.7612 37.8214 34.7604 38.076 34.761L38.0769 34.361ZM40.0195 34.3612C39.3669 34.3614 38.7216 34.3616 38.0767 34.361L38.0763 34.761C38.7215 34.7616 39.3671 34.7614 40.0196 34.7612L40.0195 34.3612ZM48.722 28.0725C49.6174 28.7085 50.1037 29.481 50.2079 30.3828L50.6052 30.3369C50.4858 29.3028 49.9241 28.4357 48.9537 27.7464L48.722 28.0725ZM48.8918 28.5474C48.9369 28.3543 48.9828 28.1583 49.0321 27.9571L48.6436 27.8619C48.5937 28.0655 48.5474 28.2635 48.5023 28.4563L48.8918 28.5474ZM48.8914 28.549L48.8914 28.549L48.5027 28.4548L48.5027 28.4548L48.8914 28.549ZM48.8921 28.5461L48.8921 28.5461L48.502 28.4577L48.502 28.4578L48.8921 28.5461ZM48.8917 28.5478L48.8917 28.5477L48.5023 28.4561L48.5023 28.4562L48.8917 28.5478ZM48.8935 28.5394L48.8935 28.5394L48.5005 28.4645L48.5005 28.4646L48.8935 28.5394ZM48.5674 29.8213C48.6912 29.405 48.7898 28.9833 48.8917 28.5475L48.5023 28.4564C48.3998 28.8943 48.3039 29.3043 48.184 29.7072L48.5674 29.8213ZM48.6959 30.134C48.5948 30.0632 48.5639 30.0219 48.5526 29.9947C48.5437 29.9733 48.5346 29.9305 48.5672 29.8217L48.1841 29.7068C48.139 29.8573 48.124 30.0052 48.183 30.1477C48.2396 30.2844 48.3503 30.3803 48.4665 30.4616L48.6959 30.134ZM50.0585 32.6238C49.9265 31.6279 49.5761 30.7501 48.6959 30.134L48.4665 30.4616C49.2221 30.9906 49.5384 31.7444 49.662 32.6764L50.0585 32.6238ZM49.2242 32.8507C49.4336 32.8504 49.6452 32.8501 49.8602 32.8501V32.4501C49.6449 32.4501 49.433 32.4504 49.2237 32.4507L49.2242 32.8507ZM49.2238 32.8507H49.2239V32.4507H49.2238V32.8507ZM49.2237 32.8507H49.2238V32.4507H49.2237V32.8507ZM47.8058 32.8491C48.2747 32.8519 48.7435 32.8513 49.224 32.8507L49.2235 32.4507C48.7427 32.4513 48.2754 32.4519 47.8081 32.4491L47.8058 32.8491ZM47.5946 32.8523C47.6679 32.8505 47.7376 32.8487 47.8058 32.8491L47.8081 32.4491C47.7326 32.4487 47.6566 32.4506 47.5844 32.4525L47.5946 32.8523ZM47.5895 32.8524H47.5895V32.4524H47.5895V32.8524ZM47.5895 32.8524H47.5895V32.4524H47.5895V32.8524ZM46.2701 32.2016C46.4031 32.5301 46.6173 32.7073 46.8731 32.7901C47.1104 32.8668 47.3747 32.858 47.5946 32.8523L47.5844 32.4525C47.3477 32.4585 47.1562 32.4613 46.9962 32.4095C46.8548 32.3637 46.7302 32.2721 46.6409 32.0515L46.2701 32.2016ZM46.4221 34.0448C46.3812 33.9907 46.3405 33.8825 46.318 33.7183C46.2964 33.5599 46.2947 33.3714 46.3127 33.1781C46.3306 32.9851 46.3677 32.7932 46.4205 32.6279C46.4743 32.4594 46.5396 32.3334 46.6053 32.2591L46.3057 31.9941C46.1877 32.1275 46.1012 32.3128 46.0394 32.5063C45.9766 32.703 45.9346 32.9237 45.9144 33.1411C45.8942 33.3582 45.8952 33.5779 45.9217 33.7724C45.9475 33.9612 46.0006 34.1508 46.1034 34.2864L46.4221 34.0448ZM46.807 34.321C46.772 34.3201 46.7072 34.2979 46.6237 34.2389C46.5447 34.1831 46.4714 34.11 46.4223 34.045L46.1032 34.2861C46.1766 34.3833 46.2795 34.4854 46.3928 34.5655C46.5015 34.6424 46.6449 34.7168 46.7963 34.7209L46.807 34.321ZM49.667 34.3388C48.6762 34.3416 47.7409 34.3442 46.8066 34.321L46.7967 34.7209C47.7374 34.7442 48.6783 34.7416 49.6681 34.7388L49.667 34.3388ZM50.6781 34.3369C50.3339 34.3369 49.9974 34.3379 49.667 34.3388L49.6681 34.7388C49.9986 34.7379 50.3345 34.7369 50.6781 34.7369V34.3369ZM50.4113 33.2658C50.4317 33.6888 50.4524 34.1167 50.4785 34.549L50.8778 34.5249C50.8518 34.0954 50.8313 33.6699 50.8108 33.2465L50.4113 33.2658ZM50.4114 33.268L50.4114 33.2682L50.8107 33.244L50.8107 33.2438L50.4114 33.268ZM50.4113 33.266L50.4113 33.2662L50.8108 33.2457L50.8108 33.2455L50.4113 33.266ZM50.4111 33.2557V33.2557H50.8111V33.2557H50.4111ZM50.2079 30.3829C50.3178 31.3298 50.3639 32.2846 50.4113 33.2653L50.8108 33.246C50.7636 32.2676 50.7169 31.2993 50.6052 30.3368L50.2079 30.3829ZM37.0495 28.4201C37.4685 28.2633 37.8437 28.0545 38.065 27.7385C38.2967 27.4075 38.3351 26.9964 38.1582 26.5009L37.7815 26.6354C37.9262 27.0407 37.8772 27.3093 37.7373 27.5091C37.5869 27.7238 37.3061 27.897 36.9093 28.0455L37.0495 28.4201ZM37.2559 28.2433L37.1291 28.1002L36.8297 28.3654L36.9564 28.5085L37.2559 28.2433ZM37.3452 28.2405C37.2868 28.2216 37.224 28.2013 37.1603 28.1834L37.052 28.5684C37.107 28.5839 37.1625 28.6018 37.2222 28.6211L37.3452 28.2405ZM37.347 28.2411L37.3469 28.2411L37.2205 28.6206L37.2205 28.6206L37.347 28.2411ZM37.6985 28.3327C37.5878 28.3184 37.4769 28.2831 37.3452 28.2405L37.2222 28.6211C37.3475 28.6617 37.4936 28.7095 37.647 28.7294L37.6985 28.3327ZM38.6647 29.4318C38.6832 29.1195 38.6453 28.8486 38.4664 28.6496C38.2917 28.4552 38.0215 28.3744 37.6983 28.3327L37.6471 28.7294C37.9523 28.7688 38.0958 28.8356 38.1689 28.917C38.2379 28.9938 38.2821 29.1268 38.2654 29.4081L38.6647 29.4318ZM36.652 31.4635C37.2653 31.3961 37.7564 31.1934 38.1029 30.842C38.4504 30.4896 38.6307 30.0098 38.6647 29.4317L38.2654 29.4082C38.2355 29.9161 38.0808 30.2947 37.8181 30.5611C37.5544 30.8286 37.16 31.0053 36.6082 31.0659L36.652 31.4635ZM35.6874 31.4809C35.9995 31.4899 36.3276 31.4997 36.6522 31.4635L36.608 31.066C36.3158 31.0985 36.016 31.0902 35.6989 31.0811L35.6874 31.4809ZM35.6931 31.481H35.6931V31.081H35.6931V31.481ZM35.2616 31.4728C35.4019 31.4728 35.543 31.4768 35.6874 31.4809L35.6989 31.0811C35.5555 31.077 35.4086 31.0728 35.2616 31.0728V31.4728ZM35.6315 30.5329C35.5331 30.5411 35.4375 30.5548 35.3531 30.5817C35.2679 30.6088 35.1805 30.6539 35.1151 30.7341C34.9801 30.8995 35.0078 31.1204 35.0699 31.3296L35.4533 31.2159C35.4258 31.123 35.4176 31.0625 35.4185 31.0244C35.4189 31.0065 35.4213 30.9965 35.4227 30.9919C35.4235 30.9896 35.4241 30.9884 35.4243 30.988C35.4246 30.9875 35.4247 30.9873 35.4249 30.9871C35.4251 30.9869 35.4272 30.9842 35.4343 30.9799C35.4419 30.9753 35.4545 30.9692 35.4747 30.9627C35.5167 30.9494 35.5775 30.9388 35.6648 30.9315L35.6315 30.5329ZM36.9292 30.2681C36.5007 30.3945 36.064 30.4975 35.6318 30.5329L35.6645 30.9316C36.1355 30.8929 36.6018 30.7817 37.0424 30.6518L36.9292 30.2681ZM37.1543 30.0811C37.035 30.2049 36.9812 30.2529 36.9294 30.2681L37.0422 30.6519C37.2167 30.6006 37.3469 30.4577 37.4423 30.3587L37.1543 30.0811ZM37.1569 30.0784L37.1569 30.0784L37.4397 30.3613L37.4398 30.3613L37.1569 30.0784ZM37.3462 29.894C37.2719 29.959 37.208 30.0254 37.1543 30.0811L37.4423 30.3587C37.4973 30.3016 37.5499 30.2472 37.6095 30.1951L37.3462 29.894ZM36.3012 28.3119C36.1914 28.5921 36.111 28.8314 36.079 29.0359C36.0464 29.244 36.0605 29.438 36.164 29.6094C36.2649 29.7766 36.4322 29.8905 36.6355 29.982C36.8393 30.0737 37.1037 30.1534 37.4272 30.238L37.5284 29.8511C37.207 29.767 36.9707 29.6942 36.7997 29.6172C36.6281 29.54 36.5465 29.469 36.5064 29.4026C36.469 29.3406 36.45 29.2526 36.4742 29.0977C36.4989 28.9394 36.5651 28.7348 36.6736 28.4579L36.3012 28.3119ZM37.2127 26.762C36.8798 27.2387 36.5212 27.7515 36.3012 28.3119L36.6736 28.458C36.8732 27.9493 37.2025 27.4752 37.5406 26.9909L37.2127 26.762ZM37.6864 26.4686C37.6111 26.4969 37.5222 26.53 37.4429 26.5713C37.3637 26.6127 37.275 26.6717 37.2121 26.7628L37.5412 26.9901C37.551 26.976 37.5743 26.954 37.6279 26.926C37.6815 26.898 37.7461 26.8735 37.8269 26.8432L37.6864 26.4686ZM37.8817 26.3886C37.8248 26.4166 37.7607 26.4408 37.6864 26.4686L37.8269 26.8432C37.8976 26.8167 37.9805 26.7857 38.058 26.7477L37.8817 26.3886ZM44.2223 36.425H42.1711V36.825H44.2223V36.425ZM44.0223 34.6971V36.625H44.4223V34.6971H44.0223ZM42.1711 34.8971H44.2223V34.4971H42.1711V34.8971ZM42.3711 36.625V34.6971H41.9711V36.625H42.3711Z"/></g><defs><clipPath id="a"><rect width="36" height="36" fill="#fff" transform="translate(24 13)"/></clipPath></defs></svg>