<svg xmlns="http://www.w3.org/2000/svg" viewBox="0 0 128 128"><circle cx="64" cy="64" r="64" fill="#3C9"/><path fill="#333" d="M32.066 80.614c-.379 0-.97-.064-1.771-.191-.801-.125-1.434-.273-1.897-.441V73.21c.254.084.549.137.886.158s.675.031 1.012.031c.759 0 1.444-.242 2.056-.727.61-.484 1.116-1.426 1.518-2.816.4-1.395.716-3.379.948-5.949.231-2.575.348-5.953.348-10.128v-6.393H61.75v32.722h-8.984v-25.95h-9.243c-.169 4.642-.443 8.629-.823 11.962-.379 3.336-.979 6.076-1.802 8.229s-1.939 3.732-3.357 4.748c-1.417 1.011-3.24 1.517-5.475 1.517zM68.838 47.386h18.801c1.434 0 2.783.158 4.047.475 1.266.316 2.377.801 3.326 1.454a7.052 7.052 0 0 1 2.25 2.563c.542 1.057.821 2.303.821 3.736 0 1.602-.405 2.985-1.201 4.145-.806 1.162-1.881 2.037-3.235 2.627 1.691.464 3.109 1.339 4.247 2.626 1.138 1.289 1.708 3.07 1.708 5.35 0 1.604-.285 3.006-.854 4.207a8.51 8.51 0 0 1-2.376 3.037c-1.012.822-2.192 1.447-3.547 1.869a14.32 14.32 0 0 1-4.3.633H68.838V47.386zM83.65 60.549c.674 0 1.328-.039 1.965-.126a4.888 4.888 0 0 0 1.708-.537c.506-.274.906-.654 1.201-1.139s.442-1.148.442-1.994c0-.802-.147-1.444-.442-1.929-.295-.488-.685-.856-1.17-1.109s-1.06-.422-1.707-.506a15.575 15.575 0 0 0-1.997-.127h-5.949v7.467h5.949zm.696 13.735c.759 0 1.496-.053 2.219-.158.717-.105 1.349-.305 1.896-.6a3.408 3.408 0 0 0 1.328-1.297c.337-.572.506-1.32.506-2.248 0-.93-.18-1.688-.537-2.277a3.47 3.47 0 0 0-1.423-1.332c-.591-.295-1.265-.494-2.023-.6a17.36 17.36 0 0 0-2.345-.158h-6.266v8.67h6.645z"/></svg>