<svg xmlns="http://www.w3.org/2000/svg" enable-background="new 0 0 128 128" viewBox="0 0 128 128"><circle cx="64" cy="64" r="64" fill="#FC6"/><path fill="#333" d="M72.657,57.492c-0.652,2.498-1.887,4.411-3.688,5.741c-1.803,1.331-3.805,2.303-6.018,2.918l14.68,19.338   H67.558L57.245,71.675c-1.186-1.597-2.262-2.753-3.221-3.47c-0.963-0.715-1.98-1.072-3.045-1.072h-0.549v-5.099h3.621   c1.105,0,2.182-0.05,3.225-0.153c1.043-0.103,2.008-0.306,2.883-0.614c0.885-0.306,1.66-0.756,2.34-1.352   c0.674-0.593,1.17-1.399,1.502-2.424H49.325l1.844-5.464h12.953c-0.369-1.392-1.129-2.395-2.271-3.009   c-1.145-0.614-2.703-0.959-4.664-1.044h-7.861l1.844-5.464h27.506l-1.844,5.464h-5.158c0.658,1.228,1.086,2.58,1.291,4.053h5.711   l-1.844,5.464H72.657z"/></svg>