<svg xmlns="http://www.w3.org/2000/svg" fill="none" viewBox="0 0 64 64"><path fill="#50D9D7" d="M29.8813 50.9469C26.1543 52.3403 22.1038 52.6259 18.2181 51.7693C14.3325 50.9127 10.7775 48.9504 7.98194 46.119C5.18634 43.2876 3.26941 39.708 2.46227 35.8118C1.65512 31.9156 1.99222 27.869 3.43291 24.1601C4.87361 20.4511 7.3564 17.238 10.5819 14.9082C13.8075 12.5784 17.6381 11.2314 21.6119 11.0295C25.5858 10.8276 29.5332 11.7795 32.9782 13.7704C36.4233 15.7613 39.2189 18.7061 41.0281 22.25C42.3499 24.8391 43.1094 27.6783 43.2569 30.5814C43.4044 33.4846 42.9365 36.3861 41.884 39.0958C40.8315 41.8055 39.218 44.2621 37.1495 46.3044C35.081 48.3468 32.6041 49.9289 29.8813 50.9469V50.9469Z"/><path fill="#93E6E5" d="M43.2781 32.5627C43.3156 31.9382 43.3156 31.3121 43.2781 30.6877H33.9031C33.8193 27.7903 33.2126 24.9319 32.1125 22.2502H41.0281C40.7042 21.6036 40.341 20.9774 39.9406 20.3752H31.2125C29.2556 16.7668 26.5286 13.6333 23.225 11.197C23.0611 11.0708 22.86 11.0024 22.6531 11.0024C22.4463 11.0024 22.2452 11.0708 22.0813 11.197C18.7751 13.6306 16.0476 16.7647 14.0938 20.3752H5.36563C4.96524 20.9774 4.60207 21.6036 4.27813 22.2502H13.2219C12.1121 24.9301 11.4959 27.7885 11.4031 30.6877H2.02813C1.99062 31.3121 1.99062 31.9382 2.02813 32.5627H11.4031C11.487 35.46 12.0936 38.3184 13.1938 41.0002H4.27813C4.60207 41.6467 4.96524 42.2729 5.36563 42.8752H14.0938C16.0476 46.4856 18.7751 49.6197 22.0813 52.0533C22.2452 52.1795 22.4463 52.2479 22.6531 52.2479C22.86 52.2479 23.0611 52.1795 23.225 52.0533C26.5335 49.6222 29.2615 46.4876 31.2125 42.8752H39.9406C40.341 42.2729 40.7042 41.6467 41.0281 41.0002H32.0844C33.1942 38.3202 33.8103 35.4618 33.9031 32.5627H43.2781ZM22.6531 13.1283C25.2238 15.1229 27.3987 17.5808 29.0656 20.3752H16.2406C17.9116 17.5838 20.0859 15.1266 22.6531 13.1283V13.1283ZM22.6531 50.122C20.0859 48.1237 17.9116 45.6665 16.2406 42.8752H29.0656C27.3957 45.6673 25.2212 48.1247 22.6531 50.122V50.122ZM30.0313 41.0002H15.275C14.0563 38.3479 13.3775 35.4798 13.2781 32.5627H32.0281C31.9287 35.4798 31.2499 38.3479 30.0313 41.0002V41.0002ZM13.2781 30.6877C13.3687 27.7725 14.0379 24.9044 15.2469 22.2502H30.0313C31.2499 24.9024 31.9287 27.7706 32.0281 30.6877H13.2781Z"/><path fill="#00BEBD" d="M39.9406 20.375H31.2125C30.0623 18.2008 28.607 16.2025 26.8906 14.4406 27.8275 13.6478 28.8277 12.9329 29.8812 12.3031 34.0111 13.8492 37.5366 16.6782 39.9406 20.375V20.375zM39.9406 42.875C37.5366 46.5718 34.0111 49.4008 29.8812 50.9469 28.8277 50.3171 27.8275 49.6023 26.8906 48.8094 28.607 47.0475 30.0623 45.0492 31.2125 42.875H39.9406zM32.0281 32.5625C31.9375 35.4777 31.2683 38.3458 30.0593 41H20.9562C19.7261 38.349 19.0285 35.4823 18.9031 32.5625H32.0281zM32.0281 30.6875H18.9031C19.0226 27.769 19.7138 24.9023 20.9375 22.25H30.0125C31.2376 24.9009 31.9228 27.7691 32.0281 30.6875V30.6875zM29.0656 20.375H21.9219C22.9111 18.6639 24.1181 17.0882 25.5125 15.6875 26.8797 17.1026 28.0726 18.6763 29.0656 20.375V20.375zM29.0656 42.875C28.0726 44.5737 26.8797 46.1474 25.5125 47.5625 24.1181 46.1618 22.9111 44.5861 21.9219 42.875H29.0656z"/><path fill="#50D9D7" d="M33.9031 32.5625C33.8192 35.4599 33.2126 38.3183 32.1125 41H41.0281C40.7041 41.6466 40.341 42.2728 39.9406 42.875H31.2125C30.0623 45.0492 28.6069 47.0476 26.8906 48.8094C26.4125 48.4063 25.9531 47.9844 25.5125 47.5344C26.8797 46.1193 28.0726 44.5456 29.0656 42.8469H21.9218C21.575 42.2375 21.2468 41.6188 20.9843 40.9719H30.0593C31.2647 38.3263 31.9338 35.4682 32.0281 32.5625H18.9031C18.9031 31.7375 18.9031 31.5125 18.9031 30.6875H32.0281C31.9375 27.7723 31.2683 24.9042 30.0593 22.25H20.9562C21.2468 21.6031 21.575 20.9844 21.8937 20.375H29.0375C28.0444 18.6763 26.8516 17.1026 25.4843 15.6875C25.925 15.2375 26.4218 14.8156 26.8625 14.4125C28.5909 16.1811 30.0559 18.1892 31.2125 20.375H39.9406C40.341 20.9773 40.7041 21.6034 41.0281 22.25H32.0843C33.1941 24.9299 33.8103 27.7884 33.9031 30.6875H43.2781C43.3156 31.3119 43.3156 31.9381 43.2781 32.5625H33.9031Z"/><path fill="#EA9706" d="M41.4031 52.25C52.7939 52.25 62.0281 43.0159 62.0281 31.625C62.0281 20.2341 52.7939 11 41.4031 11C30.0122 11 20.7781 20.2341 20.7781 31.625C20.7781 43.0159 30.0122 52.25 41.4031 52.25Z"/><path fill="#FFAC00" d="M41.4031 48.5C50.7229 48.5 58.2781 40.9448 58.2781 31.625C58.2781 22.3052 50.7229 14.75 41.4031 14.75C32.0833 14.75 24.5281 22.3052 24.5281 31.625C24.5281 40.9448 32.0833 48.5 41.4031 48.5Z"/><g clip-path="url(#a)"><path fill="#fff" fill-rule="evenodd" d="M48.8332 37.2534V36.4781C48.9466 36.4565 49.055 36.438 49.1595 36.4203C49.3834 36.3821 49.5898 36.347 49.7908 36.2906C51.0115 35.9517 51.9418 35.2697 52.2428 33.9777C52.5728 32.558 52.0729 31.4165 50.927 30.5496C50.8962 30.5263 50.8654 30.5028 50.8344 30.4793C50.5493 30.2621 50.2553 30.0382 49.929 29.9159C48.9908 29.5639 48.7179 28.939 48.8112 27.9612C48.8809 27.2368 48.8648 26.5038 48.8485 25.7601C48.8413 25.4331 48.8341 25.104 48.8341 24.7726C49.4722 24.7822 49.9827 25.0023 50.4359 25.3649C50.9825 25.8014 51.3125 26.3744 51.4736 27.0529C51.4862 27.106 51.5331 27.1511 51.5801 27.1964C51.6017 27.2172 51.6234 27.2381 51.6417 27.2598C51.6573 27.2361 51.6764 27.2128 51.6955 27.1895C51.7367 27.1392 51.778 27.0889 51.7834 27.0353C51.7981 26.8878 51.7956 26.7384 51.7931 26.5892C51.7922 26.5328 51.7913 26.4764 51.7913 26.4201C51.7922 25.0771 51.6593 24.9002 50.3506 24.5217C50.1684 24.4698 49.9809 24.4328 49.7934 24.4038C49.5699 24.3691 49.345 24.3398 49.1044 24.3084C49.0097 24.2961 48.9126 24.2835 48.8121 24.27V23.125H48.1899V24.3017C48.1225 24.3064 48.0639 24.31 48.0108 24.3133C47.9236 24.3188 47.851 24.3233 47.7789 24.3299C46.3707 24.461 45.2635 25.3103 45.0074 26.5055C44.7319 27.7914 45.2864 28.7639 46.2704 29.5217C46.7667 29.9045 47.3018 30.2442 47.8466 30.5567C48.1309 30.7195 48.2136 30.9008 48.2101 31.215C48.1971 32.2647 48.199 33.314 48.2009 34.3635C48.2015 34.7359 48.2022 35.1084 48.2022 35.4809V35.979C48.0764 35.9584 47.9563 35.9416 47.8405 35.9254C47.6007 35.8918 47.3794 35.8609 47.1645 35.8039C45.9773 35.4897 45.4184 34.6113 45.1288 33.4954C45.1044 33.4011 45.0524 33.314 45.0003 33.2269C44.9756 33.1855 44.9509 33.1441 44.9291 33.1019C44.9049 33.1116 44.8807 33.1215 44.8565 33.1314C44.8322 33.1413 44.808 33.1512 44.7838 33.1609C44.7838 33.3347 44.7876 33.5088 44.7914 33.6828C44.7999 34.0801 44.8085 34.4772 44.7724 34.8701C44.724 35.3955 44.9053 35.7088 45.3999 35.847C46.0734 36.0351 46.7478 36.2199 47.4545 36.4134C47.7 36.4807 47.9494 36.549 48.204 36.6189V38.02H48.8332V37.2534ZM50.8645 33.8122C50.8293 34.9951 50.0804 35.7889 48.8579 35.9157V31.1525C50.0751 31.6075 50.898 32.7059 50.8645 33.8122ZM46.4948 25.995C46.8134 25.3077 47.3775 24.9011 48.1793 24.7321V29.0015C48.0147 28.8644 47.8531 28.7372 47.6966 28.614C47.3527 28.3434 47.0334 28.0921 46.7606 27.7975C46.2871 27.2853 46.1991 26.6331 46.4948 25.995ZM36.9022 24.3457H31.9067C31.804 24.6569 31.9791 24.6665 32.1641 24.6767C32.1869 24.6779 32.2098 24.6792 32.2323 24.681C33.0271 24.74 33.4539 25.0789 33.4557 25.7196C33.4637 28.0807 33.4621 30.4424 33.4604 32.8042C33.4599 33.55 33.4594 34.2959 33.4592 35.0417C33.4592 35.5126 33.2163 35.8136 32.7798 35.9544C32.6751 35.9881 32.5664 36.0084 32.4577 36.0287C32.3507 36.0487 32.2438 36.0686 32.1408 36.1014C32.0721 36.1232 32.0136 36.1761 31.9549 36.2291C31.9286 36.2529 31.9023 36.2766 31.875 36.2976C31.9072 36.314 31.9394 36.3349 31.9717 36.3557C32.0416 36.401 32.1117 36.4464 32.1822 36.4464C35.2758 36.4543 38.3685 36.4561 41.4612 36.4402C41.5774 36.4402 41.7595 36.2792 41.7965 36.1586C41.9698 35.5939 42.1253 35.0237 42.2809 34.4537C42.3331 34.2624 42.3852 34.0711 42.4381 33.88C42.4692 33.7684 42.5007 33.6571 42.5315 33.5479C42.553 33.472 42.5742 33.397 42.5948 33.3237C42.2471 33.182 42.123 33.3405 42.0077 33.5825C41.4744 34.7055 40.6356 35.4325 39.3542 35.5337C38.6105 35.5918 37.8642 35.6411 37.1187 35.6455C36.6989 35.6481 36.2738 35.5751 35.861 35.4888C35.5134 35.4158 35.3154 35.179 35.3154 34.7944C35.3167 33.6628 35.3163 32.5314 35.3158 31.4C35.3151 29.5412 35.3144 27.6825 35.3215 25.8234C35.3233 25.1906 35.5873 24.8993 36.206 24.7391C36.2774 24.7208 36.3521 24.7145 36.4267 24.7083C36.5131 24.701 36.5992 24.6938 36.6795 24.6678C36.7535 24.6436 36.8179 24.5893 36.8824 24.5348C36.9115 24.5102 36.9407 24.4856 36.9708 24.4637C36.9594 24.4439 36.948 24.4243 36.9365 24.4047C36.9251 24.3851 36.9136 24.3655 36.9022 24.3457Z" clip-rule="evenodd"/><path fill="#fff" d="M48.8332 36.4781L48.7772 36.1833L48.5332 36.2297V36.4781H48.8332ZM49.1595 36.4203L49.1091 36.1245L49.1091 36.1245L49.1595 36.4203ZM49.7908 36.2906L49.7106 36.0015L49.7098 36.0017L49.7908 36.2906ZM52.2428 33.9777L52.535 34.0457L52.535 34.0456L52.2428 33.9777ZM50.927 30.5496L51.108 30.3104L51.108 30.3103L50.927 30.5496ZM50.8344 30.4793L50.6527 30.7179L50.6527 30.7179L50.8344 30.4793ZM49.929 29.9159L49.8236 30.1968L49.8237 30.1969L49.929 29.9159ZM48.8112 27.9612L48.5126 27.9325L48.5126 27.9327L48.8112 27.9612ZM48.8485 25.7601L49.1484 25.7535L49.1484 25.7535L48.8485 25.7601ZM48.8341 24.7726L48.8387 24.4726L48.5341 24.468V24.7726H48.8341ZM50.4359 25.3649L50.2485 25.5991L50.2487 25.5993L50.4359 25.3649ZM51.4736 27.0529L51.1817 27.1222L51.1818 27.1226L51.4736 27.0529ZM51.5801 27.1964L51.3719 27.4124L51.3719 27.4124L51.5801 27.1964ZM51.6417 27.2598L51.4127 27.4536L51.6716 27.7596L51.8922 27.4248L51.6417 27.2598ZM51.6955 27.1895L51.9275 27.3797L51.9275 27.3797L51.6955 27.1895ZM51.7834 27.0353L52.0819 27.0655L52.0819 27.0651L51.7834 27.0353ZM51.7931 26.5892L51.4932 26.5941L51.4932 26.5942L51.7931 26.5892ZM51.7913 26.4201L51.4913 26.4199V26.4201H51.7913ZM50.3506 24.5217L50.4339 24.2335L50.4328 24.2332L50.3506 24.5217ZM49.7934 24.4038L49.7474 24.7002L49.7475 24.7003L49.7934 24.4038ZM49.1044 24.3084L49.0657 24.6059L49.0657 24.6059L49.1044 24.3084ZM48.8121 24.27H48.5121V24.5326L48.7724 24.5674L48.8121 24.27ZM48.8121 23.125H49.1121V22.825H48.8121V23.125ZM48.1899 23.125V22.825H47.8899V23.125H48.1899ZM48.1899 24.3017L48.2106 24.601L48.4899 24.5816V24.3017H48.1899ZM48.0108 24.3133L47.9921 24.0139L47.9921 24.0139L48.0108 24.3133ZM47.7789 24.3299L47.7517 24.0311L47.751 24.0312L47.7789 24.3299ZM45.0074 26.5055L44.7141 26.4426L44.714 26.4427L45.0074 26.5055ZM46.2704 29.5217L46.4536 29.2841L46.4534 29.284L46.2704 29.5217ZM47.8466 30.5567L47.6974 30.8169L47.6975 30.817L47.8466 30.5567ZM48.2101 31.215L48.5101 31.2187L48.5101 31.2183L48.2101 31.215ZM48.2009 34.3635L48.5009 34.363L48.5009 34.363L48.2009 34.3635ZM48.2022 35.979L48.1536 36.2751L48.5022 36.3322V35.979H48.2022ZM47.8405 35.9254L47.7989 36.2225L47.7989 36.2225L47.8405 35.9254ZM47.1645 35.8039L47.2414 35.5139L47.2413 35.5139L47.1645 35.8039ZM45.1288 33.4954L45.4192 33.42L45.4192 33.42L45.1288 33.4954ZM45.0003 33.2269L45.2578 33.073L45.2578 33.073L45.0003 33.2269ZM44.9291 33.1019L45.1956 32.9642L45.0705 32.7222L44.8176 32.8234L44.9291 33.1019ZM44.7838 33.1609L44.6724 32.8824L44.4838 32.9578V33.1609H44.7838ZM44.7914 33.6828L44.4914 33.6893L44.4914 33.6893L44.7914 33.6828ZM44.7724 34.8701L45.0711 34.8976L45.0711 34.8975L44.7724 34.8701ZM45.3999 35.847L45.3192 36.1359L45.3192 36.136L45.3999 35.847ZM47.4545 36.4134L47.5338 36.1241L47.5338 36.1241L47.4545 36.4134ZM48.204 36.6189H48.504V36.3901L48.2834 36.3296L48.204 36.6189ZM48.204 38.02H47.904V38.32H48.204V38.02ZM48.8332 38.02V38.32H49.1332V38.02H48.8332ZM48.8579 35.9157H48.5579V36.2484L48.8888 36.2141L48.8579 35.9157ZM50.8645 33.8122L50.5647 33.8031L50.5647 33.8033L50.8645 33.8122ZM48.8579 31.1525L48.9629 30.8715L48.5579 30.7201V31.1525H48.8579ZM48.1793 24.7321H48.4793V24.3623L48.1174 24.4385L48.1793 24.7321ZM46.4948 25.995L46.2226 25.8689L46.2226 25.8689L46.4948 25.995ZM48.1793 29.0015L47.9873 29.232L48.4793 29.6417V29.0015H48.1793ZM47.6966 28.614L47.511 28.8498L47.511 28.8498L47.6966 28.614ZM46.7606 27.7975L46.5403 28.0012L46.5405 28.0014L46.7606 27.7975ZM31.9067 24.3457V24.0457H31.6898L31.6218 24.2517L31.9067 24.3457ZM36.9022 24.3457L37.162 24.1956L37.0753 24.0457H36.9022V24.3457ZM32.1641 24.6767L32.1806 24.3771L32.1806 24.3771L32.1641 24.6767ZM32.2323 24.681L32.208 24.9801L32.2101 24.9802L32.2323 24.681ZM33.4557 25.7196L33.1557 25.7204L33.1557 25.7206L33.4557 25.7196ZM33.4604 32.8042L33.1604 32.8039L33.1604 32.8039L33.4604 32.8042ZM33.4592 35.0417L33.1592 35.0416V35.0417H33.4592ZM32.7798 35.9544L32.8717 36.2399L32.8719 36.2399L32.7798 35.9544ZM32.4577 36.0287L32.4026 35.7338L32.4026 35.7338L32.4577 36.0287ZM32.1408 36.1014L32.0499 35.8155L32.0497 35.8155L32.1408 36.1014ZM31.9549 36.2291L31.7539 36.0064L31.7539 36.0064L31.9549 36.2291ZM31.875 36.2976L31.692 36.0599L31.3156 36.3497L31.739 36.565L31.875 36.2976ZM31.9717 36.3557L32.1347 36.1039L32.1347 36.1039L31.9717 36.3557ZM32.1822 36.4464L32.1829 36.1464H32.1822V36.4464ZM41.4612 36.4402V36.1402L41.4596 36.1402L41.4612 36.4402ZM41.7965 36.1586L41.5097 36.0706L41.5097 36.0706L41.7965 36.1586ZM42.2809 34.4537L42.5703 34.5326L42.5703 34.5326L42.2809 34.4537ZM42.4381 33.88L42.1491 33.7993L42.149 33.8L42.4381 33.88ZM42.5315 33.5479L42.2428 33.4663L42.2428 33.4663L42.5315 33.5479ZM42.5948 33.3237L42.8836 33.4048L42.956 33.147L42.708 33.0459L42.5948 33.3237ZM42.0077 33.5825L41.7369 33.4535L41.7367 33.4538L42.0077 33.5825ZM39.3542 35.5337L39.3776 35.8328L39.3778 35.8328L39.3542 35.5337ZM37.1187 35.6455L37.1169 35.3455L37.1168 35.3455L37.1187 35.6455ZM35.861 35.4888L35.7993 35.7824L35.7997 35.7825L35.861 35.4888ZM35.3154 34.7944L35.0154 34.794V34.7944H35.3154ZM35.3158 31.4L35.6158 31.3998L35.3158 31.4ZM35.3215 25.8234L35.6215 25.8246L35.6215 25.8243L35.3215 25.8234ZM36.206 24.7391L36.1313 24.4486L36.1308 24.4487L36.206 24.7391ZM36.4267 24.7083L36.4517 25.0072L36.4517 25.0072L36.4267 24.7083ZM36.6795 24.6678L36.7719 24.9533L36.773 24.9529L36.6795 24.6678ZM36.8824 24.5348L37.0759 24.764L37.0759 24.764L36.8824 24.5348ZM36.9708 24.4637L37.1473 24.7063L37.3657 24.5474L37.2306 24.3136L36.9708 24.4637ZM36.9365 24.4047L37.1956 24.2534L37.1956 24.2534L36.9365 24.4047ZM48.5332 36.4781V37.2534H49.1332V36.4781H48.5332ZM49.1091 36.1245C49.005 36.1422 48.8939 36.1611 48.7772 36.1833L48.8893 36.7728C48.9994 36.7518 49.105 36.7339 49.2098 36.716L49.1091 36.1245ZM49.7098 36.0017C49.5265 36.0532 49.336 36.0859 49.1091 36.1245L49.2098 36.716C49.4308 36.6784 49.653 36.6408 49.8718 36.5794L49.7098 36.0017ZM51.9506 33.9096C51.6825 35.0603 50.8646 35.6812 49.7106 36.0015L49.871 36.5797C51.1585 36.2223 52.2011 35.479 52.535 34.0457L51.9506 33.9096ZM50.746 30.7889C51.2853 31.1968 51.6571 31.6575 51.8596 32.1671C52.0613 32.6749 52.1035 33.2521 51.9506 33.9097L52.535 34.0456C52.7121 33.2836 52.6694 32.5803 52.4172 31.9456C52.1658 31.3129 51.7147 30.7693 51.108 30.3104L50.746 30.7889ZM50.6527 30.7179C50.6836 30.7415 50.7148 30.7653 50.7461 30.7889L51.108 30.3103C51.0777 30.2874 51.0472 30.2642 51.0162 30.2406L50.6527 30.7179ZM49.8237 30.1969C50.1012 30.3009 50.3601 30.4951 50.6527 30.7179L51.0162 30.2406C50.7386 30.0292 50.4093 29.7755 50.0342 29.635L49.8237 30.1969ZM48.5126 27.9327C48.4632 28.4503 48.5056 28.9193 48.7192 29.3156C48.9367 29.719 49.3073 30.0031 49.8236 30.1968L50.0344 29.6351C49.6124 29.4767 49.3776 29.2724 49.2474 29.0309C49.1134 28.7823 49.066 28.4499 49.1099 27.9897L48.5126 27.9327ZM48.5486 25.7666C48.565 26.5136 48.5803 27.2287 48.5126 27.9325L49.1099 27.9899C49.1815 27.2449 49.1647 26.4941 49.1484 25.7535L48.5486 25.7666ZM48.5341 24.7726C48.5341 25.1078 48.5414 25.4402 48.5486 25.7666L49.1484 25.7535C49.1413 25.426 49.1341 25.1001 49.1341 24.7726H48.5341ZM50.6233 25.1306C50.1257 24.7325 49.5524 24.4834 48.8387 24.4726L48.8296 25.0725C49.392 25.0811 49.8397 25.2721 50.2485 25.5991L50.6233 25.1306ZM51.7655 26.9837C51.591 26.2488 51.2288 25.6142 50.6231 25.1305L50.2487 25.5993C50.7362 25.9887 51.034 26.5 51.1817 27.1222L51.7655 26.9837ZM51.7882 26.9804C51.7759 26.9685 51.7674 26.9602 51.7597 26.9524C51.7522 26.9448 51.7485 26.9404 51.7467 26.9383C51.745 26.9362 51.7473 26.9387 51.751 26.9453C51.7549 26.9523 51.761 26.9651 51.7654 26.9833L51.1818 27.1226C51.2028 27.2106 51.2479 27.2759 51.2812 27.3168C51.3139 27.3571 51.3513 27.3926 51.3719 27.4124L51.7882 26.9804ZM51.8707 27.066C51.8407 27.0306 51.8076 26.999 51.7882 26.9804L51.3719 27.4124C51.3958 27.4355 51.406 27.4456 51.4127 27.4536L51.8707 27.066ZM51.4635 26.9993C51.4465 27.02 51.4169 27.0556 51.3912 27.0947L51.8922 27.4248C51.8976 27.4166 51.9063 27.4056 51.9275 27.3797L51.4635 26.9993ZM51.4849 27.0052C51.4869 26.9852 51.4918 26.9706 51.495 26.9625C51.4982 26.9547 51.5005 26.9514 51.4992 26.9534C51.4979 26.9554 51.4948 26.96 51.4884 26.9683C51.4818 26.9769 51.4743 26.9861 51.4635 26.9993L51.9275 27.3797C51.9455 27.3577 51.9787 27.3179 52.0065 27.2738C52.0347 27.2292 52.0725 27.1575 52.0819 27.0655L51.4849 27.0052ZM51.4932 26.5942C51.4957 26.7464 51.4975 26.8783 51.4848 27.0056L52.0819 27.0651C52.0986 26.8973 52.0955 26.7305 52.0931 26.5843L51.4932 26.5942ZM51.4913 26.4201C51.4913 26.4793 51.4923 26.5381 51.4932 26.5941L52.0931 26.5843C52.0922 26.5275 52.0913 26.4735 52.0913 26.4201H51.4913ZM50.2672 24.8099C50.5939 24.9044 50.8282 24.9811 51.0021 25.0615C51.1726 25.1403 51.2647 25.2136 51.323 25.2905C51.3811 25.3671 51.4259 25.474 51.4541 25.6561C51.483 25.8423 51.4915 26.0846 51.4913 26.4199L52.0913 26.4203C52.0915 26.0841 52.0837 25.8006 52.047 25.5641C52.0097 25.3236 51.9397 25.1107 51.8011 24.9279C51.6627 24.7454 51.4762 24.6196 51.2537 24.5168C51.0347 24.4156 50.7616 24.3283 50.4339 24.2335L50.2672 24.8099ZM49.7475 24.7003C49.9273 24.7281 50.1018 24.7628 50.2683 24.8102L50.4328 24.2332C50.2349 24.1768 50.0345 24.1376 49.8394 24.1073L49.7475 24.7003ZM49.0657 24.6059C49.3069 24.6374 49.5281 24.6662 49.7474 24.7002L49.8395 24.1074C49.6117 24.072 49.3831 24.0422 49.1432 24.011L49.0657 24.6059ZM48.7724 24.5674C48.8734 24.5809 48.971 24.5936 49.0657 24.6059L49.1432 24.011C49.0484 23.9986 48.9517 23.986 48.8519 23.9727L48.7724 24.5674ZM48.5121 23.125V24.27H49.1121V23.125H48.5121ZM48.1899 23.425H48.8121V22.825H48.1899V23.425ZM48.4899 24.3017V23.125H47.8899V24.3017H48.4899ZM48.0294 24.6128C48.0826 24.6095 48.1421 24.6057 48.2106 24.601L48.1691 24.0024C48.103 24.007 48.0453 24.0106 47.9921 24.0139L48.0294 24.6128ZM47.806 24.6286C47.8732 24.6225 47.9413 24.6183 48.0294 24.6128L47.9921 24.0139C47.9058 24.0193 47.8289 24.0241 47.7517 24.0311L47.806 24.6286ZM45.3007 26.5684C45.523 25.531 46.4961 24.7506 47.8067 24.6286L47.751 24.0312C46.2453 24.1714 45.004 25.0896 44.7141 26.4426L45.3007 26.5684ZM46.4534 29.284C45.9877 28.9253 45.6408 28.5288 45.4396 28.0872C45.2404 27.6502 45.1758 27.1515 45.3007 26.5684L44.714 26.4427C44.5635 27.1453 44.6384 27.7759 44.8936 28.336C45.1467 28.8916 45.5691 29.3602 46.0873 29.7593L46.4534 29.284ZM47.9959 30.2964C47.4585 29.9882 46.9358 29.656 46.4536 29.2841L46.0871 29.7592C46.5977 30.153 47.1452 30.5002 47.6974 30.8169L47.9959 30.2964ZM48.5101 31.2183C48.5121 31.0372 48.4904 30.856 48.4012 30.6883C48.3105 30.5175 48.1687 30.3954 47.9957 30.2963L47.6975 30.817C47.8089 30.8808 47.8506 30.9307 47.8714 30.9698C47.8938 31.012 47.9116 31.0786 47.9101 31.2116L48.5101 31.2183ZM48.5009 34.363C48.499 33.3131 48.4971 32.266 48.5101 31.2187L47.9101 31.2113C47.8971 32.2635 47.899 33.3149 47.9009 34.364L48.5009 34.363ZM48.5022 35.4809C48.5022 35.1081 48.5015 34.7353 48.5009 34.363L47.9009 34.364C47.9015 34.7365 47.9022 35.1087 47.9022 35.4809H48.5022ZM48.5022 35.979V35.4809H47.9022V35.979H48.5022ZM47.7989 36.2225C47.9151 36.2388 48.0318 36.2551 48.1536 36.2751L48.2508 35.683C48.1209 35.6617 47.9974 35.6444 47.8821 35.6283L47.7989 36.2225ZM47.0876 36.0939C47.323 36.1563 47.5625 36.1894 47.7989 36.2225L47.8821 35.6283C47.6388 35.5942 47.4358 35.5655 47.2414 35.5139L47.0876 36.0939ZM44.8385 33.5707C45.1427 34.7431 45.755 35.7412 47.0878 36.0939L47.2413 35.5139C46.1996 35.2382 45.6941 34.4795 45.4192 33.42L44.8385 33.5707ZM44.7428 33.3808C44.7994 33.4755 44.8267 33.5254 44.8385 33.5707L45.4192 33.42C45.382 33.2767 45.3054 33.1525 45.2578 33.073L44.7428 33.3808ZM44.6625 33.2397C44.6893 33.2915 44.7189 33.3408 44.7428 33.3808L45.2578 33.073C45.2323 33.0302 45.2124 32.9968 45.1956 32.9642L44.6625 33.2397ZM44.97 33.4091C44.9944 33.3991 45.0175 33.3897 45.0405 33.3805L44.8176 32.8234C44.7922 32.8336 44.7669 32.8439 44.7429 32.8538L44.97 33.4091ZM44.8953 33.4395C44.9207 33.4293 44.946 33.4189 44.97 33.4091L44.7429 32.8538C44.7185 32.8637 44.6954 32.8732 44.6724 32.8824L44.8953 33.4395ZM45.0913 33.6763C45.0875 33.5017 45.0838 33.3309 45.0838 33.1609H44.4838C44.4838 33.3384 44.4877 33.5158 44.4914 33.6893L45.0913 33.6763ZM45.0711 34.8975C45.1091 34.4849 45.0998 34.0706 45.0913 33.6763L44.4914 33.6893C44.5001 34.0895 44.5079 34.4695 44.4737 34.8426L45.0711 34.8975ZM45.4806 35.5581C45.2809 35.5023 45.1865 35.4238 45.1367 35.3444C45.0838 35.2601 45.0502 35.1251 45.0711 34.8976L44.4737 34.8426C44.4462 35.1405 44.479 35.4249 44.6283 35.6631C44.7808 35.9063 45.0243 36.0536 45.3192 36.1359L45.4806 35.5581ZM47.5338 36.1241C46.8269 35.9305 46.1532 35.746 45.4806 35.5581L45.3192 36.136C45.9935 36.3243 46.6687 36.5092 47.3753 36.7028L47.5338 36.1241ZM48.2834 36.3296C48.0287 36.2597 47.7792 36.1913 47.5338 36.1241L47.3753 36.7028C47.6208 36.77 47.8701 36.8383 48.1245 36.9082L48.2834 36.3296ZM48.504 38.02V36.6189H47.904V38.02H48.504ZM48.8332 37.72H48.204V38.32H48.8332V37.72ZM48.5332 37.2534V38.02H49.1332V37.2534H48.5332ZM48.8888 36.2141C49.5584 36.1446 50.122 35.8892 50.5238 35.4667C50.9262 35.0436 51.1449 34.4755 51.1644 33.8211L50.5647 33.8033C50.5489 34.3317 50.3756 34.752 50.0891 35.0532C49.802 35.3551 49.3798 35.5599 48.8269 35.6173L48.8888 36.2141ZM48.5579 31.1525V35.9157H49.1579V31.1525H48.5579ZM51.1644 33.8213C51.2025 32.561 50.2747 31.3619 48.9629 30.8715L48.7528 31.4335C49.8755 31.8532 50.5935 32.8508 50.5647 33.8031L51.1644 33.8213ZM48.1174 24.4385C47.2383 24.6238 46.5871 25.0825 46.2226 25.8689L46.767 26.1212C47.0397 25.5328 47.5168 25.1783 48.2412 25.0256L48.1174 24.4385ZM48.4793 29.0015V24.7321H47.8793V29.0015H48.4793ZM47.511 28.8498C47.668 28.9733 47.8264 29.098 47.9873 29.232L48.3713 28.771C48.203 28.6308 48.0382 28.5012 47.8821 28.3783L47.511 28.8498ZM46.5405 28.0014C46.8321 28.3163 47.1708 28.582 47.511 28.8498L47.8821 28.3783C47.5346 28.1048 47.2346 27.8679 46.9807 27.5937L46.5405 28.0014ZM46.2226 25.8689C45.8784 26.6116 45.9801 27.3951 46.5403 28.0012L46.9809 27.5939C46.5941 27.1754 46.5197 26.6547 46.767 26.1212L46.2226 25.8689ZM31.9067 24.6457H36.9022V24.0457H31.9067V24.6457ZM32.1806 24.3771C32.1567 24.3758 32.1379 24.3748 32.1205 24.3733C32.1033 24.3719 32.0916 24.3704 32.0835 24.369C32.0753 24.3675 32.0748 24.3668 32.0793 24.3685C32.084 24.3702 32.0971 24.3758 32.1131 24.3884C32.1302 24.4018 32.1467 24.4204 32.159 24.4433C32.1709 24.4657 32.1747 24.4846 32.1758 24.4949C32.1768 24.5042 32.1755 24.5053 32.1771 24.495C32.1787 24.4847 32.1826 24.4669 32.1916 24.4397L31.6218 24.2517C31.5897 24.349 31.5679 24.4545 31.5793 24.5597C31.5921 24.6776 31.6462 24.7844 31.7419 24.8598C31.8258 24.9258 31.9187 24.9492 31.9793 24.9599C32.0412 24.9708 32.1057 24.9739 32.1476 24.9762L32.1806 24.3771ZM32.2566 24.382C32.2295 24.3798 32.2027 24.3784 32.1806 24.3771L32.1476 24.9762C32.1711 24.9775 32.19 24.9786 32.208 24.9801L32.2566 24.382ZM33.7557 25.7187C33.7546 25.3251 33.619 24.99 33.3336 24.7518C33.0601 24.5235 32.6838 24.4137 32.2545 24.3819L32.2101 24.9802C32.5756 25.0073 32.8101 25.0964 32.9491 25.2125C33.0763 25.3186 33.155 25.4733 33.1557 25.7204L33.7557 25.7187ZM33.7604 32.8044C33.7621 30.4427 33.7637 28.0804 33.7557 25.7186L33.1557 25.7206C33.1637 28.081 33.1621 30.4421 33.1604 32.8039L33.7604 32.8044ZM33.7592 35.0418C33.7594 34.296 33.7599 33.5502 33.7604 32.8044L33.1604 32.8039C33.1599 33.5498 33.1594 34.2957 33.1592 35.0416L33.7592 35.0418ZM32.8719 36.2399C33.134 36.1553 33.3613 36.0148 33.522 35.8033C33.6838 35.5905 33.7592 35.3305 33.7592 35.0417H33.1592C33.1592 35.2238 33.1132 35.3497 33.0443 35.4403C32.9744 35.5323 32.862 35.6126 32.6877 35.6689L32.8719 36.2399ZM32.5128 36.3236C32.6182 36.3039 32.7458 36.2805 32.8717 36.2399L32.6878 35.6688C32.6043 35.6957 32.5145 35.7129 32.4026 35.7338L32.5128 36.3236ZM32.2317 36.3873C32.3141 36.3611 32.4027 36.3442 32.5128 36.3236L32.4026 35.7338C32.2988 35.7532 32.1735 35.7762 32.0499 35.8155L32.2317 36.3873ZM32.156 36.4518C32.1874 36.4233 32.2058 36.4071 32.2224 36.3949C32.2379 36.3834 32.24 36.3846 32.2319 36.3872L32.0497 35.8155C31.9075 35.8608 31.8002 35.9646 31.7539 36.0064L32.156 36.4518ZM32.058 36.5353C32.0962 36.5059 32.1313 36.474 32.156 36.4518L31.7539 36.0064C31.7259 36.0317 31.7083 36.0474 31.692 36.0599L32.058 36.5353ZM32.1347 36.1039C32.1052 36.0848 32.0597 36.055 32.011 36.0302L31.739 36.565C31.7548 36.5731 31.7736 36.5849 31.8086 36.6076L32.1347 36.1039ZM32.1822 36.1464C32.2103 36.1464 32.222 36.1551 32.2076 36.1481C32.2014 36.1451 32.1926 36.1403 32.1797 36.1325C32.1666 36.1245 32.1528 36.1156 32.1347 36.1039L31.8086 36.6076C31.8402 36.628 31.8911 36.6614 31.9459 36.688C32.0015 36.715 32.0835 36.7464 32.1822 36.7464V36.1464ZM41.4596 36.1402C38.368 36.1561 35.2762 36.1543 32.1829 36.1464L32.1814 36.7464C35.2753 36.7543 38.3689 36.7561 41.4627 36.7402L41.4596 36.1402ZM41.5097 36.0706C41.5122 36.0623 41.5143 36.0591 41.5132 36.061C41.5123 36.0627 41.5098 36.0669 41.505 36.0732C41.4952 36.0863 41.4807 36.102 41.4635 36.1166C41.446 36.1316 41.4314 36.1407 41.4233 36.1448C41.4195 36.1467 41.42 36.146 41.4247 36.1447C41.429 36.1434 41.4418 36.1402 41.4612 36.1402V36.7402C41.5544 36.7402 41.6351 36.7097 41.6915 36.6815C41.7513 36.6516 41.8064 36.613 41.8536 36.5726C41.939 36.4995 42.0412 36.384 42.0833 36.2465L41.5097 36.0706ZM41.9914 34.3747C41.8357 34.9455 41.6814 35.5111 41.5097 36.0706L42.0833 36.2466C42.2582 35.6766 42.415 35.1019 42.5703 34.5326L41.9914 34.3747ZM42.149 33.8C42.0959 33.9917 42.0436 34.1835 41.9914 34.3747L42.5703 34.5326C42.6225 34.3412 42.6745 34.1504 42.7272 33.9599L42.149 33.8ZM42.2428 33.4663C42.212 33.5754 42.1804 33.6872 42.1491 33.7993L42.7271 33.9606C42.758 33.8496 42.7894 33.7388 42.8202 33.6295L42.2428 33.4663ZM42.3059 33.2426C42.2854 33.3157 42.2643 33.3903 42.2428 33.4663L42.8202 33.6295C42.8417 33.5536 42.8629 33.4784 42.8836 33.4048L42.3059 33.2426ZM42.2786 33.7115C42.3049 33.6563 42.3254 33.6195 42.3435 33.5942C42.3609 33.5698 42.3689 33.5662 42.3659 33.568C42.3596 33.5717 42.3561 33.5701 42.3664 33.5703C42.381 33.5706 42.4168 33.5752 42.4815 33.6015L42.708 33.0459C42.4894 32.9568 42.264 32.9322 42.0623 33.0505C41.8863 33.1537 41.7938 33.3339 41.7369 33.4535L42.2786 33.7115ZM39.3778 35.8328C40.7887 35.7213 41.7099 34.9089 42.2787 33.7112L41.7367 33.4538C41.2389 34.5021 40.4825 35.1436 39.3306 35.2346L39.3778 35.8328ZM37.1205 35.9455C37.8771 35.941 38.6323 35.891 39.3776 35.8328L39.3308 35.2346C38.5887 35.2926 37.8512 35.3411 37.1169 35.3455L37.1205 35.9455ZM35.7997 35.7825C36.2168 35.8696 36.6675 35.9483 37.1206 35.9455L37.1168 35.3455C36.7302 35.3479 36.3308 35.2805 35.9224 35.1952L35.7997 35.7825ZM35.0154 34.7944C35.0154 35.0385 35.0789 35.2647 35.2234 35.4457C35.3683 35.6271 35.572 35.7346 35.7993 35.7824L35.9227 35.1952C35.8025 35.17 35.7332 35.1225 35.6922 35.0712C35.6509 35.0194 35.6154 34.9349 35.6154 34.7944H35.0154ZM35.0158 31.4001C35.0163 32.5315 35.0167 33.6627 35.0154 34.794L35.6154 34.7948C35.6167 33.6629 35.6163 32.5312 35.6158 31.3998L35.0158 31.4001ZM35.0215 25.8223C35.0144 27.6821 35.0151 29.5414 35.0158 31.4001L35.6158 31.3998C35.6151 29.5409 35.6144 27.6829 35.6215 25.8246L35.0215 25.8223ZM36.1308 24.4487C35.7941 24.5359 35.5034 24.6707 35.3021 24.9118C35.0975 25.1568 35.0225 25.4665 35.0215 25.8226L35.6215 25.8243C35.6223 25.5476 35.6802 25.3952 35.7627 25.2963C35.8486 25.1935 35.9992 25.1026 36.2812 25.0296L36.1308 24.4487ZM36.4016 24.4093C36.3317 24.4152 36.2313 24.4229 36.1313 24.4486L36.2807 25.0297C36.3234 25.0187 36.3725 25.0139 36.4517 25.0072L36.4016 24.4093ZM36.5872 24.3824C36.5454 24.3959 36.4946 24.4015 36.4016 24.4093L36.4517 25.0072C36.5315 25.0005 36.653 24.9917 36.7719 24.9533L36.5872 24.3824ZM36.6889 24.3055C36.6547 24.3344 36.6327 24.3527 36.6123 24.367C36.5929 24.3806 36.5852 24.383 36.5861 24.3828L36.773 24.9529C36.9128 24.9071 37.0222 24.8094 37.0759 24.764L36.6889 24.3055ZM36.7944 24.221C36.754 24.2504 36.7165 24.2822 36.6889 24.3055L37.0759 24.764C37.1066 24.7381 37.1275 24.7207 37.1473 24.7063L36.7944 24.221ZM36.6775 24.5561C36.689 24.5757 36.7001 24.5947 36.7111 24.6137L37.2306 24.3136C37.2187 24.293 37.2069 24.2728 37.1956 24.2534L36.6775 24.5561ZM36.6424 24.4958C36.6543 24.5163 36.6661 24.5366 36.6775 24.5561L37.1956 24.2534C37.1841 24.2337 37.173 24.2147 37.162 24.1956L36.6424 24.4958Z"/></g><defs><clipPath id="a"><rect width="36" height="36" fill="#fff" transform="translate(24 13)"/></clipPath></defs></svg>