<svg xmlns="http://www.w3.org/2000/svg" fill="none" viewBox="0 0 64 64"><path fill="#50D9D7" d="M29.8813 50.9469C26.1543 52.3403 22.1038 52.6259 18.2181 51.7693C14.3325 50.9127 10.7775 48.9504 7.98194 46.119C5.18634 43.2876 3.26941 39.708 2.46227 35.8118C1.65512 31.9156 1.99222 27.869 3.43291 24.1601C4.87361 20.4511 7.3564 17.238 10.5819 14.9082C13.8075 12.5784 17.6381 11.2314 21.6119 11.0295C25.5858 10.8276 29.5332 11.7795 32.9782 13.7704C36.4233 15.7613 39.2189 18.7061 41.0281 22.25C42.3499 24.8391 43.1094 27.6783 43.2569 30.5814C43.4044 33.4846 42.9365 36.3861 41.884 39.0958C40.8315 41.8055 39.218 44.2621 37.1495 46.3044C35.081 48.3468 32.6041 49.9289 29.8813 50.9469V50.9469Z"/><path fill="#93E6E5" d="M43.2781 32.5626C43.3156 31.9382 43.3156 31.3121 43.2781 30.6876H33.9031C33.8193 27.7902 33.2126 24.9318 32.1125 22.2501H41.0281C40.7042 21.6035 40.341 20.9774 39.9406 20.3751H31.2125C29.2556 16.7668 26.5286 13.6333 23.225 11.197C23.0611 11.0708 22.86 11.0024 22.6531 11.0024C22.4463 11.0024 22.2452 11.0708 22.0813 11.197C18.7751 13.6306 16.0476 16.7647 14.0938 20.3751H5.36563C4.96524 20.9774 4.60207 21.6035 4.27813 22.2501H13.2219C12.1121 24.93 11.4959 27.7885 11.4031 30.6876H2.02813C1.99062 31.3121 1.99062 31.9382 2.02813 32.5626H11.4031C11.487 35.46 12.0936 38.3184 13.1938 41.0001H4.27813C4.60207 41.6467 4.96524 42.2729 5.36563 42.8751H14.0938C16.0476 46.4856 18.7751 49.6197 22.0813 52.0533C22.2452 52.1794 22.4463 52.2479 22.6531 52.2479C22.86 52.2479 23.0611 52.1794 23.225 52.0533C26.5335 49.6222 29.2615 46.4875 31.2125 42.8751H39.9406C40.341 42.2729 40.7042 41.6467 41.0281 41.0001H32.0844C33.1942 38.3202 33.8103 35.4618 33.9031 32.5626H43.2781ZM22.6531 13.1283C25.2238 15.1229 27.3987 17.5808 29.0656 20.3751H16.2406C17.9116 17.5838 20.0859 15.1266 22.6531 13.1283V13.1283ZM22.6531 50.122C20.0859 48.1237 17.9116 45.6665 16.2406 42.8751H29.0656C27.3957 45.6673 25.2212 48.1246 22.6531 50.122V50.122ZM30.0313 41.0001H15.275C14.0563 38.3479 13.3775 35.4797 13.2781 32.5626H32.0281C31.9287 35.4797 31.2499 38.3479 30.0313 41.0001V41.0001ZM13.2781 30.6876C13.3687 27.7724 14.0379 24.9043 15.2469 22.2501H30.0313C31.2499 24.9023 31.9287 27.7705 32.0281 30.6876H13.2781Z"/><path fill="#00BEBD" d="M39.9406 20.375H31.2125C30.0623 18.2008 28.607 16.2024 26.8906 14.4406 27.8275 13.6477 28.8277 12.9328 29.8812 12.3031 34.0111 13.8492 37.5366 16.6782 39.9406 20.375V20.375zM39.9406 42.875C37.5366 46.5718 34.0111 49.4008 29.8812 50.9469 28.8277 50.3171 27.8275 49.6023 26.8906 48.8094 28.607 47.0475 30.0623 45.0492 31.2125 42.875H39.9406zM32.0281 32.5625C31.9376 35.4777 31.2684 38.3458 30.0594 41H20.9563C19.7261 38.349 19.0286 35.4823 18.9031 32.5625H32.0281zM32.0281 30.6875H18.9031C19.0227 27.769 19.7139 24.9023 20.9375 22.25H30.0125C31.2376 24.9009 31.9228 27.7691 32.0281 30.6875V30.6875zM29.0656 20.375H21.9219C22.9111 18.6639 24.1181 17.0882 25.5125 15.6875 26.8797 17.1026 28.0726 18.6763 29.0656 20.375V20.375zM29.0656 42.875C28.0726 44.5737 26.8797 46.1474 25.5125 47.5625 24.1181 46.1618 22.9111 44.5861 21.9219 42.875H29.0656z"/><path fill="#50D9D7" d="M33.9031 32.5625C33.8193 35.4599 33.2126 38.3183 32.1125 41H41.0281C40.7042 41.6466 40.341 42.2727 39.9406 42.875H31.2125C30.0623 45.0491 28.607 47.0475 26.8906 48.8094C26.4125 48.4062 25.9531 47.9844 25.5125 47.5344C26.8798 46.1193 28.0726 44.5456 29.0656 42.8469H21.9219C21.575 42.2375 21.2469 41.6187 20.9844 40.9719H30.0594C31.2647 38.3263 31.9339 35.4681 32.0281 32.5625H18.9031C18.9031 31.7375 18.9031 31.5125 18.9031 30.6875H32.0281C31.9376 27.7723 31.2684 24.9042 30.0594 22.25H20.9563C21.2469 21.6031 21.575 20.9844 21.8938 20.375H29.0375C28.0445 18.6762 26.8516 17.1025 25.4844 15.6875C25.925 15.2375 26.4219 14.8156 26.8625 14.4125C28.591 16.1811 30.056 18.1891 31.2125 20.375H39.9406C40.341 20.9772 40.7042 21.6034 41.0281 22.25H32.0844C33.1942 24.9299 33.8103 27.7884 33.9031 30.6875H43.2781C43.3156 31.3119 43.3156 31.938 43.2781 32.5625H33.9031Z"/><path fill="#EA9706" d="M41.4031 52.25C52.794 52.25 62.0281 43.0159 62.0281 31.625C62.0281 20.2341 52.794 11 41.4031 11C30.0123 11 20.7781 20.2341 20.7781 31.625C20.7781 43.0159 30.0123 52.25 41.4031 52.25Z"/><path fill="#FFAC00" d="M41.4031 48.5C50.7229 48.5 58.2781 40.9448 58.2781 31.625C58.2781 22.3052 50.7229 14.75 41.4031 14.75C32.0833 14.75 24.5281 22.3052 24.5281 31.625C24.5281 40.9448 32.0833 48.5 41.4031 48.5Z"/><g clip-path="url(#a)"><path fill="#fff" fill-rule="evenodd" d="M44.3672 30.5551C44.6849 30.7815 44.8589 30.9049 44.8589 30.9049C44.7333 31.2859 44.6 31.6547 44.4691 32.0166L44.4691 32.0166C44.1758 32.8279 43.895 33.6045 43.742 34.4061C43.529 35.5129 44.0867 36.2379 45.1952 36.3798C46.0925 36.4947 47.054 36.4778 47.9344 36.2835C49.5752 35.9202 50.2071 35.1074 50.0078 33.4463C49.7854 31.5939 49.4443 29.7546 49.1035 27.916L49.1032 27.9148C49.0194 27.4628 48.9356 27.0108 48.8536 26.5587C48.8237 26.3924 48.7233 26.2254 48.626 26.0636C48.5038 25.8603 48.3864 25.665 48.4193 25.489C48.5319 24.8925 48.7345 24.3133 48.9268 23.7638L48.9268 23.7638C49.003 23.5459 49.0776 23.3327 49.1443 23.125C49.3528 23.303 49.5607 23.4686 49.7628 23.6298L49.7629 23.6298L49.7629 23.6298C50.242 24.0117 50.6892 24.368 51.0385 24.803C51.2329 25.0446 51.1365 25.7476 50.9152 26.0551C50.1884 27.0644 50.3833 28.0806 50.5794 29.1022L50.5794 29.1023C50.639 29.4131 50.6988 29.7245 50.7327 30.0363C50.8704 31.3012 50.9808 32.5688 51.0913 33.8364L51.0913 33.8365L51.0914 33.8378C51.1341 34.3275 51.1768 34.8172 51.221 35.3068C51.2266 35.3748 51.2219 35.445 51.2172 35.5148L51.2143 35.5603C51.1281 37.0135 49.7763 38.3805 47.8718 38.9432C45.8965 39.5279 43.9853 39.1494 43.1455 37.9412C42.2364 36.635 42.4391 35.1767 42.8717 33.8046C43.113 33.0447 43.4793 32.3255 43.8559 31.5862C44.0278 31.2486 44.2019 30.9068 44.3672 30.5551ZM32.167 32.3412C33.0244 33.1109 33.9872 33.056 34.988 32.9989C35.5493 32.9668 36.1224 32.9341 36.6956 33.0458C36.5706 31.6686 36.16 30.5804 35.1579 29.8014C34.7811 29.5091 34.7017 29.2336 34.8132 28.8078C34.9522 28.2814 35.0755 27.7509 35.2051 27.1939C35.2614 26.9517 35.3189 26.7046 35.3793 26.4505C36.427 27.1096 37.0961 28.0609 37.2567 29.1593C37.4718 30.6299 37.5783 32.1164 37.6866 33.6294L37.6866 33.6294L37.6866 33.6295C37.7323 34.267 37.7783 34.9092 37.8329 35.5569C37.341 35.5569 36.8669 35.5601 36.4058 35.5633C35.1387 35.572 33.9704 35.58 32.8057 35.518C32.4914 35.5011 32.0031 35.0161 31.9456 34.6849C31.8532 34.1556 31.8716 33.6067 31.89 33.0575C31.8975 32.8335 31.905 32.6095 31.905 32.3868C31.9912 32.3716 32.0791 32.3564 32.167 32.3412ZM41.319 38.3805V35.7732H38.661V38.3805H41.319Z" clip-rule="evenodd"/></g><defs><clipPath id="a"><rect width="36" height="36" fill="#fff" transform="translate(24 13)"/></clipPath></defs></svg>