<svg xmlns="http://www.w3.org/2000/svg" fill="none" viewBox="0 0 64 64"><path fill="#50D9D7" d="M29.8813 50.9469C26.1543 52.3403 22.1038 52.6259 18.2181 51.7693C14.3325 50.9127 10.7775 48.9504 7.98194 46.119C5.18634 43.2876 3.26941 39.708 2.46227 35.8118C1.65512 31.9156 1.99222 27.869 3.43291 24.1601C4.87361 20.4511 7.3564 17.238 10.5819 14.9082C13.8075 12.5784 17.6381 11.2314 21.6119 11.0295C25.5858 10.8276 29.5332 11.7795 32.9782 13.7704C36.4233 15.7613 39.2189 18.7061 41.0281 22.25C42.3499 24.8391 43.1094 27.6783 43.2569 30.5814C43.4044 33.4846 42.9365 36.3861 41.884 39.0958C40.8315 41.8055 39.218 44.2621 37.1495 46.3044C35.081 48.3468 32.6041 49.9289 29.8813 50.9469V50.9469Z"/><path fill="#93E6E5" d="M43.2781 32.5626C43.3156 31.9382 43.3156 31.3121 43.2781 30.6876H33.9031C33.8193 27.7902 33.2126 24.9318 32.1125 22.2501H41.0281C40.7042 21.6035 40.341 20.9774 39.9406 20.3751H31.2125C29.2556 16.7668 26.5286 13.6333 23.225 11.197C23.0611 11.0708 22.86 11.0024 22.6531 11.0024C22.4463 11.0024 22.2452 11.0708 22.0813 11.197C18.7751 13.6306 16.0476 16.7647 14.0938 20.3751H5.36563C4.96524 20.9774 4.60207 21.6035 4.27813 22.2501H13.2219C12.1121 24.93 11.4959 27.7885 11.4031 30.6876H2.02813C1.99062 31.3121 1.99062 31.9382 2.02813 32.5626H11.4031C11.487 35.46 12.0936 38.3184 13.1938 41.0001H4.27813C4.60207 41.6467 4.96524 42.2729 5.36563 42.8751H14.0938C16.0476 46.4856 18.7751 49.6197 22.0813 52.0533C22.2452 52.1794 22.4463 52.2479 22.6531 52.2479C22.86 52.2479 23.0611 52.1794 23.225 52.0533C26.5335 49.6222 29.2615 46.4875 31.2125 42.8751H39.9406C40.341 42.2729 40.7042 41.6467 41.0281 41.0001H32.0844C33.1942 38.3202 33.8103 35.4618 33.9031 32.5626H43.2781ZM22.6531 13.1283C25.2238 15.1229 27.3987 17.5808 29.0656 20.3751H16.2406C17.9116 17.5838 20.0859 15.1266 22.6531 13.1283V13.1283ZM22.6531 50.122C20.0859 48.1237 17.9116 45.6665 16.2406 42.8751H29.0656C27.3957 45.6673 25.2212 48.1246 22.6531 50.122V50.122ZM30.0313 41.0001H15.275C14.0563 38.3479 13.3775 35.4797 13.2781 32.5626H32.0281C31.9287 35.4797 31.2499 38.3479 30.0313 41.0001V41.0001ZM13.2781 30.6876C13.3687 27.7724 14.0379 24.9043 15.2469 22.2501H30.0313C31.2499 24.9023 31.9287 27.7705 32.0281 30.6876H13.2781Z"/><path fill="#00BEBD" d="M39.9406 20.375H31.2125C30.0623 18.2008 28.607 16.2024 26.8906 14.4406 27.8275 13.6477 28.8277 12.9328 29.8812 12.3031 34.0111 13.8492 37.5366 16.6782 39.9406 20.375V20.375zM39.9406 42.875C37.5366 46.5718 34.0111 49.4008 29.8812 50.9469 28.8277 50.3171 27.8275 49.6023 26.8906 48.8094 28.607 47.0475 30.0623 45.0492 31.2125 42.875H39.9406zM32.0281 32.5625C31.9376 35.4777 31.2684 38.3458 30.0594 41H20.9563C19.7261 38.349 19.0286 35.4823 18.9031 32.5625H32.0281zM32.0281 30.6875H18.9031C19.0227 27.769 19.7139 24.9023 20.9375 22.25H30.0125C31.2376 24.9009 31.9228 27.7691 32.0281 30.6875V30.6875zM29.0656 20.375H21.9219C22.9111 18.6639 24.1181 17.0882 25.5125 15.6875 26.8797 17.1026 28.0726 18.6763 29.0656 20.375V20.375zM29.0656 42.875C28.0726 44.5737 26.8797 46.1474 25.5125 47.5625 24.1181 46.1618 22.9111 44.5861 21.9219 42.875H29.0656z"/><path fill="#50D9D7" d="M33.9031 32.5625C33.8193 35.4599 33.2126 38.3183 32.1125 41H41.0281C40.7042 41.6466 40.341 42.2727 39.9406 42.875H31.2125C30.0623 45.0491 28.607 47.0475 26.8906 48.8094C26.4125 48.4062 25.9531 47.9844 25.5125 47.5344C26.8798 46.1193 28.0726 44.5456 29.0656 42.8469H21.9219C21.575 42.2375 21.2469 41.6187 20.9844 40.9719H30.0594C31.2647 38.3263 31.9339 35.4681 32.0281 32.5625H18.9031C18.9031 31.7375 18.9031 31.5125 18.9031 30.6875H32.0281C31.9376 27.7723 31.2684 24.9042 30.0594 22.25H20.9563C21.2469 21.6031 21.575 20.9844 21.8938 20.375H29.0375C28.0445 18.6762 26.8516 17.1025 25.4844 15.6875C25.925 15.2375 26.4219 14.8156 26.8625 14.4125C28.591 16.1811 30.056 18.1891 31.2125 20.375H39.9406C40.341 20.9772 40.7042 21.6034 41.0281 22.25H32.0844C33.1942 24.9299 33.8103 27.7884 33.9031 30.6875H43.2781C43.3156 31.3119 43.3156 31.938 43.2781 32.5625H33.9031Z"/><path fill="#EA9706" d="M41.4031 52.25C52.794 52.25 62.0281 43.0159 62.0281 31.625C62.0281 20.2341 52.794 11 41.4031 11C30.0123 11 20.7781 20.2341 20.7781 31.625C20.7781 43.0159 30.0123 52.25 41.4031 52.25Z"/><path fill="#FFAC00" d="M41.4031 48.5C50.7229 48.5 58.2781 40.9448 58.2781 31.625C58.2781 22.3052 50.7229 14.75 41.4031 14.75C32.0833 14.75 24.5281 22.3052 24.5281 31.625C24.5281 40.9448 32.0833 48.5 41.4031 48.5Z"/><g clip-path="url(#a)"><path fill="#fff" fill-rule="evenodd" d="M43.4831 37.5241H38.821C38.8156 37.5045 38.8098 37.4845 38.804 37.4646C38.7982 37.4446 38.7924 37.4247 38.787 37.4051C38.8252 37.3867 38.8628 37.366 38.9002 37.3453C38.9762 37.3034 39.0519 37.2616 39.1324 37.2394C40.1715 36.9592 40.2748 36.8131 39.9341 35.8296C39.7213 35.2151 39.4561 34.6141 39.1555 34.0357C39.0676 33.8655 38.7824 33.6968 38.5851 33.6923C37.2253 33.6622 35.8655 33.6652 34.5057 33.6908C34.3253 33.6938 34.0586 33.8459 33.9876 33.998C33.6901 34.6321 33.4064 35.2813 33.2044 35.9486C32.9516 36.777 33.1196 37.0014 33.9845 37.2379C34.1187 37.2755 34.2497 37.3252 34.3669 37.5015H30.75C32.0088 36.8381 32.4532 35.6818 32.8927 34.5383C33.013 34.2253 33.133 33.9132 33.2692 33.6124C33.9811 32.0385 34.6617 30.451 35.3422 28.8635L35.3423 28.8635C35.7493 27.9141 36.1563 26.9646 36.57 26.0182C36.6396 25.8586 36.7516 25.7166 36.8638 25.5744C36.9158 25.5086 36.9678 25.4427 37.0156 25.375C37.0697 25.445 37.129 25.5128 37.1883 25.5807L37.1883 25.5807L37.1883 25.5807C37.3168 25.7277 37.4453 25.8748 37.5213 26.0438C38.3071 27.7855 39.0865 29.5296 39.8659 31.2737C40.4689 32.623 41.0719 33.9723 41.6778 35.3205C41.7031 35.3769 41.7282 35.4335 41.7534 35.4902L41.7534 35.4903C42.1136 36.3025 42.4773 37.1224 43.5494 37.3448L43.5238 37.4138L43.5237 37.414C43.5101 37.4504 43.4963 37.4872 43.4831 37.5241ZM38.713 32.8849C37.9869 31.2191 37.3024 29.6496 36.5515 27.9295C35.8007 29.6797 35.1254 31.2537 34.4239 32.8849H38.713ZM46.8767 26.5004V27.975C46.9774 27.8616 47.0661 27.7592 47.1477 27.6652L47.1477 27.6651C47.312 27.4756 47.4473 27.3196 47.5936 27.1737C48.0638 26.7052 48.625 26.3558 49.3049 26.5591C49.5824 26.642 49.9 26.9869 49.9601 27.2625C50.0187 27.5367 49.8599 27.978 49.6379 28.1467C49.4622 28.2807 49.0336 28.1572 48.7391 28.0714C48.6007 28.0309 48.4346 27.9363 48.2833 27.8501C48.0909 27.7405 47.9226 27.6446 47.8665 27.6918C47.4795 28.0187 46.9707 28.463 46.9414 28.8907C46.8351 30.4888 46.869 32.1005 46.9353 33.7031C46.9442 33.9241 47.2317 34.1482 47.4854 34.3458C47.5394 34.3879 47.5919 34.4288 47.6398 34.4682C47.691 34.5102 47.7588 34.5335 47.8316 34.5585C47.9364 34.5944 48.0515 34.6339 48.1424 34.7378H43.9813C43.9844 34.7202 43.986 34.6994 43.9874 34.6792V34.6792C43.9904 34.6391 43.9932 34.6018 44.0075 34.5978C45.281 34.1956 45.318 34.1534 45.3103 32.8069C45.3082 32.4981 45.3073 32.1892 45.3064 31.8804V31.8803V31.8802C45.3032 30.8096 45.3001 29.7393 45.2486 28.6708C45.1993 27.6436 45.0081 27.5352 43.9166 27.4794C44.571 27.2635 45.2254 27.0469 45.9212 26.8166L45.9215 26.8165L46.8767 26.5004ZM52.1833 31.8423C52.7845 31.8785 53.2316 31.4824 53.2501 30.9115C53.2686 30.3437 52.8385 29.8888 52.2696 29.8752C51.7238 29.8632 51.212 30.3301 51.2336 30.8678C51.2582 31.4447 51.5666 31.8047 52.1833 31.8423Z" clip-rule="evenodd"/><path fill="#fff" d="M38.821 37.5241L38.5317 37.6038L38.5924 37.8241H38.821V37.5241ZM43.4831 37.5241V37.8241H43.6943L43.7656 37.6252L43.4831 37.5241ZM38.804 37.4646L39.0922 37.3811L39.0921 37.3811L38.804 37.4646ZM38.787 37.4051L38.6568 37.1348L38.4313 37.2435L38.4978 37.4848L38.787 37.4051ZM38.9002 37.3453L39.0452 37.6079L39.0452 37.6079L38.9002 37.3453ZM39.1324 37.2394L39.0543 36.9497L39.0527 36.9502L39.1324 37.2394ZM39.9341 35.8296L39.6506 35.9277L39.6506 35.9278L39.9341 35.8296ZM39.1555 34.0357L38.8889 34.1733L38.8893 34.1741L39.1555 34.0357ZM38.5851 33.6923L38.5919 33.3924L38.5917 33.3924L38.5851 33.6923ZM34.5057 33.6908L34.5107 33.9907L34.5113 33.9907L34.5057 33.6908ZM33.9876 33.998L34.2592 34.1255L34.2595 34.1248L33.9876 33.998ZM33.2044 35.9486L33.4914 36.0362L33.4916 36.0355L33.2044 35.9486ZM33.9845 37.2379L34.0656 36.949L34.0637 36.9485L33.9845 37.2379ZM34.3669 37.5015V37.8015H34.9266L34.6167 37.3354L34.3669 37.5015ZM30.75 37.5015L30.6101 37.2361L30.75 37.8015V37.5015ZM32.8927 34.5383L33.1728 34.6459L33.1728 34.6459L32.8927 34.5383ZM33.2692 33.6124L33.5425 33.7362L33.5425 33.7361L33.2692 33.6124ZM35.3422 28.8635L35.0698 28.7378L35.0665 28.7453L35.3422 28.8635ZM35.3423 28.8635L35.6147 28.9893L35.618 28.9817L35.3423 28.8635ZM36.57 26.0182L36.8449 26.1383L36.845 26.138L36.57 26.0182ZM36.8638 25.5744L37.0993 25.7603L37.0993 25.7603L36.8638 25.5744ZM37.0156 25.375L37.253 25.1915L37.0047 24.8704L36.7706 25.2019L37.0156 25.375ZM37.1883 25.5807L37.4163 25.3857L37.4142 25.3833L37.1883 25.5807ZM37.1883 25.5807L36.9604 25.7758L36.9753 25.7932L36.9928 25.8082L37.1883 25.5807ZM37.1883 25.5807L37.4142 25.3833L37.4001 25.3672L37.3839 25.3532L37.1883 25.5807ZM37.5213 26.0438L37.2476 26.1667L37.2478 26.1671L37.5213 26.0438ZM39.8659 31.2737L40.1398 31.1513L40.1398 31.1513L39.8659 31.2737ZM41.6778 35.3205L41.9514 35.1975L41.9514 35.1975L41.6778 35.3205ZM41.7534 35.4902L41.4791 35.6118L41.4803 35.6143L41.7534 35.4902ZM41.7534 35.4903L42.0277 35.3687L42.0265 35.3662L41.7534 35.4903ZM43.5494 37.3448L43.8306 37.4494L43.9523 37.122L43.6104 37.0511L43.5494 37.3448ZM43.5238 37.4138L43.2426 37.3093L43.242 37.3108L43.5238 37.4138ZM43.5237 37.414L43.8047 37.519L43.8055 37.517L43.5237 37.414ZM36.5515 27.9295L36.8265 27.8095L36.5491 27.1741L36.2758 27.8113L36.5515 27.9295ZM38.713 32.8849V33.1849H39.1711L38.988 32.7651L38.713 32.8849ZM34.4239 32.8849L34.1483 32.7664L33.9684 33.1849H34.4239V32.8849ZM46.8767 27.975H46.5767V28.7644L47.101 28.1742L46.8767 27.975ZM46.8767 26.5004H47.1767V26.0851L46.7824 26.2156L46.8767 26.5004ZM47.1477 27.6652L47.3746 27.8618L47.382 27.8526L47.1477 27.6652ZM47.1477 27.6651L46.9209 27.4685L46.9135 27.4777L47.1477 27.6651ZM47.5936 27.1737L47.3819 26.9611L47.3817 26.9613L47.5936 27.1737ZM49.3049 26.5591L49.2189 26.8466L49.2191 26.8466L49.3049 26.5591ZM49.9601 27.2625L50.2535 27.1998L50.2532 27.1986L49.9601 27.2625ZM49.6379 28.1467L49.4564 27.9078L49.456 27.9081L49.6379 28.1467ZM48.7391 28.0714L48.655 28.3593L48.6551 28.3594L48.7391 28.0714ZM48.2833 27.8501L48.4318 27.5895L48.4318 27.5895L48.2833 27.8501ZM47.8665 27.6918L47.6733 27.4623L47.6729 27.4626L47.8665 27.6918ZM46.9414 28.8907L46.6421 28.8703L46.6421 28.8708L46.9414 28.8907ZM46.9353 33.7031L47.235 33.691L47.235 33.6907L46.9353 33.7031ZM47.4854 34.3458L47.6697 34.1092L47.6697 34.1092L47.4854 34.3458ZM47.6398 34.4682L47.4493 34.6999L47.4496 34.7002L47.6398 34.4682ZM47.8316 34.5585L47.7343 34.8422L47.7343 34.8422L47.8316 34.5585ZM48.1424 34.7378V35.0378H48.8035L48.3682 34.5403L48.1424 34.7378ZM43.9813 34.7378L43.6858 34.686L43.6241 35.0378H43.9813V34.7378ZM43.9874 34.6792L44.2866 34.7014L44.2874 34.6903V34.6792H43.9874ZM43.9874 34.6792L43.6883 34.6571L43.6874 34.6681V34.6792H43.9874ZM44.0075 34.5978L44.0882 34.8869L44.0979 34.8838L44.0075 34.5978ZM45.3103 32.8069L45.6103 32.8052L45.6103 32.8049L45.3103 32.8069ZM45.3064 31.8804L45.0064 31.8804L45.0064 31.8813L45.3064 31.8804ZM45.3064 31.8802L45.6064 31.8802L45.6064 31.8793L45.3064 31.8802ZM45.2486 28.6708L44.949 28.6852L44.949 28.6853L45.2486 28.6708ZM43.9166 27.4794L43.8226 27.1945L43.9013 27.779L43.9166 27.4794ZM45.9212 26.8166L45.8269 26.5318L45.8269 26.5318L45.9212 26.8166ZM45.9215 26.8165L45.8272 26.5317L45.8272 26.5317L45.9215 26.8165ZM53.2501 30.9115L52.9503 30.9017L52.9503 30.9018L53.2501 30.9115ZM52.1833 31.8423L52.165 32.1418L52.1653 32.1418L52.1833 31.8423ZM52.2696 29.8752L52.2768 29.5753L52.2762 29.5753L52.2696 29.8752ZM51.2336 30.8678L50.9338 30.8799L50.9338 30.8806L51.2336 30.8678ZM38.821 37.8241H43.4831V37.2241H38.821V37.8241ZM38.5158 37.548C38.5217 37.5684 38.5269 37.5864 38.5317 37.6038L39.1102 37.4444C39.1042 37.4226 39.0978 37.4007 39.0922 37.3811L38.5158 37.548ZM38.4978 37.4848C38.5038 37.5066 38.5102 37.5284 38.5158 37.5481L39.0921 37.3811C39.0863 37.3608 39.081 37.3427 39.0763 37.3254L38.4978 37.4848ZM38.7553 37.0826C38.7165 37.104 38.6863 37.1206 38.6568 37.1348L38.9173 37.6753C38.9642 37.6527 39.009 37.6279 39.0452 37.6079L38.7553 37.0826ZM39.0527 36.9502C38.9319 36.9834 38.825 37.0441 38.7553 37.0826L39.0452 37.6079C39.1273 37.5626 39.1718 37.5397 39.2121 37.5286L39.0527 36.9502ZM39.6506 35.9278C39.7353 36.1724 39.784 36.3421 39.8016 36.4672C39.8187 36.5889 39.8008 36.6311 39.7914 36.6474C39.7799 36.6671 39.7452 36.7091 39.6197 36.7662C39.4939 36.8234 39.3139 36.8797 39.0543 36.9497L39.2105 37.5291C39.4704 37.459 39.693 37.392 39.8682 37.3123C40.0436 37.2325 40.2083 37.1239 40.31 36.9491C40.4136 36.7709 40.4226 36.5747 40.3958 36.3836C40.3694 36.196 40.3032 35.9786 40.2176 35.7314L39.6506 35.9278ZM38.8893 34.1741C39.1841 34.7412 39.4432 35.3287 39.6506 35.9277L40.2176 35.7314C39.9994 35.1014 39.7282 34.487 39.4217 33.8973L38.8893 34.1741ZM38.5782 33.9922C38.6067 33.9929 38.6761 34.0107 38.7573 34.0593C38.84 34.1088 38.8809 34.1577 38.8889 34.1733L39.4221 33.8981C39.3423 33.7435 39.1966 33.6229 39.0654 33.5444C38.9327 33.465 38.7607 33.3962 38.5919 33.3924L38.5782 33.9922ZM34.5113 33.9907C35.8678 33.9652 37.2235 33.9622 38.5784 33.9922L38.5917 33.3924C37.2271 33.3621 35.8631 33.3652 34.5 33.3908L34.5113 33.9907ZM34.2595 34.1248C34.2563 34.1318 34.2587 34.1236 34.2791 34.1044C34.298 34.0865 34.3247 34.0664 34.3572 34.0474C34.429 34.0054 34.4897 33.9911 34.5107 33.9907L34.5006 33.3908C34.3412 33.3935 34.1784 33.4568 34.054 33.5296C33.9338 33.6 33.7886 33.7149 33.7157 33.8713L34.2595 34.1248ZM33.4916 36.0355C33.6871 35.3896 33.9633 34.7562 34.2592 34.1255L33.716 33.8706C33.4169 34.5081 33.1257 35.1731 32.9173 35.8617L33.4916 36.0355ZM34.0637 36.9485C33.8532 36.891 33.7035 36.8388 33.5972 36.7853C33.4926 36.7326 33.4498 36.6882 33.4296 36.656C33.3902 36.5931 33.3635 36.4552 33.4914 36.0362L32.9175 35.861C32.7926 36.2704 32.7235 36.6589 32.9211 36.9745C33.0194 37.1314 33.1649 37.2393 33.3272 37.3211C33.4878 37.402 33.6835 37.4666 33.9054 37.5273L34.0637 36.9485ZM34.6167 37.3354C34.4428 37.0738 34.232 36.9958 34.0656 36.9491L33.9035 37.5267C33.9634 37.5435 33.9976 37.5566 34.0258 37.5738C34.0506 37.5889 34.0814 37.6139 34.1171 37.6676L34.6167 37.3354ZM30.75 37.8015H34.3669V37.2015H30.75V37.8015ZM32.6127 34.4307C32.1684 35.5866 31.7561 36.6322 30.6101 37.2361L30.8899 37.7669C32.2615 37.044 32.738 35.777 33.1728 34.6459L32.6127 34.4307ZM32.9959 33.4887C32.8555 33.7988 32.7325 34.1191 32.6127 34.4307L33.1728 34.6459C33.2936 34.3315 33.4105 34.0276 33.5425 33.7362L32.9959 33.4887ZM35.0665 28.7453C34.3858 30.3332 33.7064 31.918 32.9958 33.4888L33.5425 33.7361C34.2559 32.159 34.9376 30.5687 35.618 28.9818L35.0665 28.7453ZM35.0699 28.7378L35.0699 28.7378L35.6146 28.9893L35.6146 28.9892L35.0699 28.7378ZM36.2951 25.898C35.8809 26.8456 35.4735 27.796 35.0665 28.7453L35.618 28.9817C36.0251 28.0321 36.4317 27.0837 36.8449 26.1383L36.2951 25.898ZM36.6283 25.3886C36.521 25.5246 36.3828 25.6969 36.295 25.8983L36.845 26.138C36.8964 26.0203 36.9822 25.9086 37.0993 25.7603L36.6283 25.3886ZM36.7706 25.2019C36.7281 25.262 36.6811 25.3216 36.6283 25.3886L37.0993 25.7603C37.1504 25.6955 37.2074 25.6234 37.2606 25.5481L36.7706 25.2019ZM37.4142 25.3833C37.3538 25.3142 37.3005 25.2531 37.253 25.1915L36.7782 25.5585C36.8388 25.6368 36.9042 25.7115 36.9624 25.7781L37.4142 25.3833ZM37.4163 25.3857L37.4163 25.3857L36.9604 25.7757L36.9604 25.7758L37.4163 25.3857ZM37.3839 25.3532L37.3838 25.3532L36.9928 25.8082L36.9928 25.8082L37.3839 25.3532ZM37.7949 25.9208C37.6974 25.7037 37.5363 25.523 37.4142 25.3833L36.9624 25.7781C37.0973 25.9324 37.1933 26.0459 37.2476 26.1667L37.7949 25.9208ZM40.1398 31.1513C39.3604 29.4073 38.5808 27.6627 37.7947 25.9204L37.2478 26.1671C38.0333 27.9083 38.8125 29.6519 39.592 31.3961L40.1398 31.1513ZM41.9514 35.1975C41.3456 33.8497 40.7428 32.5007 40.1398 31.1513L39.592 31.3961C40.195 32.7454 40.7981 34.095 41.4041 35.4435L41.9514 35.1975ZM42.0276 35.3686C42.0025 35.312 41.9771 35.2547 41.9514 35.1975L41.4041 35.4435C41.4291 35.4991 41.4539 35.555 41.4791 35.6118L42.0276 35.3686ZM42.0265 35.3662L42.0265 35.366L41.4803 35.6143L41.4803 35.6144L42.0265 35.3662ZM43.6104 37.0511C42.7065 36.8635 42.3951 36.1972 42.0277 35.3687L41.4792 35.6119C41.8321 36.4078 42.2481 37.3812 43.4885 37.6386L43.6104 37.0511ZM43.805 37.5184L43.8306 37.4494L43.2682 37.2403L43.2426 37.3093L43.805 37.5184ZM43.8055 37.517L43.8055 37.5169L43.242 37.3108L43.242 37.3109L43.8055 37.517ZM43.7656 37.6252C43.7779 37.5907 43.791 37.5558 43.8047 37.519L43.2427 37.3089C43.2292 37.345 43.2147 37.3838 43.2007 37.4229L43.7656 37.6252ZM36.2766 28.0495C37.0274 29.7696 37.7119 31.339 38.438 33.0048L38.988 32.7651C38.2619 31.0992 37.5773 29.5297 36.8265 27.8095L36.2766 28.0495ZM34.6995 33.0035C35.4011 31.3721 36.0764 29.798 36.8272 28.0478L36.2758 27.8113C35.525 29.5615 34.8498 31.1353 34.1483 32.7664L34.6995 33.0035ZM38.713 32.5849H34.4239V33.1849H38.713V32.5849ZM47.1767 27.975V26.5004H46.5767V27.975H47.1767ZM46.921 27.4686C46.8394 27.5628 46.7518 27.6638 46.6524 27.7757L47.101 28.1742C47.2031 28.0593 47.2929 27.9557 47.3744 27.8617L46.921 27.4686ZM46.9135 27.4777L46.9134 27.4777L47.382 27.8526L47.382 27.8525L46.9135 27.4777ZM47.3817 26.9613C47.2263 27.1163 47.0838 27.2809 46.9211 27.4686L47.3744 27.8617C47.5402 27.6704 47.6683 27.5229 47.8055 27.3861L47.3817 26.9613ZM49.3909 26.2717C48.5457 26.019 47.8726 26.4723 47.3819 26.9611L47.8053 27.3862C48.255 26.9382 48.7043 26.6926 49.2189 26.8466L49.3909 26.2717ZM50.2532 27.1986C50.2077 26.9899 50.0766 26.7882 49.9339 26.6345C49.791 26.4805 49.5986 26.3337 49.3907 26.2717L49.2191 26.8466C49.2887 26.8674 49.3938 26.9345 49.4941 27.0426C49.5947 27.151 49.6524 27.2595 49.667 27.3265L50.2532 27.1986ZM49.8194 28.3855C49.9935 28.2533 50.1154 28.0418 50.1862 27.8465C50.2573 27.6507 50.2987 27.4115 50.2535 27.1998L49.6668 27.3252C49.6801 27.3877 49.6714 27.5063 49.6222 27.6418C49.5729 27.7779 49.5043 27.8714 49.4564 27.9078L49.8194 28.3855ZM48.6551 28.3594C48.7989 28.4013 48.9992 28.4598 49.1886 28.4882C49.2838 28.5024 49.3885 28.5111 49.4902 28.5025C49.5893 28.494 49.7128 28.4668 49.8198 28.3852L49.456 27.9081C49.4751 27.8936 49.4792 27.9012 49.4392 27.9046C49.4019 27.9078 49.3482 27.9054 49.2775 27.8948C49.135 27.8735 48.9737 27.8273 48.8231 27.7834L48.6551 28.3594ZM48.1348 28.1108C48.2752 28.1907 48.4753 28.3069 48.655 28.3593L48.8232 27.7834C48.7261 27.755 48.5939 27.6818 48.4318 27.5895L48.1348 28.1108ZM48.0597 27.9213C47.9745 27.993 47.8868 27.9783 47.8831 27.9778C47.8717 27.976 47.8761 27.9751 47.9042 27.9873C47.9591 28.0111 48.0333 28.0529 48.1348 28.1108L48.4318 27.5895C48.3409 27.5376 48.2347 27.4767 48.1433 27.437C48.0983 27.4174 48.0381 27.3945 47.9734 27.3846C47.9163 27.3759 47.7865 27.367 47.6733 27.4623L48.0597 27.9213ZM47.2407 28.9112C47.2484 28.7994 47.3267 28.6445 47.4959 28.4507C47.6581 28.2647 47.8655 28.0854 48.06 27.921L47.6729 27.4626C47.4805 27.6251 47.2399 27.8314 47.0438 28.0562C46.8544 28.2732 46.6638 28.5543 46.6421 28.8703L47.2407 28.9112ZM47.235 33.6907C47.1688 32.091 47.1355 30.4923 47.2408 28.9107L46.6421 28.8708C46.5346 30.4854 46.5691 32.1099 46.6355 33.7155L47.235 33.6907ZM47.6697 34.1092C47.5388 34.0071 47.4215 33.915 47.3343 33.8247C47.2381 33.7252 47.2347 33.6838 47.235 33.691L46.6355 33.7151C46.6447 33.9434 46.7896 34.1245 46.9028 34.2417C47.025 34.3681 47.1783 34.4869 47.301 34.5824L47.6697 34.1092ZM47.8304 34.2365C47.7788 34.1941 47.7231 34.1507 47.6697 34.1092L47.301 34.5824C47.3557 34.6251 47.405 34.6635 47.4493 34.6999L47.8304 34.2365ZM47.929 34.2747C47.8901 34.2614 47.867 34.2532 47.8478 34.2449C47.8299 34.237 47.827 34.2337 47.8301 34.2363L47.4496 34.7002C47.5506 34.783 47.6747 34.8218 47.7343 34.8422L47.929 34.2747ZM48.3682 34.5403C48.218 34.3686 48.0278 34.3086 47.929 34.2747L47.7343 34.8422C47.8449 34.8802 47.885 34.8992 47.9166 34.9354L48.3682 34.5403ZM43.9813 35.0378H48.1424V34.4378H43.9813V35.0378ZM43.6883 34.657C43.6875 34.6678 43.687 34.6746 43.6864 34.6807C43.6858 34.6867 43.6855 34.6878 43.6858 34.686L44.2768 34.7897C44.283 34.7543 44.2854 34.7174 44.2866 34.7014L43.6883 34.657ZM43.6874 34.6792V34.6792H44.2874V34.6792H43.6874ZM43.9269 34.3088C43.8029 34.3434 43.7477 34.4375 43.7299 34.4733C43.7099 34.5138 43.7019 34.551 43.6986 34.5683C43.6917 34.6041 43.6893 34.6432 43.6883 34.6571L44.2866 34.7013C44.2886 34.6751 44.289 34.6755 44.2878 34.6816C44.2873 34.6841 44.283 34.7087 44.2676 34.7398C44.2545 34.7662 44.205 34.8541 44.0882 34.8867L43.9269 34.3088ZM45.0103 32.8086C45.0122 33.1496 45.0109 33.3862 44.9909 33.565C44.9713 33.7403 44.9369 33.825 44.8971 33.8795C44.8573 33.9339 44.7873 33.9921 44.627 34.0638C44.4634 34.1369 44.2401 34.2097 43.9172 34.3117L44.0979 34.8838C44.4116 34.7848 44.6706 34.7015 44.8718 34.6115C45.0764 34.5201 45.2539 34.4082 45.3815 34.2335C45.5092 34.0588 45.5622 33.8554 45.5872 33.6315C45.6118 33.4111 45.6122 33.1374 45.6103 32.8052L45.0103 32.8086ZM45.0064 31.8813C45.0073 32.19 45.0082 32.4994 45.0103 32.8089L45.6103 32.8049C45.6082 32.4967 45.6073 32.1884 45.6064 31.8795L45.0064 31.8813ZM45.0064 31.8803V31.8804H45.6064V31.8803H45.0064ZM45.0064 31.8802V31.8803H45.6064V31.8802H45.0064ZM44.949 28.6853C45 29.7458 45.0032 30.8093 45.0064 31.8811L45.6064 31.8793C45.6032 30.8098 45.6001 29.7328 45.5483 28.6564L44.949 28.6853ZM43.9013 27.779C44.174 27.793 44.3713 27.8095 44.5201 27.8389C44.6676 27.8681 44.7386 27.9049 44.7787 27.939C44.8144 27.9695 44.852 28.0205 44.8835 28.1372C44.9166 28.26 44.9368 28.4325 44.949 28.6852L45.5483 28.6565C45.5357 28.3956 45.5136 28.1693 45.4628 27.9811C45.4105 27.7868 45.3228 27.6146 45.1682 27.4826C45.0178 27.3543 44.8332 27.2893 44.6365 27.2503C44.4409 27.2117 44.2049 27.1938 43.9319 27.1798L43.9013 27.779ZM45.8269 26.5318C45.1311 26.7621 44.4768 26.9787 43.8226 27.1945L44.0106 27.7643C44.6651 27.5484 45.3196 27.3317 46.0155 27.1014L45.8269 26.5318ZM45.8272 26.5317L45.8269 26.5318L46.0155 27.1014L46.0158 27.1013L45.8272 26.5317ZM46.7824 26.2156L45.8272 26.5317L46.0158 27.1013L46.9709 26.7852L46.7824 26.2156ZM52.9503 30.9018C52.9376 31.2927 52.6452 31.5696 52.2013 31.5429L52.1653 32.1418C52.9239 32.1874 53.5257 31.672 53.55 30.9212L52.9503 30.9018ZM52.2625 30.1751C52.665 30.1847 52.9634 30.5008 52.9503 30.9017L53.55 30.9213C53.5739 30.1865 53.012 29.5928 52.2768 29.5753L52.2625 30.1751ZM51.5333 30.8558C51.5196 30.513 51.8674 30.1664 52.263 30.1752L52.2762 29.5753C51.5803 29.5599 50.9044 30.1473 50.9338 30.8799L51.5333 30.8558ZM52.2016 31.5429C51.9488 31.5275 51.7971 31.4495 51.7047 31.3515C51.6106 31.2517 51.5435 31.0943 51.5333 30.855L50.9338 30.8806C50.9483 31.2182 51.0477 31.5292 51.2681 31.7631C51.4903 31.9987 51.801 32.1196 52.165 32.1418L52.2016 31.5429Z"/></g><defs><clipPath id="a"><rect width="36" height="36" fill="#fff" transform="translate(24 13)"/></clipPath></defs></svg>