<svg xmlns="http://www.w3.org/2000/svg" enable-background="new 0 0 128 128" viewBox="0 0 128 128"><circle cx="64" cy="64" r="64" fill="#C9C"/><path fill="#333" d="M24.743 67.971h2.813c.332-.664.675-1.496 1.022-2.497.348-.996.664-2.112.954-3.357.285-1.238.522-2.587.701-4.036.185-1.454.274-2.982.274-4.584v-4.132H49.25v18.606h3.041v11.298h-6.039v-6.444H30.781v6.444h-6.039V67.971zM42.806 67.971V54.176h-6.308v.59c0 1.454-.084 2.846-.248 4.179-.168 1.328-.39 2.561-.664 3.694-.269 1.138-.553 2.16-.859 3.066-.3.906-.59 1.665-.859 2.266H42.806zM66.039 73.42c-1.845 0-3.509-.296-4.99-.886-1.481-.589-2.74-1.434-3.762-2.519-1.033-1.091-1.829-2.393-2.387-3.904-.559-1.513-.838-3.173-.838-4.99 0-1.755.29-3.389.859-4.901.574-1.512 1.396-2.824 2.45-3.926 1.06-1.106 2.324-1.976 3.794-2.613 1.465-.632 3.088-.948 4.875-.948 1.876 0 3.536.348 4.97 1.043 1.438.695 2.635 1.623 3.588 2.793.953 1.159 1.67 2.514 2.155 4.058s.728 3.146.728 4.811c0 .211 0 .417 0 .611 0 .2-.016.406-.048.617H60.506c.089 2.086.616 3.599 1.586 4.536.97.938 2.36 1.407 4.173 1.407 1.302 0 2.424-.326 3.362-.975.938-.653 1.512-1.339 1.723-2.065h5.676c-.906 2.809-2.303 4.821-4.18 6.033C70.972 72.813 68.7 73.42 66.039 73.42zM70.987 58.575c-.307-1.628-.838-2.871-1.613-3.72-.77-.844-1.943-1.271-3.514-1.271-1.06 0-1.924.174-2.588.522-.664.353-1.201.779-1.612 1.296-.406.517-.696 1.06-.864 1.628-.164.58-.263 1.091-.29 1.544H70.987zM81.241 49.364h6.445v8.537h9.126v-8.537h6.444v23.46h-6.444V62.98h-9.126v9.844h-6.445V49.364z"/></svg>