<svg xmlns="http://www.w3.org/2000/svg" viewBox="0 0 512 512"><g transform="matrix(1.12362 0 0 1.12362 -31.648 -31.648)"><path fill="#ffb61c" d="m -355.93222,67.084747 c 0,115.839383 -93.90637,209.745763 -209.74576,209.745763 -115.83938,0 -209.74576,-93.90638 -209.74576,-209.745763 0,-115.839383 93.90638,-209.745757 209.74576,-209.745757 115.83939,0 209.74576,93.906374 209.74576,209.745757 z" transform="rotate(-22.809 347.561 -1882.042)"/><path fill="#fcd116" d="m -355.93222,67.084747 c 0,115.839383 -93.90637,209.745763 -209.74576,209.745763 -115.83938,0 -209.74576,-93.90638 -209.74576,-209.745763 0,-115.839383 93.90638,-209.745757 209.74576,-209.745757 115.83939,0 209.74576,93.906374 209.74576,209.745757 z" transform="rotate(-22.809 279.292 -1868.27)"/><path fill="none" stroke="#ffb61c" stroke-width="2.357" d="m -355.93222,67.084747 c 0,115.839383 -93.90637,209.745763 -209.74576,209.745763 -115.83938,0 -209.74576,-93.90638 -209.74576,-209.745763 0,-115.839383 93.90638,-209.745757 209.74576,-209.745757 115.83939,0 209.74576,93.906374 209.74576,209.745757 z" transform="matrix(.78213 -.32893 .32893 .78213 671.032 4.77)"/><path fill="#ffb61c" d="M 181.66439,79.265826 C 91.0624,117.36835 48.50176,221.70745 86.60428,312.30944 c 0.97054,2.3078 2.01301,4.56711 3.06819,6.81202 -33.12781,-88.91813 9.51023,-188.92951 97.79474,-226.057418 88.28465,-37.127972 189.61367,2.338063 229.99212,88.207168 -0.86637,-2.32416 -1.78084,-4.63761 -2.75132,-6.94527 C 376.60548,83.723944 272.26638,41.1633 181.66439,79.265826 z"/></g><g transform="matrix(1.12362 0 0 1.12362 -43.703 -41.802)"><g transform="rotate(23.79 -539.396 646.975) scale(.13067)"><path fill="#ffb61c" d="m -355.93222,67.084747 c 0,115.839383 -93.90637,209.745763 -209.74576,209.745763 -115.83938,0 -209.74576,-93.90638 -209.74576,-209.745763 0,-115.839383 93.90638,-209.745757 209.74576,-209.745757 115.83939,0 209.74576,93.906374 209.74576,209.745757 z" transform="rotate(-22.809 -497.409 67.085)"/><path fill="#fcd116" stroke="#f6851f" stroke-width="2" d="m -355.93222,67.084747 c 0,115.839383 -93.90637,209.745763 -209.74576,209.745763 -115.83938,0 -209.74576,-93.90638 -209.74576,-209.745763 0,-115.839383 93.90638,-209.745757 209.74576,-209.745757 115.83939,0 209.74576,93.906374 209.74576,209.745757 z" transform="rotate(-22.809 -565.678 80.856)"/></g><g transform="rotate(23.79 -421.275 1207.715) scale(.13067)"><path fill="#ffb61c" d="m -355.93222,67.084747 c 0,115.839383 -93.90637,209.745763 -209.74576,209.745763 -115.83938,0 -209.74576,-93.90638 -209.74576,-209.745763 0,-115.839383 93.90638,-209.745757 209.74576,-209.745757 115.83939,0 209.74576,93.906374 209.74576,209.745757 z" transform="rotate(-22.809 -497.409 67.085)"/><path fill="#fcd116" stroke="#f6851f" stroke-width="2" d="m -355.93222,67.084747 c 0,115.839383 -93.90637,209.745763 -209.74576,209.745763 -115.83938,0 -209.74576,-93.90638 -209.74576,-209.745763 0,-115.839383 93.90638,-209.745757 209.74576,-209.745757 115.83939,0 209.74576,93.906374 209.74576,209.745757 z" transform="rotate(-22.809 -565.678 80.856)"/></g></g><path style="line-height:125%" fill="#ffb61c" stroke="#f6851f" d="m 165.00144,194.20059 0,54.79622 c 0,30.02848 14.52027,40.27539 33.59049,40.27539 19.07023,0 33.43555,-10.24691 33.43555,-40.27539 l 0,-54.79622 -11.3776,0 0,55.08398 c 0,22.48579 -9.67653,29.59505 -22.05795,29.59505 -12.2391,0 -21.78125,-7.10926 -21.78125,-29.59505 l 0,-55.08398 -11.80924,0 z m 92.14974,0 0,93.35612 10.95703,0 0,-51.36524 c 0,-8.25427 -0.99129,-19.35966 -1.56055,-27.61393 l 0.56446,0 7.40429,20.77409 18.07357,48.81966 6.6849,0 17.94075,-48.81966 7.53711,-20.77409 0.57552,0 c -0.71157,8.25427 -1.57161,19.35966 -1.57161,27.61393 l 0,51.36524 11.24479,0 0,-93.35612 -13.94531,0 -17.92969,50.09244 -6.55208,19.08073 -0.56446,0 -6.82877,-19.08073 -18.08464,-50.09244 -13.94531,0 z" font-family="Sans" font-size="66.972" font-weight="400" letter-spacing="0" word-spacing="0"/></svg>