<svg xmlns="http://www.w3.org/2000/svg" fill="none" viewBox="0 0 64 64"><path fill="#50D9D7" d="M29.8813 50.9469C26.1543 52.3403 22.1038 52.6259 18.2181 51.7693C14.3325 50.9127 10.7775 48.9504 7.98194 46.119C5.18634 43.2876 3.26941 39.708 2.46227 35.8118C1.65512 31.9156 1.99222 27.869 3.43291 24.1601C4.87361 20.4511 7.3564 17.238 10.5819 14.9082C13.8075 12.5784 17.6381 11.2314 21.6119 11.0295C25.5858 10.8276 29.5332 11.7795 32.9782 13.7704C36.4233 15.7613 39.2189 18.7061 41.0281 22.25C42.3499 24.8391 43.1094 27.6783 43.2569 30.5814C43.4044 33.4846 42.9365 36.3861 41.884 39.0958C40.8315 41.8055 39.218 44.2621 37.1495 46.3044C35.081 48.3468 32.6041 49.9289 29.8813 50.9469V50.9469Z"/><path fill="#93E6E5" d="M43.2781 32.5626C43.3156 31.9382 43.3156 31.3121 43.2781 30.6876H33.9031C33.8193 27.7902 33.2126 24.9318 32.1125 22.2501H41.0281C40.7042 21.6035 40.341 20.9774 39.9406 20.3751H31.2125C29.2556 16.7668 26.5286 13.6333 23.225 11.197C23.0611 11.0708 22.86 11.0024 22.6531 11.0024C22.4463 11.0024 22.2452 11.0708 22.0813 11.197C18.7751 13.6306 16.0476 16.7647 14.0938 20.3751H5.36563C4.96524 20.9774 4.60207 21.6035 4.27813 22.2501H13.2219C12.1121 24.93 11.4959 27.7885 11.4031 30.6876H2.02813C1.99062 31.3121 1.99062 31.9382 2.02813 32.5626H11.4031C11.487 35.46 12.0936 38.3184 13.1938 41.0001H4.27813C4.60207 41.6467 4.96524 42.2729 5.36563 42.8751H14.0938C16.0476 46.4856 18.7751 49.6197 22.0813 52.0533C22.2452 52.1794 22.4463 52.2479 22.6531 52.2479C22.86 52.2479 23.0611 52.1794 23.225 52.0533C26.5335 49.6222 29.2615 46.4875 31.2125 42.8751H39.9406C40.341 42.2729 40.7042 41.6467 41.0281 41.0001H32.0844C33.1942 38.3202 33.8103 35.4618 33.9031 32.5626H43.2781ZM22.6531 13.1283C25.2238 15.1229 27.3987 17.5808 29.0656 20.3751H16.2406C17.9116 17.5838 20.0859 15.1266 22.6531 13.1283V13.1283ZM22.6531 50.122C20.0859 48.1237 17.9116 45.6665 16.2406 42.8751H29.0656C27.3957 45.6673 25.2212 48.1246 22.6531 50.122V50.122ZM30.0313 41.0001H15.275C14.0563 38.3479 13.3775 35.4797 13.2781 32.5626H32.0281C31.9287 35.4797 31.2499 38.3479 30.0313 41.0001V41.0001ZM13.2781 30.6876C13.3687 27.7724 14.0379 24.9043 15.2469 22.2501H30.0313C31.2499 24.9023 31.9287 27.7705 32.0281 30.6876H13.2781Z"/><path fill="#00BEBD" d="M39.9406 20.375H31.2125C30.0623 18.2008 28.607 16.2024 26.8906 14.4406 27.8275 13.6477 28.8277 12.9328 29.8812 12.3031 34.0111 13.8492 37.5366 16.6782 39.9406 20.375V20.375zM39.9406 42.875C37.5366 46.5718 34.0111 49.4008 29.8812 50.9469 28.8277 50.3171 27.8275 49.6023 26.8906 48.8094 28.607 47.0475 30.0623 45.0492 31.2125 42.875H39.9406zM32.0281 32.5625C31.9375 35.4777 31.2683 38.3458 30.0593 41H20.9562C19.7261 38.349 19.0285 35.4823 18.9031 32.5625H32.0281zM32.0281 30.6875H18.9031C19.0226 27.769 19.7138 24.9023 20.9375 22.25H30.0125C31.2376 24.9009 31.9228 27.7691 32.0281 30.6875V30.6875zM29.0656 20.375H21.9219C22.9111 18.6639 24.1181 17.0882 25.5125 15.6875 26.8797 17.1026 28.0726 18.6763 29.0656 20.375V20.375zM29.0656 42.875C28.0726 44.5737 26.8797 46.1474 25.5125 47.5625 24.1181 46.1618 22.9111 44.5861 21.9219 42.875H29.0656z"/><path fill="#50D9D7" d="M33.9031 32.5625C33.8192 35.4599 33.2126 38.3183 32.1125 41H41.0281C40.7041 41.6466 40.341 42.2727 39.9406 42.875H31.2125C30.0623 45.0491 28.6069 47.0475 26.8906 48.8094C26.4125 48.4062 25.9531 47.9844 25.5125 47.5344C26.8797 46.1193 28.0726 44.5456 29.0656 42.8469H21.9218C21.575 42.2375 21.2468 41.6187 20.9843 40.9719H30.0593C31.2647 38.3263 31.9338 35.4681 32.0281 32.5625H18.9031C18.9031 31.7375 18.9031 31.5125 18.9031 30.6875H32.0281C31.9375 27.7723 31.2683 24.9042 30.0593 22.25H20.9562C21.2468 21.6031 21.575 20.9844 21.8937 20.375H29.0375C28.0444 18.6762 26.8516 17.1025 25.4843 15.6875C25.925 15.2375 26.4218 14.8156 26.8625 14.4125C28.5909 16.1811 30.0559 18.1891 31.2125 20.375H39.9406C40.341 20.9772 40.7041 21.6034 41.0281 22.25H32.0843C33.1941 24.9299 33.8103 27.7884 33.9031 30.6875H43.2781C43.3156 31.3119 43.3156 31.938 43.2781 32.5625H33.9031Z"/><path fill="#EA9706" d="M41.4031 52.25C52.7939 52.25 62.0281 43.0159 62.0281 31.625C62.0281 20.2341 52.7939 11 41.4031 11C30.0122 11 20.7781 20.2341 20.7781 31.625C20.7781 43.0159 30.0122 52.25 41.4031 52.25Z"/><path fill="#FFAC00" d="M41.4031 48.5C50.7229 48.5 58.2781 40.9448 58.2781 31.625C58.2781 22.3052 50.7229 14.75 41.4031 14.75C32.0833 14.75 24.5281 22.3052 24.5281 31.625C24.5281 40.9448 32.0833 48.5 41.4031 48.5Z"/><g clip-path="url(#a)"><path fill="#fff" fill-rule="evenodd" d="M32.7545 26.652C32.3329 26.6446 32.0252 26.7885 31.875 27.2044V27.5232C32.0257 27.9368 32.3295 28.0899 32.7523 28.0762C33.0879 28.0662 33.4238 28.0685 33.7597 28.0708C33.9048 28.0718 34.05 28.0727 34.1951 28.0727H34.8797V28.3281C34.8797 29.4128 34.8796 30.4974 34.8795 31.5821C34.8794 33.7514 34.8793 35.9207 34.8797 38.09C34.8797 38.3562 34.9256 38.4025 35.1891 38.4031C35.5533 38.4035 35.9177 38.4033 36.2822 38.4032C36.4645 38.4031 36.6468 38.4031 36.8291 38.4031C37.1374 38.4031 37.172 38.3694 37.172 38.0643V32.267V32.0271C37.1892 32.0248 37.2042 32.0224 37.2177 32.0203C37.2447 32.0161 37.2657 32.0128 37.2864 32.0128C37.5712 32.0125 37.8559 32.0125 38.1406 32.0125C38.7913 32.0126 39.4419 32.0126 40.0928 32.0082C40.2276 32.0077 40.256 32.0842 40.2905 32.1808C40.7008 33.3267 41.1117 34.4727 41.5231 35.6181C41.6983 36.1067 41.8737 36.5951 42.049 37.0835C42.1777 37.4419 42.3064 37.8002 42.4349 38.1586C42.4814 38.2882 42.5347 38.4059 42.7024 38.4054C42.9554 38.4047 43.2083 38.4049 43.4613 38.4051C43.8408 38.4055 44.2203 38.4058 44.5997 38.4031C44.78 38.4019 44.8559 38.286 44.8077 38.1106C44.791 38.0504 44.7687 37.9912 44.7466 37.9325L44.7431 37.9232C44.5406 37.3779 44.3381 36.8327 44.1356 36.2875C43.5941 34.8295 43.0526 33.3718 42.5114 31.914C42.3372 31.4444 42.3397 31.4421 42.6967 31.1107L42.7058 31.1022C43.5349 30.3321 44.1022 29.4152 44.241 28.2675C44.2597 28.115 44.3051 28.0676 44.4575 28.0699C45.0497 28.0785 45.6431 28.0773 46.2358 28.0716C46.679 28.0676 46.9805 27.7757 46.9816 27.3672C46.9827 26.957 46.6864 26.6703 46.2409 26.6577C46.0903 26.6537 45.9399 26.6547 45.7895 26.6557C45.7226 26.6561 45.6556 26.6566 45.5886 26.6566H44.2665C44.2597 26.6275 44.2531 26.6004 44.2469 26.5746C44.2343 26.5227 44.2229 26.4761 44.2138 26.4292C43.9752 25.1798 43.2657 24.2972 42.1454 23.7373C41.3463 23.338 40.4861 23.1701 39.6082 23.1495C38.5183 23.1238 37.4275 23.1245 36.3369 23.1253C35.952 23.1256 35.5671 23.1258 35.1823 23.1249C34.929 23.1244 34.8808 23.1781 34.8808 23.4294C34.8799 24.1814 34.88 24.9338 34.8802 25.6859C34.8802 25.9366 34.8802 26.1872 34.8802 26.4378V26.6554C34.6638 26.6554 34.45 26.6562 34.2382 26.6569C33.7362 26.6587 33.2451 26.6604 32.7545 26.652ZM37.1895 28.0893H41.9442C41.7628 29.0776 40.9524 29.8328 39.9006 30.0379C39.2835 30.1581 38.6634 30.1543 38.0377 30.1506C37.7562 30.1489 37.4736 30.1472 37.1895 30.1567V28.0893ZM41.9124 26.6428H37.1833C37.1833 26.0916 37.1833 25.5569 37.1839 25.013C37.197 25.0113 37.2093 25.0093 37.2209 25.0074C37.2442 25.0035 37.2651 25.0001 37.2859 25.0004C37.5175 25.0054 37.7495 25.0072 37.9815 25.0089C38.5191 25.0129 39.0568 25.0169 39.5912 25.0616C40.3172 25.1227 40.9978 25.3632 41.4857 25.9573C41.5928 26.0879 41.6776 26.2369 41.7696 26.3985C41.8144 26.4772 41.8609 26.5589 41.9124 26.6428ZM45.3541 38.1684C46.2891 38.6939 47.3018 38.8705 48.1417 38.875C49.0728 38.8476 49.763 38.7156 50.4187 38.4054C52.5019 37.4194 52.6527 34.5402 51.0058 33.308C50.4569 32.8972 49.8416 32.6317 49.2227 32.3645C49.1771 32.3448 49.1315 32.3251 49.0858 32.3054C48.7673 32.1671 48.4556 32.0055 48.1627 31.8192C47.868 31.6319 47.7359 31.3376 47.7886 30.9806C47.8612 30.487 48.2533 30.1591 48.8166 30.1077C49.6083 30.0351 50.3252 30.2522 50.9899 30.6744C51.1781 30.7938 51.2115 30.7818 51.2829 30.5733C51.3344 30.4229 51.3846 30.2719 51.4349 30.121C51.5433 29.7949 51.6519 29.4688 51.7731 29.1474C51.8474 28.9509 51.7913 28.8629 51.6247 28.7721C50.6369 28.2339 49.584 28.0403 48.4766 28.1779C47.5455 28.2933 46.7329 28.6624 46.1191 29.4102C45.2787 30.4345 45.264 31.9483 46.1004 32.9732C46.6093 33.5965 47.2979 33.9529 48.0227 34.2546C48.0678 34.2734 48.1131 34.2921 48.1583 34.3108C48.5139 34.4578 48.8723 34.606 49.2026 34.7996C49.8361 35.1709 50.0033 35.9301 49.5891 36.4483C49.3029 36.8064 48.888 36.903 48.4596 36.927C47.5665 36.9778 46.764 36.6933 46.0177 36.2198C45.8006 36.0821 45.7729 36.0901 45.6913 36.338C45.6431 36.4853 45.5958 36.6329 45.5484 36.7806C45.4383 37.1243 45.328 37.4682 45.2067 37.8079C45.1404 37.9953 45.1948 38.0787 45.3541 38.1684Z" clip-rule="evenodd"/></g><defs><clipPath id="a"><rect width="36" height="36" fill="#fff" transform="translate(24 13)"/></clipPath></defs></svg>