<svg xmlns="http://www.w3.org/2000/svg" fill="none" viewBox="0 0 64 64"><path fill="#50D9D7" d="M29.8813 50.9469C26.1543 52.3403 22.1038 52.6259 18.2181 51.7693C14.3325 50.9127 10.7775 48.9504 7.98194 46.119C5.18634 43.2876 3.26941 39.708 2.46227 35.8118C1.65512 31.9156 1.99222 27.869 3.43291 24.1601C4.87361 20.4511 7.3564 17.238 10.5819 14.9082C13.8075 12.5784 17.6381 11.2314 21.6119 11.0295C25.5858 10.8276 29.5332 11.7795 32.9782 13.7704C36.4233 15.7613 39.2189 18.7061 41.0281 22.25C42.3499 24.8391 43.1094 27.6783 43.2569 30.5814C43.4044 33.4846 42.9365 36.3861 41.884 39.0958C40.8315 41.8055 39.218 44.2621 37.1495 46.3044C35.081 48.3468 32.6041 49.9289 29.8813 50.9469V50.9469Z"/><path fill="#93E6E5" d="M43.2781 32.5626C43.3156 31.9382 43.3156 31.3121 43.2781 30.6876H33.9031C33.8193 27.7902 33.2126 24.9318 32.1125 22.2501H41.0281C40.7042 21.6035 40.341 20.9774 39.9406 20.3751H31.2125C29.2556 16.7668 26.5286 13.6333 23.225 11.197C23.0611 11.0708 22.86 11.0024 22.6531 11.0024C22.4463 11.0024 22.2452 11.0708 22.0813 11.197C18.7751 13.6306 16.0476 16.7647 14.0938 20.3751H5.36563C4.96524 20.9774 4.60207 21.6035 4.27813 22.2501H13.2219C12.1121 24.93 11.4959 27.7885 11.4031 30.6876H2.02813C1.99062 31.3121 1.99062 31.9382 2.02813 32.5626H11.4031C11.487 35.46 12.0936 38.3184 13.1938 41.0001H4.27813C4.60207 41.6467 4.96524 42.2729 5.36563 42.8751H14.0938C16.0476 46.4856 18.7751 49.6197 22.0813 52.0533C22.2452 52.1794 22.4463 52.2479 22.6531 52.2479C22.86 52.2479 23.0611 52.1794 23.225 52.0533C26.5335 49.6222 29.2615 46.4875 31.2125 42.8751H39.9406C40.341 42.2729 40.7042 41.6467 41.0281 41.0001H32.0844C33.1942 38.3202 33.8103 35.4618 33.9031 32.5626H43.2781ZM22.6531 13.1283C25.2238 15.1229 27.3987 17.5808 29.0656 20.3751H16.2406C17.9116 17.5838 20.0859 15.1266 22.6531 13.1283V13.1283ZM22.6531 50.122C20.0859 48.1237 17.9116 45.6665 16.2406 42.8751H29.0656C27.3957 45.6673 25.2212 48.1246 22.6531 50.122V50.122ZM30.0313 41.0001H15.275C14.0563 38.3479 13.3775 35.4797 13.2781 32.5626H32.0281C31.9287 35.4797 31.2499 38.3479 30.0313 41.0001V41.0001ZM13.2781 30.6876C13.3687 27.7724 14.0379 24.9043 15.2469 22.2501H30.0313C31.2499 24.9023 31.9287 27.7705 32.0281 30.6876H13.2781Z"/><path fill="#00BEBD" d="M39.9406 20.375H31.2125C30.0623 18.2008 28.607 16.2024 26.8906 14.4406 27.8275 13.6477 28.8277 12.9328 29.8812 12.3031 34.0111 13.8492 37.5366 16.6782 39.9406 20.375V20.375zM39.9406 42.875C37.5366 46.5718 34.0111 49.4008 29.8812 50.9469 28.8277 50.3171 27.8275 49.6023 26.8906 48.8094 28.607 47.0475 30.0623 45.0492 31.2125 42.875H39.9406zM32.0281 32.5625C31.9375 35.4777 31.2683 38.3458 30.0593 41H20.9562C19.7261 38.349 19.0285 35.4823 18.9031 32.5625H32.0281zM32.0281 30.6875H18.9031C19.0226 27.769 19.7138 24.9023 20.9375 22.25H30.0125C31.2376 24.9009 31.9228 27.7691 32.0281 30.6875V30.6875zM29.0656 20.375H21.9219C22.9111 18.6639 24.1181 17.0882 25.5125 15.6875 26.8797 17.1026 28.0726 18.6763 29.0656 20.375V20.375zM29.0656 42.875C28.0726 44.5737 26.8797 46.1474 25.5125 47.5625 24.1181 46.1618 22.9111 44.5861 21.9219 42.875H29.0656z"/><path fill="#50D9D7" d="M33.9031 32.5625C33.8192 35.4599 33.2126 38.3183 32.1125 41H41.0281C40.7041 41.6466 40.341 42.2727 39.9406 42.875H31.2125C30.0623 45.0491 28.6069 47.0475 26.8906 48.8094C26.4125 48.4062 25.9531 47.9844 25.5125 47.5344C26.8797 46.1193 28.0726 44.5456 29.0656 42.8469H21.9218C21.575 42.2375 21.2468 41.6187 20.9843 40.9719H30.0593C31.2647 38.3263 31.9338 35.4681 32.0281 32.5625H18.9031C18.9031 31.7375 18.9031 31.5125 18.9031 30.6875H32.0281C31.9375 27.7723 31.2683 24.9042 30.0593 22.25H20.9562C21.2468 21.6031 21.575 20.9844 21.8937 20.375H29.0375C28.0444 18.6762 26.8516 17.1025 25.4843 15.6875C25.925 15.2375 26.4218 14.8156 26.8625 14.4125C28.5909 16.1811 30.0559 18.1891 31.2125 20.375H39.9406C40.341 20.9772 40.7041 21.6034 41.0281 22.25H32.0843C33.1941 24.9299 33.8103 27.7884 33.9031 30.6875H43.2781C43.3156 31.3119 43.3156 31.938 43.2781 32.5625H33.9031Z"/><path fill="#EA9706" d="M41.4031 52.25C52.7939 52.25 62.0281 43.0159 62.0281 31.625C62.0281 20.2341 52.7939 11 41.4031 11C30.0122 11 20.7781 20.2341 20.7781 31.625C20.7781 43.0159 30.0122 52.25 41.4031 52.25Z"/><path fill="#FFAC00" d="M41.4031 48.5C50.7229 48.5 58.2781 40.9448 58.2781 31.625C58.2781 22.3052 50.7229 14.75 41.4031 14.75C32.0833 14.75 24.5281 22.3052 24.5281 31.625C24.5281 40.9448 32.0833 48.5 41.4031 48.5Z"/><g clip-path="url(#a)"><path fill="#fff" fill-rule="evenodd" d="M45.7233 38.755C45.6918 39.3793 45.9466 39.7984 46.5828 39.9995C46.7251 39.9995 46.8669 39.9995 47.0086 40C47.6428 39.7959 47.8954 39.3743 47.866 38.7525C47.8472 38.3551 47.8517 37.9564 47.8562 37.5544C47.8582 37.3767 47.8602 37.1984 47.8602 37.0192C47.9878 37.0111 48.1138 37.0055 48.2385 37C48.4993 36.9884 48.7544 36.9771 49.0064 36.9435C50.5689 36.7349 51.8601 35.497 52.0764 34.0209C52.0812 33.9887 52.0941 33.9576 52.1071 33.9265C52.1132 33.912 52.1192 33.8976 52.1244 33.883V33.1309C52.0072 32.6085 51.8697 32.0945 51.5494 31.6398C50.8524 30.6495 49.8841 30.0905 48.619 30.0163C48.4008 30.0035 48.1817 30.0032 47.9627 30.0029C47.6843 30.0026 47.406 30.0023 47.1301 29.9762C46.2658 29.8944 45.6732 29.1915 45.7318 28.3702C45.7856 27.6156 46.4869 27.0124 47.3257 27.0094C47.5776 27.0085 47.8296 27.0071 48.0815 27.0057C48.9749 27.0007 49.8684 26.9957 50.7613 27.0144C51.4252 27.0285 51.8942 26.8164 52.1249 26.2117V25.8106C51.9107 25.2124 51.4684 24.9537 50.8023 25.0033C50.6301 25.0162 50.4564 25.0131 50.2697 25.0097C50.1803 25.008 50.0879 25.0064 49.9912 25.0064V24.6534C49.9912 24.5092 49.9892 24.3648 49.9871 24.2205C49.9824 23.8965 49.9778 23.5725 49.9966 23.25C50.0328 22.6267 49.7722 22.2071 49.1407 22H48.7144C48.0169 22.2803 47.8607 22.5084 47.8607 23.2445V24.4222V24.9828C47.7312 24.9906 47.6054 24.9956 47.4823 25.0006C47.2256 25.0109 46.9809 25.0208 46.7395 25.054C45.062 25.2851 43.7942 26.5572 43.6072 28.1787C43.4302 29.7129 44.4603 31.2337 46.0265 31.7832C46.618 31.9907 47.2249 31.9943 47.8351 31.9979C47.9148 31.9984 47.9946 31.9989 48.0744 31.9998C48.0853 31.9999 48.0962 32 48.1071 32.0002C48.344 32.0029 48.5868 32.0058 48.813 32.0599C49.575 32.243 50.0877 32.965 49.9838 33.6704C49.8708 34.4396 49.2212 34.9871 48.4021 34.9901C47.8032 34.9923 47.2042 34.9919 46.6052 34.9914C45.9791 34.991 45.3529 34.9905 44.7268 34.9931C44.0644 34.9961 43.589 35.4343 43.5981 36.0169C43.6072 36.5905 44.075 36.9916 44.7385 36.9931C44.954 36.9935 45.1693 36.9934 45.3894 36.9933C45.5013 36.9932 45.6145 36.9931 45.7297 36.9931C45.7297 37.1821 45.7319 37.3677 45.734 37.5508C45.7388 37.9606 45.7435 38.3583 45.7233 38.755ZM31.9122 26.5991C31.8999 26.637 31.8877 26.6749 31.875 26.7126V37.1917C31.9119 37.2488 31.9456 37.3091 31.9792 37.3693C32.0533 37.5022 32.1274 37.6349 32.2363 37.7332C32.5582 38.0245 32.9616 38.0807 33.3708 37.9087C33.8009 37.7282 34.0082 37.4003 34.0082 36.953C34.007 34.7036 34.0073 32.454 34.0075 30.2045C34.0076 29.3045 34.0076 28.4046 34.0076 27.5048V27.2431C34.0727 27.2957 34.0982 27.3544 34.119 27.414C34.5323 28.5903 34.9451 29.7666 35.3579 30.9428C35.5642 31.5305 35.7704 32.1181 35.9767 32.7057C36.114 33.0973 36.2506 33.4891 36.3872 33.881C36.7085 34.8027 37.0299 35.7246 37.3612 36.6432C37.7262 37.654 38.9049 38.2336 39.9404 37.9338C40.8298 37.6765 41.4628 36.8758 41.466 35.9959C41.4682 35.3354 41.4677 34.6749 41.4671 34.0145C41.4668 33.7143 41.4666 33.4141 41.4666 33.1139C41.4666 32.527 41.4665 31.9401 41.4664 31.3532C41.4661 29.5926 41.4658 27.832 41.4682 26.0713C41.4687 25.7133 41.3461 25.4135 41.0365 25.2014C40.6928 24.9657 40.3155 24.9301 39.9324 25.1076C39.5263 25.2957 39.3361 25.617 39.3361 26.0387C39.3355 29.188 39.3355 32.3377 39.3355 35.487V35.7537C39.2705 35.7036 39.246 35.6454 39.2252 35.5857C38.9764 34.8738 38.728 34.1613 38.4802 33.4493C38.2157 32.6897 37.9513 31.9301 37.6869 31.1703C37.1332 29.5796 36.5795 27.9887 36.0241 26.3982C35.7262 25.5438 34.9386 24.9933 34.0124 24.9808C33.1417 24.9692 32.3194 25.5228 32.0029 26.3365C31.9694 26.4228 31.9408 26.511 31.9122 26.5991Z" clip-rule="evenodd"/><path fill="#fff" d="M46.5828 39.9995L46.4924 40.2856L46.5366 40.2995H46.5828V39.9995ZM45.7233 38.755L45.4237 38.7397L45.4237 38.74L45.7233 38.755ZM47.0086 40L47.0076 40.3L47.0552 40.3002L47.1005 40.2856L47.0086 40ZM47.866 38.7525L48.1657 38.7384L48.1657 38.7383L47.866 38.7525ZM47.8562 37.5544L47.5562 37.551L47.5562 37.551L47.8562 37.5544ZM47.8602 37.0192L47.8411 36.7198L47.5602 36.7377V37.0192H47.8602ZM48.2385 37L48.2252 36.7003L48.2252 36.7003L48.2385 37ZM49.0064 36.9435L49.0461 37.2409L49.0461 37.2409L49.0064 36.9435ZM52.0764 34.0209L51.7796 33.9773L51.7796 33.9774L52.0764 34.0209ZM52.1071 33.9265L52.384 34.042L52.384 34.042L52.1071 33.9265ZM52.1244 33.883L52.4068 33.9842L52.4244 33.9351V33.883H52.1244ZM52.1244 33.1309H52.4244V33.0977L52.4171 33.0652L52.1244 33.1309ZM51.5494 31.6398L51.3041 31.8125L51.3041 31.8125L51.5494 31.6398ZM48.619 30.0163L48.6015 30.3158L48.6015 30.3158L48.619 30.0163ZM47.9627 30.0029L47.9623 30.3029L47.9623 30.3029L47.9627 30.0029ZM47.1301 29.9762L47.1584 29.6775L47.1584 29.6775L47.1301 29.9762ZM45.7318 28.3702L46.031 28.3916L46.031 28.3915L45.7318 28.3702ZM47.3257 27.0094L47.3246 26.7094L47.3246 26.7094L47.3257 27.0094ZM48.0815 27.0057L48.0798 26.7057L48.0798 26.7057L48.0815 27.0057ZM50.7613 27.0144L50.7676 26.7145L50.7676 26.7145L50.7613 27.0144ZM52.1249 26.2117L52.4052 26.3187L52.4249 26.267V26.2117H52.1249ZM52.1249 25.8106H52.4249V25.7585L52.4074 25.7094L52.1249 25.8106ZM50.8023 25.0033L50.78 24.7042L50.7799 24.7042L50.8023 25.0033ZM50.2697 25.0097L50.2751 24.7097L50.2751 24.7097L50.2697 25.0097ZM49.9912 25.0064H49.6912V25.3064H49.9912V25.0064ZM49.9871 24.2205L49.6871 24.2248L49.6871 24.2248L49.9871 24.2205ZM49.9966 23.25L50.296 23.2674L50.2961 23.2674L49.9966 23.25ZM49.1407 22L49.2342 21.7149L49.1887 21.7H49.1407V22ZM48.7144 22V21.7H48.6564L48.6026 21.7216L48.7144 22ZM47.8607 24.9828L47.8787 25.2822L48.1607 25.2653V24.9828H47.8607ZM47.4823 25.0006L47.4944 25.3004L47.4944 25.3004L47.4823 25.0006ZM46.7395 25.054L46.6986 24.7568L46.6986 24.7568L46.7395 25.054ZM43.6072 28.1787L43.3091 28.1443L43.3091 28.1443L43.6072 28.1787ZM46.0265 31.7832L45.9272 32.0663L45.9272 32.0663L46.0265 31.7832ZM47.8351 31.9979L47.8333 32.2979L47.8333 32.2979L47.8351 31.9979ZM48.0744 31.9998L48.0781 31.6998L48.0779 31.6998L48.0744 31.9998ZM48.1071 32.0002L48.1036 32.3001L48.1036 32.3001L48.1071 32.0002ZM48.813 32.0599L48.8831 31.7682L48.8829 31.7682L48.813 32.0599ZM49.9838 33.6704L49.687 33.6267L49.687 33.6268L49.9838 33.6704ZM48.4021 34.9901L48.401 34.6901L48.401 34.6901L48.4021 34.9901ZM46.6052 34.9914L46.605 35.2914L46.605 35.2914L46.6052 34.9914ZM44.7268 34.9931L44.7255 34.6931L44.7254 34.6931L44.7268 34.9931ZM43.5981 36.0169L43.2981 36.0216L43.2981 36.0217L43.5981 36.0169ZM44.7385 36.9931L44.7378 37.2931L44.738 37.2931L44.7385 36.9931ZM45.3894 36.9933L45.3896 37.2933L45.3896 37.2933L45.3894 36.9933ZM45.7297 36.9931H46.0297V36.6931H45.7297V36.9931ZM45.734 37.5508L45.434 37.5544L45.434 37.5544L45.734 37.5508ZM31.875 26.7126L31.5906 26.6171L31.575 26.6636V26.7126H31.875ZM31.9122 26.5991L32.1976 26.6916L32.1976 26.6916L31.9122 26.5991ZM31.875 37.1917H31.575V37.2802L31.6231 37.3546L31.875 37.1917ZM31.9792 37.3693L31.7172 37.5156L31.7172 37.5156L31.9792 37.3693ZM32.2363 37.7332L32.4376 37.5108L32.4373 37.5105L32.2363 37.7332ZM33.3708 37.9087L33.2547 37.6321L33.2546 37.6321L33.3708 37.9087ZM34.0082 36.953L34.3082 36.953L34.3082 36.9529L34.0082 36.953ZM34.0075 30.2045L34.3075 30.2045L34.3075 30.2045L34.0075 30.2045ZM34.0076 27.2431L34.1964 27.0099L33.7076 26.6141V27.2431H34.0076ZM34.119 27.414L33.8357 27.5127L33.836 27.5135L34.119 27.414ZM35.3579 30.9428L35.0749 31.0422L35.0749 31.0422L35.3579 30.9428ZM35.9767 32.7057L36.2598 32.6064L36.2598 32.6064L35.9767 32.7057ZM36.3872 33.881L36.1039 33.9797L36.1039 33.9797L36.3872 33.881ZM37.3612 36.6432L37.0789 36.745L37.079 36.7451L37.3612 36.6432ZM39.9404 37.9338L39.857 37.6456L39.8569 37.6456L39.9404 37.9338ZM41.466 35.9959L41.766 35.997L41.766 35.9969L41.466 35.9959ZM41.4671 34.0145L41.7671 34.0142L41.7671 34.0142L41.4671 34.0145ZM41.4664 31.3532L41.1664 31.3533L41.1664 31.3533L41.4664 31.3532ZM41.4682 26.0713L41.1682 26.0709L41.1682 26.0709L41.4682 26.0713ZM41.0365 25.2014L40.8669 25.4488L40.867 25.4489L41.0365 25.2014ZM39.9324 25.1076L40.0584 25.3799L40.0585 25.3798L39.9324 25.1076ZM39.3361 26.0387L39.6361 26.0388V26.0387H39.3361ZM39.3355 35.7537L39.1523 35.9913L39.6355 36.3639V35.7537H39.3355ZM39.2252 35.5857L39.5085 35.4871L39.5084 35.4868L39.2252 35.5857ZM38.4802 33.4493L38.7636 33.3507L38.7635 33.3506L38.4802 33.4493ZM37.6869 31.1703L37.9702 31.0717L37.6869 31.1703ZM36.0241 26.3982L35.7408 26.497L35.7409 26.4971L36.0241 26.3982ZM34.0124 24.9808L34.0165 24.6808L34.0164 24.6808L34.0124 24.9808ZM32.0029 26.3365L31.7233 26.2278L31.7233 26.2278L32.0029 26.3365ZM46.6732 39.7134C46.4017 39.6277 46.2438 39.5063 46.1519 39.369C46.059 39.2303 46.0093 39.0393 46.0229 38.7701L45.4237 38.74C45.4058 39.095 45.4678 39.4257 45.6534 39.7029C45.84 39.9816 46.1277 40.1703 46.4924 40.2856L46.6732 39.7134ZM47.0097 39.7C46.8673 39.6995 46.725 39.6995 46.5828 39.6995V40.2995C46.7252 40.2995 46.8664 40.2995 47.0076 40.3L47.0097 39.7ZM47.5664 38.7667C47.579 39.0349 47.5295 39.2267 47.4363 39.3668C47.3443 39.5052 47.1868 39.6275 46.9167 39.7144L47.1005 40.2856C47.4646 40.1684 47.7505 39.9779 47.9359 39.699C48.1203 39.4218 48.1824 39.0919 48.1657 38.7384L47.5664 38.7667ZM47.5562 37.551C47.5517 37.9516 47.547 38.359 47.5664 38.7667L48.1657 38.7383C48.1473 38.3511 48.1516 37.9613 48.1562 37.5578L47.5562 37.551ZM47.5602 37.0192C47.5602 37.1964 47.5582 37.3731 47.5562 37.551L48.1562 37.5578C48.1582 37.3804 48.1602 37.2004 48.1602 37.0192H47.5602ZM48.2252 36.7003C48.1009 36.7058 47.972 36.7115 47.8411 36.7198L47.8792 37.3186C48.0035 37.3107 48.1266 37.3052 48.2518 37.2997L48.2252 36.7003ZM48.9668 36.6461C48.7302 36.6777 48.4883 36.6886 48.2252 36.7003L48.2518 37.2997C48.5103 37.2882 48.7787 37.2765 49.0461 37.2409L48.9668 36.6461ZM51.7796 33.9774C51.5839 35.3126 50.405 36.4541 48.9667 36.6461L49.0461 37.2409C50.7328 37.0157 52.1363 35.6814 52.3733 34.0644L51.7796 33.9774ZM51.8303 33.8109C51.8202 33.8352 51.7908 33.9013 51.7796 33.9773L52.3733 34.0645C52.372 34.0731 52.3704 34.0765 52.372 34.0718C52.3728 34.0697 52.374 34.0663 52.3761 34.0612C52.3782 34.0558 52.3806 34.0501 52.384 34.042L51.8303 33.8109ZM51.842 33.7819C51.8398 33.788 51.8368 33.7953 51.8303 33.8109L52.384 34.042C52.3895 34.0288 52.3986 34.0072 52.4068 33.9842L51.842 33.7819ZM51.8244 33.1309V33.883H52.4244V33.1309H51.8244ZM51.3041 31.8125C51.5873 32.2146 51.715 32.6768 51.8317 33.1966L52.4171 33.0652C52.2993 32.5402 52.152 31.9745 51.7947 31.467L51.3041 31.8125ZM48.6015 30.3158C49.7742 30.3845 50.6591 30.8961 51.3041 31.8125L51.7947 31.4671C51.0457 30.4029 49.994 29.7964 48.6366 29.7168L48.6015 30.3158ZM47.9623 30.3029C48.1828 30.3032 48.3933 30.3035 48.6015 30.3158L48.6366 29.7168C48.4084 29.7034 48.1806 29.7032 47.9631 29.7029L47.9623 30.3029ZM47.1019 30.2748C47.394 30.3025 47.6863 30.3026 47.9623 30.3029L47.9631 29.7029C47.6822 29.7026 47.418 29.7021 47.1584 29.6775L47.1019 30.2748ZM45.4326 28.3488C45.362 29.3377 46.0802 30.1782 47.1019 30.2748L47.1584 29.6775C46.4513 29.6106 45.9844 29.0453 46.031 28.3916L45.4326 28.3488ZM47.3246 26.7094C46.3533 26.7129 45.4992 27.4144 45.4326 28.3489L46.031 28.3915C46.072 27.8168 46.6205 27.3119 47.3268 27.3094L47.3246 26.7094ZM48.0798 26.7057C47.8278 26.7071 47.5762 26.7085 47.3246 26.7094L47.3267 27.3094C47.579 27.3085 47.8313 27.3071 48.0832 27.3057L48.0798 26.7057ZM50.7676 26.7145C49.8701 26.6956 48.9726 26.7007 48.0798 26.7057L48.0832 27.3057C48.9773 27.3007 49.8668 27.2957 50.755 27.3144L50.7676 26.7145ZM51.8447 26.1047C51.751 26.3503 51.6192 26.4946 51.4602 26.5826C51.2941 26.6746 51.0695 26.7209 50.7676 26.7145L50.7549 27.3144C51.117 27.322 51.4589 27.2692 51.7509 27.1075C52.0501 26.9419 52.2682 26.6778 52.4052 26.3187L51.8447 26.1047ZM51.8249 25.8106V26.2117H52.4249V25.8106H51.8249ZM50.8246 25.3025C51.1155 25.2808 51.3256 25.3288 51.478 25.4208C51.6276 25.5112 51.7535 25.6632 51.8425 25.9117L52.4074 25.7094C52.2822 25.3598 52.0798 25.0834 51.7882 24.9072C51.4994 24.7328 51.1552 24.6762 50.78 24.7042L50.8246 25.3025ZM50.2642 25.3096C50.4483 25.313 50.6361 25.3166 50.8247 25.3025L50.7799 24.7042C50.624 24.7158 50.4645 24.7132 50.2751 24.7097L50.2642 25.3096ZM49.9912 25.3064C50.0847 25.3064 50.1745 25.308 50.2642 25.3096L50.2751 24.7097C50.1861 24.7081 50.091 24.7064 49.9912 24.7064V25.3064ZM49.6912 24.6534V25.0064H50.2912V24.6534H49.6912ZM49.6871 24.2248C49.6892 24.3695 49.6912 24.5117 49.6912 24.6534H50.2912C50.2912 24.5067 50.2891 24.3602 50.287 24.2162L49.6871 24.2248ZM49.6971 23.2325C49.6775 23.5678 49.6825 23.9027 49.6871 24.2248L50.287 24.2162C50.2824 23.8904 50.278 23.5773 50.296 23.2674L49.6971 23.2325ZM49.0473 22.2851C49.3173 22.3736 49.4767 22.4967 49.5697 22.6357C49.663 22.7754 49.7126 22.9659 49.6971 23.2326L50.2961 23.2674C50.3168 22.9108 50.2541 22.5799 50.0684 22.3022C49.8822 22.0237 49.5956 21.8334 49.2342 21.7149L49.0473 22.2851ZM48.7144 22.3H49.1407V21.7H48.7144V22.3ZM48.1607 23.2445C48.1607 22.8854 48.2021 22.7249 48.2734 22.621C48.3456 22.5157 48.4844 22.4157 48.8263 22.2784L48.6026 21.7216C48.2469 21.8645 47.9588 22.0188 47.7786 22.2817C47.5974 22.5459 47.5607 22.8675 47.5607 23.2445H48.1607ZM48.1607 24.4222V23.2445H47.5607V24.4222H48.1607ZM48.1607 24.9828V24.4222H47.5607V24.9828H48.1607ZM47.4944 25.3004C47.6171 25.2954 47.7458 25.2902 47.8787 25.2822L47.8427 24.6833C47.7166 24.6909 47.5938 24.6959 47.4703 24.7008L47.4944 25.3004ZM46.7804 25.3512C47.0049 25.3203 47.235 25.3108 47.4944 25.3004L47.4703 24.7008C47.2162 24.7111 46.9568 24.7213 46.6986 24.7568L46.7804 25.3512ZM43.9052 28.213C44.0759 26.7332 45.2328 25.5644 46.7805 25.3512L46.6986 24.7568C44.8912 25.0058 43.5125 26.3811 43.3091 28.1443L43.9052 28.213ZM46.1258 31.5001C44.6756 30.9912 43.7462 29.5916 43.9052 28.213L43.3091 28.1443C43.1142 29.8343 44.2451 31.4761 45.9272 32.0663L46.1258 31.5001ZM47.8369 31.6979C47.2188 31.6943 46.6624 31.6884 46.1258 31.5001L45.9272 32.0663C46.5736 32.2931 47.231 32.2943 47.8333 32.2979L47.8369 31.6979ZM48.0779 31.6998C47.9971 31.6989 47.9164 31.6984 47.8369 31.6979L47.8333 32.2979C47.9132 32.2984 47.9921 32.2988 48.0709 32.2998L48.0779 31.6998ZM48.1106 31.7002C48.0997 31.7001 48.0889 31.6999 48.0781 31.6998L48.0707 32.2998C48.0817 32.2999 48.0927 32.3 48.1036 32.3001L48.1106 31.7002ZM48.8829 31.7682C48.6182 31.7048 48.3409 31.7029 48.1106 31.7002L48.1036 32.3001C48.3472 32.303 48.5554 32.3067 48.7431 32.3517L48.8829 31.7682ZM50.2806 33.7141C50.4095 32.8388 49.7796 31.9836 48.8831 31.7682L48.7429 32.3517C49.3704 32.5023 49.7659 33.0911 49.687 33.6267L50.2806 33.7141ZM48.4032 35.2901C49.3614 35.2866 50.1447 34.6391 50.2806 33.714L49.687 33.6268C49.5969 34.2401 49.081 34.6876 48.401 34.6901L48.4032 35.2901ZM46.605 35.2914C47.2039 35.2919 47.8035 35.2923 48.4032 35.2901L48.401 34.6901C47.8028 34.6923 47.2045 34.6919 46.6054 34.6914L46.605 35.2914ZM44.728 35.2931C45.3533 35.2905 45.9787 35.291 46.605 35.2914L46.6054 34.6914C45.9794 34.691 45.3525 34.6905 44.7255 34.6931L44.728 35.2931ZM43.8981 36.0123C43.8921 35.6277 44.1998 35.2955 44.7281 35.2931L44.7254 34.6931C43.9289 34.6967 43.286 35.2409 43.2981 36.0216L43.8981 36.0123ZM44.7392 36.6932C44.1984 36.6919 43.9039 36.3842 43.8981 36.0122L43.2981 36.0217C43.3104 36.7969 43.9517 37.2914 44.7378 37.2931L44.7392 36.6932ZM45.3893 36.6933C45.1691 36.6934 44.9541 36.6935 44.7389 36.6932L44.738 37.2931C44.9539 37.2935 45.1695 37.2934 45.3896 37.2933L45.3893 36.6933ZM45.7297 36.6931C45.6144 36.6931 45.5012 36.6932 45.3893 36.6933L45.3896 37.2933C45.5015 37.2932 45.6146 37.2931 45.7297 37.2931V36.6931ZM46.034 37.5473C46.0318 37.3639 46.0297 37.1801 46.0297 36.9931H45.4297C45.4297 37.1842 45.4319 37.3715 45.434 37.5544L46.034 37.5473ZM46.0229 38.7703C46.0437 38.3626 46.0388 37.9554 46.034 37.5473L45.434 37.5544C45.4389 37.9658 45.4434 38.354 45.4237 38.7397L46.0229 38.7703ZM32.1594 26.8081C32.1726 26.7686 32.1854 26.7293 32.1976 26.6916L31.6268 26.5066C31.6145 26.5448 31.6027 26.5811 31.5906 26.6171L32.1594 26.8081ZM32.175 37.1917V26.7126H31.575V37.1917H32.175ZM32.2412 37.2231C32.2084 37.1644 32.17 37.0955 32.1269 37.0288L31.6231 37.3546C31.6538 37.4021 31.6828 37.4538 31.7172 37.5156L32.2412 37.2231ZM32.4373 37.5105C32.3717 37.4513 32.3203 37.3649 32.2412 37.2231L31.7172 37.5156C31.7864 37.6395 31.8831 37.8185 32.0353 37.9559L32.4373 37.5105ZM33.2546 37.6321C32.9441 37.7626 32.6664 37.7178 32.4376 37.5108L32.035 37.9556C32.4499 38.3312 32.979 38.3987 33.4871 38.1853L33.2546 37.6321ZM33.7082 36.953C33.7082 37.1295 33.6678 37.2632 33.6002 37.366C33.5328 37.4684 33.4247 37.5607 33.2547 37.6321L33.4869 38.1853C33.747 38.0761 33.9576 37.9143 34.1014 37.6958C34.2449 37.4776 34.3082 37.2238 34.3082 36.953H33.7082ZM33.7075 30.2044C33.7073 32.4539 33.707 34.7037 33.7082 36.9532L34.3082 36.9529C34.307 34.7036 34.3073 32.454 34.3075 30.2045L33.7075 30.2044ZM33.7076 27.5048C33.7076 28.4046 33.7076 29.3045 33.7075 30.2044L34.3075 30.2045C34.3076 29.3046 34.3076 28.4047 34.3076 27.5048H33.7076ZM33.7076 27.2431V27.5048H34.3076V27.2431H33.7076ZM34.4023 27.3154C34.3748 27.2362 34.3259 27.1147 34.1964 27.0099L33.8188 27.4762C33.8201 27.4772 33.8209 27.4779 33.8213 27.4783C33.8217 27.4787 33.8218 27.4789 33.8218 27.4789C33.8218 27.4789 33.8218 27.4789 33.8218 27.4789C33.8218 27.4789 33.822 27.4791 33.8223 27.4796C33.8238 27.4821 33.8275 27.4891 33.8357 27.5127L34.4023 27.3154ZM35.641 30.8435C35.2282 29.6672 34.8154 28.4909 34.4021 27.3146L33.836 27.5135C34.2492 28.6897 34.662 29.8659 35.0749 31.0422L35.641 30.8435ZM36.2598 32.6064C36.0535 32.0187 35.8472 31.4311 35.641 30.8435L35.0749 31.0422C35.2811 31.6298 35.4873 32.2175 35.6936 32.8051L36.2598 32.6064ZM36.6705 33.7823C36.5339 33.3904 36.3972 32.9983 36.2598 32.6064L35.6936 32.805C35.8308 33.1963 35.9673 33.5878 36.1039 33.9797L36.6705 33.7823ZM37.6434 36.5414C37.3127 35.6245 36.9919 34.7042 36.6705 33.7823L36.1039 33.9797C36.4251 34.9012 36.747 35.8246 37.0789 36.745L37.6434 36.5414ZM39.8569 37.6456C38.9684 37.9029 37.9529 37.3985 37.6433 36.5413L37.079 36.7451C37.4995 37.9095 38.8415 38.5643 40.0238 38.2219L39.8569 37.6456ZM41.166 35.9948C41.1634 36.7312 40.6287 37.4224 39.857 37.6456L40.0237 38.222C41.0308 37.9307 41.7623 37.0205 41.766 35.997L41.166 35.9948ZM41.1671 34.0147C41.1677 34.6753 41.1682 35.3351 41.166 35.9949L41.766 35.9969C41.7682 35.3357 41.7677 34.6746 41.7671 34.0142L41.1671 34.0147ZM41.1666 33.1139C41.1666 33.4142 41.1668 33.7145 41.1671 34.0147L41.7671 34.0142C41.7668 33.714 41.7666 33.4139 41.7666 33.1139H41.1666ZM41.1664 31.3533C41.1665 31.9402 41.1666 32.527 41.1666 33.1139H41.7666C41.7666 32.527 41.7665 31.9401 41.7664 31.3532L41.1664 31.3533ZM41.1682 26.0709C41.1658 27.8318 41.1661 29.5927 41.1664 31.3533L41.7664 31.3532C41.7661 29.5925 41.7658 27.8321 41.7682 26.0717L41.1682 26.0709ZM40.867 25.4489C41.0798 25.5947 41.1686 25.7923 41.1682 26.0709L41.7682 26.0718C41.7688 25.6343 41.6125 25.2323 41.2061 24.9539L40.867 25.4489ZM40.0585 25.3798C40.3441 25.2475 40.6091 25.2721 40.8669 25.4488L41.2062 24.954C40.7765 24.6594 40.2869 24.6128 39.8063 24.8354L40.0585 25.3798ZM39.6361 26.0387C39.6361 25.8738 39.6729 25.7456 39.736 25.6451C39.7988 25.545 39.8996 25.4534 40.0584 25.3799L39.8063 24.8354C39.5591 24.9499 39.3617 25.113 39.2279 25.326C39.0944 25.5386 39.0361 25.782 39.0361 26.0387H39.6361ZM39.6355 35.487C39.6355 32.3377 39.6355 29.188 39.6361 26.0388L39.0361 26.0387C39.0355 29.1879 39.0355 32.3377 39.0355 35.487H39.6355ZM39.6355 35.7537V35.487H39.0355V35.7537H39.6355ZM38.9419 35.6844C38.9682 35.7599 39.0167 35.8867 39.1523 35.9913L39.5187 35.5161C39.5177 35.5153 39.5182 35.5156 39.5195 35.5171C39.52 35.5177 39.5205 35.5183 39.5209 35.5189C39.5213 35.5194 39.5215 35.5197 39.5215 35.5197C39.5214 35.5195 39.5202 35.5176 39.518 35.5124C39.5157 35.5069 39.5128 35.4994 39.5085 35.4871L38.9419 35.6844ZM38.1969 33.5479C38.4447 34.26 38.6931 34.9726 38.942 35.6847L39.5084 35.4868C39.2596 34.7749 39.0113 34.0626 38.7636 33.3507L38.1969 33.5479ZM37.4035 31.2689C37.6679 32.0287 37.9323 32.7884 38.1969 33.548L38.7635 33.3506C38.499 32.5911 38.2346 31.8314 37.9702 31.0717L37.4035 31.2689ZM35.7409 26.4971C36.2962 28.0874 36.8499 29.6782 37.4035 31.2689L37.9702 31.0717C37.4166 29.481 36.8628 27.8899 36.3073 26.2993L35.7409 26.4971ZM34.0084 25.2808C34.8142 25.2917 35.4863 25.767 35.7408 26.497L36.3074 26.2995C35.9661 25.3206 35.063 24.695 34.0165 24.6808L34.0084 25.2808ZM32.2825 26.4453C32.5536 25.7482 33.2628 25.2709 34.0085 25.2808L34.0164 24.6808C33.0205 24.6676 32.0852 25.2973 31.7233 26.2278L32.2825 26.4453ZM32.1976 26.6916C32.2266 26.6021 32.2526 26.5221 32.2825 26.4453L31.7233 26.2278C31.6861 26.3235 31.6549 26.4199 31.6268 26.5066L32.1976 26.6916Z"/></g><defs><clipPath id="a"><rect width="36" height="36" fill="#fff" transform="translate(24 13)"/></clipPath></defs></svg>