<svg xmlns="http://www.w3.org/2000/svg" fill="none" viewBox="0 0 64 64"><path fill="#50D9D7" d="M29.8813 50.9469C26.1543 52.3403 22.1038 52.6259 18.2181 51.7693C14.3325 50.9127 10.7775 48.9504 7.98194 46.119C5.18634 43.2876 3.26941 39.708 2.46227 35.8118C1.65512 31.9156 1.99222 27.869 3.43291 24.1601C4.87361 20.4511 7.3564 17.238 10.5819 14.9082C13.8075 12.5784 17.6381 11.2314 21.6119 11.0295C25.5858 10.8276 29.5332 11.7795 32.9782 13.7704C36.4233 15.7613 39.2189 18.7061 41.0281 22.25C42.3499 24.8391 43.1094 27.6783 43.2569 30.5814C43.4044 33.4846 42.9365 36.3861 41.884 39.0958C40.8315 41.8055 39.218 44.2621 37.1495 46.3044C35.081 48.3468 32.6041 49.9289 29.8813 50.9469V50.9469Z"/><path fill="#93E6E5" d="M43.2781 32.5626C43.3156 31.9382 43.3156 31.3121 43.2781 30.6876H33.9031C33.8193 27.7902 33.2126 24.9318 32.1125 22.2501H41.0281C40.7042 21.6035 40.341 20.9774 39.9406 20.3751H31.2125C29.2556 16.7668 26.5286 13.6333 23.225 11.197C23.0611 11.0708 22.86 11.0024 22.6531 11.0024C22.4463 11.0024 22.2452 11.0708 22.0813 11.197C18.7751 13.6306 16.0476 16.7647 14.0938 20.3751H5.36563C4.96524 20.9774 4.60207 21.6035 4.27813 22.2501H13.2219C12.1121 24.93 11.4959 27.7885 11.4031 30.6876H2.02813C1.99062 31.3121 1.99062 31.9382 2.02813 32.5626H11.4031C11.487 35.46 12.0936 38.3184 13.1938 41.0001H4.27813C4.60207 41.6467 4.96524 42.2729 5.36563 42.8751H14.0938C16.0476 46.4856 18.7751 49.6197 22.0813 52.0533C22.2452 52.1794 22.4463 52.2479 22.6531 52.2479C22.86 52.2479 23.0611 52.1794 23.225 52.0533C26.5335 49.6222 29.2615 46.4875 31.2125 42.8751H39.9406C40.341 42.2729 40.7042 41.6467 41.0281 41.0001H32.0844C33.1942 38.3202 33.8103 35.4618 33.9031 32.5626H43.2781ZM22.6531 13.1283C25.2238 15.1229 27.3987 17.5808 29.0656 20.3751H16.2406C17.9116 17.5838 20.0859 15.1266 22.6531 13.1283V13.1283ZM22.6531 50.122C20.0859 48.1237 17.9116 45.6665 16.2406 42.8751H29.0656C27.3957 45.6673 25.2212 48.1246 22.6531 50.122V50.122ZM30.0313 41.0001H15.275C14.0563 38.3479 13.3775 35.4797 13.2781 32.5626H32.0281C31.9287 35.4797 31.2499 38.3479 30.0313 41.0001V41.0001ZM13.2781 30.6876C13.3687 27.7724 14.0379 24.9043 15.2469 22.2501H30.0313C31.2499 24.9023 31.9287 27.7705 32.0281 30.6876H13.2781Z"/><path fill="#00BEBD" d="M39.9406 20.375H31.2125C30.0623 18.2008 28.607 16.2024 26.8906 14.4406 27.8275 13.6477 28.8277 12.9328 29.8812 12.3031 34.0111 13.8492 37.5366 16.6782 39.9406 20.375V20.375zM39.9406 42.875C37.5366 46.5718 34.0111 49.4008 29.8812 50.9469 28.8277 50.3171 27.8275 49.6023 26.8906 48.8094 28.607 47.0475 30.0623 45.0492 31.2125 42.875H39.9406zM32.0281 32.5625C31.9375 35.4777 31.2683 38.3458 30.0593 41H20.9562C19.7261 38.349 19.0285 35.4823 18.9031 32.5625H32.0281zM32.0281 30.6875H18.9031C19.0226 27.769 19.7138 24.9023 20.9375 22.25H30.0125C31.2376 24.9009 31.9228 27.7691 32.0281 30.6875V30.6875zM29.0656 20.375H21.9219C22.9111 18.6639 24.1181 17.0882 25.5125 15.6875 26.8797 17.1026 28.0726 18.6763 29.0656 20.375V20.375zM29.0656 42.875C28.0726 44.5737 26.8797 46.1474 25.5125 47.5625 24.1181 46.1618 22.9111 44.5861 21.9219 42.875H29.0656z"/><path fill="#50D9D7" d="M33.9031 32.5625C33.8192 35.4599 33.2126 38.3183 32.1125 41H41.0281C40.7041 41.6466 40.341 42.2727 39.9406 42.875H31.2125C30.0623 45.0491 28.6069 47.0475 26.8906 48.8094C26.4125 48.4062 25.9531 47.9844 25.5125 47.5344C26.8797 46.1193 28.0726 44.5456 29.0656 42.8469H21.9218C21.575 42.2375 21.2468 41.6187 20.9843 40.9719H30.0593C31.2647 38.3263 31.9338 35.4681 32.0281 32.5625H18.9031C18.9031 31.7375 18.9031 31.5125 18.9031 30.6875H32.0281C31.9375 27.7723 31.2683 24.9042 30.0593 22.25H20.9562C21.2468 21.6031 21.575 20.9844 21.8937 20.375H29.0375C28.0444 18.6762 26.8516 17.1025 25.4843 15.6875C25.925 15.2375 26.4218 14.8156 26.8625 14.4125C28.5909 16.1811 30.0559 18.1891 31.2125 20.375H39.9406C40.341 20.9772 40.7041 21.6034 41.0281 22.25H32.0843C33.1941 24.9299 33.8103 27.7884 33.9031 30.6875H43.2781C43.3156 31.3119 43.3156 31.938 43.2781 32.5625H33.9031Z"/><path fill="#EA9706" d="M41.4031 52.25C52.7939 52.25 62.0281 43.0159 62.0281 31.625C62.0281 20.2341 52.7939 11 41.4031 11C30.0122 11 20.7781 20.2341 20.7781 31.625C20.7781 43.0159 30.0122 52.25 41.4031 52.25Z"/><path fill="#FFAC00" d="M41.4031 48.5C50.7229 48.5 58.2781 40.9448 58.2781 31.625C58.2781 22.3052 50.7229 14.75 41.4031 14.75C32.0833 14.75 24.5281 22.3052 24.5281 31.625C24.5281 40.9448 32.0833 48.5 41.4031 48.5Z"/><g clip-path="url(#a)"><path fill="#fff" fill-rule="evenodd" d="M47.6251 22.3411V20.875C43.9825 20.875 40.3606 20.875 36.7311 20.8754V22.3451H37.3709C37.6264 22.3451 37.8819 22.345 38.1374 22.345C39.2232 22.3447 40.309 22.3445 41.3949 22.3483C41.4598 22.3483 41.5631 22.3812 41.5838 22.4271C41.806 22.9239 41.993 23.4336 42.0365 23.981C42.0804 24.5301 41.9155 25.0269 41.6312 25.493L41.625 25.5031C41.3873 25.8931 41.3856 25.8959 40.9348 25.7727C40.4052 25.628 39.8701 25.5646 39.326 25.6717C38.8243 25.7706 38.5763 26.0639 38.5618 26.5654C38.5509 26.9448 38.6901 27.289 38.9029 27.5842C39.252 28.0688 39.6164 28.5481 40.0217 28.9865C41.0824 30.1342 42.2899 31.1268 43.5127 32.0982C44.0506 32.5256 44.6058 32.9321 45.1607 33.3384C45.236 33.3935 45.3113 33.4486 45.3866 33.5038C45.629 33.6817 45.8779 33.8508 46.1321 34.0235C46.2473 34.1018 46.3637 34.1809 46.481 34.2618C46.5438 34.1693 46.6011 34.0845 46.6593 33.9984C46.6881 33.9557 46.7171 33.9128 46.7471 33.8685C44.6807 32.4274 42.7032 30.9151 40.9754 29.09C43.0896 27.2467 43.7929 25.0255 42.9084 22.3411H47.6251ZM40.3599 34.5717C40.224 34.6034 40.0882 34.6352 39.952 34.6629L39.9367 34.747C40.047 34.8539 40.1579 34.9603 40.2688 35.0666C40.5517 35.338 40.8346 35.6094 41.1084 35.8897C41.2313 36.0158 41.3313 36.0355 41.497 35.9868C42.2681 35.7604 43.0268 35.7572 43.7595 36.1415C44.6052 36.5853 44.7618 37.7803 44.0444 38.4036C43.7417 38.6669 43.3861 38.8392 42.9917 38.9334C42.4254 39.0691 41.8581 39.0612 41.2857 38.9753C40.3098 38.8284 39.4691 38.4039 38.7187 37.7846C38.0741 37.2527 37.5496 36.6179 37.0855 35.9305C37.058 35.8897 37.009 35.8374 36.9674 35.8353C36.8295 35.8277 36.691 35.8287 36.5427 35.8298C36.4883 35.8302 36.4325 35.8306 36.375 35.8306C36.3903 35.8617 36.4031 35.8893 36.4147 35.9142C36.4375 35.9632 36.4556 36.0022 36.4787 36.038C36.5774 36.1912 36.6749 36.3452 36.7723 36.4993C37.0135 36.8804 37.2547 37.2615 37.5144 37.6299C38.0498 38.39 38.6973 39.048 39.5075 39.5258C40.7926 40.2841 42.1383 40.4604 43.5278 39.8303C44.1242 39.5599 44.5755 39.1221 44.8362 38.5071C45.0649 37.9684 45.1084 37.4088 45.0406 36.8411C44.9641 36.201 44.7078 35.64 44.2003 35.2095C43.3455 34.4838 42.3304 34.3093 41.2534 34.406C40.9531 34.4331 40.6565 34.5024 40.3599 34.5717Z" clip-rule="evenodd"/><path fill="#fff" d="M47.6251 20.875H48.1251V20.375H47.6251V20.875ZM47.6251 22.3411V22.8411H48.1251V22.3411H47.6251ZM36.7311 20.8754L36.731 20.3754L36.2311 20.3754V20.8754H36.7311ZM36.7311 22.3451H36.2311V22.8451H36.7311V22.3451ZM38.1374 22.345L38.1373 21.845L38.1374 22.345ZM41.3949 22.3483L41.3931 22.8483H41.3949V22.3483ZM41.5838 22.4271L42.0402 22.2229L42.0396 22.2217L41.5838 22.4271ZM42.0365 23.981L41.5381 24.0206L41.5381 24.0208L42.0365 23.981ZM41.6312 25.493L41.2044 25.2326L41.2043 25.2327L41.6312 25.493ZM41.625 25.5031L41.1981 25.2428L41.1981 25.2429L41.625 25.5031ZM40.9348 25.7727L41.0667 25.2904L41.0666 25.2904L40.9348 25.7727ZM39.326 25.6717L39.2294 25.1811L39.2293 25.1811L39.326 25.6717ZM38.5618 26.5654L38.062 26.551L38.062 26.5511L38.5618 26.5654ZM38.9029 27.5842L39.3086 27.2919L39.3085 27.2917L38.9029 27.5842ZM40.0217 28.9865L40.3889 28.6471L40.3888 28.6471L40.0217 28.9865ZM43.5127 32.0982L43.8238 31.7068L43.8237 31.7067L43.5127 32.0982ZM45.1607 33.3384L45.4561 32.935L45.4561 32.935L45.1607 33.3384ZM45.3866 33.5038L45.6824 33.1007L45.6822 33.1006L45.3866 33.5038ZM46.1321 34.0235L45.8511 34.4371L45.8511 34.4371L46.1321 34.0235ZM46.481 34.2618L46.1971 34.6733L46.6117 34.9594L46.8946 34.5427L46.481 34.2618ZM46.6593 33.9984L46.245 33.7184L46.245 33.7184L46.6593 33.9984ZM46.7471 33.8685L47.1612 34.1486L47.4374 33.7403L47.0331 33.4584L46.7471 33.8685ZM40.9754 29.09L40.6469 28.7132L40.2542 29.0555L40.6123 29.4338L40.9754 29.09ZM42.9084 22.3411V21.8411H42.2172L42.4335 22.4976L42.9084 22.3411ZM39.952 34.6629L39.8524 34.1729L39.5203 34.2404L39.4599 34.5739L39.952 34.6629ZM40.3599 34.5717L40.2461 34.0848L40.2461 34.0848L40.3599 34.5717ZM39.9367 34.747L39.4447 34.658L39.3972 34.9205L39.5888 35.1061L39.9367 34.747ZM40.2688 35.0666L39.9226 35.4274L39.9226 35.4274L40.2688 35.0666ZM41.1084 35.8897L41.4665 35.5407L41.4661 35.5403L41.1084 35.8897ZM41.497 35.9868L41.3562 35.507L41.356 35.5071L41.497 35.9868ZM43.7595 36.1415L43.9918 35.6988L43.9918 35.6988L43.7595 36.1415ZM44.0444 38.4036L43.7165 38.0261L43.7163 38.0263L44.0444 38.4036ZM42.9917 38.9334L42.8755 38.447L42.8751 38.4471L42.9917 38.9334ZM41.2857 38.9753L41.2113 39.4697L41.2114 39.4697L41.2857 38.9753ZM38.7187 37.7846L39.0369 37.399L39.0369 37.399L38.7187 37.7846ZM37.0855 35.9305L36.6711 36.2102L36.6711 36.2103L37.0855 35.9305ZM36.9674 35.8353L36.9398 36.3345L36.9416 36.3346L36.9674 35.8353ZM36.5427 35.8298L36.5464 36.3298L36.5464 36.3298L36.5427 35.8298ZM36.375 35.8306V35.3306H35.5716L35.9264 36.0514L36.375 35.8306ZM36.4147 35.9142L36.8681 35.7034L36.8681 35.7034L36.4147 35.9142ZM36.4787 36.038L36.0582 36.3085L36.0584 36.3088L36.4787 36.038ZM36.7723 36.4993L36.3498 36.7666L36.3498 36.7666L36.7723 36.4993ZM37.5144 37.6299L37.9232 37.3419L37.923 37.3417L37.5144 37.6299ZM39.5075 39.5258L39.7616 39.0952L39.7615 39.0951L39.5075 39.5258ZM43.5278 39.8303L43.7343 40.2857L43.7343 40.2857L43.5278 39.8303ZM44.8362 38.5071L44.3759 38.3117L44.3758 38.312L44.8362 38.5071ZM45.0406 36.8411L45.5371 36.7818L45.5371 36.7818L45.0406 36.8411ZM44.2003 35.2095L43.8767 35.5906L43.8768 35.5908L44.2003 35.2095ZM41.2534 34.406L41.2087 33.908L41.2086 33.908L41.2534 34.406ZM47.1251 20.875V22.3411H48.1251V20.875H47.1251ZM36.7311 21.3754C40.3606 21.375 43.9825 21.375 47.6251 21.375V20.375C43.9825 20.375 40.3606 20.375 36.731 20.3754L36.7311 21.3754ZM37.2311 22.3451V20.8754H36.2311V22.3451H37.2311ZM37.3709 21.8451H36.7311V22.8451H37.3709V21.8451ZM38.1373 21.845C37.8818 21.845 37.6264 21.8451 37.3709 21.8451V22.8451C37.6265 22.8451 37.882 22.845 38.1375 22.845L38.1373 21.845ZM41.3966 21.8483C40.3097 21.8445 39.223 21.8447 38.1373 21.845L38.1375 22.845C39.2235 22.8447 40.3084 22.8445 41.3931 22.8483L41.3966 21.8483ZM42.0396 22.2217C41.9826 22.0952 41.892 22.0213 41.8416 21.986C41.7852 21.9464 41.729 21.9205 41.6845 21.9035C41.6 21.8711 41.4973 21.8483 41.3949 21.8483V22.8483C41.3573 22.8483 41.3388 22.8419 41.3273 22.8375C41.3194 22.8345 41.2969 22.8254 41.2677 22.8049C41.2445 22.7886 41.1746 22.7361 41.1279 22.6325L42.0396 22.2217ZM42.535 23.9414C42.4846 23.308 42.2696 22.7359 42.0402 22.2229L41.1273 22.6312C41.3423 23.1119 41.5014 23.5593 41.5381 24.0206L42.535 23.9414ZM42.0581 25.7533C42.3807 25.2244 42.5894 24.6232 42.5349 23.9412L41.5381 24.0208C41.5714 24.437 41.4503 24.8294 41.2044 25.2326L42.0581 25.7533ZM42.0519 25.7634L42.0581 25.7533L41.2043 25.2327L41.1981 25.2428L42.0519 25.7634ZM40.803 26.255C40.9061 26.2832 41.0198 26.3147 41.1189 26.3309C41.2224 26.3478 41.3774 26.3608 41.543 26.2956C41.7095 26.2301 41.8137 26.1142 41.8775 26.0307C41.9379 25.9517 41.9982 25.8515 42.0519 25.7634L41.1981 25.2429C41.1676 25.2929 41.1444 25.3309 41.1239 25.363C41.1034 25.3953 41.0908 25.4133 41.083 25.4235C41.0655 25.4464 41.0966 25.3966 41.1766 25.3651C41.2557 25.334 41.3109 25.349 41.2799 25.3439C41.2663 25.3417 41.2438 25.3371 41.2059 25.3276C41.1682 25.3181 41.1241 25.3061 41.0667 25.2904L40.803 26.255ZM39.4226 26.1623C39.8662 26.075 40.3189 26.1228 40.8031 26.255L41.0666 25.2904C40.4915 25.1332 39.8741 25.0542 39.2294 25.1811L39.4226 26.1623ZM39.0616 26.5799C39.0666 26.4082 39.1089 26.3304 39.1417 26.292C39.1749 26.2531 39.2475 26.1968 39.4227 26.1623L39.2293 25.1811C38.9028 25.2455 38.6006 25.3853 38.3807 25.6432C38.1604 25.9015 38.0716 26.2212 38.062 26.551L39.0616 26.5799ZM39.3085 27.2917C39.1422 27.061 39.0546 26.8223 39.0616 26.5797L38.062 26.5511C38.0472 27.0672 38.2381 27.517 38.4974 27.8766L39.3085 27.2917ZM40.3888 28.6471C40.0042 28.231 39.6538 27.7711 39.3086 27.2919L38.4972 27.8764C38.8503 28.3665 39.2286 28.8651 39.6545 29.3259L40.3888 28.6471ZM43.8237 31.7067C42.6022 30.7363 41.4212 29.7642 40.3889 28.6471L39.6545 29.3259C40.7435 30.5042 41.9777 31.5173 43.2017 32.4897L43.8237 31.7067ZM45.4561 32.935C44.8999 32.5277 44.3526 32.127 43.8238 31.7068L43.2017 32.4897C43.7485 32.9242 44.3118 33.3366 44.8654 33.7418L45.4561 32.935ZM45.6822 33.1006C45.6068 33.0453 45.5314 32.9901 45.4561 32.935L44.8654 33.7418C44.9407 33.797 45.0158 33.852 45.0909 33.907L45.6822 33.1006ZM46.413 33.6099C46.1576 33.4364 45.9162 33.2724 45.6824 33.1007L45.0907 33.9069C45.3417 34.0911 45.5982 34.2653 45.8511 34.4371L46.413 33.6099ZM46.7649 33.8502C46.6459 33.7681 46.5281 33.6881 46.413 33.6099L45.8511 34.4371C45.9666 34.5156 46.0815 34.5936 46.1971 34.6733L46.7649 33.8502ZM46.245 33.7184C46.1868 33.8046 46.1298 33.8889 46.0674 33.9809L46.8946 34.5427C46.9578 34.4496 47.0154 34.3643 47.0736 34.2783L46.245 33.7184ZM46.3329 33.5883C46.3029 33.6328 46.2738 33.6758 46.245 33.7184L47.0736 34.2783C47.1024 34.2356 47.1313 34.1928 47.1612 34.1486L46.3329 33.5883ZM40.6123 29.4338C42.3749 31.2956 44.385 32.8308 46.4611 34.2786L47.0331 33.4584C44.9765 32.0241 43.0315 30.5346 41.3385 28.7463L40.6123 29.4338ZM42.4335 22.4976C42.8497 23.7608 42.8829 24.8822 42.5867 25.89C42.2899 26.9 41.6495 27.839 40.6469 28.7132L41.304 29.4669C42.4156 28.4978 43.1839 27.4045 43.5462 26.172C43.909 24.9372 43.8516 23.6059 43.3833 22.1846L42.4335 22.4976ZM47.6251 21.8411H42.9084V22.8411H47.6251V21.8411ZM40.0515 35.1528C40.1961 35.1235 40.339 35.09 40.4737 35.0586L40.2461 34.0848C40.109 34.1168 39.9803 34.1469 39.8524 34.1729L40.0515 35.1528ZM40.4287 34.836L40.444 34.7519L39.4599 34.5739L39.4447 34.658L40.4287 34.836ZM40.6149 34.7058C40.5039 34.5993 40.3939 34.4938 40.2847 34.3879L39.5888 35.1061C39.7002 35.214 39.8119 35.3212 39.9226 35.4274L40.6149 34.7058ZM41.4661 35.5403C41.1857 35.2533 40.8969 34.9763 40.6149 34.7058L39.9226 35.4274C40.2066 35.6998 40.4836 35.9656 40.7507 36.2391L41.4661 35.5403ZM41.356 35.5071C41.3112 35.5202 41.3425 35.5031 41.4029 35.5175C41.4327 35.5246 41.4552 35.536 41.4682 35.5444C41.4792 35.5515 41.4789 35.5535 41.4664 35.5407L40.7503 36.2387C40.8485 36.3394 40.9837 36.4455 41.1704 36.4901C41.353 36.5337 41.5171 36.502 41.6381 36.4665L41.356 35.5071ZM43.9918 35.6988C43.1151 35.2389 42.2161 35.2545 41.3562 35.507L41.6379 36.4665C42.3201 36.2662 42.9385 36.2755 43.5272 36.5843L43.9918 35.6988ZM44.3723 38.781C45.3653 37.9184 45.1377 36.3001 43.9918 35.6988L43.5271 36.5843C44.0728 36.8706 44.1584 37.6422 43.7165 38.0261L44.3723 38.781ZM43.1078 39.4197C43.572 39.3088 44.0026 39.1026 44.3725 38.7808L43.7163 38.0263C43.4808 38.2311 43.2002 38.3695 42.8755 38.447L43.1078 39.4197ZM41.2114 39.4697C41.8271 39.5622 42.4623 39.5745 43.1082 39.4196L42.8751 38.4471C42.3886 38.5638 41.8891 38.5603 41.3599 38.4808L41.2114 39.4697ZM38.4004 38.1702C39.208 38.8368 40.1307 39.3071 41.2113 39.4697L41.3601 38.4808C40.4889 38.3497 39.7302 37.9711 39.0369 37.399L38.4004 38.1702ZM36.6711 36.2103C37.1526 36.9235 37.7079 37.5987 38.4004 38.1702L39.0369 37.399C38.4404 36.9066 37.9465 36.3124 37.4999 35.6508L36.6711 36.2103ZM36.9416 36.3346C36.8555 36.3302 36.7935 36.3022 36.763 36.2858C36.7307 36.2685 36.71 36.2514 36.7008 36.2432C36.6833 36.2277 36.6754 36.2167 36.6711 36.2102L37.5 35.6509C37.4681 35.6036 37.422 35.546 37.3627 35.4936C37.3212 35.4569 37.1898 35.3461 36.9931 35.3359L36.9416 36.3346ZM36.5464 36.3298C36.6976 36.3286 36.8202 36.3279 36.9398 36.3345L36.9949 35.336C36.8387 35.3274 36.6844 35.3287 36.539 35.3298L36.5464 36.3298ZM36.375 36.3306C36.4347 36.3306 36.4922 36.3302 36.5464 36.3298L36.539 35.3298C36.4843 35.3302 36.4304 35.3306 36.375 35.3306V36.3306ZM36.8681 35.7034C36.8566 35.6786 36.8416 35.6464 36.8236 35.6098L35.9264 36.0514C35.939 36.0769 35.9496 36.0999 35.9614 36.125L36.8681 35.7034ZM36.8992 35.7675C36.9 35.7688 36.8983 35.7664 36.893 35.7559C36.8871 35.744 36.8803 35.7296 36.8681 35.7034L35.9614 36.125C35.9807 36.1667 36.0132 36.2386 36.0582 36.3085L36.8992 35.7675ZM37.1948 36.2319C37.0976 36.0782 36.999 35.9224 36.899 35.7672L36.0584 36.3088C36.1558 36.46 36.2522 36.6123 36.3498 36.7666L37.1948 36.2319ZM37.923 37.3417C37.6717 36.9853 37.4371 36.6148 37.1948 36.2319L36.3498 36.7666C36.5899 37.146 36.8376 37.5377 37.1058 37.918L37.923 37.3417ZM39.7615 39.0951C39.0256 38.6611 38.4276 38.058 37.9232 37.3419L37.1056 37.9178C37.6721 38.722 38.369 39.4348 39.2535 39.9565L39.7615 39.0951ZM43.3213 39.3749C42.1038 39.927 40.9303 39.7848 39.7616 39.0952L39.2534 39.9564C40.655 40.7835 42.1728 40.9937 43.7343 40.2857L43.3213 39.3749ZM44.3758 38.312C44.1674 38.8036 43.8114 39.1527 43.3213 39.3749L43.7343 40.2857C44.437 39.967 44.9836 39.4406 45.2965 38.7022L44.3758 38.312ZM44.5441 36.9004C44.6042 37.4035 44.5629 37.8714 44.3759 38.3117L45.2964 38.7025C45.5669 38.0653 45.6126 37.4142 45.5371 36.7818L44.5441 36.9004ZM43.8768 35.5908C44.2727 35.9266 44.48 36.364 44.5441 36.9004L45.5371 36.7818C45.4482 36.038 45.1429 35.3535 44.5238 34.8282L43.8768 35.5908ZM41.2981 34.904C42.2922 34.8148 43.1571 34.9797 43.8767 35.5906L44.5239 34.8283C43.5338 33.9878 42.3686 33.8039 41.2087 33.908L41.2981 34.904ZM40.4737 35.0586C40.7763 34.9878 41.0386 34.9274 41.2982 34.904L41.2086 33.908C40.8675 33.9387 40.5367 34.0169 40.2461 34.0848L40.4737 35.0586Z"/></g><defs><clipPath id="a"><rect width="36" height="36" fill="#fff" transform="translate(24 13)"/></clipPath></defs></svg>