<svg xmlns="http://www.w3.org/2000/svg" enable-background="new 0 0 128 128" viewBox="0 0 128 128"><circle cx="64" cy="64" r="64" fill="#FFF"/><path fill="#333" d="M39.25 74.179c.485.932 1.127 1.686 1.934 2.266.806.58 1.749 1.012 2.835 1.291 1.08.279 2.203.422 3.362.422.785 0 1.623-.064 2.524-.195.896-.131 1.734-.385 2.519-.76.785-.373 1.439-.889 1.966-1.537.516-.66.78-1.486.78-2.498 0-1.086-.343-1.961-1.033-2.635-.696-.676-1.602-1.234-2.719-1.682-1.123-.447-2.397-.844-3.815-1.176-1.417-.34-2.856-.713-4.315-1.121-1.497-.375-2.951-.834-4.374-1.375-1.417-.541-2.693-1.242-3.81-2.104-1.123-.858-2.029-1.934-2.719-3.222-.695-1.291-1.038-2.852-1.038-4.683 0-2.055.438-3.839 1.317-5.354.88-1.516 2.023-2.774 3.452-3.784 1.417-1.009 3.02-1.757 4.817-2.242 1.797-.484 3.588-.729 5.385-.729 2.092 0 4.1.234 6.023.701 1.923.469 3.636 1.225 5.127 2.271 1.496 1.047 2.682 2.382 3.562 4.008.875 1.626 1.317 3.6 1.317 5.915h-8.521c-.074-1.196-.327-2.187-.759-2.972-.427-.785-.996-1.401-1.708-1.85s-1.523-.765-2.44-.954c-.917-.185-1.918-.279-2.998-.279-.711 0-1.418.076-2.129.224-.711.15-1.354.411-1.934.785-.58.375-1.059.841-1.428 1.402-.374.562-.564 1.272-.564 2.132 0 .782.153 1.42.448 1.904.3.485.885.936 1.765 1.344.88.414 2.092.825 3.646 1.233 1.549.414 3.578.936 6.081 1.573.749.147 1.787.419 3.109.812 1.328.393 2.646 1.02 3.952 1.878 1.313.86 2.445 2.01 3.394 3.45.955 1.438 1.433 3.277 1.433 5.521 0 1.83-.357 3.531-1.069 5.096-.711 1.57-1.765 2.926-3.167 4.068-1.402 1.139-3.135 2.029-5.211 2.662-2.077.633-4.479.953-7.204.953-2.208 0-4.347-.273-6.423-.811-2.071-.543-3.905-1.393-5.491-2.551-1.586-1.16-2.851-2.635-3.784-4.426-.933-1.799-1.386-3.928-1.344-6.393h8.521C38.522 72.103 38.765 73.241 39.25 74.179zM86.455 43.061L70.811 84.938h-6.335l15.588-41.877H86.455zM98.002 75.411v8.633h-8.801v-8.633H98.002z"/></svg>