<svg xmlns="http://www.w3.org/2000/svg" viewBox="0 0 512 512"><g transform="matrix(1.00623 0 0 1.00623 -19.834 -553.828)"><g transform="translate(0 540.362)"><g style="line-height:125%" fill="#f69b1f" font-family="Sans" font-size="121.951" font-weight="400" letter-spacing="0" word-spacing="0"><path d="m 78.5625,16 0,480 36.25231,16.90473 0,-480 z"/><path d="m 78.5625,496 60.71875,0 36.25231,16.90473 -60.71875,0 z"/><path d="M139.28125 496l0-152.1875 36.25231 16.90473 0 152.1875zM139.28125 343.8125l82.6875-97.3125 36.25231 16.90473-82.6875 97.3125z"/><path d="M 221.96875,246.5 365.375,496 l 36.25231,16.90473 -143.40625,-249.5 z"/><path d="m 365.375,496 68.0625,0 36.25231,16.90473 -68.0625,0 z"/><path d="m 433.4375,496 -173.40625,-297.0625 36.25231,16.90473 173.40625,297.0625 z"/><path d="m 260.03125,198.9375 150,-182.9375 36.25231,16.90473 -150,182.9375 z"/><path d="m 410.03125,16 -68.78125,0 36.25231,16.90473 68.78125,0 z"/><path d="m 341.25,16 -199.75,240.71875 36.25231,16.90473 199.75,-240.71875 z"/><path d="m 141.5,256.71875 -2.21875,0 36.25231,16.90473 2.21875,0 z"/><path d="m 139.28125,256.71875 0,-240.71875 36.25231,16.90473 0,240.71875 z"/><path d="m 139.28125,16 -60.71875,0 36.25231,16.90473 60.71875,0 z"/></g><path d="m 78.5625,16 0,480 60.71875,0 0,-152.1875 L 221.96875,246.5 365.375,496 433.4375,496 260.03125,198.9375 410.03125,16 341.25,16 141.5,256.71875 l -2.21875,0 0,-240.71875 -60.71875,0 z" style="line-height:125%" fill="#f69b1f" font-family="Sans" font-size="121.951" font-weight="400" letter-spacing="0" word-spacing="0"/></g><path style="line-height:125%" fill="#fcd116" d="m 78.5625,16 0,480 60.71875,0 0,-152.1875 L 221.96875,246.5 365.375,496 433.4375,496 260.03125,198.9375 410.03125,16 341.25,16 141.5,256.71875 l -2.21875,0 0,-240.71875 -60.71875,0 z" font-family="Sans" font-size="121.951" font-weight="400" letter-spacing="0" transform="translate(0 540.362)" word-spacing="0"/></g></svg>