<svg xmlns="http://www.w3.org/2000/svg" viewBox="0 0 32 32"><defs><linearGradient id="a" x1="50%" x2="50%" y1="0%" y2="100%"><stop offset="0%" stop-color="#5B86E5"/><stop offset="100%" stop-color="#36D1DC"/></linearGradient></defs><g fill="none" fill-rule="evenodd"><path fill="url(#a)" fill-rule="nonzero" d="M16,26.5 C10.2010101,26.5 5.5,21.7989899 5.5,16 C5.5,10.2010101 10.2010101,5.5 16,5.5 C21.7989899,5.5 26.5,10.2010101 26.5,16 C26.5,21.7989899 21.7989899,26.5 16,26.5 Z"/><path fill="#FFF" d="M11.26,11.99 L13.51,11.99 C14.7526407,11.99 15.76,12.9973593 15.76,14.24 C15.76,15.1812826 15.1819926,15.9875644 14.3615491,16.3232742 L16.2678168,19.4958365 L15.4106495,20.0108746 L13.2950946,16.49 L12.26,16.49 L12.26,19.99 L11.26,19.99 L11.26,11.99 Z M12.26,12.99 L12.26,15.49 L13.51,15.49 C14.2003559,15.49 14.76,14.9303559 14.76,14.24 C14.76,13.5496441 14.2003559,12.99 13.51,12.99 L12.26,12.99 Z M19.01,16.4901027 C19.967673,16.5003747 20.7408422,17.2798957 20.7408422,18.24 C20.7408422,19.2064983 19.9573406,19.99 18.9908422,19.99 C18.1210543,19.99 17.3869676,19.3518134 17.26,18.4993789 L18.2490886,18.3520571 C18.3033342,18.7162507 18.6182197,18.99 18.9908422,18.99 C19.4050558,18.99 19.7408422,18.6542136 19.7408422,18.24 C19.7408422,17.8257864 19.4050558,17.49 18.9908422,17.49 C18.0331693,17.4796253 17.26,16.7001043 17.26,15.74 C17.26,14.7735017 18.0435017,13.99 19.01,13.99 C19.8797879,13.99 20.6138746,14.6281866 20.7408422,15.4806211 L19.7517536,15.6279429 C19.6975081,15.2637493 19.3826225,14.99 19.01,14.99 C18.5957864,14.99 18.26,15.3257864 18.26,15.74 C18.26,16.1542136 18.5957864,16.49 19.01,16.49 L19.01,16.4901027 Z"/></g></svg>