<svg xmlns="http://www.w3.org/2000/svg" fill="none" viewBox="0 0 36 36"><g clip-path="url(#a)"><rect width="32" height="32" x="2" y="2" fill="#FFCD00" rx="16"/><path fill="#fff" fill-rule="evenodd" d="M15.4479 14.2222L15.1472 14.0549L15.1471 14.0549C14.9287 13.9335 14.7187 13.8167 14.4826 13.6847C14.3873 13.8557 14.2935 14.0234 14.1964 14.1972C14.0906 14.3864 13.9808 14.5828 13.8606 14.7985L13.3809 14.5169C13.1326 14.3712 12.8786 14.2221 12.605 14.0613C12.7248 13.8212 12.8366 13.5967 12.9478 13.3731L12.9484 13.3719C13.068 13.1317 13.187 12.8926 13.3149 12.6364C13.6599 12.8097 13.97 12.9652 14.3167 13.1385C14.534 12.7602 14.7297 12.419 14.9686 12C15.1505 12.1066 15.3278 12.2103 15.5109 12.3173L15.5112 12.3175C15.7286 12.4445 15.954 12.5762 16.2043 12.723L15.9538 13.2199C15.7854 13.5543 15.6208 13.881 15.4479 14.2222ZM15.2869 20.8142L15.287 20.8142C15.4715 20.8207 15.6612 20.8274 15.8576 20.8403C16.0119 21.5669 15.6652 22.0141 15.1726 22.32C13.4857 23.3542 11.7176 23.4443 9.92296 22.6824C9.16662 22.3606 8.76854 21.7048 8.9908 20.8491C9.11726 20.3649 9.31642 19.902 9.51581 19.4385C9.62502 19.1847 9.7343 18.9307 9.83174 18.673C9.87331 18.5628 9.88139 18.438 9.8895 18.313C9.89336 18.2534 9.89723 18.1937 9.90472 18.1355C9.85147 18.1606 9.78869 18.1811 9.72585 18.2016C9.58902 18.2462 9.45188 18.291 9.4121 18.383C9.29584 18.6528 9.17349 18.9215 9.05098 19.1906C8.67011 20.0271 8.28768 20.867 8.08186 21.7525C7.77004 23.0925 8.36715 24.0913 9.5647 24.5333C11.3461 25.1909 13.1524 25.1679 14.8973 24.3689C15.6436 24.0259 16.3884 23.4956 16.4166 22.5463C16.463 20.9658 16.3817 19.3783 16.2889 17.7979C16.264 17.3824 16.0517 16.9511 15.8394 16.5834C15.36 15.7525 14.6518 15.6871 14.0845 16.4296C13.4161 17.3047 13.1043 18.3353 13.1656 19.4649C13.2005 20.1155 13.5455 20.5946 14.1542 20.7148C14.5176 20.7872 14.8902 20.8003 15.2869 20.8142ZM15.1187 18.6783C15.088 18.7565 15.0573 18.8347 15.0266 18.9134L14.0314 18.4732C14.0529 18.4243 14.0789 18.3631 14.1052 18.3008L14.1052 18.3007C14.1703 18.1469 14.2381 17.9868 14.2487 17.9906C14.5136 18.0947 14.7698 18.2229 15.0261 18.3511C15.0876 18.3819 15.1491 18.4127 15.2107 18.4431C15.1801 18.5218 15.1494 18.6001 15.1187 18.6783ZM27.1466 16.2739C27.1118 16.2325 27.077 16.191 27.0435 16.1485L27.0435 16.1485L27.0434 16.1485C26.9373 16.1733 26.8312 16.198 26.7234 16.2263C26.7364 16.4487 26.7302 16.6815 26.724 16.9143V16.9143V16.9144C26.7104 17.4255 26.6968 17.9368 26.8859 18.3388C27.5013 19.6435 27.5527 19.967 26.5542 21.0153C26.3791 21.1997 26.193 21.3726 26.007 21.5454C25.9024 21.6426 25.7977 21.7399 25.695 21.8391C24.7048 22.7991 23.6433 23.02 22.459 22.2334C22.3753 22.1779 22.2547 22.1841 22.1338 22.1903H22.1338C22.0773 22.1932 22.0208 22.1961 21.9681 22.1927C21.9869 22.2429 22.0014 22.3004 22.016 22.3581L22.016 22.3581L22.016 22.3582C22.0476 22.4834 22.0794 22.6091 22.1555 22.6612L22.1772 22.676L22.1772 22.676C22.7937 23.0972 23.4138 23.5208 24.0696 23.8633C24.796 24.2416 25.4894 24.1055 26.1561 23.5804C27.9707 22.152 28.596 18.5651 27.3504 16.541C27.2911 16.4455 27.2189 16.3598 27.1466 16.2739ZM19.9163 22.6788V20.9605H18.2909V22.6788H19.9163Z" clip-rule="evenodd"/><path fill="#fff" d="M15.1472 14.0549L15.293 13.7927L15.2928 13.7926L15.1472 14.0549ZM15.4479 14.2222L15.3021 14.4843L15.5746 14.6359L15.7155 14.3578L15.4479 14.2222ZM15.1471 14.0549L15.0013 14.3171L15.0016 14.3172L15.1471 14.0549ZM14.4826 13.6847L14.6289 13.4228L14.3667 13.2764L14.2205 13.5387L14.4826 13.6847ZM14.1964 14.1972L14.4582 14.3436V14.3436L14.1964 14.1972ZM13.8606 14.7985L13.7087 15.0572L13.9733 15.2125L14.1226 14.9445L13.8606 14.7985ZM13.3809 14.5169L13.5327 14.2581L13.5327 14.2581L13.3809 14.5169ZM12.605 14.0613L12.3366 13.9273L12.2115 14.178L12.453 14.3199L12.605 14.0613ZM12.9478 13.3731L13.2164 13.5068L13.2164 13.5067L12.9478 13.3731ZM12.9484 13.3719L12.6798 13.2382L12.6798 13.2383L12.9484 13.3719ZM13.3149 12.6364L13.4495 12.3683L13.1808 12.2334L13.0465 12.5024L13.3149 12.6364ZM14.3167 13.1385L14.1826 13.4068L14.4358 13.5334L14.5769 13.2879L14.3167 13.1385ZM14.9686 12L15.1203 11.7412L14.8583 11.5876L14.7079 11.8514L14.9686 12ZM15.5109 12.3173L15.3595 12.5763L15.3595 12.5763L15.5109 12.3173ZM15.5112 12.3175L15.6626 12.0585L15.6626 12.0584L15.5112 12.3175ZM16.2043 12.723L16.4721 12.8581L16.5988 12.6067L16.356 12.4643L16.2043 12.723ZM15.9538 13.2199L15.6859 13.0848L15.6859 13.0849L15.9538 13.2199ZM15.287 20.8142L15.2752 21.114L15.2764 21.1141L15.287 20.8142ZM15.2869 20.8142L15.2986 20.5145L15.2974 20.5144L15.2869 20.8142ZM15.8576 20.8403L16.1511 20.778L16.1039 20.5558L15.8773 20.541L15.8576 20.8403ZM15.1726 22.32L15.3294 22.5757L15.3308 22.5749L15.1726 22.32ZM9.92296 22.6824L9.80553 22.9584L9.80573 22.9585L9.92296 22.6824ZM8.9908 20.8491L8.70053 20.7734L8.70044 20.7737L8.9908 20.8491ZM9.51581 19.4385L9.24023 19.32H9.24023L9.51581 19.4385ZM9.83174 18.673L10.1124 18.779L10.1124 18.7789L9.83174 18.673ZM9.8895 18.313L10.1889 18.3324V18.3324L9.8895 18.313ZM9.90472 18.1355L10.2023 18.1739L10.2721 17.6313L9.77706 17.864L9.90472 18.1355ZM9.72585 18.2016L9.63279 17.9164L9.63279 17.9164L9.72585 18.2016ZM9.4121 18.383L9.13671 18.264L9.1366 18.2643L9.4121 18.383ZM9.05098 19.1906L8.77795 19.0663L9.05098 19.1906ZM8.08186 21.7525L8.37405 21.8205L8.37407 21.8204L8.08186 21.7525ZM9.5647 24.5333L9.66859 24.2519L9.66856 24.2518L9.5647 24.5333ZM14.8973 24.3689L15.0222 24.6416L15.0225 24.6415L14.8973 24.3689ZM16.4166 22.5463L16.7164 22.5552L16.7164 22.5551L16.4166 22.5463ZM16.2889 17.7979L16.5883 17.7803L16.5883 17.7799L16.2889 17.7979ZM15.8394 16.5834L15.5795 16.7333L15.5796 16.7334L15.8394 16.5834ZM14.0845 16.4296L13.8461 16.2475L13.8461 16.2475L14.0845 16.4296ZM13.1656 19.4649L13.4652 19.4489L13.4652 19.4487L13.1656 19.4649ZM14.1542 20.7148L14.2128 20.4206L14.2123 20.4205L14.1542 20.7148ZM15.0266 18.9134L14.9053 19.1877L15.1921 19.3146L15.3061 19.0224L15.0266 18.9134ZM15.1187 18.6783L15.398 18.7878H15.398L15.1187 18.6783ZM14.0314 18.4732L13.7568 18.3524L13.6363 18.6264L13.9101 18.7475L14.0314 18.4732ZM14.1052 18.3008L14.3815 18.4177L14.3821 18.4162L14.1052 18.3008ZM14.1052 18.3007L13.8289 18.1838L13.8283 18.1854L14.1052 18.3007ZM14.2487 17.9906L14.3585 17.7112L14.3492 17.7079L14.2487 17.9906ZM15.0261 18.3511L15.1604 18.0829L15.1604 18.0829L15.0261 18.3511ZM15.2107 18.4431L15.4902 18.5522L15.5902 18.296L15.3436 18.1742L15.2107 18.4431ZM27.0435 16.1485L27.2794 15.9631L27.1593 15.8103L26.9708 15.8575L27.0435 16.1485ZM27.1466 16.2739L26.9171 16.467V16.467L27.1466 16.2739ZM27.0435 16.1485L27.1076 16.4417L27.1162 16.4396L27.0435 16.1485ZM27.0434 16.1485L26.9793 15.8554L26.9753 15.8564L27.0434 16.1485ZM26.7234 16.2263L26.6473 15.9361L26.4096 15.9985L26.4239 16.2438L26.7234 16.2263ZM26.724 16.9143L26.424 16.9063V16.9143H26.724ZM26.724 16.9144L27.024 16.9224V16.9144H26.724ZM26.8859 18.3388L26.6145 18.4666L26.6146 18.4668L26.8859 18.3388ZM26.5542 21.0153L26.337 20.8084L26.3367 20.8087L26.5542 21.0153ZM26.007 21.5454L26.2112 21.7652L26.007 21.5454ZM25.695 21.8391L25.4865 21.6234L25.4862 21.6237L25.695 21.8391ZM22.459 22.2334L22.625 21.9835L22.6247 21.9833L22.459 22.2334ZM22.1338 22.1903V22.4903H22.1415L22.1491 22.4899L22.1338 22.1903ZM22.1338 22.1903V21.8903H22.1261L22.1184 21.8907L22.1338 22.1903ZM21.9681 22.1927L21.9872 21.8933L21.5241 21.8637L21.6872 22.2981L21.9681 22.1927ZM22.016 22.3581L21.7251 22.4316L21.7279 22.4424L21.7314 22.453L22.016 22.3581ZM22.016 22.3582L22.3069 22.2847L22.3041 22.2739L22.3006 22.2633L22.016 22.3582ZM22.1555 22.6612L21.9861 22.9088L21.9862 22.9089L22.1555 22.6612ZM22.1772 22.676L22.3516 22.4318L22.3464 22.4283L22.1772 22.676ZM22.1772 22.676L22.0028 22.9202L22.008 22.9238L22.1772 22.676ZM24.0696 23.8633L23.9307 24.1292L23.931 24.1294L24.0696 23.8633ZM26.1561 23.5804L25.9706 23.3447L25.9705 23.3447L26.1561 23.5804ZM27.3504 16.541L27.6059 16.3837L27.6052 16.3826L27.3504 16.541ZM19.9163 20.9605H20.2163V20.6605H19.9163V20.9605ZM19.9163 22.6788V22.9788H20.2163V22.6788H19.9163ZM18.2909 20.9605V20.6605H17.9909V20.9605H18.2909ZM18.2909 22.6788H17.9909V22.9788H18.2909V22.6788ZM15.0014 14.3171L15.3021 14.4843L15.5937 13.96L15.293 13.7927L15.0014 14.3171ZM15.0016 14.3172L15.0017 14.3173L15.2928 13.7926L15.2927 13.7925L15.0016 14.3172ZM14.3362 13.9466C14.5727 14.0788 14.783 14.1957 15.0013 14.3171L15.2929 13.7927C15.0745 13.6712 14.8648 13.5546 14.6289 13.4228L14.3362 13.9466ZM14.4582 14.3436C14.5554 14.1698 14.6492 14.002 14.7446 13.8308L14.2205 13.5387C14.1253 13.7094 14.0317 13.877 13.9345 14.0508L14.4582 14.3436ZM14.1226 14.9445C14.2427 14.7291 14.3524 14.5328 14.4582 14.3436L13.9345 14.0508C13.8287 14.24 13.7188 14.4366 13.5985 14.6524L14.1226 14.9445ZM13.229 14.7756L13.7087 15.0572L14.0124 14.5397L13.5327 14.2581L13.229 14.7756ZM12.453 14.3199C12.7266 14.4808 12.9808 14.6299 13.229 14.7756L13.5327 14.2581C13.2845 14.1124 13.0305 13.9634 12.757 13.8027L12.453 14.3199ZM12.6792 13.2394C12.568 13.463 12.4563 13.6874 12.3366 13.9273L12.8734 14.1952C12.9933 13.955 13.1051 13.7303 13.2164 13.5068L12.6792 13.2394ZM12.6798 13.2383L12.6792 13.2395L13.2164 13.5067L13.217 13.5055L12.6798 13.2383ZM13.0465 12.5024C12.9185 12.7588 12.7994 12.998 12.6798 13.2382L13.217 13.5056C13.3366 13.2654 13.4555 13.0264 13.5833 12.7704L13.0465 12.5024ZM14.4508 12.8701C14.1044 12.697 13.7944 12.5415 13.4495 12.3683L13.1803 12.9045C13.5253 13.0778 13.8357 13.2335 14.1826 13.4068L14.4508 12.8701ZM14.7079 11.8514C14.4693 12.27 14.2738 12.6109 14.0566 12.9891L14.5769 13.2879C14.7942 12.9095 14.9901 12.568 15.2292 12.1486L14.7079 11.8514ZM15.6622 12.0583C15.4792 11.9513 15.302 11.8477 15.1203 11.7412L14.8168 12.2588C14.9989 12.3656 15.1765 12.4693 15.3595 12.5763L15.6622 12.0583ZM15.6626 12.0584L15.6622 12.0582L15.3595 12.5763L15.3599 12.5765L15.6626 12.0584ZM16.356 12.4643C16.1055 12.3173 15.88 12.1855 15.6626 12.0585L15.3599 12.5765C15.5773 12.7036 15.8024 12.8351 16.0525 12.9818L16.356 12.4643ZM16.2217 13.3549L16.4721 12.8581L15.9364 12.588L15.6859 13.0848L16.2217 13.3549ZM15.7155 14.3578C15.8886 14.0163 16.0533 13.6892 16.2218 13.3548L15.6859 13.0849C15.5174 13.4193 15.353 13.7458 15.1803 14.0866L15.7155 14.3578ZM15.2987 20.5145L15.2986 20.5145L15.2751 21.114L15.2752 21.114L15.2987 20.5145ZM15.8773 20.541C15.6756 20.5277 15.4814 20.5209 15.2975 20.5144L15.2764 21.1141C15.4615 21.1206 15.6468 21.1271 15.8379 21.1397L15.8773 20.541ZM15.3308 22.5749C15.6036 22.4055 15.8598 22.1827 16.0222 21.8795C16.188 21.5698 16.2413 21.2031 16.1511 20.778L15.5642 20.9026C15.6282 21.2041 15.5853 21.4243 15.4932 21.5963C15.3976 21.7749 15.2342 21.9286 15.0144 22.0651L15.3308 22.5749ZM9.80573 22.9585C11.6855 23.7566 13.5561 23.6629 15.3294 22.5757L15.0158 22.0642C13.4154 23.0454 11.7497 23.132 10.0402 22.4062L9.80573 22.9585ZM8.70044 20.7737C8.57291 21.2647 8.61902 21.7213 8.82532 22.1074C9.0301 22.4906 9.37777 22.7765 9.80553 22.9584L10.0404 22.4063C9.71181 22.2665 9.48227 22.0637 9.35449 21.8246C9.22824 21.5883 9.18644 21.2892 9.28117 20.9246L8.70044 20.7737ZM9.24023 19.32C9.04241 19.7798 8.83369 20.2634 8.70053 20.7734L9.28107 20.9249C9.40083 20.4663 9.59043 20.0242 9.79138 19.5571L9.24023 19.32ZM9.55112 18.5669C9.45646 18.8173 9.34989 19.0651 9.24023 19.32L9.79138 19.5571C9.90014 19.3043 10.0121 19.0441 10.1124 18.779L9.55112 18.5669ZM9.59013 18.2936C9.58138 18.4286 9.57395 18.5064 9.55106 18.567L10.1124 18.7789C10.1727 18.6192 10.1814 18.4475 10.1889 18.3324L9.59013 18.2936ZM9.60718 18.0972C9.59826 18.1664 9.59388 18.2357 9.59013 18.2936L10.1889 18.3324C10.1928 18.2711 10.1962 18.221 10.2023 18.1739L9.60718 18.0972ZM9.81891 18.4868C9.87726 18.4677 9.95899 18.4415 10.0324 18.407L9.77706 17.864C9.74395 17.8796 9.70013 17.8944 9.63279 17.9164L9.81891 18.4868ZM9.68749 18.502C9.6756 18.5295 9.66018 18.5445 9.65512 18.5488C9.65088 18.5525 9.6528 18.5498 9.66711 18.5427C9.68096 18.5357 9.70031 18.5275 9.72733 18.5177C9.75446 18.5078 9.78378 18.4982 9.81891 18.4868L9.63279 17.9164C9.57008 17.9368 9.47847 17.966 9.39805 18.0064C9.32187 18.0446 9.1991 18.1196 9.13671 18.264L9.68749 18.502ZM9.32401 19.3149C9.44631 19.0463 9.56993 18.7748 9.6876 18.5018L9.1366 18.2643C9.02175 18.5308 8.90068 18.7967 8.77795 19.0663L9.32401 19.3149ZM8.37407 21.8204C8.57196 20.9691 8.94089 20.1564 9.32401 19.3149L8.77795 19.0663C8.39933 19.8978 8.0034 20.765 7.78965 21.6846L8.37407 21.8204ZM9.66856 24.2518C9.1238 24.0508 8.73883 23.7325 8.52009 23.335C8.3019 22.9385 8.23179 22.4318 8.37405 21.8205L7.78967 21.6845C7.6201 22.4132 7.69264 23.0759 7.99443 23.6243C8.29568 24.1717 8.80804 24.5738 9.46083 24.8147L9.66856 24.2518ZM14.7723 24.0961C13.1041 24.8601 11.3804 24.8838 9.66859 24.2519L9.4608 24.8147C11.3118 25.4981 13.2006 25.4758 15.0222 24.6416L14.7723 24.0961ZM16.1167 22.5374C16.094 23.3004 15.5032 23.7603 14.772 24.0963L15.0225 24.6415C15.7841 24.2916 16.6827 23.6908 16.7164 22.5552L16.1167 22.5374ZM15.9894 17.8155C16.0823 19.396 16.1627 20.9716 16.1167 22.5374L16.7164 22.5551C16.7633 20.96 16.6812 19.3607 16.5883 17.7803L15.9894 17.8155ZM15.5796 16.7334C15.7907 17.0991 15.9691 17.4769 15.9894 17.8158L16.5883 17.7799C16.5589 17.288 16.3126 16.803 16.0992 16.4334L15.5796 16.7334ZM14.3229 16.6117C14.5716 16.2861 14.8012 16.2004 14.9683 16.2153C15.1402 16.2306 15.3654 16.3623 15.5795 16.7333L16.0992 16.4335C15.8339 15.9736 15.4653 15.6572 15.0215 15.6177C14.5728 15.5777 14.1646 15.8305 13.8461 16.2475L14.3229 16.6117ZM13.4652 19.4487C13.4076 18.3881 13.6991 17.4283 14.3229 16.6117L13.8461 16.2475C13.133 17.181 12.8009 18.2825 12.8661 19.4812L13.4652 19.4487ZM14.2123 20.4205C13.9756 20.3737 13.8024 20.2613 13.6822 20.1055C13.5598 19.9468 13.48 19.7262 13.4652 19.4489L12.8661 19.481C12.886 19.8542 12.9962 20.1985 13.2071 20.472C13.4204 20.7485 13.724 20.9356 14.0961 21.0091L14.2123 20.4205ZM15.2974 20.5144C14.8961 20.5003 14.5482 20.4874 14.2128 20.4206L14.0956 21.009C14.4869 21.087 14.8843 21.1003 15.2763 21.114L15.2974 20.5144ZM15.3061 19.0224C15.3367 18.944 15.3673 18.8661 15.398 18.7878L14.8394 18.5687C14.8087 18.6469 14.7779 18.7254 14.7471 18.8044L15.3061 19.0224ZM13.9101 18.7475L14.9053 19.1877L15.148 18.639L14.1528 18.1988L13.9101 18.7475ZM13.8289 18.1839C13.8023 18.2468 13.7773 18.3059 13.7568 18.3524L14.3061 18.594C14.3286 18.5427 14.3554 18.4794 14.3815 18.4177L13.8289 18.1839ZM13.8283 18.1854L13.8283 18.1854L14.3821 18.4162L14.3822 18.4161L13.8283 18.1854ZM14.3492 17.7079C14.2517 17.6733 14.1681 17.6976 14.1254 17.7167C14.0838 17.7352 14.0561 17.759 14.0435 17.7704C14.0176 17.7941 14.0013 17.8174 13.9957 17.8254C13.9819 17.8454 13.9712 17.8653 13.9654 17.8764C13.952 17.9018 13.9374 17.9332 13.9237 17.9636C13.8957 18.0261 13.861 18.108 13.829 18.1838L14.3815 18.4177C14.4145 18.3397 14.4463 18.2646 14.4711 18.2095C14.4838 18.1811 14.4922 18.1636 14.4966 18.1553C14.4996 18.1495 14.4965 18.1562 14.4886 18.1676C14.4861 18.1713 14.4723 18.1914 14.4486 18.213C14.4372 18.2235 14.4105 18.2465 14.3697 18.2647C14.3279 18.2833 14.2451 18.3076 14.1483 18.2733L14.3492 17.7079ZM15.1604 18.0829C14.9062 17.9556 14.6379 17.8212 14.3584 17.7114L14.139 18.2698C14.3893 18.3681 14.6335 18.4901 14.8919 18.6194L15.1604 18.0829ZM15.3436 18.1742C15.2828 18.1441 15.222 18.1137 15.1604 18.0829L14.8919 18.6194C14.9533 18.6501 15.0154 18.6813 15.0779 18.7121L15.3436 18.1742ZM15.398 18.7878C15.4286 18.7096 15.4594 18.6311 15.4902 18.5522L14.9312 18.3341C14.9007 18.4125 14.8701 18.4905 14.8394 18.5687L15.398 18.7878ZM26.8077 16.3339C26.8447 16.381 26.8828 16.4262 26.9171 16.467L27.3762 16.0807C27.3408 16.0387 27.3092 16.0011 27.2794 15.9631L26.8077 16.3339ZM27.1162 16.4396L27.1163 16.4395L26.9708 15.8575L26.9707 15.8575L27.1162 16.4396ZM27.1075 16.4416L27.1076 16.4416L26.9794 15.8554L26.9793 15.8554L27.1075 16.4416ZM26.7995 16.5165C26.9027 16.4894 27.0048 16.4656 27.1115 16.4407L26.9753 15.8564C26.8698 15.881 26.7597 15.9066 26.6473 15.9361L26.7995 16.5165ZM27.0239 16.9223C27.03 16.692 27.0367 16.4462 27.0229 16.2088L26.4239 16.2438C26.436 16.4512 26.4304 16.6709 26.4241 16.9063L27.0239 16.9223ZM27.024 16.9143V16.9143H26.424V16.9143H27.024ZM27.024 16.9144V16.9143H26.424V16.9144H27.024ZM27.1574 18.2111C27.0047 17.8865 27.0097 17.4546 27.0239 16.9224L26.4241 16.9064C26.4111 17.3964 26.3889 17.9871 26.6145 18.4666L27.1574 18.2111ZM26.7714 21.2222C27.2685 20.7004 27.5783 20.29 27.624 19.8011C27.6681 19.329 27.4557 18.8436 27.1573 18.2109L26.6146 18.4668C26.9315 19.1387 27.0525 19.4674 27.0266 19.7453C27.0022 20.0064 26.8384 20.282 26.337 20.8084L26.7714 21.2222ZM26.2112 21.7652C26.3961 21.5934 26.5891 21.4143 26.7717 21.2219L26.3367 20.8087C26.1691 20.9852 25.99 21.1517 25.8028 21.3256L26.2112 21.7652ZM25.9035 22.0548C26.0038 21.958 26.1062 21.8628 26.2112 21.7652L25.8028 21.3256C25.6985 21.4225 25.5917 21.5217 25.4865 21.6234L25.9035 22.0548ZM22.293 22.4832C22.9323 22.9079 23.5669 23.0777 24.1923 22.9882C24.8122 22.8995 25.3804 22.5619 25.9039 22.0545L25.4862 21.6237C25.0194 22.0763 24.5617 22.3292 24.1073 22.3942C23.6583 22.4585 23.17 22.3455 22.625 21.9835L22.293 22.4832ZM22.1491 22.4899C22.2141 22.4866 22.2536 22.485 22.2856 22.4877C22.3166 22.4903 22.3108 22.495 22.2933 22.4834L22.6247 21.9833C22.5236 21.9163 22.4156 21.8964 22.3351 21.8897C22.2556 21.8832 22.1743 21.8878 22.1185 21.8907L22.1491 22.4899ZM22.1338 22.4903H22.1338V21.8903H22.1338V22.4903ZM21.9489 22.4921C22.0221 22.4968 22.0964 22.4926 22.1491 22.4899L22.1184 21.8907C22.0582 21.8938 22.0196 21.8954 21.9872 21.8933L21.9489 22.4921ZM22.3069 22.2847C22.2933 22.2309 22.2748 22.1561 22.2489 22.0873L21.6872 22.2981C21.699 22.3296 21.7096 22.3699 21.7251 22.4316L22.3069 22.2847ZM22.3006 22.2633L22.3006 22.2633L21.7314 22.453L21.7314 22.453L22.3006 22.2633ZM22.3006 22.2633L22.3006 22.2633L21.7314 22.453L21.7314 22.453L22.3006 22.2633ZM22.3249 22.4136C22.3444 22.427 22.3535 22.4398 22.355 22.442C22.3562 22.4439 22.3533 22.4399 22.3477 22.4258C22.3422 22.4121 22.336 22.3936 22.3289 22.3687C22.3218 22.3437 22.315 22.3168 22.3069 22.2847L21.7251 22.4316C21.7397 22.4894 21.7603 22.5727 21.7905 22.6484C21.8193 22.7205 21.8742 22.8322 21.9861 22.9088L22.3249 22.4136ZM22.3464 22.4283L22.3247 22.4135L21.9862 22.9089L22.008 22.9237L22.3464 22.4283ZM22.3516 22.4319L22.3516 22.4319L22.0028 22.9201L22.0029 22.9202L22.3516 22.4319ZM24.2084 23.5974C23.5711 23.2645 22.9656 22.8513 22.3465 22.4283L22.008 22.9238C22.6219 23.3431 23.2566 23.7771 23.9307 24.1292L24.2084 23.5974ZM25.9705 23.3447C25.6661 23.5845 25.3734 23.7213 25.0905 23.764C24.8117 23.806 24.5205 23.7599 24.2081 23.5972L23.931 24.1294C24.3451 24.345 24.7639 24.42 25.18 24.3573C25.5921 24.2952 25.9794 24.1014 26.3417 23.8161L25.9705 23.3447ZM27.0949 16.6982C27.6681 17.6297 27.8245 18.9523 27.6051 20.2335C27.3856 21.5155 26.8011 22.6909 25.9706 23.3447L26.3417 23.8162C27.3257 23.0415 27.9612 21.7093 28.1965 20.3347C28.432 18.9593 28.2783 17.4764 27.6059 16.3837L27.0949 16.6982ZM26.9171 16.467C26.9916 16.5556 27.0495 16.6252 27.0956 16.6993L27.6052 16.3826C27.5326 16.2658 27.4461 16.1639 27.3762 16.0807L26.9171 16.467ZM19.6163 20.9605V22.6788H20.2163V20.9605H19.6163ZM18.2909 21.2605H19.9163V20.6605H18.2909V21.2605ZM18.5909 22.6788V20.9605H17.9909V22.6788H18.5909ZM19.9163 22.3788H18.2909V22.9788H19.9163V22.3788Z"/></g><rect width="34" height="34" x="1" y="1" stroke="#FFDE55" stroke-width="2" rx="17"/><defs><clipPath id="a"><rect width="32" height="32" x="2" y="2" fill="#fff" rx="16"/></clipPath></defs></svg>