<svg xmlns="http://www.w3.org/2000/svg" enable-background="new 0 0 128 128" viewBox="0 0 128 128"><circle cx="64" cy="64" r="64" fill="#F66"/><path fill="#333" d="M42.822 41.683v43.84h-8.721v-43.84H42.822zM59.025 77.907c1.313 1.27 3.193 1.902 5.648 1.902 1.761 0 3.278-.438 4.548-1.317 1.271-.88 2.045-1.813 2.335-2.792h7.672c-1.228 3.804-3.114 6.528-5.648 8.162-2.535 1.639-5.607 2.455-9.211 2.455-2.498 0-4.748-.395-6.75-1.196-2.008-.796-3.71-1.934-5.102-3.409-1.391-1.471-2.466-3.23-3.22-5.274-.759-2.05-1.138-4.3-1.138-6.759 0-2.373.39-4.581 1.17-6.628.774-2.047 1.881-3.818 3.314-5.312 1.428-1.494 3.135-2.672 5.127-3.531 1.981-.859 4.184-1.288 6.598-1.288 2.703 0 5.053.521 7.061 1.565s3.652 2.445 4.943 4.205c1.291 1.76 2.218 3.768 2.792 6.018.575 2.25.78 4.605.616 7.061h-22.9C57.002 74.593 57.719 76.643 59.025 77.907zM68.885 61.208c-1.043-1.146-2.635-1.72-4.759-1.72-1.396 0-2.55.237-3.467.706-.928.472-1.66 1.054-2.214 1.75-.553.695-.942 1.433-1.169 2.21-.222.78-.358 1.473-.396 2.087h14.186C70.65 64.033 69.928 62.354 68.885 61.208zM85.184 48.868v-7.185h8.715v7.185H85.184zM93.898 53.779v31.744h-8.715V53.779H93.898z"/></svg>