<svg xmlns="http://www.w3.org/2000/svg" viewBox="0 0 128 128"><circle cx="64" cy="64" r="64" fill="#FFF"/><path fill="#333" d="M20.087 51.08h7.209v3.522h.105c.928-1.494 2.104-2.579 3.525-3.257 1.422-.674 2.988-1.014 4.695-1.014 2.17 0 4.041.408 5.607 1.228a11.54 11.54 0 0 1 3.898 3.259c1.033 1.352 1.797 2.928 2.293 4.725.5 1.797.752 3.675.752 5.632 0 1.85-.252 3.631-.752 5.336-.496 1.713-1.25 3.225-2.266 4.543a11.182 11.182 0 0 1-3.789 3.145c-1.514.785-3.289 1.176-5.313 1.176-1.713 0-3.283-.342-4.727-1.039-1.443-.695-2.623-1.717-3.551-3.072h-.105v13.084h-7.584V51.08zm13.934 22.634c1.248 0 2.291-.248 3.125-.748a5.996 5.996 0 0 0 2.027-1.943c.518-.801.881-1.729 1.098-2.781.209-1.047.32-2.141.32-3.281 0-1.102-.115-2.188-.348-3.254a8.757 8.757 0 0 0-1.148-2.859 6.38 6.38 0 0 0-2.055-2.028c-.838-.514-1.861-.771-3.068-.771-1.248 0-2.291.258-3.123.771a6.196 6.196 0 0 0-2.029 2.003c-.518.819-.881 1.772-1.096 2.855a17.212 17.212 0 0 0-.322 3.284c0 1.141.115 2.234.348 3.281.232 1.053.605 1.98 1.123 2.781a6.002 6.002 0 0 0 2.029 1.943c.837.499 1.874.747 3.119.747zM56.821 88.347c-.785 0-1.555-.031-2.324-.084-.764-.053-1.539-.115-2.324-.184v-6.244c.605.068 1.238.131 1.896.184.66.053 1.309.08 1.951.08 1.137 0 2.008-.322 2.613-.965.605-.637.912-1.459.912-2.455a4.51 4.51 0 0 0-.328-1.707L49.56 51.08h8.063l6.244 18.898h.105l6.039-18.898h7.846L66.321 82.099c-.816 2.244-1.955 3.846-3.414 4.805s-3.488 1.443-6.086 1.443zM93.554 79.374c-2.672 0-4.879-.496-6.617-1.492-1.75-.996-3.125-2.297-4.143-3.898s-1.719-3.398-2.107-5.391a30.889 30.889 0 0 1-.59-6.034c0-2.422.109-4.742.32-6.969.217-2.224.711-4.245 1.496-6.06a13.525 13.525 0 0 1 3.389-4.725c1.477-1.336 3.479-2.34 6.008-3.017.779-.214 1.697-.355 2.75-.427a71.271 71.271 0 0 0 3.014-.267c.965-.107 1.771-.258 2.43-.455.658-.195 1.008-.524 1.043-.988h6.672c-.143 1.71-.506 3.062-1.09 4.058-.592.998-1.434 1.789-2.541 2.376-1.102.588-2.455 1.015-4.057 1.283-1.602.267-3.488.506-5.66.72-1.707.179-3.146.587-4.32 1.228-1.182.643-2.141 1.452-2.889 2.429a10.49 10.49 0 0 0-1.68 3.31 21.102 21.102 0 0 0-.775 3.873h.164c.32-.925.773-1.853 1.359-2.777a11.042 11.042 0 0 1 2.213-2.508c.896-.748 1.943-1.362 3.156-1.842 1.207-.482 2.598-.722 4.162-.722 1.744 0 3.389.34 4.938 1.015a11.812 11.812 0 0 1 4.031 2.882c1.139 1.246 2.035 2.732 2.699 4.458.658 1.729.984 3.657.984 5.793 0 2.172-.326 4.129-.984 5.873-.664 1.744-1.613 3.23-2.857 4.459-1.248 1.227-2.76 2.17-4.541 2.828-1.778.661-3.768.987-5.977.987zm.533-5.66c1.922 0 3.439-.727 4.563-2.186 1.123-1.461 1.682-3.578 1.682-6.354 0-2.706-.549-4.813-1.654-6.329-1.102-1.512-2.668-2.268-4.695-2.268-1.924 0-3.436.767-4.543 2.297-1.102 1.528-1.654 3.646-1.654 6.352 0 2.775.564 4.889 1.682 6.326 1.119 1.445 2.664 2.162 4.619 2.162z"/></svg>