<svg xmlns="http://www.w3.org/2000/svg" viewBox="0 0 128 128"><circle cx="64" cy="64" r="64" fill="#C9C"/><path fill="#333" d="M54.372 76.102c0 3.172-1.649 5.983-4.943 8.437-3.299 2.45-7.061 3.678-11.281 3.678-3.525 0-6.282-.891-8.264-2.674-1.992-1.781-2.982-4.269-2.982-7.465 0-2.985.369-5.591 1.106-7.817.849-2.514 2.493-5.594 4.948-9.24l1.913 1.296c-1.602 2.414-2.751 4.503-3.431 6.273-.68 1.773-1.017 3.536-1.017 5.286 0 1.876.695 3.322 2.087 4.345 1.386 1.017 3.352 1.528 5.886 1.528 3.626 0 6.571-.701 8.837-2.104 2.267-1.401 3.404-3.232 3.404-5.498v-1.455c0-.803-.068-1.688-.205-2.658-.132-.967-.479-2.967-1.033-5.994l-2.661-14.682-1.538-1.111c0-2.019.943-5.109 2.84-9.272l1.418.68c-.08.29-.121.619-.121.991 0 .822.421 1.494 1.27 2.008 1.254.7 2.439 1.37 3.552 2.008-.227 1.772-.453 3.04-.68 3.805-.227.759-.701 1.904-1.423 3.428l-.922-.369c0 .309.289 2.065.874 5.267.591 3.204 1.091 5.971 1.502 8.3.574 3.339.864 5.367.864 6.09v6.919zm19.034 6.21-3.209 5.997-4.574-2.287-2.599 5.006-5.622-3.151 3.399-6.305 4.389 2.472 2.472-4.883 5.744 3.151zm-1.849-5.439H67.23c-2.414 0-4.153-.988-5.223-2.967-1.196-2.185-1.797-5.859-1.797-11.032v-8.809c0-1.999-.274-3.554-.833-4.666-.269-.537-.885-1.31-1.85-2.318l3.336-7.729c1.191 1.649 2.029 3.278 2.503 4.883.554 1.876.833 4.266.833 7.172v6.089c0 4.306.284 7.294.864 8.961.453 1.342 1.175 2.008 2.166 2.008h4.326v8.408zm14.708 0H66.919v-8.408h16.258c-.228-1.398-.639-2.584-1.239-3.551-.306-.538-1.027-1.463-2.16-2.783l2.472-7.356c1.544 1.752 2.598 3.586 3.167 5.502.569 1.915.849 4.761.849 8.531v8.065zm14.834.711c0 1.258-.717 2.92-2.161 4.991a25.02 25.02 0 0 1-5.069 5.394c-2.145 1.688-3.973 2.534-5.502 2.534-1.813 0-3.757-.517-5.838-1.546-1.813-.886-4.648-2.656-8.5-5.314l1.301-1.916c1.85 1.235 3.347 2.068 4.479 2.503 1.134.433 2.355.648 3.679.648 1.417 0 2.84-.4 4.263-1.207 1.418-.801 3.356-2.295 5.813-4.481 3.42-3.049 5.128-5.396 5.128-7.043 0-.825-.332-1.908-.991-3.246-.737-1.525-1.644-2.791-2.719-3.803l1.733-8.344a15.477 15.477 0 0 1 3.246 4.977c.759 1.873 1.139 4.005 1.139 6.397v9.456z"/></svg>