<svg xmlns="http://www.w3.org/2000/svg" fill="none" viewBox="0 0 36 36"><g clip-path="url(#a)"><rect width="32" height="32" x="2" y="2" fill="#FFCD00" rx="16"/><path fill="#fff" fill-rule="evenodd" d="M15.8343 11H13C13 16.0127 13 21.0023 13.0005 26H22.1419V24.0984H15.8343V11ZM18.917 18.7753H23.9842C24.0248 18.0586 23.9921 17.3873 23.8161 16.7314C23.5804 15.851 23.0864 15.1975 22.2312 14.8819C21.5729 14.6391 20.8955 14.6039 20.2087 14.6965C19.1425 14.8404 18.3259 15.3737 17.9062 16.4143C17.3777 17.7256 17.3651 19.0775 17.8082 20.4168C18.1186 21.3555 18.7685 21.9598 19.7027 22.2069C19.994 22.2841 20.2984 22.3281 20.5986 22.3435C21.4389 22.3865 22.2461 22.2561 22.9436 21.7228C23.5379 21.2687 23.8479 20.6461 23.9324 19.8767H22.5832C22.4277 20.7696 21.9361 21.2971 21.0626 21.3893C20.4548 21.4535 19.8899 21.3237 19.4819 20.8135C19.0169 20.2315 18.9417 19.523 18.917 18.7753ZM21.8988 15.9171C22.5636 16.337 22.6597 17.0552 22.6653 17.811H18.9207C18.9819 17.046 19.072 16.2965 19.7713 15.8776C20.4674 15.4606 21.219 15.4881 21.8988 15.9171Z" clip-rule="evenodd"/><path fill="#fff" d="M13 11V10.7H12.7V11H13ZM15.8343 11H16.1343V10.7H15.8343V11ZM13.0005 26L12.7005 26L12.7005 26.3H13.0005V26ZM22.1419 26V26.3H22.4419V26H22.1419ZM22.1419 24.0984H22.4419V23.7984H22.1419V24.0984ZM15.8343 24.0984H15.5343V24.3984H15.8343V24.0984ZM23.9842 18.7753V19.0753H24.2677L24.2837 18.7923L23.9842 18.7753ZM18.917 18.7753V18.4753H18.6069L18.6171 18.7853L18.917 18.7753ZM23.8161 16.7314L23.5263 16.809L23.5264 16.8091L23.8161 16.7314ZM22.2312 14.8819L22.335 14.6004L22.335 14.6004L22.2312 14.8819ZM20.2087 14.6965L20.2488 14.9938L20.2489 14.9938L20.2087 14.6965ZM17.9062 16.4143L17.628 16.302L17.628 16.3021L17.9062 16.4143ZM17.8082 20.4168L18.093 20.3226L18.093 20.3226L17.8082 20.4168ZM19.7027 22.2069L19.7795 21.9169L19.7794 21.9169L19.7027 22.2069ZM20.5986 22.3435L20.5832 22.6431L20.5833 22.6431L20.5986 22.3435ZM22.9436 21.7228L22.7614 21.4845L22.7613 21.4845L22.9436 21.7228ZM23.9324 19.8767L24.2306 19.9095L24.2671 19.5767H23.9324V19.8767ZM22.5832 19.8767V19.5767H22.3309L22.2876 19.8253L22.5832 19.8767ZM21.0626 21.3893L21.0311 21.091L21.0311 21.091L21.0626 21.3893ZM19.4819 20.8135L19.2475 21.0008L19.2476 21.0009L19.4819 20.8135ZM22.6653 17.811V18.111H22.9676L22.9653 17.8088L22.6653 17.811ZM21.8988 15.9171L22.059 15.6635L22.0589 15.6635L21.8988 15.9171ZM18.9207 17.811L18.6216 17.7871L18.5958 18.111H18.9207V17.811ZM19.7713 15.8776L19.9255 16.1349L19.9255 16.1349L19.7713 15.8776ZM13 11.3H15.8343V10.7H13V11.3ZM13.3005 26C13.3 21.0022 13.3 16.0127 13.3 11H12.7C12.7 16.0127 12.7 21.0023 12.7005 26L13.3005 26ZM22.1419 25.7H13.0005V26.3H22.1419V25.7ZM21.8419 24.0984V26H22.4419V24.0984H21.8419ZM15.8343 24.3984H22.1419V23.7984H15.8343V24.3984ZM15.5343 11V24.0984H16.1343V11H15.5343ZM23.9842 18.4753H18.917V19.0753H23.9842V18.4753ZM23.5264 16.8091C23.6913 17.4238 23.7242 18.0608 23.6847 18.7584L24.2837 18.7923C24.3254 18.0565 24.2929 17.3507 24.1059 16.6536L23.5264 16.8091ZM22.1273 15.1633C22.8725 15.4383 23.3101 16.0017 23.5263 16.809L24.1059 16.6537C23.8506 15.7004 23.3004 14.9567 22.335 14.6004L22.1273 15.1633ZM20.2489 14.9938C20.8992 14.9061 21.5253 14.9413 22.1273 15.1633L22.335 14.6004C21.6205 14.3369 20.8918 14.3017 20.1686 14.3992L20.2489 14.9938ZM18.1844 16.5265C18.5578 15.6007 19.2726 15.1255 20.2488 14.9938L20.1686 14.3992C19.0123 14.5552 18.094 15.1467 17.628 16.302L18.1844 16.5265ZM18.093 20.3226C17.6707 19.0461 17.6843 17.7675 18.1845 16.5264L17.628 16.3021C17.0712 17.6836 17.0595 19.1089 17.5234 20.511L18.093 20.3226ZM19.7794 21.9169C18.9432 21.6957 18.3716 21.1651 18.093 20.3226L17.5234 20.511C17.8656 21.546 18.5938 22.2239 19.626 22.4969L19.7794 21.9169ZM20.614 22.0439C20.3321 22.0294 20.0485 21.9882 19.7795 21.9169L19.6258 22.4969C19.9395 22.5801 20.2647 22.6267 20.5832 22.6431L20.614 22.0439ZM22.7613 21.4845C22.141 21.9589 21.4143 22.0848 20.6139 22.0439L20.5833 22.6431C21.4635 22.6881 22.3512 22.5534 23.1258 21.9611L22.7613 21.4845ZM23.6342 19.844C23.5572 20.545 23.2807 21.0876 22.7614 21.4845L23.1257 21.9612C23.795 21.4497 24.1386 20.7471 24.2306 19.9095L23.6342 19.844ZM22.5832 20.1767H23.9324V19.5767H22.5832V20.1767ZM21.0941 21.6877C21.5869 21.6357 21.9971 21.4569 22.3057 21.1439C22.6118 20.8337 22.7938 20.4162 22.8787 19.9282L22.2876 19.8253C22.2171 20.2302 22.0756 20.5229 21.8786 20.7226C21.6842 20.9197 21.4118 21.0508 21.0311 21.091L21.0941 21.6877ZM19.2476 21.0009C19.74 21.6166 20.4223 21.7586 21.0941 21.6877L21.0311 21.091C20.4873 21.1484 20.0397 21.0307 19.7161 20.6261L19.2476 21.0009ZM18.6171 18.7853C18.6419 19.5353 18.7156 20.335 19.2475 21.0008L19.7162 20.6263C19.3182 20.128 19.2415 19.5106 19.2168 18.7654L18.6171 18.7853ZM22.9653 17.8088C22.9597 17.051 22.8698 16.1756 22.059 15.6635L21.7385 16.1708C22.2573 16.4984 22.3597 17.0594 22.3653 17.8132L22.9653 17.8088ZM18.9207 18.111H22.6653V17.511H18.9207V18.111ZM19.6171 15.6202C18.7688 16.1284 18.6811 17.0432 18.6216 17.7871L19.2197 17.8349C19.2826 17.0489 19.3751 16.4646 19.9255 16.1349L19.6171 15.6202ZM22.0589 15.6635C21.2881 15.1769 20.4149 15.1423 19.6171 15.6202L19.9255 16.1349C20.5198 15.7788 21.1499 15.7992 21.7386 16.1708L22.0589 15.6635Z"/></g><rect width="34" height="34" x="1" y="1" stroke="#FFDE55" stroke-width="2" rx="17"/><defs><clipPath id="a"><rect width="32" height="32" x="2" y="2" fill="#fff" rx="16"/></clipPath></defs></svg>