<svg xmlns="http://www.w3.org/2000/svg" enable-background="new 0 0 128 128" viewBox="0 0 128 128"><circle cx="64" cy="64" r="64" fill="#69C"/><path fill="#333" d="M41.277 40.993V77.83h22.027v8.355H31.339V40.993H41.277zM75.487 78.052c.401.695.918 1.267 1.55 1.71.632.439 1.36.77 2.182.98.822.211 1.681.315 2.566.315.632 0 1.296-.073 1.992-.222.695-.146 1.327-.379 1.897-.695.574-.316 1.048-.737 1.428-1.268.379-.526.568-1.19.568-1.994 0-1.35-.896-2.361-2.692-3.035-1.792-.678-4.29-1.352-7.499-2.026-1.307-.295-2.582-.643-3.83-1.044-1.244-.402-2.351-.93-3.32-1.583s-1.75-1.476-2.34-2.469c-.596-.991-.885-2.205-.885-3.639 0-2.11.405-3.839 1.232-5.19.822-1.349 1.908-2.414 3.257-3.196 1.349-.78 2.872-1.328 4.558-1.646 1.688-.316 3.415-.475 5.191-.475 1.771 0 3.488.169 5.153.506 1.671.34 3.157.909 4.464 1.71 1.313.801 2.397 1.868 3.262 3.196s1.381 3.006 1.555 5.033h-8.548c-.126-1.731-.785-2.901-1.966-3.512-1.18-.611-2.571-.92-4.173-.92-.511 0-1.054.032-1.645.095-.595.063-1.133.2-1.618.411-.484.211-.896.519-1.232.92-.338.4-.506.938-.506 1.612 0 .801.295 1.457.885 1.963.596.506 1.359.917 2.313 1.233.948.316 2.034.604 3.257.855 1.223.254 2.467.527 3.736.822 1.307.295 2.582.654 3.826 1.075 1.248.422 2.35.983 3.324 1.679.971.695 1.75 1.56 2.346 2.596.585 1.035.885 2.308.885 3.828 0 2.152-.438 3.955-1.301 5.412-.865 1.454-1.992 2.627-3.389 3.512-1.392.889-2.982 1.51-4.774 1.868s-3.62.538-5.476.538c-1.896 0-3.757-.19-5.57-.57-1.817-.379-3.43-1.014-4.842-1.898-1.412-.886-2.577-2.059-3.484-3.513-.906-1.454-1.4-3.28-1.485-5.476h8.548C74.888 76.523 75.082 77.354 75.487 78.052z"/></svg>