<svg xmlns="http://www.w3.org/2000/svg" viewBox="0 0 512 512"><g transform="matrix(1.00623 0 0 1.00623 -19.834 -553.828)"><g transform="translate(0 540.362)"><g style="line-height:125%" fill="#f69b1f" font-family="Sans" font-size="121.951" font-weight="400" letter-spacing="0" word-spacing="0"><path d="m 120.625,16 0,480 36.25231,16.90473 0,-480 z"/><path d="m 120.625,496 270.75,0 36.25231,16.90473 -270.75,0 z"/><path d="m 391.375,496 0,-51.9375 36.25231,16.90473 0,51.9375 z"/><path d="m 391.375,444.0625 -210,0 36.25231,16.90473 210,0 z"/><path d="m 181.375,444.0625 0,-428.0625 36.25231,16.90473 0,428.0625 z"/><path d="m 181.375,16 -60.75,0 36.25231,16.90473 60.75,0 z"/></g><path d="m 120.625,16 0,480 270.75,0 0,-51.9375 -210,0 0,-428.0625 -60.75,0 z" style="line-height:125%" fill="#f69b1f" font-family="Sans" font-size="121.951" font-weight="400" letter-spacing="0" word-spacing="0"/></g><path style="line-height:125%" fill="#fcd116" d="m 120.625,16 0,480 270.75,0 0,-51.9375 -210,0 0,-428.0625 -60.75,0 z" font-family="Sans" font-size="121.951" font-weight="400" letter-spacing="0" transform="translate(0 540.362)" word-spacing="0"/></g></svg>