<svg xmlns="http://www.w3.org/2000/svg" viewBox="0 0 512 512"><g transform="matrix(.96852 0 0 .96852 -9.496 -523.478)"><g transform="translate(0 540.362)"><g style="line-height:125%" fill="#f69b1f" font-family="Sans" font-size="84.732" font-weight="400" letter-spacing="0" word-spacing="0"><path d="m 386.6875,37.90625 0,50.84375 36.25231,16.90473 0,-50.84375 z"/><path d="m 386.6875,88.75 c -44.22992,7.117459 -73.71875,39.65955 -73.71875,84.90625 l 36.25231,16.90473 c 0,-45.2467 29.48883,-77.78879 73.71875,-84.90625 z"/><path d="m 312.96875,173.65625 c 0,99.13604 141.84375,81.32833 141.84375,163.6875 l 36.25231,16.90473 c 0,-82.35917 -141.84375,-64.55146 -141.84375,-163.6875 z"/><path d="m 454.8125,337.34375 c 0,31.52018 -18.81664,52.375 -56.4375,52.375 l 36.25231,16.90473 c 37.62086,0 56.4375,-20.85482 56.4375,-52.375 z"/><path d="m 398.375,389.71875 c -15.33945,0 -29.43037,-3.7316 -42.40045,-9.77964 l 36.25232,16.90473 c 12.97007,6.04804 27.06099,9.77964 42.40044,9.77964 z"/><path d="m 355.97455,379.93911 c -13.25155,-6.1793 -25.33308,-14.77669 -36.3808,-24.28286 l 36.25231,16.90473 c 11.04772,9.50617 23.12925,18.10356 36.38081,24.28286 z"/><path d="M319.59375 355.65625l-19.3125 28.96875 36.25231 16.90473 19.3125-28.96875zM300.28125 384.625c10.67138 9.90914 24.13137 18.93194 38.9888 25.86008l36.25231 16.90473c-14.85743-6.92814-28.31742-15.95094-38.9888-25.86008z"/><path d="m 339.27005,410.48508 c 14.87084,6.93438 31.14164,11.77031 47.41745,13.29617 l 36.25231,16.90473 C 406.664,439.16012 390.3932,434.32419 375.52236,427.38981 z"/><path d="m 386.6875,423.78125 0,50.3125 36.25231,16.90473 0,-50.3125 z"/><path d="m 386.6875,474.09375 30.5,0 36.25231,16.90473 -30.5,0 z"/><path d="m 417.1875,474.09375 0,-51.34375 36.25231,16.90473 0,51.34375 z"/><path d="M417.1875 422.75C465.48454 416.14093 496 382.57829 496 334.28125l36.25231 16.90473c0 48.29704-30.51546 81.85968-78.8125 88.46875zM496 334.28125C496 224.97741 354.15625 245.31029 354.15625 171.59375l36.25231 16.90473c0 73.71654 141.84375 53.38366 141.84375 162.6875z"/><path d="m 354.15625,171.59375 c 0,-29.48662 19.83196,-48.78125 50.84375,-48.78125 l 36.25231,16.90473 c -31.01179,0 -50.84375,19.29463 -50.84375,48.78125 z"/><path d="m 405,122.8125 c 12.71142,0 22.91761,2.28685 32.0806,6.55962 l 36.25231,16.90473 c -9.16299,-4.27277 -19.36918,-6.55962 -32.0806,-6.55962 z"/><path d="m 437.0806,129.37212 c 10.62647,4.9552 19.84989,12.58137 29.95065,22.40913 l 36.25231,16.90473 c -10.10075,-9.82776 -19.32418,-17.45393 -29.95065,-22.40913 z"/><path d="m 467.03125,151.78125 22.375,-24.90625 36.25231,16.90473 -22.375,24.90625 z"/><path d="M 489.40625,126.875 C 478.18172,115.02689 465.79958,104.51032 450.39606,97.327543 l 36.25232,16.904727 c 15.40351,7.18278 27.78566,17.69935 39.01018,29.54746 z"/><path d="m 450.39606,97.327543 c -9.71253,-4.52903 -20.62631,-7.73261 -33.20856,-9.108793 l 36.25231,16.90473 c 12.58225,1.37618 23.49603,4.57976 33.20857,9.10879 z"/><path d="m 417.1875,88.21875 0,-50.3125 36.25231,16.90473 0,50.3125 z"/><path d="M417.1875 37.90625l-30.5 0 36.25231 16.90473 30.5 0zM16 84.6875l0 35.5625 36.252311 16.90473 0-35.5625z"/><path d="m 16,120.25 100.65625,0 36.25231,16.90473 -100.656249,0 z"/><path d="m 116.65625,120.25 0,297.9375 36.25231,16.90473 0,-297.9375 z"/><path d="m 116.65625,418.1875 42.71875,0 36.25231,16.90473 -42.71875,0 z"/><path d="M159.375 418.1875l0-297.9375 36.25231 16.90473 0 297.9375zM159.375 120.25l100.65625 0 36.25231 16.90473-100.65625 0z"/><path d="m 260.03125,120.25 0,-35.5625 36.25231,16.90473 0,35.5625 z"/><path d="m 260.03125,84.6875 -244.03125,0 36.252311,16.90473 244.031249,0 z"/></g><path d="m 386.6875,37.90625 0,50.84375 c -44.22992,7.117459 -73.71875,39.65955 -73.71875,84.90625 0,99.13604 141.84375,81.32833 141.84375,163.6875 0,31.52018 -18.81664,52.375 -56.4375,52.375 -31.01179,0 -56.92048,-15.25207 -78.78125,-34.0625 l -19.3125,28.96875 c 21.35238,19.82721 53.86929,36.10591 86.40625,39.15625 l 0,50.3125 30.5,0 0,-51.34375 C 465.48454,416.14093 496,382.57829 496,334.28125 496,224.97741 354.15625,245.31029 354.15625,171.59375 c 0,-29.48662 19.83196,-48.78125 50.84375,-48.78125 27.45306,0 43.22082,10.66671 62.03125,28.96875 l 22.375,-24.90625 C 471.10421,107.55618 449.72446,91.77748 417.1875,88.21875 l 0,-50.3125 -30.5,0 z M 16,84.6875 l 0,35.5625 100.65625,0 0,297.9375 42.71875,0 0,-297.9375 100.65625,0 0,-35.5625 -244.03125,0 z" style="line-height:125%" fill="#f69b1f" font-family="Sans" font-size="84.732" font-weight="400" letter-spacing="0" word-spacing="0"/></g><path style="line-height:125%" fill="#fcd116" d="m 386.6875,37.90625 0,50.84375 c -44.22992,7.117459 -73.71875,39.65955 -73.71875,84.90625 0,99.13604 141.84375,81.32833 141.84375,163.6875 0,31.52018 -18.81664,52.375 -56.4375,52.375 -31.01179,0 -56.92048,-15.25207 -78.78125,-34.0625 l -19.3125,28.96875 c 21.35238,19.82721 53.86929,36.10591 86.40625,39.15625 l 0,50.3125 30.5,0 0,-51.34375 C 465.48454,416.14093 496,382.57829 496,334.28125 496,224.97741 354.15625,245.31029 354.15625,171.59375 c 0,-29.48662 19.83196,-48.78125 50.84375,-48.78125 27.45306,0 43.22082,10.66671 62.03125,28.96875 l 22.375,-24.90625 C 471.10421,107.55618 449.72446,91.77748 417.1875,88.21875 l 0,-50.3125 -30.5,0 z M 16,84.6875 l 0,35.5625 100.65625,0 0,297.9375 42.71875,0 0,-297.9375 100.65625,0 0,-35.5625 -244.03125,0 z" font-family="Sans" font-size="84.732" font-weight="400" letter-spacing="0" transform="translate(0 540.362)" word-spacing="0"/></g></svg>