<svg xmlns="http://www.w3.org/2000/svg" enable-background="new 0 0 128 128" viewBox="0 0 128 128"><circle cx="64" cy="64" r="64" fill="#39F"/><path fill="#333" d="M61.632,63.207v15.466c1.448,0,2.798-0.405,4.036-1.218c1.238-0.811,2.313-1.91,3.23-3.299   c0.922-1.389,1.639-3.032,2.149-4.935c0.512-1.899,0.77-3.938,0.77-6.118h8.458c0,3.291-0.464,6.387-1.381,9.291   c-0.917,2.906-2.345,5.451-4.289,7.641c-1.944,2.191-4.411,3.924-7.398,5.19c-2.993,1.271-6.54,1.905-10.64,1.905h-3.652V66.5   l-5.19,1.92v-5.446l5.19-1.92v-4.677l-5.19,1.92v-5.445l5.19-1.921V40.87h8.717v6.793l12.362-4.613v5.446l-12.362,4.613v4.677   l12.362-4.613v5.433L61.632,63.207z"/></svg>