<svg xmlns="http://www.w3.org/2000/svg" enable-background="new 0 0 128 128" viewBox="0 0 128 128"><circle cx="64" cy="64" r="64" fill="#3C9"/><path fill="#333" d="M16.854 51.8V44.75h31.234V51.8h-11.42v31.071h-8.389V51.8H16.854zM49.479 51.8V44.75h31.234V51.8H69.289v31.071h-8.385V51.8H49.479zM90.537 75.293c1.102 1.176 2.477 1.924 4.109 2.24V66.377c-.174-.074-.416-.152-.717-.242-.305-.09-.631-.17-.99-.238-1.316-.357-2.613-.773-3.895-1.258-1.285-.48-2.43-1.123-3.445-1.919-1.012-.801-1.824-1.797-2.43-2.993-.607-1.19-.906-2.677-.906-4.458 0-1.813.348-3.415 1.037-4.807.695-1.386 1.613-2.55 2.756-3.493 1.133-.943 2.457-1.676 3.947-2.192 1.498-.517 3.041-.828 4.643-.933v-4.111h3.152v4.111c1.607.179 3.109.526 4.516 1.043 1.402.517 2.641 1.228 3.711 2.135 1.064.906 1.939 2.039 2.613 3.388.68 1.354 1.07 2.957 1.176 4.807h-7.584c-.037-1.423-.479-2.63-1.334-3.631-.854-.996-1.887-1.491-3.098-1.491v9.443c.426.11.863.216 1.307.326.447.105.918.227 1.418.375 2.635.711 4.664 1.591 6.086 2.64 1.424 1.054 2.477 2.144 3.152 3.283.674 1.145 1.074 2.283 1.201 3.42.121 1.139.184 2.15.184 3.041 0 .785-.193 1.771-.584 2.967-.395 1.191-1.096 2.355-2.113 3.494-1.012 1.145-2.371 2.156-4.084 3.047-1.707.891-3.895 1.422-6.566 1.602v4.537h-3.152V83.73c-3.982-.289-7.098-1.512-9.342-3.684-2.24-2.176-3.543-5.359-3.895-9.559h7.525C88.902 72.516 89.436 74.119 90.537 75.293zM92.887 50.356c-.568.18-1.086.454-1.549.828s-.822.838-1.092 1.391c-.268.554-.4 1.202-.4 1.95 0 1.17.369 2.076 1.123 2.719.744.644 1.971 1.16 3.678 1.55v-8.7C94.041 50.093 93.457 50.177 92.887 50.356zM99.801 77.08c.695-.232 1.318-.559 1.871-.986.549-.426 1.006-.953 1.359-1.574.354-.627.533-1.365.533-2.215 0-1.391-.434-2.428-1.307-3.125-.871-.695-2.357-1.328-4.459-1.896v10.25C98.441 77.465 99.105 77.316 99.801 77.08z"/></svg>