<svg xmlns="http://www.w3.org/2000/svg" enable-background="new 0 0 128 128" viewBox="0 0 128 128"><circle cx="64" cy="64" r="64" fill="#99F"/><path fill="#333" d="M59.866,62.75c-0.126,0.643-0.7,1.092-1.728,1.217c-1.539,11.47-3.784,22.172-19.671,28.258   c-0.833-1.986-3.009-4.869-4.743-6.407c13.97-4.806,15.25-13.456,16.146-23.963L59.866,62.75z M76.144,81.91   c0,2.434,0.38,2.818,2.435,2.818h5.892c2.182,0,2.565-1.667,2.888-11.02c1.597,1.344,4.932,2.689,6.918,3.203   c-0.705,11.531-2.629,14.799-9.1,14.799h-7.814c-7.114,0-9.037-2.369-9.037-9.801V61.341H35.2v-7.496h57.727v7.496H76.144V81.91z    M86.967,35.775v7.433H41.028v-7.433H86.967z"/></svg>