<svg xmlns="http://www.w3.org/2000/svg" viewBox="0 0 128 128"><circle cx="64" cy="64" r="64" fill="#FC6"/><path fill="#333" d="M55.683 75.145c.53 1.022 1.236 1.85 2.116 2.481.88.638 1.913 1.106 3.101 1.412 1.188.306 2.417.464 3.686.464.859 0 1.778-.073 2.762-.216a9.754 9.754 0 0 0 2.764-.827 6.042 6.042 0 0 0 2.146-1.691c.574-.717.859-1.623.859-2.729 0-1.191-.377-2.15-1.133-2.888-.759-.738-1.752-1.35-2.98-1.84a29.453 29.453 0 0 0-4.173-1.291 115.578 115.578 0 0 1-4.729-1.228 42.863 42.863 0 0 1-4.788-1.502c-1.557-.596-2.948-1.364-4.176-2.308a10.772 10.772 0 0 1-2.977-3.525c-.759-1.418-1.136-3.125-1.136-5.133 0-2.25.479-4.205 1.441-5.859a13.045 13.045 0 0 1 3.778-4.147c1.554-1.106 3.314-1.924 5.28-2.456a22.449 22.449 0 0 1 5.894-.795c2.29 0 4.493.253 6.601.764 2.108.517 3.979 1.344 5.618 2.487a12.604 12.604 0 0 1 3.898 4.39c.962 1.781 1.444 3.941 1.444 6.481h-9.333c-.084-1.313-.36-2.397-.83-3.257-.471-.858-1.096-1.533-1.873-2.023-.777-.495-1.668-.843-2.672-1.049-1.004-.205-2.097-.3-3.282-.3-.78 0-1.557.079-2.334.242s-1.486.448-2.119.859a5.237 5.237 0 0 0-1.565 1.533c-.411.616-.614 1.391-.614 2.334 0 .859.163 1.555.49 2.087.329.532.972 1.022 1.934 1.476.962.448 2.292.896 3.992 1.349 1.697.453 3.92 1.022 6.661 1.718.819.169 1.955.464 3.41.891 1.451.433 2.893 1.117 4.328 2.061 1.431.938 2.67 2.203 3.715 3.773 1.044 1.575 1.565 3.594 1.565 6.049 0 2.008-.39 3.868-1.167 5.586s-1.934 3.204-3.468 4.453c-1.536 1.249-3.44 2.219-5.712 2.919-2.271.696-4.903 1.044-7.889 1.044-2.416 0-4.758-.296-7.029-.891-2.274-.596-4.279-1.528-6.018-2.799-1.742-1.265-3.122-2.882-4.145-4.848-1.025-1.966-1.515-4.3-1.475-7.003h9.332c.001 1.475.267 2.724.802 3.752z"/></svg>