<svg xmlns="http://www.w3.org/2000/svg" enable-background="new 0 0 128 128" viewBox="0 0 128 128"><circle cx="64" cy="64" r="64" fill="#99F"/><path fill="#333" d="M69.573,52.786v-7.878h-9.225v-4.806h9.225v-3.588h9.033v3.588h3.974v4.806h-3.974V82.58h-8.648v-4.743    c-1.281,2.053-2.732,3.536-4.355,4.452c-1.627,0.92-3.652,1.379-6.089,1.379c-3.971,0-7.314-1.613-10.025-4.838    c-2.714-3.225-4.068-7.355-4.068-12.396c0-5.852,1.333-10.443,4.005-13.773c2.667-3.333,6.245-4.998,10.731-4.998    c2.092,0,3.939,0.461,5.541,1.378C67.299,49.959,68.59,51.208,69.573,52.786z M52.85,86.742h22.295v4.742H52.85V86.742z     M69.828,66.049c0-4.184-1.052-7.174-3.151-8.968c-1.285-1.067-2.811-1.603-4.568-1.603c-2.617,0-4.537,0.983-5.757,2.946    c-1.225,1.965-1.836,4.399-1.836,7.304c0,3.161,0.622,5.68,1.868,7.561c1.243,1.879,3.151,2.819,5.725,2.819    c2.529,0,4.449-0.93,5.76-2.787C69.175,71.463,69.828,69.039,69.828,66.049z"/></svg>