<svg xmlns="http://www.w3.org/2000/svg" fill="none" viewBox="0 0 32 32"><g clip-path="url(#a)"><path fill="#FDD837" d="M19.4371 30.5629C27.48 28.6646 32.4611 20.6057 30.5629 12.5629C28.6646 4.52002 20.6057 -0.461131 12.5629 1.43715C4.52001 3.33544 -0.461137 11.3943 1.43715 19.4372C3.33543 27.48 11.3943 32.4611 19.4371 30.5629Z"/><mask id="b" style="mask-type:alpha" width="30" height="30" x="1" y="1" maskUnits="userSpaceOnUse"><path fill="#FDD40C" d="M1.00014 15.8839C0.997339 16.5397 1.03692 17.1951 1.11863 17.8458C1.48847 20.7393 2.69719 23.4613 4.5957 25.676C6.49421 27.8907 8.99947 29.5012 11.8025 30.309C13.1291 30.6894 14.5017 30.8854 15.8817 30.8917C16.931 30.8966 17.9779 30.7918 19.0053 30.579C20.9636 30.1667 22.8195 29.3664 24.4636 28.2255C26.1077 27.0845 27.5066 25.6258 28.578 23.9356C28.7159 23.718 28.848 23.4946 28.9762 23.2712C29.5693 22.2183 30.0318 21.097 30.3535 19.9321C30.4623 19.5436 30.5477 19.1356 30.6332 18.7277C30.7187 18.3198 30.7711 17.906 30.8139 17.4845C30.8644 16.9989 30.8903 16.5074 30.8916 16.0101C30.8949 15.411 30.8619 14.8123 30.7925 14.2172C30.7459 13.8054 30.6811 13.3994 30.5982 12.9992C30.0161 10.1125 28.5948 7.46176 26.5125 5.37941C24.4301 3.29707 21.7794 1.87575 18.8926 1.29363C18.4925 1.21205 18.0846 1.14795 17.6727 1.09938C17.1195 1.03484 16.5631 1.00176 16.0061 1.00032C15.4721 0.996795 14.9384 1.02273 14.4074 1.07802C13.9878 1.11881 13.5721 1.18097 13.1642 1.25867C12.7562 1.33637 12.3541 1.42767 11.9579 1.53645C10.7926 1.85796 9.67118 2.32114 8.61868 2.91563C8.39335 3.0419 8.16996 3.17399 7.9524 3.30414C5.55626 4.82563 3.63962 6.99414 2.424 9.55904C1.92261 10.6175 1.54896 11.732 1.31094 12.8788C1.1069 13.8675 1.00278 14.8743 1.00014 15.8839V15.8839Z"/></mask><g mask="url(#b)"><path fill="#FFF6AA" d="M16.2219-7.10809C17.0057-6.72033 17.7544-6.26538 18.4597-5.74833L-8.28871 24.5218C-8.9159 23.9119-9.48853 23.2482-10.0001 22.5385L16.2219-7.10809zM23.2219-.108093C24.0057.279666 24.7544.734622 25.4597 1.25167L-1.28871 31.5218C-1.9159 30.9119-2.48853 30.2482-3.00006 29.5385L23.2219-.108093zM19.2219-3.10809C20.0057-2.72033 20.7544-2.26538 21.4597-1.74833L-5.28871 28.5218C-5.9159 27.9119-6.48853 27.2482-7.00006 26.5385L19.2219-3.10809zM26.2219 3.89191C27.0057 4.27967 27.7544 4.73462 28.4597 5.25167L1.71129 35.5218C1.0841 34.9119.51147 34.2482-.0000610352 33.5385L26.2219 3.89191zM31.2219 5.89191C32.0057 6.27967 32.7544 6.73462 33.4597 7.25167L6.71129 37.5218C6.0841 36.9119 5.51147 36.2482 4.99994 35.5385L31.2219 5.89191zM33.2219 10.8919C34.0057 11.2797 34.7544 11.7346 35.4597 12.2517L8.71129 42.5218C8.0841 41.9119 7.51147 41.2482 6.99994 40.5385L33.2219 10.8919zM39.2219 10.8919C40.0057 11.2797 40.7544 11.7346 41.4597 12.2517L14.7113 42.5218C14.0841 41.9119 13.5115 41.2482 12.9999 40.5385L39.2219 10.8919z"/></g><path fill="#F9BF2C" d="M17.9801 29.1825C25.3659 27.9836 30.3814 21.0243 29.1825 13.6385C27.9836 6.2527 21.0244 1.23721 13.6386 2.4361C6.25276 3.63498 1.23727 10.5943 2.43616 17.9801C3.63504 25.3659 10.5943 30.3814 17.9801 29.1825Z"/><path style="mix-blend-mode:multiply" fill="url(#c)" d="M18.0172 29.4108C25.5291 28.1915 30.6302 21.1134 29.4108 13.6015C28.1915 6.08961 21.1134 0.988492 13.6015 2.20785C6.0896 3.4272 0.988481 10.5053 2.20783 18.0172C3.42719 25.5291 10.5053 30.6302 18.0172 29.4108Z"/><path style="mix-blend-mode:multiply" fill="url(#d)" d="M28.5814 15.9602C28.6451 12.4573 27.3521 9.07159 24.9865 6.54702C22.6209 4.02245 19.3761 2.56546 15.9651 2.49616C17.7172 2.44769 19.461 2.76023 21.0936 3.41531C22.7261 4.0704 24.2143 5.05475 25.4702 6.31025C26.7262 7.56575 27.7245 9.06695 28.4061 10.7252C29.0877 12.3835 29.4389 14.1652 29.4389 15.9651C29.4389 17.7651 29.0877 19.5468 28.4061 21.205C27.7245 22.8633 26.7262 24.3645 25.4702 25.62C24.2143 26.8755 22.7261 27.8598 21.0936 28.5149C19.461 29.17 17.7172 29.4825 15.9651 29.4341C19.3778 29.3648 22.624 27.9064 24.9899 25.3797C27.3558 22.853 28.6476 19.4649 28.5814 15.9602V15.9602Z"/><path style="mix-blend-mode:multiply" fill="url(#e)" d="M15.9651 2.49616C12.5541 2.56546 9.30932 4.02245 6.94371 6.54702C4.57811 9.07159 3.28512 12.4573 3.34883 15.9602C3.28257 19.4649 4.57442 22.853 6.9403 25.3797C9.30618 27.9064 12.5524 29.3648 15.9651 29.4341C14.213 29.4825 12.4692 29.17 10.8366 28.5149C9.20409 27.8598 7.71591 26.8755 6.45995 25.62C5.20399 24.3645 4.20573 22.8633 3.52409 21.205C2.84246 19.5468 2.49127 17.7651 2.49127 15.9651C2.49127 14.1652 2.84246 12.3835 3.52409 10.7252C4.20573 9.06695 5.20399 7.56575 6.45995 6.31025C7.71591 5.05475 9.20409 4.0704 10.8366 3.41531C12.4692 2.76023 14.213 2.44769 15.9651 2.49616V2.49616Z"/><path fill="#FFF6AA" d="M10.5156 15.2695L9.46094 19H8.34766L6.85547 13.3633H8.08203L8.96094 17.3359H9.02344L10.0508 13.3633H11.0469L12.0938 17.3359H12.1562L13.0273 13.3633H14.2461L12.75 19H11.6445L10.5781 15.2695H10.5156ZM14.9805 17.4336H16.1211C16.1471 17.6628 16.2669 17.8451 16.4805 17.9805C16.694 18.1159 16.9674 18.1836 17.3008 18.1836C17.6081 18.1836 17.8594 18.1172 18.0547 17.9844C18.25 17.849 18.3477 17.6745 18.3477 17.4609C18.3477 17.2812 18.2721 17.1354 18.1211 17.0234C17.9701 16.9115 17.7214 16.819 17.375 16.7461L16.6406 16.5898C15.6198 16.3763 15.1094 15.8398 15.1094 14.9805C15.1094 14.4492 15.306 14.0234 15.6992 13.7031C16.0924 13.3802 16.6146 13.2188 17.2656 13.2188C17.8854 13.2188 18.3945 13.3763 18.793 13.6914C19.194 14.0065 19.4036 14.4154 19.4219 14.918H18.3125C18.2839 14.694 18.1745 14.5143 17.9844 14.3789C17.7943 14.2435 17.5573 14.1758 17.2734 14.1758C16.9766 14.1758 16.7383 14.2396 16.5586 14.3672C16.3815 14.4948 16.293 14.6654 16.293 14.8789C16.293 15.0534 16.3646 15.194 16.5078 15.3008C16.6536 15.4076 16.8919 15.4961 17.2227 15.5664L17.9023 15.7109C18.4674 15.8307 18.8789 16.0182 19.1367 16.2734C19.3945 16.5286 19.5234 16.875 19.5234 17.3125C19.5234 17.8802 19.319 18.3281 18.9102 18.6562C18.5039 18.9818 17.9466 19.1445 17.2383 19.1445C16.5664 19.1445 16.0273 18.9909 15.6211 18.6836C15.2148 18.3763 15.0013 17.9596 14.9805 17.4336ZM23.0195 19.5273H22.4727V19.0391C21.8607 19.0052 21.3802 18.8424 21.0312 18.5508C20.6849 18.2591 20.5104 17.875 20.5078 17.3984H21.625C21.638 17.5911 21.7214 17.7539 21.875 17.8867C22.0312 18.0195 22.2305 18.099 22.4727 18.125V16.6719L22.0625 16.5742C21.5911 16.4648 21.2331 16.2773 20.9883 16.0117C20.7435 15.7435 20.6211 15.4062 20.6211 15C20.6211 14.5208 20.7839 14.1341 21.1094 13.8398C21.4349 13.5456 21.8893 13.375 22.4727 13.3281V12.7969H23.0195V13.3281C23.5638 13.3802 23.9987 13.5547 24.3242 13.8516C24.6497 14.1458 24.8164 14.5182 24.8242 14.9688H23.7344C23.7292 14.7917 23.6602 14.6367 23.5273 14.5039C23.3945 14.3711 23.2253 14.2904 23.0195 14.2617V15.6523L23.4375 15.7383C24.4349 15.9518 24.9336 16.4779 24.9336 17.3164C24.9336 17.8138 24.7669 18.2109 24.4336 18.5078C24.1029 18.8047 23.6315 18.9792 23.0195 19.0312V19.5273ZM23.8242 17.4492C23.8242 17.0951 23.556 16.8685 23.0195 16.7695V18.1289C23.2721 18.1133 23.4688 18.0456 23.6094 17.9258C23.7526 17.806 23.8242 17.6471 23.8242 17.4492ZM21.7539 14.8906C21.7539 15.0547 21.8151 15.1927 21.9375 15.3047C22.0599 15.4141 22.2383 15.4922 22.4727 15.5391V14.2578C22.2617 14.2682 22.0885 14.3333 21.9531 14.4531C21.8203 14.5703 21.7539 14.7161 21.7539 14.8906Z"/><path fill="#FFF6AA" d="M10.5156 15.2695V15.0695H10.3643L10.3232 15.2151L10.5156 15.2695ZM9.46094 19V19.2H9.61223L9.65339 19.0544L9.46094 19ZM8.34766 19L8.15432 19.0512L8.19371 19.2H8.34766V19ZM6.85547 13.3633V13.1633H6.59563L6.66213 13.4145L6.85547 13.3633ZM8.08203 13.3633L8.27731 13.3201L8.24262 13.1633H8.08203V13.3633ZM8.96094 17.3359L8.76566 17.3791L8.80035 17.5359H8.96094V17.3359ZM9.02344 17.3359V17.5359H9.1783L9.21707 17.386L9.02344 17.3359ZM10.0508 13.3633V13.1633H9.89592L9.85715 13.3132L10.0508 13.3633ZM11.0469 13.3633L11.2403 13.3123L11.201 13.1633H11.0469V13.3633ZM12.0938 17.3359L11.9004 17.3869L11.9396 17.5359H12.0938V17.3359ZM12.1562 17.3359V17.5359H12.3171L12.3516 17.3788L12.1562 17.3359ZM13.0273 13.3633V13.1633H12.8664L12.832 13.3204L13.0273 13.3633ZM14.2461 13.3633L14.4394 13.4146L14.5061 13.1633H14.2461V13.3633ZM12.75 19V19.2H12.9038L12.9433 19.0513L12.75 19ZM11.6445 19L11.4522 19.055L11.4937 19.2H11.6445V19ZM10.5781 15.2695L10.7704 15.2146L10.729 15.0695H10.5781V15.2695ZM10.3232 15.2151L9.26848 18.9456L9.65339 19.0544L10.7081 15.3239L10.3232 15.2151ZM9.46094 18.8H8.34766V19.2H9.46094V18.8ZM8.541 18.9488L7.04881 13.3121L6.66213 13.4145L8.15432 19.0512L8.541 18.9488ZM6.85547 13.5633H8.08203V13.1633H6.85547V13.5633ZM7.88675 13.4065L8.76566 17.3791L9.15622 17.2927L8.27731 13.3201L7.88675 13.4065ZM8.96094 17.5359H9.02344V17.1359H8.96094V17.5359ZM9.21707 17.386L10.2444 13.4134L9.85715 13.3132L8.82981 17.2859L9.21707 17.386ZM10.0508 13.5633H11.0469V13.1633H10.0508V13.5633ZM10.8535 13.4142L11.9004 17.3869L12.2871 17.285L11.2403 13.3123L10.8535 13.4142ZM12.0938 17.5359H12.1562V17.1359H12.0938V17.5359ZM12.3516 17.3788L13.2227 13.4061L12.832 13.3204L11.9609 17.2931L12.3516 17.3788ZM13.0273 13.5633H14.2461V13.1633H13.0273V13.5633ZM14.0528 13.312L12.5567 18.9487L12.9433 19.0513L14.4394 13.4146L14.0528 13.312ZM12.75 18.8H11.6445V19.2H12.75V18.8ZM11.8368 18.945L10.7704 15.2146L10.3858 15.3245L11.4522 19.055L11.8368 18.945ZM10.5781 15.0695H10.5156V15.4695H10.5781V15.0695ZM14.9805 17.4336V17.2336H14.7724L14.7806 17.4415L14.9805 17.4336ZM16.1211 17.4336L16.3198 17.411L16.2997 17.2336H16.1211V17.4336ZM18.0547 17.9844L18.1672 18.1498L18.1686 18.1487L18.0547 17.9844ZM18.1211 17.0234L18.2402 16.8628L18.1211 17.0234ZM17.375 16.7461L17.3334 16.9417L17.3338 16.9418L17.375 16.7461ZM16.6406 16.5898L16.6822 16.3942L16.6816 16.3941L16.6406 16.5898ZM15.6992 13.7031L15.8255 13.8582L15.8261 13.8577L15.6992 13.7031ZM18.793 13.6914L18.6689 13.8483L18.6694 13.8487L18.793 13.6914ZM19.4219 14.918V15.118H19.6293L19.6217 14.9107L19.4219 14.918ZM18.3125 14.918L18.1141 14.9433L18.1365 15.118H18.3125V14.918ZM16.5586 14.3672L16.4428 14.2041L16.4417 14.2049L16.5586 14.3672ZM16.5078 15.3008L16.3883 15.4611L16.3897 15.4622L16.5078 15.3008ZM17.2227 15.5664L17.2643 15.3708L17.2642 15.3708L17.2227 15.5664ZM17.9023 15.7109L17.8607 15.9066L17.8609 15.9066L17.9023 15.7109ZM18.9102 18.6562L19.0352 18.8123L19.0353 18.8122L18.9102 18.6562ZM14.9805 17.6336H16.1211V17.2336H14.9805V17.6336ZM15.9224 17.4562C15.956 17.7518 16.1143 17.9851 16.3734 18.1494L16.5876 17.8116C16.4195 17.705 16.3383 17.5738 16.3198 17.411L15.9224 17.4562ZM16.3734 18.1494C16.6276 18.3106 16.9413 18.3836 17.3008 18.3836V17.9836C16.9936 17.9836 16.7604 17.9212 16.5876 17.8116L16.3734 18.1494ZM17.3008 18.3836C17.6362 18.3836 17.93 18.311 18.1671 18.1498L17.9422 17.819C17.7888 17.9233 17.5799 17.9836 17.3008 17.9836V18.3836ZM18.1686 18.1487C18.4107 17.9809 18.5477 17.7483 18.5477 17.4609H18.1477C18.1477 17.6007 18.0893 17.717 17.9407 17.82L18.1686 18.1487ZM18.5477 17.4609C18.5477 17.2145 18.4394 17.0104 18.2402 16.8628L18.002 17.1841C18.1049 17.2604 18.1477 17.348 18.1477 17.4609H18.5477ZM18.2402 16.8628C18.0536 16.7244 17.7702 16.6249 17.4162 16.5504L17.3338 16.9418C17.6725 17.0131 17.8865 17.0985 18.002 17.1841L18.2402 16.8628ZM17.4166 16.5505L16.6822 16.3942L16.599 16.7855L17.3334 16.9417L17.4166 16.5505ZM16.6816 16.3941C16.1952 16.2923 15.855 16.1185 15.6371 15.8895C15.4229 15.6644 15.3094 15.3677 15.3094 14.9805H14.9094C14.9094 15.4526 15.051 15.8538 15.3473 16.1652C15.6398 16.4726 16.0652 16.6738 16.5997 16.7856L16.6816 16.3941ZM15.3094 14.9805C15.3094 14.5061 15.4814 14.1385 15.8255 13.8582L15.5729 13.5481C15.1306 13.9084 14.9094 14.3924 14.9094 14.9805H15.3094ZM15.8261 13.8577C16.1746 13.5715 16.6477 13.4188 17.2656 13.4188V13.0187C16.5815 13.0187 16.0103 13.1889 15.5723 13.5486L15.8261 13.8577ZM17.2656 13.4188C17.8506 13.4188 18.313 13.5668 18.6689 13.8483L18.917 13.5345C18.476 13.1858 17.9202 13.0187 17.2656 13.0187V13.4188ZM18.6694 13.8487C19.0249 14.128 19.2059 14.4824 19.222 14.9252L19.6217 14.9107C19.6013 14.3484 19.3631 13.885 18.9165 13.5341L18.6694 13.8487ZM19.4219 14.718H18.3125V15.118H19.4219V14.718ZM18.5109 14.8926C18.4749 14.6112 18.3342 14.3825 18.1004 14.216L17.8683 14.5418C18.0148 14.6461 18.0928 14.7768 18.1141 14.9433L18.5109 14.8926ZM18.1004 14.216C17.8697 14.0516 17.5897 13.9758 17.2734 13.9758V14.3758C17.5248 14.3758 17.7189 14.4353 17.8683 14.5418L18.1004 14.216ZM17.2734 13.9758C16.9492 13.9758 16.6663 14.0454 16.4428 14.2041L16.6744 14.5303C16.8103 14.4337 17.0039 14.3758 17.2734 14.3758V13.9758ZM16.4417 14.2049C16.2138 14.3691 16.093 14.5994 16.093 14.8789H16.493C16.493 14.7313 16.5492 14.6205 16.6755 14.5294L16.4417 14.2049ZM16.093 14.8789C16.093 15.1183 16.1958 15.3177 16.3883 15.4611L16.6273 15.1404C16.5333 15.0703 16.493 14.9885 16.493 14.8789H16.093ZM16.3897 15.4622C16.5704 15.5945 16.8426 15.6901 17.1811 15.762L17.2642 15.3708C16.9412 15.3021 16.7369 15.2206 16.626 15.1394L16.3897 15.4622ZM17.1811 15.762L17.8607 15.9066L17.9439 15.5153L17.2643 15.3708L17.1811 15.762ZM17.8609 15.9066C18.4087 16.0227 18.7772 16.199 18.996 16.4156L19.2774 16.1313C18.9806 15.8375 18.5262 15.6387 17.9438 15.5153L17.8609 15.9066ZM18.996 16.4156C19.2083 16.6257 19.3234 16.9166 19.3234 17.3125H19.7234C19.7234 16.8334 19.5808 16.4316 19.2774 16.1313L18.996 16.4156ZM19.3234 17.3125C19.3234 17.8253 19.1422 18.2136 18.785 18.5003L19.0353 18.8122C19.4958 18.4427 19.7234 17.9351 19.7234 17.3125H19.3234ZM18.7851 18.5002C18.4252 18.7885 17.9174 18.9445 17.2383 18.9445V19.3445C17.9758 19.3445 18.5826 19.175 19.0352 18.8123L18.7851 18.5002ZM17.2383 18.9445C16.5961 18.9445 16.1036 18.7978 15.7417 18.5241L15.5004 18.8431C15.9511 19.184 16.5367 19.3445 17.2383 19.3445V18.9445ZM15.7417 18.5241C15.3851 18.2543 15.1989 17.8942 15.1803 17.4257L14.7806 17.4415C14.8037 18.0251 15.0446 18.4983 15.5004 18.8431L15.7417 18.5241ZM23.0195 19.5273V19.7273H23.2195V19.5273H23.0195ZM22.4727 19.5273H22.2727V19.7273H22.4727V19.5273ZM22.4727 19.0391H22.6727V18.8498L22.4837 18.8394L22.4727 19.0391ZM21.0312 18.5508L20.9024 18.7038L20.903 18.7042L21.0312 18.5508ZM20.5078 17.3984V17.1984H20.3067L20.3078 17.3995L20.5078 17.3984ZM21.625 17.3984L21.8245 17.385L21.8119 17.1984H21.625V17.3984ZM21.875 17.8867L21.7442 18.038L21.7455 18.0391L21.875 17.8867ZM22.4727 18.125L22.4513 18.3239L22.6727 18.3477V18.125H22.4727ZM22.4727 16.6719H22.6727V16.5139L22.519 16.4773L22.4727 16.6719ZM22.0625 16.5742L22.1088 16.3797L22.1077 16.3794L22.0625 16.5742ZM20.9883 16.0117L20.8406 16.1465L20.8412 16.1473L20.9883 16.0117ZM22.4727 13.3281L22.4887 13.5275L22.6727 13.5127V13.3281H22.4727ZM22.4727 12.7969V12.5969H22.2727V12.7969H22.4727ZM23.0195 12.7969H23.2195V12.5969H23.0195V12.7969ZM23.0195 13.3281H22.8195V13.5099L23.0005 13.5272L23.0195 13.3281ZM24.3242 13.8516L24.1894 13.9993L24.1901 13.9999L24.3242 13.8516ZM24.8242 14.9688V15.1687H25.0277L25.0242 14.9653L24.8242 14.9688ZM23.7344 14.9688L23.5345 14.9746L23.5402 15.1687H23.7344V14.9688ZM23.0195 14.2617L23.0471 14.0636L22.8195 14.0319V14.2617H23.0195ZM23.0195 15.6523H22.8195V15.8154L22.9793 15.8482L23.0195 15.6523ZM23.4375 15.7383L23.4794 15.5427L23.4778 15.5424L23.4375 15.7383ZM24.4336 18.5078L24.3006 18.3585L24.3 18.359L24.4336 18.5078ZM23.0195 19.0312L23.0026 18.832L22.8195 18.8475V19.0312H23.0195ZM23.0195 16.7695L23.0558 16.5728L22.8195 16.5293V16.7695H23.0195ZM23.0195 18.1289H22.8195V18.3417L23.0319 18.3285L23.0195 18.1289ZM23.6094 17.9258L23.4811 17.7724L23.4797 17.7735L23.6094 17.9258ZM21.9375 15.3047L21.8025 15.4523L21.8042 15.4538L21.9375 15.3047ZM22.4727 15.5391L22.4334 15.7352L22.6727 15.783V15.5391H22.4727ZM22.4727 14.2578H22.6727V14.0477L22.4628 14.0581L22.4727 14.2578ZM21.9531 14.4531L22.0854 14.6031L22.0856 14.6029L21.9531 14.4531ZM23.0195 19.3273H22.4727V19.7273H23.0195V19.3273ZM22.6727 19.5273V19.0391H22.2727V19.5273H22.6727ZM22.4837 18.8394C21.9 18.8071 21.4656 18.6532 21.1595 18.3973L20.903 18.7042C21.2948 19.0317 21.8214 19.2033 22.4616 19.2388L22.4837 18.8394ZM21.1601 18.3978C20.8612 18.1461 20.7101 17.8188 20.7078 17.3973L20.3078 17.3995C20.3107 17.9312 20.5086 18.3721 20.9024 18.7038L21.1601 18.3978ZM20.5078 17.5984H21.625V17.1984H20.5078V17.5984ZM21.4255 17.4119C21.4423 17.6609 21.5525 17.8723 21.7442 18.038L22.0058 17.7354C21.8902 17.6355 21.8338 17.5214 21.8245 17.385L21.4255 17.4119ZM21.7455 18.0391C21.9377 18.2025 22.1768 18.2943 22.4513 18.3239L22.494 17.9261C22.2841 17.9036 22.1248 17.8366 22.0045 17.7343L21.7455 18.0391ZM22.6727 18.125V16.6719H22.2727V18.125H22.6727ZM22.519 16.4773L22.1088 16.3797L22.0162 16.7688L22.4263 16.8664L22.519 16.4773ZM22.1077 16.3794C21.6625 16.2761 21.3451 16.1038 21.1354 15.8762L20.8412 16.1473C21.1211 16.4509 21.5198 16.6536 22.0173 16.769L22.1077 16.3794ZM21.136 15.8769C20.9289 15.65 20.8211 15.3627 20.8211 15H20.4211C20.4211 15.4498 20.5581 15.837 20.8406 16.1465L21.136 15.8769ZM20.8211 15C20.8211 14.5716 20.9641 14.2408 21.2435 13.9882L20.9753 13.6915C20.6037 14.0274 20.4211 14.4701 20.4211 15H20.8211ZM21.2435 13.9882C21.5269 13.732 21.9347 13.572 22.4887 13.5275L22.4566 13.1288C21.844 13.178 21.3429 13.3592 20.9753 13.6915L21.2435 13.9882ZM22.6727 13.3281V12.7969H22.2727V13.3281H22.6727ZM22.4727 12.9969H23.0195V12.5969H22.4727V12.9969ZM22.8195 12.7969V13.3281H23.2195V12.7969H22.8195ZM23.0005 13.5272C23.5122 13.5762 23.903 13.7381 24.1894 13.9993L24.459 13.7038C24.0944 13.3713 23.6154 13.1842 23.0386 13.129L23.0005 13.5272ZM24.1901 13.9999C24.4733 14.256 24.6174 14.5753 24.6242 14.9722L25.0242 14.9653C25.0154 14.4611 24.8261 14.0357 24.4583 13.7032L24.1901 13.9999ZM24.8242 14.7688H23.7344V15.1687H24.8242V14.7688ZM23.9343 14.9629C23.9275 14.7315 23.8353 14.529 23.6688 14.3625L23.3859 14.6453C23.4851 14.7445 23.5308 14.8518 23.5345 14.9746L23.9343 14.9629ZM23.6688 14.3625C23.5019 14.1956 23.2911 14.0976 23.0471 14.0636L22.9919 14.4598C23.1594 14.4831 23.2871 14.5466 23.3859 14.6453L23.6688 14.3625ZM22.8195 14.2617V15.6523H23.2195V14.2617H22.8195ZM22.9793 15.8482L23.3972 15.9342L23.4778 15.5424L23.0598 15.4564L22.9793 15.8482ZM23.3956 15.9338C23.8703 16.0355 24.2021 16.2066 24.4144 16.4306C24.623 16.6506 24.7336 16.9397 24.7336 17.3164H25.1336C25.1336 16.8546 24.9948 16.4614 24.7047 16.1554C24.4184 15.8533 24.0021 15.6546 23.4794 15.5427L23.3956 15.9338ZM24.7336 17.3164C24.7336 17.764 24.5862 18.1041 24.3006 18.3585L24.5666 18.6572C24.9477 18.3178 25.1336 17.8636 25.1336 17.3164H24.7336ZM24.3 18.359C24.012 18.6175 23.5875 18.7822 23.0026 18.832L23.0365 19.2305C23.6756 19.1761 24.1938 18.9918 24.5672 18.6566L24.3 18.359ZM22.8195 19.0312V19.5273H23.2195V19.0312H22.8195ZM24.0242 17.4492C24.0242 17.2138 23.9317 17.0125 23.7521 16.8609C23.5806 16.716 23.341 16.6255 23.0558 16.5728L22.9832 16.9662C23.2345 17.0126 23.3973 17.0848 23.494 17.1665C23.5827 17.2414 23.6242 17.3304 23.6242 17.4492H24.0242ZM22.8195 16.7695V18.1289H23.2195V16.7695H22.8195ZM23.0319 18.3285C23.312 18.3112 23.5552 18.2346 23.7391 18.078L23.4797 17.7735C23.3823 17.8565 23.2323 17.9154 23.0072 17.9293L23.0319 18.3285ZM23.7377 18.0792C23.9294 17.9189 24.0242 17.7023 24.0242 17.4492H23.6242C23.6242 17.592 23.5758 17.6931 23.4811 17.7724L23.7377 18.0792ZM21.5539 14.8906C21.5539 15.1115 21.6392 15.3029 21.8025 15.4522L22.0725 15.1571C21.991 15.0826 21.9539 14.9978 21.9539 14.8906H21.5539ZM21.8042 15.4538C21.9627 15.5954 22.179 15.6843 22.4334 15.7352L22.5119 15.3429C22.2975 15.3001 22.1571 15.2327 22.0708 15.1556L21.8042 15.4538ZM22.6727 15.5391V14.2578H22.2727V15.5391H22.6727ZM22.4628 14.0581C22.2145 14.0703 21.9956 14.1485 21.8206 14.3033L22.0856 14.6029C22.1815 14.5181 22.309 14.4661 22.4825 14.4576L22.4628 14.0581ZM21.8208 14.3032C21.6457 14.4577 21.5539 14.6578 21.5539 14.8906H21.9539C21.9539 14.7745 21.9949 14.683 22.0854 14.6031L21.8208 14.3032Z"/></g><defs><radialGradient id="d" cx="0" cy="0" r="1" gradientTransform="matrix(-7.06796 -24.56636 24.02204 -6.91135 24.084 27.196)" gradientUnits="userSpaceOnUse"><stop offset=".02" stop-color="#fff" stop-opacity="0"/><stop offset="1" stop-color="#F9A822" stop-opacity=".8"/></radialGradient><radialGradient id="e" cx="0" cy="0" r="1" gradientTransform="matrix(6.73686 24.70202 -24.05524 6.56047 6.983 5.298)" gradientUnits="userSpaceOnUse"><stop offset=".02" stop-color="#fff" stop-opacity="0"/><stop offset=".666" stop-color="#FCD99D" stop-opacity=".51"/><stop offset="1" stop-color="#F9A822" stop-opacity=".6"/></radialGradient><linearGradient id="c" x1="6.675" x2="6.691" y1="17.039" y2="40.277" gradientUnits="userSpaceOnUse"><stop offset=".02" stop-color="#fff" stop-opacity="0"/><stop offset="1" stop-color="#F9A822"/></linearGradient><clipPath id="a"><rect width="32" height="32" fill="#fff" rx="16"/></clipPath></defs></svg>