<svg xmlns="http://www.w3.org/2000/svg" fill="none" viewBox="0 0 32 32"><path fill="#50D9D7" d="M16 31C24.2843 31 31 24.2843 31 16C31 7.71573 24.2843 1 16 1C7.71573 1 1 7.71573 1 16C1 24.2843 7.71573 31 16 31Z"/><path fill="#EA9706" d="M16 28.1875C22.731 28.1875 28.1875 22.731 28.1875 16C28.1875 9.26903 22.731 3.8125 16 3.8125C9.26903 3.8125 3.8125 9.26903 3.8125 16C3.8125 22.731 9.26903 28.1875 16 28.1875Z"/><path fill="#FFAC00" d="M16 26.3125C21.6954 26.3125 26.3125 21.6954 26.3125 16C26.3125 10.3046 21.6954 5.6875 16 5.6875C10.3046 5.6875 5.6875 10.3046 5.6875 16C5.6875 21.6954 10.3046 26.3125 16 26.3125Z"/><path fill="#fff" stroke="#fff" stroke-width=".2" d="M18.7917 12.6666C18.5896 12.6666 18.4257 12.8305 18.4257 13.0327V13.584C17.5659 13.7238 16.9156 14.3456 16.9156 15.0896 16.9156 16.2481 17.9576 16.4615 18.7183 16.6173 19.5834 16.7945 19.9357 16.9174 19.9357 17.4277 19.9357 17.863 19.4119 18.2307 18.7917 18.2307 18.3707 18.2307 17.9832 18.0648 17.7805 17.7978 17.6583 17.6368 17.4287 17.6054 17.2676 17.7276 17.1066 17.8498 17.0751 18.0794 17.1974 18.2405 17.4754 18.6067 17.9191 18.8534 18.4257 18.934V19.4846C18.4257 19.6868 18.5896 19.8507 18.7917 19.8507 18.9939 19.8507 19.1578 19.6868 19.1578 19.4846V18.9333C20.0176 18.7936 20.6678 18.1717 20.6678 17.4277 20.6678 16.2692 19.6259 16.0558 18.8651 15.9 18.0001 15.7229 17.6478 15.6 17.6478 15.0896 17.6478 14.6544 18.1716 14.2867 18.7917 14.2867 19.2128 14.2867 19.6003 14.4525 19.803 14.7195 19.9252 14.8806 20.1548 14.912 20.3159 14.7898 20.4769 14.6676 20.5084 14.4379 20.3861 14.2769 20.1081 13.9106 19.6644 13.664 19.1578 13.5834V13.0327C19.1578 12.8305 18.9939 12.6666 18.7917 12.6666zM13.2635 14.2681C13.876 14.2681 14.45 14.5862 14.7989 15.119 14.9097 15.2881 15.1365 15.3354 15.3057 15.2247 15.4748 15.114 15.5221 14.887 15.4114 14.7179 14.9268 13.9778 14.1238 13.5359 13.2635 13.5359 11.8316 13.5359 10.6666 14.747 10.6666 16.2356 10.6666 17.7243 11.8316 18.9354 13.2635 18.9354 14.1239 18.9354 14.9268 18.4936 15.4114 17.7534 15.5222 17.5842 15.4749 17.3574 15.3057 17.2466 15.1365 17.1359 14.9097 17.1832 14.7989 17.3523 14.45 17.8851 13.876 18.2032 13.2635 18.2032 12.2352 18.2032 11.3987 17.3205 11.3987 16.2356 11.3987 15.1507 12.2352 14.2681 13.2635 14.2681z"/></svg>